solid tfln_waveguide_core.stl
facet normal 0.000000 0.000000 -1.000000
outer loop
vertex 49.000000 10.000000 1.600000
vertex 49.000000 30.000000 1.600000
vertex 51.000000 30.000000 1.600000
endloop
endfacet
facet normal 0.000000 0.000000 -1.000000
outer loop
vertex 49.000000 10.000000 1.600000
vertex 51.000000 30.000000 1.600000
vertex 51.000000 10.000000 1.600000
endloop
endfacet
facet normal 0.000000 0.000000 1.000000
outer loop
vertex 49.000000 10.000000 2.600000
vertex 51.000000 10.000000 2.600000
vertex 51.000000 30.000000 2.600000
endloop
endfacet
facet normal 0.000000 0.000000 1.000000
outer loop
vertex 49.000000 10.000000 2.600000
vertex 51.000000 30.000000 2.600000
vertex 49.000000 30.000000 2.600000
endloop
endfacet
facet normal 0.000000 -1.000000 0.000000
outer loop
vertex 49.000000 10.000000 1.600000
vertex 51.000000 10.000000 1.600000
vertex 51.000000 10.000000 2.600000
endloop
endfacet
facet normal 0.000000 -1.000000 0.000000
outer loop
vertex 49.000000 10.000000 1.600000
vertex 51.000000 10.000000 2.600000
vertex 49.000000 10.000000 2.600000
endloop
endfacet
facet normal 0.000000 1.000000 0.000000
outer loop
vertex 49.000000 30.000000 1.600000
vertex 49.000000 30.000000 2.600000
vertex 51.000000 30.000000 2.600000
endloop
endfacet
facet normal 0.000000 1.000000 0.000000
outer loop
vertex 49.000000 30.000000 1.600000
vertex 51.000000 30.000000 2.600000
vertex 51.000000 30.000000 1.600000
endloop
endfacet
facet normal -1.000000 0.000000 0.000000
outer loop
vertex 49.000000 10.000000 1.600000
vertex 49.000000 10.000000 2.600000
vertex 49.000000 30.000000 2.600000
endloop
endfacet
facet normal -1.000000 0.000000 0.000000
outer loop
vertex 49.000000 10.000000 1.600000
vertex 49.000000 30.000000 2.600000
vertex 49.000000 30.000000 1.600000
endloop
endfacet
facet normal 1.000000 0.000000 0.000000
outer loop
vertex 51.000000 10.000000 1.600000
vertex 51.000000 30.000000 1.600000
vertex 51.000000 30.000000 2.600000
endloop
endfacet
facet normal 1.000000 0.000000 0.000000
outer loop
vertex 51.000000 10.000000 1.600000
vertex 51.000000 30.000000 2.600000
vertex 51.000000 10.000000 2.600000
endloop
endfacet
facet normal 0.000000 0.000000 -1.000000
outer loop
vertex 39.000000 30.000000 1.600000
vertex 39.000000 80.000000 1.600000
vertex 41.000000 80.000000 1.600000
endloop
endfacet
facet normal 0.000000 0.000000 -1.000000
outer loop
vertex 39.000000 30.000000 1.600000
vertex 41.000000 80.000000 1.600000
vertex 41.000000 30.000000 1.600000
endloop
endfacet
facet normal 0.000000 0.000000 1.000000
outer loop
vertex 39.000000 30.000000 2.600000
vertex 41.000000 30.000000 2.600000
vertex 41.000000 80.000000 2.600000
endloop
endfacet
facet normal 0.000000 0.000000 1.000000
outer loop
vertex 39.000000 30.000000 2.600000
vertex 41.000000 80.000000 2.600000
vertex 39.000000 80.000000 2.600000
endloop
endfacet
facet normal 0.000000 -1.000000 0.000000
outer loop
vertex 39.000000 30.000000 1.600000
vertex 41.000000 30.000000 1.600000
vertex 41.000000 30.000000 2.600000
endloop
endfacet
facet normal 0.000000 -1.000000 0.000000
outer loop
vertex 39.000000 30.000000 1.600000
vertex 41.000000 30.000000 2.600000
vertex 39.000000 30.000000 2.600000
endloop
endfacet
facet normal 0.000000 1.000000 0.000000
outer loop
vertex 39.000000 80.000000 1.600000
vertex 39.000000 80.000000 2.600000
vertex 41.000000 80.000000 2.600000
endloop
endfacet
facet normal 0.000000 1.000000 0.000000
outer loop
vertex 39.000000 80.000000 1.600000
vertex 41.000000 80.000000 2.600000
vertex 41.000000 80.000000 1.600000
endloop
endfacet
facet normal -1.000000 0.000000 0.000000
outer loop
vertex 39.000000 30.000000 1.600000
vertex 39.000000 30.000000 2.600000
vertex 39.000000 80.000000 2.600000
endloop
endfacet
facet normal -1.000000 0.000000 0.000000
outer loop
vertex 39.000000 30.000000 1.600000
vertex 39.000000 80.000000 2.600000
vertex 39.000000 80.000000 1.600000
endloop
endfacet
facet normal 1.000000 0.000000 0.000000
outer loop
vertex 41.000000 30.000000 1.600000
vertex 41.000000 80.000000 1.600000
vertex 41.000000 80.000000 2.600000
endloop
endfacet
facet normal 1.000000 0.000000 0.000000
outer loop
vertex 41.000000 30.000000 1.600000
vertex 41.000000 80.000000 2.600000
vertex 41.000000 30.000000 2.600000
endloop
endfacet
facet normal 0.000000 0.000000 -1.000000
outer loop
vertex 59.000000 30.000000 1.600000
vertex 59.000000 80.000000 1.600000
vertex 61.000000 80.000000 1.600000
endloop
endfacet
facet normal 0.000000 0.000000 -1.000000
outer loop
vertex 59.000000 30.000000 1.600000
vertex 61.000000 80.000000 1.600000
vertex 61.000000 30.000000 1.600000
endloop
endfacet
facet normal 0.000000 0.000000 1.000000
outer loop
vertex 59.000000 30.000000 2.600000
vertex 61.000000 30.000000 2.600000
vertex 61.000000 80.000000 2.600000
endloop
endfacet
facet normal 0.000000 0.000000 1.000000
outer loop
vertex 59.000000 30.000000 2.600000
vertex 61.000000 80.000000 2.600000
vertex 59.000000 80.000000 2.600000
endloop
endfacet
facet normal 0.000000 -1.000000 0.000000
outer loop
vertex 59.000000 30.000000 1.600000
vertex 61.000000 30.000000 1.600000
vertex 61.000000 30.000000 2.600000
endloop
endfacet
facet normal 0.000000 -1.000000 0.000000
outer loop
vertex 59.000000 30.000000 1.600000
vertex 61.000000 30.000000 2.600000
vertex 59.000000 30.000000 2.600000
endloop
endfacet
facet normal 0.000000 1.000000 0.000000
outer loop
vertex 59.000000 80.000000 1.600000
vertex 59.000000 80.000000 2.600000
vertex 61.000000 80.000000 2.600000
endloop
endfacet
facet normal 0.000000 1.000000 0.000000
outer loop
vertex 59.000000 80.000000 1.600000
vertex 61.000000 80.000000 2.600000
vertex 61.000000 80.000000 1.600000
endloop
endfacet
facet normal -1.000000 0.000000 0.000000
outer loop
vertex 59.000000 30.000000 1.600000
vertex 59.000000 30.000000 2.600000
vertex 59.000000 80.000000 2.600000
endloop
endfacet
facet normal -1.000000 0.000000 0.000000
outer loop
vertex 59.000000 30.000000 1.600000
vertex 59.000000 80.000000 2.600000
vertex 59.000000 80.000000 1.600000
endloop
endfacet
facet normal 1.000000 0.000000 0.000000
outer loop
vertex 61.000000 30.000000 1.600000
vertex 61.000000 80.000000 1.600000
vertex 61.000000 80.000000 2.600000
endloop
endfacet
facet normal 1.000000 0.000000 0.000000
outer loop
vertex 61.000000 30.000000 1.600000
vertex 61.000000 80.000000 2.600000
vertex 61.000000 30.000000 2.600000
endloop
endfacet
facet normal 0.000000 0.000000 -1.000000
outer loop
vertex 41.000000 30.000000 1.600000
vertex 41.000000 32.000000 1.600000
vertex 51.000000 32.000000 1.600000
endloop
endfacet
facet normal 0.000000 0.000000 -1.000000
outer loop
vertex 41.000000 30.000000 1.600000
vertex 51.000000 32.000000 1.600000
vertex 51.000000 30.000000 1.600000
endloop
endfacet
facet normal 0.000000 0.000000 1.000000
outer loop
vertex 41.000000 30.000000 2.600000
vertex 51.000000 30.000000 2.600000
vertex 51.000000 32.000000 2.600000
endloop
endfacet
facet normal 0.000000 0.000000 1.000000
outer loop
vertex 41.000000 30.000000 2.600000
vertex 51.000000 32.000000 2.600000
vertex 41.000000 32.000000 2.600000
endloop
endfacet
facet normal 0.000000 -1.000000 0.000000
outer loop
vertex 41.000000 30.000000 1.600000
vertex 51.000000 30.000000 1.600000
vertex 51.000000 30.000000 2.600000
endloop
endfacet
facet normal 0.000000 -1.000000 0.000000
outer loop
vertex 41.000000 30.000000 1.600000
vertex 51.000000 30.000000 2.600000
vertex 41.000000 30.000000 2.600000
endloop
endfacet
facet normal 0.000000 1.000000 0.000000
outer loop
vertex 41.000000 32.000000 1.600000
vertex 41.000000 32.000000 2.600000
vertex 51.000000 32.000000 2.600000
endloop
endfacet
facet normal 0.000000 1.000000 0.000000
outer loop
vertex 41.000000 32.000000 1.600000
vertex 51.000000 32.000000 2.600000
vertex 51.000000 32.000000 1.600000
endloop
endfacet
facet normal -1.000000 0.000000 0.000000
outer loop
vertex 41.000000 30.000000 1.600000
vertex 41.000000 30.000000 2.600000
vertex 41.000000 32.000000 2.600000
endloop
endfacet
facet normal -1.000000 0.000000 0.000000
outer loop
vertex 41.000000 30.000000 1.600000
vertex 41.000000 32.000000 2.600000
vertex 41.000000 32.000000 1.600000
endloop
endfacet
facet normal 1.000000 0.000000 0.000000
outer loop
vertex 51.000000 30.000000 1.600000
vertex 51.000000 32.000000 1.600000
vertex 51.000000 32.000000 2.600000
endloop
endfacet
facet normal 1.000000 0.000000 0.000000
outer loop
vertex 51.000000 30.000000 1.600000
vertex 51.000000 32.000000 2.600000
vertex 51.000000 30.000000 2.600000
endloop
endfacet
facet normal 0.000000 0.000000 -1.000000
outer loop
vertex 49.000000 30.000000 1.600000
vertex 49.000000 32.000000 1.600000
vertex 59.000000 32.000000 1.600000
endloop
endfacet
facet normal 0.000000 0.000000 -1.000000
outer loop
vertex 49.000000 30.000000 1.600000
vertex 59.000000 32.000000 1.600000
vertex 59.000000 30.000000 1.600000
endloop
endfacet
facet normal 0.000000 0.000000 1.000000
outer loop
vertex 49.000000 30.000000 2.600000
vertex 59.000000 30.000000 2.600000
vertex 59.000000 32.000000 2.600000
endloop
endfacet
facet normal 0.000000 0.000000 1.000000
outer loop
vertex 49.000000 30.000000 2.600000
vertex 59.000000 32.000000 2.600000
vertex 49.000000 32.000000 2.600000
endloop
endfacet
facet normal 0.000000 -1.000000 0.000000
outer loop
vertex 49.000000 30.000000 1.600000
vertex 59.000000 30.000000 1.600000
vertex 59.000000 30.000000 2.600000
endloop
endfacet
facet normal 0.000000 -1.000000 0.000000
outer loop
vertex 49.000000 30.000000 1.600000
vertex 59.000000 30.000000 2.600000
vertex 49.000000 30.000000 2.600000
endloop
endfacet
facet normal 0.000000 1.000000 0.000000
outer loop
vertex 49.000000 32.000000 1.600000
vertex 49.000000 32.000000 2.600000
vertex 59.000000 32.000000 2.600000
endloop
endfacet
facet normal 0.000000 1.000000 0.000000
outer loop
vertex 49.000000 32.000000 1.600000
vertex 59.000000 32.000000 2.600000
vertex 59.000000 32.000000 1.600000
endloop
endfacet
facet normal -1.000000 0.000000 0.000000
outer loop
vertex 49.000000 30.000000 1.600000
vertex 49.000000 30.000000 2.600000
vertex 49.000000 32.000000 2.600000
endloop
endfacet
facet normal -1.000000 0.000000 0.000000
outer loop
vertex 49.000000 30.000000 1.600000
vertex 49.000000 32.000000 2.600000
vertex 49.000000 32.000000 1.600000
endloop
endfacet
facet normal 1.000000 0.000000 0.000000
outer loop
vertex 59.000000 30.000000 1.600000
vertex 59.000000 32.000000 1.600000
vertex 59.000000 32.000000 2.600000
endloop
endfacet
facet normal 1.000000 0.000000 0.000000
outer loop
vertex 59.000000 30.000000 1.600000
vertex 59.000000 32.000000 2.600000
vertex 59.000000 30.000000 2.600000
endloop
endfacet
facet normal 0.000000 0.000000 -1.000000
outer loop
vertex 49.000000 80.000000 1.600000
vertex 49.000000 100.000000 1.600000
vertex 51.000000 100.000000 1.600000
endloop
endfacet
facet normal 0.000000 0.000000 -1.000000
outer loop
vertex 49.000000 80.000000 1.600000
vertex 51.000000 100.000000 1.600000
vertex 51.000000 80.000000 1.600000
endloop
endfacet
facet normal 0.000000 0.000000 1.000000
outer loop
vertex 49.000000 80.000000 2.600000
vertex 51.000000 80.000000 2.600000
vertex 51.000000 100.000000 2.600000
endloop
endfacet
facet normal 0.000000 0.000000 1.000000
outer loop
vertex 49.000000 80.000000 2.600000
vertex 51.000000 100.000000 2.600000
vertex 49.000000 100.000000 2.600000
endloop
endfacet
facet normal 0.000000 -1.000000 0.000000
outer loop
vertex 49.000000 80.000000 1.600000
vertex 51.000000 80.000000 1.600000
vertex 51.000000 80.000000 2.600000
endloop
endfacet
facet normal 0.000000 -1.000000 0.000000
outer loop
vertex 49.000000 80.000000 1.600000
vertex 51.000000 80.000000 2.600000
vertex 49.000000 80.000000 2.600000
endloop
endfacet
facet normal 0.000000 1.000000 0.000000
outer loop
vertex 49.000000 100.000000 1.600000
vertex 49.000000 100.000000 2.600000
vertex 51.000000 100.000000 2.600000
endloop
endfacet
facet normal 0.000000 1.000000 0.000000
outer loop
vertex 49.000000 100.000000 1.600000
vertex 51.000000 100.000000 2.600000
vertex 51.000000 100.000000 1.600000
endloop
endfacet
facet normal -1.000000 0.000000 0.000000
outer loop
vertex 49.000000 80.000000 1.600000
vertex 49.000000 80.000000 2.600000
vertex 49.000000 100.000000 2.600000
endloop
endfacet
facet normal -1.000000 0.000000 0.000000
outer loop
vertex 49.000000 80.000000 1.600000
vertex 49.000000 100.000000 2.600000
vertex 49.000000 100.000000 1.600000
endloop
endfacet
facet normal 1.000000 0.000000 0.000000
outer loop
vertex 51.000000 80.000000 1.600000
vertex 51.000000 100.000000 1.600000
vertex 51.000000 100.000000 2.600000
endloop
endfacet
facet normal 1.000000 0.000000 0.000000
outer loop
vertex 51.000000 80.000000 1.600000
vertex 51.000000 100.000000 2.600000
vertex 51.000000 80.000000 2.600000
endloop
endfacet
endsolid tfln_waveguide_core.stl
