solid tfln_package_housing.stl
facet normal 0.000000 0.000000 -1.000000
outer loop
vertex -2.000000 -2.000000 -2.000000
vertex -2.000000 113.150000 -2.000000
vertex 108.680000 113.150000 -2.000000
endloop
endfacet
facet normal 0.000000 0.000000 -1.000000
outer loop
vertex -2.000000 -2.000000 -2.000000
vertex 108.680000 113.150000 -2.000000
vertex 108.680000 -2.000000 -2.000000
endloop
endfacet
facet normal 0.000000 0.000000 1.000000
outer loop
vertex -2.000000 -2.000000 0.000000
vertex 108.680000 -2.000000 0.000000
vertex 108.680000 113.150000 0.000000
endloop
endfacet
facet normal 0.000000 0.000000 1.000000
outer loop
vertex -2.000000 -2.000000 0.000000
vertex 108.680000 113.150000 0.000000
vertex -2.000000 113.150000 0.000000
endloop
endfacet
facet normal 0.000000 -1.000000 0.000000
outer loop
vertex -2.000000 -2.000000 -2.000000
vertex 108.680000 -2.000000 -2.000000
vertex 108.680000 -2.000000 0.000000
endloop
endfacet
facet normal 0.000000 -1.000000 0.000000
outer loop
vertex -2.000000 -2.000000 -2.000000
vertex 108.680000 -2.000000 0.000000
vertex -2.000000 -2.000000 0.000000
endloop
endfacet
facet normal 0.000000 1.000000 0.000000
outer loop
vertex -2.000000 113.150000 -2.000000
vertex -2.000000 113.150000 0.000000
vertex 108.680000 113.150000 0.000000
endloop
endfacet
facet normal 0.000000 1.000000 0.000000
outer loop
vertex -2.000000 113.150000 -2.000000
vertex 108.680000 113.150000 0.000000
vertex 108.680000 113.150000 -2.000000
endloop
endfacet
facet normal -1.000000 0.000000 0.000000
outer loop
vertex -2.000000 -2.000000 -2.000000
vertex -2.000000 -2.000000 0.000000
vertex -2.000000 113.150000 0.000000
endloop
endfacet
facet normal -1.000000 0.000000 0.000000
outer loop
vertex -2.000000 -2.000000 -2.000000
vertex -2.000000 113.150000 0.000000
vertex -2.000000 113.150000 -2.000000
endloop
endfacet
facet normal 1.000000 0.000000 0.000000
outer loop
vertex 108.680000 -2.000000 -2.000000
vertex 108.680000 113.150000 -2.000000
vertex 108.680000 113.150000 0.000000
endloop
endfacet
facet normal 1.000000 0.000000 0.000000
outer loop
vertex 108.680000 -2.000000 -2.000000
vertex 108.680000 113.150000 0.000000
vertex 108.680000 -2.000000 0.000000
endloop
endfacet
facet normal 0.000000 0.000000 -1.000000
outer loop
vertex -2.000000 -2.000000 -2.000000
vertex -2.000000 0.000000 -2.000000
vertex 108.680000 0.000000 -2.000000
endloop
endfacet
facet normal 0.000000 0.000000 -1.000000
outer loop
vertex -2.000000 -2.000000 -2.000000
vertex 108.680000 0.000000 -2.000000
vertex 108.680000 -2.000000 -2.000000
endloop
endfacet
facet normal 0.000000 0.000000 1.000000
outer loop
vertex -2.000000 -2.000000 8.000000
vertex 108.680000 -2.000000 8.000000
vertex 108.680000 0.000000 8.000000
endloop
endfacet
facet normal 0.000000 0.000000 1.000000
outer loop
vertex -2.000000 -2.000000 8.000000
vertex 108.680000 0.000000 8.000000
vertex -2.000000 0.000000 8.000000
endloop
endfacet
facet normal 0.000000 -1.000000 0.000000
outer loop
vertex -2.000000 -2.000000 -2.000000
vertex 108.680000 -2.000000 -2.000000
vertex 108.680000 -2.000000 8.000000
endloop
endfacet
facet normal 0.000000 -1.000000 0.000000
outer loop
vertex -2.000000 -2.000000 -2.000000
vertex 108.680000 -2.000000 8.000000
vertex -2.000000 -2.000000 8.000000
endloop
endfacet
facet normal 0.000000 1.000000 0.000000
outer loop
vertex -2.000000 0.000000 -2.000000
vertex -2.000000 0.000000 8.000000
vertex 108.680000 0.000000 8.000000
endloop
endfacet
facet normal 0.000000 1.000000 0.000000
outer loop
vertex -2.000000 0.000000 -2.000000
vertex 108.680000 0.000000 8.000000
vertex 108.680000 0.000000 -2.000000
endloop
endfacet
facet normal -1.000000 0.000000 0.000000
outer loop
vertex -2.000000 -2.000000 -2.000000
vertex -2.000000 -2.000000 8.000000
vertex -2.000000 0.000000 8.000000
endloop
endfacet
facet normal -1.000000 0.000000 0.000000
outer loop
vertex -2.000000 -2.000000 -2.000000
vertex -2.000000 0.000000 8.000000
vertex -2.000000 0.000000 -2.000000
endloop
endfacet
facet normal 1.000000 0.000000 0.000000
outer loop
vertex 108.680000 -2.000000 -2.000000
vertex 108.680000 0.000000 -2.000000
vertex 108.680000 0.000000 8.000000
endloop
endfacet
facet normal 1.000000 0.000000 0.000000
outer loop
vertex 108.680000 -2.000000 -2.000000
vertex 108.680000 0.000000 8.000000
vertex 108.680000 -2.000000 8.000000
endloop
endfacet
facet normal 0.000000 0.000000 -1.000000
outer loop
vertex -2.000000 111.150000 -2.000000
vertex -2.000000 113.150000 -2.000000
vertex 108.680000 113.150000 -2.000000
endloop
endfacet
facet normal 0.000000 0.000000 -1.000000
outer loop
vertex -2.000000 111.150000 -2.000000
vertex 108.680000 113.150000 -2.000000
vertex 108.680000 111.150000 -2.000000
endloop
endfacet
facet normal 0.000000 0.000000 1.000000
outer loop
vertex -2.000000 111.150000 8.000000
vertex 108.680000 111.150000 8.000000
vertex 108.680000 113.150000 8.000000
endloop
endfacet
facet normal 0.000000 0.000000 1.000000
outer loop
vertex -2.000000 111.150000 8.000000
vertex 108.680000 113.150000 8.000000
vertex -2.000000 113.150000 8.000000
endloop
endfacet
facet normal 0.000000 -1.000000 0.000000
outer loop
vertex -2.000000 111.150000 -2.000000
vertex 108.680000 111.150000 -2.000000
vertex 108.680000 111.150000 8.000000
endloop
endfacet
facet normal 0.000000 -1.000000 0.000000
outer loop
vertex -2.000000 111.150000 -2.000000
vertex 108.680000 111.150000 8.000000
vertex -2.000000 111.150000 8.000000
endloop
endfacet
facet normal 0.000000 1.000000 0.000000
outer loop
vertex -2.000000 113.150000 -2.000000
vertex -2.000000 113.150000 8.000000
vertex 108.680000 113.150000 8.000000
endloop
endfacet
facet normal 0.000000 1.000000 0.000000
outer loop
vertex -2.000000 113.150000 -2.000000
vertex 108.680000 113.150000 8.000000
vertex 108.680000 113.150000 -2.000000
endloop
endfacet
facet normal -1.000000 0.000000 0.000000
outer loop
vertex -2.000000 111.150000 -2.000000
vertex -2.000000 111.150000 8.000000
vertex -2.000000 113.150000 8.000000
endloop
endfacet
facet normal -1.000000 0.000000 0.000000
outer loop
vertex -2.000000 111.150000 -2.000000
vertex -2.000000 113.150000 8.000000
vertex -2.000000 113.150000 -2.000000
endloop
endfacet
facet normal 1.000000 0.000000 0.000000
outer loop
vertex 108.680000 111.150000 -2.000000
vertex 108.680000 113.150000 -2.000000
vertex 108.680000 113.150000 8.000000
endloop
endfacet
facet normal 1.000000 0.000000 0.000000
outer loop
vertex 108.680000 111.150000 -2.000000
vertex 108.680000 113.150000 8.000000
vertex 108.680000 111.150000 8.000000
endloop
endfacet
facet normal 0.000000 0.000000 -1.000000
outer loop
vertex -2.000000 -2.000000 -2.000000
vertex -2.000000 113.150000 -2.000000
vertex 0.000000 113.150000 -2.000000
endloop
endfacet
facet normal 0.000000 0.000000 -1.000000
outer loop
vertex -2.000000 -2.000000 -2.000000
vertex 0.000000 113.150000 -2.000000
vertex 0.000000 -2.000000 -2.000000
endloop
endfacet
facet normal 0.000000 0.000000 1.000000
outer loop
vertex -2.000000 -2.000000 8.000000
vertex 0.000000 -2.000000 8.000000
vertex 0.000000 113.150000 8.000000
endloop
endfacet
facet normal 0.000000 0.000000 1.000000
outer loop
vertex -2.000000 -2.000000 8.000000
vertex 0.000000 113.150000 8.000000
vertex -2.000000 113.150000 8.000000
endloop
endfacet
facet normal 0.000000 -1.000000 0.000000
outer loop
vertex -2.000000 -2.000000 -2.000000
vertex 0.000000 -2.000000 -2.000000
vertex 0.000000 -2.000000 8.000000
endloop
endfacet
facet normal 0.000000 -1.000000 0.000000
outer loop
vertex -2.000000 -2.000000 -2.000000
vertex 0.000000 -2.000000 8.000000
vertex -2.000000 -2.000000 8.000000
endloop
endfacet
facet normal 0.000000 1.000000 0.000000
outer loop
vertex -2.000000 113.150000 -2.000000
vertex -2.000000 113.150000 8.000000
vertex 0.000000 113.150000 8.000000
endloop
endfacet
facet normal 0.000000 1.000000 0.000000
outer loop
vertex -2.000000 113.150000 -2.000000
vertex 0.000000 113.150000 8.000000
vertex 0.000000 113.150000 -2.000000
endloop
endfacet
facet normal -1.000000 0.000000 0.000000
outer loop
vertex -2.000000 -2.000000 -2.000000
vertex -2.000000 -2.000000 8.000000
vertex -2.000000 113.150000 8.000000
endloop
endfacet
facet normal -1.000000 0.000000 0.000000
outer loop
vertex -2.000000 -2.000000 -2.000000
vertex -2.000000 113.150000 8.000000
vertex -2.000000 113.150000 -2.000000
endloop
endfacet
facet normal 1.000000 0.000000 0.000000
outer loop
vertex 0.000000 -2.000000 -2.000000
vertex 0.000000 113.150000 -2.000000
vertex 0.000000 113.150000 8.000000
endloop
endfacet
facet normal 1.000000 0.000000 0.000000
outer loop
vertex 0.000000 -2.000000 -2.000000
vertex 0.000000 113.150000 8.000000
vertex 0.000000 -2.000000 8.000000
endloop
endfacet
facet normal 0.000000 0.000000 -1.000000
outer loop
vertex 106.680000 -2.000000 -2.000000
vertex 106.680000 113.150000 -2.000000
vertex 108.680000 113.150000 -2.000000
endloop
endfacet
facet normal 0.000000 0.000000 -1.000000
outer loop
vertex 106.680000 -2.000000 -2.000000
vertex 108.680000 113.150000 -2.000000
vertex 108.680000 -2.000000 -2.000000
endloop
endfacet
facet normal 0.000000 0.000000 1.000000
outer loop
vertex 106.680000 -2.000000 8.000000
vertex 108.680000 -2.000000 8.000000
vertex 108.680000 113.150000 8.000000
endloop
endfacet
facet normal 0.000000 0.000000 1.000000
outer loop
vertex 106.680000 -2.000000 8.000000
vertex 108.680000 113.150000 8.000000
vertex 106.680000 113.150000 8.000000
endloop
endfacet
facet normal 0.000000 -1.000000 0.000000
outer loop
vertex 106.680000 -2.000000 -2.000000
vertex 108.680000 -2.000000 -2.000000
vertex 108.680000 -2.000000 8.000000
endloop
endfacet
facet normal 0.000000 -1.000000 0.000000
outer loop
vertex 106.680000 -2.000000 -2.000000
vertex 108.680000 -2.000000 8.000000
vertex 106.680000 -2.000000 8.000000
endloop
endfacet
facet normal 0.000000 1.000000 0.000000
outer loop
vertex 106.680000 113.150000 -2.000000
vertex 106.680000 113.150000 8.000000
vertex 108.680000 113.150000 8.000000
endloop
endfacet
facet normal 0.000000 1.000000 0.000000
outer loop
vertex 106.680000 113.150000 -2.000000
vertex 108.680000 113.150000 8.000000
vertex 108.680000 113.150000 -2.000000
endloop
endfacet
facet normal -1.000000 0.000000 0.000000
outer loop
vertex 106.680000 -2.000000 -2.000000
vertex 106.680000 -2.000000 8.000000
vertex 106.680000 113.150000 8.000000
endloop
endfacet
facet normal -1.000000 0.000000 0.000000
outer loop
vertex 106.680000 -2.000000 -2.000000
vertex 106.680000 113.150000 8.000000
vertex 106.680000 113.150000 -2.000000
endloop
endfacet
facet normal 1.000000 0.000000 0.000000
outer loop
vertex 108.680000 -2.000000 -2.000000
vertex 108.680000 113.150000 -2.000000
vertex 108.680000 113.150000 8.000000
endloop
endfacet
facet normal 1.000000 0.000000 0.000000
outer loop
vertex 108.680000 -2.000000 -2.000000
vertex 108.680000 113.150000 8.000000
vertex 108.680000 -2.000000 8.000000
endloop
endfacet
endsolid tfln_package_housing.stl
