solid tfln_substrate.stl
facet normal 0.000000 0.000000 -1.000000
outer loop
vertex 0.000000 0.000000 0.000000
vertex 0.000000 111.150000 0.000000
vertex 106.680000 111.150000 0.000000
endloop
endfacet
facet normal 0.000000 0.000000 -1.000000
outer loop
vertex 0.000000 0.000000 0.000000
vertex 106.680000 111.150000 0.000000
vertex 106.680000 0.000000 0.000000
endloop
endfacet
facet normal 0.000000 0.000000 1.000000
outer loop
vertex 0.000000 0.000000 1.600000
vertex 106.680000 0.000000 1.600000
vertex 106.680000 111.150000 1.600000
endloop
endfacet
facet normal 0.000000 0.000000 1.000000
outer loop
vertex 0.000000 0.000000 1.600000
vertex 106.680000 111.150000 1.600000
vertex 0.000000 111.150000 1.600000
endloop
endfacet
facet normal 0.000000 -1.000000 0.000000
outer loop
vertex 0.000000 0.000000 0.000000
vertex 106.680000 0.000000 0.000000
vertex 106.680000 0.000000 1.600000
endloop
endfacet
facet normal 0.000000 -1.000000 0.000000
outer loop
vertex 0.000000 0.000000 0.000000
vertex 106.680000 0.000000 1.600000
vertex 0.000000 0.000000 1.600000
endloop
endfacet
facet normal 0.000000 1.000000 0.000000
outer loop
vertex 0.000000 111.150000 0.000000
vertex 0.000000 111.150000 1.600000
vertex 106.680000 111.150000 1.600000
endloop
endfacet
facet normal 0.000000 1.000000 0.000000
outer loop
vertex 0.000000 111.150000 0.000000
vertex 106.680000 111.150000 1.600000
vertex 106.680000 111.150000 0.000000
endloop
endfacet
facet normal -1.000000 0.000000 0.000000
outer loop
vertex 0.000000 0.000000 0.000000
vertex 0.000000 0.000000 1.600000
vertex 0.000000 111.150000 1.600000
endloop
endfacet
facet normal -1.000000 0.000000 0.000000
outer loop
vertex 0.000000 0.000000 0.000000
vertex 0.000000 111.150000 1.600000
vertex 0.000000 111.150000 0.000000
endloop
endfacet
facet normal 1.000000 0.000000 0.000000
outer loop
vertex 106.680000 0.000000 0.000000
vertex 106.680000 111.150000 0.000000
vertex 106.680000 111.150000 1.600000
endloop
endfacet
facet normal 1.000000 0.000000 0.000000
outer loop
vertex 106.680000 0.000000 0.000000
vertex 106.680000 111.150000 1.600000
vertex 106.680000 0.000000 1.600000
endloop
endfacet
endsolid tfln_substrate.stl
