solid tfln_electrodes.stl
facet normal 0.000000 0.000000 -1.000000
outer loop
vertex 33.000000 35.000000 1.600000
vertex 33.000000 75.000000 1.600000
vertex 37.000000 75.000000 1.600000
endloop
endfacet
facet normal 0.000000 0.000000 -1.000000
outer loop
vertex 33.000000 35.000000 1.600000
vertex 37.000000 75.000000 1.600000
vertex 37.000000 35.000000 1.600000
endloop
endfacet
facet normal 0.000000 0.000000 1.000000
outer loop
vertex 33.000000 35.000000 3.600000
vertex 37.000000 35.000000 3.600000
vertex 37.000000 75.000000 3.600000
endloop
endfacet
facet normal 0.000000 0.000000 1.000000
outer loop
vertex 33.000000 35.000000 3.600000
vertex 37.000000 75.000000 3.600000
vertex 33.000000 75.000000 3.600000
endloop
endfacet
facet normal 0.000000 -1.000000 0.000000
outer loop
vertex 33.000000 35.000000 1.600000
vertex 37.000000 35.000000 1.600000
vertex 37.000000 35.000000 3.600000
endloop
endfacet
facet normal 0.000000 -1.000000 0.000000
outer loop
vertex 33.000000 35.000000 1.600000
vertex 37.000000 35.000000 3.600000
vertex 33.000000 35.000000 3.600000
endloop
endfacet
facet normal 0.000000 1.000000 0.000000
outer loop
vertex 33.000000 75.000000 1.600000
vertex 33.000000 75.000000 3.600000
vertex 37.000000 75.000000 3.600000
endloop
endfacet
facet normal 0.000000 1.000000 0.000000
outer loop
vertex 33.000000 75.000000 1.600000
vertex 37.000000 75.000000 3.600000
vertex 37.000000 75.000000 1.600000
endloop
endfacet
facet normal -1.000000 0.000000 0.000000
outer loop
vertex 33.000000 35.000000 1.600000
vertex 33.000000 35.000000 3.600000
vertex 33.000000 75.000000 3.600000
endloop
endfacet
facet normal -1.000000 0.000000 0.000000
outer loop
vertex 33.000000 35.000000 1.600000
vertex 33.000000 75.000000 3.600000
vertex 33.000000 75.000000 1.600000
endloop
endfacet
facet normal 1.000000 0.000000 0.000000
outer loop
vertex 37.000000 35.000000 1.600000
vertex 37.000000 75.000000 1.600000
vertex 37.000000 75.000000 3.600000
endloop
endfacet
facet normal 1.000000 0.000000 0.000000
outer loop
vertex 37.000000 35.000000 1.600000
vertex 37.000000 75.000000 3.600000
vertex 37.000000 35.000000 3.600000
endloop
endfacet
facet normal 0.000000 0.000000 -1.000000
outer loop
vertex 38.000000 35.000000 1.600000
vertex 38.000000 75.000000 1.600000
vertex 42.000000 75.000000 1.600000
endloop
endfacet
facet normal 0.000000 0.000000 -1.000000
outer loop
vertex 38.000000 35.000000 1.600000
vertex 42.000000 75.000000 1.600000
vertex 42.000000 35.000000 1.600000
endloop
endfacet
facet normal 0.000000 0.000000 1.000000
outer loop
vertex 38.000000 35.000000 3.600000
vertex 42.000000 35.000000 3.600000
vertex 42.000000 75.000000 3.600000
endloop
endfacet
facet normal 0.000000 0.000000 1.000000
outer loop
vertex 38.000000 35.000000 3.600000
vertex 42.000000 75.000000 3.600000
vertex 38.000000 75.000000 3.600000
endloop
endfacet
facet normal 0.000000 -1.000000 0.000000
outer loop
vertex 38.000000 35.000000 1.600000
vertex 42.000000 35.000000 1.600000
vertex 42.000000 35.000000 3.600000
endloop
endfacet
facet normal 0.000000 -1.000000 0.000000
outer loop
vertex 38.000000 35.000000 1.600000
vertex 42.000000 35.000000 3.600000
vertex 38.000000 35.000000 3.600000
endloop
endfacet
facet normal 0.000000 1.000000 0.000000
outer loop
vertex 38.000000 75.000000 1.600000
vertex 38.000000 75.000000 3.600000
vertex 42.000000 75.000000 3.600000
endloop
endfacet
facet normal 0.000000 1.000000 0.000000
outer loop
vertex 38.000000 75.000000 1.600000
vertex 42.000000 75.000000 3.600000
vertex 42.000000 75.000000 1.600000
endloop
endfacet
facet normal -1.000000 0.000000 0.000000
outer loop
vertex 38.000000 35.000000 1.600000
vertex 38.000000 35.000000 3.600000
vertex 38.000000 75.000000 3.600000
endloop
endfacet
facet normal -1.000000 0.000000 0.000000
outer loop
vertex 38.000000 35.000000 1.600000
vertex 38.000000 75.000000 3.600000
vertex 38.000000 75.000000 1.600000
endloop
endfacet
facet normal 1.000000 0.000000 0.000000
outer loop
vertex 42.000000 35.000000 1.600000
vertex 42.000000 75.000000 1.600000
vertex 42.000000 75.000000 3.600000
endloop
endfacet
facet normal 1.000000 0.000000 0.000000
outer loop
vertex 42.000000 35.000000 1.600000
vertex 42.000000 75.000000 3.600000
vertex 42.000000 35.000000 3.600000
endloop
endfacet
facet normal 0.000000 0.000000 -1.000000
outer loop
vertex 43.000000 35.000000 1.600000
vertex 43.000000 75.000000 1.600000
vertex 47.000000 75.000000 1.600000
endloop
endfacet
facet normal 0.000000 0.000000 -1.000000
outer loop
vertex 43.000000 35.000000 1.600000
vertex 47.000000 75.000000 1.600000
vertex 47.000000 35.000000 1.600000
endloop
endfacet
facet normal 0.000000 0.000000 1.000000
outer loop
vertex 43.000000 35.000000 3.600000
vertex 47.000000 35.000000 3.600000
vertex 47.000000 75.000000 3.600000
endloop
endfacet
facet normal 0.000000 0.000000 1.000000
outer loop
vertex 43.000000 35.000000 3.600000
vertex 47.000000 75.000000 3.600000
vertex 43.000000 75.000000 3.600000
endloop
endfacet
facet normal 0.000000 -1.000000 0.000000
outer loop
vertex 43.000000 35.000000 1.600000
vertex 47.000000 35.000000 1.600000
vertex 47.000000 35.000000 3.600000
endloop
endfacet
facet normal 0.000000 -1.000000 0.000000
outer loop
vertex 43.000000 35.000000 1.600000
vertex 47.000000 35.000000 3.600000
vertex 43.000000 35.000000 3.600000
endloop
endfacet
facet normal 0.000000 1.000000 0.000000
outer loop
vertex 43.000000 75.000000 1.600000
vertex 43.000000 75.000000 3.600000
vertex 47.000000 75.000000 3.600000
endloop
endfacet
facet normal 0.000000 1.000000 0.000000
outer loop
vertex 43.000000 75.000000 1.600000
vertex 47.000000 75.000000 3.600000
vertex 47.000000 75.000000 1.600000
endloop
endfacet
facet normal -1.000000 0.000000 0.000000
outer loop
vertex 43.000000 35.000000 1.600000
vertex 43.000000 35.000000 3.600000
vertex 43.000000 75.000000 3.600000
endloop
endfacet
facet normal -1.000000 0.000000 0.000000
outer loop
vertex 43.000000 35.000000 1.600000
vertex 43.000000 75.000000 3.600000
vertex 43.000000 75.000000 1.600000
endloop
endfacet
facet normal 1.000000 0.000000 0.000000
outer loop
vertex 47.000000 35.000000 1.600000
vertex 47.000000 75.000000 1.600000
vertex 47.000000 75.000000 3.600000
endloop
endfacet
facet normal 1.000000 0.000000 0.000000
outer loop
vertex 47.000000 35.000000 1.600000
vertex 47.000000 75.000000 3.600000
vertex 47.000000 35.000000 3.600000
endloop
endfacet
facet normal 0.000000 0.000000 -1.000000
outer loop
vertex 53.000000 35.000000 1.600000
vertex 53.000000 75.000000 1.600000
vertex 57.000000 75.000000 1.600000
endloop
endfacet
facet normal 0.000000 0.000000 -1.000000
outer loop
vertex 53.000000 35.000000 1.600000
vertex 57.000000 75.000000 1.600000
vertex 57.000000 35.000000 1.600000
endloop
endfacet
facet normal 0.000000 0.000000 1.000000
outer loop
vertex 53.000000 35.000000 3.600000
vertex 57.000000 35.000000 3.600000
vertex 57.000000 75.000000 3.600000
endloop
endfacet
facet normal 0.000000 0.000000 1.000000
outer loop
vertex 53.000000 35.000000 3.600000
vertex 57.000000 75.000000 3.600000
vertex 53.000000 75.000000 3.600000
endloop
endfacet
facet normal 0.000000 -1.000000 0.000000
outer loop
vertex 53.000000 35.000000 1.600000
vertex 57.000000 35.000000 1.600000
vertex 57.000000 35.000000 3.600000
endloop
endfacet
facet normal 0.000000 -1.000000 0.000000
outer loop
vertex 53.000000 35.000000 1.600000
vertex 57.000000 35.000000 3.600000
vertex 53.000000 35.000000 3.600000
endloop
endfacet
facet normal 0.000000 1.000000 0.000000
outer loop
vertex 53.000000 75.000000 1.600000
vertex 53.000000 75.000000 3.600000
vertex 57.000000 75.000000 3.600000
endloop
endfacet
facet normal 0.000000 1.000000 0.000000
outer loop
vertex 53.000000 75.000000 1.600000
vertex 57.000000 75.000000 3.600000
vertex 57.000000 75.000000 1.600000
endloop
endfacet
facet normal -1.000000 0.000000 0.000000
outer loop
vertex 53.000000 35.000000 1.600000
vertex 53.000000 35.000000 3.600000
vertex 53.000000 75.000000 3.600000
endloop
endfacet
facet normal -1.000000 0.000000 0.000000
outer loop
vertex 53.000000 35.000000 1.600000
vertex 53.000000 75.000000 3.600000
vertex 53.000000 75.000000 1.600000
endloop
endfacet
facet normal 1.000000 0.000000 0.000000
outer loop
vertex 57.000000 35.000000 1.600000
vertex 57.000000 75.000000 1.600000
vertex 57.000000 75.000000 3.600000
endloop
endfacet
facet normal 1.000000 0.000000 0.000000
outer loop
vertex 57.000000 35.000000 1.600000
vertex 57.000000 75.000000 3.600000
vertex 57.000000 35.000000 3.600000
endloop
endfacet
facet normal 0.000000 0.000000 -1.000000
outer loop
vertex 58.000000 35.000000 1.600000
vertex 58.000000 75.000000 1.600000
vertex 62.000000 75.000000 1.600000
endloop
endfacet
facet normal 0.000000 0.000000 -1.000000
outer loop
vertex 58.000000 35.000000 1.600000
vertex 62.000000 75.000000 1.600000
vertex 62.000000 35.000000 1.600000
endloop
endfacet
facet normal 0.000000 0.000000 1.000000
outer loop
vertex 58.000000 35.000000 3.600000
vertex 62.000000 35.000000 3.600000
vertex 62.000000 75.000000 3.600000
endloop
endfacet
facet normal 0.000000 0.000000 1.000000
outer loop
vertex 58.000000 35.000000 3.600000
vertex 62.000000 75.000000 3.600000
vertex 58.000000 75.000000 3.600000
endloop
endfacet
facet normal 0.000000 -1.000000 0.000000
outer loop
vertex 58.000000 35.000000 1.600000
vertex 62.000000 35.000000 1.600000
vertex 62.000000 35.000000 3.600000
endloop
endfacet
facet normal 0.000000 -1.000000 0.000000
outer loop
vertex 58.000000 35.000000 1.600000
vertex 62.000000 35.000000 3.600000
vertex 58.000000 35.000000 3.600000
endloop
endfacet
facet normal 0.000000 1.000000 0.000000
outer loop
vertex 58.000000 75.000000 1.600000
vertex 58.000000 75.000000 3.600000
vertex 62.000000 75.000000 3.600000
endloop
endfacet
facet normal 0.000000 1.000000 0.000000
outer loop
vertex 58.000000 75.000000 1.600000
vertex 62.000000 75.000000 3.600000
vertex 62.000000 75.000000 1.600000
endloop
endfacet
facet normal -1.000000 0.000000 0.000000
outer loop
vertex 58.000000 35.000000 1.600000
vertex 58.000000 35.000000 3.600000
vertex 58.000000 75.000000 3.600000
endloop
endfacet
facet normal -1.000000 0.000000 0.000000
outer loop
vertex 58.000000 35.000000 1.600000
vertex 58.000000 75.000000 3.600000
vertex 58.000000 75.000000 1.600000
endloop
endfacet
facet normal 1.000000 0.000000 0.000000
outer loop
vertex 62.000000 35.000000 1.600000
vertex 62.000000 75.000000 1.600000
vertex 62.000000 75.000000 3.600000
endloop
endfacet
facet normal 1.000000 0.000000 0.000000
outer loop
vertex 62.000000 35.000000 1.600000
vertex 62.000000 75.000000 3.600000
vertex 62.000000 35.000000 3.600000
endloop
endfacet
facet normal 0.000000 0.000000 -1.000000
outer loop
vertex 63.000000 35.000000 1.600000
vertex 63.000000 75.000000 1.600000
vertex 67.000000 75.000000 1.600000
endloop
endfacet
facet normal 0.000000 0.000000 -1.000000
outer loop
vertex 63.000000 35.000000 1.600000
vertex 67.000000 75.000000 1.600000
vertex 67.000000 35.000000 1.600000
endloop
endfacet
facet normal 0.000000 0.000000 1.000000
outer loop
vertex 63.000000 35.000000 3.600000
vertex 67.000000 35.000000 3.600000
vertex 67.000000 75.000000 3.600000
endloop
endfacet
facet normal 0.000000 0.000000 1.000000
outer loop
vertex 63.000000 35.000000 3.600000
vertex 67.000000 75.000000 3.600000
vertex 63.000000 75.000000 3.600000
endloop
endfacet
facet normal 0.000000 -1.000000 0.000000
outer loop
vertex 63.000000 35.000000 1.600000
vertex 67.000000 35.000000 1.600000
vertex 67.000000 35.000000 3.600000
endloop
endfacet
facet normal 0.000000 -1.000000 0.000000
outer loop
vertex 63.000000 35.000000 1.600000
vertex 67.000000 35.000000 3.600000
vertex 63.000000 35.000000 3.600000
endloop
endfacet
facet normal 0.000000 1.000000 0.000000
outer loop
vertex 63.000000 75.000000 1.600000
vertex 63.000000 75.000000 3.600000
vertex 67.000000 75.000000 3.600000
endloop
endfacet
facet normal 0.000000 1.000000 0.000000
outer loop
vertex 63.000000 75.000000 1.600000
vertex 67.000000 75.000000 3.600000
vertex 67.000000 75.000000 1.600000
endloop
endfacet
facet normal -1.000000 0.000000 0.000000
outer loop
vertex 63.000000 35.000000 1.600000
vertex 63.000000 35.000000 3.600000
vertex 63.000000 75.000000 3.600000
endloop
endfacet
facet normal -1.000000 0.000000 0.000000
outer loop
vertex 63.000000 35.000000 1.600000
vertex 63.000000 75.000000 3.600000
vertex 63.000000 75.000000 1.600000
endloop
endfacet
facet normal 1.000000 0.000000 0.000000
outer loop
vertex 67.000000 35.000000 1.600000
vertex 67.000000 75.000000 1.600000
vertex 67.000000 75.000000 3.600000
endloop
endfacet
facet normal 1.000000 0.000000 0.000000
outer loop
vertex 67.000000 35.000000 1.600000
vertex 67.000000 75.000000 3.600000
vertex 67.000000 35.000000 3.600000
endloop
endfacet
endsolid tfln_electrodes.stl
