G04 TFLN Photonic Modulator - Top Paste Layer*
%FSLAX25Y25*%
%MOIN*%
%ADD10R,0.040000X0.020000*%
G01*
D10*
X39370Y39370D03*
D10*
X47244Y39370D03*
D10*
X55118Y39370D03*
D10*
X62992Y39370D03*
D10*
X70866Y39370D03*
D10*
X78740Y39370D03*
D10*
X86614Y39370D03*
D10*
X94488Y39370D03*
D10*
X102362Y39370D03*
D10*
X110236Y39370D03*
D10*
X118110Y39370D03*
D10*
X125984Y39370D03*
D10*
X133858Y39370D03*
D10*
X141732Y39370D03*
D10*
X149606Y39370D03*
D10*
X157480Y39370D03*
D10*
X165354Y39370D03*
D10*
X173228Y39370D03*
D10*
X181102Y39370D03*
D10*
X188976Y39370D03*
D10*
X196850Y39370D03*
D10*
X204724Y39370D03*
D10*
X212598Y39370D03*
D10*
X220472Y39370D03*
D10*
X228346Y39370D03*
D10*
X236220Y39370D03*
D10*
X244094Y39370D03*
D10*
X251968Y39370D03*
D10*
X259842Y39370D03*
D10*
X267716Y39370D03*
D10*
X275590Y39370D03*
D10*
X283464Y39370D03*
D10*
X291338Y39370D03*
D10*
X299212Y39370D03*
D10*
X307086Y39370D03*
D10*
X314960Y39370D03*
D10*
X322834Y39370D03*
D10*
X330708Y39370D03*
D10*
X338582Y39370D03*
D10*
X346456Y39370D03*
D10*
X354330Y39370D03*
D10*
X362204Y39370D03*
D10*
X370078Y39370D03*
D10*
X377952Y39370D03*
D10*
X385826Y39370D03*
D10*
X393700Y39370D03*
D10*
X401574Y39370D03*
D10*
X409448Y39370D03*
D10*
X417322Y39370D03*
D10*
X425196Y39370D03*
D10*
X39370Y47244D03*
D10*
X47244Y47244D03*
D10*
X55118Y47244D03*
D10*
X62992Y47244D03*
D10*
X70866Y47244D03*
D10*
X78740Y47244D03*
D10*
X86614Y47244D03*
D10*
X94488Y47244D03*
D10*
X102362Y47244D03*
D10*
X110236Y47244D03*
D10*
X118110Y47244D03*
D10*
X125984Y47244D03*
D10*
X133858Y47244D03*
D10*
X141732Y47244D03*
D10*
X149606Y47244D03*
D10*
X157480Y47244D03*
D10*
X165354Y47244D03*
D10*
X173228Y47244D03*
D10*
X181102Y47244D03*
D10*
X188976Y47244D03*
D10*
X196850Y47244D03*
D10*
X204724Y47244D03*
D10*
X212598Y47244D03*
D10*
X220472Y47244D03*
D10*
X228346Y47244D03*
D10*
X236220Y47244D03*
D10*
X244094Y47244D03*
D10*
X251968Y47244D03*
D10*
X259842Y47244D03*
D10*
X267716Y47244D03*
D10*
X275590Y47244D03*
D10*
X283464Y47244D03*
D10*
X291338Y47244D03*
D10*
X299212Y47244D03*
D10*
X307086Y47244D03*
D10*
X314960Y47244D03*
D10*
X322834Y47244D03*
D10*
X330708Y47244D03*
D10*
X338582Y47244D03*
D10*
X346456Y47244D03*
D10*
X354330Y47244D03*
D10*
X362204Y47244D03*
D10*
X370078Y47244D03*
D10*
X377952Y47244D03*
D10*
X385826Y47244D03*
D10*
X393700Y47244D03*
D10*
X401574Y47244D03*
D10*
X409448Y47244D03*
D10*
X417322Y47244D03*
D10*
X425196Y47244D03*
D10*
X39370Y55118D03*
D10*
X47244Y55118D03*
D10*
X55118Y55118D03*
D10*
X62992Y55118D03*
D10*
X70866Y55118D03*
D10*
X78740Y55118D03*
D10*
X86614Y55118D03*
D10*
X94488Y55118D03*
D10*
X102362Y55118D03*
D10*
X110236Y55118D03*
D10*
X118110Y55118D03*
D10*
X125984Y55118D03*
D10*
X133858Y55118D03*
D10*
X141732Y55118D03*
D10*
X149606Y55118D03*
D10*
X157480Y55118D03*
D10*
X165354Y55118D03*
D10*
X173228Y55118D03*
D10*
X181102Y55118D03*
D10*
X188976Y55118D03*
D10*
X196850Y55118D03*
D10*
X204724Y55118D03*
D10*
X212598Y55118D03*
D10*
X220472Y55118D03*
D10*
X228346Y55118D03*
D10*
X236220Y55118D03*
D10*
X244094Y55118D03*
D10*
X251968Y55118D03*
D10*
X259842Y55118D03*
D10*
X267716Y55118D03*
D10*
X275590Y55118D03*
D10*
X283464Y55118D03*
D10*
X291338Y55118D03*
D10*
X299212Y55118D03*
D10*
X307086Y55118D03*
D10*
X314960Y55118D03*
D10*
X322834Y55118D03*
D10*
X330708Y55118D03*
D10*
X338582Y55118D03*
D10*
X346456Y55118D03*
D10*
X354330Y55118D03*
D10*
X362204Y55118D03*
D10*
X370078Y55118D03*
D10*
X377952Y55118D03*
D10*
X385826Y55118D03*
D10*
X393700Y55118D03*
D10*
X401574Y55118D03*
D10*
X409448Y55118D03*
D10*
X417322Y55118D03*
D10*
X425196Y55118D03*
D10*
X39370Y62992D03*
D10*
X47244Y62992D03*
D10*
X55118Y62992D03*
D10*
X62992Y62992D03*
D10*
X70866Y62992D03*
D10*
X78740Y62992D03*
D10*
X86614Y62992D03*
D10*
X94488Y62992D03*
D10*
X102362Y62992D03*
D10*
X110236Y62992D03*
D10*
X118110Y62992D03*
D10*
X125984Y62992D03*
D10*
X133858Y62992D03*
D10*
X141732Y62992D03*
D10*
X149606Y62992D03*
D10*
X157480Y62992D03*
D10*
X165354Y62992D03*
D10*
X173228Y62992D03*
D10*
X181102Y62992D03*
D10*
X188976Y62992D03*
D10*
X196850Y62992D03*
D10*
X204724Y62992D03*
D10*
X212598Y62992D03*
D10*
X220472Y62992D03*
D10*
X228346Y62992D03*
D10*
X236220Y62992D03*
D10*
X244094Y62992D03*
D10*
X251968Y62992D03*
D10*
X259842Y62992D03*
D10*
X267716Y62992D03*
D10*
X275590Y62992D03*
D10*
X283464Y62992D03*
D10*
X291338Y62992D03*
D10*
X299212Y62992D03*
D10*
X307086Y62992D03*
D10*
X314960Y62992D03*
D10*
X322834Y62992D03*
D10*
X330708Y62992D03*
D10*
X338582Y62992D03*
D10*
X346456Y62992D03*
D10*
X354330Y62992D03*
D10*
X362204Y62992D03*
D10*
X370078Y62992D03*
D10*
X377952Y62992D03*
D10*
X385826Y62992D03*
D10*
X393700Y62992D03*
D10*
X401574Y62992D03*
D10*
X409448Y62992D03*
D10*
X417322Y62992D03*
D10*
X425196Y62992D03*
D10*
X39370Y70866D03*
D10*
X47244Y70866D03*
D10*
X55118Y70866D03*
D10*
X62992Y70866D03*
D10*
X70866Y70866D03*
D10*
X78740Y70866D03*
D10*
X86614Y70866D03*
D10*
X94488Y70866D03*
D10*
X102362Y70866D03*
D10*
X110236Y70866D03*
D10*
X118110Y70866D03*
D10*
X125984Y70866D03*
D10*
X133858Y70866D03*
D10*
X141732Y70866D03*
D10*
X149606Y70866D03*
D10*
X157480Y70866D03*
D10*
X165354Y70866D03*
D10*
X173228Y70866D03*
D10*
X181102Y70866D03*
D10*
X188976Y70866D03*
D10*
X196850Y70866D03*
D10*
X204724Y70866D03*
D10*
X212598Y70866D03*
D10*
X220472Y70866D03*
D10*
X228346Y70866D03*
D10*
X236220Y70866D03*
D10*
X244094Y70866D03*
D10*
X251968Y70866D03*
D10*
X259842Y70866D03*
D10*
X267716Y70866D03*
D10*
X275590Y70866D03*
D10*
X283464Y70866D03*
D10*
X291338Y70866D03*
D10*
X299212Y70866D03*
D10*
X307086Y70866D03*
D10*
X314960Y70866D03*
D10*
X322834Y70866D03*
D10*
X330708Y70866D03*
D10*
X338582Y70866D03*
D10*
X346456Y70866D03*
D10*
X354330Y70866D03*
D10*
X362204Y70866D03*
D10*
X370078Y70866D03*
D10*
X377952Y70866D03*
D10*
X385826Y70866D03*
D10*
X393700Y70866D03*
D10*
X401574Y70866D03*
D10*
X409448Y70866D03*
D10*
X417322Y70866D03*
D10*
X425196Y70866D03*
D10*
X39370Y78740D03*
D10*
X47244Y78740D03*
D10*
X55118Y78740D03*
D10*
X62992Y78740D03*
D10*
X70866Y78740D03*
D10*
X78740Y78740D03*
D10*
X86614Y78740D03*
D10*
X94488Y78740D03*
D10*
X102362Y78740D03*
D10*
X110236Y78740D03*
D10*
X118110Y78740D03*
D10*
X125984Y78740D03*
D10*
X133858Y78740D03*
D10*
X141732Y78740D03*
D10*
X149606Y78740D03*
D10*
X157480Y78740D03*
D10*
X165354Y78740D03*
D10*
X173228Y78740D03*
D10*
X181102Y78740D03*
D10*
X188976Y78740D03*
D10*
X196850Y78740D03*
D10*
X204724Y78740D03*
D10*
X212598Y78740D03*
D10*
X220472Y78740D03*
D10*
X228346Y78740D03*
D10*
X236220Y78740D03*
D10*
X244094Y78740D03*
D10*
X251968Y78740D03*
D10*
X259842Y78740D03*
D10*
X267716Y78740D03*
D10*
X275590Y78740D03*
D10*
X283464Y78740D03*
D10*
X291338Y78740D03*
D10*
X299212Y78740D03*
D10*
X307086Y78740D03*
D10*
X314960Y78740D03*
D10*
X322834Y78740D03*
D10*
X330708Y78740D03*
D10*
X338582Y78740D03*
D10*
X346456Y78740D03*
D10*
X354330Y78740D03*
D10*
X362204Y78740D03*
D10*
X370078Y78740D03*
D10*
X377952Y78740D03*
D10*
X385826Y78740D03*
D10*
X393700Y78740D03*
D10*
X401574Y78740D03*
D10*
X409448Y78740D03*
D10*
X417322Y78740D03*
D10*
X425196Y78740D03*
D10*
X39370Y86614D03*
D10*
X47244Y86614D03*
D10*
X55118Y86614D03*
D10*
X62992Y86614D03*
D10*
X70866Y86614D03*
D10*
X78740Y86614D03*
D10*
X86614Y86614D03*
D10*
X94488Y86614D03*
D10*
X102362Y86614D03*
D10*
X110236Y86614D03*
D10*
X118110Y86614D03*
D10*
X125984Y86614D03*
D10*
X133858Y86614D03*
D10*
X141732Y86614D03*
D10*
X149606Y86614D03*
D10*
X157480Y86614D03*
D10*
X165354Y86614D03*
D10*
X173228Y86614D03*
D10*
X181102Y86614D03*
D10*
X188976Y86614D03*
D10*
X196850Y86614D03*
D10*
X204724Y86614D03*
D10*
X212598Y86614D03*
D10*
X220472Y86614D03*
D10*
X228346Y86614D03*
D10*
X236220Y86614D03*
D10*
X244094Y86614D03*
D10*
X251968Y86614D03*
D10*
X259842Y86614D03*
D10*
X267716Y86614D03*
D10*
X275590Y86614D03*
D10*
X283464Y86614D03*
D10*
X291338Y86614D03*
D10*
X299212Y86614D03*
D10*
X307086Y86614D03*
D10*
X314960Y86614D03*
D10*
X322834Y86614D03*
D10*
X330708Y86614D03*
D10*
X338582Y86614D03*
D10*
X346456Y86614D03*
D10*
X354330Y86614D03*
D10*
X362204Y86614D03*
D10*
X370078Y86614D03*
D10*
X377952Y86614D03*
D10*
X385826Y86614D03*
D10*
X393700Y86614D03*
D10*
X401574Y86614D03*
D10*
X409448Y86614D03*
D10*
X417322Y86614D03*
D10*
X425196Y86614D03*
D10*
X39370Y94488D03*
D10*
X47244Y94488D03*
D10*
X55118Y94488D03*
D10*
X62992Y94488D03*
D10*
X70866Y94488D03*
D10*
X78740Y94488D03*
D10*
X86614Y94488D03*
D10*
X94488Y94488D03*
D10*
X102362Y94488D03*
D10*
X110236Y94488D03*
D10*
X118110Y94488D03*
D10*
X125984Y94488D03*
D10*
X133858Y94488D03*
D10*
X141732Y94488D03*
D10*
X149606Y94488D03*
D10*
X157480Y94488D03*
D10*
X165354Y94488D03*
D10*
X173228Y94488D03*
D10*
X181102Y94488D03*
D10*
X188976Y94488D03*
D10*
X196850Y94488D03*
D10*
X204724Y94488D03*
D10*
X212598Y94488D03*
D10*
X220472Y94488D03*
D10*
X228346Y94488D03*
D10*
X236220Y94488D03*
D10*
X244094Y94488D03*
D10*
X251968Y94488D03*
D10*
X259842Y94488D03*
D10*
X267716Y94488D03*
D10*
X275590Y94488D03*
D10*
X283464Y94488D03*
D10*
X291338Y94488D03*
D10*
X299212Y94488D03*
D10*
X307086Y94488D03*
D10*
X314960Y94488D03*
D10*
X322834Y94488D03*
D10*
X330708Y94488D03*
D10*
X338582Y94488D03*
D10*
X346456Y94488D03*
D10*
X354330Y94488D03*
D10*
X362204Y94488D03*
D10*
X370078Y94488D03*
D10*
X377952Y94488D03*
D10*
X385826Y94488D03*
D10*
X393700Y94488D03*
D10*
X401574Y94488D03*
D10*
X409448Y94488D03*
D10*
X417322Y94488D03*
D10*
X425196Y94488D03*
D10*
X39370Y102362D03*
D10*
X47244Y102362D03*
D10*
X55118Y102362D03*
D10*
X62992Y102362D03*
D10*
X70866Y102362D03*
D10*
X78740Y102362D03*
D10*
X86614Y102362D03*
D10*
X94488Y102362D03*
D10*
X102362Y102362D03*
D10*
X110236Y102362D03*
D10*
X118110Y102362D03*
D10*
X125984Y102362D03*
D10*
X133858Y102362D03*
D10*
X141732Y102362D03*
D10*
X149606Y102362D03*
D10*
X157480Y102362D03*
D10*
X165354Y102362D03*
D10*
X173228Y102362D03*
D10*
X181102Y102362D03*
D10*
X188976Y102362D03*
D10*
X196850Y102362D03*
D10*
X204724Y102362D03*
D10*
X212598Y102362D03*
D10*
X220472Y102362D03*
D10*
X228346Y102362D03*
D10*
X236220Y102362D03*
D10*
X244094Y102362D03*
D10*
X251968Y102362D03*
D10*
X259842Y102362D03*
D10*
X267716Y102362D03*
D10*
X275590Y102362D03*
D10*
X283464Y102362D03*
D10*
X291338Y102362D03*
D10*
X299212Y102362D03*
D10*
X307086Y102362D03*
D10*
X314960Y102362D03*
D10*
X322834Y102362D03*
D10*
X330708Y102362D03*
D10*
X338582Y102362D03*
D10*
X346456Y102362D03*
D10*
X354330Y102362D03*
D10*
X362204Y102362D03*
D10*
X370078Y102362D03*
D10*
X377952Y102362D03*
D10*
X385826Y102362D03*
D10*
X393700Y102362D03*
D10*
X401574Y102362D03*
D10*
X409448Y102362D03*
D10*
X417322Y102362D03*
D10*
X425196Y102362D03*
D10*
X39370Y110236D03*
D10*
X47244Y110236D03*
D10*
X55118Y110236D03*
D10*
X62992Y110236D03*
D10*
X70866Y110236D03*
D10*
X78740Y110236D03*
D10*
X86614Y110236D03*
D10*
X94488Y110236D03*
D10*
X102362Y110236D03*
D10*
X110236Y110236D03*
D10*
X118110Y110236D03*
D10*
X125984Y110236D03*
D10*
X133858Y110236D03*
D10*
X141732Y110236D03*
D10*
X149606Y110236D03*
D10*
X157480Y110236D03*
D10*
X165354Y110236D03*
D10*
X173228Y110236D03*
D10*
X181102Y110236D03*
D10*
X188976Y110236D03*
D10*
X196850Y110236D03*
D10*
X204724Y110236D03*
D10*
X212598Y110236D03*
D10*
X220472Y110236D03*
D10*
X228346Y110236D03*
D10*
X236220Y110236D03*
D10*
X244094Y110236D03*
D10*
X251968Y110236D03*
D10*
X259842Y110236D03*
D10*
X267716Y110236D03*
D10*
X275590Y110236D03*
D10*
X283464Y110236D03*
D10*
X291338Y110236D03*
D10*
X299212Y110236D03*
D10*
X307086Y110236D03*
D10*
X314960Y110236D03*
D10*
X322834Y110236D03*
D10*
X330708Y110236D03*
D10*
X338582Y110236D03*
D10*
X346456Y110236D03*
D10*
X354330Y110236D03*
D10*
X362204Y110236D03*
D10*
X370078Y110236D03*
D10*
X377952Y110236D03*
D10*
X385826Y110236D03*
D10*
X393700Y110236D03*
D10*
X401574Y110236D03*
D10*
X409448Y110236D03*
D10*
X417322Y110236D03*
D10*
X425196Y110236D03*
D10*
X39370Y118110D03*
D10*
X47244Y118110D03*
D10*
X55118Y118110D03*
D10*
X62992Y118110D03*
D10*
X70866Y118110D03*
D10*
X78740Y118110D03*
D10*
X86614Y118110D03*
D10*
X94488Y118110D03*
D10*
X102362Y118110D03*
D10*
X110236Y118110D03*
D10*
X118110Y118110D03*
D10*
X125984Y118110D03*
D10*
X133858Y118110D03*
D10*
X141732Y118110D03*
D10*
X149606Y118110D03*
D10*
X157480Y118110D03*
D10*
X165354Y118110D03*
D10*
X173228Y118110D03*
D10*
X181102Y118110D03*
D10*
X188976Y118110D03*
D10*
X196850Y118110D03*
D10*
X204724Y118110D03*
D10*
X212598Y118110D03*
D10*
X220472Y118110D03*
D10*
X228346Y118110D03*
D10*
X236220Y118110D03*
D10*
X244094Y118110D03*
D10*
X251968Y118110D03*
D10*
X259842Y118110D03*
D10*
X267716Y118110D03*
D10*
X275590Y118110D03*
D10*
X283464Y118110D03*
D10*
X291338Y118110D03*
D10*
X299212Y118110D03*
D10*
X307086Y118110D03*
D10*
X314960Y118110D03*
D10*
X322834Y118110D03*
D10*
X330708Y118110D03*
D10*
X338582Y118110D03*
D10*
X346456Y118110D03*
D10*
X354330Y118110D03*
D10*
X362204Y118110D03*
D10*
X370078Y118110D03*
D10*
X377952Y118110D03*
D10*
X385826Y118110D03*
D10*
X393700Y118110D03*
D10*
X401574Y118110D03*
D10*
X409448Y118110D03*
D10*
X417322Y118110D03*
D10*
X425196Y118110D03*
D10*
X39370Y125984D03*
D10*
X47244Y125984D03*
D10*
X55118Y125984D03*
D10*
X62992Y125984D03*
D10*
X70866Y125984D03*
D10*
X78740Y125984D03*
D10*
X86614Y125984D03*
D10*
X94488Y125984D03*
D10*
X102362Y125984D03*
D10*
X110236Y125984D03*
D10*
X118110Y125984D03*
D10*
X125984Y125984D03*
D10*
X133858Y125984D03*
D10*
X141732Y125984D03*
D10*
X149606Y125984D03*
D10*
X157480Y125984D03*
D10*
X165354Y125984D03*
D10*
X173228Y125984D03*
D10*
X181102Y125984D03*
D10*
X188976Y125984D03*
D10*
X196850Y125984D03*
D10*
X204724Y125984D03*
D10*
X212598Y125984D03*
D10*
X220472Y125984D03*
D10*
X228346Y125984D03*
D10*
X236220Y125984D03*
D10*
X244094Y125984D03*
D10*
X251968Y125984D03*
D10*
X259842Y125984D03*
D10*
X267716Y125984D03*
D10*
X275590Y125984D03*
D10*
X283464Y125984D03*
D10*
X291338Y125984D03*
D10*
X299212Y125984D03*
D10*
X307086Y125984D03*
D10*
X314960Y125984D03*
D10*
X322834Y125984D03*
D10*
X330708Y125984D03*
D10*
X338582Y125984D03*
D10*
X346456Y125984D03*
D10*
X354330Y125984D03*
D10*
X362204Y125984D03*
D10*
X370078Y125984D03*
D10*
X377952Y125984D03*
D10*
X385826Y125984D03*
D10*
X393700Y125984D03*
D10*
X401574Y125984D03*
D10*
X409448Y125984D03*
D10*
X417322Y125984D03*
D10*
X425196Y125984D03*
D10*
X39370Y133858D03*
D10*
X47244Y133858D03*
D10*
X55118Y133858D03*
D10*
X62992Y133858D03*
D10*
X70866Y133858D03*
D10*
X78740Y133858D03*
D10*
X86614Y133858D03*
D10*
X94488Y133858D03*
D10*
X102362Y133858D03*
D10*
X110236Y133858D03*
D10*
X118110Y133858D03*
D10*
X125984Y133858D03*
D10*
X133858Y133858D03*
D10*
X141732Y133858D03*
D10*
X149606Y133858D03*
D10*
X157480Y133858D03*
D10*
X165354Y133858D03*
D10*
X173228Y133858D03*
D10*
X181102Y133858D03*
D10*
X188976Y133858D03*
D10*
X196850Y133858D03*
D10*
X204724Y133858D03*
D10*
X212598Y133858D03*
D10*
X220472Y133858D03*
D10*
X228346Y133858D03*
D10*
X236220Y133858D03*
D10*
X244094Y133858D03*
D10*
X251968Y133858D03*
D10*
X259842Y133858D03*
D10*
X267716Y133858D03*
D10*
X275590Y133858D03*
D10*
X283464Y133858D03*
D10*
X291338Y133858D03*
D10*
X299212Y133858D03*
D10*
X307086Y133858D03*
D10*
X314960Y133858D03*
D10*
X322834Y133858D03*
D10*
X330708Y133858D03*
D10*
X338582Y133858D03*
D10*
X346456Y133858D03*
D10*
X354330Y133858D03*
D10*
X362204Y133858D03*
D10*
X370078Y133858D03*
D10*
X377952Y133858D03*
D10*
X385826Y133858D03*
D10*
X393700Y133858D03*
D10*
X401574Y133858D03*
D10*
X409448Y133858D03*
D10*
X417322Y133858D03*
D10*
X425196Y133858D03*
D10*
X39370Y141732D03*
D10*
X47244Y141732D03*
D10*
X55118Y141732D03*
D10*
X62992Y141732D03*
D10*
X70866Y141732D03*
D10*
X78740Y141732D03*
D10*
X86614Y141732D03*
D10*
X94488Y141732D03*
D10*
X102362Y141732D03*
D10*
X110236Y141732D03*
D10*
X118110Y141732D03*
D10*
X125984Y141732D03*
D10*
X133858Y141732D03*
D10*
X141732Y141732D03*
D10*
X149606Y141732D03*
D10*
X157480Y141732D03*
D10*
X165354Y141732D03*
D10*
X173228Y141732D03*
D10*
X181102Y141732D03*
D10*
X188976Y141732D03*
D10*
X196850Y141732D03*
D10*
X204724Y141732D03*
D10*
X212598Y141732D03*
D10*
X220472Y141732D03*
D10*
X228346Y141732D03*
D10*
X236220Y141732D03*
D10*
X244094Y141732D03*
D10*
X251968Y141732D03*
D10*
X259842Y141732D03*
D10*
X267716Y141732D03*
D10*
X275590Y141732D03*
D10*
X283464Y141732D03*
D10*
X291338Y141732D03*
D10*
X299212Y141732D03*
D10*
X307086Y141732D03*
D10*
X314960Y141732D03*
D10*
X322834Y141732D03*
D10*
X330708Y141732D03*
D10*
X338582Y141732D03*
D10*
X346456Y141732D03*
D10*
X354330Y141732D03*
D10*
X362204Y141732D03*
D10*
X370078Y141732D03*
D10*
X377952Y141732D03*
D10*
X385826Y141732D03*
D10*
X393700Y141732D03*
D10*
X401574Y141732D03*
D10*
X409448Y141732D03*
D10*
X417322Y141732D03*
D10*
X425196Y141732D03*
D10*
X39370Y149606D03*
D10*
X47244Y149606D03*
D10*
X55118Y149606D03*
D10*
X62992Y149606D03*
D10*
X70866Y149606D03*
D10*
X78740Y149606D03*
D10*
X86614Y149606D03*
D10*
X94488Y149606D03*
D10*
X102362Y149606D03*
D10*
X110236Y149606D03*
D10*
X118110Y149606D03*
D10*
X125984Y149606D03*
D10*
X133858Y149606D03*
D10*
X141732Y149606D03*
D10*
X149606Y149606D03*
D10*
X157480Y149606D03*
D10*
X165354Y149606D03*
D10*
X173228Y149606D03*
D10*
X181102Y149606D03*
D10*
X188976Y149606D03*
D10*
X196850Y149606D03*
D10*
X204724Y149606D03*
D10*
X212598Y149606D03*
D10*
X220472Y149606D03*
D10*
X228346Y149606D03*
D10*
X236220Y149606D03*
D10*
X244094Y149606D03*
D10*
X251968Y149606D03*
D10*
X259842Y149606D03*
D10*
X267716Y149606D03*
D10*
X275590Y149606D03*
D10*
X283464Y149606D03*
D10*
X291338Y149606D03*
D10*
X299212Y149606D03*
D10*
X307086Y149606D03*
D10*
X314960Y149606D03*
D10*
X322834Y149606D03*
D10*
X330708Y149606D03*
D10*
X338582Y149606D03*
D10*
X346456Y149606D03*
D10*
X354330Y149606D03*
D10*
X362204Y149606D03*
D10*
X370078Y149606D03*
D10*
X377952Y149606D03*
D10*
X385826Y149606D03*
D10*
X393700Y149606D03*
D10*
X401574Y149606D03*
D10*
X409448Y149606D03*
D10*
X417322Y149606D03*
D10*
X425196Y149606D03*
D10*
X39370Y157480D03*
D10*
X47244Y157480D03*
D10*
X55118Y157480D03*
D10*
X62992Y157480D03*
D10*
X70866Y157480D03*
D10*
X78740Y157480D03*
D10*
X86614Y157480D03*
D10*
X94488Y157480D03*
D10*
X102362Y157480D03*
D10*
X110236Y157480D03*
D10*
X118110Y157480D03*
D10*
X125984Y157480D03*
D10*
X133858Y157480D03*
D10*
X141732Y157480D03*
D10*
X149606Y157480D03*
D10*
X157480Y157480D03*
D10*
X165354Y157480D03*
D10*
X173228Y157480D03*
D10*
X181102Y157480D03*
D10*
X188976Y157480D03*
D10*
X196850Y157480D03*
D10*
X204724Y157480D03*
D10*
X212598Y157480D03*
D10*
X220472Y157480D03*
D10*
X228346Y157480D03*
D10*
X236220Y157480D03*
D10*
X244094Y157480D03*
D10*
X251968Y157480D03*
D10*
X259842Y157480D03*
D10*
X267716Y157480D03*
D10*
X275590Y157480D03*
D10*
X283464Y157480D03*
D10*
X291338Y157480D03*
D10*
X299212Y157480D03*
D10*
X307086Y157480D03*
D10*
X314960Y157480D03*
D10*
X322834Y157480D03*
D10*
X330708Y157480D03*
D10*
X338582Y157480D03*
D10*
X346456Y157480D03*
D10*
X354330Y157480D03*
D10*
X362204Y157480D03*
D10*
X370078Y157480D03*
D10*
X377952Y157480D03*
D10*
X385826Y157480D03*
D10*
X393700Y157480D03*
D10*
X401574Y157480D03*
D10*
X409448Y157480D03*
D10*
X417322Y157480D03*
D10*
X425196Y157480D03*
D10*
X39370Y165354D03*
D10*
X47244Y165354D03*
D10*
X55118Y165354D03*
D10*
X62992Y165354D03*
D10*
X70866Y165354D03*
D10*
X78740Y165354D03*
D10*
X86614Y165354D03*
D10*
X94488Y165354D03*
D10*
X102362Y165354D03*
D10*
X110236Y165354D03*
D10*
X118110Y165354D03*
D10*
X125984Y165354D03*
D10*
X133858Y165354D03*
D10*
X141732Y165354D03*
D10*
X149606Y165354D03*
D10*
X157480Y165354D03*
D10*
X165354Y165354D03*
D10*
X173228Y165354D03*
D10*
X181102Y165354D03*
D10*
X188976Y165354D03*
D10*
X196850Y165354D03*
D10*
X204724Y165354D03*
D10*
X212598Y165354D03*
D10*
X220472Y165354D03*
D10*
X228346Y165354D03*
D10*
X236220Y165354D03*
D10*
X244094Y165354D03*
D10*
X251968Y165354D03*
D10*
X259842Y165354D03*
D10*
X267716Y165354D03*
D10*
X275590Y165354D03*
D10*
X283464Y165354D03*
D10*
X291338Y165354D03*
D10*
X299212Y165354D03*
D10*
X307086Y165354D03*
D10*
X314960Y165354D03*
D10*
X322834Y165354D03*
D10*
X330708Y165354D03*
D10*
X338582Y165354D03*
D10*
X346456Y165354D03*
D10*
X354330Y165354D03*
D10*
X362204Y165354D03*
D10*
X370078Y165354D03*
D10*
X377952Y165354D03*
D10*
X385826Y165354D03*
D10*
X393700Y165354D03*
D10*
X401574Y165354D03*
D10*
X409448Y165354D03*
D10*
X417322Y165354D03*
D10*
X425196Y165354D03*
D10*
X39370Y173228D03*
D10*
X47244Y173228D03*
D10*
X55118Y173228D03*
D10*
X62992Y173228D03*
D10*
X70866Y173228D03*
D10*
X78740Y173228D03*
D10*
X86614Y173228D03*
D10*
X94488Y173228D03*
D10*
X102362Y173228D03*
D10*
X110236Y173228D03*
D10*
X118110Y173228D03*
D10*
X125984Y173228D03*
D10*
X133858Y173228D03*
D10*
X141732Y173228D03*
D10*
X149606Y173228D03*
D10*
X157480Y173228D03*
D10*
X165354Y173228D03*
D10*
X173228Y173228D03*
D10*
X181102Y173228D03*
D10*
X188976Y173228D03*
D10*
X196850Y173228D03*
D10*
X204724Y173228D03*
D10*
X212598Y173228D03*
D10*
X220472Y173228D03*
D10*
X228346Y173228D03*
D10*
X236220Y173228D03*
D10*
X244094Y173228D03*
D10*
X251968Y173228D03*
D10*
X259842Y173228D03*
D10*
X267716Y173228D03*
D10*
X275590Y173228D03*
D10*
X283464Y173228D03*
D10*
X291338Y173228D03*
D10*
X299212Y173228D03*
D10*
X307086Y173228D03*
D10*
X314960Y173228D03*
D10*
X322834Y173228D03*
D10*
X330708Y173228D03*
D10*
X338582Y173228D03*
D10*
X346456Y173228D03*
D10*
X354330Y173228D03*
D10*
X362204Y173228D03*
D10*
X370078Y173228D03*
D10*
X377952Y173228D03*
D10*
X385826Y173228D03*
D10*
X393700Y173228D03*
D10*
X401574Y173228D03*
D10*
X409448Y173228D03*
D10*
X417322Y173228D03*
D10*
X425196Y173228D03*
D10*
X39370Y181102D03*
D10*
X47244Y181102D03*
D10*
X55118Y181102D03*
D10*
X62992Y181102D03*
D10*
X70866Y181102D03*
D10*
X78740Y181102D03*
D10*
X86614Y181102D03*
D10*
X94488Y181102D03*
D10*
X102362Y181102D03*
D10*
X110236Y181102D03*
D10*
X118110Y181102D03*
D10*
X125984Y181102D03*
D10*
X133858Y181102D03*
D10*
X141732Y181102D03*
D10*
X149606Y181102D03*
D10*
X157480Y181102D03*
D10*
X165354Y181102D03*
D10*
X173228Y181102D03*
D10*
X181102Y181102D03*
D10*
X188976Y181102D03*
D10*
X196850Y181102D03*
D10*
X204724Y181102D03*
D10*
X212598Y181102D03*
D10*
X220472Y181102D03*
D10*
X228346Y181102D03*
D10*
X236220Y181102D03*
D10*
X244094Y181102D03*
D10*
X251968Y181102D03*
D10*
X259842Y181102D03*
D10*
X267716Y181102D03*
D10*
X275590Y181102D03*
D10*
X283464Y181102D03*
D10*
X291338Y181102D03*
D10*
X299212Y181102D03*
D10*
X307086Y181102D03*
D10*
X314960Y181102D03*
D10*
X322834Y181102D03*
D10*
X330708Y181102D03*
D10*
X338582Y181102D03*
D10*
X346456Y181102D03*
D10*
X354330Y181102D03*
D10*
X362204Y181102D03*
D10*
X370078Y181102D03*
D10*
X377952Y181102D03*
D10*
X385826Y181102D03*
D10*
X393700Y181102D03*
D10*
X401574Y181102D03*
D10*
X409448Y181102D03*
D10*
X417322Y181102D03*
D10*
X425196Y181102D03*
D10*
X39370Y188976D03*
D10*
X47244Y188976D03*
D10*
X55118Y188976D03*
D10*
X62992Y188976D03*
D10*
X70866Y188976D03*
D10*
X78740Y188976D03*
D10*
X86614Y188976D03*
D10*
X94488Y188976D03*
D10*
X102362Y188976D03*
D10*
X110236Y188976D03*
D10*
X118110Y188976D03*
D10*
X125984Y188976D03*
D10*
X133858Y188976D03*
D10*
X141732Y188976D03*
D10*
X149606Y188976D03*
D10*
X157480Y188976D03*
D10*
X165354Y188976D03*
D10*
X173228Y188976D03*
D10*
X181102Y188976D03*
D10*
X188976Y188976D03*
D10*
X196850Y188976D03*
D10*
X204724Y188976D03*
D10*
X212598Y188976D03*
D10*
X220472Y188976D03*
D10*
X228346Y188976D03*
D10*
X236220Y188976D03*
D10*
X244094Y188976D03*
D10*
X251968Y188976D03*
D10*
X259842Y188976D03*
D10*
X267716Y188976D03*
D10*
X275590Y188976D03*
D10*
X283464Y188976D03*
D10*
X291338Y188976D03*
D10*
X299212Y188976D03*
D10*
X307086Y188976D03*
D10*
X314960Y188976D03*
D10*
X322834Y188976D03*
D10*
X330708Y188976D03*
D10*
X338582Y188976D03*
D10*
X346456Y188976D03*
D10*
X354330Y188976D03*
D10*
X362204Y188976D03*
D10*
X370078Y188976D03*
D10*
X377952Y188976D03*
D10*
X385826Y188976D03*
D10*
X393700Y188976D03*
D10*
X401574Y188976D03*
D10*
X409448Y188976D03*
D10*
X417322Y188976D03*
D10*
X425196Y188976D03*
D10*
X39370Y196850D03*
D10*
X47244Y196850D03*
D10*
X55118Y196850D03*
D10*
X62992Y196850D03*
D10*
X70866Y196850D03*
D10*
X78740Y196850D03*
D10*
X86614Y196850D03*
D10*
X94488Y196850D03*
D10*
X102362Y196850D03*
D10*
X110236Y196850D03*
D10*
X118110Y196850D03*
D10*
X125984Y196850D03*
D10*
X133858Y196850D03*
D10*
X141732Y196850D03*
D10*
X149606Y196850D03*
D10*
X157480Y196850D03*
D10*
X165354Y196850D03*
D10*
X173228Y196850D03*
D10*
X181102Y196850D03*
D10*
X188976Y196850D03*
D10*
X196850Y196850D03*
D10*
X204724Y196850D03*
D10*
X212598Y196850D03*
D10*
X220472Y196850D03*
D10*
X228346Y196850D03*
D10*
X236220Y196850D03*
D10*
X244094Y196850D03*
D10*
X251968Y196850D03*
D10*
X259842Y196850D03*
D10*
X267716Y196850D03*
D10*
X275590Y196850D03*
D10*
X283464Y196850D03*
D10*
X291338Y196850D03*
D10*
X299212Y196850D03*
D10*
X307086Y196850D03*
D10*
X314960Y196850D03*
D10*
X322834Y196850D03*
D10*
X330708Y196850D03*
D10*
X338582Y196850D03*
D10*
X346456Y196850D03*
D10*
X354330Y196850D03*
D10*
X362204Y196850D03*
D10*
X370078Y196850D03*
D10*
X377952Y196850D03*
D10*
X385826Y196850D03*
D10*
X393700Y196850D03*
D10*
X401574Y196850D03*
D10*
X409448Y196850D03*
D10*
X417322Y196850D03*
D10*
X425196Y196850D03*
D10*
X39370Y204724D03*
D10*
X47244Y204724D03*
D10*
X55118Y204724D03*
D10*
X62992Y204724D03*
D10*
X70866Y204724D03*
D10*
X78740Y204724D03*
D10*
X86614Y204724D03*
D10*
X94488Y204724D03*
D10*
X102362Y204724D03*
D10*
X110236Y204724D03*
D10*
X118110Y204724D03*
D10*
X125984Y204724D03*
D10*
X133858Y204724D03*
D10*
X141732Y204724D03*
D10*
X149606Y204724D03*
D10*
X157480Y204724D03*
D10*
X165354Y204724D03*
D10*
X173228Y204724D03*
D10*
X181102Y204724D03*
D10*
X188976Y204724D03*
D10*
X196850Y204724D03*
D10*
X204724Y204724D03*
D10*
X212598Y204724D03*
D10*
X220472Y204724D03*
D10*
X228346Y204724D03*
D10*
X236220Y204724D03*
D10*
X244094Y204724D03*
D10*
X251968Y204724D03*
D10*
X259842Y204724D03*
D10*
X267716Y204724D03*
D10*
X275590Y204724D03*
D10*
X283464Y204724D03*
D10*
X291338Y204724D03*
D10*
X299212Y204724D03*
D10*
X307086Y204724D03*
D10*
X314960Y204724D03*
D10*
X322834Y204724D03*
D10*
X330708Y204724D03*
D10*
X338582Y204724D03*
D10*
X346456Y204724D03*
D10*
X354330Y204724D03*
D10*
X362204Y204724D03*
D10*
X370078Y204724D03*
D10*
X377952Y204724D03*
D10*
X385826Y204724D03*
D10*
X393700Y204724D03*
D10*
X401574Y204724D03*
D10*
X409448Y204724D03*
D10*
X417322Y204724D03*
D10*
X425196Y204724D03*
D10*
X39370Y212598D03*
D10*
X47244Y212598D03*
D10*
X55118Y212598D03*
D10*
X62992Y212598D03*
D10*
X70866Y212598D03*
D10*
X78740Y212598D03*
D10*
X86614Y212598D03*
D10*
X94488Y212598D03*
D10*
X102362Y212598D03*
D10*
X110236Y212598D03*
D10*
X118110Y212598D03*
D10*
X125984Y212598D03*
D10*
X133858Y212598D03*
D10*
X141732Y212598D03*
D10*
X149606Y212598D03*
D10*
X157480Y212598D03*
D10*
X165354Y212598D03*
D10*
X173228Y212598D03*
D10*
X181102Y212598D03*
D10*
X188976Y212598D03*
D10*
X196850Y212598D03*
D10*
X204724Y212598D03*
D10*
X212598Y212598D03*
D10*
X220472Y212598D03*
D10*
X228346Y212598D03*
D10*
X236220Y212598D03*
D10*
X244094Y212598D03*
D10*
X251968Y212598D03*
D10*
X259842Y212598D03*
D10*
X267716Y212598D03*
D10*
X275590Y212598D03*
D10*
X283464Y212598D03*
D10*
X291338Y212598D03*
D10*
X299212Y212598D03*
D10*
X307086Y212598D03*
D10*
X314960Y212598D03*
D10*
X322834Y212598D03*
D10*
X330708Y212598D03*
D10*
X338582Y212598D03*
D10*
X346456Y212598D03*
D10*
X354330Y212598D03*
D10*
X362204Y212598D03*
D10*
X370078Y212598D03*
D10*
X377952Y212598D03*
D10*
X385826Y212598D03*
D10*
X393700Y212598D03*
D10*
X401574Y212598D03*
D10*
X409448Y212598D03*
D10*
X417322Y212598D03*
D10*
X425196Y212598D03*
D10*
X39370Y220472D03*
D10*
X47244Y220472D03*
D10*
X55118Y220472D03*
D10*
X62992Y220472D03*
D10*
X70866Y220472D03*
D10*
X78740Y220472D03*
D10*
X86614Y220472D03*
D10*
X94488Y220472D03*
D10*
X102362Y220472D03*
D10*
X110236Y220472D03*
D10*
X118110Y220472D03*
D10*
X125984Y220472D03*
D10*
X133858Y220472D03*
D10*
X141732Y220472D03*
D10*
X149606Y220472D03*
D10*
X157480Y220472D03*
D10*
X165354Y220472D03*
D10*
X173228Y220472D03*
D10*
X181102Y220472D03*
D10*
X188976Y220472D03*
D10*
X196850Y220472D03*
D10*
X204724Y220472D03*
D10*
X212598Y220472D03*
D10*
X220472Y220472D03*
D10*
X228346Y220472D03*
D10*
X236220Y220472D03*
D10*
X244094Y220472D03*
D10*
X251968Y220472D03*
D10*
X259842Y220472D03*
D10*
X267716Y220472D03*
D10*
X275590Y220472D03*
D10*
X283464Y220472D03*
D10*
X291338Y220472D03*
D10*
X299212Y220472D03*
D10*
X307086Y220472D03*
D10*
X314960Y220472D03*
D10*
X322834Y220472D03*
D10*
X330708Y220472D03*
D10*
X338582Y220472D03*
D10*
X346456Y220472D03*
D10*
X354330Y220472D03*
D10*
X362204Y220472D03*
D10*
X370078Y220472D03*
D10*
X377952Y220472D03*
D10*
X385826Y220472D03*
D10*
X393700Y220472D03*
D10*
X401574Y220472D03*
D10*
X409448Y220472D03*
D10*
X417322Y220472D03*
D10*
X425196Y220472D03*
D10*
X39370Y228346D03*
D10*
X47244Y228346D03*
D10*
X55118Y228346D03*
D10*
X62992Y228346D03*
D10*
X70866Y228346D03*
D10*
X78740Y228346D03*
D10*
X86614Y228346D03*
D10*
X94488Y228346D03*
D10*
X102362Y228346D03*
D10*
X110236Y228346D03*
D10*
X118110Y228346D03*
D10*
X125984Y228346D03*
D10*
X133858Y228346D03*
D10*
X141732Y228346D03*
D10*
X149606Y228346D03*
D10*
X157480Y228346D03*
D10*
X165354Y228346D03*
D10*
X173228Y228346D03*
D10*
X181102Y228346D03*
D10*
X188976Y228346D03*
D10*
X196850Y228346D03*
D10*
X204724Y228346D03*
D10*
X212598Y228346D03*
D10*
X220472Y228346D03*
D10*
X228346Y228346D03*
D10*
X236220Y228346D03*
D10*
X244094Y228346D03*
D10*
X251968Y228346D03*
D10*
X259842Y228346D03*
D10*
X267716Y228346D03*
D10*
X275590Y228346D03*
D10*
X283464Y228346D03*
D10*
X291338Y228346D03*
D10*
X299212Y228346D03*
D10*
X307086Y228346D03*
D10*
X314960Y228346D03*
D10*
X322834Y228346D03*
D10*
X330708Y228346D03*
D10*
X338582Y228346D03*
D10*
X346456Y228346D03*
D10*
X354330Y228346D03*
D10*
X362204Y228346D03*
D10*
X370078Y228346D03*
D10*
X377952Y228346D03*
D10*
X385826Y228346D03*
D10*
X393700Y228346D03*
D10*
X401574Y228346D03*
D10*
X409448Y228346D03*
D10*
X417322Y228346D03*
D10*
X425196Y228346D03*
D10*
X39370Y236220D03*
D10*
X47244Y236220D03*
D10*
X55118Y236220D03*
D10*
X62992Y236220D03*
D10*
X70866Y236220D03*
D10*
X78740Y236220D03*
D10*
X86614Y236220D03*
D10*
X94488Y236220D03*
D10*
X102362Y236220D03*
D10*
X110236Y236220D03*
D10*
X118110Y236220D03*
D10*
X125984Y236220D03*
D10*
X133858Y236220D03*
D10*
X141732Y236220D03*
D10*
X149606Y236220D03*
D10*
X157480Y236220D03*
D10*
X165354Y236220D03*
D10*
X173228Y236220D03*
D10*
X181102Y236220D03*
D10*
X188976Y236220D03*
D10*
X196850Y236220D03*
D10*
X204724Y236220D03*
D10*
X212598Y236220D03*
D10*
X220472Y236220D03*
D10*
X228346Y236220D03*
D10*
X236220Y236220D03*
D10*
X244094Y236220D03*
D10*
X251968Y236220D03*
D10*
X259842Y236220D03*
D10*
X267716Y236220D03*
D10*
X275590Y236220D03*
D10*
X283464Y236220D03*
D10*
X291338Y236220D03*
D10*
X299212Y236220D03*
D10*
X307086Y236220D03*
D10*
X314960Y236220D03*
D10*
X322834Y236220D03*
D10*
X330708Y236220D03*
D10*
X338582Y236220D03*
D10*
X346456Y236220D03*
D10*
X354330Y236220D03*
D10*
X362204Y236220D03*
D10*
X370078Y236220D03*
D10*
X377952Y236220D03*
D10*
X385826Y236220D03*
D10*
X393700Y236220D03*
D10*
X401574Y236220D03*
D10*
X409448Y236220D03*
D10*
X417322Y236220D03*
D10*
X425196Y236220D03*
D10*
X39370Y244094D03*
D10*
X47244Y244094D03*
D10*
X55118Y244094D03*
D10*
X62992Y244094D03*
D10*
X70866Y244094D03*
D10*
X78740Y244094D03*
D10*
X86614Y244094D03*
D10*
X94488Y244094D03*
D10*
X102362Y244094D03*
D10*
X110236Y244094D03*
D10*
X118110Y244094D03*
D10*
X125984Y244094D03*
D10*
X133858Y244094D03*
D10*
X141732Y244094D03*
D10*
X149606Y244094D03*
D10*
X157480Y244094D03*
D10*
X165354Y244094D03*
D10*
X173228Y244094D03*
D10*
X181102Y244094D03*
D10*
X188976Y244094D03*
D10*
X196850Y244094D03*
D10*
X204724Y244094D03*
D10*
X212598Y244094D03*
D10*
X220472Y244094D03*
D10*
X228346Y244094D03*
D10*
X236220Y244094D03*
D10*
X244094Y244094D03*
D10*
X251968Y244094D03*
D10*
X259842Y244094D03*
D10*
X267716Y244094D03*
D10*
X275590Y244094D03*
D10*
X283464Y244094D03*
D10*
X291338Y244094D03*
D10*
X299212Y244094D03*
D10*
X307086Y244094D03*
D10*
X314960Y244094D03*
D10*
X322834Y244094D03*
D10*
X330708Y244094D03*
D10*
X338582Y244094D03*
D10*
X346456Y244094D03*
D10*
X354330Y244094D03*
D10*
X362204Y244094D03*
D10*
X370078Y244094D03*
D10*
X377952Y244094D03*
D10*
X385826Y244094D03*
D10*
X393700Y244094D03*
D10*
X401574Y244094D03*
D10*
X409448Y244094D03*
D10*
X417322Y244094D03*
D10*
X425196Y244094D03*
D10*
X39370Y251968D03*
D10*
X47244Y251968D03*
D10*
X55118Y251968D03*
D10*
X62992Y251968D03*
D10*
X70866Y251968D03*
D10*
X78740Y251968D03*
D10*
X86614Y251968D03*
D10*
X94488Y251968D03*
D10*
X102362Y251968D03*
D10*
X110236Y251968D03*
D10*
X118110Y251968D03*
D10*
X125984Y251968D03*
D10*
X133858Y251968D03*
D10*
X141732Y251968D03*
D10*
X149606Y251968D03*
D10*
X157480Y251968D03*
D10*
X165354Y251968D03*
D10*
X173228Y251968D03*
D10*
X181102Y251968D03*
D10*
X188976Y251968D03*
D10*
X196850Y251968D03*
D10*
X204724Y251968D03*
D10*
X212598Y251968D03*
D10*
X220472Y251968D03*
D10*
X228346Y251968D03*
D10*
X236220Y251968D03*
D10*
X244094Y251968D03*
D10*
X251968Y251968D03*
D10*
X259842Y251968D03*
D10*
X267716Y251968D03*
D10*
X275590Y251968D03*
D10*
X283464Y251968D03*
D10*
X291338Y251968D03*
D10*
X299212Y251968D03*
D10*
X307086Y251968D03*
D10*
X314960Y251968D03*
D10*
X322834Y251968D03*
D10*
X330708Y251968D03*
D10*
X338582Y251968D03*
D10*
X346456Y251968D03*
D10*
X354330Y251968D03*
D10*
X362204Y251968D03*
D10*
X370078Y251968D03*
D10*
X377952Y251968D03*
D10*
X385826Y251968D03*
D10*
X393700Y251968D03*
D10*
X401574Y251968D03*
D10*
X409448Y251968D03*
D10*
X417322Y251968D03*
D10*
X425196Y251968D03*
D10*
X39370Y259842D03*
D10*
X47244Y259842D03*
D10*
X55118Y259842D03*
D10*
X62992Y259842D03*
D10*
X70866Y259842D03*
D10*
X78740Y259842D03*
D10*
X86614Y259842D03*
D10*
X94488Y259842D03*
D10*
X102362Y259842D03*
D10*
X110236Y259842D03*
D10*
X118110Y259842D03*
D10*
X125984Y259842D03*
D10*
X133858Y259842D03*
D10*
X141732Y259842D03*
D10*
X149606Y259842D03*
D10*
X157480Y259842D03*
D10*
X165354Y259842D03*
D10*
X173228Y259842D03*
D10*
X181102Y259842D03*
D10*
X188976Y259842D03*
D10*
X196850Y259842D03*
D10*
X204724Y259842D03*
D10*
X212598Y259842D03*
D10*
X220472Y259842D03*
D10*
X228346Y259842D03*
D10*
X236220Y259842D03*
D10*
X244094Y259842D03*
D10*
X251968Y259842D03*
D10*
X259842Y259842D03*
D10*
X267716Y259842D03*
D10*
X275590Y259842D03*
D10*
X283464Y259842D03*
D10*
X291338Y259842D03*
D10*
X299212Y259842D03*
D10*
X307086Y259842D03*
D10*
X314960Y259842D03*
D10*
X322834Y259842D03*
D10*
X330708Y259842D03*
D10*
X338582Y259842D03*
D10*
X346456Y259842D03*
D10*
X354330Y259842D03*
D10*
X362204Y259842D03*
D10*
X370078Y259842D03*
D10*
X377952Y259842D03*
D10*
X385826Y259842D03*
D10*
X393700Y259842D03*
D10*
X401574Y259842D03*
D10*
X409448Y259842D03*
D10*
X417322Y259842D03*
D10*
X425196Y259842D03*
D10*
X39370Y267716D03*
D10*
X47244Y267716D03*
D10*
X55118Y267716D03*
D10*
X62992Y267716D03*
D10*
X70866Y267716D03*
D10*
X78740Y267716D03*
D10*
X86614Y267716D03*
D10*
X94488Y267716D03*
D10*
X102362Y267716D03*
D10*
X110236Y267716D03*
D10*
X118110Y267716D03*
D10*
X125984Y267716D03*
D10*
X133858Y267716D03*
D10*
X141732Y267716D03*
D10*
X149606Y267716D03*
D10*
X157480Y267716D03*
D10*
X165354Y267716D03*
D10*
X173228Y267716D03*
D10*
X181102Y267716D03*
D10*
X188976Y267716D03*
D10*
X196850Y267716D03*
D10*
X204724Y267716D03*
D10*
X212598Y267716D03*
D10*
X220472Y267716D03*
D10*
X228346Y267716D03*
D10*
X236220Y267716D03*
D10*
X244094Y267716D03*
D10*
X251968Y267716D03*
D10*
X259842Y267716D03*
D10*
X267716Y267716D03*
D10*
X275590Y267716D03*
D10*
X283464Y267716D03*
D10*
X291338Y267716D03*
D10*
X299212Y267716D03*
D10*
X307086Y267716D03*
D10*
X314960Y267716D03*
D10*
X322834Y267716D03*
D10*
X330708Y267716D03*
D10*
X338582Y267716D03*
D10*
X346456Y267716D03*
D10*
X354330Y267716D03*
D10*
X362204Y267716D03*
D10*
X370078Y267716D03*
D10*
X377952Y267716D03*
D10*
X385826Y267716D03*
D10*
X393700Y267716D03*
D10*
X401574Y267716D03*
D10*
X409448Y267716D03*
D10*
X417322Y267716D03*
D10*
X425196Y267716D03*
D10*
X39370Y275590D03*
D10*
X47244Y275590D03*
D10*
X55118Y275590D03*
D10*
X62992Y275590D03*
D10*
X70866Y275590D03*
D10*
X78740Y275590D03*
D10*
X86614Y275590D03*
D10*
X94488Y275590D03*
D10*
X102362Y275590D03*
D10*
X110236Y275590D03*
D10*
X118110Y275590D03*
D10*
X125984Y275590D03*
D10*
X133858Y275590D03*
D10*
X141732Y275590D03*
D10*
X149606Y275590D03*
D10*
X157480Y275590D03*
D10*
X165354Y275590D03*
D10*
X173228Y275590D03*
D10*
X181102Y275590D03*
D10*
X188976Y275590D03*
D10*
X196850Y275590D03*
D10*
X204724Y275590D03*
D10*
X212598Y275590D03*
D10*
X220472Y275590D03*
D10*
X228346Y275590D03*
D10*
X236220Y275590D03*
D10*
X244094Y275590D03*
D10*
X251968Y275590D03*
D10*
X259842Y275590D03*
D10*
X267716Y275590D03*
D10*
X275590Y275590D03*
D10*
X283464Y275590D03*
D10*
X291338Y275590D03*
D10*
X299212Y275590D03*
D10*
X307086Y275590D03*
D10*
X314960Y275590D03*
D10*
X322834Y275590D03*
D10*
X330708Y275590D03*
D10*
X338582Y275590D03*
D10*
X346456Y275590D03*
D10*
X354330Y275590D03*
D10*
X362204Y275590D03*
D10*
X370078Y275590D03*
D10*
X377952Y275590D03*
D10*
X385826Y275590D03*
D10*
X393700Y275590D03*
D10*
X401574Y275590D03*
D10*
X409448Y275590D03*
D10*
X417322Y275590D03*
D10*
X425196Y275590D03*
D10*
X39370Y283464D03*
D10*
X47244Y283464D03*
D10*
X55118Y283464D03*
D10*
X62992Y283464D03*
D10*
X70866Y283464D03*
D10*
X78740Y283464D03*
D10*
X86614Y283464D03*
D10*
X94488Y283464D03*
D10*
X102362Y283464D03*
D10*
X110236Y283464D03*
D10*
X118110Y283464D03*
D10*
X125984Y283464D03*
D10*
X133858Y283464D03*
D10*
X141732Y283464D03*
D10*
X149606Y283464D03*
D10*
X157480Y283464D03*
D10*
X165354Y283464D03*
D10*
X173228Y283464D03*
D10*
X181102Y283464D03*
D10*
X188976Y283464D03*
D10*
X196850Y283464D03*
D10*
X204724Y283464D03*
D10*
X212598Y283464D03*
D10*
X220472Y283464D03*
D10*
X228346Y283464D03*
D10*
X236220Y283464D03*
D10*
X244094Y283464D03*
D10*
X251968Y283464D03*
D10*
X259842Y283464D03*
D10*
X267716Y283464D03*
D10*
X275590Y283464D03*
D10*
X283464Y283464D03*
D10*
X291338Y283464D03*
D10*
X299212Y283464D03*
D10*
X307086Y283464D03*
D10*
X314960Y283464D03*
D10*
X322834Y283464D03*
D10*
X330708Y283464D03*
D10*
X338582Y283464D03*
D10*
X346456Y283464D03*
D10*
X354330Y283464D03*
D10*
X362204Y283464D03*
D10*
X370078Y283464D03*
D10*
X377952Y283464D03*
D10*
X385826Y283464D03*
D10*
X393700Y283464D03*
D10*
X401574Y283464D03*
D10*
X409448Y283464D03*
D10*
X417322Y283464D03*
D10*
X425196Y283464D03*
D10*
X39370Y291338D03*
D10*
X47244Y291338D03*
D10*
X55118Y291338D03*
D10*
X62992Y291338D03*
D10*
X70866Y291338D03*
D10*
X78740Y291338D03*
D10*
X86614Y291338D03*
D10*
X94488Y291338D03*
D10*
X102362Y291338D03*
D10*
X110236Y291338D03*
D10*
X118110Y291338D03*
D10*
X125984Y291338D03*
D10*
X133858Y291338D03*
D10*
X141732Y291338D03*
D10*
X149606Y291338D03*
D10*
X157480Y291338D03*
D10*
X165354Y291338D03*
D10*
X173228Y291338D03*
D10*
X181102Y291338D03*
D10*
X188976Y291338D03*
D10*
X196850Y291338D03*
D10*
X204724Y291338D03*
D10*
X212598Y291338D03*
D10*
X220472Y291338D03*
D10*
X228346Y291338D03*
D10*
X236220Y291338D03*
D10*
X244094Y291338D03*
D10*
X251968Y291338D03*
D10*
X259842Y291338D03*
D10*
X267716Y291338D03*
D10*
X275590Y291338D03*
D10*
X283464Y291338D03*
D10*
X291338Y291338D03*
D10*
X299212Y291338D03*
D10*
X307086Y291338D03*
D10*
X314960Y291338D03*
D10*
X322834Y291338D03*
D10*
X330708Y291338D03*
D10*
X338582Y291338D03*
D10*
X346456Y291338D03*
D10*
X354330Y291338D03*
D10*
X362204Y291338D03*
D10*
X370078Y291338D03*
D10*
X377952Y291338D03*
D10*
X385826Y291338D03*
D10*
X393700Y291338D03*
D10*
X401574Y291338D03*
D10*
X409448Y291338D03*
D10*
X417322Y291338D03*
D10*
X425196Y291338D03*
D10*
X39370Y299212D03*
D10*
X47244Y299212D03*
D10*
X55118Y299212D03*
D10*
X62992Y299212D03*
D10*
X70866Y299212D03*
D10*
X78740Y299212D03*
D10*
X86614Y299212D03*
D10*
X94488Y299212D03*
D10*
X102362Y299212D03*
D10*
X110236Y299212D03*
D10*
X118110Y299212D03*
D10*
X125984Y299212D03*
D10*
X133858Y299212D03*
D10*
X141732Y299212D03*
D10*
X149606Y299212D03*
D10*
X157480Y299212D03*
D10*
X165354Y299212D03*
D10*
X173228Y299212D03*
D10*
X181102Y299212D03*
D10*
X188976Y299212D03*
D10*
X196850Y299212D03*
D10*
X204724Y299212D03*
D10*
X212598Y299212D03*
D10*
X220472Y299212D03*
D10*
X228346Y299212D03*
D10*
X236220Y299212D03*
D10*
X244094Y299212D03*
D10*
X251968Y299212D03*
D10*
X259842Y299212D03*
D10*
X267716Y299212D03*
D10*
X275590Y299212D03*
D10*
X283464Y299212D03*
D10*
X291338Y299212D03*
D10*
X299212Y299212D03*
D10*
X307086Y299212D03*
D10*
X314960Y299212D03*
D10*
X322834Y299212D03*
D10*
X330708Y299212D03*
D10*
X338582Y299212D03*
D10*
X346456Y299212D03*
D10*
X354330Y299212D03*
D10*
X362204Y299212D03*
D10*
X370078Y299212D03*
D10*
X377952Y299212D03*
D10*
X385826Y299212D03*
D10*
X393700Y299212D03*
D10*
X401574Y299212D03*
D10*
X409448Y299212D03*
D10*
X417322Y299212D03*
D10*
X425196Y299212D03*
D10*
X39370Y307086D03*
D10*
X47244Y307086D03*
D10*
X55118Y307086D03*
D10*
X62992Y307086D03*
D10*
X70866Y307086D03*
D10*
X78740Y307086D03*
D10*
X86614Y307086D03*
D10*
X94488Y307086D03*
D10*
X102362Y307086D03*
D10*
X110236Y307086D03*
D10*
X118110Y307086D03*
D10*
X125984Y307086D03*
D10*
X133858Y307086D03*
D10*
X141732Y307086D03*
D10*
X149606Y307086D03*
D10*
X157480Y307086D03*
D10*
X165354Y307086D03*
D10*
X173228Y307086D03*
D10*
X181102Y307086D03*
D10*
X188976Y307086D03*
D10*
X196850Y307086D03*
D10*
X204724Y307086D03*
D10*
X212598Y307086D03*
D10*
X220472Y307086D03*
D10*
X228346Y307086D03*
D10*
X236220Y307086D03*
D10*
X244094Y307086D03*
D10*
X251968Y307086D03*
D10*
X259842Y307086D03*
D10*
X267716Y307086D03*
D10*
X275590Y307086D03*
D10*
X283464Y307086D03*
D10*
X291338Y307086D03*
D10*
X299212Y307086D03*
D10*
X307086Y307086D03*
D10*
X314960Y307086D03*
D10*
X322834Y307086D03*
D10*
X330708Y307086D03*
D10*
X338582Y307086D03*
D10*
X346456Y307086D03*
D10*
X354330Y307086D03*
D10*
X362204Y307086D03*
D10*
X370078Y307086D03*
D10*
X377952Y307086D03*
D10*
X385826Y307086D03*
D10*
X393700Y307086D03*
D10*
X401574Y307086D03*
D10*
X409448Y307086D03*
D10*
X417322Y307086D03*
D10*
X425196Y307086D03*
D10*
X39370Y314960D03*
D10*
X47244Y314960D03*
D10*
X55118Y314960D03*
D10*
X62992Y314960D03*
D10*
X70866Y314960D03*
D10*
X78740Y314960D03*
D10*
X86614Y314960D03*
D10*
X94488Y314960D03*
D10*
X102362Y314960D03*
D10*
X110236Y314960D03*
D10*
X118110Y314960D03*
D10*
X125984Y314960D03*
D10*
X133858Y314960D03*
D10*
X141732Y314960D03*
D10*
X149606Y314960D03*
D10*
X157480Y314960D03*
D10*
X165354Y314960D03*
D10*
X173228Y314960D03*
D10*
X181102Y314960D03*
D10*
X188976Y314960D03*
D10*
X196850Y314960D03*
D10*
X204724Y314960D03*
D10*
X212598Y314960D03*
D10*
X220472Y314960D03*
D10*
X228346Y314960D03*
D10*
X236220Y314960D03*
D10*
X244094Y314960D03*
D10*
X251968Y314960D03*
D10*
X259842Y314960D03*
D10*
X267716Y314960D03*
D10*
X275590Y314960D03*
D10*
X283464Y314960D03*
D10*
X291338Y314960D03*
D10*
X299212Y314960D03*
D10*
X307086Y314960D03*
D10*
X314960Y314960D03*
D10*
X322834Y314960D03*
D10*
X330708Y314960D03*
D10*
X338582Y314960D03*
D10*
X346456Y314960D03*
D10*
X354330Y314960D03*
D10*
X362204Y314960D03*
D10*
X370078Y314960D03*
D10*
X377952Y314960D03*
D10*
X385826Y314960D03*
D10*
X393700Y314960D03*
D10*
X401574Y314960D03*
D10*
X409448Y314960D03*
D10*
X417322Y314960D03*
D10*
X425196Y314960D03*
D10*
X39370Y322834D03*
D10*
X47244Y322834D03*
D10*
X55118Y322834D03*
D10*
X62992Y322834D03*
D10*
X70866Y322834D03*
D10*
X78740Y322834D03*
D10*
X86614Y322834D03*
D10*
X94488Y322834D03*
D10*
X102362Y322834D03*
D10*
X110236Y322834D03*
D10*
X118110Y322834D03*
D10*
X125984Y322834D03*
D10*
X133858Y322834D03*
D10*
X141732Y322834D03*
D10*
X149606Y322834D03*
D10*
X157480Y322834D03*
D10*
X165354Y322834D03*
D10*
X173228Y322834D03*
D10*
X181102Y322834D03*
D10*
X188976Y322834D03*
D10*
X196850Y322834D03*
D10*
X204724Y322834D03*
D10*
X212598Y322834D03*
D10*
X220472Y322834D03*
D10*
X228346Y322834D03*
D10*
X236220Y322834D03*
D10*
X244094Y322834D03*
D10*
X251968Y322834D03*
D10*
X259842Y322834D03*
D10*
X267716Y322834D03*
D10*
X275590Y322834D03*
D10*
X283464Y322834D03*
D10*
X291338Y322834D03*
D10*
X299212Y322834D03*
D10*
X307086Y322834D03*
D10*
X314960Y322834D03*
D10*
X322834Y322834D03*
D10*
X330708Y322834D03*
D10*
X338582Y322834D03*
D10*
X346456Y322834D03*
D10*
X354330Y322834D03*
D10*
X362204Y322834D03*
D10*
X370078Y322834D03*
D10*
X377952Y322834D03*
D10*
X385826Y322834D03*
D10*
X393700Y322834D03*
D10*
X401574Y322834D03*
D10*
X409448Y322834D03*
D10*
X417322Y322834D03*
D10*
X425196Y322834D03*
D10*
X39370Y330708D03*
D10*
X47244Y330708D03*
D10*
X55118Y330708D03*
D10*
X62992Y330708D03*
D10*
X70866Y330708D03*
D10*
X78740Y330708D03*
D10*
X86614Y330708D03*
D10*
X94488Y330708D03*
D10*
X102362Y330708D03*
D10*
X110236Y330708D03*
D10*
X118110Y330708D03*
D10*
X125984Y330708D03*
D10*
X133858Y330708D03*
D10*
X141732Y330708D03*
D10*
X149606Y330708D03*
D10*
X157480Y330708D03*
D10*
X165354Y330708D03*
D10*
X173228Y330708D03*
D10*
X181102Y330708D03*
D10*
X188976Y330708D03*
D10*
X196850Y330708D03*
D10*
X204724Y330708D03*
D10*
X212598Y330708D03*
D10*
X220472Y330708D03*
D10*
X228346Y330708D03*
D10*
X236220Y330708D03*
D10*
X244094Y330708D03*
D10*
X251968Y330708D03*
D10*
X259842Y330708D03*
D10*
X267716Y330708D03*
D10*
X275590Y330708D03*
D10*
X283464Y330708D03*
D10*
X291338Y330708D03*
D10*
X299212Y330708D03*
D10*
X307086Y330708D03*
D10*
X314960Y330708D03*
D10*
X322834Y330708D03*
D10*
X330708Y330708D03*
D10*
X338582Y330708D03*
D10*
X346456Y330708D03*
D10*
X354330Y330708D03*
D10*
X362204Y330708D03*
D10*
X370078Y330708D03*
D10*
X377952Y330708D03*
D10*
X385826Y330708D03*
D10*
X393700Y330708D03*
D10*
X401574Y330708D03*
D10*
X409448Y330708D03*
D10*
X417322Y330708D03*
D10*
X425196Y330708D03*
D10*
X39370Y338582D03*
D10*
X47244Y338582D03*
D10*
X55118Y338582D03*
D10*
X62992Y338582D03*
D10*
X70866Y338582D03*
D10*
X78740Y338582D03*
D10*
X86614Y338582D03*
D10*
X94488Y338582D03*
D10*
X102362Y338582D03*
D10*
X110236Y338582D03*
D10*
X118110Y338582D03*
D10*
X125984Y338582D03*
D10*
X133858Y338582D03*
D10*
X141732Y338582D03*
D10*
X149606Y338582D03*
D10*
X157480Y338582D03*
D10*
X165354Y338582D03*
D10*
X173228Y338582D03*
D10*
X181102Y338582D03*
D10*
X188976Y338582D03*
D10*
X196850Y338582D03*
D10*
X204724Y338582D03*
D10*
X212598Y338582D03*
D10*
X220472Y338582D03*
D10*
X228346Y338582D03*
D10*
X236220Y338582D03*
D10*
X244094Y338582D03*
D10*
X251968Y338582D03*
D10*
X259842Y338582D03*
D10*
X267716Y338582D03*
D10*
X275590Y338582D03*
D10*
X283464Y338582D03*
D10*
X291338Y338582D03*
D10*
X299212Y338582D03*
D10*
X307086Y338582D03*
D10*
X314960Y338582D03*
D10*
X322834Y338582D03*
D10*
X330708Y338582D03*
D10*
X338582Y338582D03*
D10*
X346456Y338582D03*
D10*
X354330Y338582D03*
D10*
X362204Y338582D03*
D10*
X370078Y338582D03*
D10*
X377952Y338582D03*
D10*
X385826Y338582D03*
D10*
X393700Y338582D03*
D10*
X401574Y338582D03*
D10*
X409448Y338582D03*
D10*
X417322Y338582D03*
D10*
X425196Y338582D03*
D10*
X39370Y346456D03*
D10*
X47244Y346456D03*
D10*
X55118Y346456D03*
D10*
X62992Y346456D03*
D10*
X70866Y346456D03*
D10*
X78740Y346456D03*
D10*
X86614Y346456D03*
D10*
X94488Y346456D03*
D10*
X102362Y346456D03*
D10*
X110236Y346456D03*
D10*
X118110Y346456D03*
D10*
X125984Y346456D03*
D10*
X133858Y346456D03*
D10*
X141732Y346456D03*
D10*
X149606Y346456D03*
D10*
X157480Y346456D03*
D10*
X165354Y346456D03*
D10*
X173228Y346456D03*
D10*
X181102Y346456D03*
D10*
X188976Y346456D03*
D10*
X196850Y346456D03*
D10*
X204724Y346456D03*
D10*
X212598Y346456D03*
D10*
X220472Y346456D03*
D10*
X228346Y346456D03*
D10*
X236220Y346456D03*
D10*
X244094Y346456D03*
D10*
X251968Y346456D03*
D10*
X259842Y346456D03*
D10*
X267716Y346456D03*
D10*
X275590Y346456D03*
D10*
X283464Y346456D03*
D10*
X291338Y346456D03*
D10*
X299212Y346456D03*
D10*
X307086Y346456D03*
D10*
X314960Y346456D03*
D10*
X322834Y346456D03*
D10*
X330708Y346456D03*
D10*
X338582Y346456D03*
D10*
X346456Y346456D03*
D10*
X354330Y346456D03*
D10*
X362204Y346456D03*
D10*
X370078Y346456D03*
D10*
X377952Y346456D03*
D10*
X385826Y346456D03*
D10*
X393700Y346456D03*
D10*
X401574Y346456D03*
D10*
X409448Y346456D03*
D10*
X417322Y346456D03*
D10*
X425196Y346456D03*
D10*
X39370Y354330D03*
D10*
X47244Y354330D03*
D10*
X55118Y354330D03*
D10*
X62992Y354330D03*
D10*
X70866Y354330D03*
D10*
X78740Y354330D03*
D10*
X86614Y354330D03*
D10*
X94488Y354330D03*
D10*
X102362Y354330D03*
D10*
X110236Y354330D03*
D10*
X118110Y354330D03*
D10*
X125984Y354330D03*
D10*
X133858Y354330D03*
D10*
X141732Y354330D03*
D10*
X149606Y354330D03*
D10*
X157480Y354330D03*
D10*
X165354Y354330D03*
D10*
X173228Y354330D03*
D10*
X181102Y354330D03*
D10*
X188976Y354330D03*
D10*
X196850Y354330D03*
D10*
X204724Y354330D03*
D10*
X212598Y354330D03*
D10*
X220472Y354330D03*
D10*
X228346Y354330D03*
D10*
X236220Y354330D03*
D10*
X244094Y354330D03*
D10*
X251968Y354330D03*
D10*
X259842Y354330D03*
D10*
X267716Y354330D03*
D10*
X275590Y354330D03*
D10*
X283464Y354330D03*
D10*
X291338Y354330D03*
D10*
X299212Y354330D03*
D10*
X307086Y354330D03*
D10*
X314960Y354330D03*
D10*
X322834Y354330D03*
D10*
X330708Y354330D03*
D10*
X338582Y354330D03*
D10*
X346456Y354330D03*
D10*
X354330Y354330D03*
D10*
X362204Y354330D03*
D10*
X370078Y354330D03*
D10*
X377952Y354330D03*
D10*
X385826Y354330D03*
D10*
X393700Y354330D03*
D10*
X401574Y354330D03*
D10*
X409448Y354330D03*
D10*
X417322Y354330D03*
D10*
X425196Y354330D03*
D10*
X39370Y362204D03*
D10*
X47244Y362204D03*
D10*
X55118Y362204D03*
D10*
X62992Y362204D03*
D10*
X70866Y362204D03*
D10*
X78740Y362204D03*
D10*
X86614Y362204D03*
D10*
X94488Y362204D03*
D10*
X102362Y362204D03*
D10*
X110236Y362204D03*
D10*
X118110Y362204D03*
D10*
X125984Y362204D03*
D10*
X133858Y362204D03*
D10*
X141732Y362204D03*
D10*
X149606Y362204D03*
D10*
X157480Y362204D03*
D10*
X165354Y362204D03*
D10*
X173228Y362204D03*
D10*
X181102Y362204D03*
D10*
X188976Y362204D03*
D10*
X196850Y362204D03*
D10*
X204724Y362204D03*
D10*
X212598Y362204D03*
D10*
X220472Y362204D03*
D10*
X228346Y362204D03*
D10*
X236220Y362204D03*
D10*
X244094Y362204D03*
D10*
X251968Y362204D03*
D10*
X259842Y362204D03*
D10*
X267716Y362204D03*
D10*
X275590Y362204D03*
D10*
X283464Y362204D03*
D10*
X291338Y362204D03*
D10*
X299212Y362204D03*
D10*
X307086Y362204D03*
D10*
X314960Y362204D03*
D10*
X322834Y362204D03*
D10*
X330708Y362204D03*
D10*
X338582Y362204D03*
D10*
X346456Y362204D03*
D10*
X354330Y362204D03*
D10*
X362204Y362204D03*
D10*
X370078Y362204D03*
D10*
X377952Y362204D03*
D10*
X385826Y362204D03*
D10*
X393700Y362204D03*
D10*
X401574Y362204D03*
D10*
X409448Y362204D03*
D10*
X417322Y362204D03*
D10*
X425196Y362204D03*
D10*
X39370Y370078D03*
D10*
X47244Y370078D03*
D10*
X55118Y370078D03*
D10*
X62992Y370078D03*
D10*
X70866Y370078D03*
D10*
X78740Y370078D03*
D10*
X86614Y370078D03*
D10*
X94488Y370078D03*
D10*
X102362Y370078D03*
D10*
X110236Y370078D03*
D10*
X118110Y370078D03*
D10*
X125984Y370078D03*
D10*
X133858Y370078D03*
D10*
X141732Y370078D03*
D10*
X149606Y370078D03*
D10*
X157480Y370078D03*
D10*
X165354Y370078D03*
D10*
X173228Y370078D03*
D10*
X181102Y370078D03*
D10*
X188976Y370078D03*
D10*
X196850Y370078D03*
D10*
X204724Y370078D03*
D10*
X212598Y370078D03*
D10*
X220472Y370078D03*
D10*
X228346Y370078D03*
D10*
X236220Y370078D03*
D10*
X244094Y370078D03*
D10*
X251968Y370078D03*
D10*
X259842Y370078D03*
D10*
X267716Y370078D03*
M02*
