G04 Layer: Internal Layer 24*
%MOIN*%
%FSLAX25Y25*%
%LPD*%
%ADD10C,0.0080*%
%ADD11C,0.0250*%
%ADD12C,0.0500*%
%ADD13C,0.0100*%
G01*
G74*
D10*
D13*
X0Y0D02*
X420000Y0D01*
X420000Y437598D01*
X0Y437598D01*
X0Y0D01*
D10*
X4200Y0D02*
X4200Y437598D01*
X8400Y0D02*
X8400Y437598D01*
X12600Y0D02*
X12600Y437598D01*
X16800Y0D02*
X16800Y437598D01*
X21000Y0D02*
X21000Y437598D01*
X25200Y0D02*
X25200Y437598D01*
X29400Y0D02*
X29400Y437598D01*
X33600Y0D02*
X33600Y437598D01*
X37800Y0D02*
X37800Y437598D01*
X42000Y0D02*
X42000Y437598D01*
X46200Y0D02*
X46200Y437598D01*
X50400Y0D02*
X50400Y437598D01*
X54600Y0D02*
X54600Y437598D01*
X58800Y0D02*
X58800Y437598D01*
X63000Y0D02*
X63000Y437598D01*
X67200Y0D02*
X67200Y437598D01*
X71400Y0D02*
X71400Y437598D01*
X75600Y0D02*
X75600Y437598D01*
X79800Y0D02*
X79800Y437598D01*
X84000Y0D02*
X84000Y437598D01*
X88200Y0D02*
X88200Y437598D01*
X92400Y0D02*
X92400Y437598D01*
X96600Y0D02*
X96600Y437598D01*
X100800Y0D02*
X100800Y437598D01*
X105000Y0D02*
X105000Y437598D01*
X109200Y0D02*
X109200Y437598D01*
X113400Y0D02*
X113400Y437598D01*
X117600Y0D02*
X117600Y437598D01*
X121800Y0D02*
X121800Y437598D01*
X126000Y0D02*
X126000Y437598D01*
X130200Y0D02*
X130200Y437598D01*
X134400Y0D02*
X134400Y437598D01*
X138600Y0D02*
X138600Y437598D01*
X142800Y0D02*
X142800Y437598D01*
X147000Y0D02*
X147000Y437598D01*
X151200Y0D02*
X151200Y437598D01*
X155400Y0D02*
X155400Y437598D01*
X159600Y0D02*
X159600Y437598D01*
X163800Y0D02*
X163800Y437598D01*
X168000Y0D02*
X168000Y437598D01*
X172200Y0D02*
X172200Y437598D01*
X176400Y0D02*
X176400Y437598D01*
X180600Y0D02*
X180600Y437598D01*
X184800Y0D02*
X184800Y437598D01*
X189000Y0D02*
X189000Y437598D01*
X193200Y0D02*
X193200Y437598D01*
X197400Y0D02*
X197400Y437598D01*
X201600Y0D02*
X201600Y437598D01*
X205800Y0D02*
X205800Y437598D01*
X210000Y0D02*
X210000Y437598D01*
X214200Y0D02*
X214200Y437598D01*
X218400Y0D02*
X218400Y437598D01*
X222600Y0D02*
X222600Y437598D01*
X226800Y0D02*
X226800Y437598D01*
X231000Y0D02*
X231000Y437598D01*
X235200Y0D02*
X235200Y437598D01*
X239400Y0D02*
X239400Y437598D01*
X243600Y0D02*
X243600Y437598D01*
X247800Y0D02*
X247800Y437598D01*
X252000Y0D02*
X252000Y437598D01*
X256200Y0D02*
X256200Y437598D01*
X260400Y0D02*
X260400Y437598D01*
X264600Y0D02*
X264600Y437598D01*
X268800Y0D02*
X268800Y437598D01*
X273000Y0D02*
X273000Y437598D01*
X277200Y0D02*
X277200Y437598D01*
X281400Y0D02*
X281400Y437598D01*
X285600Y0D02*
X285600Y437598D01*
X289800Y0D02*
X289800Y437598D01*
X294000Y0D02*
X294000Y437598D01*
X298200Y0D02*
X298200Y437598D01*
X302400Y0D02*
X302400Y437598D01*
X306600Y0D02*
X306600Y437598D01*
X310800Y0D02*
X310800Y437598D01*
X315000Y0D02*
X315000Y437598D01*
X319200Y0D02*
X319200Y437598D01*
X323400Y0D02*
X323400Y437598D01*
X327600Y0D02*
X327600Y437598D01*
X331800Y0D02*
X331800Y437598D01*
X336000Y0D02*
X336000Y437598D01*
X340200Y0D02*
X340200Y437598D01*
X344400Y0D02*
X344400Y437598D01*
X348600Y0D02*
X348600Y437598D01*
X352800Y0D02*
X352800Y437598D01*
X357000Y0D02*
X357000Y437598D01*
X361200Y0D02*
X361200Y437598D01*
X365400Y0D02*
X365400Y437598D01*
X369600Y0D02*
X369600Y437598D01*
X373800Y0D02*
X373800Y437598D01*
X378000Y0D02*
X378000Y437598D01*
X382200Y0D02*
X382200Y437598D01*
X386400Y0D02*
X386400Y437598D01*
X390600Y0D02*
X390600Y437598D01*
X394800Y0D02*
X394800Y437598D01*
X399000Y0D02*
X399000Y437598D01*
X403200Y0D02*
X403200Y437598D01*
X407400Y0D02*
X407400Y437598D01*
X411600Y0D02*
X411600Y437598D01*
X415800Y0D02*
X415800Y437598D01*
M02*
