M48
; Plated Through-Holes (PTH)
FMAT,2
INCH,TZ
T01C0.0118
T02C0.1250
%
G90
G05
T01
X0008400Y0010939
X0008400Y0021879
X0008400Y0032819
X0008400Y0043759
X0008400Y0054699
X0008400Y0065639
X0008400Y0076579
X0008400Y0087519
X0008400Y0098459
X0008400Y0109399
X0008400Y0120339
X0008400Y0131279
X0008400Y0142219
X0008400Y0153159
X0008400Y0164099
X0008400Y0175039
X0008400Y0185979
X0008400Y0196919
X0008400Y0207859
X0008400Y0218799
X0008400Y0229739
X0008400Y0240679
X0008400Y0251619
X0008400Y0262559
X0008400Y0273499
X0008400Y0284438
X0008400Y0295378
X0008400Y0306318
X0008400Y0317258
X0008400Y0328198
X0008400Y0339138
X0008400Y0350078
X0008400Y0361018
X0008400Y0371958
X0008400Y0382898
X0008400Y0393838
X0008400Y0404778
X0008400Y0415718
X0008400Y0426658
X0016800Y0010939
X0016800Y0021879
X0016800Y0032819
X0016800Y0043759
X0016800Y0054699
X0016800Y0065639
X0016800Y0076579
X0016800Y0087519
X0016800Y0098459
X0016800Y0109399
X0016800Y0120339
X0016800Y0131279
X0016800Y0142219
X0016800Y0153159
X0016800Y0164099
X0016800Y0175039
X0016800Y0185979
X0016800Y0196919
X0016800Y0207859
X0016800Y0218799
X0016800Y0229739
X0016800Y0240679
X0016800Y0251619
X0016800Y0262559
X0016800Y0273499
X0016800Y0284438
X0016800Y0295378
X0016800Y0306318
X0016800Y0317258
X0016800Y0328198
X0016800Y0339138
X0016800Y0350078
X0016800Y0361018
X0016800Y0371958
X0016800Y0382898
X0016800Y0393838
X0016800Y0404778
X0016800Y0415718
X0016800Y0426658
X0025200Y0010939
X0025200Y0021879
X0025200Y0032819
X0025200Y0043759
X0025200Y0054699
X0025200Y0065639
X0025200Y0076579
X0025200Y0087519
X0025200Y0098459
X0025200Y0109399
X0025200Y0120339
X0025200Y0131279
X0025200Y0142219
X0025200Y0153159
X0025200Y0164099
X0025200Y0175039
X0025200Y0185979
X0025200Y0196919
X0025200Y0207859
X0025200Y0218799
X0025200Y0229739
X0025200Y0240679
X0025200Y0251619
X0025200Y0262559
X0025200Y0273499
X0025200Y0284438
X0025200Y0295378
X0025200Y0306318
X0025200Y0317258
X0025200Y0328198
X0025200Y0339138
X0025200Y0350078
X0025200Y0361018
X0025200Y0371958
X0025200Y0382898
X0025200Y0393838
X0025200Y0404778
X0025200Y0415718
X0025200Y0426658
X0033600Y0010939
X0033600Y0021879
X0033600Y0032819
X0033600Y0043759
X0033600Y0054699
X0033600Y0065639
X0033600Y0076579
X0033600Y0087519
X0033600Y0098459
X0033600Y0109399
X0033600Y0120339
X0033600Y0131279
X0033600Y0142219
X0033600Y0153159
X0033600Y0164099
X0033600Y0175039
X0033600Y0185979
X0033600Y0196919
X0033600Y0207859
X0033600Y0218799
X0033600Y0229739
X0033600Y0240679
X0033600Y0251619
X0033600Y0262559
X0033600Y0273499
X0033600Y0284438
X0033600Y0295378
X0033600Y0306318
X0033600Y0317258
X0033600Y0328198
X0033600Y0339138
X0033600Y0350078
X0033600Y0361018
X0033600Y0371958
X0033600Y0382898
X0033600Y0393838
X0033600Y0404778
X0033600Y0415718
X0033600Y0426658
X0042000Y0010939
X0042000Y0021879
X0042000Y0032819
X0042000Y0043759
X0042000Y0054699
X0042000Y0065639
X0042000Y0076579
X0042000Y0087519
X0042000Y0098459
X0042000Y0109399
X0042000Y0120339
X0042000Y0131279
X0042000Y0142219
X0042000Y0153159
X0042000Y0164099
X0042000Y0175039
X0042000Y0185979
X0042000Y0196919
X0042000Y0207859
X0042000Y0218799
X0042000Y0229739
X0042000Y0240679
X0042000Y0251619
X0042000Y0262559
X0042000Y0273499
X0042000Y0284438
X0042000Y0295378
X0042000Y0306318
X0042000Y0317258
X0042000Y0328198
X0042000Y0339138
X0042000Y0350078
X0042000Y0361018
X0042000Y0371958
X0042000Y0382898
X0042000Y0393838
X0042000Y0404778
X0042000Y0415718
X0042000Y0426658
X0050400Y0010939
X0050400Y0021879
X0050400Y0032819
X0050400Y0043759
X0050400Y0054699
X0050400Y0065639
X0050400Y0076579
X0050400Y0087519
X0050400Y0098459
X0050400Y0109399
X0050400Y0120339
X0050400Y0131279
X0050400Y0142219
X0050400Y0153159
X0050400Y0164099
X0050400Y0175039
X0050400Y0185979
X0050400Y0196919
X0050400Y0207859
X0050400Y0218799
X0050400Y0229739
X0050400Y0240679
X0050400Y0251619
X0050400Y0262559
X0050400Y0273499
X0050400Y0284438
X0050400Y0295378
X0050400Y0306318
X0050400Y0317258
X0050400Y0328198
X0050400Y0339138
X0050400Y0350078
X0050400Y0361018
X0050400Y0371958
X0050400Y0382898
X0050400Y0393838
X0050400Y0404778
X0050400Y0415718
X0050400Y0426658
X0058800Y0010939
X0058800Y0021879
X0058800Y0032819
X0058800Y0043759
X0058800Y0054699
X0058800Y0065639
X0058800Y0076579
X0058800Y0087519
X0058800Y0098459
X0058800Y0109399
X0058800Y0120339
X0058800Y0131279
X0058800Y0142219
X0058800Y0153159
X0058800Y0164099
X0058800Y0175039
X0058800Y0185979
X0058800Y0196919
X0058800Y0207859
X0058800Y0218799
X0058800Y0229739
X0058800Y0240679
X0058800Y0251619
X0058800Y0262559
X0058800Y0273499
X0058800Y0284438
X0058800Y0295378
X0058800Y0306318
X0058800Y0317258
X0058800Y0328198
X0058800Y0339138
X0058800Y0350078
X0058800Y0361018
X0058800Y0371958
X0058800Y0382898
X0058800Y0393838
X0058800Y0404778
X0058800Y0415718
X0058800Y0426658
X0067200Y0010939
X0067200Y0021879
X0067200Y0032819
X0067200Y0043759
X0067200Y0054699
X0067200Y0065639
X0067200Y0076579
X0067200Y0087519
X0067200Y0098459
X0067200Y0109399
X0067200Y0120339
X0067200Y0131279
X0067200Y0142219
X0067200Y0153159
X0067200Y0164099
X0067200Y0175039
X0067200Y0185979
X0067200Y0196919
X0067200Y0207859
X0067200Y0218799
X0067200Y0229739
X0067200Y0240679
X0067200Y0251619
X0067200Y0262559
X0067200Y0273499
X0067200Y0284438
X0067200Y0295378
X0067200Y0306318
X0067200Y0317258
X0067200Y0328198
X0067200Y0339138
X0067200Y0350078
X0067200Y0361018
X0067200Y0371958
X0067200Y0382898
X0067200Y0393838
X0067200Y0404778
X0067200Y0415718
X0067200Y0426658
X0075600Y0010939
X0075600Y0021879
X0075600Y0032819
X0075600Y0043759
X0075600Y0054699
X0075600Y0065639
X0075600Y0076579
X0075600Y0087519
X0075600Y0098459
X0075600Y0109399
X0075600Y0120339
X0075600Y0131279
X0075600Y0142219
X0075600Y0153159
X0075600Y0164099
X0075600Y0175039
X0075600Y0185979
X0075600Y0196919
X0075600Y0207859
X0075600Y0218799
X0075600Y0229739
X0075600Y0240679
X0075600Y0251619
X0075600Y0262559
X0075600Y0273499
X0075600Y0284438
X0075600Y0295378
X0075600Y0306318
X0075600Y0317258
X0075600Y0328198
X0075600Y0339138
X0075600Y0350078
X0075600Y0361018
X0075600Y0371958
X0075600Y0382898
X0075600Y0393838
X0075600Y0404778
X0075600Y0415718
X0075600Y0426658
X0084000Y0010939
X0084000Y0021879
X0084000Y0032819
X0084000Y0043759
X0084000Y0054699
X0084000Y0065639
X0084000Y0076579
X0084000Y0087519
X0084000Y0098459
X0084000Y0109399
X0084000Y0120339
X0084000Y0131279
X0084000Y0142219
X0084000Y0153159
X0084000Y0164099
X0084000Y0175039
X0084000Y0185979
X0084000Y0196919
X0084000Y0207859
X0084000Y0218799
X0084000Y0229739
X0084000Y0240679
X0084000Y0251619
X0084000Y0262559
X0084000Y0273499
X0084000Y0284438
X0084000Y0295378
X0084000Y0306318
X0084000Y0317258
X0084000Y0328198
X0084000Y0339138
X0084000Y0350078
X0084000Y0361018
X0084000Y0371958
X0084000Y0382898
X0084000Y0393838
X0084000Y0404778
X0084000Y0415718
X0084000Y0426658
X0092400Y0010939
X0092400Y0021879
X0092400Y0032819
X0092400Y0043759
X0092400Y0054699
X0092400Y0065639
X0092400Y0076579
X0092400Y0087519
X0092400Y0098459
X0092400Y0109399
X0092400Y0120339
X0092400Y0131279
X0092400Y0142219
X0092400Y0153159
X0092400Y0164099
X0092400Y0175039
X0092400Y0185979
X0092400Y0196919
X0092400Y0207859
X0092400Y0218799
X0092400Y0229739
X0092400Y0240679
X0092400Y0251619
X0092400Y0262559
X0092400Y0273499
X0092400Y0284438
X0092400Y0295378
X0092400Y0306318
X0092400Y0317258
X0092400Y0328198
X0092400Y0339138
X0092400Y0350078
X0092400Y0361018
X0092400Y0371958
X0092400Y0382898
X0092400Y0393838
X0092400Y0404778
X0092400Y0415718
X0092400Y0426658
X0100800Y0010939
X0100800Y0021879
X0100800Y0032819
X0100800Y0043759
X0100800Y0054699
X0100800Y0065639
X0100800Y0076579
X0100800Y0087519
X0100800Y0098459
X0100800Y0109399
X0100800Y0120339
X0100800Y0131279
X0100800Y0142219
X0100800Y0153159
X0100800Y0164099
X0100800Y0175039
X0100800Y0185979
X0100800Y0196919
X0100800Y0207859
X0100800Y0218799
X0100800Y0229739
X0100800Y0240679
X0100800Y0251619
X0100800Y0262559
X0100800Y0273499
X0100800Y0284438
X0100800Y0295378
X0100800Y0306318
X0100800Y0317258
X0100800Y0328198
X0100800Y0339138
X0100800Y0350078
X0100800Y0361018
X0100800Y0371958
X0100800Y0382898
X0100800Y0393838
X0100800Y0404778
X0100800Y0415718
X0100800Y0426658
X0109200Y0010939
X0109200Y0021879
X0109200Y0032819
X0109200Y0043759
X0109200Y0054699
X0109200Y0065639
X0109200Y0076579
X0109200Y0087519
X0109200Y0098459
X0109200Y0109399
X0109200Y0120339
X0109200Y0131279
X0109200Y0142219
X0109200Y0153159
X0109200Y0164099
X0109200Y0175039
X0109200Y0185979
X0109200Y0196919
X0109200Y0207859
X0109200Y0218799
X0109200Y0229739
X0109200Y0240679
X0109200Y0251619
X0109200Y0262559
X0109200Y0273499
X0109200Y0284438
X0109200Y0295378
X0109200Y0306318
X0109200Y0317258
X0109200Y0328198
X0109200Y0339138
X0109200Y0350078
X0109200Y0361018
X0109200Y0371958
X0109200Y0382898
X0109200Y0393838
X0109200Y0404778
X0109200Y0415718
X0109200Y0426658
X0117600Y0010939
X0117600Y0021879
X0117600Y0032819
X0117600Y0043759
X0117600Y0054699
X0117600Y0065639
X0117600Y0076579
X0117600Y0087519
X0117600Y0098459
X0117600Y0109399
X0117600Y0120339
X0117600Y0131279
X0117600Y0142219
X0117600Y0153159
X0117600Y0164099
X0117600Y0175039
X0117600Y0185979
X0117600Y0196919
X0117600Y0207859
X0117600Y0218799
X0117600Y0229739
X0117600Y0240679
X0117600Y0251619
X0117600Y0262559
X0117600Y0273499
X0117600Y0284438
X0117600Y0295378
X0117600Y0306318
X0117600Y0317258
X0117600Y0328198
X0117600Y0339138
X0117600Y0350078
X0117600Y0361018
X0117600Y0371958
X0117600Y0382898
X0117600Y0393838
X0117600Y0404778
X0117600Y0415718
X0117600Y0426658
X0126000Y0010939
X0126000Y0021879
X0126000Y0032819
X0126000Y0043759
X0126000Y0054699
X0126000Y0065639
X0126000Y0076579
X0126000Y0087519
X0126000Y0098459
X0126000Y0109399
X0126000Y0120339
X0126000Y0131279
X0126000Y0142219
X0126000Y0153159
X0126000Y0164099
X0126000Y0175039
X0126000Y0185979
X0126000Y0196919
X0126000Y0207859
X0126000Y0218799
X0126000Y0229739
X0126000Y0240679
X0126000Y0251619
X0126000Y0262559
X0126000Y0273499
X0126000Y0284438
X0126000Y0295378
X0126000Y0306318
X0126000Y0317258
X0126000Y0328198
X0126000Y0339138
X0126000Y0350078
X0126000Y0361018
X0126000Y0371958
X0126000Y0382898
X0126000Y0393838
X0126000Y0404778
X0126000Y0415718
X0126000Y0426658
X0134400Y0010939
X0134400Y0021879
X0134400Y0032819
X0134400Y0043759
X0134400Y0054699
X0134400Y0065639
X0134400Y0076579
X0134400Y0087519
X0134400Y0098459
X0134400Y0109399
X0134400Y0120339
X0134400Y0131279
X0134400Y0142219
X0134400Y0153159
X0134400Y0164099
X0134400Y0175039
X0134400Y0185979
X0134400Y0196919
X0134400Y0207859
X0134400Y0218799
X0134400Y0229739
X0134400Y0240679
X0134400Y0251619
X0134400Y0262559
X0134400Y0273499
X0134400Y0284438
X0134400Y0295378
X0134400Y0306318
X0134400Y0317258
X0134400Y0328198
X0134400Y0339138
X0134400Y0350078
X0134400Y0361018
X0134400Y0371958
X0134400Y0382898
X0134400Y0393838
X0134400Y0404778
X0134400Y0415718
X0134400Y0426658
X0142800Y0010939
X0142800Y0021879
X0142800Y0032819
X0142800Y0043759
X0142800Y0054699
X0142800Y0065639
X0142800Y0076579
X0142800Y0087519
X0142800Y0098459
X0142800Y0109399
X0142800Y0120339
X0142800Y0131279
X0142800Y0142219
X0142800Y0153159
X0142800Y0164099
X0142800Y0175039
X0142800Y0185979
X0142800Y0196919
X0142800Y0207859
X0142800Y0218799
X0142800Y0229739
X0142800Y0240679
X0142800Y0251619
X0142800Y0262559
X0142800Y0273499
X0142800Y0284438
X0142800Y0295378
X0142800Y0306318
X0142800Y0317258
X0142800Y0328198
X0142800Y0339138
X0142800Y0350078
X0142800Y0361018
X0142800Y0371958
X0142800Y0382898
X0142800Y0393838
X0142800Y0404778
X0142800Y0415718
X0142800Y0426658
X0151200Y0010939
X0151200Y0021879
X0151200Y0032819
X0151200Y0043759
X0151200Y0054699
X0151200Y0065639
X0151200Y0076579
X0151200Y0087519
X0151200Y0098459
X0151200Y0109399
X0151200Y0120339
X0151200Y0131279
X0151200Y0142219
X0151200Y0153159
X0151200Y0164099
X0151200Y0175039
X0151200Y0185979
X0151200Y0196919
X0151200Y0207859
X0151200Y0218799
X0151200Y0229739
X0151200Y0240679
X0151200Y0251619
X0151200Y0262559
X0151200Y0273499
X0151200Y0284438
X0151200Y0295378
X0151200Y0306318
X0151200Y0317258
X0151200Y0328198
X0151200Y0339138
X0151200Y0350078
X0151200Y0361018
X0151200Y0371958
X0151200Y0382898
X0151200Y0393838
X0151200Y0404778
X0151200Y0415718
X0151200Y0426658
X0159600Y0010939
X0159600Y0021879
X0159600Y0032819
X0159600Y0043759
X0159600Y0054699
X0159600Y0065639
X0159600Y0076579
X0159600Y0087519
X0159600Y0098459
X0159600Y0109399
X0159600Y0120339
X0159600Y0131279
X0159600Y0142219
X0159600Y0153159
X0159600Y0164099
X0159600Y0175039
X0159600Y0185979
X0159600Y0196919
X0159600Y0207859
X0159600Y0218799
X0159600Y0229739
X0159600Y0240679
X0159600Y0251619
X0159600Y0262559
X0159600Y0273499
X0159600Y0284438
X0159600Y0295378
X0159600Y0306318
X0159600Y0317258
X0159600Y0328198
X0159600Y0339138
X0159600Y0350078
X0159600Y0361018
X0159600Y0371958
X0159600Y0382898
X0159600Y0393838
X0159600Y0404778
X0159600Y0415718
X0159600Y0426658
X0168000Y0010939
X0168000Y0021879
X0168000Y0032819
X0168000Y0043759
X0168000Y0054699
X0168000Y0065639
X0168000Y0076579
X0168000Y0087519
X0168000Y0098459
X0168000Y0109399
X0168000Y0120339
X0168000Y0131279
X0168000Y0142219
X0168000Y0153159
X0168000Y0164099
X0168000Y0175039
X0168000Y0185979
X0168000Y0196919
X0168000Y0207859
X0168000Y0218799
X0168000Y0229739
X0168000Y0240679
X0168000Y0251619
X0168000Y0262559
X0168000Y0273499
X0168000Y0284438
X0168000Y0295378
X0168000Y0306318
X0168000Y0317258
X0168000Y0328198
X0168000Y0339138
X0168000Y0350078
X0168000Y0361018
X0168000Y0371958
X0168000Y0382898
X0168000Y0393838
X0168000Y0404778
X0168000Y0415718
X0168000Y0426658
X0176400Y0010939
X0176400Y0021879
X0176400Y0032819
X0176400Y0043759
X0176400Y0054699
X0176400Y0065639
X0176400Y0076579
X0176400Y0087519
X0176400Y0098459
X0176400Y0109399
X0176400Y0120339
X0176400Y0131279
X0176400Y0142219
X0176400Y0153159
X0176400Y0164099
X0176400Y0175039
X0176400Y0185979
X0176400Y0196919
X0176400Y0207859
X0176400Y0218799
X0176400Y0229739
X0176400Y0240679
X0176400Y0251619
X0176400Y0262559
X0176400Y0273499
X0176400Y0284438
X0176400Y0295378
X0176400Y0306318
X0176400Y0317258
X0176400Y0328198
X0176400Y0339138
X0176400Y0350078
X0176400Y0361018
X0176400Y0371958
X0176400Y0382898
X0176400Y0393838
X0176400Y0404778
X0176400Y0415718
X0176400Y0426658
X0184800Y0010939
X0184800Y0021879
X0184800Y0032819
X0184800Y0043759
X0184800Y0054699
X0184800Y0065639
X0184800Y0076579
X0184800Y0087519
X0184800Y0098459
X0184800Y0109399
X0184800Y0120339
X0184800Y0131279
X0184800Y0142219
X0184800Y0153159
X0184800Y0164099
X0184800Y0175039
X0184800Y0185979
X0184800Y0196919
X0184800Y0207859
X0184800Y0218799
X0184800Y0229739
X0184800Y0240679
X0184800Y0251619
X0184800Y0262559
X0184800Y0273499
X0184800Y0284438
X0184800Y0295378
X0184800Y0306318
X0184800Y0317258
X0184800Y0328198
X0184800Y0339138
X0184800Y0350078
X0184800Y0361018
X0184800Y0371958
X0184800Y0382898
X0184800Y0393838
X0184800Y0404778
X0184800Y0415718
X0184800Y0426658
X0193200Y0010939
X0193200Y0021879
X0193200Y0032819
X0193200Y0043759
X0193200Y0054699
X0193200Y0065639
X0193200Y0076579
X0193200Y0087519
X0193200Y0098459
X0193200Y0109399
X0193200Y0120339
X0193200Y0131279
X0193200Y0142219
X0193200Y0153159
X0193200Y0164099
X0193200Y0175039
X0193200Y0185979
X0193200Y0196919
X0193200Y0207859
X0193200Y0218799
X0193200Y0229739
X0193200Y0240679
X0193200Y0251619
X0193200Y0262559
X0193200Y0273499
X0193200Y0284438
X0193200Y0295378
X0193200Y0306318
X0193200Y0317258
X0193200Y0328198
X0193200Y0339138
X0193200Y0350078
X0193200Y0361018
X0193200Y0371958
X0193200Y0382898
X0193200Y0393838
X0193200Y0404778
X0193200Y0415718
X0193200Y0426658
X0201600Y0010939
X0201600Y0021879
X0201600Y0032819
X0201600Y0043759
X0201600Y0054699
X0201600Y0065639
X0201600Y0076579
X0201600Y0087519
X0201600Y0098459
X0201600Y0109399
X0201600Y0120339
X0201600Y0131279
X0201600Y0142219
X0201600Y0153159
X0201600Y0164099
X0201600Y0175039
X0201600Y0185979
X0201600Y0196919
X0201600Y0207859
X0201600Y0218799
X0201600Y0229739
X0201600Y0240679
X0201600Y0251619
X0201600Y0262559
X0201600Y0273499
X0201600Y0284438
X0201600Y0295378
X0201600Y0306318
X0201600Y0317258
X0201600Y0328198
X0201600Y0339138
X0201600Y0350078
X0201600Y0361018
X0201600Y0371958
X0201600Y0382898
X0201600Y0393838
X0201600Y0404778
X0201600Y0415718
X0201600Y0426658
X0210000Y0010939
X0210000Y0021879
X0210000Y0032819
X0210000Y0043759
X0210000Y0054699
X0210000Y0065639
X0210000Y0076579
X0210000Y0087519
X0210000Y0098459
X0210000Y0109399
X0210000Y0120339
X0210000Y0131279
X0210000Y0142219
X0210000Y0153159
X0210000Y0164099
X0210000Y0175039
X0210000Y0185979
X0210000Y0196919
X0210000Y0207859
X0210000Y0218799
X0210000Y0229739
X0210000Y0240679
X0210000Y0251619
X0210000Y0262559
X0210000Y0273499
X0210000Y0284438
X0210000Y0295378
X0210000Y0306318
X0210000Y0317258
X0210000Y0328198
X0210000Y0339138
X0210000Y0350078
X0210000Y0361018
X0210000Y0371958
X0210000Y0382898
X0210000Y0393838
X0210000Y0404778
X0210000Y0415718
X0210000Y0426658
X0218400Y0010939
X0218400Y0021879
X0218400Y0032819
X0218400Y0043759
X0218400Y0054699
X0218400Y0065639
X0218400Y0076579
X0218400Y0087519
X0218400Y0098459
X0218400Y0109399
X0218400Y0120339
X0218400Y0131279
X0218400Y0142219
X0218400Y0153159
X0218400Y0164099
X0218400Y0175039
X0218400Y0185979
X0218400Y0196919
X0218400Y0207859
X0218400Y0218799
X0218400Y0229739
X0218400Y0240679
X0218400Y0251619
X0218400Y0262559
X0218400Y0273499
X0218400Y0284438
X0218400Y0295378
X0218400Y0306318
X0218400Y0317258
X0218400Y0328198
X0218400Y0339138
X0218400Y0350078
X0218400Y0361018
X0218400Y0371958
X0218400Y0382898
X0218400Y0393838
X0218400Y0404778
X0218400Y0415718
X0218400Y0426658
X0226800Y0010939
X0226800Y0021879
X0226800Y0032819
X0226800Y0043759
X0226800Y0054699
X0226800Y0065639
X0226800Y0076579
X0226800Y0087519
X0226800Y0098459
X0226800Y0109399
X0226800Y0120339
X0226800Y0131279
X0226800Y0142219
X0226800Y0153159
X0226800Y0164099
X0226800Y0175039
X0226800Y0185979
X0226800Y0196919
X0226800Y0207859
X0226800Y0218799
X0226800Y0229739
X0226800Y0240679
X0226800Y0251619
X0226800Y0262559
X0226800Y0273499
X0226800Y0284438
X0226800Y0295378
X0226800Y0306318
X0226800Y0317258
X0226800Y0328198
X0226800Y0339138
X0226800Y0350078
X0226800Y0361018
X0226800Y0371958
X0226800Y0382898
X0226800Y0393838
X0226800Y0404778
X0226800Y0415718
X0226800Y0426658
X0235200Y0010939
X0235200Y0021879
X0235200Y0032819
X0235200Y0043759
X0235200Y0054699
X0235200Y0065639
X0235200Y0076579
X0235200Y0087519
X0235200Y0098459
X0235200Y0109399
X0235200Y0120339
X0235200Y0131279
X0235200Y0142219
X0235200Y0153159
X0235200Y0164099
X0235200Y0175039
X0235200Y0185979
X0235200Y0196919
X0235200Y0207859
X0235200Y0218799
X0235200Y0229739
X0235200Y0240679
X0235200Y0251619
X0235200Y0262559
X0235200Y0273499
X0235200Y0284438
X0235200Y0295378
X0235200Y0306318
X0235200Y0317258
X0235200Y0328198
X0235200Y0339138
X0235200Y0350078
X0235200Y0361018
X0235200Y0371958
X0235200Y0382898
X0235200Y0393838
X0235200Y0404778
X0235200Y0415718
X0235200Y0426658
X0243600Y0010939
X0243600Y0021879
X0243600Y0032819
X0243600Y0043759
X0243600Y0054699
X0243600Y0065639
X0243600Y0076579
X0243600Y0087519
X0243600Y0098459
X0243600Y0109399
X0243600Y0120339
X0243600Y0131279
X0243600Y0142219
X0243600Y0153159
X0243600Y0164099
X0243600Y0175039
X0243600Y0185979
X0243600Y0196919
X0243600Y0207859
X0243600Y0218799
X0243600Y0229739
X0243600Y0240679
X0243600Y0251619
X0243600Y0262559
X0243600Y0273499
X0243600Y0284438
X0243600Y0295378
X0243600Y0306318
X0243600Y0317258
X0243600Y0328198
X0243600Y0339138
X0243600Y0350078
X0243600Y0361018
X0243600Y0371958
X0243600Y0382898
X0243600Y0393838
X0243600Y0404778
X0243600Y0415718
X0243600Y0426658
X0252000Y0010939
X0252000Y0021879
X0252000Y0032819
X0252000Y0043759
X0252000Y0054699
X0252000Y0065639
X0252000Y0076579
X0252000Y0087519
X0252000Y0098459
X0252000Y0109399
X0252000Y0120339
X0252000Y0131279
X0252000Y0142219
X0252000Y0153159
X0252000Y0164099
X0252000Y0175039
X0252000Y0185979
X0252000Y0196919
X0252000Y0207859
X0252000Y0218799
X0252000Y0229739
X0252000Y0240679
X0252000Y0251619
X0252000Y0262559
X0252000Y0273499
X0252000Y0284438
X0252000Y0295378
X0252000Y0306318
X0252000Y0317258
X0252000Y0328198
X0252000Y0339138
X0252000Y0350078
X0252000Y0361018
X0252000Y0371958
X0252000Y0382898
X0252000Y0393838
X0252000Y0404778
X0252000Y0415718
X0252000Y0426658
X0260400Y0010939
X0260400Y0021879
X0260400Y0032819
X0260400Y0043759
X0260400Y0054699
X0260400Y0065639
X0260400Y0076579
X0260400Y0087519
X0260400Y0098459
X0260400Y0109399
X0260400Y0120339
X0260400Y0131279
X0260400Y0142219
X0260400Y0153159
X0260400Y0164099
X0260400Y0175039
X0260400Y0185979
X0260400Y0196919
X0260400Y0207859
X0260400Y0218799
X0260400Y0229739
X0260400Y0240679
X0260400Y0251619
X0260400Y0262559
X0260400Y0273499
X0260400Y0284438
X0260400Y0295378
X0260400Y0306318
X0260400Y0317258
X0260400Y0328198
X0260400Y0339138
X0260400Y0350078
X0260400Y0361018
X0260400Y0371958
X0260400Y0382898
X0260400Y0393838
X0260400Y0404778
X0260400Y0415718
X0260400Y0426658
X0268800Y0010939
X0268800Y0021879
X0268800Y0032819
X0268800Y0043759
X0268800Y0054699
X0268800Y0065639
X0268800Y0076579
X0268800Y0087519
X0268800Y0098459
X0268800Y0109399
X0268800Y0120339
X0268800Y0131279
X0268800Y0142219
X0268800Y0153159
X0268800Y0164099
X0268800Y0175039
X0268800Y0185979
X0268800Y0196919
X0268800Y0207859
X0268800Y0218799
X0268800Y0229739
X0268800Y0240679
X0268800Y0251619
X0268800Y0262559
X0268800Y0273499
X0268800Y0284438
X0268800Y0295378
X0268800Y0306318
X0268800Y0317258
X0268800Y0328198
X0268800Y0339138
X0268800Y0350078
X0268800Y0361018
X0268800Y0371958
X0268800Y0382898
X0268800Y0393838
X0268800Y0404778
X0268800Y0415718
X0268800Y0426658
X0277200Y0010939
X0277200Y0021879
X0277200Y0032819
X0277200Y0043759
X0277200Y0054699
X0277200Y0065639
X0277200Y0076579
X0277200Y0087519
X0277200Y0098459
X0277200Y0109399
X0277200Y0120339
X0277200Y0131279
X0277200Y0142219
X0277200Y0153159
X0277200Y0164099
X0277200Y0175039
X0277200Y0185979
X0277200Y0196919
X0277200Y0207859
X0277200Y0218799
X0277200Y0229739
X0277200Y0240679
X0277200Y0251619
X0277200Y0262559
X0277200Y0273499
X0277200Y0284438
X0277200Y0295378
X0277200Y0306318
X0277200Y0317258
X0277200Y0328198
X0277200Y0339138
X0277200Y0350078
X0277200Y0361018
X0277200Y0371958
X0277200Y0382898
X0277200Y0393838
X0277200Y0404778
X0277200Y0415718
X0277200Y0426658
X0285600Y0010939
X0285600Y0021879
X0285600Y0032819
X0285600Y0043759
X0285600Y0054699
X0285600Y0065639
X0285600Y0076579
X0285600Y0087519
X0285600Y0098459
X0285600Y0109399
X0285600Y0120339
X0285600Y0131279
X0285600Y0142219
X0285600Y0153159
X0285600Y0164099
X0285600Y0175039
X0285600Y0185979
X0285600Y0196919
X0285600Y0207859
X0285600Y0218799
X0285600Y0229739
X0285600Y0240679
X0285600Y0251619
X0285600Y0262559
X0285600Y0273499
X0285600Y0284438
X0285600Y0295378
X0285600Y0306318
X0285600Y0317258
X0285600Y0328198
X0285600Y0339138
X0285600Y0350078
X0285600Y0361018
X0285600Y0371958
X0285600Y0382898
X0285600Y0393838
X0285600Y0404778
X0285600Y0415718
X0285600Y0426658
X0294000Y0010939
X0294000Y0021879
X0294000Y0032819
X0294000Y0043759
X0294000Y0054699
X0294000Y0065639
X0294000Y0076579
X0294000Y0087519
X0294000Y0098459
X0294000Y0109399
X0294000Y0120339
X0294000Y0131279
X0294000Y0142219
X0294000Y0153159
X0294000Y0164099
X0294000Y0175039
X0294000Y0185979
X0294000Y0196919
X0294000Y0207859
X0294000Y0218799
X0294000Y0229739
X0294000Y0240679
X0294000Y0251619
X0294000Y0262559
X0294000Y0273499
X0294000Y0284438
X0294000Y0295378
X0294000Y0306318
X0294000Y0317258
X0294000Y0328198
X0294000Y0339138
X0294000Y0350078
X0294000Y0361018
X0294000Y0371958
X0294000Y0382898
X0294000Y0393838
X0294000Y0404778
X0294000Y0415718
X0294000Y0426658
X0302400Y0010939
X0302400Y0021879
X0302400Y0032819
X0302400Y0043759
X0302400Y0054699
X0302400Y0065639
X0302400Y0076579
X0302400Y0087519
X0302400Y0098459
X0302400Y0109399
X0302400Y0120339
X0302400Y0131279
X0302400Y0142219
X0302400Y0153159
X0302400Y0164099
X0302400Y0175039
X0302400Y0185979
X0302400Y0196919
X0302400Y0207859
X0302400Y0218799
X0302400Y0229739
X0302400Y0240679
X0302400Y0251619
X0302400Y0262559
X0302400Y0273499
X0302400Y0284438
X0302400Y0295378
X0302400Y0306318
X0302400Y0317258
X0302400Y0328198
X0302400Y0339138
X0302400Y0350078
X0302400Y0361018
X0302400Y0371958
X0302400Y0382898
X0302400Y0393838
X0302400Y0404778
X0302400Y0415718
X0302400Y0426658
X0310800Y0010939
X0310800Y0021879
X0310800Y0032819
X0310800Y0043759
X0310800Y0054699
X0310800Y0065639
X0310800Y0076579
X0310800Y0087519
X0310800Y0098459
X0310800Y0109399
X0310800Y0120339
X0310800Y0131279
X0310800Y0142219
X0310800Y0153159
X0310800Y0164099
X0310800Y0175039
X0310800Y0185979
X0310800Y0196919
X0310800Y0207859
X0310800Y0218799
X0310800Y0229739
X0310800Y0240679
X0310800Y0251619
X0310800Y0262559
X0310800Y0273499
X0310800Y0284438
X0310800Y0295378
X0310800Y0306318
X0310800Y0317258
X0310800Y0328198
X0310800Y0339138
X0310800Y0350078
X0310800Y0361018
X0310800Y0371958
X0310800Y0382898
X0310800Y0393838
X0310800Y0404778
X0310800Y0415718
X0310800Y0426658
X0319200Y0010939
X0319200Y0021879
X0319200Y0032819
X0319200Y0043759
X0319200Y0054699
X0319200Y0065639
X0319200Y0076579
X0319200Y0087519
X0319200Y0098459
X0319200Y0109399
X0319200Y0120339
X0319200Y0131279
X0319200Y0142219
X0319200Y0153159
X0319200Y0164099
X0319200Y0175039
X0319200Y0185979
X0319200Y0196919
X0319200Y0207859
X0319200Y0218799
X0319200Y0229739
X0319200Y0240679
X0319200Y0251619
X0319200Y0262559
X0319200Y0273499
X0319200Y0284438
X0319200Y0295378
X0319200Y0306318
X0319200Y0317258
X0319200Y0328198
X0319200Y0339138
X0319200Y0350078
X0319200Y0361018
X0319200Y0371958
X0319200Y0382898
X0319200Y0393838
X0319200Y0404778
X0319200Y0415718
X0319200Y0426658
X0327600Y0010939
X0327600Y0021879
X0327600Y0032819
X0327600Y0043759
X0327600Y0054699
X0327600Y0065639
X0327600Y0076579
X0327600Y0087519
X0327600Y0098459
X0327600Y0109399
X0327600Y0120339
X0327600Y0131279
X0327600Y0142219
X0327600Y0153159
X0327600Y0164099
X0327600Y0175039
X0327600Y0185979
X0327600Y0196919
X0327600Y0207859
X0327600Y0218799
X0327600Y0229739
X0327600Y0240679
X0327600Y0251619
X0327600Y0262559
X0327600Y0273499
X0327600Y0284438
X0327600Y0295378
X0327600Y0306318
X0327600Y0317258
X0327600Y0328198
X0327600Y0339138
X0327600Y0350078
X0327600Y0361018
X0327600Y0371958
X0327600Y0382898
X0327600Y0393838
X0327600Y0404778
X0327600Y0415718
X0327600Y0426658
X0336000Y0010939
X0336000Y0021879
X0336000Y0032819
X0336000Y0043759
X0336000Y0054699
X0336000Y0065639
X0336000Y0076579
X0336000Y0087519
X0336000Y0098459
X0336000Y0109399
X0336000Y0120339
X0336000Y0131279
X0336000Y0142219
X0336000Y0153159
X0336000Y0164099
X0336000Y0175039
X0336000Y0185979
X0336000Y0196919
X0336000Y0207859
X0336000Y0218799
X0336000Y0229739
X0336000Y0240679
X0336000Y0251619
X0336000Y0262559
X0336000Y0273499
X0336000Y0284438
X0336000Y0295378
X0336000Y0306318
X0336000Y0317258
X0336000Y0328198
X0336000Y0339138
X0336000Y0350078
X0336000Y0361018
X0336000Y0371958
X0336000Y0382898
X0336000Y0393838
X0336000Y0404778
X0336000Y0415718
X0336000Y0426658
X0344400Y0010939
X0344400Y0021879
X0344400Y0032819
X0344400Y0043759
X0344400Y0054699
X0344400Y0065639
X0344400Y0076579
X0344400Y0087519
X0344400Y0098459
X0344400Y0109399
X0344400Y0120339
X0344400Y0131279
X0344400Y0142219
X0344400Y0153159
X0344400Y0164099
X0344400Y0175039
X0344400Y0185979
X0344400Y0196919
X0344400Y0207859
X0344400Y0218799
X0344400Y0229739
X0344400Y0240679
X0344400Y0251619
X0344400Y0262559
X0344400Y0273499
X0344400Y0284438
X0344400Y0295378
X0344400Y0306318
X0344400Y0317258
X0344400Y0328198
X0344400Y0339138
X0344400Y0350078
X0344400Y0361018
X0344400Y0371958
X0344400Y0382898
X0344400Y0393838
X0344400Y0404778
X0344400Y0415718
X0344400Y0426658
X0352800Y0010939
X0352800Y0021879
X0352800Y0032819
X0352800Y0043759
X0352800Y0054699
X0352800Y0065639
X0352800Y0076579
X0352800Y0087519
X0352800Y0098459
X0352800Y0109399
X0352800Y0120339
X0352800Y0131279
X0352800Y0142219
X0352800Y0153159
X0352800Y0164099
X0352800Y0175039
X0352800Y0185979
X0352800Y0196919
X0352800Y0207859
X0352800Y0218799
X0352800Y0229739
X0352800Y0240679
X0352800Y0251619
X0352800Y0262559
X0352800Y0273499
X0352800Y0284438
X0352800Y0295378
X0352800Y0306318
X0352800Y0317258
X0352800Y0328198
X0352800Y0339138
X0352800Y0350078
X0352800Y0361018
X0352800Y0371958
X0352800Y0382898
X0352800Y0393838
X0352800Y0404778
X0352800Y0415718
X0352800Y0426658
X0361200Y0010939
X0361200Y0021879
X0361200Y0032819
X0361200Y0043759
X0361200Y0054699
X0361200Y0065639
X0361200Y0076579
X0361200Y0087519
X0361200Y0098459
X0361200Y0109399
X0361200Y0120339
X0361200Y0131279
X0361200Y0142219
X0361200Y0153159
X0361200Y0164099
X0361200Y0175039
X0361200Y0185979
X0361200Y0196919
X0361200Y0207859
X0361200Y0218799
X0361200Y0229739
X0361200Y0240679
X0361200Y0251619
X0361200Y0262559
X0361200Y0273499
X0361200Y0284438
X0361200Y0295378
X0361200Y0306318
X0361200Y0317258
X0361200Y0328198
X0361200Y0339138
X0361200Y0350078
X0361200Y0361018
X0361200Y0371958
X0361200Y0382898
X0361200Y0393838
X0361200Y0404778
X0361200Y0415718
X0361200Y0426658
X0369600Y0010939
X0369600Y0021879
X0369600Y0032819
X0369600Y0043759
X0369600Y0054699
X0369600Y0065639
X0369600Y0076579
X0369600Y0087519
X0369600Y0098459
X0369600Y0109399
X0369600Y0120339
X0369600Y0131279
X0369600Y0142219
X0369600Y0153159
X0369600Y0164099
X0369600Y0175039
X0369600Y0185979
X0369600Y0196919
X0369600Y0207859
X0369600Y0218799
X0369600Y0229739
X0369600Y0240679
X0369600Y0251619
X0369600Y0262559
X0369600Y0273499
X0369600Y0284438
X0369600Y0295378
X0369600Y0306318
X0369600Y0317258
X0369600Y0328198
X0369600Y0339138
X0369600Y0350078
X0369600Y0361018
X0369600Y0371958
X0369600Y0382898
X0369600Y0393838
X0369600Y0404778
X0369600Y0415718
X0369600Y0426658
X0378000Y0010939
X0378000Y0021879
X0378000Y0032819
X0378000Y0043759
X0378000Y0054699
X0378000Y0065639
X0378000Y0076579
X0378000Y0087519
X0378000Y0098459
X0378000Y0109399
X0378000Y0120339
X0378000Y0131279
X0378000Y0142219
X0378000Y0153159
X0378000Y0164099
X0378000Y0175039
X0378000Y0185979
X0378000Y0196919
X0378000Y0207859
X0378000Y0218799
X0378000Y0229739
X0378000Y0240679
X0378000Y0251619
X0378000Y0262559
X0378000Y0273499
X0378000Y0284438
X0378000Y0295378
X0378000Y0306318
X0378000Y0317258
X0378000Y0328198
X0378000Y0339138
X0378000Y0350078
X0378000Y0361018
X0378000Y0371958
X0378000Y0382898
X0378000Y0393838
X0378000Y0404778
X0378000Y0415718
X0378000Y0426658
X0386400Y0010939
X0386400Y0021879
X0386400Y0032819
X0386400Y0043759
X0386400Y0054699
X0386400Y0065639
X0386400Y0076579
X0386400Y0087519
X0386400Y0098459
X0386400Y0109399
X0386400Y0120339
X0386400Y0131279
X0386400Y0142219
X0386400Y0153159
X0386400Y0164099
X0386400Y0175039
X0386400Y0185979
X0386400Y0196919
X0386400Y0207859
X0386400Y0218799
X0386400Y0229739
X0386400Y0240679
X0386400Y0251619
X0386400Y0262559
X0386400Y0273499
X0386400Y0284438
X0386400Y0295378
X0386400Y0306318
X0386400Y0317258
X0386400Y0328198
X0386400Y0339138
X0386400Y0350078
X0386400Y0361018
X0386400Y0371958
X0386400Y0382898
X0386400Y0393838
X0386400Y0404778
X0386400Y0415718
X0386400Y0426658
X0394800Y0010939
X0394800Y0021879
X0394800Y0032819
X0394800Y0043759
X0394800Y0054699
X0394800Y0065639
X0394800Y0076579
X0394800Y0087519
X0394800Y0098459
X0394800Y0109399
X0394800Y0120339
X0394800Y0131279
X0394800Y0142219
X0394800Y0153159
X0394800Y0164099
X0394800Y0175039
X0394800Y0185979
X0394800Y0196919
X0394800Y0207859
X0394800Y0218799
X0394800Y0229739
X0394800Y0240679
X0394800Y0251619
X0394800Y0262559
X0394800Y0273499
X0394800Y0284438
X0394800Y0295378
X0394800Y0306318
X0394800Y0317258
X0394800Y0328198
X0394800Y0339138
X0394800Y0350078
X0394800Y0361018
X0394800Y0371958
X0394800Y0382898
X0394800Y0393838
X0394800Y0404778
X0394800Y0415718
X0394800Y0426658
X0403200Y0010939
X0403200Y0021879
X0403200Y0032819
X0403200Y0043759
X0403200Y0054699
X0403200Y0065639
X0403200Y0076579
X0403200Y0087519
X0403200Y0098459
X0403200Y0109399
X0403200Y0120339
X0403200Y0131279
X0403200Y0142219
X0403200Y0153159
X0403200Y0164099
X0403200Y0175039
X0403200Y0185979
X0403200Y0196919
X0403200Y0207859
X0403200Y0218799
X0403200Y0229739
X0403200Y0240679
X0403200Y0251619
X0403200Y0262559
X0403200Y0273499
X0403200Y0284438
X0403200Y0295378
X0403200Y0306318
X0403200Y0317258
X0403200Y0328198
X0403200Y0339138
X0403200Y0350078
X0403200Y0361018
X0403200Y0371958
X0403200Y0382898
X0403200Y0393838
X0403200Y0404778
X0403200Y0415718
X0403200Y0426658
X0411600Y0010939
X0411600Y0021879
X0411600Y0032819
X0411600Y0043759
X0411600Y0054699
X0411600Y0065639
X0411600Y0076579
X0411600Y0087519
X0411600Y0098459
X0411600Y0109399
X0411600Y0120339
X0411600Y0131279
X0411600Y0142219
X0411600Y0153159
X0411600Y0164099
X0411600Y0175039
X0411600Y0185979
X0411600Y0196919
X0411600Y0207859
X0411600Y0218799
X0411600Y0229739
X0411600Y0240679
X0411600Y0251619
X0411600Y0262559
X0411600Y0273499
X0411600Y0284438
X0411600Y0295378
X0411600Y0306318
X0411600Y0317258
X0411600Y0328198
X0411600Y0339138
X0411600Y0350078
X0411600Y0361018
X0411600Y0371958
X0411600Y0382898
X0411600Y0393838
X0411600Y0404778
X0411600Y0415718
X0411600Y0426658
T02
X0015000Y0015000
X0015000Y0422598
X0405000Y0015000
X0405000Y0422598
M30
