G04 VLSI Layer: Ternary Logic Encoder (Trits)*
%FSLAX36Y36*%
%MOIN*%
G75*
G01*
%ADD16C,0.003*%
D16*
X100000Y740000D02*
X140000Y740000D01*
X140000Y700000D01*
X100000Y700000D01*
X100000Y740000D01*
X110000Y720000D16*
X120000Y720000D16*
X130000Y720000D16*
X180000Y740000D02*
X220000Y740000D01*
X220000Y700000D01*
X180000Y700000D01*
X180000Y740000D01*
X190000Y720000D16*
X199999Y720000D16*
X210000Y720000D16*
X260000Y740000D02*
X300000Y740000D01*
X300000Y700000D01*
X260000Y700000D01*
X260000Y740000D01*
X270000Y720000D16*
X280000Y720000D16*
X290000Y720000D16*
X339999Y740000D02*
X379999Y740000D01*
X379999Y700000D01*
X339999Y700000D01*
X339999Y740000D01*
X350000Y720000D16*
X360000Y720000D16*
X370000Y720000D16*
X420000Y740000D02*
X460000Y740000D01*
X460000Y700000D01*
X420000Y700000D01*
X420000Y740000D01*
X430000Y720000D16*
X440000Y720000D16*
X450000Y720000D16*
X500000Y740000D02*
X540000Y740000D01*
X540000Y700000D01*
X500000Y700000D01*
X500000Y740000D01*
X510000Y720000D16*
X520000Y720000D16*
X530000Y720000D16*
X580000Y740000D02*
X620000Y740000D01*
X620000Y700000D01*
X580000Y700000D01*
X580000Y740000D01*
X590000Y720000D16*
X600000Y720000D16*
X610000Y720000D16*
X660000Y740000D02*
X700000Y740000D01*
X700000Y700000D01*
X660000Y700000D01*
X660000Y740000D01*
X670000Y720000D16*
X680000Y720000D16*
X690000Y720000D16*
X740000Y740000D02*
X780000Y740000D01*
X780000Y700000D01*
X740000Y700000D01*
X740000Y740000D01*
X750000Y720000D16*
X760000Y720000D16*
X770000Y720000D16*
X820000Y740000D02*
X860000Y740000D01*
X860000Y700000D01*
X820000Y700000D01*
X820000Y740000D01*
X830000Y720000D16*
X840000Y720000D16*
X850000Y720000D16*
M02*
