%TF.GenerationSoftware,KiCad,Pcbnew,8.0.9-8.0.9-0~ubuntu22.04.1*%
%TF.CreationDate,2026-04-12T02:14:50+00:00*%
%TF.ProjectId,TFLN_AI_NODE_X2,54464c4e-5f41-4495-9f4e-4f44455f5832,1.0*%
%TF.SameCoordinates,Original*%
%TF.FileFunction,Soldermask,Top*%
%TF.FilePolarity,Negative*%
%FSLAX46Y46*%
G04 Gerber Fmt 4.6, Leading zero omitted, Abs format (unit mm)*
G04 Created by KiCad (PCBNEW 8.0.9-8.0.9-0~ubuntu22.04.1) date 2026-04-12 02:14:50*
%MOMM*%
%LPD*%
G01*
G04 APERTURE LIST*
G04 Aperture macros list*
%AMRoundRect*
0 Rectangle with rounded corners*
0 $1 Rounding radius*
0 $2 $3 $4 $5 $6 $7 $8 $9 X,Y pos of 4 corners*
0 Add a 4 corners polygon primitive as box body*
4,1,4,$2,$3,$4,$5,$6,$7,$8,$9,$2,$3,0*
0 Add four circle primitives for the rounded corners*
1,1,$1+$1,$2,$3*
1,1,$1+$1,$4,$5*
1,1,$1+$1,$6,$7*
1,1,$1+$1,$8,$9*
0 Add four rect primitives between the rounded corners*
20,1,$1+$1,$2,$3,$4,$5,0*
20,1,$1+$1,$4,$5,$6,$7,0*
20,1,$1+$1,$6,$7,$8,$9,0*
20,1,$1+$1,$8,$9,$2,$3,0*%
G04 Aperture macros list end*
%ADD10C,0.500000*%
%ADD11RoundRect,0.050000X-0.600000X-0.200000X0.600000X-0.200000X0.600000X0.200000X-0.600000X0.200000X0*%
%ADD12RoundRect,0.050000X-0.300000X-0.500000X0.300000X-0.500000X0.300000X0.500000X-0.300000X0.500000X0*%
%ADD13RoundRect,0.050000X-0.500000X-0.500000X0.500000X-0.500000X0.500000X0.500000X-0.500000X0.500000X0*%
%ADD14RoundRect,0.100000X-4.000000X-3.000000X4.000000X-3.000000X4.000000X3.000000X-4.000000X3.000000X0*%
%ADD15RoundRect,0.050000X-1.500000X-1.000000X1.500000X-1.000000X1.500000X1.000000X-1.500000X1.000000X0*%
%ADD16RoundRect,0.051000X-0.300000X-0.400000X0.300000X-0.400000X0.300000X0.400000X-0.300000X0.400000X0*%
%ADD17RoundRect,0.051000X-27.500000X-1.500000X27.500000X-1.500000X27.500000X1.500000X-27.500000X1.500000X0*%
%ADD18RoundRect,0.051000X-0.400000X-0.800000X0.400000X-0.800000X0.400000X0.800000X-0.400000X0.800000X0*%
%ADD19C,3.602000*%
%ADD20C,0.802000*%
%ADD21C,3.102000*%
%ADD22RoundRect,0.051000X-0.150000X-0.750000X0.150000X-0.750000X0.150000X0.750000X-0.150000X0.750000X0*%
%ADD23RoundRect,0.051000X-0.750000X-1.500000X0.750000X-1.500000X0.750000X1.500000X-0.750000X1.500000X0*%
%ADD24C,2.602000*%
G04 APERTURE END LIST*
D10*
%TO.C,U1*%
X151500000Y-169000000D03*
X152300000Y-169000000D03*
X153100000Y-169000000D03*
X153900000Y-169000000D03*
X154700000Y-169000000D03*
X155500000Y-169000000D03*
X156300000Y-169000000D03*
X157100000Y-169000000D03*
X157900000Y-169000000D03*
X158700000Y-169000000D03*
X159500000Y-169000000D03*
X160300000Y-169000000D03*
X161100000Y-169000000D03*
X161900000Y-169000000D03*
X162700000Y-169000000D03*
X163500000Y-169000000D03*
X151500000Y-169800000D03*
X152300000Y-169800000D03*
X153100000Y-169800000D03*
X153900000Y-169800000D03*
X154700000Y-169800000D03*
X155500000Y-169800000D03*
X156300000Y-169800000D03*
X157100000Y-169800000D03*
X157900000Y-169800000D03*
X158700000Y-169800000D03*
X159500000Y-169800000D03*
X160300000Y-169800000D03*
X161100000Y-169800000D03*
X161900000Y-169800000D03*
X162700000Y-169800000D03*
X163500000Y-169800000D03*
X151500000Y-170600000D03*
X152300000Y-170600000D03*
X153100000Y-170600000D03*
X153900000Y-170600000D03*
X154700000Y-170600000D03*
X155500000Y-170600000D03*
X156300000Y-170600000D03*
X157100000Y-170600000D03*
X157900000Y-170600000D03*
X158700000Y-170600000D03*
X159500000Y-170600000D03*
X160300000Y-170600000D03*
X161100000Y-170600000D03*
X161900000Y-170600000D03*
X162700000Y-170600000D03*
X163500000Y-170600000D03*
X151500000Y-171400000D03*
X152300000Y-171400000D03*
X153100000Y-171400000D03*
X153900000Y-171400000D03*
X154700000Y-171400000D03*
X155500000Y-171400000D03*
X156300000Y-171400000D03*
X157100000Y-171400000D03*
X157900000Y-171400000D03*
X158700000Y-171400000D03*
X159500000Y-171400000D03*
X160300000Y-171400000D03*
X161100000Y-171400000D03*
X161900000Y-171400000D03*
X162700000Y-171400000D03*
X163500000Y-171400000D03*
X151500000Y-172200000D03*
X152300000Y-172200000D03*
X153100000Y-172200000D03*
X153900000Y-172200000D03*
X154700000Y-172200000D03*
X155500000Y-172200000D03*
X156300000Y-172200000D03*
X157100000Y-172200000D03*
X157900000Y-172200000D03*
X158700000Y-172200000D03*
X159500000Y-172200000D03*
X160300000Y-172200000D03*
X161100000Y-172200000D03*
X161900000Y-172200000D03*
X162700000Y-172200000D03*
X163500000Y-172200000D03*
X151500000Y-173000000D03*
X152300000Y-173000000D03*
X153100000Y-173000000D03*
X153900000Y-173000000D03*
X154700000Y-173000000D03*
X155500000Y-173000000D03*
X156300000Y-173000000D03*
X157100000Y-173000000D03*
X157900000Y-173000000D03*
X158700000Y-173000000D03*
X159500000Y-173000000D03*
X160300000Y-173000000D03*
X161100000Y-173000000D03*
X161900000Y-173000000D03*
X162700000Y-173000000D03*
X163500000Y-173000000D03*
X151500000Y-173800000D03*
X152300000Y-173800000D03*
X153100000Y-173800000D03*
X153900000Y-173800000D03*
X154700000Y-173800000D03*
X155500000Y-173800000D03*
X156300000Y-173800000D03*
X157100000Y-173800000D03*
X157900000Y-173800000D03*
X158700000Y-173800000D03*
X159500000Y-173800000D03*
X160300000Y-173800000D03*
X161100000Y-173800000D03*
X161900000Y-173800000D03*
X162700000Y-173800000D03*
X163500000Y-173800000D03*
X151500000Y-174600000D03*
X152300000Y-174600000D03*
X153100000Y-174600000D03*
X153900000Y-174600000D03*
X154700000Y-174600000D03*
X155500000Y-174600000D03*
X156300000Y-174600000D03*
X157100000Y-174600000D03*
X157900000Y-174600000D03*
X158700000Y-174600000D03*
X159500000Y-174600000D03*
X160300000Y-174600000D03*
X161100000Y-174600000D03*
X161900000Y-174600000D03*
X162700000Y-174600000D03*
X163500000Y-174600000D03*
X151500000Y-175400000D03*
X152300000Y-175400000D03*
X153100000Y-175400000D03*
X153900000Y-175400000D03*
X154700000Y-175400000D03*
X155500000Y-175400000D03*
X156300000Y-175400000D03*
X157100000Y-175400000D03*
X157900000Y-175400000D03*
X158700000Y-175400000D03*
X159500000Y-175400000D03*
X160300000Y-175400000D03*
X161100000Y-175400000D03*
X161900000Y-175400000D03*
X162700000Y-175400000D03*
X163500000Y-175400000D03*
X151500000Y-176200000D03*
X152300000Y-176200000D03*
X153100000Y-176200000D03*
X153900000Y-176200000D03*
X154700000Y-176200000D03*
X155500000Y-176200000D03*
X156300000Y-176200000D03*
X157100000Y-176200000D03*
X157900000Y-176200000D03*
X158700000Y-176200000D03*
X159500000Y-176200000D03*
X160300000Y-176200000D03*
X161100000Y-176200000D03*
X161900000Y-176200000D03*
X162700000Y-176200000D03*
X163500000Y-176200000D03*
X151500000Y-177000000D03*
X152300000Y-177000000D03*
X153100000Y-177000000D03*
X153900000Y-177000000D03*
X154700000Y-177000000D03*
X155500000Y-177000000D03*
X156300000Y-177000000D03*
X157100000Y-177000000D03*
X157900000Y-177000000D03*
X158700000Y-177000000D03*
X159500000Y-177000000D03*
X160300000Y-177000000D03*
X161100000Y-177000000D03*
X161900000Y-177000000D03*
X162700000Y-177000000D03*
X163500000Y-177000000D03*
X151500000Y-177800000D03*
X152300000Y-177800000D03*
X153100000Y-177800000D03*
X153900000Y-177800000D03*
X154700000Y-177800000D03*
X155500000Y-177800000D03*
X156300000Y-177800000D03*
X157100000Y-177800000D03*
X157900000Y-177800000D03*
X158700000Y-177800000D03*
X159500000Y-177800000D03*
X160300000Y-177800000D03*
X161100000Y-177800000D03*
X161900000Y-177800000D03*
X162700000Y-177800000D03*
X163500000Y-177800000D03*
X151500000Y-178600000D03*
X152300000Y-178600000D03*
X153100000Y-178600000D03*
X153900000Y-178600000D03*
X154700000Y-178600000D03*
X155500000Y-178600000D03*
X156300000Y-178600000D03*
X157100000Y-178600000D03*
X157900000Y-178600000D03*
X158700000Y-178600000D03*
X159500000Y-178600000D03*
X160300000Y-178600000D03*
X161100000Y-178600000D03*
X161900000Y-178600000D03*
X162700000Y-178600000D03*
X163500000Y-178600000D03*
X151500000Y-179400000D03*
X152300000Y-179400000D03*
X153100000Y-179400000D03*
X153900000Y-179400000D03*
X154700000Y-179400000D03*
X155500000Y-179400000D03*
X156300000Y-179400000D03*
X157100000Y-179400000D03*
X157900000Y-179400000D03*
X158700000Y-179400000D03*
X159500000Y-179400000D03*
X160300000Y-179400000D03*
X161100000Y-179400000D03*
X161900000Y-179400000D03*
X162700000Y-179400000D03*
X163500000Y-179400000D03*
X151500000Y-180200000D03*
X152300000Y-180200000D03*
X153100000Y-180200000D03*
X153900000Y-180200000D03*
X154700000Y-180200000D03*
X155500000Y-180200000D03*
X156300000Y-180200000D03*
X157100000Y-180200000D03*
X157900000Y-180200000D03*
X158700000Y-180200000D03*
X159500000Y-180200000D03*
X160300000Y-180200000D03*
X161100000Y-180200000D03*
X161900000Y-180200000D03*
X162700000Y-180200000D03*
X163500000Y-180200000D03*
X151500000Y-181000000D03*
X152300000Y-181000000D03*
X153100000Y-181000000D03*
X153900000Y-181000000D03*
X154700000Y-181000000D03*
X155500000Y-181000000D03*
X156300000Y-181000000D03*
X157100000Y-181000000D03*
X157900000Y-181000000D03*
X158700000Y-181000000D03*
X159500000Y-181000000D03*
X160300000Y-181000000D03*
X161100000Y-181000000D03*
X161900000Y-181000000D03*
X162700000Y-181000000D03*
X163500000Y-181000000D03*
%TD*%
%TO.C,U2*%
X241500000Y-169000000D03*
X242300000Y-169000000D03*
X243100000Y-169000000D03*
X243900000Y-169000000D03*
X244700000Y-169000000D03*
X245500000Y-169000000D03*
X246300000Y-169000000D03*
X247100000Y-169000000D03*
X247900000Y-169000000D03*
X248700000Y-169000000D03*
X249500000Y-169000000D03*
X250300000Y-169000000D03*
X251100000Y-169000000D03*
X251900000Y-169000000D03*
X252700000Y-169000000D03*
X253500000Y-169000000D03*
X241500000Y-169800000D03*
X242300000Y-169800000D03*
X243100000Y-169800000D03*
X243900000Y-169800000D03*
X244700000Y-169800000D03*
X245500000Y-169800000D03*
X246300000Y-169800000D03*
X247100000Y-169800000D03*
X247900000Y-169800000D03*
X248700000Y-169800000D03*
X249500000Y-169800000D03*
X250300000Y-169800000D03*
X251100000Y-169800000D03*
X251900000Y-169800000D03*
X252700000Y-169800000D03*
X253500000Y-169800000D03*
X241500000Y-170600000D03*
X242300000Y-170600000D03*
X243100000Y-170600000D03*
X243900000Y-170600000D03*
X244700000Y-170600000D03*
X245500000Y-170600000D03*
X246300000Y-170600000D03*
X247100000Y-170600000D03*
X247900000Y-170600000D03*
X248700000Y-170600000D03*
X249500000Y-170600000D03*
X250300000Y-170600000D03*
X251100000Y-170600000D03*
X251900000Y-170600000D03*
X252700000Y-170600000D03*
X253500000Y-170600000D03*
X241500000Y-171400000D03*
X242300000Y-171400000D03*
X243100000Y-171400000D03*
X243900000Y-171400000D03*
X244700000Y-171400000D03*
X245500000Y-171400000D03*
X246300000Y-171400000D03*
X247100000Y-171400000D03*
X247900000Y-171400000D03*
X248700000Y-171400000D03*
X249500000Y-171400000D03*
X250300000Y-171400000D03*
X251100000Y-171400000D03*
X251900000Y-171400000D03*
X252700000Y-171400000D03*
X253500000Y-171400000D03*
X241500000Y-172200000D03*
X242300000Y-172200000D03*
X243100000Y-172200000D03*
X243900000Y-172200000D03*
X244700000Y-172200000D03*
X245500000Y-172200000D03*
X246300000Y-172200000D03*
X247100000Y-172200000D03*
X247900000Y-172200000D03*
X248700000Y-172200000D03*
X249500000Y-172200000D03*
X250300000Y-172200000D03*
X251100000Y-172200000D03*
X251900000Y-172200000D03*
X252700000Y-172200000D03*
X253500000Y-172200000D03*
X241500000Y-173000000D03*
X242300000Y-173000000D03*
X243100000Y-173000000D03*
X243900000Y-173000000D03*
X244700000Y-173000000D03*
X245500000Y-173000000D03*
X246300000Y-173000000D03*
X247100000Y-173000000D03*
X247900000Y-173000000D03*
X248700000Y-173000000D03*
X249500000Y-173000000D03*
X250300000Y-173000000D03*
X251100000Y-173000000D03*
X251900000Y-173000000D03*
X252700000Y-173000000D03*
X253500000Y-173000000D03*
X241500000Y-173800000D03*
X242300000Y-173800000D03*
X243100000Y-173800000D03*
X243900000Y-173800000D03*
X244700000Y-173800000D03*
X245500000Y-173800000D03*
X246300000Y-173800000D03*
X247100000Y-173800000D03*
X247900000Y-173800000D03*
X248700000Y-173800000D03*
X249500000Y-173800000D03*
X250300000Y-173800000D03*
X251100000Y-173800000D03*
X251900000Y-173800000D03*
X252700000Y-173800000D03*
X253500000Y-173800000D03*
X241500000Y-174600000D03*
X242300000Y-174600000D03*
X243100000Y-174600000D03*
X243900000Y-174600000D03*
X244700000Y-174600000D03*
X245500000Y-174600000D03*
X246300000Y-174600000D03*
X247100000Y-174600000D03*
X247900000Y-174600000D03*
X248700000Y-174600000D03*
X249500000Y-174600000D03*
X250300000Y-174600000D03*
X251100000Y-174600000D03*
X251900000Y-174600000D03*
X252700000Y-174600000D03*
X253500000Y-174600000D03*
X241500000Y-175400000D03*
X242300000Y-175400000D03*
X243100000Y-175400000D03*
X243900000Y-175400000D03*
X244700000Y-175400000D03*
X245500000Y-175400000D03*
X246300000Y-175400000D03*
X247100000Y-175400000D03*
X247900000Y-175400000D03*
X248700000Y-175400000D03*
X249500000Y-175400000D03*
X250300000Y-175400000D03*
X251100000Y-175400000D03*
X251900000Y-175400000D03*
X252700000Y-175400000D03*
X253500000Y-175400000D03*
X241500000Y-176200000D03*
X242300000Y-176200000D03*
X243100000Y-176200000D03*
X243900000Y-176200000D03*
X244700000Y-176200000D03*
X245500000Y-176200000D03*
X246300000Y-176200000D03*
X247100000Y-176200000D03*
X247900000Y-176200000D03*
X248700000Y-176200000D03*
X249500000Y-176200000D03*
X250300000Y-176200000D03*
X251100000Y-176200000D03*
X251900000Y-176200000D03*
X252700000Y-176200000D03*
X253500000Y-176200000D03*
X241500000Y-177000000D03*
X242300000Y-177000000D03*
X243100000Y-177000000D03*
X243900000Y-177000000D03*
X244700000Y-177000000D03*
X245500000Y-177000000D03*
X246300000Y-177000000D03*
X247100000Y-177000000D03*
X247900000Y-177000000D03*
X248700000Y-177000000D03*
X249500000Y-177000000D03*
X250300000Y-177000000D03*
X251100000Y-177000000D03*
X251900000Y-177000000D03*
X252700000Y-177000000D03*
X253500000Y-177000000D03*
X241500000Y-177800000D03*
X242300000Y-177800000D03*
X243100000Y-177800000D03*
X243900000Y-177800000D03*
X244700000Y-177800000D03*
X245500000Y-177800000D03*
X246300000Y-177800000D03*
X247100000Y-177800000D03*
X247900000Y-177800000D03*
X248700000Y-177800000D03*
X249500000Y-177800000D03*
X250300000Y-177800000D03*
X251100000Y-177800000D03*
X251900000Y-177800000D03*
X252700000Y-177800000D03*
X253500000Y-177800000D03*
X241500000Y-178600000D03*
X242300000Y-178600000D03*
X243100000Y-178600000D03*
X243900000Y-178600000D03*
X244700000Y-178600000D03*
X245500000Y-178600000D03*
X246300000Y-178600000D03*
X247100000Y-178600000D03*
X247900000Y-178600000D03*
X248700000Y-178600000D03*
X249500000Y-178600000D03*
X250300000Y-178600000D03*
X251100000Y-178600000D03*
X251900000Y-178600000D03*
X252700000Y-178600000D03*
X253500000Y-178600000D03*
X241500000Y-179400000D03*
X242300000Y-179400000D03*
X243100000Y-179400000D03*
X243900000Y-179400000D03*
X244700000Y-179400000D03*
X245500000Y-179400000D03*
X246300000Y-179400000D03*
X247100000Y-179400000D03*
X247900000Y-179400000D03*
X248700000Y-179400000D03*
X249500000Y-179400000D03*
X250300000Y-179400000D03*
X251100000Y-179400000D03*
X251900000Y-179400000D03*
X252700000Y-179400000D03*
X253500000Y-179400000D03*
X241500000Y-180200000D03*
X242300000Y-180200000D03*
X243100000Y-180200000D03*
X243900000Y-180200000D03*
X244700000Y-180200000D03*
X245500000Y-180200000D03*
X246300000Y-180200000D03*
X247100000Y-180200000D03*
X247900000Y-180200000D03*
X248700000Y-180200000D03*
X249500000Y-180200000D03*
X250300000Y-180200000D03*
X251100000Y-180200000D03*
X251900000Y-180200000D03*
X252700000Y-180200000D03*
X253500000Y-180200000D03*
X241500000Y-181000000D03*
X242300000Y-181000000D03*
X243100000Y-181000000D03*
X243900000Y-181000000D03*
X244700000Y-181000000D03*
X245500000Y-181000000D03*
X246300000Y-181000000D03*
X247100000Y-181000000D03*
X247900000Y-181000000D03*
X248700000Y-181000000D03*
X249500000Y-181000000D03*
X250300000Y-181000000D03*
X251100000Y-181000000D03*
X251900000Y-181000000D03*
X252700000Y-181000000D03*
X253500000Y-181000000D03*
%TD*%
D11*
%TO.C,U3*%
X143000000Y-198000000D03*
X143000000Y-198650000D03*
X143000000Y-199800000D03*
X143000000Y-200450000D03*
X143000000Y-201600000D03*
X143000000Y-202250000D03*
X143000000Y-203400000D03*
X143000000Y-204050000D03*
X143000000Y-205200000D03*
X143000000Y-205850000D03*
X143000000Y-207000000D03*
X143000000Y-207650000D03*
X143000000Y-208800000D03*
X143000000Y-209450000D03*
X143000000Y-210600000D03*
X143000000Y-211250000D03*
X172000000Y-198000000D03*
X172000000Y-198650000D03*
X172000000Y-199800000D03*
X172000000Y-200450000D03*
X172000000Y-201600000D03*
X172000000Y-202250000D03*
X172000000Y-203400000D03*
X172000000Y-204050000D03*
X172000000Y-205200000D03*
X172000000Y-205850000D03*
X172000000Y-207000000D03*
X172000000Y-207650000D03*
X172000000Y-208800000D03*
X172000000Y-209450000D03*
X172000000Y-210600000D03*
X172000000Y-211250000D03*
D12*
X150500000Y-195500000D03*
X152500000Y-195500000D03*
X154500000Y-195500000D03*
X156500000Y-195500000D03*
X158500000Y-195500000D03*
X160500000Y-195500000D03*
X162500000Y-195500000D03*
X164500000Y-195500000D03*
D13*
X145500000Y-195500000D03*
X147000000Y-195500000D03*
X148500000Y-195500000D03*
X150000000Y-195500000D03*
X164500000Y-195500000D03*
X166000000Y-195500000D03*
X167500000Y-195500000D03*
X169000000Y-195500000D03*
D14*
X157500000Y-205000000D03*
%TD*%
D11*
%TO.C,U4*%
X233000000Y-198000000D03*
X233000000Y-198650000D03*
X233000000Y-199800000D03*
X233000000Y-200450000D03*
X233000000Y-201600000D03*
X233000000Y-202250000D03*
X233000000Y-203400000D03*
X233000000Y-204050000D03*
X233000000Y-205200000D03*
X233000000Y-205850000D03*
X233000000Y-207000000D03*
X233000000Y-207650000D03*
X233000000Y-208800000D03*
X233000000Y-209450000D03*
X233000000Y-210600000D03*
X233000000Y-211250000D03*
X262000000Y-198000000D03*
X262000000Y-198650000D03*
X262000000Y-199800000D03*
X262000000Y-200450000D03*
X262000000Y-201600000D03*
X262000000Y-202250000D03*
X262000000Y-203400000D03*
X262000000Y-204050000D03*
X262000000Y-205200000D03*
X262000000Y-205850000D03*
X262000000Y-207000000D03*
X262000000Y-207650000D03*
X262000000Y-208800000D03*
X262000000Y-209450000D03*
X262000000Y-210600000D03*
X262000000Y-211250000D03*
D12*
X240500000Y-195500000D03*
X242500000Y-195500000D03*
X244500000Y-195500000D03*
X246500000Y-195500000D03*
X248500000Y-195500000D03*
X250500000Y-195500000D03*
X252500000Y-195500000D03*
X254500000Y-195500000D03*
D13*
X235500000Y-195500000D03*
X237000000Y-195500000D03*
X238500000Y-195500000D03*
X240000000Y-195500000D03*
X254500000Y-195500000D03*
X256000000Y-195500000D03*
X257500000Y-195500000D03*
X259000000Y-195500000D03*
D14*
X247500000Y-205000000D03*
%TD*%
D15*
%TO.C,U5*%
X105000000Y-131000000D03*
X105000000Y-134000000D03*
D16*
X105000000Y-137000000D03*
D15*
X110000000Y-131000000D03*
X110000000Y-134000000D03*
D16*
X110000000Y-137000000D03*
D15*
X115000000Y-131000000D03*
X115000000Y-134000000D03*
D16*
X115000000Y-137000000D03*
D15*
X120000000Y-131000000D03*
X120000000Y-134000000D03*
D16*
X120000000Y-137000000D03*
D15*
X125000000Y-131000000D03*
X125000000Y-134000000D03*
D16*
X125000000Y-137000000D03*
D15*
X130000000Y-131000000D03*
X130000000Y-134000000D03*
D16*
X130000000Y-137000000D03*
D15*
X135000000Y-131000000D03*
X135000000Y-134000000D03*
D16*
X135000000Y-137000000D03*
D15*
X140000000Y-131000000D03*
X140000000Y-134000000D03*
D16*
X140000000Y-137000000D03*
D15*
X145000000Y-131000000D03*
X145000000Y-134000000D03*
D16*
X145000000Y-137000000D03*
D15*
X150000000Y-131000000D03*
X150000000Y-134000000D03*
D16*
X150000000Y-137000000D03*
D15*
X155000000Y-131000000D03*
X155000000Y-134000000D03*
D16*
X155000000Y-137000000D03*
D15*
X160000000Y-131000000D03*
X160000000Y-134000000D03*
D16*
X160000000Y-137000000D03*
D15*
X105000000Y-139000000D03*
X105000000Y-142000000D03*
D16*
X105000000Y-128500000D03*
D15*
X110000000Y-139000000D03*
X110000000Y-142000000D03*
D16*
X110000000Y-128500000D03*
D15*
X115000000Y-139000000D03*
X115000000Y-142000000D03*
D16*
X115000000Y-128500000D03*
D15*
X120000000Y-139000000D03*
X120000000Y-142000000D03*
D16*
X120000000Y-128500000D03*
D15*
X125000000Y-139000000D03*
X125000000Y-142000000D03*
D16*
X125000000Y-128500000D03*
D15*
X130000000Y-139000000D03*
X130000000Y-142000000D03*
D16*
X130000000Y-128500000D03*
D15*
X135000000Y-139000000D03*
X135000000Y-142000000D03*
D16*
X135000000Y-128500000D03*
D15*
X140000000Y-139000000D03*
X140000000Y-142000000D03*
D16*
X140000000Y-128500000D03*
D15*
X145000000Y-139000000D03*
X145000000Y-142000000D03*
D16*
X145000000Y-128500000D03*
D15*
X150000000Y-139000000D03*
X150000000Y-142000000D03*
D16*
X150000000Y-128500000D03*
D15*
X155000000Y-139000000D03*
X155000000Y-142000000D03*
D16*
X155000000Y-128500000D03*
D15*
X160000000Y-139000000D03*
X160000000Y-142000000D03*
D16*
X160000000Y-128500000D03*
D17*
X132500000Y-135000000D03*
%TD*%
D15*
%TO.C,U6*%
X245000000Y-131000000D03*
X245000000Y-134000000D03*
D16*
X245000000Y-137000000D03*
D15*
X250000000Y-131000000D03*
X250000000Y-134000000D03*
D16*
X250000000Y-137000000D03*
D15*
X255000000Y-131000000D03*
X255000000Y-134000000D03*
D16*
X255000000Y-137000000D03*
D15*
X260000000Y-131000000D03*
X260000000Y-134000000D03*
D16*
X260000000Y-137000000D03*
D15*
X265000000Y-131000000D03*
X265000000Y-134000000D03*
D16*
X265000000Y-137000000D03*
D15*
X270000000Y-131000000D03*
X270000000Y-134000000D03*
D16*
X270000000Y-137000000D03*
D15*
X275000000Y-131000000D03*
X275000000Y-134000000D03*
D16*
X275000000Y-137000000D03*
D15*
X280000000Y-131000000D03*
X280000000Y-134000000D03*
D16*
X280000000Y-137000000D03*
D15*
X285000000Y-131000000D03*
X285000000Y-134000000D03*
D16*
X285000000Y-137000000D03*
D15*
X290000000Y-131000000D03*
X290000000Y-134000000D03*
D16*
X290000000Y-137000000D03*
D15*
X295000000Y-131000000D03*
X295000000Y-134000000D03*
D16*
X295000000Y-137000000D03*
D15*
X300000000Y-131000000D03*
X300000000Y-134000000D03*
D16*
X300000000Y-137000000D03*
D15*
X245000000Y-139000000D03*
X245000000Y-142000000D03*
D16*
X245000000Y-128500000D03*
D15*
X250000000Y-139000000D03*
X250000000Y-142000000D03*
D16*
X250000000Y-128500000D03*
D15*
X255000000Y-139000000D03*
X255000000Y-142000000D03*
D16*
X255000000Y-128500000D03*
D15*
X260000000Y-139000000D03*
X260000000Y-142000000D03*
D16*
X260000000Y-128500000D03*
D15*
X265000000Y-139000000D03*
X265000000Y-142000000D03*
D16*
X265000000Y-128500000D03*
D15*
X270000000Y-139000000D03*
X270000000Y-142000000D03*
D16*
X270000000Y-128500000D03*
D15*
X275000000Y-139000000D03*
X275000000Y-142000000D03*
D16*
X275000000Y-128500000D03*
D15*
X280000000Y-139000000D03*
X280000000Y-142000000D03*
D16*
X280000000Y-128500000D03*
D15*
X285000000Y-139000000D03*
X285000000Y-142000000D03*
D16*
X285000000Y-128500000D03*
D15*
X290000000Y-139000000D03*
X290000000Y-142000000D03*
D16*
X290000000Y-128500000D03*
D15*
X295000000Y-139000000D03*
X295000000Y-142000000D03*
D16*
X295000000Y-128500000D03*
D15*
X300000000Y-139000000D03*
X300000000Y-142000000D03*
D16*
X300000000Y-128500000D03*
D17*
X272500000Y-135000000D03*
%TD*%
D15*
%TO.C,U7*%
X105000000Y-241000000D03*
X105000000Y-244000000D03*
D16*
X105000000Y-247000000D03*
D15*
X110000000Y-241000000D03*
X110000000Y-244000000D03*
D16*
X110000000Y-247000000D03*
D15*
X115000000Y-241000000D03*
X115000000Y-244000000D03*
D16*
X115000000Y-247000000D03*
D15*
X120000000Y-241000000D03*
X120000000Y-244000000D03*
D16*
X120000000Y-247000000D03*
D15*
X125000000Y-241000000D03*
X125000000Y-244000000D03*
D16*
X125000000Y-247000000D03*
D15*
X130000000Y-241000000D03*
X130000000Y-244000000D03*
D16*
X130000000Y-247000000D03*
D15*
X135000000Y-241000000D03*
X135000000Y-244000000D03*
D16*
X135000000Y-247000000D03*
D15*
X140000000Y-241000000D03*
X140000000Y-244000000D03*
D16*
X140000000Y-247000000D03*
D15*
X145000000Y-241000000D03*
X145000000Y-244000000D03*
D16*
X145000000Y-247000000D03*
D15*
X150000000Y-241000000D03*
X150000000Y-244000000D03*
D16*
X150000000Y-247000000D03*
D15*
X155000000Y-241000000D03*
X155000000Y-244000000D03*
D16*
X155000000Y-247000000D03*
D15*
X160000000Y-241000000D03*
X160000000Y-244000000D03*
D16*
X160000000Y-247000000D03*
D15*
X105000000Y-249000000D03*
X105000000Y-252000000D03*
D16*
X105000000Y-238500000D03*
D15*
X110000000Y-249000000D03*
X110000000Y-252000000D03*
D16*
X110000000Y-238500000D03*
D15*
X115000000Y-249000000D03*
X115000000Y-252000000D03*
D16*
X115000000Y-238500000D03*
D15*
X120000000Y-249000000D03*
X120000000Y-252000000D03*
D16*
X120000000Y-238500000D03*
D15*
X125000000Y-249000000D03*
X125000000Y-252000000D03*
D16*
X125000000Y-238500000D03*
D15*
X130000000Y-249000000D03*
X130000000Y-252000000D03*
D16*
X130000000Y-238500000D03*
D15*
X135000000Y-249000000D03*
X135000000Y-252000000D03*
D16*
X135000000Y-238500000D03*
D15*
X140000000Y-249000000D03*
X140000000Y-252000000D03*
D16*
X140000000Y-238500000D03*
D15*
X145000000Y-249000000D03*
X145000000Y-252000000D03*
D16*
X145000000Y-238500000D03*
D15*
X150000000Y-249000000D03*
X150000000Y-252000000D03*
D16*
X150000000Y-238500000D03*
D15*
X155000000Y-249000000D03*
X155000000Y-252000000D03*
D16*
X155000000Y-238500000D03*
D15*
X160000000Y-249000000D03*
X160000000Y-252000000D03*
D16*
X160000000Y-238500000D03*
D17*
X132500000Y-245000000D03*
%TD*%
D15*
%TO.C,U8*%
X245000000Y-241000000D03*
X245000000Y-244000000D03*
D16*
X245000000Y-247000000D03*
D15*
X250000000Y-241000000D03*
X250000000Y-244000000D03*
D16*
X250000000Y-247000000D03*
D15*
X255000000Y-241000000D03*
X255000000Y-244000000D03*
D16*
X255000000Y-247000000D03*
D15*
X260000000Y-241000000D03*
X260000000Y-244000000D03*
D16*
X260000000Y-247000000D03*
D15*
X265000000Y-241000000D03*
X265000000Y-244000000D03*
D16*
X265000000Y-247000000D03*
D15*
X270000000Y-241000000D03*
X270000000Y-244000000D03*
D16*
X270000000Y-247000000D03*
D15*
X275000000Y-241000000D03*
X275000000Y-244000000D03*
D16*
X275000000Y-247000000D03*
D15*
X280000000Y-241000000D03*
X280000000Y-244000000D03*
D16*
X280000000Y-247000000D03*
D15*
X285000000Y-241000000D03*
X285000000Y-244000000D03*
D16*
X285000000Y-247000000D03*
D15*
X290000000Y-241000000D03*
X290000000Y-244000000D03*
D16*
X290000000Y-247000000D03*
D15*
X295000000Y-241000000D03*
X295000000Y-244000000D03*
D16*
X295000000Y-247000000D03*
D15*
X300000000Y-241000000D03*
X300000000Y-244000000D03*
D16*
X300000000Y-247000000D03*
D15*
X245000000Y-249000000D03*
X245000000Y-252000000D03*
D16*
X245000000Y-238500000D03*
D15*
X250000000Y-249000000D03*
X250000000Y-252000000D03*
D16*
X250000000Y-238500000D03*
D15*
X255000000Y-249000000D03*
X255000000Y-252000000D03*
D16*
X255000000Y-238500000D03*
D15*
X260000000Y-249000000D03*
X260000000Y-252000000D03*
D16*
X260000000Y-238500000D03*
D15*
X265000000Y-249000000D03*
X265000000Y-252000000D03*
D16*
X265000000Y-238500000D03*
D15*
X270000000Y-249000000D03*
X270000000Y-252000000D03*
D16*
X270000000Y-238500000D03*
D15*
X275000000Y-249000000D03*
X275000000Y-252000000D03*
D16*
X275000000Y-238500000D03*
D15*
X280000000Y-249000000D03*
X280000000Y-252000000D03*
D16*
X280000000Y-238500000D03*
D15*
X285000000Y-249000000D03*
X285000000Y-252000000D03*
D16*
X285000000Y-238500000D03*
D15*
X290000000Y-249000000D03*
X290000000Y-252000000D03*
D16*
X290000000Y-238500000D03*
D15*
X295000000Y-249000000D03*
X295000000Y-252000000D03*
D16*
X295000000Y-238500000D03*
D15*
X300000000Y-249000000D03*
X300000000Y-252000000D03*
D16*
X300000000Y-238500000D03*
D17*
X272500000Y-245000000D03*
%TD*%
D18*
%TO.C,J1*%
X49500000Y-75000000D03*
X50500000Y-75000000D03*
X51500000Y-75000000D03*
X52500000Y-75000000D03*
X53500000Y-75000000D03*
X54500000Y-75000000D03*
X55500000Y-75000000D03*
X56500000Y-75000000D03*
X57500000Y-75000000D03*
X58500000Y-75000000D03*
X59500000Y-75000000D03*
X60500000Y-75000000D03*
X61500000Y-75000000D03*
X62500000Y-75000000D03*
X63500000Y-75000000D03*
X64500000Y-75000000D03*
X65500000Y-75000000D03*
X66500000Y-75000000D03*
X67500000Y-75000000D03*
X68500000Y-75000000D03*
X69500000Y-75000000D03*
X70500000Y-75000000D03*
X71500000Y-75000000D03*
X72500000Y-75000000D03*
X73500000Y-75000000D03*
X74500000Y-75000000D03*
X75500000Y-75000000D03*
X76500000Y-75000000D03*
X77500000Y-75000000D03*
X78500000Y-75000000D03*
X79500000Y-75000000D03*
X80500000Y-75000000D03*
X81500000Y-75000000D03*
X82500000Y-75000000D03*
X83500000Y-75000000D03*
X84500000Y-75000000D03*
X85500000Y-75000000D03*
X86500000Y-75000000D03*
X87500000Y-75000000D03*
X88500000Y-75000000D03*
X89500000Y-75000000D03*
X90500000Y-75000000D03*
X91500000Y-75000000D03*
X92500000Y-75000000D03*
X93500000Y-75000000D03*
X94500000Y-75000000D03*
X95500000Y-75000000D03*
X96500000Y-75000000D03*
X97500000Y-75000000D03*
X98500000Y-75000000D03*
X99500000Y-75000000D03*
X100500000Y-75000000D03*
X101500000Y-75000000D03*
X102500000Y-75000000D03*
X103500000Y-75000000D03*
X104500000Y-75000000D03*
X105500000Y-75000000D03*
X106500000Y-75000000D03*
X107500000Y-75000000D03*
X108500000Y-75000000D03*
X109500000Y-75000000D03*
X110500000Y-75000000D03*
X111500000Y-75000000D03*
X112500000Y-75000000D03*
X113500000Y-75000000D03*
X114500000Y-75000000D03*
X115500000Y-75000000D03*
X116500000Y-75000000D03*
X117500000Y-75000000D03*
X118500000Y-75000000D03*
X119500000Y-75000000D03*
X120500000Y-75000000D03*
X121500000Y-75000000D03*
X122500000Y-75000000D03*
X123500000Y-75000000D03*
X124500000Y-75000000D03*
X125500000Y-75000000D03*
X126500000Y-75000000D03*
X127500000Y-75000000D03*
X128500000Y-75000000D03*
X129500000Y-75000000D03*
X130500000Y-75000000D03*
X49500000Y-78000000D03*
X50500000Y-78000000D03*
X51500000Y-78000000D03*
X52500000Y-78000000D03*
X53500000Y-78000000D03*
X54500000Y-78000000D03*
X55500000Y-78000000D03*
X56500000Y-78000000D03*
X57500000Y-78000000D03*
X58500000Y-78000000D03*
X59500000Y-78000000D03*
X60500000Y-78000000D03*
X61500000Y-78000000D03*
X62500000Y-78000000D03*
X63500000Y-78000000D03*
X64500000Y-78000000D03*
X65500000Y-78000000D03*
X66500000Y-78000000D03*
X67500000Y-78000000D03*
X68500000Y-78000000D03*
X69500000Y-78000000D03*
X70500000Y-78000000D03*
X71500000Y-78000000D03*
X72500000Y-78000000D03*
X73500000Y-78000000D03*
X74500000Y-78000000D03*
X75500000Y-78000000D03*
X76500000Y-78000000D03*
X77500000Y-78000000D03*
X78500000Y-78000000D03*
X79500000Y-78000000D03*
X80500000Y-78000000D03*
X81500000Y-78000000D03*
X82500000Y-78000000D03*
X83500000Y-78000000D03*
X84500000Y-78000000D03*
X85500000Y-78000000D03*
X86500000Y-78000000D03*
X87500000Y-78000000D03*
X88500000Y-78000000D03*
X89500000Y-78000000D03*
X90500000Y-78000000D03*
X91500000Y-78000000D03*
X92500000Y-78000000D03*
X93500000Y-78000000D03*
X94500000Y-78000000D03*
X95500000Y-78000000D03*
X96500000Y-78000000D03*
X97500000Y-78000000D03*
X98500000Y-78000000D03*
X99500000Y-78000000D03*
X100500000Y-78000000D03*
X101500000Y-78000000D03*
X102500000Y-78000000D03*
X103500000Y-78000000D03*
X104500000Y-78000000D03*
X105500000Y-78000000D03*
X106500000Y-78000000D03*
X107500000Y-78000000D03*
X108500000Y-78000000D03*
X109500000Y-78000000D03*
X110500000Y-78000000D03*
X111500000Y-78000000D03*
X112500000Y-78000000D03*
X113500000Y-78000000D03*
X114500000Y-78000000D03*
X115500000Y-78000000D03*
X116500000Y-78000000D03*
X117500000Y-78000000D03*
X118500000Y-78000000D03*
X119500000Y-78000000D03*
X120500000Y-78000000D03*
X121500000Y-78000000D03*
X122500000Y-78000000D03*
X123500000Y-78000000D03*
X124500000Y-78000000D03*
X125500000Y-78000000D03*
X126500000Y-78000000D03*
X127500000Y-78000000D03*
X128500000Y-78000000D03*
X129500000Y-78000000D03*
X130500000Y-78000000D03*
D19*
X44500000Y-76500000D03*
X135500000Y-76500000D03*
%TD*%
D18*
%TO.C,J2*%
X119500000Y-75000000D03*
X120500000Y-75000000D03*
X121500000Y-75000000D03*
X122500000Y-75000000D03*
X123500000Y-75000000D03*
X124500000Y-75000000D03*
X125500000Y-75000000D03*
X126500000Y-75000000D03*
X127500000Y-75000000D03*
X128500000Y-75000000D03*
X129500000Y-75000000D03*
X130500000Y-75000000D03*
X131500000Y-75000000D03*
X132500000Y-75000000D03*
X133500000Y-75000000D03*
X134500000Y-75000000D03*
X135500000Y-75000000D03*
X136500000Y-75000000D03*
X137500000Y-75000000D03*
X138500000Y-75000000D03*
X139500000Y-75000000D03*
X140500000Y-75000000D03*
X141500000Y-75000000D03*
X142500000Y-75000000D03*
X143500000Y-75000000D03*
X144500000Y-75000000D03*
X145500000Y-75000000D03*
X146500000Y-75000000D03*
X147500000Y-75000000D03*
X148500000Y-75000000D03*
X149500000Y-75000000D03*
X150500000Y-75000000D03*
X151500000Y-75000000D03*
X152500000Y-75000000D03*
X153500000Y-75000000D03*
X154500000Y-75000000D03*
X155500000Y-75000000D03*
X156500000Y-75000000D03*
X157500000Y-75000000D03*
X158500000Y-75000000D03*
X159500000Y-75000000D03*
X160500000Y-75000000D03*
X161500000Y-75000000D03*
X162500000Y-75000000D03*
X163500000Y-75000000D03*
X164500000Y-75000000D03*
X165500000Y-75000000D03*
X166500000Y-75000000D03*
X167500000Y-75000000D03*
X168500000Y-75000000D03*
X169500000Y-75000000D03*
X170500000Y-75000000D03*
X171500000Y-75000000D03*
X172500000Y-75000000D03*
X173500000Y-75000000D03*
X174500000Y-75000000D03*
X175500000Y-75000000D03*
X176500000Y-75000000D03*
X177500000Y-75000000D03*
X178500000Y-75000000D03*
X179500000Y-75000000D03*
X180500000Y-75000000D03*
X181500000Y-75000000D03*
X182500000Y-75000000D03*
X183500000Y-75000000D03*
X184500000Y-75000000D03*
X185500000Y-75000000D03*
X186500000Y-75000000D03*
X187500000Y-75000000D03*
X188500000Y-75000000D03*
X189500000Y-75000000D03*
X190500000Y-75000000D03*
X191500000Y-75000000D03*
X192500000Y-75000000D03*
X193500000Y-75000000D03*
X194500000Y-75000000D03*
X195500000Y-75000000D03*
X196500000Y-75000000D03*
X197500000Y-75000000D03*
X198500000Y-75000000D03*
X199500000Y-75000000D03*
X200500000Y-75000000D03*
X119500000Y-78000000D03*
X120500000Y-78000000D03*
X121500000Y-78000000D03*
X122500000Y-78000000D03*
X123500000Y-78000000D03*
X124500000Y-78000000D03*
X125500000Y-78000000D03*
X126500000Y-78000000D03*
X127500000Y-78000000D03*
X128500000Y-78000000D03*
X129500000Y-78000000D03*
X130500000Y-78000000D03*
X131500000Y-78000000D03*
X132500000Y-78000000D03*
X133500000Y-78000000D03*
X134500000Y-78000000D03*
X135500000Y-78000000D03*
X136500000Y-78000000D03*
X137500000Y-78000000D03*
X138500000Y-78000000D03*
X139500000Y-78000000D03*
X140500000Y-78000000D03*
X141500000Y-78000000D03*
X142500000Y-78000000D03*
X143500000Y-78000000D03*
X144500000Y-78000000D03*
X145500000Y-78000000D03*
X146500000Y-78000000D03*
X147500000Y-78000000D03*
X148500000Y-78000000D03*
X149500000Y-78000000D03*
X150500000Y-78000000D03*
X151500000Y-78000000D03*
X152500000Y-78000000D03*
X153500000Y-78000000D03*
X154500000Y-78000000D03*
X155500000Y-78000000D03*
X156500000Y-78000000D03*
X157500000Y-78000000D03*
X158500000Y-78000000D03*
X159500000Y-78000000D03*
X160500000Y-78000000D03*
X161500000Y-78000000D03*
X162500000Y-78000000D03*
X163500000Y-78000000D03*
X164500000Y-78000000D03*
X165500000Y-78000000D03*
X166500000Y-78000000D03*
X167500000Y-78000000D03*
X168500000Y-78000000D03*
X169500000Y-78000000D03*
X170500000Y-78000000D03*
X171500000Y-78000000D03*
X172500000Y-78000000D03*
X173500000Y-78000000D03*
X174500000Y-78000000D03*
X175500000Y-78000000D03*
X176500000Y-78000000D03*
X177500000Y-78000000D03*
X178500000Y-78000000D03*
X179500000Y-78000000D03*
X180500000Y-78000000D03*
X181500000Y-78000000D03*
X182500000Y-78000000D03*
X183500000Y-78000000D03*
X184500000Y-78000000D03*
X185500000Y-78000000D03*
X186500000Y-78000000D03*
X187500000Y-78000000D03*
X188500000Y-78000000D03*
X189500000Y-78000000D03*
X190500000Y-78000000D03*
X191500000Y-78000000D03*
X192500000Y-78000000D03*
X193500000Y-78000000D03*
X194500000Y-78000000D03*
X195500000Y-78000000D03*
X196500000Y-78000000D03*
X197500000Y-78000000D03*
X198500000Y-78000000D03*
X199500000Y-78000000D03*
X200500000Y-78000000D03*
D19*
X114500000Y-76500000D03*
X205500000Y-76500000D03*
%TD*%
D18*
%TO.C,J3*%
X189500000Y-75000000D03*
X190500000Y-75000000D03*
X191500000Y-75000000D03*
X192500000Y-75000000D03*
X193500000Y-75000000D03*
X194500000Y-75000000D03*
X195500000Y-75000000D03*
X196500000Y-75000000D03*
X197500000Y-75000000D03*
X198500000Y-75000000D03*
X199500000Y-75000000D03*
X200500000Y-75000000D03*
X201500000Y-75000000D03*
X202500000Y-75000000D03*
X203500000Y-75000000D03*
X204500000Y-75000000D03*
X205500000Y-75000000D03*
X206500000Y-75000000D03*
X207500000Y-75000000D03*
X208500000Y-75000000D03*
X209500000Y-75000000D03*
X210500000Y-75000000D03*
X211500000Y-75000000D03*
X212500000Y-75000000D03*
X213500000Y-75000000D03*
X214500000Y-75000000D03*
X215500000Y-75000000D03*
X216500000Y-75000000D03*
X217500000Y-75000000D03*
X218500000Y-75000000D03*
X219500000Y-75000000D03*
X220500000Y-75000000D03*
X221500000Y-75000000D03*
X222500000Y-75000000D03*
X223500000Y-75000000D03*
X224500000Y-75000000D03*
X225500000Y-75000000D03*
X226500000Y-75000000D03*
X227500000Y-75000000D03*
X228500000Y-75000000D03*
X229500000Y-75000000D03*
X230500000Y-75000000D03*
X231500000Y-75000000D03*
X232500000Y-75000000D03*
X233500000Y-75000000D03*
X234500000Y-75000000D03*
X235500000Y-75000000D03*
X236500000Y-75000000D03*
X237500000Y-75000000D03*
X238500000Y-75000000D03*
X239500000Y-75000000D03*
X240500000Y-75000000D03*
X241500000Y-75000000D03*
X242500000Y-75000000D03*
X243500000Y-75000000D03*
X244500000Y-75000000D03*
X245500000Y-75000000D03*
X246500000Y-75000000D03*
X247500000Y-75000000D03*
X248500000Y-75000000D03*
X249500000Y-75000000D03*
X250500000Y-75000000D03*
X251500000Y-75000000D03*
X252500000Y-75000000D03*
X253500000Y-75000000D03*
X254500000Y-75000000D03*
X255500000Y-75000000D03*
X256500000Y-75000000D03*
X257500000Y-75000000D03*
X258500000Y-75000000D03*
X259500000Y-75000000D03*
X260500000Y-75000000D03*
X261500000Y-75000000D03*
X262500000Y-75000000D03*
X263500000Y-75000000D03*
X264500000Y-75000000D03*
X265500000Y-75000000D03*
X266500000Y-75000000D03*
X267500000Y-75000000D03*
X268500000Y-75000000D03*
X269500000Y-75000000D03*
X270500000Y-75000000D03*
X189500000Y-78000000D03*
X190500000Y-78000000D03*
X191500000Y-78000000D03*
X192500000Y-78000000D03*
X193500000Y-78000000D03*
X194500000Y-78000000D03*
X195500000Y-78000000D03*
X196500000Y-78000000D03*
X197500000Y-78000000D03*
X198500000Y-78000000D03*
X199500000Y-78000000D03*
X200500000Y-78000000D03*
X201500000Y-78000000D03*
X202500000Y-78000000D03*
X203500000Y-78000000D03*
X204500000Y-78000000D03*
X205500000Y-78000000D03*
X206500000Y-78000000D03*
X207500000Y-78000000D03*
X208500000Y-78000000D03*
X209500000Y-78000000D03*
X210500000Y-78000000D03*
X211500000Y-78000000D03*
X212500000Y-78000000D03*
X213500000Y-78000000D03*
X214500000Y-78000000D03*
X215500000Y-78000000D03*
X216500000Y-78000000D03*
X217500000Y-78000000D03*
X218500000Y-78000000D03*
X219500000Y-78000000D03*
X220500000Y-78000000D03*
X221500000Y-78000000D03*
X222500000Y-78000000D03*
X223500000Y-78000000D03*
X224500000Y-78000000D03*
X225500000Y-78000000D03*
X226500000Y-78000000D03*
X227500000Y-78000000D03*
X228500000Y-78000000D03*
X229500000Y-78000000D03*
X230500000Y-78000000D03*
X231500000Y-78000000D03*
X232500000Y-78000000D03*
X233500000Y-78000000D03*
X234500000Y-78000000D03*
X235500000Y-78000000D03*
X236500000Y-78000000D03*
X237500000Y-78000000D03*
X238500000Y-78000000D03*
X239500000Y-78000000D03*
X240500000Y-78000000D03*
X241500000Y-78000000D03*
X242500000Y-78000000D03*
X243500000Y-78000000D03*
X244500000Y-78000000D03*
X245500000Y-78000000D03*
X246500000Y-78000000D03*
X247500000Y-78000000D03*
X248500000Y-78000000D03*
X249500000Y-78000000D03*
X250500000Y-78000000D03*
X251500000Y-78000000D03*
X252500000Y-78000000D03*
X253500000Y-78000000D03*
X254500000Y-78000000D03*
X255500000Y-78000000D03*
X256500000Y-78000000D03*
X257500000Y-78000000D03*
X258500000Y-78000000D03*
X259500000Y-78000000D03*
X260500000Y-78000000D03*
X261500000Y-78000000D03*
X262500000Y-78000000D03*
X263500000Y-78000000D03*
X264500000Y-78000000D03*
X265500000Y-78000000D03*
X266500000Y-78000000D03*
X267500000Y-78000000D03*
X268500000Y-78000000D03*
X269500000Y-78000000D03*
X270500000Y-78000000D03*
D19*
X184500000Y-76500000D03*
X275500000Y-76500000D03*
%TD*%
D18*
%TO.C,J4*%
X259500000Y-75000000D03*
X260500000Y-75000000D03*
X261500000Y-75000000D03*
X262500000Y-75000000D03*
X263500000Y-75000000D03*
X264500000Y-75000000D03*
X265500000Y-75000000D03*
X266500000Y-75000000D03*
X267500000Y-75000000D03*
X268500000Y-75000000D03*
X269500000Y-75000000D03*
X270500000Y-75000000D03*
X271500000Y-75000000D03*
X272500000Y-75000000D03*
X273500000Y-75000000D03*
X274500000Y-75000000D03*
X275500000Y-75000000D03*
X276500000Y-75000000D03*
X277500000Y-75000000D03*
X278500000Y-75000000D03*
X279500000Y-75000000D03*
X280500000Y-75000000D03*
X281500000Y-75000000D03*
X282500000Y-75000000D03*
X283500000Y-75000000D03*
X284500000Y-75000000D03*
X285500000Y-75000000D03*
X286500000Y-75000000D03*
X287500000Y-75000000D03*
X288500000Y-75000000D03*
X289500000Y-75000000D03*
X290500000Y-75000000D03*
X291500000Y-75000000D03*
X292500000Y-75000000D03*
X293500000Y-75000000D03*
X294500000Y-75000000D03*
X295500000Y-75000000D03*
X296500000Y-75000000D03*
X297500000Y-75000000D03*
X298500000Y-75000000D03*
X299500000Y-75000000D03*
X300500000Y-75000000D03*
X301500000Y-75000000D03*
X302500000Y-75000000D03*
X303500000Y-75000000D03*
X304500000Y-75000000D03*
X305500000Y-75000000D03*
X306500000Y-75000000D03*
X307500000Y-75000000D03*
X308500000Y-75000000D03*
X309500000Y-75000000D03*
X310500000Y-75000000D03*
X311500000Y-75000000D03*
X312500000Y-75000000D03*
X313500000Y-75000000D03*
X314500000Y-75000000D03*
X315500000Y-75000000D03*
X316500000Y-75000000D03*
X317500000Y-75000000D03*
X318500000Y-75000000D03*
X319500000Y-75000000D03*
X320500000Y-75000000D03*
X321500000Y-75000000D03*
X322500000Y-75000000D03*
X323500000Y-75000000D03*
X324500000Y-75000000D03*
X325500000Y-75000000D03*
X326500000Y-75000000D03*
X327500000Y-75000000D03*
X328500000Y-75000000D03*
X329500000Y-75000000D03*
X330500000Y-75000000D03*
X331500000Y-75000000D03*
X332500000Y-75000000D03*
X333500000Y-75000000D03*
X334500000Y-75000000D03*
X335500000Y-75000000D03*
X336500000Y-75000000D03*
X337500000Y-75000000D03*
X338500000Y-75000000D03*
X339500000Y-75000000D03*
X340500000Y-75000000D03*
X259500000Y-78000000D03*
X260500000Y-78000000D03*
X261500000Y-78000000D03*
X262500000Y-78000000D03*
X263500000Y-78000000D03*
X264500000Y-78000000D03*
X265500000Y-78000000D03*
X266500000Y-78000000D03*
X267500000Y-78000000D03*
X268500000Y-78000000D03*
X269500000Y-78000000D03*
X270500000Y-78000000D03*
X271500000Y-78000000D03*
X272500000Y-78000000D03*
X273500000Y-78000000D03*
X274500000Y-78000000D03*
X275500000Y-78000000D03*
X276500000Y-78000000D03*
X277500000Y-78000000D03*
X278500000Y-78000000D03*
X279500000Y-78000000D03*
X280500000Y-78000000D03*
X281500000Y-78000000D03*
X282500000Y-78000000D03*
X283500000Y-78000000D03*
X284500000Y-78000000D03*
X285500000Y-78000000D03*
X286500000Y-78000000D03*
X287500000Y-78000000D03*
X288500000Y-78000000D03*
X289500000Y-78000000D03*
X290500000Y-78000000D03*
X291500000Y-78000000D03*
X292500000Y-78000000D03*
X293500000Y-78000000D03*
X294500000Y-78000000D03*
X295500000Y-78000000D03*
X296500000Y-78000000D03*
X297500000Y-78000000D03*
X298500000Y-78000000D03*
X299500000Y-78000000D03*
X300500000Y-78000000D03*
X301500000Y-78000000D03*
X302500000Y-78000000D03*
X303500000Y-78000000D03*
X304500000Y-78000000D03*
X305500000Y-78000000D03*
X306500000Y-78000000D03*
X307500000Y-78000000D03*
X308500000Y-78000000D03*
X309500000Y-78000000D03*
X310500000Y-78000000D03*
X311500000Y-78000000D03*
X312500000Y-78000000D03*
X313500000Y-78000000D03*
X314500000Y-78000000D03*
X315500000Y-78000000D03*
X316500000Y-78000000D03*
X317500000Y-78000000D03*
X318500000Y-78000000D03*
X319500000Y-78000000D03*
X320500000Y-78000000D03*
X321500000Y-78000000D03*
X322500000Y-78000000D03*
X323500000Y-78000000D03*
X324500000Y-78000000D03*
X325500000Y-78000000D03*
X326500000Y-78000000D03*
X327500000Y-78000000D03*
X328500000Y-78000000D03*
X329500000Y-78000000D03*
X330500000Y-78000000D03*
X331500000Y-78000000D03*
X332500000Y-78000000D03*
X333500000Y-78000000D03*
X334500000Y-78000000D03*
X335500000Y-78000000D03*
X336500000Y-78000000D03*
X337500000Y-78000000D03*
X338500000Y-78000000D03*
X339500000Y-78000000D03*
X340500000Y-78000000D03*
D19*
X254500000Y-76500000D03*
X345500000Y-76500000D03*
%TD*%
D18*
%TO.C,J5*%
X130500000Y-305000000D03*
X129500000Y-305000000D03*
X128500000Y-305000000D03*
X127500000Y-305000000D03*
X126500000Y-305000000D03*
X125500000Y-305000000D03*
X124500000Y-305000000D03*
X123500000Y-305000000D03*
X122500000Y-305000000D03*
X121500000Y-305000000D03*
X120500000Y-305000000D03*
X119500000Y-305000000D03*
X118500000Y-305000000D03*
X117500000Y-305000000D03*
X116500000Y-305000000D03*
X115500000Y-305000000D03*
X114500000Y-305000000D03*
X113500000Y-305000000D03*
X112500000Y-305000000D03*
X111500000Y-305000000D03*
X110500000Y-305000000D03*
X109500000Y-305000000D03*
X108500000Y-305000000D03*
X107500000Y-305000000D03*
X106500000Y-305000000D03*
X105500000Y-305000000D03*
X104500000Y-305000000D03*
X103500000Y-305000000D03*
X102500000Y-305000000D03*
X101500000Y-305000000D03*
X100500000Y-305000000D03*
X99500000Y-305000000D03*
X98500000Y-305000000D03*
X97500000Y-305000000D03*
X96500000Y-305000000D03*
X95500000Y-305000000D03*
X94500000Y-305000000D03*
X93500000Y-305000000D03*
X92500000Y-305000000D03*
X91500000Y-305000000D03*
X90500000Y-305000000D03*
X89500000Y-305000000D03*
X88500000Y-305000000D03*
X87500000Y-305000000D03*
X86500000Y-305000000D03*
X85500000Y-305000000D03*
X84500000Y-305000000D03*
X83500000Y-305000000D03*
X82500000Y-305000000D03*
X81500000Y-305000000D03*
X80500000Y-305000000D03*
X79500000Y-305000000D03*
X78500000Y-305000000D03*
X77500000Y-305000000D03*
X76500000Y-305000000D03*
X75500000Y-305000000D03*
X74500000Y-305000000D03*
X73500000Y-305000000D03*
X72500000Y-305000000D03*
X71500000Y-305000000D03*
X70500000Y-305000000D03*
X69500000Y-305000000D03*
X68500000Y-305000000D03*
X67500000Y-305000000D03*
X66500000Y-305000000D03*
X65500000Y-305000000D03*
X64500000Y-305000000D03*
X63500000Y-305000000D03*
X62500000Y-305000000D03*
X61500000Y-305000000D03*
X60500000Y-305000000D03*
X59500000Y-305000000D03*
X58500000Y-305000000D03*
X57500000Y-305000000D03*
X56500000Y-305000000D03*
X55500000Y-305000000D03*
X54500000Y-305000000D03*
X53500000Y-305000000D03*
X52500000Y-305000000D03*
X51500000Y-305000000D03*
X50500000Y-305000000D03*
X49500000Y-305000000D03*
X130500000Y-302000000D03*
X129500000Y-302000000D03*
X128500000Y-302000000D03*
X127500000Y-302000000D03*
X126500000Y-302000000D03*
X125500000Y-302000000D03*
X124500000Y-302000000D03*
X123500000Y-302000000D03*
X122500000Y-302000000D03*
X121500000Y-302000000D03*
X120500000Y-302000000D03*
X119500000Y-302000000D03*
X118500000Y-302000000D03*
X117500000Y-302000000D03*
X116500000Y-302000000D03*
X115500000Y-302000000D03*
X114500000Y-302000000D03*
X113500000Y-302000000D03*
X112500000Y-302000000D03*
X111500000Y-302000000D03*
X110500000Y-302000000D03*
X109500000Y-302000000D03*
X108500000Y-302000000D03*
X107500000Y-302000000D03*
X106500000Y-302000000D03*
X105500000Y-302000000D03*
X104500000Y-302000000D03*
X103500000Y-302000000D03*
X102500000Y-302000000D03*
X101500000Y-302000000D03*
X100500000Y-302000000D03*
X99500000Y-302000000D03*
X98500000Y-302000000D03*
X97500000Y-302000000D03*
X96500000Y-302000000D03*
X95500000Y-302000000D03*
X94500000Y-302000000D03*
X93500000Y-302000000D03*
X92500000Y-302000000D03*
X91500000Y-302000000D03*
X90500000Y-302000000D03*
X89500000Y-302000000D03*
X88500000Y-302000000D03*
X87500000Y-302000000D03*
X86500000Y-302000000D03*
X85500000Y-302000000D03*
X84500000Y-302000000D03*
X83500000Y-302000000D03*
X82500000Y-302000000D03*
X81500000Y-302000000D03*
X80500000Y-302000000D03*
X79500000Y-302000000D03*
X78500000Y-302000000D03*
X77500000Y-302000000D03*
X76500000Y-302000000D03*
X75500000Y-302000000D03*
X74500000Y-302000000D03*
X73500000Y-302000000D03*
X72500000Y-302000000D03*
X71500000Y-302000000D03*
X70500000Y-302000000D03*
X69500000Y-302000000D03*
X68500000Y-302000000D03*
X67500000Y-302000000D03*
X66500000Y-302000000D03*
X65500000Y-302000000D03*
X64500000Y-302000000D03*
X63500000Y-302000000D03*
X62500000Y-302000000D03*
X61500000Y-302000000D03*
X60500000Y-302000000D03*
X59500000Y-302000000D03*
X58500000Y-302000000D03*
X57500000Y-302000000D03*
X56500000Y-302000000D03*
X55500000Y-302000000D03*
X54500000Y-302000000D03*
X53500000Y-302000000D03*
X52500000Y-302000000D03*
X51500000Y-302000000D03*
X50500000Y-302000000D03*
X49500000Y-302000000D03*
D19*
X135500000Y-303500000D03*
X44500000Y-303500000D03*
%TD*%
D18*
%TO.C,J6*%
X200500000Y-305000000D03*
X199500000Y-305000000D03*
X198500000Y-305000000D03*
X197500000Y-305000000D03*
X196500000Y-305000000D03*
X195500000Y-305000000D03*
X194500000Y-305000000D03*
X193500000Y-305000000D03*
X192500000Y-305000000D03*
X191500000Y-305000000D03*
X190500000Y-305000000D03*
X189500000Y-305000000D03*
X188500000Y-305000000D03*
X187500000Y-305000000D03*
X186500000Y-305000000D03*
X185500000Y-305000000D03*
X184500000Y-305000000D03*
X183500000Y-305000000D03*
X182500000Y-305000000D03*
X181500000Y-305000000D03*
X180500000Y-305000000D03*
X179500000Y-305000000D03*
X178500000Y-305000000D03*
X177500000Y-305000000D03*
X176500000Y-305000000D03*
X175500000Y-305000000D03*
X174500000Y-305000000D03*
X173500000Y-305000000D03*
X172500000Y-305000000D03*
X171500000Y-305000000D03*
X170500000Y-305000000D03*
X169500000Y-305000000D03*
X168500000Y-305000000D03*
X167500000Y-305000000D03*
X166500000Y-305000000D03*
X165500000Y-305000000D03*
X164500000Y-305000000D03*
X163500000Y-305000000D03*
X162500000Y-305000000D03*
X161500000Y-305000000D03*
X160500000Y-305000000D03*
X159500000Y-305000000D03*
X158500000Y-305000000D03*
X157500000Y-305000000D03*
X156500000Y-305000000D03*
X155500000Y-305000000D03*
X154500000Y-305000000D03*
X153500000Y-305000000D03*
X152500000Y-305000000D03*
X151500000Y-305000000D03*
X150500000Y-305000000D03*
X149500000Y-305000000D03*
X148500000Y-305000000D03*
X147500000Y-305000000D03*
X146500000Y-305000000D03*
X145500000Y-305000000D03*
X144500000Y-305000000D03*
X143500000Y-305000000D03*
X142500000Y-305000000D03*
X141500000Y-305000000D03*
X140500000Y-305000000D03*
X139500000Y-305000000D03*
X138500000Y-305000000D03*
X137500000Y-305000000D03*
X136500000Y-305000000D03*
X135500000Y-305000000D03*
X134500000Y-305000000D03*
X133500000Y-305000000D03*
X132500000Y-305000000D03*
X131500000Y-305000000D03*
X130500000Y-305000000D03*
X129500000Y-305000000D03*
X128500000Y-305000000D03*
X127500000Y-305000000D03*
X126500000Y-305000000D03*
X125500000Y-305000000D03*
X124500000Y-305000000D03*
X123500000Y-305000000D03*
X122500000Y-305000000D03*
X121500000Y-305000000D03*
X120500000Y-305000000D03*
X119500000Y-305000000D03*
X200500000Y-302000000D03*
X199500000Y-302000000D03*
X198500000Y-302000000D03*
X197500000Y-302000000D03*
X196500000Y-302000000D03*
X195500000Y-302000000D03*
X194500000Y-302000000D03*
X193500000Y-302000000D03*
X192500000Y-302000000D03*
X191500000Y-302000000D03*
X190500000Y-302000000D03*
X189500000Y-302000000D03*
X188500000Y-302000000D03*
X187500000Y-302000000D03*
X186500000Y-302000000D03*
X185500000Y-302000000D03*
X184500000Y-302000000D03*
X183500000Y-302000000D03*
X182500000Y-302000000D03*
X181500000Y-302000000D03*
X180500000Y-302000000D03*
X179500000Y-302000000D03*
X178500000Y-302000000D03*
X177500000Y-302000000D03*
X176500000Y-302000000D03*
X175500000Y-302000000D03*
X174500000Y-302000000D03*
X173500000Y-302000000D03*
X172500000Y-302000000D03*
X171500000Y-302000000D03*
X170500000Y-302000000D03*
X169500000Y-302000000D03*
X168500000Y-302000000D03*
X167500000Y-302000000D03*
X166500000Y-302000000D03*
X165500000Y-302000000D03*
X164500000Y-302000000D03*
X163500000Y-302000000D03*
X162500000Y-302000000D03*
X161500000Y-302000000D03*
X160500000Y-302000000D03*
X159500000Y-302000000D03*
X158500000Y-302000000D03*
X157500000Y-302000000D03*
X156500000Y-302000000D03*
X155500000Y-302000000D03*
X154500000Y-302000000D03*
X153500000Y-302000000D03*
X152500000Y-302000000D03*
X151500000Y-302000000D03*
X150500000Y-302000000D03*
X149500000Y-302000000D03*
X148500000Y-302000000D03*
X147500000Y-302000000D03*
X146500000Y-302000000D03*
X145500000Y-302000000D03*
X144500000Y-302000000D03*
X143500000Y-302000000D03*
X142500000Y-302000000D03*
X141500000Y-302000000D03*
X140500000Y-302000000D03*
X139500000Y-302000000D03*
X138500000Y-302000000D03*
X137500000Y-302000000D03*
X136500000Y-302000000D03*
X135500000Y-302000000D03*
X134500000Y-302000000D03*
X133500000Y-302000000D03*
X132500000Y-302000000D03*
X131500000Y-302000000D03*
X130500000Y-302000000D03*
X129500000Y-302000000D03*
X128500000Y-302000000D03*
X127500000Y-302000000D03*
X126500000Y-302000000D03*
X125500000Y-302000000D03*
X124500000Y-302000000D03*
X123500000Y-302000000D03*
X122500000Y-302000000D03*
X121500000Y-302000000D03*
X120500000Y-302000000D03*
X119500000Y-302000000D03*
D19*
X205500000Y-303500000D03*
X114500000Y-303500000D03*
%TD*%
D18*
%TO.C,J7*%
X270500000Y-305000000D03*
X269500000Y-305000000D03*
X268500000Y-305000000D03*
X267500000Y-305000000D03*
X266500000Y-305000000D03*
X265500000Y-305000000D03*
X264500000Y-305000000D03*
X263500000Y-305000000D03*
X262500000Y-305000000D03*
X261500000Y-305000000D03*
X260500000Y-305000000D03*
X259500000Y-305000000D03*
X258500000Y-305000000D03*
X257500000Y-305000000D03*
X256500000Y-305000000D03*
X255500000Y-305000000D03*
X254500000Y-305000000D03*
X253500000Y-305000000D03*
X252500000Y-305000000D03*
X251500000Y-305000000D03*
X250500000Y-305000000D03*
X249500000Y-305000000D03*
X248500000Y-305000000D03*
X247500000Y-305000000D03*
X246500000Y-305000000D03*
X245500000Y-305000000D03*
X244500000Y-305000000D03*
X243500000Y-305000000D03*
X242500000Y-305000000D03*
X241500000Y-305000000D03*
X240500000Y-305000000D03*
X239500000Y-305000000D03*
X238500000Y-305000000D03*
X237500000Y-305000000D03*
X236500000Y-305000000D03*
X235500000Y-305000000D03*
X234500000Y-305000000D03*
X233500000Y-305000000D03*
X232500000Y-305000000D03*
X231500000Y-305000000D03*
X230500000Y-305000000D03*
X229500000Y-305000000D03*
X228500000Y-305000000D03*
X227500000Y-305000000D03*
X226500000Y-305000000D03*
X225500000Y-305000000D03*
X224500000Y-305000000D03*
X223500000Y-305000000D03*
X222500000Y-305000000D03*
X221500000Y-305000000D03*
X220500000Y-305000000D03*
X219500000Y-305000000D03*
X218500000Y-305000000D03*
X217500000Y-305000000D03*
X216500000Y-305000000D03*
X215500000Y-305000000D03*
X214500000Y-305000000D03*
X213500000Y-305000000D03*
X212500000Y-305000000D03*
X211500000Y-305000000D03*
X210500000Y-305000000D03*
X209500000Y-305000000D03*
X208500000Y-305000000D03*
X207500000Y-305000000D03*
X206500000Y-305000000D03*
X205500000Y-305000000D03*
X204500000Y-305000000D03*
X203500000Y-305000000D03*
X202500000Y-305000000D03*
X201500000Y-305000000D03*
X200500000Y-305000000D03*
X199500000Y-305000000D03*
X198500000Y-305000000D03*
X197500000Y-305000000D03*
X196500000Y-305000000D03*
X195500000Y-305000000D03*
X194500000Y-305000000D03*
X193500000Y-305000000D03*
X192500000Y-305000000D03*
X191500000Y-305000000D03*
X190500000Y-305000000D03*
X189500000Y-305000000D03*
X270500000Y-302000000D03*
X269500000Y-302000000D03*
X268500000Y-302000000D03*
X267500000Y-302000000D03*
X266500000Y-302000000D03*
X265500000Y-302000000D03*
X264500000Y-302000000D03*
X263500000Y-302000000D03*
X262500000Y-302000000D03*
X261500000Y-302000000D03*
X260500000Y-302000000D03*
X259500000Y-302000000D03*
X258500000Y-302000000D03*
X257500000Y-302000000D03*
X256500000Y-302000000D03*
X255500000Y-302000000D03*
X254500000Y-302000000D03*
X253500000Y-302000000D03*
X252500000Y-302000000D03*
X251500000Y-302000000D03*
X250500000Y-302000000D03*
X249500000Y-302000000D03*
X248500000Y-302000000D03*
X247500000Y-302000000D03*
X246500000Y-302000000D03*
X245500000Y-302000000D03*
X244500000Y-302000000D03*
X243500000Y-302000000D03*
X242500000Y-302000000D03*
X241500000Y-302000000D03*
X240500000Y-302000000D03*
X239500000Y-302000000D03*
X238500000Y-302000000D03*
X237500000Y-302000000D03*
X236500000Y-302000000D03*
X235500000Y-302000000D03*
X234500000Y-302000000D03*
X233500000Y-302000000D03*
X232500000Y-302000000D03*
X231500000Y-302000000D03*
X230500000Y-302000000D03*
X229500000Y-302000000D03*
X228500000Y-302000000D03*
X227500000Y-302000000D03*
X226500000Y-302000000D03*
X225500000Y-302000000D03*
X224500000Y-302000000D03*
X223500000Y-302000000D03*
X222500000Y-302000000D03*
X221500000Y-302000000D03*
X220500000Y-302000000D03*
X219500000Y-302000000D03*
X218500000Y-302000000D03*
X217500000Y-302000000D03*
X216500000Y-302000000D03*
X215500000Y-302000000D03*
X214500000Y-302000000D03*
X213500000Y-302000000D03*
X212500000Y-302000000D03*
X211500000Y-302000000D03*
X210500000Y-302000000D03*
X209500000Y-302000000D03*
X208500000Y-302000000D03*
X207500000Y-302000000D03*
X206500000Y-302000000D03*
X205500000Y-302000000D03*
X204500000Y-302000000D03*
X203500000Y-302000000D03*
X202500000Y-302000000D03*
X201500000Y-302000000D03*
X200500000Y-302000000D03*
X199500000Y-302000000D03*
X198500000Y-302000000D03*
X197500000Y-302000000D03*
X196500000Y-302000000D03*
X195500000Y-302000000D03*
X194500000Y-302000000D03*
X193500000Y-302000000D03*
X192500000Y-302000000D03*
X191500000Y-302000000D03*
X190500000Y-302000000D03*
X189500000Y-302000000D03*
D19*
X275500000Y-303500000D03*
X184500000Y-303500000D03*
%TD*%
D18*
%TO.C,J8*%
X340500000Y-305000000D03*
X339500000Y-305000000D03*
X338500000Y-305000000D03*
X337500000Y-305000000D03*
X336500000Y-305000000D03*
X335500000Y-305000000D03*
X334500000Y-305000000D03*
X333500000Y-305000000D03*
X332500000Y-305000000D03*
X331500000Y-305000000D03*
X330500000Y-305000000D03*
X329500000Y-305000000D03*
X328500000Y-305000000D03*
X327500000Y-305000000D03*
X326500000Y-305000000D03*
X325500000Y-305000000D03*
X324500000Y-305000000D03*
X323500000Y-305000000D03*
X322500000Y-305000000D03*
X321500000Y-305000000D03*
X320500000Y-305000000D03*
X319500000Y-305000000D03*
X318500000Y-305000000D03*
X317500000Y-305000000D03*
X316500000Y-305000000D03*
X315500000Y-305000000D03*
X314500000Y-305000000D03*
X313500000Y-305000000D03*
X312500000Y-305000000D03*
X311500000Y-305000000D03*
X310500000Y-305000000D03*
X309500000Y-305000000D03*
X308500000Y-305000000D03*
X307500000Y-305000000D03*
X306500000Y-305000000D03*
X305500000Y-305000000D03*
X304500000Y-305000000D03*
X303500000Y-305000000D03*
X302500000Y-305000000D03*
X301500000Y-305000000D03*
X300500000Y-305000000D03*
X299500000Y-305000000D03*
X298500000Y-305000000D03*
X297500000Y-305000000D03*
X296500000Y-305000000D03*
X295500000Y-305000000D03*
X294500000Y-305000000D03*
X293500000Y-305000000D03*
X292500000Y-305000000D03*
X291500000Y-305000000D03*
X290500000Y-305000000D03*
X289500000Y-305000000D03*
X288500000Y-305000000D03*
X287500000Y-305000000D03*
X286500000Y-305000000D03*
X285500000Y-305000000D03*
X284500000Y-305000000D03*
X283500000Y-305000000D03*
X282500000Y-305000000D03*
X281500000Y-305000000D03*
X280500000Y-305000000D03*
X279500000Y-305000000D03*
X278500000Y-305000000D03*
X277500000Y-305000000D03*
X276500000Y-305000000D03*
X275500000Y-305000000D03*
X274500000Y-305000000D03*
X273500000Y-305000000D03*
X272500000Y-305000000D03*
X271500000Y-305000000D03*
X270500000Y-305000000D03*
X269500000Y-305000000D03*
X268500000Y-305000000D03*
X267500000Y-305000000D03*
X266500000Y-305000000D03*
X265500000Y-305000000D03*
X264500000Y-305000000D03*
X263500000Y-305000000D03*
X262500000Y-305000000D03*
X261500000Y-305000000D03*
X260500000Y-305000000D03*
X259500000Y-305000000D03*
X340500000Y-302000000D03*
X339500000Y-302000000D03*
X338500000Y-302000000D03*
X337500000Y-302000000D03*
X336500000Y-302000000D03*
X335500000Y-302000000D03*
X334500000Y-302000000D03*
X333500000Y-302000000D03*
X332500000Y-302000000D03*
X331500000Y-302000000D03*
X330500000Y-302000000D03*
X329500000Y-302000000D03*
X328500000Y-302000000D03*
X327500000Y-302000000D03*
X326500000Y-302000000D03*
X325500000Y-302000000D03*
X324500000Y-302000000D03*
X323500000Y-302000000D03*
X322500000Y-302000000D03*
X321500000Y-302000000D03*
X320500000Y-302000000D03*
X319500000Y-302000000D03*
X318500000Y-302000000D03*
X317500000Y-302000000D03*
X316500000Y-302000000D03*
X315500000Y-302000000D03*
X314500000Y-302000000D03*
X313500000Y-302000000D03*
X312500000Y-302000000D03*
X311500000Y-302000000D03*
X310500000Y-302000000D03*
X309500000Y-302000000D03*
X308500000Y-302000000D03*
X307500000Y-302000000D03*
X306500000Y-302000000D03*
X305500000Y-302000000D03*
X304500000Y-302000000D03*
X303500000Y-302000000D03*
X302500000Y-302000000D03*
X301500000Y-302000000D03*
X300500000Y-302000000D03*
X299500000Y-302000000D03*
X298500000Y-302000000D03*
X297500000Y-302000000D03*
X296500000Y-302000000D03*
X295500000Y-302000000D03*
X294500000Y-302000000D03*
X293500000Y-302000000D03*
X292500000Y-302000000D03*
X291500000Y-302000000D03*
X290500000Y-302000000D03*
X289500000Y-302000000D03*
X288500000Y-302000000D03*
X287500000Y-302000000D03*
X286500000Y-302000000D03*
X285500000Y-302000000D03*
X284500000Y-302000000D03*
X283500000Y-302000000D03*
X282500000Y-302000000D03*
X281500000Y-302000000D03*
X280500000Y-302000000D03*
X279500000Y-302000000D03*
X278500000Y-302000000D03*
X277500000Y-302000000D03*
X276500000Y-302000000D03*
X275500000Y-302000000D03*
X274500000Y-302000000D03*
X273500000Y-302000000D03*
X272500000Y-302000000D03*
X271500000Y-302000000D03*
X270500000Y-302000000D03*
X269500000Y-302000000D03*
X268500000Y-302000000D03*
X267500000Y-302000000D03*
X266500000Y-302000000D03*
X265500000Y-302000000D03*
X264500000Y-302000000D03*
X263500000Y-302000000D03*
X262500000Y-302000000D03*
X261500000Y-302000000D03*
X260500000Y-302000000D03*
X259500000Y-302000000D03*
D19*
X345500000Y-303500000D03*
X254500000Y-303500000D03*
%TD*%
D20*
%TO.C,J9*%
X112500000Y-240775000D03*
X112500000Y-239925000D03*
X112500000Y-239075000D03*
X112500000Y-238225000D03*
X112500000Y-237375000D03*
X112500000Y-236525000D03*
X112500000Y-235675000D03*
X112500000Y-234825000D03*
X112500000Y-233975000D03*
X112500000Y-233125000D03*
X112500000Y-232275000D03*
X112500000Y-231425000D03*
X112500000Y-230575000D03*
X112500000Y-229725000D03*
X112500000Y-228875000D03*
X112500000Y-228025000D03*
X112500000Y-227175000D03*
X112500000Y-226325000D03*
X112500000Y-225475000D03*
X112500000Y-224625000D03*
X112500000Y-223775000D03*
X112500000Y-222925000D03*
X112500000Y-222075000D03*
X112500000Y-221225000D03*
X112500000Y-220375000D03*
X112500000Y-219525000D03*
X112500000Y-218675000D03*
X112500000Y-217825000D03*
X112500000Y-216975000D03*
X112500000Y-216125000D03*
X112500000Y-215275000D03*
X112500000Y-214425000D03*
X112500000Y-213575000D03*
X112500000Y-212725000D03*
X112500000Y-211875000D03*
X112500000Y-211025000D03*
X112500000Y-210175000D03*
X112500000Y-209325000D03*
X112500000Y-208475000D03*
X112500000Y-207625000D03*
X112500000Y-206775000D03*
X112500000Y-205925000D03*
X112500000Y-205075000D03*
X112500000Y-204225000D03*
X112500000Y-203375000D03*
X112500000Y-202525000D03*
X112500000Y-201675000D03*
X112500000Y-200825000D03*
X112500000Y-199975000D03*
X112500000Y-199125000D03*
X112500000Y-198275000D03*
X112500000Y-197425000D03*
X112500000Y-196575000D03*
X112500000Y-195725000D03*
X112500000Y-194875000D03*
X112500000Y-194025000D03*
X112500000Y-193175000D03*
X112500000Y-192325000D03*
X112500000Y-191475000D03*
X112500000Y-190625000D03*
X112500000Y-189775000D03*
X112500000Y-188925000D03*
X112500000Y-188075000D03*
X112500000Y-187225000D03*
X112500000Y-186375000D03*
X112500000Y-185525000D03*
X112500000Y-184675000D03*
X112500000Y-183825000D03*
X112500000Y-182975000D03*
X112500000Y-182125000D03*
X112500000Y-181275000D03*
X112500000Y-180425000D03*
X112500000Y-179575000D03*
X112500000Y-178725000D03*
X112500000Y-177875000D03*
X112500000Y-177025000D03*
X112500000Y-176175000D03*
X112500000Y-175325000D03*
X112500000Y-174475000D03*
X112500000Y-173625000D03*
X112500000Y-172775000D03*
X112500000Y-171925000D03*
X112500000Y-171075000D03*
X112500000Y-170225000D03*
X112500000Y-169375000D03*
X112500000Y-168525000D03*
X112500000Y-167675000D03*
X112500000Y-166825000D03*
X112500000Y-165975000D03*
X112500000Y-165125000D03*
X112500000Y-164275000D03*
X112500000Y-163425000D03*
X112500000Y-162575000D03*
X112500000Y-161725000D03*
X112500000Y-160875000D03*
X112500000Y-160025000D03*
X112500000Y-159175000D03*
X112500000Y-158325000D03*
X112500000Y-157475000D03*
X112500000Y-156625000D03*
X112500000Y-155775000D03*
X112500000Y-154925000D03*
X112500000Y-154075000D03*
X112500000Y-153225000D03*
X112500000Y-152375000D03*
X112500000Y-151525000D03*
X112500000Y-150675000D03*
X112500000Y-149825000D03*
X112500000Y-148975000D03*
X112500000Y-148125000D03*
X112500000Y-147275000D03*
X112500000Y-146425000D03*
X112500000Y-145575000D03*
X112500000Y-144725000D03*
X112500000Y-143875000D03*
X112500000Y-143025000D03*
X112500000Y-142175000D03*
X112500000Y-141325000D03*
X112500000Y-140475000D03*
X112500000Y-139625000D03*
X112500000Y-138775000D03*
X112500000Y-137925000D03*
X112500000Y-137075000D03*
X112500000Y-136225000D03*
X112500000Y-135375000D03*
X112500000Y-134525000D03*
X112500000Y-133675000D03*
X112500000Y-132825000D03*
X112500000Y-131975000D03*
X112500000Y-131125000D03*
X112500000Y-130275000D03*
X112500000Y-129425000D03*
X112500000Y-128575000D03*
X112500000Y-127725000D03*
X112500000Y-126875000D03*
X112500000Y-126025000D03*
X112500000Y-125175000D03*
X112500000Y-124325000D03*
X112500000Y-123475000D03*
X112500000Y-122625000D03*
X112500000Y-121775000D03*
X112500000Y-120925000D03*
X112500000Y-120075000D03*
X112500000Y-119225000D03*
X114500000Y-240775000D03*
X114500000Y-239925000D03*
X114500000Y-239075000D03*
X114500000Y-238225000D03*
X114500000Y-237375000D03*
X114500000Y-236525000D03*
X114500000Y-235675000D03*
X114500000Y-234825000D03*
X114500000Y-233975000D03*
X114500000Y-233125000D03*
X114500000Y-232275000D03*
X114500000Y-231425000D03*
X114500000Y-230575000D03*
X114500000Y-229725000D03*
X114500000Y-228875000D03*
X114500000Y-228025000D03*
X114500000Y-227175000D03*
X114500000Y-226325000D03*
X114500000Y-225475000D03*
X114500000Y-224625000D03*
X114500000Y-223775000D03*
X114500000Y-222925000D03*
X114500000Y-222075000D03*
X114500000Y-221225000D03*
X114500000Y-220375000D03*
X114500000Y-219525000D03*
X114500000Y-218675000D03*
X114500000Y-217825000D03*
X114500000Y-216975000D03*
X114500000Y-216125000D03*
X114500000Y-215275000D03*
X114500000Y-214425000D03*
X114500000Y-213575000D03*
X114500000Y-212725000D03*
X114500000Y-211875000D03*
X114500000Y-211025000D03*
X114500000Y-210175000D03*
X114500000Y-209325000D03*
X114500000Y-208475000D03*
X114500000Y-207625000D03*
X114500000Y-206775000D03*
X114500000Y-205925000D03*
X114500000Y-205075000D03*
X114500000Y-204225000D03*
X114500000Y-203375000D03*
X114500000Y-202525000D03*
X114500000Y-201675000D03*
X114500000Y-200825000D03*
X114500000Y-199975000D03*
X114500000Y-199125000D03*
X114500000Y-198275000D03*
X114500000Y-197425000D03*
X114500000Y-196575000D03*
X114500000Y-195725000D03*
X114500000Y-194875000D03*
X114500000Y-194025000D03*
X114500000Y-193175000D03*
X114500000Y-192325000D03*
X114500000Y-191475000D03*
X114500000Y-190625000D03*
X114500000Y-189775000D03*
X114500000Y-188925000D03*
X114500000Y-188075000D03*
X114500000Y-187225000D03*
X114500000Y-186375000D03*
X114500000Y-185525000D03*
X114500000Y-184675000D03*
X114500000Y-183825000D03*
X114500000Y-182975000D03*
X114500000Y-182125000D03*
X114500000Y-181275000D03*
X114500000Y-180425000D03*
X114500000Y-179575000D03*
X114500000Y-178725000D03*
X114500000Y-177875000D03*
X114500000Y-177025000D03*
X114500000Y-176175000D03*
X114500000Y-175325000D03*
X114500000Y-174475000D03*
X114500000Y-173625000D03*
X114500000Y-172775000D03*
X114500000Y-171925000D03*
X114500000Y-171075000D03*
X114500000Y-170225000D03*
X114500000Y-169375000D03*
X114500000Y-168525000D03*
X114500000Y-167675000D03*
X114500000Y-166825000D03*
X114500000Y-165975000D03*
X114500000Y-165125000D03*
X114500000Y-164275000D03*
X114500000Y-163425000D03*
X114500000Y-162575000D03*
X114500000Y-161725000D03*
X114500000Y-160875000D03*
X114500000Y-160025000D03*
X114500000Y-159175000D03*
X114500000Y-158325000D03*
X114500000Y-157475000D03*
X114500000Y-156625000D03*
X114500000Y-155775000D03*
X114500000Y-154925000D03*
X114500000Y-154075000D03*
X114500000Y-153225000D03*
X114500000Y-152375000D03*
X114500000Y-151525000D03*
X114500000Y-150675000D03*
X114500000Y-149825000D03*
X114500000Y-148975000D03*
X114500000Y-148125000D03*
X114500000Y-147275000D03*
X114500000Y-146425000D03*
X114500000Y-145575000D03*
X114500000Y-144725000D03*
X114500000Y-143875000D03*
X114500000Y-143025000D03*
X114500000Y-142175000D03*
X114500000Y-141325000D03*
X114500000Y-140475000D03*
X114500000Y-139625000D03*
X114500000Y-138775000D03*
X114500000Y-137925000D03*
X114500000Y-137075000D03*
X114500000Y-136225000D03*
X114500000Y-135375000D03*
X114500000Y-134525000D03*
X114500000Y-133675000D03*
X114500000Y-132825000D03*
X114500000Y-131975000D03*
X114500000Y-131125000D03*
X114500000Y-130275000D03*
X114500000Y-129425000D03*
X114500000Y-128575000D03*
X114500000Y-127725000D03*
X114500000Y-126875000D03*
X114500000Y-126025000D03*
X114500000Y-125175000D03*
X114500000Y-124325000D03*
X114500000Y-123475000D03*
X114500000Y-122625000D03*
X114500000Y-121775000D03*
X114500000Y-120925000D03*
X114500000Y-120075000D03*
X114500000Y-119225000D03*
D21*
X113500000Y-247175000D03*
X113500000Y-112825000D03*
%TD*%
D20*
%TO.C,J10*%
X112500000Y-260775000D03*
X112500000Y-259925000D03*
X112500000Y-259075000D03*
X112500000Y-258225000D03*
X112500000Y-257375000D03*
X112500000Y-256525000D03*
X112500000Y-255675000D03*
X112500000Y-254825000D03*
X112500000Y-253975000D03*
X112500000Y-253125000D03*
X112500000Y-252275000D03*
X112500000Y-251425000D03*
X112500000Y-250575000D03*
X112500000Y-249725000D03*
X112500000Y-248875000D03*
X112500000Y-248025000D03*
X112500000Y-247175000D03*
X112500000Y-246325000D03*
X112500000Y-245475000D03*
X112500000Y-244625000D03*
X112500000Y-243775000D03*
X112500000Y-242925000D03*
X112500000Y-242075000D03*
X112500000Y-241225000D03*
X112500000Y-240375000D03*
X112500000Y-239525000D03*
X112500000Y-238675000D03*
X112500000Y-237825000D03*
X112500000Y-236975000D03*
X112500000Y-236125000D03*
X112500000Y-235275000D03*
X112500000Y-234425000D03*
X112500000Y-233575000D03*
X112500000Y-232725000D03*
X112500000Y-231875000D03*
X112500000Y-231025000D03*
X112500000Y-230175000D03*
X112500000Y-229325000D03*
X112500000Y-228475000D03*
X112500000Y-227625000D03*
X112500000Y-226775000D03*
X112500000Y-225925000D03*
X112500000Y-225075000D03*
X112500000Y-224225000D03*
X112500000Y-223375000D03*
X112500000Y-222525000D03*
X112500000Y-221675000D03*
X112500000Y-220825000D03*
X112500000Y-219975000D03*
X112500000Y-219125000D03*
X112500000Y-218275000D03*
X112500000Y-217425000D03*
X112500000Y-216575000D03*
X112500000Y-215725000D03*
X112500000Y-214875000D03*
X112500000Y-214025000D03*
X112500000Y-213175000D03*
X112500000Y-212325000D03*
X112500000Y-211475000D03*
X112500000Y-210625000D03*
X112500000Y-209775000D03*
X112500000Y-208925000D03*
X112500000Y-208075000D03*
X112500000Y-207225000D03*
X112500000Y-206375000D03*
X112500000Y-205525000D03*
X112500000Y-204675000D03*
X112500000Y-203825000D03*
X112500000Y-202975000D03*
X112500000Y-202125000D03*
X112500000Y-201275000D03*
X112500000Y-200425000D03*
X112500000Y-199575000D03*
X112500000Y-198725000D03*
X112500000Y-197875000D03*
X112500000Y-197025000D03*
X112500000Y-196175000D03*
X112500000Y-195325000D03*
X112500000Y-194475000D03*
X112500000Y-193625000D03*
X112500000Y-192775000D03*
X112500000Y-191925000D03*
X112500000Y-191075000D03*
X112500000Y-190225000D03*
X112500000Y-189375000D03*
X112500000Y-188525000D03*
X112500000Y-187675000D03*
X112500000Y-186825000D03*
X112500000Y-185975000D03*
X112500000Y-185125000D03*
X112500000Y-184275000D03*
X112500000Y-183425000D03*
X112500000Y-182575000D03*
X112500000Y-181725000D03*
X112500000Y-180875000D03*
X112500000Y-180025000D03*
X112500000Y-179175000D03*
X112500000Y-178325000D03*
X112500000Y-177475000D03*
X112500000Y-176625000D03*
X112500000Y-175775000D03*
X112500000Y-174925000D03*
X112500000Y-174075000D03*
X112500000Y-173225000D03*
X112500000Y-172375000D03*
X112500000Y-171525000D03*
X112500000Y-170675000D03*
X112500000Y-169825000D03*
X112500000Y-168975000D03*
X112500000Y-168125000D03*
X112500000Y-167275000D03*
X112500000Y-166425000D03*
X112500000Y-165575000D03*
X112500000Y-164725000D03*
X112500000Y-163875000D03*
X112500000Y-163025000D03*
X112500000Y-162175000D03*
X112500000Y-161325000D03*
X112500000Y-160475000D03*
X112500000Y-159625000D03*
X112500000Y-158775000D03*
X112500000Y-157925000D03*
X112500000Y-157075000D03*
X112500000Y-156225000D03*
X112500000Y-155375000D03*
X112500000Y-154525000D03*
X112500000Y-153675000D03*
X112500000Y-152825000D03*
X112500000Y-151975000D03*
X112500000Y-151125000D03*
X112500000Y-150275000D03*
X112500000Y-149425000D03*
X112500000Y-148575000D03*
X112500000Y-147725000D03*
X112500000Y-146875000D03*
X112500000Y-146025000D03*
X112500000Y-145175000D03*
X112500000Y-144325000D03*
X112500000Y-143475000D03*
X112500000Y-142625000D03*
X112500000Y-141775000D03*
X112500000Y-140925000D03*
X112500000Y-140075000D03*
X112500000Y-139225000D03*
X114500000Y-260775000D03*
X114500000Y-259925000D03*
X114500000Y-259075000D03*
X114500000Y-258225000D03*
X114500000Y-257375000D03*
X114500000Y-256525000D03*
X114500000Y-255675000D03*
X114500000Y-254825000D03*
X114500000Y-253975000D03*
X114500000Y-253125000D03*
X114500000Y-252275000D03*
X114500000Y-251425000D03*
X114500000Y-250575000D03*
X114500000Y-249725000D03*
X114500000Y-248875000D03*
X114500000Y-248025000D03*
X114500000Y-247175000D03*
X114500000Y-246325000D03*
X114500000Y-245475000D03*
X114500000Y-244625000D03*
X114500000Y-243775000D03*
X114500000Y-242925000D03*
X114500000Y-242075000D03*
X114500000Y-241225000D03*
X114500000Y-240375000D03*
X114500000Y-239525000D03*
X114500000Y-238675000D03*
X114500000Y-237825000D03*
X114500000Y-236975000D03*
X114500000Y-236125000D03*
X114500000Y-235275000D03*
X114500000Y-234425000D03*
X114500000Y-233575000D03*
X114500000Y-232725000D03*
X114500000Y-231875000D03*
X114500000Y-231025000D03*
X114500000Y-230175000D03*
X114500000Y-229325000D03*
X114500000Y-228475000D03*
X114500000Y-227625000D03*
X114500000Y-226775000D03*
X114500000Y-225925000D03*
X114500000Y-225075000D03*
X114500000Y-224225000D03*
X114500000Y-223375000D03*
X114500000Y-222525000D03*
X114500000Y-221675000D03*
X114500000Y-220825000D03*
X114500000Y-219975000D03*
X114500000Y-219125000D03*
X114500000Y-218275000D03*
X114500000Y-217425000D03*
X114500000Y-216575000D03*
X114500000Y-215725000D03*
X114500000Y-214875000D03*
X114500000Y-214025000D03*
X114500000Y-213175000D03*
X114500000Y-212325000D03*
X114500000Y-211475000D03*
X114500000Y-210625000D03*
X114500000Y-209775000D03*
X114500000Y-208925000D03*
X114500000Y-208075000D03*
X114500000Y-207225000D03*
X114500000Y-206375000D03*
X114500000Y-205525000D03*
X114500000Y-204675000D03*
X114500000Y-203825000D03*
X114500000Y-202975000D03*
X114500000Y-202125000D03*
X114500000Y-201275000D03*
X114500000Y-200425000D03*
X114500000Y-199575000D03*
X114500000Y-198725000D03*
X114500000Y-197875000D03*
X114500000Y-197025000D03*
X114500000Y-196175000D03*
X114500000Y-195325000D03*
X114500000Y-194475000D03*
X114500000Y-193625000D03*
X114500000Y-192775000D03*
X114500000Y-191925000D03*
X114500000Y-191075000D03*
X114500000Y-190225000D03*
X114500000Y-189375000D03*
X114500000Y-188525000D03*
X114500000Y-187675000D03*
X114500000Y-186825000D03*
X114500000Y-185975000D03*
X114500000Y-185125000D03*
X114500000Y-184275000D03*
X114500000Y-183425000D03*
X114500000Y-182575000D03*
X114500000Y-181725000D03*
X114500000Y-180875000D03*
X114500000Y-180025000D03*
X114500000Y-179175000D03*
X114500000Y-178325000D03*
X114500000Y-177475000D03*
X114500000Y-176625000D03*
X114500000Y-175775000D03*
X114500000Y-174925000D03*
X114500000Y-174075000D03*
X114500000Y-173225000D03*
X114500000Y-172375000D03*
X114500000Y-171525000D03*
X114500000Y-170675000D03*
X114500000Y-169825000D03*
X114500000Y-168975000D03*
X114500000Y-168125000D03*
X114500000Y-167275000D03*
X114500000Y-166425000D03*
X114500000Y-165575000D03*
X114500000Y-164725000D03*
X114500000Y-163875000D03*
X114500000Y-163025000D03*
X114500000Y-162175000D03*
X114500000Y-161325000D03*
X114500000Y-160475000D03*
X114500000Y-159625000D03*
X114500000Y-158775000D03*
X114500000Y-157925000D03*
X114500000Y-157075000D03*
X114500000Y-156225000D03*
X114500000Y-155375000D03*
X114500000Y-154525000D03*
X114500000Y-153675000D03*
X114500000Y-152825000D03*
X114500000Y-151975000D03*
X114500000Y-151125000D03*
X114500000Y-150275000D03*
X114500000Y-149425000D03*
X114500000Y-148575000D03*
X114500000Y-147725000D03*
X114500000Y-146875000D03*
X114500000Y-146025000D03*
X114500000Y-145175000D03*
X114500000Y-144325000D03*
X114500000Y-143475000D03*
X114500000Y-142625000D03*
X114500000Y-141775000D03*
X114500000Y-140925000D03*
X114500000Y-140075000D03*
X114500000Y-139225000D03*
D21*
X113500000Y-267175000D03*
X113500000Y-132825000D03*
%TD*%
D20*
%TO.C,J11*%
X292500000Y-240775000D03*
X292500000Y-239925000D03*
X292500000Y-239075000D03*
X292500000Y-238225000D03*
X292500000Y-237375000D03*
X292500000Y-236525000D03*
X292500000Y-235675000D03*
X292500000Y-234825000D03*
X292500000Y-233975000D03*
X292500000Y-233125000D03*
X292500000Y-232275000D03*
X292500000Y-231425000D03*
X292500000Y-230575000D03*
X292500000Y-229725000D03*
X292500000Y-228875000D03*
X292500000Y-228025000D03*
X292500000Y-227175000D03*
X292500000Y-226325000D03*
X292500000Y-225475000D03*
X292500000Y-224625000D03*
X292500000Y-223775000D03*
X292500000Y-222925000D03*
X292500000Y-222075000D03*
X292500000Y-221225000D03*
X292500000Y-220375000D03*
X292500000Y-219525000D03*
X292500000Y-218675000D03*
X292500000Y-217825000D03*
X292500000Y-216975000D03*
X292500000Y-216125000D03*
X292500000Y-215275000D03*
X292500000Y-214425000D03*
X292500000Y-213575000D03*
X292500000Y-212725000D03*
X292500000Y-211875000D03*
X292500000Y-211025000D03*
X292500000Y-210175000D03*
X292500000Y-209325000D03*
X292500000Y-208475000D03*
X292500000Y-207625000D03*
X292500000Y-206775000D03*
X292500000Y-205925000D03*
X292500000Y-205075000D03*
X292500000Y-204225000D03*
X292500000Y-203375000D03*
X292500000Y-202525000D03*
X292500000Y-201675000D03*
X292500000Y-200825000D03*
X292500000Y-199975000D03*
X292500000Y-199125000D03*
X292500000Y-198275000D03*
X292500000Y-197425000D03*
X292500000Y-196575000D03*
X292500000Y-195725000D03*
X292500000Y-194875000D03*
X292500000Y-194025000D03*
X292500000Y-193175000D03*
X292500000Y-192325000D03*
X292500000Y-191475000D03*
X292500000Y-190625000D03*
X292500000Y-189775000D03*
X292500000Y-188925000D03*
X292500000Y-188075000D03*
X292500000Y-187225000D03*
X292500000Y-186375000D03*
X292500000Y-185525000D03*
X292500000Y-184675000D03*
X292500000Y-183825000D03*
X292500000Y-182975000D03*
X292500000Y-182125000D03*
X292500000Y-181275000D03*
X292500000Y-180425000D03*
X292500000Y-179575000D03*
X292500000Y-178725000D03*
X292500000Y-177875000D03*
X292500000Y-177025000D03*
X292500000Y-176175000D03*
X292500000Y-175325000D03*
X292500000Y-174475000D03*
X292500000Y-173625000D03*
X292500000Y-172775000D03*
X292500000Y-171925000D03*
X292500000Y-171075000D03*
X292500000Y-170225000D03*
X292500000Y-169375000D03*
X292500000Y-168525000D03*
X292500000Y-167675000D03*
X292500000Y-166825000D03*
X292500000Y-165975000D03*
X292500000Y-165125000D03*
X292500000Y-164275000D03*
X292500000Y-163425000D03*
X292500000Y-162575000D03*
X292500000Y-161725000D03*
X292500000Y-160875000D03*
X292500000Y-160025000D03*
X292500000Y-159175000D03*
X292500000Y-158325000D03*
X292500000Y-157475000D03*
X292500000Y-156625000D03*
X292500000Y-155775000D03*
X292500000Y-154925000D03*
X292500000Y-154075000D03*
X292500000Y-153225000D03*
X292500000Y-152375000D03*
X292500000Y-151525000D03*
X292500000Y-150675000D03*
X292500000Y-149825000D03*
X292500000Y-148975000D03*
X292500000Y-148125000D03*
X292500000Y-147275000D03*
X292500000Y-146425000D03*
X292500000Y-145575000D03*
X292500000Y-144725000D03*
X292500000Y-143875000D03*
X292500000Y-143025000D03*
X292500000Y-142175000D03*
X292500000Y-141325000D03*
X292500000Y-140475000D03*
X292500000Y-139625000D03*
X292500000Y-138775000D03*
X292500000Y-137925000D03*
X292500000Y-137075000D03*
X292500000Y-136225000D03*
X292500000Y-135375000D03*
X292500000Y-134525000D03*
X292500000Y-133675000D03*
X292500000Y-132825000D03*
X292500000Y-131975000D03*
X292500000Y-131125000D03*
X292500000Y-130275000D03*
X292500000Y-129425000D03*
X292500000Y-128575000D03*
X292500000Y-127725000D03*
X292500000Y-126875000D03*
X292500000Y-126025000D03*
X292500000Y-125175000D03*
X292500000Y-124325000D03*
X292500000Y-123475000D03*
X292500000Y-122625000D03*
X292500000Y-121775000D03*
X292500000Y-120925000D03*
X292500000Y-120075000D03*
X292500000Y-119225000D03*
X294500000Y-240775000D03*
X294500000Y-239925000D03*
X294500000Y-239075000D03*
X294500000Y-238225000D03*
X294500000Y-237375000D03*
X294500000Y-236525000D03*
X294500000Y-235675000D03*
X294500000Y-234825000D03*
X294500000Y-233975000D03*
X294500000Y-233125000D03*
X294500000Y-232275000D03*
X294500000Y-231425000D03*
X294500000Y-230575000D03*
X294500000Y-229725000D03*
X294500000Y-228875000D03*
X294500000Y-228025000D03*
X294500000Y-227175000D03*
X294500000Y-226325000D03*
X294500000Y-225475000D03*
X294500000Y-224625000D03*
X294500000Y-223775000D03*
X294500000Y-222925000D03*
X294500000Y-222075000D03*
X294500000Y-221225000D03*
X294500000Y-220375000D03*
X294500000Y-219525000D03*
X294500000Y-218675000D03*
X294500000Y-217825000D03*
X294500000Y-216975000D03*
X294500000Y-216125000D03*
X294500000Y-215275000D03*
X294500000Y-214425000D03*
X294500000Y-213575000D03*
X294500000Y-212725000D03*
X294500000Y-211875000D03*
X294500000Y-211025000D03*
X294500000Y-210175000D03*
X294500000Y-209325000D03*
X294500000Y-208475000D03*
X294500000Y-207625000D03*
X294500000Y-206775000D03*
X294500000Y-205925000D03*
X294500000Y-205075000D03*
X294500000Y-204225000D03*
X294500000Y-203375000D03*
X294500000Y-202525000D03*
X294500000Y-201675000D03*
X294500000Y-200825000D03*
X294500000Y-199975000D03*
X294500000Y-199125000D03*
X294500000Y-198275000D03*
X294500000Y-197425000D03*
X294500000Y-196575000D03*
X294500000Y-195725000D03*
X294500000Y-194875000D03*
X294500000Y-194025000D03*
X294500000Y-193175000D03*
X294500000Y-192325000D03*
X294500000Y-191475000D03*
X294500000Y-190625000D03*
X294500000Y-189775000D03*
X294500000Y-188925000D03*
X294500000Y-188075000D03*
X294500000Y-187225000D03*
X294500000Y-186375000D03*
X294500000Y-185525000D03*
X294500000Y-184675000D03*
X294500000Y-183825000D03*
X294500000Y-182975000D03*
X294500000Y-182125000D03*
X294500000Y-181275000D03*
X294500000Y-180425000D03*
X294500000Y-179575000D03*
X294500000Y-178725000D03*
X294500000Y-177875000D03*
X294500000Y-177025000D03*
X294500000Y-176175000D03*
X294500000Y-175325000D03*
X294500000Y-174475000D03*
X294500000Y-173625000D03*
X294500000Y-172775000D03*
X294500000Y-171925000D03*
X294500000Y-171075000D03*
X294500000Y-170225000D03*
X294500000Y-169375000D03*
X294500000Y-168525000D03*
X294500000Y-167675000D03*
X294500000Y-166825000D03*
X294500000Y-165975000D03*
X294500000Y-165125000D03*
X294500000Y-164275000D03*
X294500000Y-163425000D03*
X294500000Y-162575000D03*
X294500000Y-161725000D03*
X294500000Y-160875000D03*
X294500000Y-160025000D03*
X294500000Y-159175000D03*
X294500000Y-158325000D03*
X294500000Y-157475000D03*
X294500000Y-156625000D03*
X294500000Y-155775000D03*
X294500000Y-154925000D03*
X294500000Y-154075000D03*
X294500000Y-153225000D03*
X294500000Y-152375000D03*
X294500000Y-151525000D03*
X294500000Y-150675000D03*
X294500000Y-149825000D03*
X294500000Y-148975000D03*
X294500000Y-148125000D03*
X294500000Y-147275000D03*
X294500000Y-146425000D03*
X294500000Y-145575000D03*
X294500000Y-144725000D03*
X294500000Y-143875000D03*
X294500000Y-143025000D03*
X294500000Y-142175000D03*
X294500000Y-141325000D03*
X294500000Y-140475000D03*
X294500000Y-139625000D03*
X294500000Y-138775000D03*
X294500000Y-137925000D03*
X294500000Y-137075000D03*
X294500000Y-136225000D03*
X294500000Y-135375000D03*
X294500000Y-134525000D03*
X294500000Y-133675000D03*
X294500000Y-132825000D03*
X294500000Y-131975000D03*
X294500000Y-131125000D03*
X294500000Y-130275000D03*
X294500000Y-129425000D03*
X294500000Y-128575000D03*
X294500000Y-127725000D03*
X294500000Y-126875000D03*
X294500000Y-126025000D03*
X294500000Y-125175000D03*
X294500000Y-124325000D03*
X294500000Y-123475000D03*
X294500000Y-122625000D03*
X294500000Y-121775000D03*
X294500000Y-120925000D03*
X294500000Y-120075000D03*
X294500000Y-119225000D03*
D21*
X293500000Y-247175000D03*
X293500000Y-112825000D03*
%TD*%
D20*
%TO.C,J12*%
X292500000Y-260775000D03*
X292500000Y-259925000D03*
X292500000Y-259075000D03*
X292500000Y-258225000D03*
X292500000Y-257375000D03*
X292500000Y-256525000D03*
X292500000Y-255675000D03*
X292500000Y-254825000D03*
X292500000Y-253975000D03*
X292500000Y-253125000D03*
X292500000Y-252275000D03*
X292500000Y-251425000D03*
X292500000Y-250575000D03*
X292500000Y-249725000D03*
X292500000Y-248875000D03*
X292500000Y-248025000D03*
X292500000Y-247175000D03*
X292500000Y-246325000D03*
X292500000Y-245475000D03*
X292500000Y-244625000D03*
X292500000Y-243775000D03*
X292500000Y-242925000D03*
X292500000Y-242075000D03*
X292500000Y-241225000D03*
X292500000Y-240375000D03*
X292500000Y-239525000D03*
X292500000Y-238675000D03*
X292500000Y-237825000D03*
X292500000Y-236975000D03*
X292500000Y-236125000D03*
X292500000Y-235275000D03*
X292500000Y-234425000D03*
X292500000Y-233575000D03*
X292500000Y-232725000D03*
X292500000Y-231875000D03*
X292500000Y-231025000D03*
X292500000Y-230175000D03*
X292500000Y-229325000D03*
X292500000Y-228475000D03*
X292500000Y-227625000D03*
X292500000Y-226775000D03*
X292500000Y-225925000D03*
X292500000Y-225075000D03*
X292500000Y-224225000D03*
X292500000Y-223375000D03*
X292500000Y-222525000D03*
X292500000Y-221675000D03*
X292500000Y-220825000D03*
X292500000Y-219975000D03*
X292500000Y-219125000D03*
X292500000Y-218275000D03*
X292500000Y-217425000D03*
X292500000Y-216575000D03*
X292500000Y-215725000D03*
X292500000Y-214875000D03*
X292500000Y-214025000D03*
X292500000Y-213175000D03*
X292500000Y-212325000D03*
X292500000Y-211475000D03*
X292500000Y-210625000D03*
X292500000Y-209775000D03*
X292500000Y-208925000D03*
X292500000Y-208075000D03*
X292500000Y-207225000D03*
X292500000Y-206375000D03*
X292500000Y-205525000D03*
X292500000Y-204675000D03*
X292500000Y-203825000D03*
X292500000Y-202975000D03*
X292500000Y-202125000D03*
X292500000Y-201275000D03*
X292500000Y-200425000D03*
X292500000Y-199575000D03*
X292500000Y-198725000D03*
X292500000Y-197875000D03*
X292500000Y-197025000D03*
X292500000Y-196175000D03*
X292500000Y-195325000D03*
X292500000Y-194475000D03*
X292500000Y-193625000D03*
X292500000Y-192775000D03*
X292500000Y-191925000D03*
X292500000Y-191075000D03*
X292500000Y-190225000D03*
X292500000Y-189375000D03*
X292500000Y-188525000D03*
X292500000Y-187675000D03*
X292500000Y-186825000D03*
X292500000Y-185975000D03*
X292500000Y-185125000D03*
X292500000Y-184275000D03*
X292500000Y-183425000D03*
X292500000Y-182575000D03*
X292500000Y-181725000D03*
X292500000Y-180875000D03*
X292500000Y-180025000D03*
X292500000Y-179175000D03*
X292500000Y-178325000D03*
X292500000Y-177475000D03*
X292500000Y-176625000D03*
X292500000Y-175775000D03*
X292500000Y-174925000D03*
X292500000Y-174075000D03*
X292500000Y-173225000D03*
X292500000Y-172375000D03*
X292500000Y-171525000D03*
X292500000Y-170675000D03*
X292500000Y-169825000D03*
X292500000Y-168975000D03*
X292500000Y-168125000D03*
X292500000Y-167275000D03*
X292500000Y-166425000D03*
X292500000Y-165575000D03*
X292500000Y-164725000D03*
X292500000Y-163875000D03*
X292500000Y-163025000D03*
X292500000Y-162175000D03*
X292500000Y-161325000D03*
X292500000Y-160475000D03*
X292500000Y-159625000D03*
X292500000Y-158775000D03*
X292500000Y-157925000D03*
X292500000Y-157075000D03*
X292500000Y-156225000D03*
X292500000Y-155375000D03*
X292500000Y-154525000D03*
X292500000Y-153675000D03*
X292500000Y-152825000D03*
X292500000Y-151975000D03*
X292500000Y-151125000D03*
X292500000Y-150275000D03*
X292500000Y-149425000D03*
X292500000Y-148575000D03*
X292500000Y-147725000D03*
X292500000Y-146875000D03*
X292500000Y-146025000D03*
X292500000Y-145175000D03*
X292500000Y-144325000D03*
X292500000Y-143475000D03*
X292500000Y-142625000D03*
X292500000Y-141775000D03*
X292500000Y-140925000D03*
X292500000Y-140075000D03*
X292500000Y-139225000D03*
X294500000Y-260775000D03*
X294500000Y-259925000D03*
X294500000Y-259075000D03*
X294500000Y-258225000D03*
X294500000Y-257375000D03*
X294500000Y-256525000D03*
X294500000Y-255675000D03*
X294500000Y-254825000D03*
X294500000Y-253975000D03*
X294500000Y-253125000D03*
X294500000Y-252275000D03*
X294500000Y-251425000D03*
X294500000Y-250575000D03*
X294500000Y-249725000D03*
X294500000Y-248875000D03*
X294500000Y-248025000D03*
X294500000Y-247175000D03*
X294500000Y-246325000D03*
X294500000Y-245475000D03*
X294500000Y-244625000D03*
X294500000Y-243775000D03*
X294500000Y-242925000D03*
X294500000Y-242075000D03*
X294500000Y-241225000D03*
X294500000Y-240375000D03*
X294500000Y-239525000D03*
X294500000Y-238675000D03*
X294500000Y-237825000D03*
X294500000Y-236975000D03*
X294500000Y-236125000D03*
X294500000Y-235275000D03*
X294500000Y-234425000D03*
X294500000Y-233575000D03*
X294500000Y-232725000D03*
X294500000Y-231875000D03*
X294500000Y-231025000D03*
X294500000Y-230175000D03*
X294500000Y-229325000D03*
X294500000Y-228475000D03*
X294500000Y-227625000D03*
X294500000Y-226775000D03*
X294500000Y-225925000D03*
X294500000Y-225075000D03*
X294500000Y-224225000D03*
X294500000Y-223375000D03*
X294500000Y-222525000D03*
X294500000Y-221675000D03*
X294500000Y-220825000D03*
X294500000Y-219975000D03*
X294500000Y-219125000D03*
X294500000Y-218275000D03*
X294500000Y-217425000D03*
X294500000Y-216575000D03*
X294500000Y-215725000D03*
X294500000Y-214875000D03*
X294500000Y-214025000D03*
X294500000Y-213175000D03*
X294500000Y-212325000D03*
X294500000Y-211475000D03*
X294500000Y-210625000D03*
X294500000Y-209775000D03*
X294500000Y-208925000D03*
X294500000Y-208075000D03*
X294500000Y-207225000D03*
X294500000Y-206375000D03*
X294500000Y-205525000D03*
X294500000Y-204675000D03*
X294500000Y-203825000D03*
X294500000Y-202975000D03*
X294500000Y-202125000D03*
X294500000Y-201275000D03*
X294500000Y-200425000D03*
X294500000Y-199575000D03*
X294500000Y-198725000D03*
X294500000Y-197875000D03*
X294500000Y-197025000D03*
X294500000Y-196175000D03*
X294500000Y-195325000D03*
X294500000Y-194475000D03*
X294500000Y-193625000D03*
X294500000Y-192775000D03*
X294500000Y-191925000D03*
X294500000Y-191075000D03*
X294500000Y-190225000D03*
X294500000Y-189375000D03*
X294500000Y-188525000D03*
X294500000Y-187675000D03*
X294500000Y-186825000D03*
X294500000Y-185975000D03*
X294500000Y-185125000D03*
X294500000Y-184275000D03*
X294500000Y-183425000D03*
X294500000Y-182575000D03*
X294500000Y-181725000D03*
X294500000Y-180875000D03*
X294500000Y-180025000D03*
X294500000Y-179175000D03*
X294500000Y-178325000D03*
X294500000Y-177475000D03*
X294500000Y-176625000D03*
X294500000Y-175775000D03*
X294500000Y-174925000D03*
X294500000Y-174075000D03*
X294500000Y-173225000D03*
X294500000Y-172375000D03*
X294500000Y-171525000D03*
X294500000Y-170675000D03*
X294500000Y-169825000D03*
X294500000Y-168975000D03*
X294500000Y-168125000D03*
X294500000Y-167275000D03*
X294500000Y-166425000D03*
X294500000Y-165575000D03*
X294500000Y-164725000D03*
X294500000Y-163875000D03*
X294500000Y-163025000D03*
X294500000Y-162175000D03*
X294500000Y-161325000D03*
X294500000Y-160475000D03*
X294500000Y-159625000D03*
X294500000Y-158775000D03*
X294500000Y-157925000D03*
X294500000Y-157075000D03*
X294500000Y-156225000D03*
X294500000Y-155375000D03*
X294500000Y-154525000D03*
X294500000Y-153675000D03*
X294500000Y-152825000D03*
X294500000Y-151975000D03*
X294500000Y-151125000D03*
X294500000Y-150275000D03*
X294500000Y-149425000D03*
X294500000Y-148575000D03*
X294500000Y-147725000D03*
X294500000Y-146875000D03*
X294500000Y-146025000D03*
X294500000Y-145175000D03*
X294500000Y-144325000D03*
X294500000Y-143475000D03*
X294500000Y-142625000D03*
X294500000Y-141775000D03*
X294500000Y-140925000D03*
X294500000Y-140075000D03*
X294500000Y-139225000D03*
D21*
X293500000Y-267175000D03*
X293500000Y-132825000D03*
%TD*%
D22*
%TO.C,J13*%
X53500000Y-160000000D03*
X54000000Y-160000000D03*
X54500000Y-160000000D03*
X55000000Y-160000000D03*
X55500000Y-160000000D03*
X56000000Y-160000000D03*
X56500000Y-160000000D03*
X57000000Y-160000000D03*
X57500000Y-160000000D03*
X58000000Y-160000000D03*
X58500000Y-160000000D03*
X59000000Y-160000000D03*
X59500000Y-160000000D03*
X60000000Y-160000000D03*
X60500000Y-160000000D03*
X61000000Y-160000000D03*
X61500000Y-160000000D03*
X62000000Y-160000000D03*
X62500000Y-160000000D03*
X63000000Y-160000000D03*
X63500000Y-160000000D03*
X64000000Y-160000000D03*
X64500000Y-160000000D03*
X65000000Y-160000000D03*
X65500000Y-160000000D03*
X66000000Y-160000000D03*
X66500000Y-160000000D03*
X67000000Y-160000000D03*
X67500000Y-160000000D03*
X68000000Y-160000000D03*
X68500000Y-160000000D03*
X69000000Y-160000000D03*
X69500000Y-160000000D03*
X70000000Y-160000000D03*
X70500000Y-160000000D03*
X71000000Y-160000000D03*
X71500000Y-160000000D03*
X72000000Y-160000000D03*
X72500000Y-160000000D03*
X73000000Y-160000000D03*
X73500000Y-160000000D03*
X74000000Y-160000000D03*
X74500000Y-160000000D03*
X75000000Y-160000000D03*
X75500000Y-160000000D03*
X76000000Y-160000000D03*
X76500000Y-160000000D03*
X77000000Y-160000000D03*
X77500000Y-160000000D03*
X78000000Y-160000000D03*
X78500000Y-160000000D03*
X79000000Y-160000000D03*
X79500000Y-160000000D03*
X80000000Y-160000000D03*
X80500000Y-160000000D03*
X81000000Y-160000000D03*
X81500000Y-160000000D03*
X82000000Y-160000000D03*
X82500000Y-160000000D03*
X85500000Y-160000000D03*
X86000000Y-160000000D03*
X86500000Y-160000000D03*
D23*
X59500000Y-160000000D03*
X80500000Y-160000000D03*
%TD*%
D22*
%TO.C,J14*%
X53500000Y-220000000D03*
X54000000Y-220000000D03*
X54500000Y-220000000D03*
X55000000Y-220000000D03*
X55500000Y-220000000D03*
X56000000Y-220000000D03*
X56500000Y-220000000D03*
X57000000Y-220000000D03*
X57500000Y-220000000D03*
X58000000Y-220000000D03*
X58500000Y-220000000D03*
X59000000Y-220000000D03*
X59500000Y-220000000D03*
X60000000Y-220000000D03*
X60500000Y-220000000D03*
X61000000Y-220000000D03*
X61500000Y-220000000D03*
X62000000Y-220000000D03*
X62500000Y-220000000D03*
X63000000Y-220000000D03*
X63500000Y-220000000D03*
X64000000Y-220000000D03*
X64500000Y-220000000D03*
X65000000Y-220000000D03*
X65500000Y-220000000D03*
X66000000Y-220000000D03*
X66500000Y-220000000D03*
X67000000Y-220000000D03*
X67500000Y-220000000D03*
X68000000Y-220000000D03*
X68500000Y-220000000D03*
X69000000Y-220000000D03*
X69500000Y-220000000D03*
X70000000Y-220000000D03*
X70500000Y-220000000D03*
X71000000Y-220000000D03*
X71500000Y-220000000D03*
X72000000Y-220000000D03*
X72500000Y-220000000D03*
X73000000Y-220000000D03*
X73500000Y-220000000D03*
X74000000Y-220000000D03*
X74500000Y-220000000D03*
X75000000Y-220000000D03*
X75500000Y-220000000D03*
X76000000Y-220000000D03*
X76500000Y-220000000D03*
X77000000Y-220000000D03*
X77500000Y-220000000D03*
X78000000Y-220000000D03*
X78500000Y-220000000D03*
X79000000Y-220000000D03*
X79500000Y-220000000D03*
X80000000Y-220000000D03*
X80500000Y-220000000D03*
X81000000Y-220000000D03*
X81500000Y-220000000D03*
X82000000Y-220000000D03*
X82500000Y-220000000D03*
X85500000Y-220000000D03*
X86000000Y-220000000D03*
X86500000Y-220000000D03*
D23*
X59500000Y-220000000D03*
X80500000Y-220000000D03*
%TD*%
D22*
%TO.C,J15*%
X318500000Y-160000000D03*
X319000000Y-160000000D03*
X319500000Y-160000000D03*
X320000000Y-160000000D03*
X320500000Y-160000000D03*
X321000000Y-160000000D03*
X321500000Y-160000000D03*
X322000000Y-160000000D03*
X322500000Y-160000000D03*
X323000000Y-160000000D03*
X323500000Y-160000000D03*
X324000000Y-160000000D03*
X324500000Y-160000000D03*
X325000000Y-160000000D03*
X325500000Y-160000000D03*
X326000000Y-160000000D03*
X326500000Y-160000000D03*
X327000000Y-160000000D03*
X327500000Y-160000000D03*
X328000000Y-160000000D03*
X328500000Y-160000000D03*
X329000000Y-160000000D03*
X329500000Y-160000000D03*
X330000000Y-160000000D03*
X330500000Y-160000000D03*
X331000000Y-160000000D03*
X331500000Y-160000000D03*
X332000000Y-160000000D03*
X332500000Y-160000000D03*
X333000000Y-160000000D03*
X333500000Y-160000000D03*
X334000000Y-160000000D03*
X334500000Y-160000000D03*
X335000000Y-160000000D03*
X335500000Y-160000000D03*
X336000000Y-160000000D03*
X336500000Y-160000000D03*
X337000000Y-160000000D03*
X337500000Y-160000000D03*
X338000000Y-160000000D03*
X338500000Y-160000000D03*
X339000000Y-160000000D03*
X339500000Y-160000000D03*
X340000000Y-160000000D03*
X340500000Y-160000000D03*
X341000000Y-160000000D03*
X341500000Y-160000000D03*
X342000000Y-160000000D03*
X342500000Y-160000000D03*
X343000000Y-160000000D03*
X343500000Y-160000000D03*
X344000000Y-160000000D03*
X344500000Y-160000000D03*
X345000000Y-160000000D03*
X345500000Y-160000000D03*
X346000000Y-160000000D03*
X346500000Y-160000000D03*
X347000000Y-160000000D03*
X347500000Y-160000000D03*
X350500000Y-160000000D03*
X351000000Y-160000000D03*
X351500000Y-160000000D03*
D23*
X324500000Y-160000000D03*
X345500000Y-160000000D03*
%TD*%
D22*
%TO.C,J16*%
X318500000Y-220000000D03*
X319000000Y-220000000D03*
X319500000Y-220000000D03*
X320000000Y-220000000D03*
X320500000Y-220000000D03*
X321000000Y-220000000D03*
X321500000Y-220000000D03*
X322000000Y-220000000D03*
X322500000Y-220000000D03*
X323000000Y-220000000D03*
X323500000Y-220000000D03*
X324000000Y-220000000D03*
X324500000Y-220000000D03*
X325000000Y-220000000D03*
X325500000Y-220000000D03*
X326000000Y-220000000D03*
X326500000Y-220000000D03*
X327000000Y-220000000D03*
X327500000Y-220000000D03*
X328000000Y-220000000D03*
X328500000Y-220000000D03*
X329000000Y-220000000D03*
X329500000Y-220000000D03*
X330000000Y-220000000D03*
X330500000Y-220000000D03*
X331000000Y-220000000D03*
X331500000Y-220000000D03*
X332000000Y-220000000D03*
X332500000Y-220000000D03*
X333000000Y-220000000D03*
X333500000Y-220000000D03*
X334000000Y-220000000D03*
X334500000Y-220000000D03*
X335000000Y-220000000D03*
X335500000Y-220000000D03*
X336000000Y-220000000D03*
X336500000Y-220000000D03*
X337000000Y-220000000D03*
X337500000Y-220000000D03*
X338000000Y-220000000D03*
X338500000Y-220000000D03*
X339000000Y-220000000D03*
X339500000Y-220000000D03*
X340000000Y-220000000D03*
X340500000Y-220000000D03*
X341000000Y-220000000D03*
X341500000Y-220000000D03*
X342000000Y-220000000D03*
X342500000Y-220000000D03*
X343000000Y-220000000D03*
X343500000Y-220000000D03*
X344000000Y-220000000D03*
X344500000Y-220000000D03*
X345000000Y-220000000D03*
X345500000Y-220000000D03*
X346000000Y-220000000D03*
X346500000Y-220000000D03*
X347000000Y-220000000D03*
X347500000Y-220000000D03*
X350500000Y-220000000D03*
X351000000Y-220000000D03*
X351500000Y-220000000D03*
D23*
X324500000Y-220000000D03*
X345500000Y-220000000D03*
%TD*%
D24*
%TO.C,J17*%
X147500000Y-309750000D03*
X147500000Y-311250000D03*
X147500000Y-312750000D03*
X147500000Y-314250000D03*
X147500000Y-315750000D03*
X147500000Y-317250000D03*
X147500000Y-318750000D03*
X147500000Y-320250000D03*
X157500000Y-309750000D03*
X157500000Y-311250000D03*
X157500000Y-312750000D03*
X157500000Y-314250000D03*
X157500000Y-315750000D03*
X157500000Y-317250000D03*
X157500000Y-318750000D03*
X157500000Y-320250000D03*
%TD*%
%TO.C,J18*%
X247500000Y-309750000D03*
X247500000Y-311250000D03*
X247500000Y-312750000D03*
X247500000Y-314250000D03*
X247500000Y-315750000D03*
X247500000Y-317250000D03*
X247500000Y-318750000D03*
X247500000Y-320250000D03*
X257500000Y-309750000D03*
X257500000Y-311250000D03*
X257500000Y-312750000D03*
X257500000Y-314250000D03*
X257500000Y-315750000D03*
X257500000Y-317250000D03*
X257500000Y-318750000D03*
X257500000Y-320250000D03*
%TD*%
M02*
