M48
; DRILL file {KiCad 8.0.9-8.0.9-0~ubuntu22.04.1} date 2026-04-12T02:14:51+0000
; FORMAT={-:-/ absolute / metric / decimal}
; #@! TF.CreationDate,2026-04-12T02:14:51+00:00
; #@! TF.GenerationSoftware,Kicad,Pcbnew,8.0.9-8.0.9-0~ubuntu22.04.1
; #@! TF.FileFunction,MixedPlating,1,22
FMAT,2
METRIC
; #@! TA.AperFunction,Plated,PTH,ComponentDrill
T1C0.400
; #@! TA.AperFunction,Plated,PTH,ComponentDrill
T2C0.500
; #@! TA.AperFunction,Plated,PTH,ComponentDrill
T3C1.500
; #@! TA.AperFunction,Plated,PTH,ComponentDrill
T4C2.400
; #@! TA.AperFunction,Plated,PTH,ComponentDrill
T5C2.800
%
G90
G05
T1
X112.5Y-119.225
X112.5Y-120.075
X112.5Y-120.925
X112.5Y-121.775
X112.5Y-122.625
X112.5Y-123.475
X112.5Y-124.325
X112.5Y-125.175
X112.5Y-126.025
X112.5Y-126.875
X112.5Y-127.725
X112.5Y-128.575
X112.5Y-129.425
X112.5Y-130.275
X112.5Y-131.125
X112.5Y-131.975
X112.5Y-132.825
X112.5Y-133.675
X112.5Y-134.525
X112.5Y-135.375
X112.5Y-136.225
X112.5Y-137.075
X112.5Y-137.925
X112.5Y-138.775
X112.5Y-139.225
X112.5Y-139.625
X112.5Y-140.075
X112.5Y-140.475
X112.5Y-140.925
X112.5Y-141.325
X112.5Y-141.775
X112.5Y-142.175
X112.5Y-142.625
X112.5Y-143.025
X112.5Y-143.475
X112.5Y-143.875
X112.5Y-144.325
X112.5Y-144.725
X112.5Y-145.175
X112.5Y-145.575
X112.5Y-146.025
X112.5Y-146.425
X112.5Y-146.875
X112.5Y-147.275
X112.5Y-147.725
X112.5Y-148.125
X112.5Y-148.575
X112.5Y-148.975
X112.5Y-149.425
X112.5Y-149.825
X112.5Y-150.275
X112.5Y-150.675
X112.5Y-151.125
X112.5Y-151.525
X112.5Y-151.975
X112.5Y-152.375
X112.5Y-152.825
X112.5Y-153.225
X112.5Y-153.675
X112.5Y-154.075
X112.5Y-154.525
X112.5Y-154.925
X112.5Y-155.375
X112.5Y-155.775
X112.5Y-156.225
X112.5Y-156.625
X112.5Y-157.075
X112.5Y-157.475
X112.5Y-157.925
X112.5Y-158.325
X112.5Y-158.775
X112.5Y-159.175
X112.5Y-159.625
X112.5Y-160.025
X112.5Y-160.475
X112.5Y-160.875
X112.5Y-161.325
X112.5Y-161.725
X112.5Y-162.175
X112.5Y-162.575
X112.5Y-163.025
X112.5Y-163.425
X112.5Y-163.875
X112.5Y-164.275
X112.5Y-164.725
X112.5Y-165.125
X112.5Y-165.575
X112.5Y-165.975
X112.5Y-166.425
X112.5Y-166.825
X112.5Y-167.275
X112.5Y-167.675
X112.5Y-168.125
X112.5Y-168.525
X112.5Y-168.975
X112.5Y-169.375
X112.5Y-169.825
X112.5Y-170.225
X112.5Y-170.675
X112.5Y-171.075
X112.5Y-171.525
X112.5Y-171.925
X112.5Y-172.375
X112.5Y-172.775
X112.5Y-173.225
X112.5Y-173.625
X112.5Y-174.075
X112.5Y-174.475
X112.5Y-174.925
X112.5Y-175.325
X112.5Y-175.775
X112.5Y-176.175
X112.5Y-176.625
X112.5Y-177.025
X112.5Y-177.475
X112.5Y-177.875
X112.5Y-178.325
X112.5Y-178.725
X112.5Y-179.175
X112.5Y-179.575
X112.5Y-180.025
X112.5Y-180.425
X112.5Y-180.875
X112.5Y-181.275
X112.5Y-181.725
X112.5Y-182.125
X112.5Y-182.575
X112.5Y-182.975
X112.5Y-183.425
X112.5Y-183.825
X112.5Y-184.275
X112.5Y-184.675
X112.5Y-185.125
X112.5Y-185.525
X112.5Y-185.975
X112.5Y-186.375
X112.5Y-186.825
X112.5Y-187.225
X112.5Y-187.675
X112.5Y-188.075
X112.5Y-188.525
X112.5Y-188.925
X112.5Y-189.375
X112.5Y-189.775
X112.5Y-190.225
X112.5Y-190.625
X112.5Y-191.075
X112.5Y-191.475
X112.5Y-191.925
X112.5Y-192.325
X112.5Y-192.775
X112.5Y-193.175
X112.5Y-193.625
X112.5Y-194.025
X112.5Y-194.475
X112.5Y-194.875
X112.5Y-195.325
X112.5Y-195.725
X112.5Y-196.175
X112.5Y-196.575
X112.5Y-197.025
X112.5Y-197.425
X112.5Y-197.875
X112.5Y-198.275
X112.5Y-198.725
X112.5Y-199.125
X112.5Y-199.575
X112.5Y-199.975
X112.5Y-200.425
X112.5Y-200.825
X112.5Y-201.275
X112.5Y-201.675
X112.5Y-202.125
X112.5Y-202.525
X112.5Y-202.975
X112.5Y-203.375
X112.5Y-203.825
X112.5Y-204.225
X112.5Y-204.675
X112.5Y-205.075
X112.5Y-205.525
X112.5Y-205.925
X112.5Y-206.375
X112.5Y-206.775
X112.5Y-207.225
X112.5Y-207.625
X112.5Y-208.075
X112.5Y-208.475
X112.5Y-208.925
X112.5Y-209.325
X112.5Y-209.775
X112.5Y-210.175
X112.5Y-210.625
X112.5Y-211.025
X112.5Y-211.475
X112.5Y-211.875
X112.5Y-212.325
X112.5Y-212.725
X112.5Y-213.175
X112.5Y-213.575
X112.5Y-214.025
X112.5Y-214.425
X112.5Y-214.875
X112.5Y-215.275
X112.5Y-215.725
X112.5Y-216.125
X112.5Y-216.575
X112.5Y-216.975
X112.5Y-217.425
X112.5Y-217.825
X112.5Y-218.275
X112.5Y-218.675
X112.5Y-219.125
X112.5Y-219.525
X112.5Y-219.975
X112.5Y-220.375
X112.5Y-220.825
X112.5Y-221.225
X112.5Y-221.675
X112.5Y-222.075
X112.5Y-222.525
X112.5Y-222.925
X112.5Y-223.375
X112.5Y-223.775
X112.5Y-224.225
X112.5Y-224.625
X112.5Y-225.075
X112.5Y-225.475
X112.5Y-225.925
X112.5Y-226.325
X112.5Y-226.775
X112.5Y-227.175
X112.5Y-227.625
X112.5Y-228.025
X112.5Y-228.475
X112.5Y-228.875
X112.5Y-229.325
X112.5Y-229.725
X112.5Y-230.175
X112.5Y-230.575
X112.5Y-231.025
X112.5Y-231.425
X112.5Y-231.875
X112.5Y-232.275
X112.5Y-232.725
X112.5Y-233.125
X112.5Y-233.575
X112.5Y-233.975
X112.5Y-234.425
X112.5Y-234.825
X112.5Y-235.275
X112.5Y-235.675
X112.5Y-236.125
X112.5Y-236.525
X112.5Y-236.975
X112.5Y-237.375
X112.5Y-237.825
X112.5Y-238.225
X112.5Y-238.675
X112.5Y-239.075
X112.5Y-239.525
X112.5Y-239.925
X112.5Y-240.375
X112.5Y-240.775
X112.5Y-241.225
X112.5Y-242.075
X112.5Y-242.925
X112.5Y-243.775
X112.5Y-244.625
X112.5Y-245.475
X112.5Y-246.325
X112.5Y-247.175
X112.5Y-248.025
X112.5Y-248.875
X112.5Y-249.725
X112.5Y-250.575
X112.5Y-251.425
X112.5Y-252.275
X112.5Y-253.125
X112.5Y-253.975
X112.5Y-254.825
X112.5Y-255.675
X112.5Y-256.525
X112.5Y-257.375
X112.5Y-258.225
X112.5Y-259.075
X112.5Y-259.925
X112.5Y-260.775
X114.5Y-119.225
X114.5Y-120.075
X114.5Y-120.925
X114.5Y-121.775
X114.5Y-122.625
X114.5Y-123.475
X114.5Y-124.325
X114.5Y-125.175
X114.5Y-126.025
X114.5Y-126.875
X114.5Y-127.725
X114.5Y-128.575
X114.5Y-129.425
X114.5Y-130.275
X114.5Y-131.125
X114.5Y-131.975
X114.5Y-132.825
X114.5Y-133.675
X114.5Y-134.525
X114.5Y-135.375
X114.5Y-136.225
X114.5Y-137.075
X114.5Y-137.925
X114.5Y-138.775
X114.5Y-139.225
X114.5Y-139.625
X114.5Y-140.075
X114.5Y-140.475
X114.5Y-140.925
X114.5Y-141.325
X114.5Y-141.775
X114.5Y-142.175
X114.5Y-142.625
X114.5Y-143.025
X114.5Y-143.475
X114.5Y-143.875
X114.5Y-144.325
X114.5Y-144.725
X114.5Y-145.175
X114.5Y-145.575
X114.5Y-146.025
X114.5Y-146.425
X114.5Y-146.875
X114.5Y-147.275
X114.5Y-147.725
X114.5Y-148.125
X114.5Y-148.575
X114.5Y-148.975
X114.5Y-149.425
X114.5Y-149.825
X114.5Y-150.275
X114.5Y-150.675
X114.5Y-151.125
X114.5Y-151.525
X114.5Y-151.975
X114.5Y-152.375
X114.5Y-152.825
X114.5Y-153.225
X114.5Y-153.675
X114.5Y-154.075
X114.5Y-154.525
X114.5Y-154.925
X114.5Y-155.375
X114.5Y-155.775
X114.5Y-156.225
X114.5Y-156.625
X114.5Y-157.075
X114.5Y-157.475
X114.5Y-157.925
X114.5Y-158.325
X114.5Y-158.775
X114.5Y-159.175
X114.5Y-159.625
X114.5Y-160.025
X114.5Y-160.475
X114.5Y-160.875
X114.5Y-161.325
X114.5Y-161.725
X114.5Y-162.175
X114.5Y-162.575
X114.5Y-163.025
X114.5Y-163.425
X114.5Y-163.875
X114.5Y-164.275
X114.5Y-164.725
X114.5Y-165.125
X114.5Y-165.575
X114.5Y-165.975
X114.5Y-166.425
X114.5Y-166.825
X114.5Y-167.275
X114.5Y-167.675
X114.5Y-168.125
X114.5Y-168.525
X114.5Y-168.975
X114.5Y-169.375
X114.5Y-169.825
X114.5Y-170.225
X114.5Y-170.675
X114.5Y-171.075
X114.5Y-171.525
X114.5Y-171.925
X114.5Y-172.375
X114.5Y-172.775
X114.5Y-173.225
X114.5Y-173.625
X114.5Y-174.075
X114.5Y-174.475
X114.5Y-174.925
X114.5Y-175.325
X114.5Y-175.775
X114.5Y-176.175
X114.5Y-176.625
X114.5Y-177.025
X114.5Y-177.475
X114.5Y-177.875
X114.5Y-178.325
X114.5Y-178.725
X114.5Y-179.175
X114.5Y-179.575
X114.5Y-180.025
X114.5Y-180.425
X114.5Y-180.875
X114.5Y-181.275
X114.5Y-181.725
X114.5Y-182.125
X114.5Y-182.575
X114.5Y-182.975
X114.5Y-183.425
X114.5Y-183.825
X114.5Y-184.275
X114.5Y-184.675
X114.5Y-185.125
X114.5Y-185.525
X114.5Y-185.975
X114.5Y-186.375
X114.5Y-186.825
X114.5Y-187.225
X114.5Y-187.675
X114.5Y-188.075
X114.5Y-188.525
X114.5Y-188.925
X114.5Y-189.375
X114.5Y-189.775
X114.5Y-190.225
X114.5Y-190.625
X114.5Y-191.075
X114.5Y-191.475
X114.5Y-191.925
X114.5Y-192.325
X114.5Y-192.775
X114.5Y-193.175
X114.5Y-193.625
X114.5Y-194.025
X114.5Y-194.475
X114.5Y-194.875
X114.5Y-195.325
X114.5Y-195.725
X114.5Y-196.175
X114.5Y-196.575
X114.5Y-197.025
X114.5Y-197.425
X114.5Y-197.875
X114.5Y-198.275
X114.5Y-198.725
X114.5Y-199.125
X114.5Y-199.575
X114.5Y-199.975
X114.5Y-200.425
X114.5Y-200.825
X114.5Y-201.275
X114.5Y-201.675
X114.5Y-202.125
X114.5Y-202.525
X114.5Y-202.975
X114.5Y-203.375
X114.5Y-203.825
X114.5Y-204.225
X114.5Y-204.675
X114.5Y-205.075
X114.5Y-205.525
X114.5Y-205.925
X114.5Y-206.375
X114.5Y-206.775
X114.5Y-207.225
X114.5Y-207.625
X114.5Y-208.075
X114.5Y-208.475
X114.5Y-208.925
X114.5Y-209.325
X114.5Y-209.775
X114.5Y-210.175
X114.5Y-210.625
X114.5Y-211.025
X114.5Y-211.475
X114.5Y-211.875
X114.5Y-212.325
X114.5Y-212.725
X114.5Y-213.175
X114.5Y-213.575
X114.5Y-214.025
X114.5Y-214.425
X114.5Y-214.875
X114.5Y-215.275
X114.5Y-215.725
X114.5Y-216.125
X114.5Y-216.575
X114.5Y-216.975
X114.5Y-217.425
X114.5Y-217.825
X114.5Y-218.275
X114.5Y-218.675
X114.5Y-219.125
X114.5Y-219.525
X114.5Y-219.975
X114.5Y-220.375
X114.5Y-220.825
X114.5Y-221.225
X114.5Y-221.675
X114.5Y-222.075
X114.5Y-222.525
X114.5Y-222.925
X114.5Y-223.375
X114.5Y-223.775
X114.5Y-224.225
X114.5Y-224.625
X114.5Y-225.075
X114.5Y-225.475
X114.5Y-225.925
X114.5Y-226.325
X114.5Y-226.775
X114.5Y-227.175
X114.5Y-227.625
X114.5Y-228.025
X114.5Y-228.475
X114.5Y-228.875
X114.5Y-229.325
X114.5Y-229.725
X114.5Y-230.175
X114.5Y-230.575
X114.5Y-231.025
X114.5Y-231.425
X114.5Y-231.875
X114.5Y-232.275
X114.5Y-232.725
X114.5Y-233.125
X114.5Y-233.575
X114.5Y-233.975
X114.5Y-234.425
X114.5Y-234.825
X114.5Y-235.275
X114.5Y-235.675
X114.5Y-236.125
X114.5Y-236.525
X114.5Y-236.975
X114.5Y-237.375
X114.5Y-237.825
X114.5Y-238.225
X114.5Y-238.675
X114.5Y-239.075
X114.5Y-239.525
X114.5Y-239.925
X114.5Y-240.375
X114.5Y-240.775
X114.5Y-241.225
X114.5Y-242.075
X114.5Y-242.925
X114.5Y-243.775
X114.5Y-244.625
X114.5Y-245.475
X114.5Y-246.325
X114.5Y-247.175
X114.5Y-248.025
X114.5Y-248.875
X114.5Y-249.725
X114.5Y-250.575
X114.5Y-251.425
X114.5Y-252.275
X114.5Y-253.125
X114.5Y-253.975
X114.5Y-254.825
X114.5Y-255.675
X114.5Y-256.525
X114.5Y-257.375
X114.5Y-258.225
X114.5Y-259.075
X114.5Y-259.925
X114.5Y-260.775
X292.5Y-119.225
X292.5Y-120.075
X292.5Y-120.925
X292.5Y-121.775
X292.5Y-122.625
X292.5Y-123.475
X292.5Y-124.325
X292.5Y-125.175
X292.5Y-126.025
X292.5Y-126.875
X292.5Y-127.725
X292.5Y-128.575
X292.5Y-129.425
X292.5Y-130.275
X292.5Y-131.125
X292.5Y-131.975
X292.5Y-132.825
X292.5Y-133.675
X292.5Y-134.525
X292.5Y-135.375
X292.5Y-136.225
X292.5Y-137.075
X292.5Y-137.925
X292.5Y-138.775
X292.5Y-139.225
X292.5Y-139.625
X292.5Y-140.075
X292.5Y-140.475
X292.5Y-140.925
X292.5Y-141.325
X292.5Y-141.775
X292.5Y-142.175
X292.5Y-142.625
X292.5Y-143.025
X292.5Y-143.475
X292.5Y-143.875
X292.5Y-144.325
X292.5Y-144.725
X292.5Y-145.175
X292.5Y-145.575
X292.5Y-146.025
X292.5Y-146.425
X292.5Y-146.875
X292.5Y-147.275
X292.5Y-147.725
X292.5Y-148.125
X292.5Y-148.575
X292.5Y-148.975
X292.5Y-149.425
X292.5Y-149.825
X292.5Y-150.275
X292.5Y-150.675
X292.5Y-151.125
X292.5Y-151.525
X292.5Y-151.975
X292.5Y-152.375
X292.5Y-152.825
X292.5Y-153.225
X292.5Y-153.675
X292.5Y-154.075
X292.5Y-154.525
X292.5Y-154.925
X292.5Y-155.375
X292.5Y-155.775
X292.5Y-156.225
X292.5Y-156.625
X292.5Y-157.075
X292.5Y-157.475
X292.5Y-157.925
X292.5Y-158.325
X292.5Y-158.775
X292.5Y-159.175
X292.5Y-159.625
X292.5Y-160.025
X292.5Y-160.475
X292.5Y-160.875
X292.5Y-161.325
X292.5Y-161.725
X292.5Y-162.175
X292.5Y-162.575
X292.5Y-163.025
X292.5Y-163.425
X292.5Y-163.875
X292.5Y-164.275
X292.5Y-164.725
X292.5Y-165.125
X292.5Y-165.575
X292.5Y-165.975
X292.5Y-166.425
X292.5Y-166.825
X292.5Y-167.275
X292.5Y-167.675
X292.5Y-168.125
X292.5Y-168.525
X292.5Y-168.975
X292.5Y-169.375
X292.5Y-169.825
X292.5Y-170.225
X292.5Y-170.675
X292.5Y-171.075
X292.5Y-171.525
X292.5Y-171.925
X292.5Y-172.375
X292.5Y-172.775
X292.5Y-173.225
X292.5Y-173.625
X292.5Y-174.075
X292.5Y-174.475
X292.5Y-174.925
X292.5Y-175.325
X292.5Y-175.775
X292.5Y-176.175
X292.5Y-176.625
X292.5Y-177.025
X292.5Y-177.475
X292.5Y-177.875
X292.5Y-178.325
X292.5Y-178.725
X292.5Y-179.175
X292.5Y-179.575
X292.5Y-180.025
X292.5Y-180.425
X292.5Y-180.875
X292.5Y-181.275
X292.5Y-181.725
X292.5Y-182.125
X292.5Y-182.575
X292.5Y-182.975
X292.5Y-183.425
X292.5Y-183.825
X292.5Y-184.275
X292.5Y-184.675
X292.5Y-185.125
X292.5Y-185.525
X292.5Y-185.975
X292.5Y-186.375
X292.5Y-186.825
X292.5Y-187.225
X292.5Y-187.675
X292.5Y-188.075
X292.5Y-188.525
X292.5Y-188.925
X292.5Y-189.375
X292.5Y-189.775
X292.5Y-190.225
X292.5Y-190.625
X292.5Y-191.075
X292.5Y-191.475
X292.5Y-191.925
X292.5Y-192.325
X292.5Y-192.775
X292.5Y-193.175
X292.5Y-193.625
X292.5Y-194.025
X292.5Y-194.475
X292.5Y-194.875
X292.5Y-195.325
X292.5Y-195.725
X292.5Y-196.175
X292.5Y-196.575
X292.5Y-197.025
X292.5Y-197.425
X292.5Y-197.875
X292.5Y-198.275
X292.5Y-198.725
X292.5Y-199.125
X292.5Y-199.575
X292.5Y-199.975
X292.5Y-200.425
X292.5Y-200.825
X292.5Y-201.275
X292.5Y-201.675
X292.5Y-202.125
X292.5Y-202.525
X292.5Y-202.975
X292.5Y-203.375
X292.5Y-203.825
X292.5Y-204.225
X292.5Y-204.675
X292.5Y-205.075
X292.5Y-205.525
X292.5Y-205.925
X292.5Y-206.375
X292.5Y-206.775
X292.5Y-207.225
X292.5Y-207.625
X292.5Y-208.075
X292.5Y-208.475
X292.5Y-208.925
X292.5Y-209.325
X292.5Y-209.775
X292.5Y-210.175
X292.5Y-210.625
X292.5Y-211.025
X292.5Y-211.475
X292.5Y-211.875
X292.5Y-212.325
X292.5Y-212.725
X292.5Y-213.175
X292.5Y-213.575
X292.5Y-214.025
X292.5Y-214.425
X292.5Y-214.875
X292.5Y-215.275
X292.5Y-215.725
X292.5Y-216.125
X292.5Y-216.575
X292.5Y-216.975
X292.5Y-217.425
X292.5Y-217.825
X292.5Y-218.275
X292.5Y-218.675
X292.5Y-219.125
X292.5Y-219.525
X292.5Y-219.975
X292.5Y-220.375
X292.5Y-220.825
X292.5Y-221.225
X292.5Y-221.675
X292.5Y-222.075
X292.5Y-222.525
X292.5Y-222.925
X292.5Y-223.375
X292.5Y-223.775
X292.5Y-224.225
X292.5Y-224.625
X292.5Y-225.075
X292.5Y-225.475
X292.5Y-225.925
X292.5Y-226.325
X292.5Y-226.775
X292.5Y-227.175
X292.5Y-227.625
X292.5Y-228.025
X292.5Y-228.475
X292.5Y-228.875
X292.5Y-229.325
X292.5Y-229.725
X292.5Y-230.175
X292.5Y-230.575
X292.5Y-231.025
X292.5Y-231.425
X292.5Y-231.875
X292.5Y-232.275
X292.5Y-232.725
X292.5Y-233.125
X292.5Y-233.575
X292.5Y-233.975
X292.5Y-234.425
X292.5Y-234.825
X292.5Y-235.275
X292.5Y-235.675
X292.5Y-236.125
X292.5Y-236.525
X292.5Y-236.975
X292.5Y-237.375
X292.5Y-237.825
X292.5Y-238.225
X292.5Y-238.675
X292.5Y-239.075
X292.5Y-239.525
X292.5Y-239.925
X292.5Y-240.375
X292.5Y-240.775
X292.5Y-241.225
X292.5Y-242.075
X292.5Y-242.925
X292.5Y-243.775
X292.5Y-244.625
X292.5Y-245.475
X292.5Y-246.325
X292.5Y-247.175
X292.5Y-248.025
X292.5Y-248.875
X292.5Y-249.725
X292.5Y-250.575
X292.5Y-251.425
X292.5Y-252.275
X292.5Y-253.125
X292.5Y-253.975
X292.5Y-254.825
X292.5Y-255.675
X292.5Y-256.525
X292.5Y-257.375
X292.5Y-258.225
X292.5Y-259.075
X292.5Y-259.925
X292.5Y-260.775
X294.5Y-119.225
X294.5Y-120.075
X294.5Y-120.925
X294.5Y-121.775
X294.5Y-122.625
X294.5Y-123.475
X294.5Y-124.325
X294.5Y-125.175
X294.5Y-126.025
X294.5Y-126.875
X294.5Y-127.725
X294.5Y-128.575
X294.5Y-129.425
X294.5Y-130.275
X294.5Y-131.125
X294.5Y-131.975
X294.5Y-132.825
X294.5Y-133.675
X294.5Y-134.525
X294.5Y-135.375
X294.5Y-136.225
X294.5Y-137.075
X294.5Y-137.925
X294.5Y-138.775
X294.5Y-139.225
X294.5Y-139.625
X294.5Y-140.075
X294.5Y-140.475
X294.5Y-140.925
X294.5Y-141.325
X294.5Y-141.775
X294.5Y-142.175
X294.5Y-142.625
X294.5Y-143.025
X294.5Y-143.475
X294.5Y-143.875
X294.5Y-144.325
X294.5Y-144.725
X294.5Y-145.175
X294.5Y-145.575
X294.5Y-146.025
X294.5Y-146.425
X294.5Y-146.875
X294.5Y-147.275
X294.5Y-147.725
X294.5Y-148.125
X294.5Y-148.575
X294.5Y-148.975
X294.5Y-149.425
X294.5Y-149.825
X294.5Y-150.275
X294.5Y-150.675
X294.5Y-151.125
X294.5Y-151.525
X294.5Y-151.975
X294.5Y-152.375
X294.5Y-152.825
X294.5Y-153.225
X294.5Y-153.675
X294.5Y-154.075
X294.5Y-154.525
X294.5Y-154.925
X294.5Y-155.375
X294.5Y-155.775
X294.5Y-156.225
X294.5Y-156.625
X294.5Y-157.075
X294.5Y-157.475
X294.5Y-157.925
X294.5Y-158.325
X294.5Y-158.775
X294.5Y-159.175
X294.5Y-159.625
X294.5Y-160.025
X294.5Y-160.475
X294.5Y-160.875
X294.5Y-161.325
X294.5Y-161.725
X294.5Y-162.175
X294.5Y-162.575
X294.5Y-163.025
X294.5Y-163.425
X294.5Y-163.875
X294.5Y-164.275
X294.5Y-164.725
X294.5Y-165.125
X294.5Y-165.575
X294.5Y-165.975
X294.5Y-166.425
X294.5Y-166.825
X294.5Y-167.275
X294.5Y-167.675
X294.5Y-168.125
X294.5Y-168.525
X294.5Y-168.975
X294.5Y-169.375
X294.5Y-169.825
X294.5Y-170.225
X294.5Y-170.675
X294.5Y-171.075
X294.5Y-171.525
X294.5Y-171.925
X294.5Y-172.375
X294.5Y-172.775
X294.5Y-173.225
X294.5Y-173.625
X294.5Y-174.075
X294.5Y-174.475
X294.5Y-174.925
X294.5Y-175.325
X294.5Y-175.775
X294.5Y-176.175
X294.5Y-176.625
X294.5Y-177.025
X294.5Y-177.475
X294.5Y-177.875
X294.5Y-178.325
X294.5Y-178.725
X294.5Y-179.175
X294.5Y-179.575
X294.5Y-180.025
X294.5Y-180.425
X294.5Y-180.875
X294.5Y-181.275
X294.5Y-181.725
X294.5Y-182.125
X294.5Y-182.575
X294.5Y-182.975
X294.5Y-183.425
X294.5Y-183.825
X294.5Y-184.275
X294.5Y-184.675
X294.5Y-185.125
X294.5Y-185.525
X294.5Y-185.975
X294.5Y-186.375
X294.5Y-186.825
X294.5Y-187.225
X294.5Y-187.675
X294.5Y-188.075
X294.5Y-188.525
X294.5Y-188.925
X294.5Y-189.375
X294.5Y-189.775
X294.5Y-190.225
X294.5Y-190.625
X294.5Y-191.075
X294.5Y-191.475
X294.5Y-191.925
X294.5Y-192.325
X294.5Y-192.775
X294.5Y-193.175
X294.5Y-193.625
X294.5Y-194.025
X294.5Y-194.475
X294.5Y-194.875
X294.5Y-195.325
X294.5Y-195.725
X294.5Y-196.175
X294.5Y-196.575
X294.5Y-197.025
X294.5Y-197.425
X294.5Y-197.875
X294.5Y-198.275
X294.5Y-198.725
X294.5Y-199.125
X294.5Y-199.575
X294.5Y-199.975
X294.5Y-200.425
X294.5Y-200.825
X294.5Y-201.275
X294.5Y-201.675
X294.5Y-202.125
X294.5Y-202.525
X294.5Y-202.975
X294.5Y-203.375
X294.5Y-203.825
X294.5Y-204.225
X294.5Y-204.675
X294.5Y-205.075
X294.5Y-205.525
X294.5Y-205.925
X294.5Y-206.375
X294.5Y-206.775
X294.5Y-207.225
X294.5Y-207.625
X294.5Y-208.075
X294.5Y-208.475
X294.5Y-208.925
X294.5Y-209.325
X294.5Y-209.775
X294.5Y-210.175
X294.5Y-210.625
X294.5Y-211.025
X294.5Y-211.475
X294.5Y-211.875
X294.5Y-212.325
X294.5Y-212.725
X294.5Y-213.175
X294.5Y-213.575
X294.5Y-214.025
X294.5Y-214.425
X294.5Y-214.875
X294.5Y-215.275
X294.5Y-215.725
X294.5Y-216.125
X294.5Y-216.575
X294.5Y-216.975
X294.5Y-217.425
X294.5Y-217.825
X294.5Y-218.275
X294.5Y-218.675
X294.5Y-219.125
X294.5Y-219.525
X294.5Y-219.975
X294.5Y-220.375
X294.5Y-220.825
X294.5Y-221.225
X294.5Y-221.675
X294.5Y-222.075
X294.5Y-222.525
X294.5Y-222.925
X294.5Y-223.375
X294.5Y-223.775
X294.5Y-224.225
X294.5Y-224.625
X294.5Y-225.075
X294.5Y-225.475
X294.5Y-225.925
X294.5Y-226.325
X294.5Y-226.775
X294.5Y-227.175
X294.5Y-227.625
X294.5Y-228.025
X294.5Y-228.475
X294.5Y-228.875
X294.5Y-229.325
X294.5Y-229.725
X294.5Y-230.175
X294.5Y-230.575
X294.5Y-231.025
X294.5Y-231.425
X294.5Y-231.875
X294.5Y-232.275
X294.5Y-232.725
X294.5Y-233.125
X294.5Y-233.575
X294.5Y-233.975
X294.5Y-234.425
X294.5Y-234.825
X294.5Y-235.275
X294.5Y-235.675
X294.5Y-236.125
X294.5Y-236.525
X294.5Y-236.975
X294.5Y-237.375
X294.5Y-237.825
X294.5Y-238.225
X294.5Y-238.675
X294.5Y-239.075
X294.5Y-239.525
X294.5Y-239.925
X294.5Y-240.375
X294.5Y-240.775
X294.5Y-241.225
X294.5Y-242.075
X294.5Y-242.925
X294.5Y-243.775
X294.5Y-244.625
X294.5Y-245.475
X294.5Y-246.325
X294.5Y-247.175
X294.5Y-248.025
X294.5Y-248.875
X294.5Y-249.725
X294.5Y-250.575
X294.5Y-251.425
X294.5Y-252.275
X294.5Y-253.125
X294.5Y-253.975
X294.5Y-254.825
X294.5Y-255.675
X294.5Y-256.525
X294.5Y-257.375
X294.5Y-258.225
X294.5Y-259.075
X294.5Y-259.925
X294.5Y-260.775
T2
X49.5Y-75.0
X49.5Y-78.0
X49.5Y-302.0
X49.5Y-305.0
X50.5Y-75.0
X50.5Y-78.0
X50.5Y-302.0
X50.5Y-305.0
X51.5Y-75.0
X51.5Y-78.0
X51.5Y-302.0
X51.5Y-305.0
X52.5Y-75.0
X52.5Y-78.0
X52.5Y-302.0
X52.5Y-305.0
X53.5Y-75.0
X53.5Y-78.0
X53.5Y-302.0
X53.5Y-305.0
X54.5Y-75.0
X54.5Y-78.0
X54.5Y-302.0
X54.5Y-305.0
X55.5Y-75.0
X55.5Y-78.0
X55.5Y-302.0
X55.5Y-305.0
X56.5Y-75.0
X56.5Y-78.0
X56.5Y-302.0
X56.5Y-305.0
X57.5Y-75.0
X57.5Y-78.0
X57.5Y-302.0
X57.5Y-305.0
X58.5Y-75.0
X58.5Y-78.0
X58.5Y-302.0
X58.5Y-305.0
X59.5Y-75.0
X59.5Y-78.0
X59.5Y-302.0
X59.5Y-305.0
X60.5Y-75.0
X60.5Y-78.0
X60.5Y-302.0
X60.5Y-305.0
X61.5Y-75.0
X61.5Y-78.0
X61.5Y-302.0
X61.5Y-305.0
X62.5Y-75.0
X62.5Y-78.0
X62.5Y-302.0
X62.5Y-305.0
X63.5Y-75.0
X63.5Y-78.0
X63.5Y-302.0
X63.5Y-305.0
X64.5Y-75.0
X64.5Y-78.0
X64.5Y-302.0
X64.5Y-305.0
X65.5Y-75.0
X65.5Y-78.0
X65.5Y-302.0
X65.5Y-305.0
X66.5Y-75.0
X66.5Y-78.0
X66.5Y-302.0
X66.5Y-305.0
X67.5Y-75.0
X67.5Y-78.0
X67.5Y-302.0
X67.5Y-305.0
X68.5Y-75.0
X68.5Y-78.0
X68.5Y-302.0
X68.5Y-305.0
X69.5Y-75.0
X69.5Y-78.0
X69.5Y-302.0
X69.5Y-305.0
X70.5Y-75.0
X70.5Y-78.0
X70.5Y-302.0
X70.5Y-305.0
X71.5Y-75.0
X71.5Y-78.0
X71.5Y-302.0
X71.5Y-305.0
X72.5Y-75.0
X72.5Y-78.0
X72.5Y-302.0
X72.5Y-305.0
X73.5Y-75.0
X73.5Y-78.0
X73.5Y-302.0
X73.5Y-305.0
X74.5Y-75.0
X74.5Y-78.0
X74.5Y-302.0
X74.5Y-305.0
X75.5Y-75.0
X75.5Y-78.0
X75.5Y-302.0
X75.5Y-305.0
X76.5Y-75.0
X76.5Y-78.0
X76.5Y-302.0
X76.5Y-305.0
X77.5Y-75.0
X77.5Y-78.0
X77.5Y-302.0
X77.5Y-305.0
X78.5Y-75.0
X78.5Y-78.0
X78.5Y-302.0
X78.5Y-305.0
X79.5Y-75.0
X79.5Y-78.0
X79.5Y-302.0
X79.5Y-305.0
X80.5Y-75.0
X80.5Y-78.0
X80.5Y-302.0
X80.5Y-305.0
X81.5Y-75.0
X81.5Y-78.0
X81.5Y-302.0
X81.5Y-305.0
X82.5Y-75.0
X82.5Y-78.0
X82.5Y-302.0
X82.5Y-305.0
X83.5Y-75.0
X83.5Y-78.0
X83.5Y-302.0
X83.5Y-305.0
X84.5Y-75.0
X84.5Y-78.0
X84.5Y-302.0
X84.5Y-305.0
X85.5Y-75.0
X85.5Y-78.0
X85.5Y-302.0
X85.5Y-305.0
X86.5Y-75.0
X86.5Y-78.0
X86.5Y-302.0
X86.5Y-305.0
X87.5Y-75.0
X87.5Y-78.0
X87.5Y-302.0
X87.5Y-305.0
X88.5Y-75.0
X88.5Y-78.0
X88.5Y-302.0
X88.5Y-305.0
X89.5Y-75.0
X89.5Y-78.0
X89.5Y-302.0
X89.5Y-305.0
X90.5Y-75.0
X90.5Y-78.0
X90.5Y-302.0
X90.5Y-305.0
X91.5Y-75.0
X91.5Y-78.0
X91.5Y-302.0
X91.5Y-305.0
X92.5Y-75.0
X92.5Y-78.0
X92.5Y-302.0
X92.5Y-305.0
X93.5Y-75.0
X93.5Y-78.0
X93.5Y-302.0
X93.5Y-305.0
X94.5Y-75.0
X94.5Y-78.0
X94.5Y-302.0
X94.5Y-305.0
X95.5Y-75.0
X95.5Y-78.0
X95.5Y-302.0
X95.5Y-305.0
X96.5Y-75.0
X96.5Y-78.0
X96.5Y-302.0
X96.5Y-305.0
X97.5Y-75.0
X97.5Y-78.0
X97.5Y-302.0
X97.5Y-305.0
X98.5Y-75.0
X98.5Y-78.0
X98.5Y-302.0
X98.5Y-305.0
X99.5Y-75.0
X99.5Y-78.0
X99.5Y-302.0
X99.5Y-305.0
X100.5Y-75.0
X100.5Y-78.0
X100.5Y-302.0
X100.5Y-305.0
X101.5Y-75.0
X101.5Y-78.0
X101.5Y-302.0
X101.5Y-305.0
X102.5Y-75.0
X102.5Y-78.0
X102.5Y-302.0
X102.5Y-305.0
X103.5Y-75.0
X103.5Y-78.0
X103.5Y-302.0
X103.5Y-305.0
X104.5Y-75.0
X104.5Y-78.0
X104.5Y-302.0
X104.5Y-305.0
X105.5Y-75.0
X105.5Y-78.0
X105.5Y-302.0
X105.5Y-305.0
X106.5Y-75.0
X106.5Y-78.0
X106.5Y-302.0
X106.5Y-305.0
X107.5Y-75.0
X107.5Y-78.0
X107.5Y-302.0
X107.5Y-305.0
X108.5Y-75.0
X108.5Y-78.0
X108.5Y-302.0
X108.5Y-305.0
X109.5Y-75.0
X109.5Y-78.0
X109.5Y-302.0
X109.5Y-305.0
X110.5Y-75.0
X110.5Y-78.0
X110.5Y-302.0
X110.5Y-305.0
X111.5Y-75.0
X111.5Y-78.0
X111.5Y-302.0
X111.5Y-305.0
X112.5Y-75.0
X112.5Y-78.0
X112.5Y-302.0
X112.5Y-305.0
X113.5Y-75.0
X113.5Y-78.0
X113.5Y-302.0
X113.5Y-305.0
X114.5Y-75.0
X114.5Y-78.0
X114.5Y-302.0
X114.5Y-305.0
X115.5Y-75.0
X115.5Y-78.0
X115.5Y-302.0
X115.5Y-305.0
X116.5Y-75.0
X116.5Y-78.0
X116.5Y-302.0
X116.5Y-305.0
X117.5Y-75.0
X117.5Y-78.0
X117.5Y-302.0
X117.5Y-305.0
X118.5Y-75.0
X118.5Y-78.0
X118.5Y-302.0
X118.5Y-305.0
X119.5Y-75.0
X119.5Y-75.0
X119.5Y-78.0
X119.5Y-78.0
X119.5Y-302.0
X119.5Y-302.0
X119.5Y-305.0
X119.5Y-305.0
X120.5Y-75.0
X120.5Y-75.0
X120.5Y-78.0
X120.5Y-78.0
X120.5Y-302.0
X120.5Y-302.0
X120.5Y-305.0
X120.5Y-305.0
X121.5Y-75.0
X121.5Y-75.0
X121.5Y-78.0
X121.5Y-78.0
X121.5Y-302.0
X121.5Y-302.0
X121.5Y-305.0
X121.5Y-305.0
X122.5Y-75.0
X122.5Y-75.0
X122.5Y-78.0
X122.5Y-78.0
X122.5Y-302.0
X122.5Y-302.0
X122.5Y-305.0
X122.5Y-305.0
X123.5Y-75.0
X123.5Y-75.0
X123.5Y-78.0
X123.5Y-78.0
X123.5Y-302.0
X123.5Y-302.0
X123.5Y-305.0
X123.5Y-305.0
X124.5Y-75.0
X124.5Y-75.0
X124.5Y-78.0
X124.5Y-78.0
X124.5Y-302.0
X124.5Y-302.0
X124.5Y-305.0
X124.5Y-305.0
X125.5Y-75.0
X125.5Y-75.0
X125.5Y-78.0
X125.5Y-78.0
X125.5Y-302.0
X125.5Y-302.0
X125.5Y-305.0
X125.5Y-305.0
X126.5Y-75.0
X126.5Y-75.0
X126.5Y-78.0
X126.5Y-78.0
X126.5Y-302.0
X126.5Y-302.0
X126.5Y-305.0
X126.5Y-305.0
X127.5Y-75.0
X127.5Y-75.0
X127.5Y-78.0
X127.5Y-78.0
X127.5Y-302.0
X127.5Y-302.0
X127.5Y-305.0
X127.5Y-305.0
X128.5Y-75.0
X128.5Y-75.0
X128.5Y-78.0
X128.5Y-78.0
X128.5Y-302.0
X128.5Y-302.0
X128.5Y-305.0
X128.5Y-305.0
X129.5Y-75.0
X129.5Y-75.0
X129.5Y-78.0
X129.5Y-78.0
X129.5Y-302.0
X129.5Y-302.0
X129.5Y-305.0
X129.5Y-305.0
X130.5Y-75.0
X130.5Y-75.0
X130.5Y-78.0
X130.5Y-78.0
X130.5Y-302.0
X130.5Y-302.0
X130.5Y-305.0
X130.5Y-305.0
X131.5Y-75.0
X131.5Y-78.0
X131.5Y-302.0
X131.5Y-305.0
X132.5Y-75.0
X132.5Y-78.0
X132.5Y-302.0
X132.5Y-305.0
X133.5Y-75.0
X133.5Y-78.0
X133.5Y-302.0
X133.5Y-305.0
X134.5Y-75.0
X134.5Y-78.0
X134.5Y-302.0
X134.5Y-305.0
X135.5Y-75.0
X135.5Y-78.0
X135.5Y-302.0
X135.5Y-305.0
X136.5Y-75.0
X136.5Y-78.0
X136.5Y-302.0
X136.5Y-305.0
X137.5Y-75.0
X137.5Y-78.0
X137.5Y-302.0
X137.5Y-305.0
X138.5Y-75.0
X138.5Y-78.0
X138.5Y-302.0
X138.5Y-305.0
X139.5Y-75.0
X139.5Y-78.0
X139.5Y-302.0
X139.5Y-305.0
X140.5Y-75.0
X140.5Y-78.0
X140.5Y-302.0
X140.5Y-305.0
X141.5Y-75.0
X141.5Y-78.0
X141.5Y-302.0
X141.5Y-305.0
X142.5Y-75.0
X142.5Y-78.0
X142.5Y-302.0
X142.5Y-305.0
X143.5Y-75.0
X143.5Y-78.0
X143.5Y-302.0
X143.5Y-305.0
X144.5Y-75.0
X144.5Y-78.0
X144.5Y-302.0
X144.5Y-305.0
X145.5Y-75.0
X145.5Y-78.0
X145.5Y-302.0
X145.5Y-305.0
X146.5Y-75.0
X146.5Y-78.0
X146.5Y-302.0
X146.5Y-305.0
X147.5Y-75.0
X147.5Y-78.0
X147.5Y-302.0
X147.5Y-305.0
X148.5Y-75.0
X148.5Y-78.0
X148.5Y-302.0
X148.5Y-305.0
X149.5Y-75.0
X149.5Y-78.0
X149.5Y-302.0
X149.5Y-305.0
X150.5Y-75.0
X150.5Y-78.0
X150.5Y-302.0
X150.5Y-305.0
X151.5Y-75.0
X151.5Y-78.0
X151.5Y-302.0
X151.5Y-305.0
X152.5Y-75.0
X152.5Y-78.0
X152.5Y-302.0
X152.5Y-305.0
X153.5Y-75.0
X153.5Y-78.0
X153.5Y-302.0
X153.5Y-305.0
X154.5Y-75.0
X154.5Y-78.0
X154.5Y-302.0
X154.5Y-305.0
X155.5Y-75.0
X155.5Y-78.0
X155.5Y-302.0
X155.5Y-305.0
X156.5Y-75.0
X156.5Y-78.0
X156.5Y-302.0
X156.5Y-305.0
X157.5Y-75.0
X157.5Y-78.0
X157.5Y-302.0
X157.5Y-305.0
X158.5Y-75.0
X158.5Y-78.0
X158.5Y-302.0
X158.5Y-305.0
X159.5Y-75.0
X159.5Y-78.0
X159.5Y-302.0
X159.5Y-305.0
X160.5Y-75.0
X160.5Y-78.0
X160.5Y-302.0
X160.5Y-305.0
X161.5Y-75.0
X161.5Y-78.0
X161.5Y-302.0
X161.5Y-305.0
X162.5Y-75.0
X162.5Y-78.0
X162.5Y-302.0
X162.5Y-305.0
X163.5Y-75.0
X163.5Y-78.0
X163.5Y-302.0
X163.5Y-305.0
X164.5Y-75.0
X164.5Y-78.0
X164.5Y-302.0
X164.5Y-305.0
X165.5Y-75.0
X165.5Y-78.0
X165.5Y-302.0
X165.5Y-305.0
X166.5Y-75.0
X166.5Y-78.0
X166.5Y-302.0
X166.5Y-305.0
X167.5Y-75.0
X167.5Y-78.0
X167.5Y-302.0
X167.5Y-305.0
X168.5Y-75.0
X168.5Y-78.0
X168.5Y-302.0
X168.5Y-305.0
X169.5Y-75.0
X169.5Y-78.0
X169.5Y-302.0
X169.5Y-305.0
X170.5Y-75.0
X170.5Y-78.0
X170.5Y-302.0
X170.5Y-305.0
X171.5Y-75.0
X171.5Y-78.0
X171.5Y-302.0
X171.5Y-305.0
X172.5Y-75.0
X172.5Y-78.0
X172.5Y-302.0
X172.5Y-305.0
X173.5Y-75.0
X173.5Y-78.0
X173.5Y-302.0
X173.5Y-305.0
X174.5Y-75.0
X174.5Y-78.0
X174.5Y-302.0
X174.5Y-305.0
X175.5Y-75.0
X175.5Y-78.0
X175.5Y-302.0
X175.5Y-305.0
X176.5Y-75.0
X176.5Y-78.0
X176.5Y-302.0
X176.5Y-305.0
X177.5Y-75.0
X177.5Y-78.0
X177.5Y-302.0
X177.5Y-305.0
X178.5Y-75.0
X178.5Y-78.0
X178.5Y-302.0
X178.5Y-305.0
X179.5Y-75.0
X179.5Y-78.0
X179.5Y-302.0
X179.5Y-305.0
X180.5Y-75.0
X180.5Y-78.0
X180.5Y-302.0
X180.5Y-305.0
X181.5Y-75.0
X181.5Y-78.0
X181.5Y-302.0
X181.5Y-305.0
X182.5Y-75.0
X182.5Y-78.0
X182.5Y-302.0
X182.5Y-305.0
X183.5Y-75.0
X183.5Y-78.0
X183.5Y-302.0
X183.5Y-305.0
X184.5Y-75.0
X184.5Y-78.0
X184.5Y-302.0
X184.5Y-305.0
X185.5Y-75.0
X185.5Y-78.0
X185.5Y-302.0
X185.5Y-305.0
X186.5Y-75.0
X186.5Y-78.0
X186.5Y-302.0
X186.5Y-305.0
X187.5Y-75.0
X187.5Y-78.0
X187.5Y-302.0
X187.5Y-305.0
X188.5Y-75.0
X188.5Y-78.0
X188.5Y-302.0
X188.5Y-305.0
X189.5Y-75.0
X189.5Y-75.0
X189.5Y-78.0
X189.5Y-78.0
X189.5Y-302.0
X189.5Y-302.0
X189.5Y-305.0
X189.5Y-305.0
X190.5Y-75.0
X190.5Y-75.0
X190.5Y-78.0
X190.5Y-78.0
X190.5Y-302.0
X190.5Y-302.0
X190.5Y-305.0
X190.5Y-305.0
X191.5Y-75.0
X191.5Y-75.0
X191.5Y-78.0
X191.5Y-78.0
X191.5Y-302.0
X191.5Y-302.0
X191.5Y-305.0
X191.5Y-305.0
X192.5Y-75.0
X192.5Y-75.0
X192.5Y-78.0
X192.5Y-78.0
X192.5Y-302.0
X192.5Y-302.0
X192.5Y-305.0
X192.5Y-305.0
X193.5Y-75.0
X193.5Y-75.0
X193.5Y-78.0
X193.5Y-78.0
X193.5Y-302.0
X193.5Y-302.0
X193.5Y-305.0
X193.5Y-305.0
X194.5Y-75.0
X194.5Y-75.0
X194.5Y-78.0
X194.5Y-78.0
X194.5Y-302.0
X194.5Y-302.0
X194.5Y-305.0
X194.5Y-305.0
X195.5Y-75.0
X195.5Y-75.0
X195.5Y-78.0
X195.5Y-78.0
X195.5Y-302.0
X195.5Y-302.0
X195.5Y-305.0
X195.5Y-305.0
X196.5Y-75.0
X196.5Y-75.0
X196.5Y-78.0
X196.5Y-78.0
X196.5Y-302.0
X196.5Y-302.0
X196.5Y-305.0
X196.5Y-305.0
X197.5Y-75.0
X197.5Y-75.0
X197.5Y-78.0
X197.5Y-78.0
X197.5Y-302.0
X197.5Y-302.0
X197.5Y-305.0
X197.5Y-305.0
X198.5Y-75.0
X198.5Y-75.0
X198.5Y-78.0
X198.5Y-78.0
X198.5Y-302.0
X198.5Y-302.0
X198.5Y-305.0
X198.5Y-305.0
X199.5Y-75.0
X199.5Y-75.0
X199.5Y-78.0
X199.5Y-78.0
X199.5Y-302.0
X199.5Y-302.0
X199.5Y-305.0
X199.5Y-305.0
X200.5Y-75.0
X200.5Y-75.0
X200.5Y-78.0
X200.5Y-78.0
X200.5Y-302.0
X200.5Y-302.0
X200.5Y-305.0
X200.5Y-305.0
X201.5Y-75.0
X201.5Y-78.0
X201.5Y-302.0
X201.5Y-305.0
X202.5Y-75.0
X202.5Y-78.0
X202.5Y-302.0
X202.5Y-305.0
X203.5Y-75.0
X203.5Y-78.0
X203.5Y-302.0
X203.5Y-305.0
X204.5Y-75.0
X204.5Y-78.0
X204.5Y-302.0
X204.5Y-305.0
X205.5Y-75.0
X205.5Y-78.0
X205.5Y-302.0
X205.5Y-305.0
X206.5Y-75.0
X206.5Y-78.0
X206.5Y-302.0
X206.5Y-305.0
X207.5Y-75.0
X207.5Y-78.0
X207.5Y-302.0
X207.5Y-305.0
X208.5Y-75.0
X208.5Y-78.0
X208.5Y-302.0
X208.5Y-305.0
X209.5Y-75.0
X209.5Y-78.0
X209.5Y-302.0
X209.5Y-305.0
X210.5Y-75.0
X210.5Y-78.0
X210.5Y-302.0
X210.5Y-305.0
X211.5Y-75.0
X211.5Y-78.0
X211.5Y-302.0
X211.5Y-305.0
X212.5Y-75.0
X212.5Y-78.0
X212.5Y-302.0
X212.5Y-305.0
X213.5Y-75.0
X213.5Y-78.0
X213.5Y-302.0
X213.5Y-305.0
X214.5Y-75.0
X214.5Y-78.0
X214.5Y-302.0
X214.5Y-305.0
X215.5Y-75.0
X215.5Y-78.0
X215.5Y-302.0
X215.5Y-305.0
X216.5Y-75.0
X216.5Y-78.0
X216.5Y-302.0
X216.5Y-305.0
X217.5Y-75.0
X217.5Y-78.0
X217.5Y-302.0
X217.5Y-305.0
X218.5Y-75.0
X218.5Y-78.0
X218.5Y-302.0
X218.5Y-305.0
X219.5Y-75.0
X219.5Y-78.0
X219.5Y-302.0
X219.5Y-305.0
X220.5Y-75.0
X220.5Y-78.0
X220.5Y-302.0
X220.5Y-305.0
X221.5Y-75.0
X221.5Y-78.0
X221.5Y-302.0
X221.5Y-305.0
X222.5Y-75.0
X222.5Y-78.0
X222.5Y-302.0
X222.5Y-305.0
X223.5Y-75.0
X223.5Y-78.0
X223.5Y-302.0
X223.5Y-305.0
X224.5Y-75.0
X224.5Y-78.0
X224.5Y-302.0
X224.5Y-305.0
X225.5Y-75.0
X225.5Y-78.0
X225.5Y-302.0
X225.5Y-305.0
X226.5Y-75.0
X226.5Y-78.0
X226.5Y-302.0
X226.5Y-305.0
X227.5Y-75.0
X227.5Y-78.0
X227.5Y-302.0
X227.5Y-305.0
X228.5Y-75.0
X228.5Y-78.0
X228.5Y-302.0
X228.5Y-305.0
X229.5Y-75.0
X229.5Y-78.0
X229.5Y-302.0
X229.5Y-305.0
X230.5Y-75.0
X230.5Y-78.0
X230.5Y-302.0
X230.5Y-305.0
X231.5Y-75.0
X231.5Y-78.0
X231.5Y-302.0
X231.5Y-305.0
X232.5Y-75.0
X232.5Y-78.0
X232.5Y-302.0
X232.5Y-305.0
X233.5Y-75.0
X233.5Y-78.0
X233.5Y-302.0
X233.5Y-305.0
X234.5Y-75.0
X234.5Y-78.0
X234.5Y-302.0
X234.5Y-305.0
X235.5Y-75.0
X235.5Y-78.0
X235.5Y-302.0
X235.5Y-305.0
X236.5Y-75.0
X236.5Y-78.0
X236.5Y-302.0
X236.5Y-305.0
X237.5Y-75.0
X237.5Y-78.0
X237.5Y-302.0
X237.5Y-305.0
X238.5Y-75.0
X238.5Y-78.0
X238.5Y-302.0
X238.5Y-305.0
X239.5Y-75.0
X239.5Y-78.0
X239.5Y-302.0
X239.5Y-305.0
X240.5Y-75.0
X240.5Y-78.0
X240.5Y-302.0
X240.5Y-305.0
X241.5Y-75.0
X241.5Y-78.0
X241.5Y-302.0
X241.5Y-305.0
X242.5Y-75.0
X242.5Y-78.0
X242.5Y-302.0
X242.5Y-305.0
X243.5Y-75.0
X243.5Y-78.0
X243.5Y-302.0
X243.5Y-305.0
X244.5Y-75.0
X244.5Y-78.0
X244.5Y-302.0
X244.5Y-305.0
X245.5Y-75.0
X245.5Y-78.0
X245.5Y-302.0
X245.5Y-305.0
X246.5Y-75.0
X246.5Y-78.0
X246.5Y-302.0
X246.5Y-305.0
X247.5Y-75.0
X247.5Y-78.0
X247.5Y-302.0
X247.5Y-305.0
X248.5Y-75.0
X248.5Y-78.0
X248.5Y-302.0
X248.5Y-305.0
X249.5Y-75.0
X249.5Y-78.0
X249.5Y-302.0
X249.5Y-305.0
X250.5Y-75.0
X250.5Y-78.0
X250.5Y-302.0
X250.5Y-305.0
X251.5Y-75.0
X251.5Y-78.0
X251.5Y-302.0
X251.5Y-305.0
X252.5Y-75.0
X252.5Y-78.0
X252.5Y-302.0
X252.5Y-305.0
X253.5Y-75.0
X253.5Y-78.0
X253.5Y-302.0
X253.5Y-305.0
X254.5Y-75.0
X254.5Y-78.0
X254.5Y-302.0
X254.5Y-305.0
X255.5Y-75.0
X255.5Y-78.0
X255.5Y-302.0
X255.5Y-305.0
X256.5Y-75.0
X256.5Y-78.0
X256.5Y-302.0
X256.5Y-305.0
X257.5Y-75.0
X257.5Y-78.0
X257.5Y-302.0
X257.5Y-305.0
X258.5Y-75.0
X258.5Y-78.0
X258.5Y-302.0
X258.5Y-305.0
X259.5Y-75.0
X259.5Y-75.0
X259.5Y-78.0
X259.5Y-78.0
X259.5Y-302.0
X259.5Y-302.0
X259.5Y-305.0
X259.5Y-305.0
X260.5Y-75.0
X260.5Y-75.0
X260.5Y-78.0
X260.5Y-78.0
X260.5Y-302.0
X260.5Y-302.0
X260.5Y-305.0
X260.5Y-305.0
X261.5Y-75.0
X261.5Y-75.0
X261.5Y-78.0
X261.5Y-78.0
X261.5Y-302.0
X261.5Y-302.0
X261.5Y-305.0
X261.5Y-305.0
X262.5Y-75.0
X262.5Y-75.0
X262.5Y-78.0
X262.5Y-78.0
X262.5Y-302.0
X262.5Y-302.0
X262.5Y-305.0
X262.5Y-305.0
X263.5Y-75.0
X263.5Y-75.0
X263.5Y-78.0
X263.5Y-78.0
X263.5Y-302.0
X263.5Y-302.0
X263.5Y-305.0
X263.5Y-305.0
X264.5Y-75.0
X264.5Y-75.0
X264.5Y-78.0
X264.5Y-78.0
X264.5Y-302.0
X264.5Y-302.0
X264.5Y-305.0
X264.5Y-305.0
X265.5Y-75.0
X265.5Y-75.0
X265.5Y-78.0
X265.5Y-78.0
X265.5Y-302.0
X265.5Y-302.0
X265.5Y-305.0
X265.5Y-305.0
X266.5Y-75.0
X266.5Y-75.0
X266.5Y-78.0
X266.5Y-78.0
X266.5Y-302.0
X266.5Y-302.0
X266.5Y-305.0
X266.5Y-305.0
X267.5Y-75.0
X267.5Y-75.0
X267.5Y-78.0
X267.5Y-78.0
X267.5Y-302.0
X267.5Y-302.0
X267.5Y-305.0
X267.5Y-305.0
X268.5Y-75.0
X268.5Y-75.0
X268.5Y-78.0
X268.5Y-78.0
X268.5Y-302.0
X268.5Y-302.0
X268.5Y-305.0
X268.5Y-305.0
X269.5Y-75.0
X269.5Y-75.0
X269.5Y-78.0
X269.5Y-78.0
X269.5Y-302.0
X269.5Y-302.0
X269.5Y-305.0
X269.5Y-305.0
X270.5Y-75.0
X270.5Y-75.0
X270.5Y-78.0
X270.5Y-78.0
X270.5Y-302.0
X270.5Y-302.0
X270.5Y-305.0
X270.5Y-305.0
X271.5Y-75.0
X271.5Y-78.0
X271.5Y-302.0
X271.5Y-305.0
X272.5Y-75.0
X272.5Y-78.0
X272.5Y-302.0
X272.5Y-305.0
X273.5Y-75.0
X273.5Y-78.0
X273.5Y-302.0
X273.5Y-305.0
X274.5Y-75.0
X274.5Y-78.0
X274.5Y-302.0
X274.5Y-305.0
X275.5Y-75.0
X275.5Y-78.0
X275.5Y-302.0
X275.5Y-305.0
X276.5Y-75.0
X276.5Y-78.0
X276.5Y-302.0
X276.5Y-305.0
X277.5Y-75.0
X277.5Y-78.0
X277.5Y-302.0
X277.5Y-305.0
X278.5Y-75.0
X278.5Y-78.0
X278.5Y-302.0
X278.5Y-305.0
X279.5Y-75.0
X279.5Y-78.0
X279.5Y-302.0
X279.5Y-305.0
X280.5Y-75.0
X280.5Y-78.0
X280.5Y-302.0
X280.5Y-305.0
X281.5Y-75.0
X281.5Y-78.0
X281.5Y-302.0
X281.5Y-305.0
X282.5Y-75.0
X282.5Y-78.0
X282.5Y-302.0
X282.5Y-305.0
X283.5Y-75.0
X283.5Y-78.0
X283.5Y-302.0
X283.5Y-305.0
X284.5Y-75.0
X284.5Y-78.0
X284.5Y-302.0
X284.5Y-305.0
X285.5Y-75.0
X285.5Y-78.0
X285.5Y-302.0
X285.5Y-305.0
X286.5Y-75.0
X286.5Y-78.0
X286.5Y-302.0
X286.5Y-305.0
X287.5Y-75.0
X287.5Y-78.0
X287.5Y-302.0
X287.5Y-305.0
X288.5Y-75.0
X288.5Y-78.0
X288.5Y-302.0
X288.5Y-305.0
X289.5Y-75.0
X289.5Y-78.0
X289.5Y-302.0
X289.5Y-305.0
X290.5Y-75.0
X290.5Y-78.0
X290.5Y-302.0
X290.5Y-305.0
X291.5Y-75.0
X291.5Y-78.0
X291.5Y-302.0
X291.5Y-305.0
X292.5Y-75.0
X292.5Y-78.0
X292.5Y-302.0
X292.5Y-305.0
X293.5Y-75.0
X293.5Y-78.0
X293.5Y-302.0
X293.5Y-305.0
X294.5Y-75.0
X294.5Y-78.0
X294.5Y-302.0
X294.5Y-305.0
X295.5Y-75.0
X295.5Y-78.0
X295.5Y-302.0
X295.5Y-305.0
X296.5Y-75.0
X296.5Y-78.0
X296.5Y-302.0
X296.5Y-305.0
X297.5Y-75.0
X297.5Y-78.0
X297.5Y-302.0
X297.5Y-305.0
X298.5Y-75.0
X298.5Y-78.0
X298.5Y-302.0
X298.5Y-305.0
X299.5Y-75.0
X299.5Y-78.0
X299.5Y-302.0
X299.5Y-305.0
X300.5Y-75.0
X300.5Y-78.0
X300.5Y-302.0
X300.5Y-305.0
X301.5Y-75.0
X301.5Y-78.0
X301.5Y-302.0
X301.5Y-305.0
X302.5Y-75.0
X302.5Y-78.0
X302.5Y-302.0
X302.5Y-305.0
X303.5Y-75.0
X303.5Y-78.0
X303.5Y-302.0
X303.5Y-305.0
X304.5Y-75.0
X304.5Y-78.0
X304.5Y-302.0
X304.5Y-305.0
X305.5Y-75.0
X305.5Y-78.0
X305.5Y-302.0
X305.5Y-305.0
X306.5Y-75.0
X306.5Y-78.0
X306.5Y-302.0
X306.5Y-305.0
X307.5Y-75.0
X307.5Y-78.0
X307.5Y-302.0
X307.5Y-305.0
X308.5Y-75.0
X308.5Y-78.0
X308.5Y-302.0
X308.5Y-305.0
X309.5Y-75.0
X309.5Y-78.0
X309.5Y-302.0
X309.5Y-305.0
X310.5Y-75.0
X310.5Y-78.0
X310.5Y-302.0
X310.5Y-305.0
X311.5Y-75.0
X311.5Y-78.0
X311.5Y-302.0
X311.5Y-305.0
X312.5Y-75.0
X312.5Y-78.0
X312.5Y-302.0
X312.5Y-305.0
X313.5Y-75.0
X313.5Y-78.0
X313.5Y-302.0
X313.5Y-305.0
X314.5Y-75.0
X314.5Y-78.0
X314.5Y-302.0
X314.5Y-305.0
X315.5Y-75.0
X315.5Y-78.0
X315.5Y-302.0
X315.5Y-305.0
X316.5Y-75.0
X316.5Y-78.0
X316.5Y-302.0
X316.5Y-305.0
X317.5Y-75.0
X317.5Y-78.0
X317.5Y-302.0
X317.5Y-305.0
X318.5Y-75.0
X318.5Y-78.0
X318.5Y-302.0
X318.5Y-305.0
X319.5Y-75.0
X319.5Y-78.0
X319.5Y-302.0
X319.5Y-305.0
X320.5Y-75.0
X320.5Y-78.0
X320.5Y-302.0
X320.5Y-305.0
X321.5Y-75.0
X321.5Y-78.0
X321.5Y-302.0
X321.5Y-305.0
X322.5Y-75.0
X322.5Y-78.0
X322.5Y-302.0
X322.5Y-305.0
X323.5Y-75.0
X323.5Y-78.0
X323.5Y-302.0
X323.5Y-305.0
X324.5Y-75.0
X324.5Y-78.0
X324.5Y-302.0
X324.5Y-305.0
X325.5Y-75.0
X325.5Y-78.0
X325.5Y-302.0
X325.5Y-305.0
X326.5Y-75.0
X326.5Y-78.0
X326.5Y-302.0
X326.5Y-305.0
X327.5Y-75.0
X327.5Y-78.0
X327.5Y-302.0
X327.5Y-305.0
X328.5Y-75.0
X328.5Y-78.0
X328.5Y-302.0
X328.5Y-305.0
X329.5Y-75.0
X329.5Y-78.0
X329.5Y-302.0
X329.5Y-305.0
X330.5Y-75.0
X330.5Y-78.0
X330.5Y-302.0
X330.5Y-305.0
X331.5Y-75.0
X331.5Y-78.0
X331.5Y-302.0
X331.5Y-305.0
X332.5Y-75.0
X332.5Y-78.0
X332.5Y-302.0
X332.5Y-305.0
X333.5Y-75.0
X333.5Y-78.0
X333.5Y-302.0
X333.5Y-305.0
X334.5Y-75.0
X334.5Y-78.0
X334.5Y-302.0
X334.5Y-305.0
X335.5Y-75.0
X335.5Y-78.0
X335.5Y-302.0
X335.5Y-305.0
X336.5Y-75.0
X336.5Y-78.0
X336.5Y-302.0
X336.5Y-305.0
X337.5Y-75.0
X337.5Y-78.0
X337.5Y-302.0
X337.5Y-305.0
X338.5Y-75.0
X338.5Y-78.0
X338.5Y-302.0
X338.5Y-305.0
X339.5Y-75.0
X339.5Y-78.0
X339.5Y-302.0
X339.5Y-305.0
X340.5Y-75.0
X340.5Y-78.0
X340.5Y-302.0
X340.5Y-305.0
T3
X147.5Y-309.75
X147.5Y-311.25
X147.5Y-312.75
X147.5Y-314.25
X147.5Y-315.75
X147.5Y-317.25
X147.5Y-318.75
X147.5Y-320.25
X157.5Y-309.75
X157.5Y-311.25
X157.5Y-312.75
X157.5Y-314.25
X157.5Y-315.75
X157.5Y-317.25
X157.5Y-318.75
X157.5Y-320.25
X247.5Y-309.75
X247.5Y-311.25
X247.5Y-312.75
X247.5Y-314.25
X247.5Y-315.75
X247.5Y-317.25
X247.5Y-318.75
X247.5Y-320.25
X257.5Y-309.75
X257.5Y-311.25
X257.5Y-312.75
X257.5Y-314.25
X257.5Y-315.75
X257.5Y-317.25
X257.5Y-318.75
X257.5Y-320.25
T4
X113.5Y-112.825
X113.5Y-132.825
X113.5Y-247.175
X113.5Y-267.175
X293.5Y-112.825
X293.5Y-132.825
X293.5Y-247.175
X293.5Y-267.175
T5
X44.5Y-76.5
X44.5Y-303.5
X114.5Y-76.5
X114.5Y-303.5
X135.5Y-76.5
X135.5Y-303.5
X184.5Y-76.5
X184.5Y-303.5
X205.5Y-76.5
X205.5Y-303.5
X254.5Y-76.5
X254.5Y-303.5
X275.5Y-76.5
X275.5Y-303.5
X345.5Y-76.5
X345.5Y-303.5
M30
