%TF.GenerationSoftware,KiCad,Pcbnew,8.0.9-8.0.9-0~ubuntu22.04.1*%
%TF.CreationDate,2026-04-12T02:14:50+00:00*%
%TF.ProjectId,TFLN_AI_NODE_X2,54464c4e-5f41-4495-9f4e-4f44455f5832,1.0*%
%TF.SameCoordinates,Original*%
%TF.FileFunction,Other,Comment*%
%FSLAX46Y46*%
G04 Gerber Fmt 4.6, Leading zero omitted, Abs format (unit mm)*
G04 Created by KiCad (PCBNEW 8.0.9-8.0.9-0~ubuntu22.04.1) date 2026-04-12 02:14:50*
%MOMM*%
%LPD*%
G01*
G04 APERTURE LIST*
%ADD10C,0.100000*%
%ADD11C,0.050000*%
G04 APERTURE END LIST*
D10*
X148452382Y-213364895D02*
X148452382Y-212564895D01*
X148452382Y-212564895D02*
X148909525Y-213364895D01*
X148909525Y-213364895D02*
X148909525Y-212564895D01*
X149442858Y-212564895D02*
X149595239Y-212564895D01*
X149595239Y-212564895D02*
X149671429Y-212602990D01*
X149671429Y-212602990D02*
X149747620Y-212679180D01*
X149747620Y-212679180D02*
X149785715Y-212831561D01*
X149785715Y-212831561D02*
X149785715Y-213098228D01*
X149785715Y-213098228D02*
X149747620Y-213250609D01*
X149747620Y-213250609D02*
X149671429Y-213326800D01*
X149671429Y-213326800D02*
X149595239Y-213364895D01*
X149595239Y-213364895D02*
X149442858Y-213364895D01*
X149442858Y-213364895D02*
X149366667Y-213326800D01*
X149366667Y-213326800D02*
X149290477Y-213250609D01*
X149290477Y-213250609D02*
X149252381Y-213098228D01*
X149252381Y-213098228D02*
X149252381Y-212831561D01*
X149252381Y-212831561D02*
X149290477Y-212679180D01*
X149290477Y-212679180D02*
X149366667Y-212602990D01*
X149366667Y-212602990D02*
X149442858Y-212564895D01*
X151195239Y-213288704D02*
X151157143Y-213326800D01*
X151157143Y-213326800D02*
X151042858Y-213364895D01*
X151042858Y-213364895D02*
X150966667Y-213364895D01*
X150966667Y-213364895D02*
X150852381Y-213326800D01*
X150852381Y-213326800D02*
X150776191Y-213250609D01*
X150776191Y-213250609D02*
X150738096Y-213174419D01*
X150738096Y-213174419D02*
X150700000Y-213022038D01*
X150700000Y-213022038D02*
X150700000Y-212907752D01*
X150700000Y-212907752D02*
X150738096Y-212755371D01*
X150738096Y-212755371D02*
X150776191Y-212679180D01*
X150776191Y-212679180D02*
X150852381Y-212602990D01*
X150852381Y-212602990D02*
X150966667Y-212564895D01*
X150966667Y-212564895D02*
X151042858Y-212564895D01*
X151042858Y-212564895D02*
X151157143Y-212602990D01*
X151157143Y-212602990D02*
X151195239Y-212641085D01*
X151690477Y-212564895D02*
X151842858Y-212564895D01*
X151842858Y-212564895D02*
X151919048Y-212602990D01*
X151919048Y-212602990D02*
X151995239Y-212679180D01*
X151995239Y-212679180D02*
X152033334Y-212831561D01*
X152033334Y-212831561D02*
X152033334Y-213098228D01*
X152033334Y-213098228D02*
X151995239Y-213250609D01*
X151995239Y-213250609D02*
X151919048Y-213326800D01*
X151919048Y-213326800D02*
X151842858Y-213364895D01*
X151842858Y-213364895D02*
X151690477Y-213364895D01*
X151690477Y-213364895D02*
X151614286Y-213326800D01*
X151614286Y-213326800D02*
X151538096Y-213250609D01*
X151538096Y-213250609D02*
X151500000Y-213098228D01*
X151500000Y-213098228D02*
X151500000Y-212831561D01*
X151500000Y-212831561D02*
X151538096Y-212679180D01*
X151538096Y-212679180D02*
X151614286Y-212602990D01*
X151614286Y-212602990D02*
X151690477Y-212564895D01*
X152376191Y-213364895D02*
X152376191Y-212564895D01*
X152376191Y-212564895D02*
X152680953Y-212564895D01*
X152680953Y-212564895D02*
X152757143Y-212602990D01*
X152757143Y-212602990D02*
X152795238Y-212641085D01*
X152795238Y-212641085D02*
X152833334Y-212717276D01*
X152833334Y-212717276D02*
X152833334Y-212831561D01*
X152833334Y-212831561D02*
X152795238Y-212907752D01*
X152795238Y-212907752D02*
X152757143Y-212945847D01*
X152757143Y-212945847D02*
X152680953Y-212983942D01*
X152680953Y-212983942D02*
X152376191Y-212983942D01*
X153176191Y-213364895D02*
X153176191Y-212564895D01*
X153176191Y-212564895D02*
X153480953Y-212564895D01*
X153480953Y-212564895D02*
X153557143Y-212602990D01*
X153557143Y-212602990D02*
X153595238Y-212641085D01*
X153595238Y-212641085D02*
X153633334Y-212717276D01*
X153633334Y-212717276D02*
X153633334Y-212831561D01*
X153633334Y-212831561D02*
X153595238Y-212907752D01*
X153595238Y-212907752D02*
X153557143Y-212945847D01*
X153557143Y-212945847D02*
X153480953Y-212983942D01*
X153480953Y-212983942D02*
X153176191Y-212983942D01*
X153976191Y-212945847D02*
X154242857Y-212945847D01*
X154357143Y-213364895D02*
X153976191Y-213364895D01*
X153976191Y-213364895D02*
X153976191Y-212564895D01*
X153976191Y-212564895D02*
X154357143Y-212564895D01*
X155157144Y-213364895D02*
X154890477Y-212983942D01*
X154700001Y-213364895D02*
X154700001Y-212564895D01*
X154700001Y-212564895D02*
X155004763Y-212564895D01*
X155004763Y-212564895D02*
X155080953Y-212602990D01*
X155080953Y-212602990D02*
X155119048Y-212641085D01*
X155119048Y-212641085D02*
X155157144Y-212717276D01*
X155157144Y-212717276D02*
X155157144Y-212831561D01*
X155157144Y-212831561D02*
X155119048Y-212907752D01*
X155119048Y-212907752D02*
X155080953Y-212945847D01*
X155080953Y-212945847D02*
X155004763Y-212983942D01*
X155004763Y-212983942D02*
X154700001Y-212983942D01*
X156109525Y-213060133D02*
X156719049Y-213060133D01*
X157861906Y-212564895D02*
X158014287Y-212564895D01*
X158014287Y-212564895D02*
X158090477Y-212602990D01*
X158090477Y-212602990D02*
X158166668Y-212679180D01*
X158166668Y-212679180D02*
X158204763Y-212831561D01*
X158204763Y-212831561D02*
X158204763Y-213098228D01*
X158204763Y-213098228D02*
X158166668Y-213250609D01*
X158166668Y-213250609D02*
X158090477Y-213326800D01*
X158090477Y-213326800D02*
X158014287Y-213364895D01*
X158014287Y-213364895D02*
X157861906Y-213364895D01*
X157861906Y-213364895D02*
X157785715Y-213326800D01*
X157785715Y-213326800D02*
X157709525Y-213250609D01*
X157709525Y-213250609D02*
X157671429Y-213098228D01*
X157671429Y-213098228D02*
X157671429Y-212831561D01*
X157671429Y-212831561D02*
X157709525Y-212679180D01*
X157709525Y-212679180D02*
X157785715Y-212602990D01*
X157785715Y-212602990D02*
X157861906Y-212564895D01*
X158547620Y-213364895D02*
X158547620Y-212564895D01*
X158547620Y-212564895D02*
X158852382Y-212564895D01*
X158852382Y-212564895D02*
X158928572Y-212602990D01*
X158928572Y-212602990D02*
X158966667Y-212641085D01*
X158966667Y-212641085D02*
X159004763Y-212717276D01*
X159004763Y-212717276D02*
X159004763Y-212831561D01*
X159004763Y-212831561D02*
X158966667Y-212907752D01*
X158966667Y-212907752D02*
X158928572Y-212945847D01*
X158928572Y-212945847D02*
X158852382Y-212983942D01*
X158852382Y-212983942D02*
X158547620Y-212983942D01*
X159233334Y-212564895D02*
X159690477Y-212564895D01*
X159461905Y-213364895D02*
X159461905Y-212564895D01*
X159957144Y-213364895D02*
X159957144Y-212564895D01*
X160795239Y-213288704D02*
X160757143Y-213326800D01*
X160757143Y-213326800D02*
X160642858Y-213364895D01*
X160642858Y-213364895D02*
X160566667Y-213364895D01*
X160566667Y-213364895D02*
X160452381Y-213326800D01*
X160452381Y-213326800D02*
X160376191Y-213250609D01*
X160376191Y-213250609D02*
X160338096Y-213174419D01*
X160338096Y-213174419D02*
X160300000Y-213022038D01*
X160300000Y-213022038D02*
X160300000Y-212907752D01*
X160300000Y-212907752D02*
X160338096Y-212755371D01*
X160338096Y-212755371D02*
X160376191Y-212679180D01*
X160376191Y-212679180D02*
X160452381Y-212602990D01*
X160452381Y-212602990D02*
X160566667Y-212564895D01*
X160566667Y-212564895D02*
X160642858Y-212564895D01*
X160642858Y-212564895D02*
X160757143Y-212602990D01*
X160757143Y-212602990D02*
X160795239Y-212641085D01*
X161100000Y-213136323D02*
X161480953Y-213136323D01*
X161023810Y-213364895D02*
X161290477Y-212564895D01*
X161290477Y-212564895D02*
X161557143Y-213364895D01*
X162204762Y-213364895D02*
X161823810Y-213364895D01*
X161823810Y-213364895D02*
X161823810Y-212564895D01*
X163538096Y-213288704D02*
X163500000Y-213326800D01*
X163500000Y-213326800D02*
X163385715Y-213364895D01*
X163385715Y-213364895D02*
X163309524Y-213364895D01*
X163309524Y-213364895D02*
X163195238Y-213326800D01*
X163195238Y-213326800D02*
X163119048Y-213250609D01*
X163119048Y-213250609D02*
X163080953Y-213174419D01*
X163080953Y-213174419D02*
X163042857Y-213022038D01*
X163042857Y-213022038D02*
X163042857Y-212907752D01*
X163042857Y-212907752D02*
X163080953Y-212755371D01*
X163080953Y-212755371D02*
X163119048Y-212679180D01*
X163119048Y-212679180D02*
X163195238Y-212602990D01*
X163195238Y-212602990D02*
X163309524Y-212564895D01*
X163309524Y-212564895D02*
X163385715Y-212564895D01*
X163385715Y-212564895D02*
X163500000Y-212602990D01*
X163500000Y-212602990D02*
X163538096Y-212641085D01*
X163842857Y-213136323D02*
X164223810Y-213136323D01*
X163766667Y-213364895D02*
X164033334Y-212564895D01*
X164033334Y-212564895D02*
X164300000Y-213364895D01*
X164452381Y-212564895D02*
X164719048Y-213364895D01*
X164719048Y-213364895D02*
X164985714Y-212564895D01*
X165252381Y-213364895D02*
X165252381Y-212564895D01*
X165519047Y-212564895D02*
X165976190Y-212564895D01*
X165747618Y-213364895D02*
X165747618Y-212564895D01*
X166395238Y-212983942D02*
X166395238Y-213364895D01*
X166128571Y-212564895D02*
X166395238Y-212983942D01*
X166395238Y-212983942D02*
X166661904Y-212564895D01*
X238452382Y-213364895D02*
X238452382Y-212564895D01*
X238452382Y-212564895D02*
X238909525Y-213364895D01*
X238909525Y-213364895D02*
X238909525Y-212564895D01*
X239442858Y-212564895D02*
X239595239Y-212564895D01*
X239595239Y-212564895D02*
X239671429Y-212602990D01*
X239671429Y-212602990D02*
X239747620Y-212679180D01*
X239747620Y-212679180D02*
X239785715Y-212831561D01*
X239785715Y-212831561D02*
X239785715Y-213098228D01*
X239785715Y-213098228D02*
X239747620Y-213250609D01*
X239747620Y-213250609D02*
X239671429Y-213326800D01*
X239671429Y-213326800D02*
X239595239Y-213364895D01*
X239595239Y-213364895D02*
X239442858Y-213364895D01*
X239442858Y-213364895D02*
X239366667Y-213326800D01*
X239366667Y-213326800D02*
X239290477Y-213250609D01*
X239290477Y-213250609D02*
X239252381Y-213098228D01*
X239252381Y-213098228D02*
X239252381Y-212831561D01*
X239252381Y-212831561D02*
X239290477Y-212679180D01*
X239290477Y-212679180D02*
X239366667Y-212602990D01*
X239366667Y-212602990D02*
X239442858Y-212564895D01*
X241195239Y-213288704D02*
X241157143Y-213326800D01*
X241157143Y-213326800D02*
X241042858Y-213364895D01*
X241042858Y-213364895D02*
X240966667Y-213364895D01*
X240966667Y-213364895D02*
X240852381Y-213326800D01*
X240852381Y-213326800D02*
X240776191Y-213250609D01*
X240776191Y-213250609D02*
X240738096Y-213174419D01*
X240738096Y-213174419D02*
X240700000Y-213022038D01*
X240700000Y-213022038D02*
X240700000Y-212907752D01*
X240700000Y-212907752D02*
X240738096Y-212755371D01*
X240738096Y-212755371D02*
X240776191Y-212679180D01*
X240776191Y-212679180D02*
X240852381Y-212602990D01*
X240852381Y-212602990D02*
X240966667Y-212564895D01*
X240966667Y-212564895D02*
X241042858Y-212564895D01*
X241042858Y-212564895D02*
X241157143Y-212602990D01*
X241157143Y-212602990D02*
X241195239Y-212641085D01*
X241690477Y-212564895D02*
X241842858Y-212564895D01*
X241842858Y-212564895D02*
X241919048Y-212602990D01*
X241919048Y-212602990D02*
X241995239Y-212679180D01*
X241995239Y-212679180D02*
X242033334Y-212831561D01*
X242033334Y-212831561D02*
X242033334Y-213098228D01*
X242033334Y-213098228D02*
X241995239Y-213250609D01*
X241995239Y-213250609D02*
X241919048Y-213326800D01*
X241919048Y-213326800D02*
X241842858Y-213364895D01*
X241842858Y-213364895D02*
X241690477Y-213364895D01*
X241690477Y-213364895D02*
X241614286Y-213326800D01*
X241614286Y-213326800D02*
X241538096Y-213250609D01*
X241538096Y-213250609D02*
X241500000Y-213098228D01*
X241500000Y-213098228D02*
X241500000Y-212831561D01*
X241500000Y-212831561D02*
X241538096Y-212679180D01*
X241538096Y-212679180D02*
X241614286Y-212602990D01*
X241614286Y-212602990D02*
X241690477Y-212564895D01*
X242376191Y-213364895D02*
X242376191Y-212564895D01*
X242376191Y-212564895D02*
X242680953Y-212564895D01*
X242680953Y-212564895D02*
X242757143Y-212602990D01*
X242757143Y-212602990D02*
X242795238Y-212641085D01*
X242795238Y-212641085D02*
X242833334Y-212717276D01*
X242833334Y-212717276D02*
X242833334Y-212831561D01*
X242833334Y-212831561D02*
X242795238Y-212907752D01*
X242795238Y-212907752D02*
X242757143Y-212945847D01*
X242757143Y-212945847D02*
X242680953Y-212983942D01*
X242680953Y-212983942D02*
X242376191Y-212983942D01*
X243176191Y-213364895D02*
X243176191Y-212564895D01*
X243176191Y-212564895D02*
X243480953Y-212564895D01*
X243480953Y-212564895D02*
X243557143Y-212602990D01*
X243557143Y-212602990D02*
X243595238Y-212641085D01*
X243595238Y-212641085D02*
X243633334Y-212717276D01*
X243633334Y-212717276D02*
X243633334Y-212831561D01*
X243633334Y-212831561D02*
X243595238Y-212907752D01*
X243595238Y-212907752D02*
X243557143Y-212945847D01*
X243557143Y-212945847D02*
X243480953Y-212983942D01*
X243480953Y-212983942D02*
X243176191Y-212983942D01*
X243976191Y-212945847D02*
X244242857Y-212945847D01*
X244357143Y-213364895D02*
X243976191Y-213364895D01*
X243976191Y-213364895D02*
X243976191Y-212564895D01*
X243976191Y-212564895D02*
X244357143Y-212564895D01*
X245157144Y-213364895D02*
X244890477Y-212983942D01*
X244700001Y-213364895D02*
X244700001Y-212564895D01*
X244700001Y-212564895D02*
X245004763Y-212564895D01*
X245004763Y-212564895D02*
X245080953Y-212602990D01*
X245080953Y-212602990D02*
X245119048Y-212641085D01*
X245119048Y-212641085D02*
X245157144Y-212717276D01*
X245157144Y-212717276D02*
X245157144Y-212831561D01*
X245157144Y-212831561D02*
X245119048Y-212907752D01*
X245119048Y-212907752D02*
X245080953Y-212945847D01*
X245080953Y-212945847D02*
X245004763Y-212983942D01*
X245004763Y-212983942D02*
X244700001Y-212983942D01*
X246109525Y-213060133D02*
X246719049Y-213060133D01*
X247861906Y-212564895D02*
X248014287Y-212564895D01*
X248014287Y-212564895D02*
X248090477Y-212602990D01*
X248090477Y-212602990D02*
X248166668Y-212679180D01*
X248166668Y-212679180D02*
X248204763Y-212831561D01*
X248204763Y-212831561D02*
X248204763Y-213098228D01*
X248204763Y-213098228D02*
X248166668Y-213250609D01*
X248166668Y-213250609D02*
X248090477Y-213326800D01*
X248090477Y-213326800D02*
X248014287Y-213364895D01*
X248014287Y-213364895D02*
X247861906Y-213364895D01*
X247861906Y-213364895D02*
X247785715Y-213326800D01*
X247785715Y-213326800D02*
X247709525Y-213250609D01*
X247709525Y-213250609D02*
X247671429Y-213098228D01*
X247671429Y-213098228D02*
X247671429Y-212831561D01*
X247671429Y-212831561D02*
X247709525Y-212679180D01*
X247709525Y-212679180D02*
X247785715Y-212602990D01*
X247785715Y-212602990D02*
X247861906Y-212564895D01*
X248547620Y-213364895D02*
X248547620Y-212564895D01*
X248547620Y-212564895D02*
X248852382Y-212564895D01*
X248852382Y-212564895D02*
X248928572Y-212602990D01*
X248928572Y-212602990D02*
X248966667Y-212641085D01*
X248966667Y-212641085D02*
X249004763Y-212717276D01*
X249004763Y-212717276D02*
X249004763Y-212831561D01*
X249004763Y-212831561D02*
X248966667Y-212907752D01*
X248966667Y-212907752D02*
X248928572Y-212945847D01*
X248928572Y-212945847D02*
X248852382Y-212983942D01*
X248852382Y-212983942D02*
X248547620Y-212983942D01*
X249233334Y-212564895D02*
X249690477Y-212564895D01*
X249461905Y-213364895D02*
X249461905Y-212564895D01*
X249957144Y-213364895D02*
X249957144Y-212564895D01*
X250795239Y-213288704D02*
X250757143Y-213326800D01*
X250757143Y-213326800D02*
X250642858Y-213364895D01*
X250642858Y-213364895D02*
X250566667Y-213364895D01*
X250566667Y-213364895D02*
X250452381Y-213326800D01*
X250452381Y-213326800D02*
X250376191Y-213250609D01*
X250376191Y-213250609D02*
X250338096Y-213174419D01*
X250338096Y-213174419D02*
X250300000Y-213022038D01*
X250300000Y-213022038D02*
X250300000Y-212907752D01*
X250300000Y-212907752D02*
X250338096Y-212755371D01*
X250338096Y-212755371D02*
X250376191Y-212679180D01*
X250376191Y-212679180D02*
X250452381Y-212602990D01*
X250452381Y-212602990D02*
X250566667Y-212564895D01*
X250566667Y-212564895D02*
X250642858Y-212564895D01*
X250642858Y-212564895D02*
X250757143Y-212602990D01*
X250757143Y-212602990D02*
X250795239Y-212641085D01*
X251100000Y-213136323D02*
X251480953Y-213136323D01*
X251023810Y-213364895D02*
X251290477Y-212564895D01*
X251290477Y-212564895D02*
X251557143Y-213364895D01*
X252204762Y-213364895D02*
X251823810Y-213364895D01*
X251823810Y-213364895D02*
X251823810Y-212564895D01*
X253538096Y-213288704D02*
X253500000Y-213326800D01*
X253500000Y-213326800D02*
X253385715Y-213364895D01*
X253385715Y-213364895D02*
X253309524Y-213364895D01*
X253309524Y-213364895D02*
X253195238Y-213326800D01*
X253195238Y-213326800D02*
X253119048Y-213250609D01*
X253119048Y-213250609D02*
X253080953Y-213174419D01*
X253080953Y-213174419D02*
X253042857Y-213022038D01*
X253042857Y-213022038D02*
X253042857Y-212907752D01*
X253042857Y-212907752D02*
X253080953Y-212755371D01*
X253080953Y-212755371D02*
X253119048Y-212679180D01*
X253119048Y-212679180D02*
X253195238Y-212602990D01*
X253195238Y-212602990D02*
X253309524Y-212564895D01*
X253309524Y-212564895D02*
X253385715Y-212564895D01*
X253385715Y-212564895D02*
X253500000Y-212602990D01*
X253500000Y-212602990D02*
X253538096Y-212641085D01*
X253842857Y-213136323D02*
X254223810Y-213136323D01*
X253766667Y-213364895D02*
X254033334Y-212564895D01*
X254033334Y-212564895D02*
X254300000Y-213364895D01*
X254452381Y-212564895D02*
X254719048Y-213364895D01*
X254719048Y-213364895D02*
X254985714Y-212564895D01*
X255252381Y-213364895D02*
X255252381Y-212564895D01*
X255519047Y-212564895D02*
X255976190Y-212564895D01*
X255747618Y-213364895D02*
X255747618Y-212564895D01*
X256395238Y-212983942D02*
X256395238Y-213364895D01*
X256128571Y-212564895D02*
X256395238Y-212983942D01*
X256395238Y-212983942D02*
X256661904Y-212564895D01*
%TO.C,U3*%
D11*
X149500000Y-211000000D02*
X165500000Y-211000000D01*
X165500000Y-215000000D01*
X149500000Y-215000000D01*
X149500000Y-211000000D01*
%TO.C,U4*%
X239500000Y-211000000D02*
X255500000Y-211000000D01*
X255500000Y-215000000D01*
X239500000Y-215000000D01*
X239500000Y-211000000D01*
%TD*%
M02*
