%TF.GenerationSoftware,KiCad,Pcbnew,8.0.9-8.0.9-0~ubuntu22.04.1*%
%TF.CreationDate,2026-04-12T02:14:50+00:00*%
%TF.ProjectId,TFLN_AI_NODE_X2,54464c4e-5f41-4495-9f4e-4f44455f5832,1.0*%
%TF.SameCoordinates,Original*%
%TF.FileFunction,AssemblyDrawing,Top*%
%FSLAX46Y46*%
G04 Gerber Fmt 4.6, Leading zero omitted, Abs format (unit mm)*
G04 Created by KiCad (PCBNEW 8.0.9-8.0.9-0~ubuntu22.04.1) date 2026-04-12 02:14:50*
%MOMM*%
%LPD*%
G01*
G04 APERTURE LIST*
%ADD10C,0.150000*%
%ADD11C,0.120000*%
G04 APERTURE END LIST*
D10*
X152309524Y-183331009D02*
X152452381Y-183378628D01*
X152452381Y-183378628D02*
X152500000Y-183426247D01*
X152500000Y-183426247D02*
X152547619Y-183521485D01*
X152547619Y-183521485D02*
X152547619Y-183664342D01*
X152547619Y-183664342D02*
X152500000Y-183759580D01*
X152500000Y-183759580D02*
X152452381Y-183807200D01*
X152452381Y-183807200D02*
X152357143Y-183854819D01*
X152357143Y-183854819D02*
X151976191Y-183854819D01*
X151976191Y-183854819D02*
X151976191Y-182854819D01*
X151976191Y-182854819D02*
X152309524Y-182854819D01*
X152309524Y-182854819D02*
X152404762Y-182902438D01*
X152404762Y-182902438D02*
X152452381Y-182950057D01*
X152452381Y-182950057D02*
X152500000Y-183045295D01*
X152500000Y-183045295D02*
X152500000Y-183140533D01*
X152500000Y-183140533D02*
X152452381Y-183235771D01*
X152452381Y-183235771D02*
X152404762Y-183283390D01*
X152404762Y-183283390D02*
X152309524Y-183331009D01*
X152309524Y-183331009D02*
X151976191Y-183331009D01*
X153500000Y-182902438D02*
X153404762Y-182854819D01*
X153404762Y-182854819D02*
X153261905Y-182854819D01*
X153261905Y-182854819D02*
X153119048Y-182902438D01*
X153119048Y-182902438D02*
X153023810Y-182997676D01*
X153023810Y-182997676D02*
X152976191Y-183092914D01*
X152976191Y-183092914D02*
X152928572Y-183283390D01*
X152928572Y-183283390D02*
X152928572Y-183426247D01*
X152928572Y-183426247D02*
X152976191Y-183616723D01*
X152976191Y-183616723D02*
X153023810Y-183711961D01*
X153023810Y-183711961D02*
X153119048Y-183807200D01*
X153119048Y-183807200D02*
X153261905Y-183854819D01*
X153261905Y-183854819D02*
X153357143Y-183854819D01*
X153357143Y-183854819D02*
X153500000Y-183807200D01*
X153500000Y-183807200D02*
X153547619Y-183759580D01*
X153547619Y-183759580D02*
X153547619Y-183426247D01*
X153547619Y-183426247D02*
X153357143Y-183426247D01*
X153928572Y-183569104D02*
X154404762Y-183569104D01*
X153833334Y-183854819D02*
X154166667Y-182854819D01*
X154166667Y-182854819D02*
X154500000Y-183854819D01*
X154785715Y-182950057D02*
X154833334Y-182902438D01*
X154833334Y-182902438D02*
X154928572Y-182854819D01*
X154928572Y-182854819D02*
X155166667Y-182854819D01*
X155166667Y-182854819D02*
X155261905Y-182902438D01*
X155261905Y-182902438D02*
X155309524Y-182950057D01*
X155309524Y-182950057D02*
X155357143Y-183045295D01*
X155357143Y-183045295D02*
X155357143Y-183140533D01*
X155357143Y-183140533D02*
X155309524Y-183283390D01*
X155309524Y-183283390D02*
X154738096Y-183854819D01*
X154738096Y-183854819D02*
X155357143Y-183854819D01*
X156261905Y-182854819D02*
X155785715Y-182854819D01*
X155785715Y-182854819D02*
X155738096Y-183331009D01*
X155738096Y-183331009D02*
X155785715Y-183283390D01*
X155785715Y-183283390D02*
X155880953Y-183235771D01*
X155880953Y-183235771D02*
X156119048Y-183235771D01*
X156119048Y-183235771D02*
X156214286Y-183283390D01*
X156214286Y-183283390D02*
X156261905Y-183331009D01*
X156261905Y-183331009D02*
X156309524Y-183426247D01*
X156309524Y-183426247D02*
X156309524Y-183664342D01*
X156309524Y-183664342D02*
X156261905Y-183759580D01*
X156261905Y-183759580D02*
X156214286Y-183807200D01*
X156214286Y-183807200D02*
X156119048Y-183854819D01*
X156119048Y-183854819D02*
X155880953Y-183854819D01*
X155880953Y-183854819D02*
X155785715Y-183807200D01*
X155785715Y-183807200D02*
X155738096Y-183759580D01*
X157166667Y-182854819D02*
X156976191Y-182854819D01*
X156976191Y-182854819D02*
X156880953Y-182902438D01*
X156880953Y-182902438D02*
X156833334Y-182950057D01*
X156833334Y-182950057D02*
X156738096Y-183092914D01*
X156738096Y-183092914D02*
X156690477Y-183283390D01*
X156690477Y-183283390D02*
X156690477Y-183664342D01*
X156690477Y-183664342D02*
X156738096Y-183759580D01*
X156738096Y-183759580D02*
X156785715Y-183807200D01*
X156785715Y-183807200D02*
X156880953Y-183854819D01*
X156880953Y-183854819D02*
X157071429Y-183854819D01*
X157071429Y-183854819D02*
X157166667Y-183807200D01*
X157166667Y-183807200D02*
X157214286Y-183759580D01*
X157214286Y-183759580D02*
X157261905Y-183664342D01*
X157261905Y-183664342D02*
X157261905Y-183426247D01*
X157261905Y-183426247D02*
X157214286Y-183331009D01*
X157214286Y-183331009D02*
X157166667Y-183283390D01*
X157166667Y-183283390D02*
X157071429Y-183235771D01*
X157071429Y-183235771D02*
X156880953Y-183235771D01*
X156880953Y-183235771D02*
X156785715Y-183283390D01*
X156785715Y-183283390D02*
X156738096Y-183331009D01*
X156738096Y-183331009D02*
X156690477Y-183426247D01*
X157452382Y-183950057D02*
X158214286Y-183950057D01*
X158642858Y-182854819D02*
X158738096Y-182854819D01*
X158738096Y-182854819D02*
X158833334Y-182902438D01*
X158833334Y-182902438D02*
X158880953Y-182950057D01*
X158880953Y-182950057D02*
X158928572Y-183045295D01*
X158928572Y-183045295D02*
X158976191Y-183235771D01*
X158976191Y-183235771D02*
X158976191Y-183473866D01*
X158976191Y-183473866D02*
X158928572Y-183664342D01*
X158928572Y-183664342D02*
X158880953Y-183759580D01*
X158880953Y-183759580D02*
X158833334Y-183807200D01*
X158833334Y-183807200D02*
X158738096Y-183854819D01*
X158738096Y-183854819D02*
X158642858Y-183854819D01*
X158642858Y-183854819D02*
X158547620Y-183807200D01*
X158547620Y-183807200D02*
X158500001Y-183759580D01*
X158500001Y-183759580D02*
X158452382Y-183664342D01*
X158452382Y-183664342D02*
X158404763Y-183473866D01*
X158404763Y-183473866D02*
X158404763Y-183235771D01*
X158404763Y-183235771D02*
X158452382Y-183045295D01*
X158452382Y-183045295D02*
X158500001Y-182950057D01*
X158500001Y-182950057D02*
X158547620Y-182902438D01*
X158547620Y-182902438D02*
X158642858Y-182854819D01*
X159404763Y-183759580D02*
X159452382Y-183807200D01*
X159452382Y-183807200D02*
X159404763Y-183854819D01*
X159404763Y-183854819D02*
X159357144Y-183807200D01*
X159357144Y-183807200D02*
X159404763Y-183759580D01*
X159404763Y-183759580D02*
X159404763Y-183854819D01*
X160023810Y-183283390D02*
X159928572Y-183235771D01*
X159928572Y-183235771D02*
X159880953Y-183188152D01*
X159880953Y-183188152D02*
X159833334Y-183092914D01*
X159833334Y-183092914D02*
X159833334Y-183045295D01*
X159833334Y-183045295D02*
X159880953Y-182950057D01*
X159880953Y-182950057D02*
X159928572Y-182902438D01*
X159928572Y-182902438D02*
X160023810Y-182854819D01*
X160023810Y-182854819D02*
X160214286Y-182854819D01*
X160214286Y-182854819D02*
X160309524Y-182902438D01*
X160309524Y-182902438D02*
X160357143Y-182950057D01*
X160357143Y-182950057D02*
X160404762Y-183045295D01*
X160404762Y-183045295D02*
X160404762Y-183092914D01*
X160404762Y-183092914D02*
X160357143Y-183188152D01*
X160357143Y-183188152D02*
X160309524Y-183235771D01*
X160309524Y-183235771D02*
X160214286Y-183283390D01*
X160214286Y-183283390D02*
X160023810Y-183283390D01*
X160023810Y-183283390D02*
X159928572Y-183331009D01*
X159928572Y-183331009D02*
X159880953Y-183378628D01*
X159880953Y-183378628D02*
X159833334Y-183473866D01*
X159833334Y-183473866D02*
X159833334Y-183664342D01*
X159833334Y-183664342D02*
X159880953Y-183759580D01*
X159880953Y-183759580D02*
X159928572Y-183807200D01*
X159928572Y-183807200D02*
X160023810Y-183854819D01*
X160023810Y-183854819D02*
X160214286Y-183854819D01*
X160214286Y-183854819D02*
X160309524Y-183807200D01*
X160309524Y-183807200D02*
X160357143Y-183759580D01*
X160357143Y-183759580D02*
X160404762Y-183664342D01*
X160404762Y-183664342D02*
X160404762Y-183473866D01*
X160404762Y-183473866D02*
X160357143Y-183378628D01*
X160357143Y-183378628D02*
X160309524Y-183331009D01*
X160309524Y-183331009D02*
X160214286Y-183283390D01*
X160833334Y-183854819D02*
X160833334Y-183188152D01*
X160833334Y-183283390D02*
X160880953Y-183235771D01*
X160880953Y-183235771D02*
X160976191Y-183188152D01*
X160976191Y-183188152D02*
X161119048Y-183188152D01*
X161119048Y-183188152D02*
X161214286Y-183235771D01*
X161214286Y-183235771D02*
X161261905Y-183331009D01*
X161261905Y-183331009D02*
X161261905Y-183854819D01*
X161261905Y-183331009D02*
X161309524Y-183235771D01*
X161309524Y-183235771D02*
X161404762Y-183188152D01*
X161404762Y-183188152D02*
X161547619Y-183188152D01*
X161547619Y-183188152D02*
X161642858Y-183235771D01*
X161642858Y-183235771D02*
X161690477Y-183331009D01*
X161690477Y-183331009D02*
X161690477Y-183854819D01*
X162166667Y-183854819D02*
X162166667Y-183188152D01*
X162166667Y-183283390D02*
X162214286Y-183235771D01*
X162214286Y-183235771D02*
X162309524Y-183188152D01*
X162309524Y-183188152D02*
X162452381Y-183188152D01*
X162452381Y-183188152D02*
X162547619Y-183235771D01*
X162547619Y-183235771D02*
X162595238Y-183331009D01*
X162595238Y-183331009D02*
X162595238Y-183854819D01*
X162595238Y-183331009D02*
X162642857Y-183235771D01*
X162642857Y-183235771D02*
X162738095Y-183188152D01*
X162738095Y-183188152D02*
X162880952Y-183188152D01*
X162880952Y-183188152D02*
X162976191Y-183235771D01*
X162976191Y-183235771D02*
X163023810Y-183331009D01*
X163023810Y-183331009D02*
X163023810Y-183854819D01*
D11*
X156890476Y-174563855D02*
X156890476Y-175211474D01*
X156890476Y-175211474D02*
X156928571Y-175287664D01*
X156928571Y-175287664D02*
X156966666Y-175325760D01*
X156966666Y-175325760D02*
X157042857Y-175363855D01*
X157042857Y-175363855D02*
X157195238Y-175363855D01*
X157195238Y-175363855D02*
X157271428Y-175325760D01*
X157271428Y-175325760D02*
X157309523Y-175287664D01*
X157309523Y-175287664D02*
X157347619Y-175211474D01*
X157347619Y-175211474D02*
X157347619Y-174563855D01*
X158147618Y-175363855D02*
X157690475Y-175363855D01*
X157919047Y-175363855D02*
X157919047Y-174563855D01*
X157919047Y-174563855D02*
X157842856Y-174678140D01*
X157842856Y-174678140D02*
X157766666Y-174754331D01*
X157766666Y-174754331D02*
X157690475Y-174792426D01*
D10*
X242309524Y-183331009D02*
X242452381Y-183378628D01*
X242452381Y-183378628D02*
X242500000Y-183426247D01*
X242500000Y-183426247D02*
X242547619Y-183521485D01*
X242547619Y-183521485D02*
X242547619Y-183664342D01*
X242547619Y-183664342D02*
X242500000Y-183759580D01*
X242500000Y-183759580D02*
X242452381Y-183807200D01*
X242452381Y-183807200D02*
X242357143Y-183854819D01*
X242357143Y-183854819D02*
X241976191Y-183854819D01*
X241976191Y-183854819D02*
X241976191Y-182854819D01*
X241976191Y-182854819D02*
X242309524Y-182854819D01*
X242309524Y-182854819D02*
X242404762Y-182902438D01*
X242404762Y-182902438D02*
X242452381Y-182950057D01*
X242452381Y-182950057D02*
X242500000Y-183045295D01*
X242500000Y-183045295D02*
X242500000Y-183140533D01*
X242500000Y-183140533D02*
X242452381Y-183235771D01*
X242452381Y-183235771D02*
X242404762Y-183283390D01*
X242404762Y-183283390D02*
X242309524Y-183331009D01*
X242309524Y-183331009D02*
X241976191Y-183331009D01*
X243500000Y-182902438D02*
X243404762Y-182854819D01*
X243404762Y-182854819D02*
X243261905Y-182854819D01*
X243261905Y-182854819D02*
X243119048Y-182902438D01*
X243119048Y-182902438D02*
X243023810Y-182997676D01*
X243023810Y-182997676D02*
X242976191Y-183092914D01*
X242976191Y-183092914D02*
X242928572Y-183283390D01*
X242928572Y-183283390D02*
X242928572Y-183426247D01*
X242928572Y-183426247D02*
X242976191Y-183616723D01*
X242976191Y-183616723D02*
X243023810Y-183711961D01*
X243023810Y-183711961D02*
X243119048Y-183807200D01*
X243119048Y-183807200D02*
X243261905Y-183854819D01*
X243261905Y-183854819D02*
X243357143Y-183854819D01*
X243357143Y-183854819D02*
X243500000Y-183807200D01*
X243500000Y-183807200D02*
X243547619Y-183759580D01*
X243547619Y-183759580D02*
X243547619Y-183426247D01*
X243547619Y-183426247D02*
X243357143Y-183426247D01*
X243928572Y-183569104D02*
X244404762Y-183569104D01*
X243833334Y-183854819D02*
X244166667Y-182854819D01*
X244166667Y-182854819D02*
X244500000Y-183854819D01*
X244785715Y-182950057D02*
X244833334Y-182902438D01*
X244833334Y-182902438D02*
X244928572Y-182854819D01*
X244928572Y-182854819D02*
X245166667Y-182854819D01*
X245166667Y-182854819D02*
X245261905Y-182902438D01*
X245261905Y-182902438D02*
X245309524Y-182950057D01*
X245309524Y-182950057D02*
X245357143Y-183045295D01*
X245357143Y-183045295D02*
X245357143Y-183140533D01*
X245357143Y-183140533D02*
X245309524Y-183283390D01*
X245309524Y-183283390D02*
X244738096Y-183854819D01*
X244738096Y-183854819D02*
X245357143Y-183854819D01*
X246261905Y-182854819D02*
X245785715Y-182854819D01*
X245785715Y-182854819D02*
X245738096Y-183331009D01*
X245738096Y-183331009D02*
X245785715Y-183283390D01*
X245785715Y-183283390D02*
X245880953Y-183235771D01*
X245880953Y-183235771D02*
X246119048Y-183235771D01*
X246119048Y-183235771D02*
X246214286Y-183283390D01*
X246214286Y-183283390D02*
X246261905Y-183331009D01*
X246261905Y-183331009D02*
X246309524Y-183426247D01*
X246309524Y-183426247D02*
X246309524Y-183664342D01*
X246309524Y-183664342D02*
X246261905Y-183759580D01*
X246261905Y-183759580D02*
X246214286Y-183807200D01*
X246214286Y-183807200D02*
X246119048Y-183854819D01*
X246119048Y-183854819D02*
X245880953Y-183854819D01*
X245880953Y-183854819D02*
X245785715Y-183807200D01*
X245785715Y-183807200D02*
X245738096Y-183759580D01*
X247166667Y-182854819D02*
X246976191Y-182854819D01*
X246976191Y-182854819D02*
X246880953Y-182902438D01*
X246880953Y-182902438D02*
X246833334Y-182950057D01*
X246833334Y-182950057D02*
X246738096Y-183092914D01*
X246738096Y-183092914D02*
X246690477Y-183283390D01*
X246690477Y-183283390D02*
X246690477Y-183664342D01*
X246690477Y-183664342D02*
X246738096Y-183759580D01*
X246738096Y-183759580D02*
X246785715Y-183807200D01*
X246785715Y-183807200D02*
X246880953Y-183854819D01*
X246880953Y-183854819D02*
X247071429Y-183854819D01*
X247071429Y-183854819D02*
X247166667Y-183807200D01*
X247166667Y-183807200D02*
X247214286Y-183759580D01*
X247214286Y-183759580D02*
X247261905Y-183664342D01*
X247261905Y-183664342D02*
X247261905Y-183426247D01*
X247261905Y-183426247D02*
X247214286Y-183331009D01*
X247214286Y-183331009D02*
X247166667Y-183283390D01*
X247166667Y-183283390D02*
X247071429Y-183235771D01*
X247071429Y-183235771D02*
X246880953Y-183235771D01*
X246880953Y-183235771D02*
X246785715Y-183283390D01*
X246785715Y-183283390D02*
X246738096Y-183331009D01*
X246738096Y-183331009D02*
X246690477Y-183426247D01*
X247452382Y-183950057D02*
X248214286Y-183950057D01*
X248642858Y-182854819D02*
X248738096Y-182854819D01*
X248738096Y-182854819D02*
X248833334Y-182902438D01*
X248833334Y-182902438D02*
X248880953Y-182950057D01*
X248880953Y-182950057D02*
X248928572Y-183045295D01*
X248928572Y-183045295D02*
X248976191Y-183235771D01*
X248976191Y-183235771D02*
X248976191Y-183473866D01*
X248976191Y-183473866D02*
X248928572Y-183664342D01*
X248928572Y-183664342D02*
X248880953Y-183759580D01*
X248880953Y-183759580D02*
X248833334Y-183807200D01*
X248833334Y-183807200D02*
X248738096Y-183854819D01*
X248738096Y-183854819D02*
X248642858Y-183854819D01*
X248642858Y-183854819D02*
X248547620Y-183807200D01*
X248547620Y-183807200D02*
X248500001Y-183759580D01*
X248500001Y-183759580D02*
X248452382Y-183664342D01*
X248452382Y-183664342D02*
X248404763Y-183473866D01*
X248404763Y-183473866D02*
X248404763Y-183235771D01*
X248404763Y-183235771D02*
X248452382Y-183045295D01*
X248452382Y-183045295D02*
X248500001Y-182950057D01*
X248500001Y-182950057D02*
X248547620Y-182902438D01*
X248547620Y-182902438D02*
X248642858Y-182854819D01*
X249404763Y-183759580D02*
X249452382Y-183807200D01*
X249452382Y-183807200D02*
X249404763Y-183854819D01*
X249404763Y-183854819D02*
X249357144Y-183807200D01*
X249357144Y-183807200D02*
X249404763Y-183759580D01*
X249404763Y-183759580D02*
X249404763Y-183854819D01*
X250023810Y-183283390D02*
X249928572Y-183235771D01*
X249928572Y-183235771D02*
X249880953Y-183188152D01*
X249880953Y-183188152D02*
X249833334Y-183092914D01*
X249833334Y-183092914D02*
X249833334Y-183045295D01*
X249833334Y-183045295D02*
X249880953Y-182950057D01*
X249880953Y-182950057D02*
X249928572Y-182902438D01*
X249928572Y-182902438D02*
X250023810Y-182854819D01*
X250023810Y-182854819D02*
X250214286Y-182854819D01*
X250214286Y-182854819D02*
X250309524Y-182902438D01*
X250309524Y-182902438D02*
X250357143Y-182950057D01*
X250357143Y-182950057D02*
X250404762Y-183045295D01*
X250404762Y-183045295D02*
X250404762Y-183092914D01*
X250404762Y-183092914D02*
X250357143Y-183188152D01*
X250357143Y-183188152D02*
X250309524Y-183235771D01*
X250309524Y-183235771D02*
X250214286Y-183283390D01*
X250214286Y-183283390D02*
X250023810Y-183283390D01*
X250023810Y-183283390D02*
X249928572Y-183331009D01*
X249928572Y-183331009D02*
X249880953Y-183378628D01*
X249880953Y-183378628D02*
X249833334Y-183473866D01*
X249833334Y-183473866D02*
X249833334Y-183664342D01*
X249833334Y-183664342D02*
X249880953Y-183759580D01*
X249880953Y-183759580D02*
X249928572Y-183807200D01*
X249928572Y-183807200D02*
X250023810Y-183854819D01*
X250023810Y-183854819D02*
X250214286Y-183854819D01*
X250214286Y-183854819D02*
X250309524Y-183807200D01*
X250309524Y-183807200D02*
X250357143Y-183759580D01*
X250357143Y-183759580D02*
X250404762Y-183664342D01*
X250404762Y-183664342D02*
X250404762Y-183473866D01*
X250404762Y-183473866D02*
X250357143Y-183378628D01*
X250357143Y-183378628D02*
X250309524Y-183331009D01*
X250309524Y-183331009D02*
X250214286Y-183283390D01*
X250833334Y-183854819D02*
X250833334Y-183188152D01*
X250833334Y-183283390D02*
X250880953Y-183235771D01*
X250880953Y-183235771D02*
X250976191Y-183188152D01*
X250976191Y-183188152D02*
X251119048Y-183188152D01*
X251119048Y-183188152D02*
X251214286Y-183235771D01*
X251214286Y-183235771D02*
X251261905Y-183331009D01*
X251261905Y-183331009D02*
X251261905Y-183854819D01*
X251261905Y-183331009D02*
X251309524Y-183235771D01*
X251309524Y-183235771D02*
X251404762Y-183188152D01*
X251404762Y-183188152D02*
X251547619Y-183188152D01*
X251547619Y-183188152D02*
X251642858Y-183235771D01*
X251642858Y-183235771D02*
X251690477Y-183331009D01*
X251690477Y-183331009D02*
X251690477Y-183854819D01*
X252166667Y-183854819D02*
X252166667Y-183188152D01*
X252166667Y-183283390D02*
X252214286Y-183235771D01*
X252214286Y-183235771D02*
X252309524Y-183188152D01*
X252309524Y-183188152D02*
X252452381Y-183188152D01*
X252452381Y-183188152D02*
X252547619Y-183235771D01*
X252547619Y-183235771D02*
X252595238Y-183331009D01*
X252595238Y-183331009D02*
X252595238Y-183854819D01*
X252595238Y-183331009D02*
X252642857Y-183235771D01*
X252642857Y-183235771D02*
X252738095Y-183188152D01*
X252738095Y-183188152D02*
X252880952Y-183188152D01*
X252880952Y-183188152D02*
X252976191Y-183235771D01*
X252976191Y-183235771D02*
X253023810Y-183331009D01*
X253023810Y-183331009D02*
X253023810Y-183854819D01*
D11*
X246890476Y-174563855D02*
X246890476Y-175211474D01*
X246890476Y-175211474D02*
X246928571Y-175287664D01*
X246928571Y-175287664D02*
X246966666Y-175325760D01*
X246966666Y-175325760D02*
X247042857Y-175363855D01*
X247042857Y-175363855D02*
X247195238Y-175363855D01*
X247195238Y-175363855D02*
X247271428Y-175325760D01*
X247271428Y-175325760D02*
X247309523Y-175287664D01*
X247309523Y-175287664D02*
X247347619Y-175211474D01*
X247347619Y-175211474D02*
X247347619Y-174563855D01*
X247690475Y-174640045D02*
X247728571Y-174601950D01*
X247728571Y-174601950D02*
X247804761Y-174563855D01*
X247804761Y-174563855D02*
X247995237Y-174563855D01*
X247995237Y-174563855D02*
X248071428Y-174601950D01*
X248071428Y-174601950D02*
X248109523Y-174640045D01*
X248109523Y-174640045D02*
X248147618Y-174716236D01*
X248147618Y-174716236D02*
X248147618Y-174792426D01*
X248147618Y-174792426D02*
X248109523Y-174906712D01*
X248109523Y-174906712D02*
X247652380Y-175363855D01*
X247652380Y-175363855D02*
X248147618Y-175363855D01*
D10*
X149476190Y-216454819D02*
X150047618Y-216454819D01*
X149761904Y-217454819D02*
X149761904Y-216454819D01*
X150714285Y-216931009D02*
X150380952Y-216931009D01*
X150380952Y-217454819D02*
X150380952Y-216454819D01*
X150380952Y-216454819D02*
X150857142Y-216454819D01*
X151714285Y-217454819D02*
X151238095Y-217454819D01*
X151238095Y-217454819D02*
X151238095Y-216454819D01*
X152047619Y-217454819D02*
X152047619Y-216454819D01*
X152047619Y-216454819D02*
X152619047Y-217454819D01*
X152619047Y-217454819D02*
X152619047Y-216454819D01*
X152857143Y-217550057D02*
X153619047Y-217550057D01*
X153857143Y-217454819D02*
X153857143Y-216454819D01*
X153857143Y-216454819D02*
X154238095Y-216454819D01*
X154238095Y-216454819D02*
X154333333Y-216502438D01*
X154333333Y-216502438D02*
X154380952Y-216550057D01*
X154380952Y-216550057D02*
X154428571Y-216645295D01*
X154428571Y-216645295D02*
X154428571Y-216788152D01*
X154428571Y-216788152D02*
X154380952Y-216883390D01*
X154380952Y-216883390D02*
X154333333Y-216931009D01*
X154333333Y-216931009D02*
X154238095Y-216978628D01*
X154238095Y-216978628D02*
X153857143Y-216978628D01*
X154857143Y-217454819D02*
X154857143Y-216454819D01*
X155285714Y-217454819D02*
X155285714Y-216931009D01*
X155285714Y-216931009D02*
X155238095Y-216835771D01*
X155238095Y-216835771D02*
X155142857Y-216788152D01*
X155142857Y-216788152D02*
X155000000Y-216788152D01*
X155000000Y-216788152D02*
X154904762Y-216835771D01*
X154904762Y-216835771D02*
X154857143Y-216883390D01*
X155904762Y-217454819D02*
X155809524Y-217407200D01*
X155809524Y-217407200D02*
X155761905Y-217359580D01*
X155761905Y-217359580D02*
X155714286Y-217264342D01*
X155714286Y-217264342D02*
X155714286Y-216978628D01*
X155714286Y-216978628D02*
X155761905Y-216883390D01*
X155761905Y-216883390D02*
X155809524Y-216835771D01*
X155809524Y-216835771D02*
X155904762Y-216788152D01*
X155904762Y-216788152D02*
X156047619Y-216788152D01*
X156047619Y-216788152D02*
X156142857Y-216835771D01*
X156142857Y-216835771D02*
X156190476Y-216883390D01*
X156190476Y-216883390D02*
X156238095Y-216978628D01*
X156238095Y-216978628D02*
X156238095Y-217264342D01*
X156238095Y-217264342D02*
X156190476Y-217359580D01*
X156190476Y-217359580D02*
X156142857Y-217407200D01*
X156142857Y-217407200D02*
X156047619Y-217454819D01*
X156047619Y-217454819D02*
X155904762Y-217454819D01*
X156523810Y-216788152D02*
X156904762Y-216788152D01*
X156666667Y-216454819D02*
X156666667Y-217311961D01*
X156666667Y-217311961D02*
X156714286Y-217407200D01*
X156714286Y-217407200D02*
X156809524Y-217454819D01*
X156809524Y-217454819D02*
X156904762Y-217454819D01*
X157380953Y-217454819D02*
X157285715Y-217407200D01*
X157285715Y-217407200D02*
X157238096Y-217359580D01*
X157238096Y-217359580D02*
X157190477Y-217264342D01*
X157190477Y-217264342D02*
X157190477Y-216978628D01*
X157190477Y-216978628D02*
X157238096Y-216883390D01*
X157238096Y-216883390D02*
X157285715Y-216835771D01*
X157285715Y-216835771D02*
X157380953Y-216788152D01*
X157380953Y-216788152D02*
X157523810Y-216788152D01*
X157523810Y-216788152D02*
X157619048Y-216835771D01*
X157619048Y-216835771D02*
X157666667Y-216883390D01*
X157666667Y-216883390D02*
X157714286Y-216978628D01*
X157714286Y-216978628D02*
X157714286Y-217264342D01*
X157714286Y-217264342D02*
X157666667Y-217359580D01*
X157666667Y-217359580D02*
X157619048Y-217407200D01*
X157619048Y-217407200D02*
X157523810Y-217454819D01*
X157523810Y-217454819D02*
X157380953Y-217454819D01*
X158142858Y-216788152D02*
X158142858Y-217454819D01*
X158142858Y-216883390D02*
X158190477Y-216835771D01*
X158190477Y-216835771D02*
X158285715Y-216788152D01*
X158285715Y-216788152D02*
X158428572Y-216788152D01*
X158428572Y-216788152D02*
X158523810Y-216835771D01*
X158523810Y-216835771D02*
X158571429Y-216931009D01*
X158571429Y-216931009D02*
X158571429Y-217454819D01*
X159047620Y-217454819D02*
X159047620Y-216788152D01*
X159047620Y-216454819D02*
X159000001Y-216502438D01*
X159000001Y-216502438D02*
X159047620Y-216550057D01*
X159047620Y-216550057D02*
X159095239Y-216502438D01*
X159095239Y-216502438D02*
X159047620Y-216454819D01*
X159047620Y-216454819D02*
X159047620Y-216550057D01*
X159952381Y-217407200D02*
X159857143Y-217454819D01*
X159857143Y-217454819D02*
X159666667Y-217454819D01*
X159666667Y-217454819D02*
X159571429Y-217407200D01*
X159571429Y-217407200D02*
X159523810Y-217359580D01*
X159523810Y-217359580D02*
X159476191Y-217264342D01*
X159476191Y-217264342D02*
X159476191Y-216978628D01*
X159476191Y-216978628D02*
X159523810Y-216883390D01*
X159523810Y-216883390D02*
X159571429Y-216835771D01*
X159571429Y-216835771D02*
X159666667Y-216788152D01*
X159666667Y-216788152D02*
X159857143Y-216788152D01*
X159857143Y-216788152D02*
X159952381Y-216835771D01*
X160142858Y-217550057D02*
X160904762Y-217550057D01*
X161142858Y-217454819D02*
X161142858Y-216454819D01*
X161142858Y-216931009D02*
X161714286Y-216931009D01*
X161714286Y-217454819D02*
X161714286Y-216454819D01*
X162095239Y-216788152D02*
X162333334Y-217454819D01*
X162571429Y-216788152D02*
X162333334Y-217454819D01*
X162333334Y-217454819D02*
X162238096Y-217692914D01*
X162238096Y-217692914D02*
X162190477Y-217740533D01*
X162190477Y-217740533D02*
X162095239Y-217788152D01*
X162952382Y-217454819D02*
X162952382Y-216454819D01*
X162952382Y-216835771D02*
X163047620Y-216788152D01*
X163047620Y-216788152D02*
X163238096Y-216788152D01*
X163238096Y-216788152D02*
X163333334Y-216835771D01*
X163333334Y-216835771D02*
X163380953Y-216883390D01*
X163380953Y-216883390D02*
X163428572Y-216978628D01*
X163428572Y-216978628D02*
X163428572Y-217264342D01*
X163428572Y-217264342D02*
X163380953Y-217359580D01*
X163380953Y-217359580D02*
X163333334Y-217407200D01*
X163333334Y-217407200D02*
X163238096Y-217454819D01*
X163238096Y-217454819D02*
X163047620Y-217454819D01*
X163047620Y-217454819D02*
X162952382Y-217407200D01*
X163857144Y-217454819D02*
X163857144Y-216788152D01*
X163857144Y-216978628D02*
X163904763Y-216883390D01*
X163904763Y-216883390D02*
X163952382Y-216835771D01*
X163952382Y-216835771D02*
X164047620Y-216788152D01*
X164047620Y-216788152D02*
X164142858Y-216788152D01*
X164476192Y-217454819D02*
X164476192Y-216788152D01*
X164476192Y-216454819D02*
X164428573Y-216502438D01*
X164428573Y-216502438D02*
X164476192Y-216550057D01*
X164476192Y-216550057D02*
X164523811Y-216502438D01*
X164523811Y-216502438D02*
X164476192Y-216454819D01*
X164476192Y-216454819D02*
X164476192Y-216550057D01*
X165380953Y-217454819D02*
X165380953Y-216454819D01*
X165380953Y-217407200D02*
X165285715Y-217454819D01*
X165285715Y-217454819D02*
X165095239Y-217454819D01*
X165095239Y-217454819D02*
X165000001Y-217407200D01*
X165000001Y-217407200D02*
X164952382Y-217359580D01*
X164952382Y-217359580D02*
X164904763Y-217264342D01*
X164904763Y-217264342D02*
X164904763Y-216978628D01*
X164904763Y-216978628D02*
X164952382Y-216883390D01*
X164952382Y-216883390D02*
X165000001Y-216835771D01*
X165000001Y-216835771D02*
X165095239Y-216788152D01*
X165095239Y-216788152D02*
X165285715Y-216788152D01*
X165285715Y-216788152D02*
X165380953Y-216835771D01*
X239476190Y-216454819D02*
X240047618Y-216454819D01*
X239761904Y-217454819D02*
X239761904Y-216454819D01*
X240714285Y-216931009D02*
X240380952Y-216931009D01*
X240380952Y-217454819D02*
X240380952Y-216454819D01*
X240380952Y-216454819D02*
X240857142Y-216454819D01*
X241714285Y-217454819D02*
X241238095Y-217454819D01*
X241238095Y-217454819D02*
X241238095Y-216454819D01*
X242047619Y-217454819D02*
X242047619Y-216454819D01*
X242047619Y-216454819D02*
X242619047Y-217454819D01*
X242619047Y-217454819D02*
X242619047Y-216454819D01*
X242857143Y-217550057D02*
X243619047Y-217550057D01*
X243857143Y-217454819D02*
X243857143Y-216454819D01*
X243857143Y-216454819D02*
X244238095Y-216454819D01*
X244238095Y-216454819D02*
X244333333Y-216502438D01*
X244333333Y-216502438D02*
X244380952Y-216550057D01*
X244380952Y-216550057D02*
X244428571Y-216645295D01*
X244428571Y-216645295D02*
X244428571Y-216788152D01*
X244428571Y-216788152D02*
X244380952Y-216883390D01*
X244380952Y-216883390D02*
X244333333Y-216931009D01*
X244333333Y-216931009D02*
X244238095Y-216978628D01*
X244238095Y-216978628D02*
X243857143Y-216978628D01*
X244857143Y-217454819D02*
X244857143Y-216454819D01*
X245285714Y-217454819D02*
X245285714Y-216931009D01*
X245285714Y-216931009D02*
X245238095Y-216835771D01*
X245238095Y-216835771D02*
X245142857Y-216788152D01*
X245142857Y-216788152D02*
X245000000Y-216788152D01*
X245000000Y-216788152D02*
X244904762Y-216835771D01*
X244904762Y-216835771D02*
X244857143Y-216883390D01*
X245904762Y-217454819D02*
X245809524Y-217407200D01*
X245809524Y-217407200D02*
X245761905Y-217359580D01*
X245761905Y-217359580D02*
X245714286Y-217264342D01*
X245714286Y-217264342D02*
X245714286Y-216978628D01*
X245714286Y-216978628D02*
X245761905Y-216883390D01*
X245761905Y-216883390D02*
X245809524Y-216835771D01*
X245809524Y-216835771D02*
X245904762Y-216788152D01*
X245904762Y-216788152D02*
X246047619Y-216788152D01*
X246047619Y-216788152D02*
X246142857Y-216835771D01*
X246142857Y-216835771D02*
X246190476Y-216883390D01*
X246190476Y-216883390D02*
X246238095Y-216978628D01*
X246238095Y-216978628D02*
X246238095Y-217264342D01*
X246238095Y-217264342D02*
X246190476Y-217359580D01*
X246190476Y-217359580D02*
X246142857Y-217407200D01*
X246142857Y-217407200D02*
X246047619Y-217454819D01*
X246047619Y-217454819D02*
X245904762Y-217454819D01*
X246523810Y-216788152D02*
X246904762Y-216788152D01*
X246666667Y-216454819D02*
X246666667Y-217311961D01*
X246666667Y-217311961D02*
X246714286Y-217407200D01*
X246714286Y-217407200D02*
X246809524Y-217454819D01*
X246809524Y-217454819D02*
X246904762Y-217454819D01*
X247380953Y-217454819D02*
X247285715Y-217407200D01*
X247285715Y-217407200D02*
X247238096Y-217359580D01*
X247238096Y-217359580D02*
X247190477Y-217264342D01*
X247190477Y-217264342D02*
X247190477Y-216978628D01*
X247190477Y-216978628D02*
X247238096Y-216883390D01*
X247238096Y-216883390D02*
X247285715Y-216835771D01*
X247285715Y-216835771D02*
X247380953Y-216788152D01*
X247380953Y-216788152D02*
X247523810Y-216788152D01*
X247523810Y-216788152D02*
X247619048Y-216835771D01*
X247619048Y-216835771D02*
X247666667Y-216883390D01*
X247666667Y-216883390D02*
X247714286Y-216978628D01*
X247714286Y-216978628D02*
X247714286Y-217264342D01*
X247714286Y-217264342D02*
X247666667Y-217359580D01*
X247666667Y-217359580D02*
X247619048Y-217407200D01*
X247619048Y-217407200D02*
X247523810Y-217454819D01*
X247523810Y-217454819D02*
X247380953Y-217454819D01*
X248142858Y-216788152D02*
X248142858Y-217454819D01*
X248142858Y-216883390D02*
X248190477Y-216835771D01*
X248190477Y-216835771D02*
X248285715Y-216788152D01*
X248285715Y-216788152D02*
X248428572Y-216788152D01*
X248428572Y-216788152D02*
X248523810Y-216835771D01*
X248523810Y-216835771D02*
X248571429Y-216931009D01*
X248571429Y-216931009D02*
X248571429Y-217454819D01*
X249047620Y-217454819D02*
X249047620Y-216788152D01*
X249047620Y-216454819D02*
X249000001Y-216502438D01*
X249000001Y-216502438D02*
X249047620Y-216550057D01*
X249047620Y-216550057D02*
X249095239Y-216502438D01*
X249095239Y-216502438D02*
X249047620Y-216454819D01*
X249047620Y-216454819D02*
X249047620Y-216550057D01*
X249952381Y-217407200D02*
X249857143Y-217454819D01*
X249857143Y-217454819D02*
X249666667Y-217454819D01*
X249666667Y-217454819D02*
X249571429Y-217407200D01*
X249571429Y-217407200D02*
X249523810Y-217359580D01*
X249523810Y-217359580D02*
X249476191Y-217264342D01*
X249476191Y-217264342D02*
X249476191Y-216978628D01*
X249476191Y-216978628D02*
X249523810Y-216883390D01*
X249523810Y-216883390D02*
X249571429Y-216835771D01*
X249571429Y-216835771D02*
X249666667Y-216788152D01*
X249666667Y-216788152D02*
X249857143Y-216788152D01*
X249857143Y-216788152D02*
X249952381Y-216835771D01*
X250142858Y-217550057D02*
X250904762Y-217550057D01*
X251142858Y-217454819D02*
X251142858Y-216454819D01*
X251142858Y-216931009D02*
X251714286Y-216931009D01*
X251714286Y-217454819D02*
X251714286Y-216454819D01*
X252095239Y-216788152D02*
X252333334Y-217454819D01*
X252571429Y-216788152D02*
X252333334Y-217454819D01*
X252333334Y-217454819D02*
X252238096Y-217692914D01*
X252238096Y-217692914D02*
X252190477Y-217740533D01*
X252190477Y-217740533D02*
X252095239Y-217788152D01*
X252952382Y-217454819D02*
X252952382Y-216454819D01*
X252952382Y-216835771D02*
X253047620Y-216788152D01*
X253047620Y-216788152D02*
X253238096Y-216788152D01*
X253238096Y-216788152D02*
X253333334Y-216835771D01*
X253333334Y-216835771D02*
X253380953Y-216883390D01*
X253380953Y-216883390D02*
X253428572Y-216978628D01*
X253428572Y-216978628D02*
X253428572Y-217264342D01*
X253428572Y-217264342D02*
X253380953Y-217359580D01*
X253380953Y-217359580D02*
X253333334Y-217407200D01*
X253333334Y-217407200D02*
X253238096Y-217454819D01*
X253238096Y-217454819D02*
X253047620Y-217454819D01*
X253047620Y-217454819D02*
X252952382Y-217407200D01*
X253857144Y-217454819D02*
X253857144Y-216788152D01*
X253857144Y-216978628D02*
X253904763Y-216883390D01*
X253904763Y-216883390D02*
X253952382Y-216835771D01*
X253952382Y-216835771D02*
X254047620Y-216788152D01*
X254047620Y-216788152D02*
X254142858Y-216788152D01*
X254476192Y-217454819D02*
X254476192Y-216788152D01*
X254476192Y-216454819D02*
X254428573Y-216502438D01*
X254428573Y-216502438D02*
X254476192Y-216550057D01*
X254476192Y-216550057D02*
X254523811Y-216502438D01*
X254523811Y-216502438D02*
X254476192Y-216454819D01*
X254476192Y-216454819D02*
X254476192Y-216550057D01*
X255380953Y-217454819D02*
X255380953Y-216454819D01*
X255380953Y-217407200D02*
X255285715Y-217454819D01*
X255285715Y-217454819D02*
X255095239Y-217454819D01*
X255095239Y-217454819D02*
X255000001Y-217407200D01*
X255000001Y-217407200D02*
X254952382Y-217359580D01*
X254952382Y-217359580D02*
X254904763Y-217264342D01*
X254904763Y-217264342D02*
X254904763Y-216978628D01*
X254904763Y-216978628D02*
X254952382Y-216883390D01*
X254952382Y-216883390D02*
X255000001Y-216835771D01*
X255000001Y-216835771D02*
X255095239Y-216788152D01*
X255095239Y-216788152D02*
X255285715Y-216788152D01*
X255285715Y-216788152D02*
X255380953Y-216835771D01*
X126071428Y-143954819D02*
X126404761Y-144954819D01*
X126404761Y-144954819D02*
X126738094Y-143954819D01*
X127642856Y-144954819D02*
X127309523Y-144478628D01*
X127071428Y-144954819D02*
X127071428Y-143954819D01*
X127071428Y-143954819D02*
X127452380Y-143954819D01*
X127452380Y-143954819D02*
X127547618Y-144002438D01*
X127547618Y-144002438D02*
X127595237Y-144050057D01*
X127595237Y-144050057D02*
X127642856Y-144145295D01*
X127642856Y-144145295D02*
X127642856Y-144288152D01*
X127642856Y-144288152D02*
X127595237Y-144383390D01*
X127595237Y-144383390D02*
X127547618Y-144431009D01*
X127547618Y-144431009D02*
X127452380Y-144478628D01*
X127452380Y-144478628D02*
X127071428Y-144478628D01*
X128071428Y-144954819D02*
X128071428Y-143954819D01*
X128071428Y-143954819D02*
X128404761Y-144669104D01*
X128404761Y-144669104D02*
X128738094Y-143954819D01*
X128738094Y-143954819D02*
X128738094Y-144954819D01*
X128976190Y-145050057D02*
X129738094Y-145050057D01*
X129976190Y-144954819D02*
X129976190Y-143954819D01*
X129976190Y-143954819D02*
X130214285Y-143954819D01*
X130214285Y-143954819D02*
X130357142Y-144002438D01*
X130357142Y-144002438D02*
X130452380Y-144097676D01*
X130452380Y-144097676D02*
X130499999Y-144192914D01*
X130499999Y-144192914D02*
X130547618Y-144383390D01*
X130547618Y-144383390D02*
X130547618Y-144526247D01*
X130547618Y-144526247D02*
X130499999Y-144716723D01*
X130499999Y-144716723D02*
X130452380Y-144811961D01*
X130452380Y-144811961D02*
X130357142Y-144907200D01*
X130357142Y-144907200D02*
X130214285Y-144954819D01*
X130214285Y-144954819D02*
X129976190Y-144954819D01*
X130976190Y-144954819D02*
X130976190Y-144288152D01*
X130976190Y-144478628D02*
X131023809Y-144383390D01*
X131023809Y-144383390D02*
X131071428Y-144335771D01*
X131071428Y-144335771D02*
X131166666Y-144288152D01*
X131166666Y-144288152D02*
X131261904Y-144288152D01*
X131595238Y-144954819D02*
X131595238Y-143954819D01*
X131595238Y-143954819D02*
X131928571Y-144669104D01*
X131928571Y-144669104D02*
X132261904Y-143954819D01*
X132261904Y-143954819D02*
X132261904Y-144954819D01*
X132928571Y-143954819D02*
X133119047Y-143954819D01*
X133119047Y-143954819D02*
X133214285Y-144002438D01*
X133214285Y-144002438D02*
X133309523Y-144097676D01*
X133309523Y-144097676D02*
X133357142Y-144288152D01*
X133357142Y-144288152D02*
X133357142Y-144621485D01*
X133357142Y-144621485D02*
X133309523Y-144811961D01*
X133309523Y-144811961D02*
X133214285Y-144907200D01*
X133214285Y-144907200D02*
X133119047Y-144954819D01*
X133119047Y-144954819D02*
X132928571Y-144954819D01*
X132928571Y-144954819D02*
X132833333Y-144907200D01*
X132833333Y-144907200D02*
X132738095Y-144811961D01*
X132738095Y-144811961D02*
X132690476Y-144621485D01*
X132690476Y-144621485D02*
X132690476Y-144288152D01*
X132690476Y-144288152D02*
X132738095Y-144097676D01*
X132738095Y-144097676D02*
X132833333Y-144002438D01*
X132833333Y-144002438D02*
X132928571Y-143954819D01*
X133738095Y-144907200D02*
X133880952Y-144954819D01*
X133880952Y-144954819D02*
X134119047Y-144954819D01*
X134119047Y-144954819D02*
X134214285Y-144907200D01*
X134214285Y-144907200D02*
X134261904Y-144859580D01*
X134261904Y-144859580D02*
X134309523Y-144764342D01*
X134309523Y-144764342D02*
X134309523Y-144669104D01*
X134309523Y-144669104D02*
X134261904Y-144573866D01*
X134261904Y-144573866D02*
X134214285Y-144526247D01*
X134214285Y-144526247D02*
X134119047Y-144478628D01*
X134119047Y-144478628D02*
X133928571Y-144431009D01*
X133928571Y-144431009D02*
X133833333Y-144383390D01*
X133833333Y-144383390D02*
X133785714Y-144335771D01*
X133785714Y-144335771D02*
X133738095Y-144240533D01*
X133738095Y-144240533D02*
X133738095Y-144145295D01*
X133738095Y-144145295D02*
X133785714Y-144050057D01*
X133785714Y-144050057D02*
X133833333Y-144002438D01*
X133833333Y-144002438D02*
X133928571Y-143954819D01*
X133928571Y-143954819D02*
X134166666Y-143954819D01*
X134166666Y-143954819D02*
X134309523Y-144002438D01*
X134500000Y-145050057D02*
X135261904Y-145050057D01*
X135452381Y-144669104D02*
X135928571Y-144669104D01*
X135357143Y-144954819D02*
X135690476Y-143954819D01*
X135690476Y-143954819D02*
X136023809Y-144954819D01*
X136357143Y-144954819D02*
X136357143Y-144288152D01*
X136357143Y-144478628D02*
X136404762Y-144383390D01*
X136404762Y-144383390D02*
X136452381Y-144335771D01*
X136452381Y-144335771D02*
X136547619Y-144288152D01*
X136547619Y-144288152D02*
X136642857Y-144288152D01*
X136976191Y-144954819D02*
X136976191Y-144288152D01*
X136976191Y-144478628D02*
X137023810Y-144383390D01*
X137023810Y-144383390D02*
X137071429Y-144335771D01*
X137071429Y-144335771D02*
X137166667Y-144288152D01*
X137166667Y-144288152D02*
X137261905Y-144288152D01*
X138023810Y-144954819D02*
X138023810Y-144431009D01*
X138023810Y-144431009D02*
X137976191Y-144335771D01*
X137976191Y-144335771D02*
X137880953Y-144288152D01*
X137880953Y-144288152D02*
X137690477Y-144288152D01*
X137690477Y-144288152D02*
X137595239Y-144335771D01*
X138023810Y-144907200D02*
X137928572Y-144954819D01*
X137928572Y-144954819D02*
X137690477Y-144954819D01*
X137690477Y-144954819D02*
X137595239Y-144907200D01*
X137595239Y-144907200D02*
X137547620Y-144811961D01*
X137547620Y-144811961D02*
X137547620Y-144716723D01*
X137547620Y-144716723D02*
X137595239Y-144621485D01*
X137595239Y-144621485D02*
X137690477Y-144573866D01*
X137690477Y-144573866D02*
X137928572Y-144573866D01*
X137928572Y-144573866D02*
X138023810Y-144526247D01*
X138404763Y-144288152D02*
X138642858Y-144954819D01*
X138880953Y-144288152D02*
X138642858Y-144954819D01*
X138642858Y-144954819D02*
X138547620Y-145192914D01*
X138547620Y-145192914D02*
X138500001Y-145240533D01*
X138500001Y-145240533D02*
X138404763Y-145288152D01*
X266071428Y-143954819D02*
X266404761Y-144954819D01*
X266404761Y-144954819D02*
X266738094Y-143954819D01*
X267642856Y-144954819D02*
X267309523Y-144478628D01*
X267071428Y-144954819D02*
X267071428Y-143954819D01*
X267071428Y-143954819D02*
X267452380Y-143954819D01*
X267452380Y-143954819D02*
X267547618Y-144002438D01*
X267547618Y-144002438D02*
X267595237Y-144050057D01*
X267595237Y-144050057D02*
X267642856Y-144145295D01*
X267642856Y-144145295D02*
X267642856Y-144288152D01*
X267642856Y-144288152D02*
X267595237Y-144383390D01*
X267595237Y-144383390D02*
X267547618Y-144431009D01*
X267547618Y-144431009D02*
X267452380Y-144478628D01*
X267452380Y-144478628D02*
X267071428Y-144478628D01*
X268071428Y-144954819D02*
X268071428Y-143954819D01*
X268071428Y-143954819D02*
X268404761Y-144669104D01*
X268404761Y-144669104D02*
X268738094Y-143954819D01*
X268738094Y-143954819D02*
X268738094Y-144954819D01*
X268976190Y-145050057D02*
X269738094Y-145050057D01*
X269976190Y-144954819D02*
X269976190Y-143954819D01*
X269976190Y-143954819D02*
X270214285Y-143954819D01*
X270214285Y-143954819D02*
X270357142Y-144002438D01*
X270357142Y-144002438D02*
X270452380Y-144097676D01*
X270452380Y-144097676D02*
X270499999Y-144192914D01*
X270499999Y-144192914D02*
X270547618Y-144383390D01*
X270547618Y-144383390D02*
X270547618Y-144526247D01*
X270547618Y-144526247D02*
X270499999Y-144716723D01*
X270499999Y-144716723D02*
X270452380Y-144811961D01*
X270452380Y-144811961D02*
X270357142Y-144907200D01*
X270357142Y-144907200D02*
X270214285Y-144954819D01*
X270214285Y-144954819D02*
X269976190Y-144954819D01*
X270976190Y-144954819D02*
X270976190Y-144288152D01*
X270976190Y-144478628D02*
X271023809Y-144383390D01*
X271023809Y-144383390D02*
X271071428Y-144335771D01*
X271071428Y-144335771D02*
X271166666Y-144288152D01*
X271166666Y-144288152D02*
X271261904Y-144288152D01*
X271595238Y-144954819D02*
X271595238Y-143954819D01*
X271595238Y-143954819D02*
X271928571Y-144669104D01*
X271928571Y-144669104D02*
X272261904Y-143954819D01*
X272261904Y-143954819D02*
X272261904Y-144954819D01*
X272928571Y-143954819D02*
X273119047Y-143954819D01*
X273119047Y-143954819D02*
X273214285Y-144002438D01*
X273214285Y-144002438D02*
X273309523Y-144097676D01*
X273309523Y-144097676D02*
X273357142Y-144288152D01*
X273357142Y-144288152D02*
X273357142Y-144621485D01*
X273357142Y-144621485D02*
X273309523Y-144811961D01*
X273309523Y-144811961D02*
X273214285Y-144907200D01*
X273214285Y-144907200D02*
X273119047Y-144954819D01*
X273119047Y-144954819D02*
X272928571Y-144954819D01*
X272928571Y-144954819D02*
X272833333Y-144907200D01*
X272833333Y-144907200D02*
X272738095Y-144811961D01*
X272738095Y-144811961D02*
X272690476Y-144621485D01*
X272690476Y-144621485D02*
X272690476Y-144288152D01*
X272690476Y-144288152D02*
X272738095Y-144097676D01*
X272738095Y-144097676D02*
X272833333Y-144002438D01*
X272833333Y-144002438D02*
X272928571Y-143954819D01*
X273738095Y-144907200D02*
X273880952Y-144954819D01*
X273880952Y-144954819D02*
X274119047Y-144954819D01*
X274119047Y-144954819D02*
X274214285Y-144907200D01*
X274214285Y-144907200D02*
X274261904Y-144859580D01*
X274261904Y-144859580D02*
X274309523Y-144764342D01*
X274309523Y-144764342D02*
X274309523Y-144669104D01*
X274309523Y-144669104D02*
X274261904Y-144573866D01*
X274261904Y-144573866D02*
X274214285Y-144526247D01*
X274214285Y-144526247D02*
X274119047Y-144478628D01*
X274119047Y-144478628D02*
X273928571Y-144431009D01*
X273928571Y-144431009D02*
X273833333Y-144383390D01*
X273833333Y-144383390D02*
X273785714Y-144335771D01*
X273785714Y-144335771D02*
X273738095Y-144240533D01*
X273738095Y-144240533D02*
X273738095Y-144145295D01*
X273738095Y-144145295D02*
X273785714Y-144050057D01*
X273785714Y-144050057D02*
X273833333Y-144002438D01*
X273833333Y-144002438D02*
X273928571Y-143954819D01*
X273928571Y-143954819D02*
X274166666Y-143954819D01*
X274166666Y-143954819D02*
X274309523Y-144002438D01*
X274500000Y-145050057D02*
X275261904Y-145050057D01*
X275452381Y-144669104D02*
X275928571Y-144669104D01*
X275357143Y-144954819D02*
X275690476Y-143954819D01*
X275690476Y-143954819D02*
X276023809Y-144954819D01*
X276357143Y-144954819D02*
X276357143Y-144288152D01*
X276357143Y-144478628D02*
X276404762Y-144383390D01*
X276404762Y-144383390D02*
X276452381Y-144335771D01*
X276452381Y-144335771D02*
X276547619Y-144288152D01*
X276547619Y-144288152D02*
X276642857Y-144288152D01*
X276976191Y-144954819D02*
X276976191Y-144288152D01*
X276976191Y-144478628D02*
X277023810Y-144383390D01*
X277023810Y-144383390D02*
X277071429Y-144335771D01*
X277071429Y-144335771D02*
X277166667Y-144288152D01*
X277166667Y-144288152D02*
X277261905Y-144288152D01*
X278023810Y-144954819D02*
X278023810Y-144431009D01*
X278023810Y-144431009D02*
X277976191Y-144335771D01*
X277976191Y-144335771D02*
X277880953Y-144288152D01*
X277880953Y-144288152D02*
X277690477Y-144288152D01*
X277690477Y-144288152D02*
X277595239Y-144335771D01*
X278023810Y-144907200D02*
X277928572Y-144954819D01*
X277928572Y-144954819D02*
X277690477Y-144954819D01*
X277690477Y-144954819D02*
X277595239Y-144907200D01*
X277595239Y-144907200D02*
X277547620Y-144811961D01*
X277547620Y-144811961D02*
X277547620Y-144716723D01*
X277547620Y-144716723D02*
X277595239Y-144621485D01*
X277595239Y-144621485D02*
X277690477Y-144573866D01*
X277690477Y-144573866D02*
X277928572Y-144573866D01*
X277928572Y-144573866D02*
X278023810Y-144526247D01*
X278404763Y-144288152D02*
X278642858Y-144954819D01*
X278880953Y-144288152D02*
X278642858Y-144954819D01*
X278642858Y-144954819D02*
X278547620Y-145192914D01*
X278547620Y-145192914D02*
X278500001Y-145240533D01*
X278500001Y-145240533D02*
X278404763Y-145288152D01*
X126071428Y-253954819D02*
X126404761Y-254954819D01*
X126404761Y-254954819D02*
X126738094Y-253954819D01*
X127642856Y-254954819D02*
X127309523Y-254478628D01*
X127071428Y-254954819D02*
X127071428Y-253954819D01*
X127071428Y-253954819D02*
X127452380Y-253954819D01*
X127452380Y-253954819D02*
X127547618Y-254002438D01*
X127547618Y-254002438D02*
X127595237Y-254050057D01*
X127595237Y-254050057D02*
X127642856Y-254145295D01*
X127642856Y-254145295D02*
X127642856Y-254288152D01*
X127642856Y-254288152D02*
X127595237Y-254383390D01*
X127595237Y-254383390D02*
X127547618Y-254431009D01*
X127547618Y-254431009D02*
X127452380Y-254478628D01*
X127452380Y-254478628D02*
X127071428Y-254478628D01*
X128071428Y-254954819D02*
X128071428Y-253954819D01*
X128071428Y-253954819D02*
X128404761Y-254669104D01*
X128404761Y-254669104D02*
X128738094Y-253954819D01*
X128738094Y-253954819D02*
X128738094Y-254954819D01*
X128976190Y-255050057D02*
X129738094Y-255050057D01*
X129976190Y-254954819D02*
X129976190Y-253954819D01*
X129976190Y-253954819D02*
X130214285Y-253954819D01*
X130214285Y-253954819D02*
X130357142Y-254002438D01*
X130357142Y-254002438D02*
X130452380Y-254097676D01*
X130452380Y-254097676D02*
X130499999Y-254192914D01*
X130499999Y-254192914D02*
X130547618Y-254383390D01*
X130547618Y-254383390D02*
X130547618Y-254526247D01*
X130547618Y-254526247D02*
X130499999Y-254716723D01*
X130499999Y-254716723D02*
X130452380Y-254811961D01*
X130452380Y-254811961D02*
X130357142Y-254907200D01*
X130357142Y-254907200D02*
X130214285Y-254954819D01*
X130214285Y-254954819D02*
X129976190Y-254954819D01*
X130976190Y-254954819D02*
X130976190Y-254288152D01*
X130976190Y-254478628D02*
X131023809Y-254383390D01*
X131023809Y-254383390D02*
X131071428Y-254335771D01*
X131071428Y-254335771D02*
X131166666Y-254288152D01*
X131166666Y-254288152D02*
X131261904Y-254288152D01*
X131595238Y-254954819D02*
X131595238Y-253954819D01*
X131595238Y-253954819D02*
X131928571Y-254669104D01*
X131928571Y-254669104D02*
X132261904Y-253954819D01*
X132261904Y-253954819D02*
X132261904Y-254954819D01*
X132928571Y-253954819D02*
X133119047Y-253954819D01*
X133119047Y-253954819D02*
X133214285Y-254002438D01*
X133214285Y-254002438D02*
X133309523Y-254097676D01*
X133309523Y-254097676D02*
X133357142Y-254288152D01*
X133357142Y-254288152D02*
X133357142Y-254621485D01*
X133357142Y-254621485D02*
X133309523Y-254811961D01*
X133309523Y-254811961D02*
X133214285Y-254907200D01*
X133214285Y-254907200D02*
X133119047Y-254954819D01*
X133119047Y-254954819D02*
X132928571Y-254954819D01*
X132928571Y-254954819D02*
X132833333Y-254907200D01*
X132833333Y-254907200D02*
X132738095Y-254811961D01*
X132738095Y-254811961D02*
X132690476Y-254621485D01*
X132690476Y-254621485D02*
X132690476Y-254288152D01*
X132690476Y-254288152D02*
X132738095Y-254097676D01*
X132738095Y-254097676D02*
X132833333Y-254002438D01*
X132833333Y-254002438D02*
X132928571Y-253954819D01*
X133738095Y-254907200D02*
X133880952Y-254954819D01*
X133880952Y-254954819D02*
X134119047Y-254954819D01*
X134119047Y-254954819D02*
X134214285Y-254907200D01*
X134214285Y-254907200D02*
X134261904Y-254859580D01*
X134261904Y-254859580D02*
X134309523Y-254764342D01*
X134309523Y-254764342D02*
X134309523Y-254669104D01*
X134309523Y-254669104D02*
X134261904Y-254573866D01*
X134261904Y-254573866D02*
X134214285Y-254526247D01*
X134214285Y-254526247D02*
X134119047Y-254478628D01*
X134119047Y-254478628D02*
X133928571Y-254431009D01*
X133928571Y-254431009D02*
X133833333Y-254383390D01*
X133833333Y-254383390D02*
X133785714Y-254335771D01*
X133785714Y-254335771D02*
X133738095Y-254240533D01*
X133738095Y-254240533D02*
X133738095Y-254145295D01*
X133738095Y-254145295D02*
X133785714Y-254050057D01*
X133785714Y-254050057D02*
X133833333Y-254002438D01*
X133833333Y-254002438D02*
X133928571Y-253954819D01*
X133928571Y-253954819D02*
X134166666Y-253954819D01*
X134166666Y-253954819D02*
X134309523Y-254002438D01*
X134500000Y-255050057D02*
X135261904Y-255050057D01*
X135452381Y-254669104D02*
X135928571Y-254669104D01*
X135357143Y-254954819D02*
X135690476Y-253954819D01*
X135690476Y-253954819D02*
X136023809Y-254954819D01*
X136357143Y-254954819D02*
X136357143Y-254288152D01*
X136357143Y-254478628D02*
X136404762Y-254383390D01*
X136404762Y-254383390D02*
X136452381Y-254335771D01*
X136452381Y-254335771D02*
X136547619Y-254288152D01*
X136547619Y-254288152D02*
X136642857Y-254288152D01*
X136976191Y-254954819D02*
X136976191Y-254288152D01*
X136976191Y-254478628D02*
X137023810Y-254383390D01*
X137023810Y-254383390D02*
X137071429Y-254335771D01*
X137071429Y-254335771D02*
X137166667Y-254288152D01*
X137166667Y-254288152D02*
X137261905Y-254288152D01*
X138023810Y-254954819D02*
X138023810Y-254431009D01*
X138023810Y-254431009D02*
X137976191Y-254335771D01*
X137976191Y-254335771D02*
X137880953Y-254288152D01*
X137880953Y-254288152D02*
X137690477Y-254288152D01*
X137690477Y-254288152D02*
X137595239Y-254335771D01*
X138023810Y-254907200D02*
X137928572Y-254954819D01*
X137928572Y-254954819D02*
X137690477Y-254954819D01*
X137690477Y-254954819D02*
X137595239Y-254907200D01*
X137595239Y-254907200D02*
X137547620Y-254811961D01*
X137547620Y-254811961D02*
X137547620Y-254716723D01*
X137547620Y-254716723D02*
X137595239Y-254621485D01*
X137595239Y-254621485D02*
X137690477Y-254573866D01*
X137690477Y-254573866D02*
X137928572Y-254573866D01*
X137928572Y-254573866D02*
X138023810Y-254526247D01*
X138404763Y-254288152D02*
X138642858Y-254954819D01*
X138880953Y-254288152D02*
X138642858Y-254954819D01*
X138642858Y-254954819D02*
X138547620Y-255192914D01*
X138547620Y-255192914D02*
X138500001Y-255240533D01*
X138500001Y-255240533D02*
X138404763Y-255288152D01*
X266071428Y-253954819D02*
X266404761Y-254954819D01*
X266404761Y-254954819D02*
X266738094Y-253954819D01*
X267642856Y-254954819D02*
X267309523Y-254478628D01*
X267071428Y-254954819D02*
X267071428Y-253954819D01*
X267071428Y-253954819D02*
X267452380Y-253954819D01*
X267452380Y-253954819D02*
X267547618Y-254002438D01*
X267547618Y-254002438D02*
X267595237Y-254050057D01*
X267595237Y-254050057D02*
X267642856Y-254145295D01*
X267642856Y-254145295D02*
X267642856Y-254288152D01*
X267642856Y-254288152D02*
X267595237Y-254383390D01*
X267595237Y-254383390D02*
X267547618Y-254431009D01*
X267547618Y-254431009D02*
X267452380Y-254478628D01*
X267452380Y-254478628D02*
X267071428Y-254478628D01*
X268071428Y-254954819D02*
X268071428Y-253954819D01*
X268071428Y-253954819D02*
X268404761Y-254669104D01*
X268404761Y-254669104D02*
X268738094Y-253954819D01*
X268738094Y-253954819D02*
X268738094Y-254954819D01*
X268976190Y-255050057D02*
X269738094Y-255050057D01*
X269976190Y-254954819D02*
X269976190Y-253954819D01*
X269976190Y-253954819D02*
X270214285Y-253954819D01*
X270214285Y-253954819D02*
X270357142Y-254002438D01*
X270357142Y-254002438D02*
X270452380Y-254097676D01*
X270452380Y-254097676D02*
X270499999Y-254192914D01*
X270499999Y-254192914D02*
X270547618Y-254383390D01*
X270547618Y-254383390D02*
X270547618Y-254526247D01*
X270547618Y-254526247D02*
X270499999Y-254716723D01*
X270499999Y-254716723D02*
X270452380Y-254811961D01*
X270452380Y-254811961D02*
X270357142Y-254907200D01*
X270357142Y-254907200D02*
X270214285Y-254954819D01*
X270214285Y-254954819D02*
X269976190Y-254954819D01*
X270976190Y-254954819D02*
X270976190Y-254288152D01*
X270976190Y-254478628D02*
X271023809Y-254383390D01*
X271023809Y-254383390D02*
X271071428Y-254335771D01*
X271071428Y-254335771D02*
X271166666Y-254288152D01*
X271166666Y-254288152D02*
X271261904Y-254288152D01*
X271595238Y-254954819D02*
X271595238Y-253954819D01*
X271595238Y-253954819D02*
X271928571Y-254669104D01*
X271928571Y-254669104D02*
X272261904Y-253954819D01*
X272261904Y-253954819D02*
X272261904Y-254954819D01*
X272928571Y-253954819D02*
X273119047Y-253954819D01*
X273119047Y-253954819D02*
X273214285Y-254002438D01*
X273214285Y-254002438D02*
X273309523Y-254097676D01*
X273309523Y-254097676D02*
X273357142Y-254288152D01*
X273357142Y-254288152D02*
X273357142Y-254621485D01*
X273357142Y-254621485D02*
X273309523Y-254811961D01*
X273309523Y-254811961D02*
X273214285Y-254907200D01*
X273214285Y-254907200D02*
X273119047Y-254954819D01*
X273119047Y-254954819D02*
X272928571Y-254954819D01*
X272928571Y-254954819D02*
X272833333Y-254907200D01*
X272833333Y-254907200D02*
X272738095Y-254811961D01*
X272738095Y-254811961D02*
X272690476Y-254621485D01*
X272690476Y-254621485D02*
X272690476Y-254288152D01*
X272690476Y-254288152D02*
X272738095Y-254097676D01*
X272738095Y-254097676D02*
X272833333Y-254002438D01*
X272833333Y-254002438D02*
X272928571Y-253954819D01*
X273738095Y-254907200D02*
X273880952Y-254954819D01*
X273880952Y-254954819D02*
X274119047Y-254954819D01*
X274119047Y-254954819D02*
X274214285Y-254907200D01*
X274214285Y-254907200D02*
X274261904Y-254859580D01*
X274261904Y-254859580D02*
X274309523Y-254764342D01*
X274309523Y-254764342D02*
X274309523Y-254669104D01*
X274309523Y-254669104D02*
X274261904Y-254573866D01*
X274261904Y-254573866D02*
X274214285Y-254526247D01*
X274214285Y-254526247D02*
X274119047Y-254478628D01*
X274119047Y-254478628D02*
X273928571Y-254431009D01*
X273928571Y-254431009D02*
X273833333Y-254383390D01*
X273833333Y-254383390D02*
X273785714Y-254335771D01*
X273785714Y-254335771D02*
X273738095Y-254240533D01*
X273738095Y-254240533D02*
X273738095Y-254145295D01*
X273738095Y-254145295D02*
X273785714Y-254050057D01*
X273785714Y-254050057D02*
X273833333Y-254002438D01*
X273833333Y-254002438D02*
X273928571Y-253954819D01*
X273928571Y-253954819D02*
X274166666Y-253954819D01*
X274166666Y-253954819D02*
X274309523Y-254002438D01*
X274500000Y-255050057D02*
X275261904Y-255050057D01*
X275452381Y-254669104D02*
X275928571Y-254669104D01*
X275357143Y-254954819D02*
X275690476Y-253954819D01*
X275690476Y-253954819D02*
X276023809Y-254954819D01*
X276357143Y-254954819D02*
X276357143Y-254288152D01*
X276357143Y-254478628D02*
X276404762Y-254383390D01*
X276404762Y-254383390D02*
X276452381Y-254335771D01*
X276452381Y-254335771D02*
X276547619Y-254288152D01*
X276547619Y-254288152D02*
X276642857Y-254288152D01*
X276976191Y-254954819D02*
X276976191Y-254288152D01*
X276976191Y-254478628D02*
X277023810Y-254383390D01*
X277023810Y-254383390D02*
X277071429Y-254335771D01*
X277071429Y-254335771D02*
X277166667Y-254288152D01*
X277166667Y-254288152D02*
X277261905Y-254288152D01*
X278023810Y-254954819D02*
X278023810Y-254431009D01*
X278023810Y-254431009D02*
X277976191Y-254335771D01*
X277976191Y-254335771D02*
X277880953Y-254288152D01*
X277880953Y-254288152D02*
X277690477Y-254288152D01*
X277690477Y-254288152D02*
X277595239Y-254335771D01*
X278023810Y-254907200D02*
X277928572Y-254954819D01*
X277928572Y-254954819D02*
X277690477Y-254954819D01*
X277690477Y-254954819D02*
X277595239Y-254907200D01*
X277595239Y-254907200D02*
X277547620Y-254811961D01*
X277547620Y-254811961D02*
X277547620Y-254716723D01*
X277547620Y-254716723D02*
X277595239Y-254621485D01*
X277595239Y-254621485D02*
X277690477Y-254573866D01*
X277690477Y-254573866D02*
X277928572Y-254573866D01*
X277928572Y-254573866D02*
X278023810Y-254526247D01*
X278404763Y-254288152D02*
X278642858Y-254954819D01*
X278880953Y-254288152D02*
X278642858Y-254954819D01*
X278642858Y-254954819D02*
X278547620Y-255192914D01*
X278547620Y-255192914D02*
X278500001Y-255240533D01*
X278500001Y-255240533D02*
X278404763Y-255288152D01*
X84976190Y-91454819D02*
X84976190Y-90454819D01*
X84976190Y-90454819D02*
X85357142Y-90454819D01*
X85357142Y-90454819D02*
X85452380Y-90502438D01*
X85452380Y-90502438D02*
X85499999Y-90550057D01*
X85499999Y-90550057D02*
X85547618Y-90645295D01*
X85547618Y-90645295D02*
X85547618Y-90788152D01*
X85547618Y-90788152D02*
X85499999Y-90883390D01*
X85499999Y-90883390D02*
X85452380Y-90931009D01*
X85452380Y-90931009D02*
X85357142Y-90978628D01*
X85357142Y-90978628D02*
X84976190Y-90978628D01*
X86547618Y-91359580D02*
X86499999Y-91407200D01*
X86499999Y-91407200D02*
X86357142Y-91454819D01*
X86357142Y-91454819D02*
X86261904Y-91454819D01*
X86261904Y-91454819D02*
X86119047Y-91407200D01*
X86119047Y-91407200D02*
X86023809Y-91311961D01*
X86023809Y-91311961D02*
X85976190Y-91216723D01*
X85976190Y-91216723D02*
X85928571Y-91026247D01*
X85928571Y-91026247D02*
X85928571Y-90883390D01*
X85928571Y-90883390D02*
X85976190Y-90692914D01*
X85976190Y-90692914D02*
X86023809Y-90597676D01*
X86023809Y-90597676D02*
X86119047Y-90502438D01*
X86119047Y-90502438D02*
X86261904Y-90454819D01*
X86261904Y-90454819D02*
X86357142Y-90454819D01*
X86357142Y-90454819D02*
X86499999Y-90502438D01*
X86499999Y-90502438D02*
X86547618Y-90550057D01*
X86976190Y-91454819D02*
X86976190Y-90454819D01*
X87833332Y-91407200D02*
X87738094Y-91454819D01*
X87738094Y-91454819D02*
X87547618Y-91454819D01*
X87547618Y-91454819D02*
X87452380Y-91407200D01*
X87452380Y-91407200D02*
X87404761Y-91311961D01*
X87404761Y-91311961D02*
X87404761Y-90931009D01*
X87404761Y-90931009D02*
X87452380Y-90835771D01*
X87452380Y-90835771D02*
X87547618Y-90788152D01*
X87547618Y-90788152D02*
X87738094Y-90788152D01*
X87738094Y-90788152D02*
X87833332Y-90835771D01*
X87833332Y-90835771D02*
X87880951Y-90931009D01*
X87880951Y-90931009D02*
X87880951Y-91026247D01*
X87880951Y-91026247D02*
X87404761Y-91121485D01*
X88071428Y-91550057D02*
X88833332Y-91550057D01*
X88976190Y-91454819D02*
X89499999Y-90788152D01*
X88976190Y-90788152D02*
X89499999Y-91454819D01*
X90404761Y-91454819D02*
X89833333Y-91454819D01*
X90119047Y-91454819D02*
X90119047Y-90454819D01*
X90119047Y-90454819D02*
X90023809Y-90597676D01*
X90023809Y-90597676D02*
X89928571Y-90692914D01*
X89928571Y-90692914D02*
X89833333Y-90740533D01*
X91261904Y-90454819D02*
X91071428Y-90454819D01*
X91071428Y-90454819D02*
X90976190Y-90502438D01*
X90976190Y-90502438D02*
X90928571Y-90550057D01*
X90928571Y-90550057D02*
X90833333Y-90692914D01*
X90833333Y-90692914D02*
X90785714Y-90883390D01*
X90785714Y-90883390D02*
X90785714Y-91264342D01*
X90785714Y-91264342D02*
X90833333Y-91359580D01*
X90833333Y-91359580D02*
X90880952Y-91407200D01*
X90880952Y-91407200D02*
X90976190Y-91454819D01*
X90976190Y-91454819D02*
X91166666Y-91454819D01*
X91166666Y-91454819D02*
X91261904Y-91407200D01*
X91261904Y-91407200D02*
X91309523Y-91359580D01*
X91309523Y-91359580D02*
X91357142Y-91264342D01*
X91357142Y-91264342D02*
X91357142Y-91026247D01*
X91357142Y-91026247D02*
X91309523Y-90931009D01*
X91309523Y-90931009D02*
X91261904Y-90883390D01*
X91261904Y-90883390D02*
X91166666Y-90835771D01*
X91166666Y-90835771D02*
X90976190Y-90835771D01*
X90976190Y-90835771D02*
X90880952Y-90883390D01*
X90880952Y-90883390D02*
X90833333Y-90931009D01*
X90833333Y-90931009D02*
X90785714Y-91026247D01*
X91547619Y-91550057D02*
X92309523Y-91550057D01*
X92500000Y-91407200D02*
X92642857Y-91454819D01*
X92642857Y-91454819D02*
X92880952Y-91454819D01*
X92880952Y-91454819D02*
X92976190Y-91407200D01*
X92976190Y-91407200D02*
X93023809Y-91359580D01*
X93023809Y-91359580D02*
X93071428Y-91264342D01*
X93071428Y-91264342D02*
X93071428Y-91169104D01*
X93071428Y-91169104D02*
X93023809Y-91073866D01*
X93023809Y-91073866D02*
X92976190Y-91026247D01*
X92976190Y-91026247D02*
X92880952Y-90978628D01*
X92880952Y-90978628D02*
X92690476Y-90931009D01*
X92690476Y-90931009D02*
X92595238Y-90883390D01*
X92595238Y-90883390D02*
X92547619Y-90835771D01*
X92547619Y-90835771D02*
X92500000Y-90740533D01*
X92500000Y-90740533D02*
X92500000Y-90645295D01*
X92500000Y-90645295D02*
X92547619Y-90550057D01*
X92547619Y-90550057D02*
X92595238Y-90502438D01*
X92595238Y-90502438D02*
X92690476Y-90454819D01*
X92690476Y-90454819D02*
X92928571Y-90454819D01*
X92928571Y-90454819D02*
X93071428Y-90502438D01*
X93642857Y-91454819D02*
X93547619Y-91407200D01*
X93547619Y-91407200D02*
X93500000Y-91311961D01*
X93500000Y-91311961D02*
X93500000Y-90454819D01*
X94166667Y-91454819D02*
X94071429Y-91407200D01*
X94071429Y-91407200D02*
X94023810Y-91359580D01*
X94023810Y-91359580D02*
X93976191Y-91264342D01*
X93976191Y-91264342D02*
X93976191Y-90978628D01*
X93976191Y-90978628D02*
X94023810Y-90883390D01*
X94023810Y-90883390D02*
X94071429Y-90835771D01*
X94071429Y-90835771D02*
X94166667Y-90788152D01*
X94166667Y-90788152D02*
X94309524Y-90788152D01*
X94309524Y-90788152D02*
X94404762Y-90835771D01*
X94404762Y-90835771D02*
X94452381Y-90883390D01*
X94452381Y-90883390D02*
X94500000Y-90978628D01*
X94500000Y-90978628D02*
X94500000Y-91264342D01*
X94500000Y-91264342D02*
X94452381Y-91359580D01*
X94452381Y-91359580D02*
X94404762Y-91407200D01*
X94404762Y-91407200D02*
X94309524Y-91454819D01*
X94309524Y-91454819D02*
X94166667Y-91454819D01*
X94785715Y-90788152D02*
X95166667Y-90788152D01*
X94928572Y-90454819D02*
X94928572Y-91311961D01*
X94928572Y-91311961D02*
X94976191Y-91407200D01*
X94976191Y-91407200D02*
X95071429Y-91454819D01*
X95071429Y-91454819D02*
X95166667Y-91454819D01*
X154976190Y-91454819D02*
X154976190Y-90454819D01*
X154976190Y-90454819D02*
X155357142Y-90454819D01*
X155357142Y-90454819D02*
X155452380Y-90502438D01*
X155452380Y-90502438D02*
X155499999Y-90550057D01*
X155499999Y-90550057D02*
X155547618Y-90645295D01*
X155547618Y-90645295D02*
X155547618Y-90788152D01*
X155547618Y-90788152D02*
X155499999Y-90883390D01*
X155499999Y-90883390D02*
X155452380Y-90931009D01*
X155452380Y-90931009D02*
X155357142Y-90978628D01*
X155357142Y-90978628D02*
X154976190Y-90978628D01*
X156547618Y-91359580D02*
X156499999Y-91407200D01*
X156499999Y-91407200D02*
X156357142Y-91454819D01*
X156357142Y-91454819D02*
X156261904Y-91454819D01*
X156261904Y-91454819D02*
X156119047Y-91407200D01*
X156119047Y-91407200D02*
X156023809Y-91311961D01*
X156023809Y-91311961D02*
X155976190Y-91216723D01*
X155976190Y-91216723D02*
X155928571Y-91026247D01*
X155928571Y-91026247D02*
X155928571Y-90883390D01*
X155928571Y-90883390D02*
X155976190Y-90692914D01*
X155976190Y-90692914D02*
X156023809Y-90597676D01*
X156023809Y-90597676D02*
X156119047Y-90502438D01*
X156119047Y-90502438D02*
X156261904Y-90454819D01*
X156261904Y-90454819D02*
X156357142Y-90454819D01*
X156357142Y-90454819D02*
X156499999Y-90502438D01*
X156499999Y-90502438D02*
X156547618Y-90550057D01*
X156976190Y-91454819D02*
X156976190Y-90454819D01*
X157833332Y-91407200D02*
X157738094Y-91454819D01*
X157738094Y-91454819D02*
X157547618Y-91454819D01*
X157547618Y-91454819D02*
X157452380Y-91407200D01*
X157452380Y-91407200D02*
X157404761Y-91311961D01*
X157404761Y-91311961D02*
X157404761Y-90931009D01*
X157404761Y-90931009D02*
X157452380Y-90835771D01*
X157452380Y-90835771D02*
X157547618Y-90788152D01*
X157547618Y-90788152D02*
X157738094Y-90788152D01*
X157738094Y-90788152D02*
X157833332Y-90835771D01*
X157833332Y-90835771D02*
X157880951Y-90931009D01*
X157880951Y-90931009D02*
X157880951Y-91026247D01*
X157880951Y-91026247D02*
X157404761Y-91121485D01*
X158071428Y-91550057D02*
X158833332Y-91550057D01*
X158976190Y-91454819D02*
X159499999Y-90788152D01*
X158976190Y-90788152D02*
X159499999Y-91454819D01*
X160404761Y-91454819D02*
X159833333Y-91454819D01*
X160119047Y-91454819D02*
X160119047Y-90454819D01*
X160119047Y-90454819D02*
X160023809Y-90597676D01*
X160023809Y-90597676D02*
X159928571Y-90692914D01*
X159928571Y-90692914D02*
X159833333Y-90740533D01*
X161261904Y-90454819D02*
X161071428Y-90454819D01*
X161071428Y-90454819D02*
X160976190Y-90502438D01*
X160976190Y-90502438D02*
X160928571Y-90550057D01*
X160928571Y-90550057D02*
X160833333Y-90692914D01*
X160833333Y-90692914D02*
X160785714Y-90883390D01*
X160785714Y-90883390D02*
X160785714Y-91264342D01*
X160785714Y-91264342D02*
X160833333Y-91359580D01*
X160833333Y-91359580D02*
X160880952Y-91407200D01*
X160880952Y-91407200D02*
X160976190Y-91454819D01*
X160976190Y-91454819D02*
X161166666Y-91454819D01*
X161166666Y-91454819D02*
X161261904Y-91407200D01*
X161261904Y-91407200D02*
X161309523Y-91359580D01*
X161309523Y-91359580D02*
X161357142Y-91264342D01*
X161357142Y-91264342D02*
X161357142Y-91026247D01*
X161357142Y-91026247D02*
X161309523Y-90931009D01*
X161309523Y-90931009D02*
X161261904Y-90883390D01*
X161261904Y-90883390D02*
X161166666Y-90835771D01*
X161166666Y-90835771D02*
X160976190Y-90835771D01*
X160976190Y-90835771D02*
X160880952Y-90883390D01*
X160880952Y-90883390D02*
X160833333Y-90931009D01*
X160833333Y-90931009D02*
X160785714Y-91026247D01*
X161547619Y-91550057D02*
X162309523Y-91550057D01*
X162500000Y-91407200D02*
X162642857Y-91454819D01*
X162642857Y-91454819D02*
X162880952Y-91454819D01*
X162880952Y-91454819D02*
X162976190Y-91407200D01*
X162976190Y-91407200D02*
X163023809Y-91359580D01*
X163023809Y-91359580D02*
X163071428Y-91264342D01*
X163071428Y-91264342D02*
X163071428Y-91169104D01*
X163071428Y-91169104D02*
X163023809Y-91073866D01*
X163023809Y-91073866D02*
X162976190Y-91026247D01*
X162976190Y-91026247D02*
X162880952Y-90978628D01*
X162880952Y-90978628D02*
X162690476Y-90931009D01*
X162690476Y-90931009D02*
X162595238Y-90883390D01*
X162595238Y-90883390D02*
X162547619Y-90835771D01*
X162547619Y-90835771D02*
X162500000Y-90740533D01*
X162500000Y-90740533D02*
X162500000Y-90645295D01*
X162500000Y-90645295D02*
X162547619Y-90550057D01*
X162547619Y-90550057D02*
X162595238Y-90502438D01*
X162595238Y-90502438D02*
X162690476Y-90454819D01*
X162690476Y-90454819D02*
X162928571Y-90454819D01*
X162928571Y-90454819D02*
X163071428Y-90502438D01*
X163642857Y-91454819D02*
X163547619Y-91407200D01*
X163547619Y-91407200D02*
X163500000Y-91311961D01*
X163500000Y-91311961D02*
X163500000Y-90454819D01*
X164166667Y-91454819D02*
X164071429Y-91407200D01*
X164071429Y-91407200D02*
X164023810Y-91359580D01*
X164023810Y-91359580D02*
X163976191Y-91264342D01*
X163976191Y-91264342D02*
X163976191Y-90978628D01*
X163976191Y-90978628D02*
X164023810Y-90883390D01*
X164023810Y-90883390D02*
X164071429Y-90835771D01*
X164071429Y-90835771D02*
X164166667Y-90788152D01*
X164166667Y-90788152D02*
X164309524Y-90788152D01*
X164309524Y-90788152D02*
X164404762Y-90835771D01*
X164404762Y-90835771D02*
X164452381Y-90883390D01*
X164452381Y-90883390D02*
X164500000Y-90978628D01*
X164500000Y-90978628D02*
X164500000Y-91264342D01*
X164500000Y-91264342D02*
X164452381Y-91359580D01*
X164452381Y-91359580D02*
X164404762Y-91407200D01*
X164404762Y-91407200D02*
X164309524Y-91454819D01*
X164309524Y-91454819D02*
X164166667Y-91454819D01*
X164785715Y-90788152D02*
X165166667Y-90788152D01*
X164928572Y-90454819D02*
X164928572Y-91311961D01*
X164928572Y-91311961D02*
X164976191Y-91407200D01*
X164976191Y-91407200D02*
X165071429Y-91454819D01*
X165071429Y-91454819D02*
X165166667Y-91454819D01*
X224976190Y-91454819D02*
X224976190Y-90454819D01*
X224976190Y-90454819D02*
X225357142Y-90454819D01*
X225357142Y-90454819D02*
X225452380Y-90502438D01*
X225452380Y-90502438D02*
X225499999Y-90550057D01*
X225499999Y-90550057D02*
X225547618Y-90645295D01*
X225547618Y-90645295D02*
X225547618Y-90788152D01*
X225547618Y-90788152D02*
X225499999Y-90883390D01*
X225499999Y-90883390D02*
X225452380Y-90931009D01*
X225452380Y-90931009D02*
X225357142Y-90978628D01*
X225357142Y-90978628D02*
X224976190Y-90978628D01*
X226547618Y-91359580D02*
X226499999Y-91407200D01*
X226499999Y-91407200D02*
X226357142Y-91454819D01*
X226357142Y-91454819D02*
X226261904Y-91454819D01*
X226261904Y-91454819D02*
X226119047Y-91407200D01*
X226119047Y-91407200D02*
X226023809Y-91311961D01*
X226023809Y-91311961D02*
X225976190Y-91216723D01*
X225976190Y-91216723D02*
X225928571Y-91026247D01*
X225928571Y-91026247D02*
X225928571Y-90883390D01*
X225928571Y-90883390D02*
X225976190Y-90692914D01*
X225976190Y-90692914D02*
X226023809Y-90597676D01*
X226023809Y-90597676D02*
X226119047Y-90502438D01*
X226119047Y-90502438D02*
X226261904Y-90454819D01*
X226261904Y-90454819D02*
X226357142Y-90454819D01*
X226357142Y-90454819D02*
X226499999Y-90502438D01*
X226499999Y-90502438D02*
X226547618Y-90550057D01*
X226976190Y-91454819D02*
X226976190Y-90454819D01*
X227833332Y-91407200D02*
X227738094Y-91454819D01*
X227738094Y-91454819D02*
X227547618Y-91454819D01*
X227547618Y-91454819D02*
X227452380Y-91407200D01*
X227452380Y-91407200D02*
X227404761Y-91311961D01*
X227404761Y-91311961D02*
X227404761Y-90931009D01*
X227404761Y-90931009D02*
X227452380Y-90835771D01*
X227452380Y-90835771D02*
X227547618Y-90788152D01*
X227547618Y-90788152D02*
X227738094Y-90788152D01*
X227738094Y-90788152D02*
X227833332Y-90835771D01*
X227833332Y-90835771D02*
X227880951Y-90931009D01*
X227880951Y-90931009D02*
X227880951Y-91026247D01*
X227880951Y-91026247D02*
X227404761Y-91121485D01*
X228071428Y-91550057D02*
X228833332Y-91550057D01*
X228976190Y-91454819D02*
X229499999Y-90788152D01*
X228976190Y-90788152D02*
X229499999Y-91454819D01*
X230404761Y-91454819D02*
X229833333Y-91454819D01*
X230119047Y-91454819D02*
X230119047Y-90454819D01*
X230119047Y-90454819D02*
X230023809Y-90597676D01*
X230023809Y-90597676D02*
X229928571Y-90692914D01*
X229928571Y-90692914D02*
X229833333Y-90740533D01*
X231261904Y-90454819D02*
X231071428Y-90454819D01*
X231071428Y-90454819D02*
X230976190Y-90502438D01*
X230976190Y-90502438D02*
X230928571Y-90550057D01*
X230928571Y-90550057D02*
X230833333Y-90692914D01*
X230833333Y-90692914D02*
X230785714Y-90883390D01*
X230785714Y-90883390D02*
X230785714Y-91264342D01*
X230785714Y-91264342D02*
X230833333Y-91359580D01*
X230833333Y-91359580D02*
X230880952Y-91407200D01*
X230880952Y-91407200D02*
X230976190Y-91454819D01*
X230976190Y-91454819D02*
X231166666Y-91454819D01*
X231166666Y-91454819D02*
X231261904Y-91407200D01*
X231261904Y-91407200D02*
X231309523Y-91359580D01*
X231309523Y-91359580D02*
X231357142Y-91264342D01*
X231357142Y-91264342D02*
X231357142Y-91026247D01*
X231357142Y-91026247D02*
X231309523Y-90931009D01*
X231309523Y-90931009D02*
X231261904Y-90883390D01*
X231261904Y-90883390D02*
X231166666Y-90835771D01*
X231166666Y-90835771D02*
X230976190Y-90835771D01*
X230976190Y-90835771D02*
X230880952Y-90883390D01*
X230880952Y-90883390D02*
X230833333Y-90931009D01*
X230833333Y-90931009D02*
X230785714Y-91026247D01*
X231547619Y-91550057D02*
X232309523Y-91550057D01*
X232500000Y-91407200D02*
X232642857Y-91454819D01*
X232642857Y-91454819D02*
X232880952Y-91454819D01*
X232880952Y-91454819D02*
X232976190Y-91407200D01*
X232976190Y-91407200D02*
X233023809Y-91359580D01*
X233023809Y-91359580D02*
X233071428Y-91264342D01*
X233071428Y-91264342D02*
X233071428Y-91169104D01*
X233071428Y-91169104D02*
X233023809Y-91073866D01*
X233023809Y-91073866D02*
X232976190Y-91026247D01*
X232976190Y-91026247D02*
X232880952Y-90978628D01*
X232880952Y-90978628D02*
X232690476Y-90931009D01*
X232690476Y-90931009D02*
X232595238Y-90883390D01*
X232595238Y-90883390D02*
X232547619Y-90835771D01*
X232547619Y-90835771D02*
X232500000Y-90740533D01*
X232500000Y-90740533D02*
X232500000Y-90645295D01*
X232500000Y-90645295D02*
X232547619Y-90550057D01*
X232547619Y-90550057D02*
X232595238Y-90502438D01*
X232595238Y-90502438D02*
X232690476Y-90454819D01*
X232690476Y-90454819D02*
X232928571Y-90454819D01*
X232928571Y-90454819D02*
X233071428Y-90502438D01*
X233642857Y-91454819D02*
X233547619Y-91407200D01*
X233547619Y-91407200D02*
X233500000Y-91311961D01*
X233500000Y-91311961D02*
X233500000Y-90454819D01*
X234166667Y-91454819D02*
X234071429Y-91407200D01*
X234071429Y-91407200D02*
X234023810Y-91359580D01*
X234023810Y-91359580D02*
X233976191Y-91264342D01*
X233976191Y-91264342D02*
X233976191Y-90978628D01*
X233976191Y-90978628D02*
X234023810Y-90883390D01*
X234023810Y-90883390D02*
X234071429Y-90835771D01*
X234071429Y-90835771D02*
X234166667Y-90788152D01*
X234166667Y-90788152D02*
X234309524Y-90788152D01*
X234309524Y-90788152D02*
X234404762Y-90835771D01*
X234404762Y-90835771D02*
X234452381Y-90883390D01*
X234452381Y-90883390D02*
X234500000Y-90978628D01*
X234500000Y-90978628D02*
X234500000Y-91264342D01*
X234500000Y-91264342D02*
X234452381Y-91359580D01*
X234452381Y-91359580D02*
X234404762Y-91407200D01*
X234404762Y-91407200D02*
X234309524Y-91454819D01*
X234309524Y-91454819D02*
X234166667Y-91454819D01*
X234785715Y-90788152D02*
X235166667Y-90788152D01*
X234928572Y-90454819D02*
X234928572Y-91311961D01*
X234928572Y-91311961D02*
X234976191Y-91407200D01*
X234976191Y-91407200D02*
X235071429Y-91454819D01*
X235071429Y-91454819D02*
X235166667Y-91454819D01*
X294976190Y-91454819D02*
X294976190Y-90454819D01*
X294976190Y-90454819D02*
X295357142Y-90454819D01*
X295357142Y-90454819D02*
X295452380Y-90502438D01*
X295452380Y-90502438D02*
X295499999Y-90550057D01*
X295499999Y-90550057D02*
X295547618Y-90645295D01*
X295547618Y-90645295D02*
X295547618Y-90788152D01*
X295547618Y-90788152D02*
X295499999Y-90883390D01*
X295499999Y-90883390D02*
X295452380Y-90931009D01*
X295452380Y-90931009D02*
X295357142Y-90978628D01*
X295357142Y-90978628D02*
X294976190Y-90978628D01*
X296547618Y-91359580D02*
X296499999Y-91407200D01*
X296499999Y-91407200D02*
X296357142Y-91454819D01*
X296357142Y-91454819D02*
X296261904Y-91454819D01*
X296261904Y-91454819D02*
X296119047Y-91407200D01*
X296119047Y-91407200D02*
X296023809Y-91311961D01*
X296023809Y-91311961D02*
X295976190Y-91216723D01*
X295976190Y-91216723D02*
X295928571Y-91026247D01*
X295928571Y-91026247D02*
X295928571Y-90883390D01*
X295928571Y-90883390D02*
X295976190Y-90692914D01*
X295976190Y-90692914D02*
X296023809Y-90597676D01*
X296023809Y-90597676D02*
X296119047Y-90502438D01*
X296119047Y-90502438D02*
X296261904Y-90454819D01*
X296261904Y-90454819D02*
X296357142Y-90454819D01*
X296357142Y-90454819D02*
X296499999Y-90502438D01*
X296499999Y-90502438D02*
X296547618Y-90550057D01*
X296976190Y-91454819D02*
X296976190Y-90454819D01*
X297833332Y-91407200D02*
X297738094Y-91454819D01*
X297738094Y-91454819D02*
X297547618Y-91454819D01*
X297547618Y-91454819D02*
X297452380Y-91407200D01*
X297452380Y-91407200D02*
X297404761Y-91311961D01*
X297404761Y-91311961D02*
X297404761Y-90931009D01*
X297404761Y-90931009D02*
X297452380Y-90835771D01*
X297452380Y-90835771D02*
X297547618Y-90788152D01*
X297547618Y-90788152D02*
X297738094Y-90788152D01*
X297738094Y-90788152D02*
X297833332Y-90835771D01*
X297833332Y-90835771D02*
X297880951Y-90931009D01*
X297880951Y-90931009D02*
X297880951Y-91026247D01*
X297880951Y-91026247D02*
X297404761Y-91121485D01*
X298071428Y-91550057D02*
X298833332Y-91550057D01*
X298976190Y-91454819D02*
X299499999Y-90788152D01*
X298976190Y-90788152D02*
X299499999Y-91454819D01*
X300404761Y-91454819D02*
X299833333Y-91454819D01*
X300119047Y-91454819D02*
X300119047Y-90454819D01*
X300119047Y-90454819D02*
X300023809Y-90597676D01*
X300023809Y-90597676D02*
X299928571Y-90692914D01*
X299928571Y-90692914D02*
X299833333Y-90740533D01*
X301261904Y-90454819D02*
X301071428Y-90454819D01*
X301071428Y-90454819D02*
X300976190Y-90502438D01*
X300976190Y-90502438D02*
X300928571Y-90550057D01*
X300928571Y-90550057D02*
X300833333Y-90692914D01*
X300833333Y-90692914D02*
X300785714Y-90883390D01*
X300785714Y-90883390D02*
X300785714Y-91264342D01*
X300785714Y-91264342D02*
X300833333Y-91359580D01*
X300833333Y-91359580D02*
X300880952Y-91407200D01*
X300880952Y-91407200D02*
X300976190Y-91454819D01*
X300976190Y-91454819D02*
X301166666Y-91454819D01*
X301166666Y-91454819D02*
X301261904Y-91407200D01*
X301261904Y-91407200D02*
X301309523Y-91359580D01*
X301309523Y-91359580D02*
X301357142Y-91264342D01*
X301357142Y-91264342D02*
X301357142Y-91026247D01*
X301357142Y-91026247D02*
X301309523Y-90931009D01*
X301309523Y-90931009D02*
X301261904Y-90883390D01*
X301261904Y-90883390D02*
X301166666Y-90835771D01*
X301166666Y-90835771D02*
X300976190Y-90835771D01*
X300976190Y-90835771D02*
X300880952Y-90883390D01*
X300880952Y-90883390D02*
X300833333Y-90931009D01*
X300833333Y-90931009D02*
X300785714Y-91026247D01*
X301547619Y-91550057D02*
X302309523Y-91550057D01*
X302500000Y-91407200D02*
X302642857Y-91454819D01*
X302642857Y-91454819D02*
X302880952Y-91454819D01*
X302880952Y-91454819D02*
X302976190Y-91407200D01*
X302976190Y-91407200D02*
X303023809Y-91359580D01*
X303023809Y-91359580D02*
X303071428Y-91264342D01*
X303071428Y-91264342D02*
X303071428Y-91169104D01*
X303071428Y-91169104D02*
X303023809Y-91073866D01*
X303023809Y-91073866D02*
X302976190Y-91026247D01*
X302976190Y-91026247D02*
X302880952Y-90978628D01*
X302880952Y-90978628D02*
X302690476Y-90931009D01*
X302690476Y-90931009D02*
X302595238Y-90883390D01*
X302595238Y-90883390D02*
X302547619Y-90835771D01*
X302547619Y-90835771D02*
X302500000Y-90740533D01*
X302500000Y-90740533D02*
X302500000Y-90645295D01*
X302500000Y-90645295D02*
X302547619Y-90550057D01*
X302547619Y-90550057D02*
X302595238Y-90502438D01*
X302595238Y-90502438D02*
X302690476Y-90454819D01*
X302690476Y-90454819D02*
X302928571Y-90454819D01*
X302928571Y-90454819D02*
X303071428Y-90502438D01*
X303642857Y-91454819D02*
X303547619Y-91407200D01*
X303547619Y-91407200D02*
X303500000Y-91311961D01*
X303500000Y-91311961D02*
X303500000Y-90454819D01*
X304166667Y-91454819D02*
X304071429Y-91407200D01*
X304071429Y-91407200D02*
X304023810Y-91359580D01*
X304023810Y-91359580D02*
X303976191Y-91264342D01*
X303976191Y-91264342D02*
X303976191Y-90978628D01*
X303976191Y-90978628D02*
X304023810Y-90883390D01*
X304023810Y-90883390D02*
X304071429Y-90835771D01*
X304071429Y-90835771D02*
X304166667Y-90788152D01*
X304166667Y-90788152D02*
X304309524Y-90788152D01*
X304309524Y-90788152D02*
X304404762Y-90835771D01*
X304404762Y-90835771D02*
X304452381Y-90883390D01*
X304452381Y-90883390D02*
X304500000Y-90978628D01*
X304500000Y-90978628D02*
X304500000Y-91264342D01*
X304500000Y-91264342D02*
X304452381Y-91359580D01*
X304452381Y-91359580D02*
X304404762Y-91407200D01*
X304404762Y-91407200D02*
X304309524Y-91454819D01*
X304309524Y-91454819D02*
X304166667Y-91454819D01*
X304785715Y-90788152D02*
X305166667Y-90788152D01*
X304928572Y-90454819D02*
X304928572Y-91311961D01*
X304928572Y-91311961D02*
X304976191Y-91407200D01*
X304976191Y-91407200D02*
X305071429Y-91454819D01*
X305071429Y-91454819D02*
X305166667Y-91454819D01*
X84976190Y-289454819D02*
X84976190Y-288454819D01*
X84976190Y-288454819D02*
X85357142Y-288454819D01*
X85357142Y-288454819D02*
X85452380Y-288502438D01*
X85452380Y-288502438D02*
X85499999Y-288550057D01*
X85499999Y-288550057D02*
X85547618Y-288645295D01*
X85547618Y-288645295D02*
X85547618Y-288788152D01*
X85547618Y-288788152D02*
X85499999Y-288883390D01*
X85499999Y-288883390D02*
X85452380Y-288931009D01*
X85452380Y-288931009D02*
X85357142Y-288978628D01*
X85357142Y-288978628D02*
X84976190Y-288978628D01*
X86547618Y-289359580D02*
X86499999Y-289407200D01*
X86499999Y-289407200D02*
X86357142Y-289454819D01*
X86357142Y-289454819D02*
X86261904Y-289454819D01*
X86261904Y-289454819D02*
X86119047Y-289407200D01*
X86119047Y-289407200D02*
X86023809Y-289311961D01*
X86023809Y-289311961D02*
X85976190Y-289216723D01*
X85976190Y-289216723D02*
X85928571Y-289026247D01*
X85928571Y-289026247D02*
X85928571Y-288883390D01*
X85928571Y-288883390D02*
X85976190Y-288692914D01*
X85976190Y-288692914D02*
X86023809Y-288597676D01*
X86023809Y-288597676D02*
X86119047Y-288502438D01*
X86119047Y-288502438D02*
X86261904Y-288454819D01*
X86261904Y-288454819D02*
X86357142Y-288454819D01*
X86357142Y-288454819D02*
X86499999Y-288502438D01*
X86499999Y-288502438D02*
X86547618Y-288550057D01*
X86976190Y-289454819D02*
X86976190Y-288454819D01*
X87833332Y-289407200D02*
X87738094Y-289454819D01*
X87738094Y-289454819D02*
X87547618Y-289454819D01*
X87547618Y-289454819D02*
X87452380Y-289407200D01*
X87452380Y-289407200D02*
X87404761Y-289311961D01*
X87404761Y-289311961D02*
X87404761Y-288931009D01*
X87404761Y-288931009D02*
X87452380Y-288835771D01*
X87452380Y-288835771D02*
X87547618Y-288788152D01*
X87547618Y-288788152D02*
X87738094Y-288788152D01*
X87738094Y-288788152D02*
X87833332Y-288835771D01*
X87833332Y-288835771D02*
X87880951Y-288931009D01*
X87880951Y-288931009D02*
X87880951Y-289026247D01*
X87880951Y-289026247D02*
X87404761Y-289121485D01*
X88071428Y-289550057D02*
X88833332Y-289550057D01*
X88976190Y-289454819D02*
X89499999Y-288788152D01*
X88976190Y-288788152D02*
X89499999Y-289454819D01*
X90404761Y-289454819D02*
X89833333Y-289454819D01*
X90119047Y-289454819D02*
X90119047Y-288454819D01*
X90119047Y-288454819D02*
X90023809Y-288597676D01*
X90023809Y-288597676D02*
X89928571Y-288692914D01*
X89928571Y-288692914D02*
X89833333Y-288740533D01*
X91261904Y-288454819D02*
X91071428Y-288454819D01*
X91071428Y-288454819D02*
X90976190Y-288502438D01*
X90976190Y-288502438D02*
X90928571Y-288550057D01*
X90928571Y-288550057D02*
X90833333Y-288692914D01*
X90833333Y-288692914D02*
X90785714Y-288883390D01*
X90785714Y-288883390D02*
X90785714Y-289264342D01*
X90785714Y-289264342D02*
X90833333Y-289359580D01*
X90833333Y-289359580D02*
X90880952Y-289407200D01*
X90880952Y-289407200D02*
X90976190Y-289454819D01*
X90976190Y-289454819D02*
X91166666Y-289454819D01*
X91166666Y-289454819D02*
X91261904Y-289407200D01*
X91261904Y-289407200D02*
X91309523Y-289359580D01*
X91309523Y-289359580D02*
X91357142Y-289264342D01*
X91357142Y-289264342D02*
X91357142Y-289026247D01*
X91357142Y-289026247D02*
X91309523Y-288931009D01*
X91309523Y-288931009D02*
X91261904Y-288883390D01*
X91261904Y-288883390D02*
X91166666Y-288835771D01*
X91166666Y-288835771D02*
X90976190Y-288835771D01*
X90976190Y-288835771D02*
X90880952Y-288883390D01*
X90880952Y-288883390D02*
X90833333Y-288931009D01*
X90833333Y-288931009D02*
X90785714Y-289026247D01*
X91547619Y-289550057D02*
X92309523Y-289550057D01*
X92500000Y-289407200D02*
X92642857Y-289454819D01*
X92642857Y-289454819D02*
X92880952Y-289454819D01*
X92880952Y-289454819D02*
X92976190Y-289407200D01*
X92976190Y-289407200D02*
X93023809Y-289359580D01*
X93023809Y-289359580D02*
X93071428Y-289264342D01*
X93071428Y-289264342D02*
X93071428Y-289169104D01*
X93071428Y-289169104D02*
X93023809Y-289073866D01*
X93023809Y-289073866D02*
X92976190Y-289026247D01*
X92976190Y-289026247D02*
X92880952Y-288978628D01*
X92880952Y-288978628D02*
X92690476Y-288931009D01*
X92690476Y-288931009D02*
X92595238Y-288883390D01*
X92595238Y-288883390D02*
X92547619Y-288835771D01*
X92547619Y-288835771D02*
X92500000Y-288740533D01*
X92500000Y-288740533D02*
X92500000Y-288645295D01*
X92500000Y-288645295D02*
X92547619Y-288550057D01*
X92547619Y-288550057D02*
X92595238Y-288502438D01*
X92595238Y-288502438D02*
X92690476Y-288454819D01*
X92690476Y-288454819D02*
X92928571Y-288454819D01*
X92928571Y-288454819D02*
X93071428Y-288502438D01*
X93642857Y-289454819D02*
X93547619Y-289407200D01*
X93547619Y-289407200D02*
X93500000Y-289311961D01*
X93500000Y-289311961D02*
X93500000Y-288454819D01*
X94166667Y-289454819D02*
X94071429Y-289407200D01*
X94071429Y-289407200D02*
X94023810Y-289359580D01*
X94023810Y-289359580D02*
X93976191Y-289264342D01*
X93976191Y-289264342D02*
X93976191Y-288978628D01*
X93976191Y-288978628D02*
X94023810Y-288883390D01*
X94023810Y-288883390D02*
X94071429Y-288835771D01*
X94071429Y-288835771D02*
X94166667Y-288788152D01*
X94166667Y-288788152D02*
X94309524Y-288788152D01*
X94309524Y-288788152D02*
X94404762Y-288835771D01*
X94404762Y-288835771D02*
X94452381Y-288883390D01*
X94452381Y-288883390D02*
X94500000Y-288978628D01*
X94500000Y-288978628D02*
X94500000Y-289264342D01*
X94500000Y-289264342D02*
X94452381Y-289359580D01*
X94452381Y-289359580D02*
X94404762Y-289407200D01*
X94404762Y-289407200D02*
X94309524Y-289454819D01*
X94309524Y-289454819D02*
X94166667Y-289454819D01*
X94785715Y-288788152D02*
X95166667Y-288788152D01*
X94928572Y-288454819D02*
X94928572Y-289311961D01*
X94928572Y-289311961D02*
X94976191Y-289407200D01*
X94976191Y-289407200D02*
X95071429Y-289454819D01*
X95071429Y-289454819D02*
X95166667Y-289454819D01*
X154976190Y-289454819D02*
X154976190Y-288454819D01*
X154976190Y-288454819D02*
X155357142Y-288454819D01*
X155357142Y-288454819D02*
X155452380Y-288502438D01*
X155452380Y-288502438D02*
X155499999Y-288550057D01*
X155499999Y-288550057D02*
X155547618Y-288645295D01*
X155547618Y-288645295D02*
X155547618Y-288788152D01*
X155547618Y-288788152D02*
X155499999Y-288883390D01*
X155499999Y-288883390D02*
X155452380Y-288931009D01*
X155452380Y-288931009D02*
X155357142Y-288978628D01*
X155357142Y-288978628D02*
X154976190Y-288978628D01*
X156547618Y-289359580D02*
X156499999Y-289407200D01*
X156499999Y-289407200D02*
X156357142Y-289454819D01*
X156357142Y-289454819D02*
X156261904Y-289454819D01*
X156261904Y-289454819D02*
X156119047Y-289407200D01*
X156119047Y-289407200D02*
X156023809Y-289311961D01*
X156023809Y-289311961D02*
X155976190Y-289216723D01*
X155976190Y-289216723D02*
X155928571Y-289026247D01*
X155928571Y-289026247D02*
X155928571Y-288883390D01*
X155928571Y-288883390D02*
X155976190Y-288692914D01*
X155976190Y-288692914D02*
X156023809Y-288597676D01*
X156023809Y-288597676D02*
X156119047Y-288502438D01*
X156119047Y-288502438D02*
X156261904Y-288454819D01*
X156261904Y-288454819D02*
X156357142Y-288454819D01*
X156357142Y-288454819D02*
X156499999Y-288502438D01*
X156499999Y-288502438D02*
X156547618Y-288550057D01*
X156976190Y-289454819D02*
X156976190Y-288454819D01*
X157833332Y-289407200D02*
X157738094Y-289454819D01*
X157738094Y-289454819D02*
X157547618Y-289454819D01*
X157547618Y-289454819D02*
X157452380Y-289407200D01*
X157452380Y-289407200D02*
X157404761Y-289311961D01*
X157404761Y-289311961D02*
X157404761Y-288931009D01*
X157404761Y-288931009D02*
X157452380Y-288835771D01*
X157452380Y-288835771D02*
X157547618Y-288788152D01*
X157547618Y-288788152D02*
X157738094Y-288788152D01*
X157738094Y-288788152D02*
X157833332Y-288835771D01*
X157833332Y-288835771D02*
X157880951Y-288931009D01*
X157880951Y-288931009D02*
X157880951Y-289026247D01*
X157880951Y-289026247D02*
X157404761Y-289121485D01*
X158071428Y-289550057D02*
X158833332Y-289550057D01*
X158976190Y-289454819D02*
X159499999Y-288788152D01*
X158976190Y-288788152D02*
X159499999Y-289454819D01*
X160404761Y-289454819D02*
X159833333Y-289454819D01*
X160119047Y-289454819D02*
X160119047Y-288454819D01*
X160119047Y-288454819D02*
X160023809Y-288597676D01*
X160023809Y-288597676D02*
X159928571Y-288692914D01*
X159928571Y-288692914D02*
X159833333Y-288740533D01*
X161261904Y-288454819D02*
X161071428Y-288454819D01*
X161071428Y-288454819D02*
X160976190Y-288502438D01*
X160976190Y-288502438D02*
X160928571Y-288550057D01*
X160928571Y-288550057D02*
X160833333Y-288692914D01*
X160833333Y-288692914D02*
X160785714Y-288883390D01*
X160785714Y-288883390D02*
X160785714Y-289264342D01*
X160785714Y-289264342D02*
X160833333Y-289359580D01*
X160833333Y-289359580D02*
X160880952Y-289407200D01*
X160880952Y-289407200D02*
X160976190Y-289454819D01*
X160976190Y-289454819D02*
X161166666Y-289454819D01*
X161166666Y-289454819D02*
X161261904Y-289407200D01*
X161261904Y-289407200D02*
X161309523Y-289359580D01*
X161309523Y-289359580D02*
X161357142Y-289264342D01*
X161357142Y-289264342D02*
X161357142Y-289026247D01*
X161357142Y-289026247D02*
X161309523Y-288931009D01*
X161309523Y-288931009D02*
X161261904Y-288883390D01*
X161261904Y-288883390D02*
X161166666Y-288835771D01*
X161166666Y-288835771D02*
X160976190Y-288835771D01*
X160976190Y-288835771D02*
X160880952Y-288883390D01*
X160880952Y-288883390D02*
X160833333Y-288931009D01*
X160833333Y-288931009D02*
X160785714Y-289026247D01*
X161547619Y-289550057D02*
X162309523Y-289550057D01*
X162500000Y-289407200D02*
X162642857Y-289454819D01*
X162642857Y-289454819D02*
X162880952Y-289454819D01*
X162880952Y-289454819D02*
X162976190Y-289407200D01*
X162976190Y-289407200D02*
X163023809Y-289359580D01*
X163023809Y-289359580D02*
X163071428Y-289264342D01*
X163071428Y-289264342D02*
X163071428Y-289169104D01*
X163071428Y-289169104D02*
X163023809Y-289073866D01*
X163023809Y-289073866D02*
X162976190Y-289026247D01*
X162976190Y-289026247D02*
X162880952Y-288978628D01*
X162880952Y-288978628D02*
X162690476Y-288931009D01*
X162690476Y-288931009D02*
X162595238Y-288883390D01*
X162595238Y-288883390D02*
X162547619Y-288835771D01*
X162547619Y-288835771D02*
X162500000Y-288740533D01*
X162500000Y-288740533D02*
X162500000Y-288645295D01*
X162500000Y-288645295D02*
X162547619Y-288550057D01*
X162547619Y-288550057D02*
X162595238Y-288502438D01*
X162595238Y-288502438D02*
X162690476Y-288454819D01*
X162690476Y-288454819D02*
X162928571Y-288454819D01*
X162928571Y-288454819D02*
X163071428Y-288502438D01*
X163642857Y-289454819D02*
X163547619Y-289407200D01*
X163547619Y-289407200D02*
X163500000Y-289311961D01*
X163500000Y-289311961D02*
X163500000Y-288454819D01*
X164166667Y-289454819D02*
X164071429Y-289407200D01*
X164071429Y-289407200D02*
X164023810Y-289359580D01*
X164023810Y-289359580D02*
X163976191Y-289264342D01*
X163976191Y-289264342D02*
X163976191Y-288978628D01*
X163976191Y-288978628D02*
X164023810Y-288883390D01*
X164023810Y-288883390D02*
X164071429Y-288835771D01*
X164071429Y-288835771D02*
X164166667Y-288788152D01*
X164166667Y-288788152D02*
X164309524Y-288788152D01*
X164309524Y-288788152D02*
X164404762Y-288835771D01*
X164404762Y-288835771D02*
X164452381Y-288883390D01*
X164452381Y-288883390D02*
X164500000Y-288978628D01*
X164500000Y-288978628D02*
X164500000Y-289264342D01*
X164500000Y-289264342D02*
X164452381Y-289359580D01*
X164452381Y-289359580D02*
X164404762Y-289407200D01*
X164404762Y-289407200D02*
X164309524Y-289454819D01*
X164309524Y-289454819D02*
X164166667Y-289454819D01*
X164785715Y-288788152D02*
X165166667Y-288788152D01*
X164928572Y-288454819D02*
X164928572Y-289311961D01*
X164928572Y-289311961D02*
X164976191Y-289407200D01*
X164976191Y-289407200D02*
X165071429Y-289454819D01*
X165071429Y-289454819D02*
X165166667Y-289454819D01*
X224976190Y-289454819D02*
X224976190Y-288454819D01*
X224976190Y-288454819D02*
X225357142Y-288454819D01*
X225357142Y-288454819D02*
X225452380Y-288502438D01*
X225452380Y-288502438D02*
X225499999Y-288550057D01*
X225499999Y-288550057D02*
X225547618Y-288645295D01*
X225547618Y-288645295D02*
X225547618Y-288788152D01*
X225547618Y-288788152D02*
X225499999Y-288883390D01*
X225499999Y-288883390D02*
X225452380Y-288931009D01*
X225452380Y-288931009D02*
X225357142Y-288978628D01*
X225357142Y-288978628D02*
X224976190Y-288978628D01*
X226547618Y-289359580D02*
X226499999Y-289407200D01*
X226499999Y-289407200D02*
X226357142Y-289454819D01*
X226357142Y-289454819D02*
X226261904Y-289454819D01*
X226261904Y-289454819D02*
X226119047Y-289407200D01*
X226119047Y-289407200D02*
X226023809Y-289311961D01*
X226023809Y-289311961D02*
X225976190Y-289216723D01*
X225976190Y-289216723D02*
X225928571Y-289026247D01*
X225928571Y-289026247D02*
X225928571Y-288883390D01*
X225928571Y-288883390D02*
X225976190Y-288692914D01*
X225976190Y-288692914D02*
X226023809Y-288597676D01*
X226023809Y-288597676D02*
X226119047Y-288502438D01*
X226119047Y-288502438D02*
X226261904Y-288454819D01*
X226261904Y-288454819D02*
X226357142Y-288454819D01*
X226357142Y-288454819D02*
X226499999Y-288502438D01*
X226499999Y-288502438D02*
X226547618Y-288550057D01*
X226976190Y-289454819D02*
X226976190Y-288454819D01*
X227833332Y-289407200D02*
X227738094Y-289454819D01*
X227738094Y-289454819D02*
X227547618Y-289454819D01*
X227547618Y-289454819D02*
X227452380Y-289407200D01*
X227452380Y-289407200D02*
X227404761Y-289311961D01*
X227404761Y-289311961D02*
X227404761Y-288931009D01*
X227404761Y-288931009D02*
X227452380Y-288835771D01*
X227452380Y-288835771D02*
X227547618Y-288788152D01*
X227547618Y-288788152D02*
X227738094Y-288788152D01*
X227738094Y-288788152D02*
X227833332Y-288835771D01*
X227833332Y-288835771D02*
X227880951Y-288931009D01*
X227880951Y-288931009D02*
X227880951Y-289026247D01*
X227880951Y-289026247D02*
X227404761Y-289121485D01*
X228071428Y-289550057D02*
X228833332Y-289550057D01*
X228976190Y-289454819D02*
X229499999Y-288788152D01*
X228976190Y-288788152D02*
X229499999Y-289454819D01*
X230404761Y-289454819D02*
X229833333Y-289454819D01*
X230119047Y-289454819D02*
X230119047Y-288454819D01*
X230119047Y-288454819D02*
X230023809Y-288597676D01*
X230023809Y-288597676D02*
X229928571Y-288692914D01*
X229928571Y-288692914D02*
X229833333Y-288740533D01*
X231261904Y-288454819D02*
X231071428Y-288454819D01*
X231071428Y-288454819D02*
X230976190Y-288502438D01*
X230976190Y-288502438D02*
X230928571Y-288550057D01*
X230928571Y-288550057D02*
X230833333Y-288692914D01*
X230833333Y-288692914D02*
X230785714Y-288883390D01*
X230785714Y-288883390D02*
X230785714Y-289264342D01*
X230785714Y-289264342D02*
X230833333Y-289359580D01*
X230833333Y-289359580D02*
X230880952Y-289407200D01*
X230880952Y-289407200D02*
X230976190Y-289454819D01*
X230976190Y-289454819D02*
X231166666Y-289454819D01*
X231166666Y-289454819D02*
X231261904Y-289407200D01*
X231261904Y-289407200D02*
X231309523Y-289359580D01*
X231309523Y-289359580D02*
X231357142Y-289264342D01*
X231357142Y-289264342D02*
X231357142Y-289026247D01*
X231357142Y-289026247D02*
X231309523Y-288931009D01*
X231309523Y-288931009D02*
X231261904Y-288883390D01*
X231261904Y-288883390D02*
X231166666Y-288835771D01*
X231166666Y-288835771D02*
X230976190Y-288835771D01*
X230976190Y-288835771D02*
X230880952Y-288883390D01*
X230880952Y-288883390D02*
X230833333Y-288931009D01*
X230833333Y-288931009D02*
X230785714Y-289026247D01*
X231547619Y-289550057D02*
X232309523Y-289550057D01*
X232500000Y-289407200D02*
X232642857Y-289454819D01*
X232642857Y-289454819D02*
X232880952Y-289454819D01*
X232880952Y-289454819D02*
X232976190Y-289407200D01*
X232976190Y-289407200D02*
X233023809Y-289359580D01*
X233023809Y-289359580D02*
X233071428Y-289264342D01*
X233071428Y-289264342D02*
X233071428Y-289169104D01*
X233071428Y-289169104D02*
X233023809Y-289073866D01*
X233023809Y-289073866D02*
X232976190Y-289026247D01*
X232976190Y-289026247D02*
X232880952Y-288978628D01*
X232880952Y-288978628D02*
X232690476Y-288931009D01*
X232690476Y-288931009D02*
X232595238Y-288883390D01*
X232595238Y-288883390D02*
X232547619Y-288835771D01*
X232547619Y-288835771D02*
X232500000Y-288740533D01*
X232500000Y-288740533D02*
X232500000Y-288645295D01*
X232500000Y-288645295D02*
X232547619Y-288550057D01*
X232547619Y-288550057D02*
X232595238Y-288502438D01*
X232595238Y-288502438D02*
X232690476Y-288454819D01*
X232690476Y-288454819D02*
X232928571Y-288454819D01*
X232928571Y-288454819D02*
X233071428Y-288502438D01*
X233642857Y-289454819D02*
X233547619Y-289407200D01*
X233547619Y-289407200D02*
X233500000Y-289311961D01*
X233500000Y-289311961D02*
X233500000Y-288454819D01*
X234166667Y-289454819D02*
X234071429Y-289407200D01*
X234071429Y-289407200D02*
X234023810Y-289359580D01*
X234023810Y-289359580D02*
X233976191Y-289264342D01*
X233976191Y-289264342D02*
X233976191Y-288978628D01*
X233976191Y-288978628D02*
X234023810Y-288883390D01*
X234023810Y-288883390D02*
X234071429Y-288835771D01*
X234071429Y-288835771D02*
X234166667Y-288788152D01*
X234166667Y-288788152D02*
X234309524Y-288788152D01*
X234309524Y-288788152D02*
X234404762Y-288835771D01*
X234404762Y-288835771D02*
X234452381Y-288883390D01*
X234452381Y-288883390D02*
X234500000Y-288978628D01*
X234500000Y-288978628D02*
X234500000Y-289264342D01*
X234500000Y-289264342D02*
X234452381Y-289359580D01*
X234452381Y-289359580D02*
X234404762Y-289407200D01*
X234404762Y-289407200D02*
X234309524Y-289454819D01*
X234309524Y-289454819D02*
X234166667Y-289454819D01*
X234785715Y-288788152D02*
X235166667Y-288788152D01*
X234928572Y-288454819D02*
X234928572Y-289311961D01*
X234928572Y-289311961D02*
X234976191Y-289407200D01*
X234976191Y-289407200D02*
X235071429Y-289454819D01*
X235071429Y-289454819D02*
X235166667Y-289454819D01*
X294976190Y-289454819D02*
X294976190Y-288454819D01*
X294976190Y-288454819D02*
X295357142Y-288454819D01*
X295357142Y-288454819D02*
X295452380Y-288502438D01*
X295452380Y-288502438D02*
X295499999Y-288550057D01*
X295499999Y-288550057D02*
X295547618Y-288645295D01*
X295547618Y-288645295D02*
X295547618Y-288788152D01*
X295547618Y-288788152D02*
X295499999Y-288883390D01*
X295499999Y-288883390D02*
X295452380Y-288931009D01*
X295452380Y-288931009D02*
X295357142Y-288978628D01*
X295357142Y-288978628D02*
X294976190Y-288978628D01*
X296547618Y-289359580D02*
X296499999Y-289407200D01*
X296499999Y-289407200D02*
X296357142Y-289454819D01*
X296357142Y-289454819D02*
X296261904Y-289454819D01*
X296261904Y-289454819D02*
X296119047Y-289407200D01*
X296119047Y-289407200D02*
X296023809Y-289311961D01*
X296023809Y-289311961D02*
X295976190Y-289216723D01*
X295976190Y-289216723D02*
X295928571Y-289026247D01*
X295928571Y-289026247D02*
X295928571Y-288883390D01*
X295928571Y-288883390D02*
X295976190Y-288692914D01*
X295976190Y-288692914D02*
X296023809Y-288597676D01*
X296023809Y-288597676D02*
X296119047Y-288502438D01*
X296119047Y-288502438D02*
X296261904Y-288454819D01*
X296261904Y-288454819D02*
X296357142Y-288454819D01*
X296357142Y-288454819D02*
X296499999Y-288502438D01*
X296499999Y-288502438D02*
X296547618Y-288550057D01*
X296976190Y-289454819D02*
X296976190Y-288454819D01*
X297833332Y-289407200D02*
X297738094Y-289454819D01*
X297738094Y-289454819D02*
X297547618Y-289454819D01*
X297547618Y-289454819D02*
X297452380Y-289407200D01*
X297452380Y-289407200D02*
X297404761Y-289311961D01*
X297404761Y-289311961D02*
X297404761Y-288931009D01*
X297404761Y-288931009D02*
X297452380Y-288835771D01*
X297452380Y-288835771D02*
X297547618Y-288788152D01*
X297547618Y-288788152D02*
X297738094Y-288788152D01*
X297738094Y-288788152D02*
X297833332Y-288835771D01*
X297833332Y-288835771D02*
X297880951Y-288931009D01*
X297880951Y-288931009D02*
X297880951Y-289026247D01*
X297880951Y-289026247D02*
X297404761Y-289121485D01*
X298071428Y-289550057D02*
X298833332Y-289550057D01*
X298976190Y-289454819D02*
X299499999Y-288788152D01*
X298976190Y-288788152D02*
X299499999Y-289454819D01*
X300404761Y-289454819D02*
X299833333Y-289454819D01*
X300119047Y-289454819D02*
X300119047Y-288454819D01*
X300119047Y-288454819D02*
X300023809Y-288597676D01*
X300023809Y-288597676D02*
X299928571Y-288692914D01*
X299928571Y-288692914D02*
X299833333Y-288740533D01*
X301261904Y-288454819D02*
X301071428Y-288454819D01*
X301071428Y-288454819D02*
X300976190Y-288502438D01*
X300976190Y-288502438D02*
X300928571Y-288550057D01*
X300928571Y-288550057D02*
X300833333Y-288692914D01*
X300833333Y-288692914D02*
X300785714Y-288883390D01*
X300785714Y-288883390D02*
X300785714Y-289264342D01*
X300785714Y-289264342D02*
X300833333Y-289359580D01*
X300833333Y-289359580D02*
X300880952Y-289407200D01*
X300880952Y-289407200D02*
X300976190Y-289454819D01*
X300976190Y-289454819D02*
X301166666Y-289454819D01*
X301166666Y-289454819D02*
X301261904Y-289407200D01*
X301261904Y-289407200D02*
X301309523Y-289359580D01*
X301309523Y-289359580D02*
X301357142Y-289264342D01*
X301357142Y-289264342D02*
X301357142Y-289026247D01*
X301357142Y-289026247D02*
X301309523Y-288931009D01*
X301309523Y-288931009D02*
X301261904Y-288883390D01*
X301261904Y-288883390D02*
X301166666Y-288835771D01*
X301166666Y-288835771D02*
X300976190Y-288835771D01*
X300976190Y-288835771D02*
X300880952Y-288883390D01*
X300880952Y-288883390D02*
X300833333Y-288931009D01*
X300833333Y-288931009D02*
X300785714Y-289026247D01*
X301547619Y-289550057D02*
X302309523Y-289550057D01*
X302500000Y-289407200D02*
X302642857Y-289454819D01*
X302642857Y-289454819D02*
X302880952Y-289454819D01*
X302880952Y-289454819D02*
X302976190Y-289407200D01*
X302976190Y-289407200D02*
X303023809Y-289359580D01*
X303023809Y-289359580D02*
X303071428Y-289264342D01*
X303071428Y-289264342D02*
X303071428Y-289169104D01*
X303071428Y-289169104D02*
X303023809Y-289073866D01*
X303023809Y-289073866D02*
X302976190Y-289026247D01*
X302976190Y-289026247D02*
X302880952Y-288978628D01*
X302880952Y-288978628D02*
X302690476Y-288931009D01*
X302690476Y-288931009D02*
X302595238Y-288883390D01*
X302595238Y-288883390D02*
X302547619Y-288835771D01*
X302547619Y-288835771D02*
X302500000Y-288740533D01*
X302500000Y-288740533D02*
X302500000Y-288645295D01*
X302500000Y-288645295D02*
X302547619Y-288550057D01*
X302547619Y-288550057D02*
X302595238Y-288502438D01*
X302595238Y-288502438D02*
X302690476Y-288454819D01*
X302690476Y-288454819D02*
X302928571Y-288454819D01*
X302928571Y-288454819D02*
X303071428Y-288502438D01*
X303642857Y-289454819D02*
X303547619Y-289407200D01*
X303547619Y-289407200D02*
X303500000Y-289311961D01*
X303500000Y-289311961D02*
X303500000Y-288454819D01*
X304166667Y-289454819D02*
X304071429Y-289407200D01*
X304071429Y-289407200D02*
X304023810Y-289359580D01*
X304023810Y-289359580D02*
X303976191Y-289264342D01*
X303976191Y-289264342D02*
X303976191Y-288978628D01*
X303976191Y-288978628D02*
X304023810Y-288883390D01*
X304023810Y-288883390D02*
X304071429Y-288835771D01*
X304071429Y-288835771D02*
X304166667Y-288788152D01*
X304166667Y-288788152D02*
X304309524Y-288788152D01*
X304309524Y-288788152D02*
X304404762Y-288835771D01*
X304404762Y-288835771D02*
X304452381Y-288883390D01*
X304452381Y-288883390D02*
X304500000Y-288978628D01*
X304500000Y-288978628D02*
X304500000Y-289264342D01*
X304500000Y-289264342D02*
X304452381Y-289359580D01*
X304452381Y-289359580D02*
X304404762Y-289407200D01*
X304404762Y-289407200D02*
X304309524Y-289454819D01*
X304309524Y-289454819D02*
X304166667Y-289454819D01*
X304785715Y-288788152D02*
X305166667Y-288788152D01*
X304928572Y-288454819D02*
X304928572Y-289311961D01*
X304928572Y-289311961D02*
X304976191Y-289407200D01*
X304976191Y-289407200D02*
X305071429Y-289454819D01*
X305071429Y-289454819D02*
X305166667Y-289454819D01*
X118547619Y-180454819D02*
X118547619Y-179454819D01*
X118547619Y-179454819D02*
X118785714Y-179454819D01*
X118785714Y-179454819D02*
X118928571Y-179502438D01*
X118928571Y-179502438D02*
X119023809Y-179597676D01*
X119023809Y-179597676D02*
X119071428Y-179692914D01*
X119071428Y-179692914D02*
X119119047Y-179883390D01*
X119119047Y-179883390D02*
X119119047Y-180026247D01*
X119119047Y-180026247D02*
X119071428Y-180216723D01*
X119071428Y-180216723D02*
X119023809Y-180311961D01*
X119023809Y-180311961D02*
X118928571Y-180407200D01*
X118928571Y-180407200D02*
X118785714Y-180454819D01*
X118785714Y-180454819D02*
X118547619Y-180454819D01*
X119547619Y-180454819D02*
X119547619Y-179454819D01*
X119547619Y-179454819D02*
X119785714Y-179454819D01*
X119785714Y-179454819D02*
X119928571Y-179502438D01*
X119928571Y-179502438D02*
X120023809Y-179597676D01*
X120023809Y-179597676D02*
X120071428Y-179692914D01*
X120071428Y-179692914D02*
X120119047Y-179883390D01*
X120119047Y-179883390D02*
X120119047Y-180026247D01*
X120119047Y-180026247D02*
X120071428Y-180216723D01*
X120071428Y-180216723D02*
X120023809Y-180311961D01*
X120023809Y-180311961D02*
X119928571Y-180407200D01*
X119928571Y-180407200D02*
X119785714Y-180454819D01*
X119785714Y-180454819D02*
X119547619Y-180454819D01*
X121119047Y-180454819D02*
X120785714Y-179978628D01*
X120547619Y-180454819D02*
X120547619Y-179454819D01*
X120547619Y-179454819D02*
X120928571Y-179454819D01*
X120928571Y-179454819D02*
X121023809Y-179502438D01*
X121023809Y-179502438D02*
X121071428Y-179550057D01*
X121071428Y-179550057D02*
X121119047Y-179645295D01*
X121119047Y-179645295D02*
X121119047Y-179788152D01*
X121119047Y-179788152D02*
X121071428Y-179883390D01*
X121071428Y-179883390D02*
X121023809Y-179931009D01*
X121023809Y-179931009D02*
X120928571Y-179978628D01*
X120928571Y-179978628D02*
X120547619Y-179978628D01*
X122023809Y-179454819D02*
X121547619Y-179454819D01*
X121547619Y-179454819D02*
X121500000Y-179931009D01*
X121500000Y-179931009D02*
X121547619Y-179883390D01*
X121547619Y-179883390D02*
X121642857Y-179835771D01*
X121642857Y-179835771D02*
X121880952Y-179835771D01*
X121880952Y-179835771D02*
X121976190Y-179883390D01*
X121976190Y-179883390D02*
X122023809Y-179931009D01*
X122023809Y-179931009D02*
X122071428Y-180026247D01*
X122071428Y-180026247D02*
X122071428Y-180264342D01*
X122071428Y-180264342D02*
X122023809Y-180359580D01*
X122023809Y-180359580D02*
X121976190Y-180407200D01*
X121976190Y-180407200D02*
X121880952Y-180454819D01*
X121880952Y-180454819D02*
X121642857Y-180454819D01*
X121642857Y-180454819D02*
X121547619Y-180407200D01*
X121547619Y-180407200D02*
X121500000Y-180359580D01*
X122261905Y-180550057D02*
X123023809Y-180550057D01*
X123261905Y-180454819D02*
X123261905Y-179454819D01*
X123261905Y-179454819D02*
X123500000Y-179454819D01*
X123500000Y-179454819D02*
X123642857Y-179502438D01*
X123642857Y-179502438D02*
X123738095Y-179597676D01*
X123738095Y-179597676D02*
X123785714Y-179692914D01*
X123785714Y-179692914D02*
X123833333Y-179883390D01*
X123833333Y-179883390D02*
X123833333Y-180026247D01*
X123833333Y-180026247D02*
X123785714Y-180216723D01*
X123785714Y-180216723D02*
X123738095Y-180311961D01*
X123738095Y-180311961D02*
X123642857Y-180407200D01*
X123642857Y-180407200D02*
X123500000Y-180454819D01*
X123500000Y-180454819D02*
X123261905Y-180454819D01*
X124261905Y-180454819D02*
X124261905Y-179454819D01*
X124738095Y-180454819D02*
X124738095Y-179454819D01*
X124738095Y-179454819D02*
X125071428Y-180169104D01*
X125071428Y-180169104D02*
X125404761Y-179454819D01*
X125404761Y-179454819D02*
X125404761Y-180454819D01*
X125880952Y-180454819D02*
X125880952Y-179454819D01*
X125880952Y-179454819D02*
X126214285Y-180169104D01*
X126214285Y-180169104D02*
X126547618Y-179454819D01*
X126547618Y-179454819D02*
X126547618Y-180454819D01*
X126785714Y-180550057D02*
X127547618Y-180550057D01*
X127738095Y-179550057D02*
X127785714Y-179502438D01*
X127785714Y-179502438D02*
X127880952Y-179454819D01*
X127880952Y-179454819D02*
X128119047Y-179454819D01*
X128119047Y-179454819D02*
X128214285Y-179502438D01*
X128214285Y-179502438D02*
X128261904Y-179550057D01*
X128261904Y-179550057D02*
X128309523Y-179645295D01*
X128309523Y-179645295D02*
X128309523Y-179740533D01*
X128309523Y-179740533D02*
X128261904Y-179883390D01*
X128261904Y-179883390D02*
X127690476Y-180454819D01*
X127690476Y-180454819D02*
X128309523Y-180454819D01*
X128880952Y-179883390D02*
X128785714Y-179835771D01*
X128785714Y-179835771D02*
X128738095Y-179788152D01*
X128738095Y-179788152D02*
X128690476Y-179692914D01*
X128690476Y-179692914D02*
X128690476Y-179645295D01*
X128690476Y-179645295D02*
X128738095Y-179550057D01*
X128738095Y-179550057D02*
X128785714Y-179502438D01*
X128785714Y-179502438D02*
X128880952Y-179454819D01*
X128880952Y-179454819D02*
X129071428Y-179454819D01*
X129071428Y-179454819D02*
X129166666Y-179502438D01*
X129166666Y-179502438D02*
X129214285Y-179550057D01*
X129214285Y-179550057D02*
X129261904Y-179645295D01*
X129261904Y-179645295D02*
X129261904Y-179692914D01*
X129261904Y-179692914D02*
X129214285Y-179788152D01*
X129214285Y-179788152D02*
X129166666Y-179835771D01*
X129166666Y-179835771D02*
X129071428Y-179883390D01*
X129071428Y-179883390D02*
X128880952Y-179883390D01*
X128880952Y-179883390D02*
X128785714Y-179931009D01*
X128785714Y-179931009D02*
X128738095Y-179978628D01*
X128738095Y-179978628D02*
X128690476Y-180073866D01*
X128690476Y-180073866D02*
X128690476Y-180264342D01*
X128690476Y-180264342D02*
X128738095Y-180359580D01*
X128738095Y-180359580D02*
X128785714Y-180407200D01*
X128785714Y-180407200D02*
X128880952Y-180454819D01*
X128880952Y-180454819D02*
X129071428Y-180454819D01*
X129071428Y-180454819D02*
X129166666Y-180407200D01*
X129166666Y-180407200D02*
X129214285Y-180359580D01*
X129214285Y-180359580D02*
X129261904Y-180264342D01*
X129261904Y-180264342D02*
X129261904Y-180073866D01*
X129261904Y-180073866D02*
X129214285Y-179978628D01*
X129214285Y-179978628D02*
X129166666Y-179931009D01*
X129166666Y-179931009D02*
X129071428Y-179883390D01*
X129833333Y-179883390D02*
X129738095Y-179835771D01*
X129738095Y-179835771D02*
X129690476Y-179788152D01*
X129690476Y-179788152D02*
X129642857Y-179692914D01*
X129642857Y-179692914D02*
X129642857Y-179645295D01*
X129642857Y-179645295D02*
X129690476Y-179550057D01*
X129690476Y-179550057D02*
X129738095Y-179502438D01*
X129738095Y-179502438D02*
X129833333Y-179454819D01*
X129833333Y-179454819D02*
X130023809Y-179454819D01*
X130023809Y-179454819D02*
X130119047Y-179502438D01*
X130119047Y-179502438D02*
X130166666Y-179550057D01*
X130166666Y-179550057D02*
X130214285Y-179645295D01*
X130214285Y-179645295D02*
X130214285Y-179692914D01*
X130214285Y-179692914D02*
X130166666Y-179788152D01*
X130166666Y-179788152D02*
X130119047Y-179835771D01*
X130119047Y-179835771D02*
X130023809Y-179883390D01*
X130023809Y-179883390D02*
X129833333Y-179883390D01*
X129833333Y-179883390D02*
X129738095Y-179931009D01*
X129738095Y-179931009D02*
X129690476Y-179978628D01*
X129690476Y-179978628D02*
X129642857Y-180073866D01*
X129642857Y-180073866D02*
X129642857Y-180264342D01*
X129642857Y-180264342D02*
X129690476Y-180359580D01*
X129690476Y-180359580D02*
X129738095Y-180407200D01*
X129738095Y-180407200D02*
X129833333Y-180454819D01*
X129833333Y-180454819D02*
X130023809Y-180454819D01*
X130023809Y-180454819D02*
X130119047Y-180407200D01*
X130119047Y-180407200D02*
X130166666Y-180359580D01*
X130166666Y-180359580D02*
X130214285Y-180264342D01*
X130214285Y-180264342D02*
X130214285Y-180073866D01*
X130214285Y-180073866D02*
X130166666Y-179978628D01*
X130166666Y-179978628D02*
X130119047Y-179931009D01*
X130119047Y-179931009D02*
X130023809Y-179883390D01*
X130642857Y-179788152D02*
X130642857Y-180788152D01*
X130642857Y-179835771D02*
X130738095Y-179788152D01*
X130738095Y-179788152D02*
X130928571Y-179788152D01*
X130928571Y-179788152D02*
X131023809Y-179835771D01*
X131023809Y-179835771D02*
X131071428Y-179883390D01*
X131071428Y-179883390D02*
X131119047Y-179978628D01*
X131119047Y-179978628D02*
X131119047Y-180264342D01*
X131119047Y-180264342D02*
X131071428Y-180359580D01*
X131071428Y-180359580D02*
X131023809Y-180407200D01*
X131023809Y-180407200D02*
X130928571Y-180454819D01*
X130928571Y-180454819D02*
X130738095Y-180454819D01*
X130738095Y-180454819D02*
X130642857Y-180407200D01*
X131547619Y-180454819D02*
X131547619Y-179788152D01*
X131547619Y-179454819D02*
X131500000Y-179502438D01*
X131500000Y-179502438D02*
X131547619Y-179550057D01*
X131547619Y-179550057D02*
X131595238Y-179502438D01*
X131595238Y-179502438D02*
X131547619Y-179454819D01*
X131547619Y-179454819D02*
X131547619Y-179550057D01*
X132023809Y-179788152D02*
X132023809Y-180454819D01*
X132023809Y-179883390D02*
X132071428Y-179835771D01*
X132071428Y-179835771D02*
X132166666Y-179788152D01*
X132166666Y-179788152D02*
X132309523Y-179788152D01*
X132309523Y-179788152D02*
X132404761Y-179835771D01*
X132404761Y-179835771D02*
X132452380Y-179931009D01*
X132452380Y-179931009D02*
X132452380Y-180454819D01*
X118547619Y-200454819D02*
X118547619Y-199454819D01*
X118547619Y-199454819D02*
X118785714Y-199454819D01*
X118785714Y-199454819D02*
X118928571Y-199502438D01*
X118928571Y-199502438D02*
X119023809Y-199597676D01*
X119023809Y-199597676D02*
X119071428Y-199692914D01*
X119071428Y-199692914D02*
X119119047Y-199883390D01*
X119119047Y-199883390D02*
X119119047Y-200026247D01*
X119119047Y-200026247D02*
X119071428Y-200216723D01*
X119071428Y-200216723D02*
X119023809Y-200311961D01*
X119023809Y-200311961D02*
X118928571Y-200407200D01*
X118928571Y-200407200D02*
X118785714Y-200454819D01*
X118785714Y-200454819D02*
X118547619Y-200454819D01*
X119547619Y-200454819D02*
X119547619Y-199454819D01*
X119547619Y-199454819D02*
X119785714Y-199454819D01*
X119785714Y-199454819D02*
X119928571Y-199502438D01*
X119928571Y-199502438D02*
X120023809Y-199597676D01*
X120023809Y-199597676D02*
X120071428Y-199692914D01*
X120071428Y-199692914D02*
X120119047Y-199883390D01*
X120119047Y-199883390D02*
X120119047Y-200026247D01*
X120119047Y-200026247D02*
X120071428Y-200216723D01*
X120071428Y-200216723D02*
X120023809Y-200311961D01*
X120023809Y-200311961D02*
X119928571Y-200407200D01*
X119928571Y-200407200D02*
X119785714Y-200454819D01*
X119785714Y-200454819D02*
X119547619Y-200454819D01*
X121119047Y-200454819D02*
X120785714Y-199978628D01*
X120547619Y-200454819D02*
X120547619Y-199454819D01*
X120547619Y-199454819D02*
X120928571Y-199454819D01*
X120928571Y-199454819D02*
X121023809Y-199502438D01*
X121023809Y-199502438D02*
X121071428Y-199550057D01*
X121071428Y-199550057D02*
X121119047Y-199645295D01*
X121119047Y-199645295D02*
X121119047Y-199788152D01*
X121119047Y-199788152D02*
X121071428Y-199883390D01*
X121071428Y-199883390D02*
X121023809Y-199931009D01*
X121023809Y-199931009D02*
X120928571Y-199978628D01*
X120928571Y-199978628D02*
X120547619Y-199978628D01*
X122023809Y-199454819D02*
X121547619Y-199454819D01*
X121547619Y-199454819D02*
X121500000Y-199931009D01*
X121500000Y-199931009D02*
X121547619Y-199883390D01*
X121547619Y-199883390D02*
X121642857Y-199835771D01*
X121642857Y-199835771D02*
X121880952Y-199835771D01*
X121880952Y-199835771D02*
X121976190Y-199883390D01*
X121976190Y-199883390D02*
X122023809Y-199931009D01*
X122023809Y-199931009D02*
X122071428Y-200026247D01*
X122071428Y-200026247D02*
X122071428Y-200264342D01*
X122071428Y-200264342D02*
X122023809Y-200359580D01*
X122023809Y-200359580D02*
X121976190Y-200407200D01*
X121976190Y-200407200D02*
X121880952Y-200454819D01*
X121880952Y-200454819D02*
X121642857Y-200454819D01*
X121642857Y-200454819D02*
X121547619Y-200407200D01*
X121547619Y-200407200D02*
X121500000Y-200359580D01*
X122261905Y-200550057D02*
X123023809Y-200550057D01*
X123261905Y-200454819D02*
X123261905Y-199454819D01*
X123261905Y-199454819D02*
X123500000Y-199454819D01*
X123500000Y-199454819D02*
X123642857Y-199502438D01*
X123642857Y-199502438D02*
X123738095Y-199597676D01*
X123738095Y-199597676D02*
X123785714Y-199692914D01*
X123785714Y-199692914D02*
X123833333Y-199883390D01*
X123833333Y-199883390D02*
X123833333Y-200026247D01*
X123833333Y-200026247D02*
X123785714Y-200216723D01*
X123785714Y-200216723D02*
X123738095Y-200311961D01*
X123738095Y-200311961D02*
X123642857Y-200407200D01*
X123642857Y-200407200D02*
X123500000Y-200454819D01*
X123500000Y-200454819D02*
X123261905Y-200454819D01*
X124261905Y-200454819D02*
X124261905Y-199454819D01*
X124738095Y-200454819D02*
X124738095Y-199454819D01*
X124738095Y-199454819D02*
X125071428Y-200169104D01*
X125071428Y-200169104D02*
X125404761Y-199454819D01*
X125404761Y-199454819D02*
X125404761Y-200454819D01*
X125880952Y-200454819D02*
X125880952Y-199454819D01*
X125880952Y-199454819D02*
X126214285Y-200169104D01*
X126214285Y-200169104D02*
X126547618Y-199454819D01*
X126547618Y-199454819D02*
X126547618Y-200454819D01*
X126785714Y-200550057D02*
X127547618Y-200550057D01*
X127738095Y-199550057D02*
X127785714Y-199502438D01*
X127785714Y-199502438D02*
X127880952Y-199454819D01*
X127880952Y-199454819D02*
X128119047Y-199454819D01*
X128119047Y-199454819D02*
X128214285Y-199502438D01*
X128214285Y-199502438D02*
X128261904Y-199550057D01*
X128261904Y-199550057D02*
X128309523Y-199645295D01*
X128309523Y-199645295D02*
X128309523Y-199740533D01*
X128309523Y-199740533D02*
X128261904Y-199883390D01*
X128261904Y-199883390D02*
X127690476Y-200454819D01*
X127690476Y-200454819D02*
X128309523Y-200454819D01*
X128880952Y-199883390D02*
X128785714Y-199835771D01*
X128785714Y-199835771D02*
X128738095Y-199788152D01*
X128738095Y-199788152D02*
X128690476Y-199692914D01*
X128690476Y-199692914D02*
X128690476Y-199645295D01*
X128690476Y-199645295D02*
X128738095Y-199550057D01*
X128738095Y-199550057D02*
X128785714Y-199502438D01*
X128785714Y-199502438D02*
X128880952Y-199454819D01*
X128880952Y-199454819D02*
X129071428Y-199454819D01*
X129071428Y-199454819D02*
X129166666Y-199502438D01*
X129166666Y-199502438D02*
X129214285Y-199550057D01*
X129214285Y-199550057D02*
X129261904Y-199645295D01*
X129261904Y-199645295D02*
X129261904Y-199692914D01*
X129261904Y-199692914D02*
X129214285Y-199788152D01*
X129214285Y-199788152D02*
X129166666Y-199835771D01*
X129166666Y-199835771D02*
X129071428Y-199883390D01*
X129071428Y-199883390D02*
X128880952Y-199883390D01*
X128880952Y-199883390D02*
X128785714Y-199931009D01*
X128785714Y-199931009D02*
X128738095Y-199978628D01*
X128738095Y-199978628D02*
X128690476Y-200073866D01*
X128690476Y-200073866D02*
X128690476Y-200264342D01*
X128690476Y-200264342D02*
X128738095Y-200359580D01*
X128738095Y-200359580D02*
X128785714Y-200407200D01*
X128785714Y-200407200D02*
X128880952Y-200454819D01*
X128880952Y-200454819D02*
X129071428Y-200454819D01*
X129071428Y-200454819D02*
X129166666Y-200407200D01*
X129166666Y-200407200D02*
X129214285Y-200359580D01*
X129214285Y-200359580D02*
X129261904Y-200264342D01*
X129261904Y-200264342D02*
X129261904Y-200073866D01*
X129261904Y-200073866D02*
X129214285Y-199978628D01*
X129214285Y-199978628D02*
X129166666Y-199931009D01*
X129166666Y-199931009D02*
X129071428Y-199883390D01*
X129833333Y-199883390D02*
X129738095Y-199835771D01*
X129738095Y-199835771D02*
X129690476Y-199788152D01*
X129690476Y-199788152D02*
X129642857Y-199692914D01*
X129642857Y-199692914D02*
X129642857Y-199645295D01*
X129642857Y-199645295D02*
X129690476Y-199550057D01*
X129690476Y-199550057D02*
X129738095Y-199502438D01*
X129738095Y-199502438D02*
X129833333Y-199454819D01*
X129833333Y-199454819D02*
X130023809Y-199454819D01*
X130023809Y-199454819D02*
X130119047Y-199502438D01*
X130119047Y-199502438D02*
X130166666Y-199550057D01*
X130166666Y-199550057D02*
X130214285Y-199645295D01*
X130214285Y-199645295D02*
X130214285Y-199692914D01*
X130214285Y-199692914D02*
X130166666Y-199788152D01*
X130166666Y-199788152D02*
X130119047Y-199835771D01*
X130119047Y-199835771D02*
X130023809Y-199883390D01*
X130023809Y-199883390D02*
X129833333Y-199883390D01*
X129833333Y-199883390D02*
X129738095Y-199931009D01*
X129738095Y-199931009D02*
X129690476Y-199978628D01*
X129690476Y-199978628D02*
X129642857Y-200073866D01*
X129642857Y-200073866D02*
X129642857Y-200264342D01*
X129642857Y-200264342D02*
X129690476Y-200359580D01*
X129690476Y-200359580D02*
X129738095Y-200407200D01*
X129738095Y-200407200D02*
X129833333Y-200454819D01*
X129833333Y-200454819D02*
X130023809Y-200454819D01*
X130023809Y-200454819D02*
X130119047Y-200407200D01*
X130119047Y-200407200D02*
X130166666Y-200359580D01*
X130166666Y-200359580D02*
X130214285Y-200264342D01*
X130214285Y-200264342D02*
X130214285Y-200073866D01*
X130214285Y-200073866D02*
X130166666Y-199978628D01*
X130166666Y-199978628D02*
X130119047Y-199931009D01*
X130119047Y-199931009D02*
X130023809Y-199883390D01*
X130642857Y-199788152D02*
X130642857Y-200788152D01*
X130642857Y-199835771D02*
X130738095Y-199788152D01*
X130738095Y-199788152D02*
X130928571Y-199788152D01*
X130928571Y-199788152D02*
X131023809Y-199835771D01*
X131023809Y-199835771D02*
X131071428Y-199883390D01*
X131071428Y-199883390D02*
X131119047Y-199978628D01*
X131119047Y-199978628D02*
X131119047Y-200264342D01*
X131119047Y-200264342D02*
X131071428Y-200359580D01*
X131071428Y-200359580D02*
X131023809Y-200407200D01*
X131023809Y-200407200D02*
X130928571Y-200454819D01*
X130928571Y-200454819D02*
X130738095Y-200454819D01*
X130738095Y-200454819D02*
X130642857Y-200407200D01*
X131547619Y-200454819D02*
X131547619Y-199788152D01*
X131547619Y-199454819D02*
X131500000Y-199502438D01*
X131500000Y-199502438D02*
X131547619Y-199550057D01*
X131547619Y-199550057D02*
X131595238Y-199502438D01*
X131595238Y-199502438D02*
X131547619Y-199454819D01*
X131547619Y-199454819D02*
X131547619Y-199550057D01*
X132023809Y-199788152D02*
X132023809Y-200454819D01*
X132023809Y-199883390D02*
X132071428Y-199835771D01*
X132071428Y-199835771D02*
X132166666Y-199788152D01*
X132166666Y-199788152D02*
X132309523Y-199788152D01*
X132309523Y-199788152D02*
X132404761Y-199835771D01*
X132404761Y-199835771D02*
X132452380Y-199931009D01*
X132452380Y-199931009D02*
X132452380Y-200454819D01*
X298547619Y-180454819D02*
X298547619Y-179454819D01*
X298547619Y-179454819D02*
X298785714Y-179454819D01*
X298785714Y-179454819D02*
X298928571Y-179502438D01*
X298928571Y-179502438D02*
X299023809Y-179597676D01*
X299023809Y-179597676D02*
X299071428Y-179692914D01*
X299071428Y-179692914D02*
X299119047Y-179883390D01*
X299119047Y-179883390D02*
X299119047Y-180026247D01*
X299119047Y-180026247D02*
X299071428Y-180216723D01*
X299071428Y-180216723D02*
X299023809Y-180311961D01*
X299023809Y-180311961D02*
X298928571Y-180407200D01*
X298928571Y-180407200D02*
X298785714Y-180454819D01*
X298785714Y-180454819D02*
X298547619Y-180454819D01*
X299547619Y-180454819D02*
X299547619Y-179454819D01*
X299547619Y-179454819D02*
X299785714Y-179454819D01*
X299785714Y-179454819D02*
X299928571Y-179502438D01*
X299928571Y-179502438D02*
X300023809Y-179597676D01*
X300023809Y-179597676D02*
X300071428Y-179692914D01*
X300071428Y-179692914D02*
X300119047Y-179883390D01*
X300119047Y-179883390D02*
X300119047Y-180026247D01*
X300119047Y-180026247D02*
X300071428Y-180216723D01*
X300071428Y-180216723D02*
X300023809Y-180311961D01*
X300023809Y-180311961D02*
X299928571Y-180407200D01*
X299928571Y-180407200D02*
X299785714Y-180454819D01*
X299785714Y-180454819D02*
X299547619Y-180454819D01*
X301119047Y-180454819D02*
X300785714Y-179978628D01*
X300547619Y-180454819D02*
X300547619Y-179454819D01*
X300547619Y-179454819D02*
X300928571Y-179454819D01*
X300928571Y-179454819D02*
X301023809Y-179502438D01*
X301023809Y-179502438D02*
X301071428Y-179550057D01*
X301071428Y-179550057D02*
X301119047Y-179645295D01*
X301119047Y-179645295D02*
X301119047Y-179788152D01*
X301119047Y-179788152D02*
X301071428Y-179883390D01*
X301071428Y-179883390D02*
X301023809Y-179931009D01*
X301023809Y-179931009D02*
X300928571Y-179978628D01*
X300928571Y-179978628D02*
X300547619Y-179978628D01*
X302023809Y-179454819D02*
X301547619Y-179454819D01*
X301547619Y-179454819D02*
X301500000Y-179931009D01*
X301500000Y-179931009D02*
X301547619Y-179883390D01*
X301547619Y-179883390D02*
X301642857Y-179835771D01*
X301642857Y-179835771D02*
X301880952Y-179835771D01*
X301880952Y-179835771D02*
X301976190Y-179883390D01*
X301976190Y-179883390D02*
X302023809Y-179931009D01*
X302023809Y-179931009D02*
X302071428Y-180026247D01*
X302071428Y-180026247D02*
X302071428Y-180264342D01*
X302071428Y-180264342D02*
X302023809Y-180359580D01*
X302023809Y-180359580D02*
X301976190Y-180407200D01*
X301976190Y-180407200D02*
X301880952Y-180454819D01*
X301880952Y-180454819D02*
X301642857Y-180454819D01*
X301642857Y-180454819D02*
X301547619Y-180407200D01*
X301547619Y-180407200D02*
X301500000Y-180359580D01*
X302261905Y-180550057D02*
X303023809Y-180550057D01*
X303261905Y-180454819D02*
X303261905Y-179454819D01*
X303261905Y-179454819D02*
X303500000Y-179454819D01*
X303500000Y-179454819D02*
X303642857Y-179502438D01*
X303642857Y-179502438D02*
X303738095Y-179597676D01*
X303738095Y-179597676D02*
X303785714Y-179692914D01*
X303785714Y-179692914D02*
X303833333Y-179883390D01*
X303833333Y-179883390D02*
X303833333Y-180026247D01*
X303833333Y-180026247D02*
X303785714Y-180216723D01*
X303785714Y-180216723D02*
X303738095Y-180311961D01*
X303738095Y-180311961D02*
X303642857Y-180407200D01*
X303642857Y-180407200D02*
X303500000Y-180454819D01*
X303500000Y-180454819D02*
X303261905Y-180454819D01*
X304261905Y-180454819D02*
X304261905Y-179454819D01*
X304738095Y-180454819D02*
X304738095Y-179454819D01*
X304738095Y-179454819D02*
X305071428Y-180169104D01*
X305071428Y-180169104D02*
X305404761Y-179454819D01*
X305404761Y-179454819D02*
X305404761Y-180454819D01*
X305880952Y-180454819D02*
X305880952Y-179454819D01*
X305880952Y-179454819D02*
X306214285Y-180169104D01*
X306214285Y-180169104D02*
X306547618Y-179454819D01*
X306547618Y-179454819D02*
X306547618Y-180454819D01*
X306785714Y-180550057D02*
X307547618Y-180550057D01*
X307738095Y-179550057D02*
X307785714Y-179502438D01*
X307785714Y-179502438D02*
X307880952Y-179454819D01*
X307880952Y-179454819D02*
X308119047Y-179454819D01*
X308119047Y-179454819D02*
X308214285Y-179502438D01*
X308214285Y-179502438D02*
X308261904Y-179550057D01*
X308261904Y-179550057D02*
X308309523Y-179645295D01*
X308309523Y-179645295D02*
X308309523Y-179740533D01*
X308309523Y-179740533D02*
X308261904Y-179883390D01*
X308261904Y-179883390D02*
X307690476Y-180454819D01*
X307690476Y-180454819D02*
X308309523Y-180454819D01*
X308880952Y-179883390D02*
X308785714Y-179835771D01*
X308785714Y-179835771D02*
X308738095Y-179788152D01*
X308738095Y-179788152D02*
X308690476Y-179692914D01*
X308690476Y-179692914D02*
X308690476Y-179645295D01*
X308690476Y-179645295D02*
X308738095Y-179550057D01*
X308738095Y-179550057D02*
X308785714Y-179502438D01*
X308785714Y-179502438D02*
X308880952Y-179454819D01*
X308880952Y-179454819D02*
X309071428Y-179454819D01*
X309071428Y-179454819D02*
X309166666Y-179502438D01*
X309166666Y-179502438D02*
X309214285Y-179550057D01*
X309214285Y-179550057D02*
X309261904Y-179645295D01*
X309261904Y-179645295D02*
X309261904Y-179692914D01*
X309261904Y-179692914D02*
X309214285Y-179788152D01*
X309214285Y-179788152D02*
X309166666Y-179835771D01*
X309166666Y-179835771D02*
X309071428Y-179883390D01*
X309071428Y-179883390D02*
X308880952Y-179883390D01*
X308880952Y-179883390D02*
X308785714Y-179931009D01*
X308785714Y-179931009D02*
X308738095Y-179978628D01*
X308738095Y-179978628D02*
X308690476Y-180073866D01*
X308690476Y-180073866D02*
X308690476Y-180264342D01*
X308690476Y-180264342D02*
X308738095Y-180359580D01*
X308738095Y-180359580D02*
X308785714Y-180407200D01*
X308785714Y-180407200D02*
X308880952Y-180454819D01*
X308880952Y-180454819D02*
X309071428Y-180454819D01*
X309071428Y-180454819D02*
X309166666Y-180407200D01*
X309166666Y-180407200D02*
X309214285Y-180359580D01*
X309214285Y-180359580D02*
X309261904Y-180264342D01*
X309261904Y-180264342D02*
X309261904Y-180073866D01*
X309261904Y-180073866D02*
X309214285Y-179978628D01*
X309214285Y-179978628D02*
X309166666Y-179931009D01*
X309166666Y-179931009D02*
X309071428Y-179883390D01*
X309833333Y-179883390D02*
X309738095Y-179835771D01*
X309738095Y-179835771D02*
X309690476Y-179788152D01*
X309690476Y-179788152D02*
X309642857Y-179692914D01*
X309642857Y-179692914D02*
X309642857Y-179645295D01*
X309642857Y-179645295D02*
X309690476Y-179550057D01*
X309690476Y-179550057D02*
X309738095Y-179502438D01*
X309738095Y-179502438D02*
X309833333Y-179454819D01*
X309833333Y-179454819D02*
X310023809Y-179454819D01*
X310023809Y-179454819D02*
X310119047Y-179502438D01*
X310119047Y-179502438D02*
X310166666Y-179550057D01*
X310166666Y-179550057D02*
X310214285Y-179645295D01*
X310214285Y-179645295D02*
X310214285Y-179692914D01*
X310214285Y-179692914D02*
X310166666Y-179788152D01*
X310166666Y-179788152D02*
X310119047Y-179835771D01*
X310119047Y-179835771D02*
X310023809Y-179883390D01*
X310023809Y-179883390D02*
X309833333Y-179883390D01*
X309833333Y-179883390D02*
X309738095Y-179931009D01*
X309738095Y-179931009D02*
X309690476Y-179978628D01*
X309690476Y-179978628D02*
X309642857Y-180073866D01*
X309642857Y-180073866D02*
X309642857Y-180264342D01*
X309642857Y-180264342D02*
X309690476Y-180359580D01*
X309690476Y-180359580D02*
X309738095Y-180407200D01*
X309738095Y-180407200D02*
X309833333Y-180454819D01*
X309833333Y-180454819D02*
X310023809Y-180454819D01*
X310023809Y-180454819D02*
X310119047Y-180407200D01*
X310119047Y-180407200D02*
X310166666Y-180359580D01*
X310166666Y-180359580D02*
X310214285Y-180264342D01*
X310214285Y-180264342D02*
X310214285Y-180073866D01*
X310214285Y-180073866D02*
X310166666Y-179978628D01*
X310166666Y-179978628D02*
X310119047Y-179931009D01*
X310119047Y-179931009D02*
X310023809Y-179883390D01*
X310642857Y-179788152D02*
X310642857Y-180788152D01*
X310642857Y-179835771D02*
X310738095Y-179788152D01*
X310738095Y-179788152D02*
X310928571Y-179788152D01*
X310928571Y-179788152D02*
X311023809Y-179835771D01*
X311023809Y-179835771D02*
X311071428Y-179883390D01*
X311071428Y-179883390D02*
X311119047Y-179978628D01*
X311119047Y-179978628D02*
X311119047Y-180264342D01*
X311119047Y-180264342D02*
X311071428Y-180359580D01*
X311071428Y-180359580D02*
X311023809Y-180407200D01*
X311023809Y-180407200D02*
X310928571Y-180454819D01*
X310928571Y-180454819D02*
X310738095Y-180454819D01*
X310738095Y-180454819D02*
X310642857Y-180407200D01*
X311547619Y-180454819D02*
X311547619Y-179788152D01*
X311547619Y-179454819D02*
X311500000Y-179502438D01*
X311500000Y-179502438D02*
X311547619Y-179550057D01*
X311547619Y-179550057D02*
X311595238Y-179502438D01*
X311595238Y-179502438D02*
X311547619Y-179454819D01*
X311547619Y-179454819D02*
X311547619Y-179550057D01*
X312023809Y-179788152D02*
X312023809Y-180454819D01*
X312023809Y-179883390D02*
X312071428Y-179835771D01*
X312071428Y-179835771D02*
X312166666Y-179788152D01*
X312166666Y-179788152D02*
X312309523Y-179788152D01*
X312309523Y-179788152D02*
X312404761Y-179835771D01*
X312404761Y-179835771D02*
X312452380Y-179931009D01*
X312452380Y-179931009D02*
X312452380Y-180454819D01*
X298547619Y-200454819D02*
X298547619Y-199454819D01*
X298547619Y-199454819D02*
X298785714Y-199454819D01*
X298785714Y-199454819D02*
X298928571Y-199502438D01*
X298928571Y-199502438D02*
X299023809Y-199597676D01*
X299023809Y-199597676D02*
X299071428Y-199692914D01*
X299071428Y-199692914D02*
X299119047Y-199883390D01*
X299119047Y-199883390D02*
X299119047Y-200026247D01*
X299119047Y-200026247D02*
X299071428Y-200216723D01*
X299071428Y-200216723D02*
X299023809Y-200311961D01*
X299023809Y-200311961D02*
X298928571Y-200407200D01*
X298928571Y-200407200D02*
X298785714Y-200454819D01*
X298785714Y-200454819D02*
X298547619Y-200454819D01*
X299547619Y-200454819D02*
X299547619Y-199454819D01*
X299547619Y-199454819D02*
X299785714Y-199454819D01*
X299785714Y-199454819D02*
X299928571Y-199502438D01*
X299928571Y-199502438D02*
X300023809Y-199597676D01*
X300023809Y-199597676D02*
X300071428Y-199692914D01*
X300071428Y-199692914D02*
X300119047Y-199883390D01*
X300119047Y-199883390D02*
X300119047Y-200026247D01*
X300119047Y-200026247D02*
X300071428Y-200216723D01*
X300071428Y-200216723D02*
X300023809Y-200311961D01*
X300023809Y-200311961D02*
X299928571Y-200407200D01*
X299928571Y-200407200D02*
X299785714Y-200454819D01*
X299785714Y-200454819D02*
X299547619Y-200454819D01*
X301119047Y-200454819D02*
X300785714Y-199978628D01*
X300547619Y-200454819D02*
X300547619Y-199454819D01*
X300547619Y-199454819D02*
X300928571Y-199454819D01*
X300928571Y-199454819D02*
X301023809Y-199502438D01*
X301023809Y-199502438D02*
X301071428Y-199550057D01*
X301071428Y-199550057D02*
X301119047Y-199645295D01*
X301119047Y-199645295D02*
X301119047Y-199788152D01*
X301119047Y-199788152D02*
X301071428Y-199883390D01*
X301071428Y-199883390D02*
X301023809Y-199931009D01*
X301023809Y-199931009D02*
X300928571Y-199978628D01*
X300928571Y-199978628D02*
X300547619Y-199978628D01*
X302023809Y-199454819D02*
X301547619Y-199454819D01*
X301547619Y-199454819D02*
X301500000Y-199931009D01*
X301500000Y-199931009D02*
X301547619Y-199883390D01*
X301547619Y-199883390D02*
X301642857Y-199835771D01*
X301642857Y-199835771D02*
X301880952Y-199835771D01*
X301880952Y-199835771D02*
X301976190Y-199883390D01*
X301976190Y-199883390D02*
X302023809Y-199931009D01*
X302023809Y-199931009D02*
X302071428Y-200026247D01*
X302071428Y-200026247D02*
X302071428Y-200264342D01*
X302071428Y-200264342D02*
X302023809Y-200359580D01*
X302023809Y-200359580D02*
X301976190Y-200407200D01*
X301976190Y-200407200D02*
X301880952Y-200454819D01*
X301880952Y-200454819D02*
X301642857Y-200454819D01*
X301642857Y-200454819D02*
X301547619Y-200407200D01*
X301547619Y-200407200D02*
X301500000Y-200359580D01*
X302261905Y-200550057D02*
X303023809Y-200550057D01*
X303261905Y-200454819D02*
X303261905Y-199454819D01*
X303261905Y-199454819D02*
X303500000Y-199454819D01*
X303500000Y-199454819D02*
X303642857Y-199502438D01*
X303642857Y-199502438D02*
X303738095Y-199597676D01*
X303738095Y-199597676D02*
X303785714Y-199692914D01*
X303785714Y-199692914D02*
X303833333Y-199883390D01*
X303833333Y-199883390D02*
X303833333Y-200026247D01*
X303833333Y-200026247D02*
X303785714Y-200216723D01*
X303785714Y-200216723D02*
X303738095Y-200311961D01*
X303738095Y-200311961D02*
X303642857Y-200407200D01*
X303642857Y-200407200D02*
X303500000Y-200454819D01*
X303500000Y-200454819D02*
X303261905Y-200454819D01*
X304261905Y-200454819D02*
X304261905Y-199454819D01*
X304738095Y-200454819D02*
X304738095Y-199454819D01*
X304738095Y-199454819D02*
X305071428Y-200169104D01*
X305071428Y-200169104D02*
X305404761Y-199454819D01*
X305404761Y-199454819D02*
X305404761Y-200454819D01*
X305880952Y-200454819D02*
X305880952Y-199454819D01*
X305880952Y-199454819D02*
X306214285Y-200169104D01*
X306214285Y-200169104D02*
X306547618Y-199454819D01*
X306547618Y-199454819D02*
X306547618Y-200454819D01*
X306785714Y-200550057D02*
X307547618Y-200550057D01*
X307738095Y-199550057D02*
X307785714Y-199502438D01*
X307785714Y-199502438D02*
X307880952Y-199454819D01*
X307880952Y-199454819D02*
X308119047Y-199454819D01*
X308119047Y-199454819D02*
X308214285Y-199502438D01*
X308214285Y-199502438D02*
X308261904Y-199550057D01*
X308261904Y-199550057D02*
X308309523Y-199645295D01*
X308309523Y-199645295D02*
X308309523Y-199740533D01*
X308309523Y-199740533D02*
X308261904Y-199883390D01*
X308261904Y-199883390D02*
X307690476Y-200454819D01*
X307690476Y-200454819D02*
X308309523Y-200454819D01*
X308880952Y-199883390D02*
X308785714Y-199835771D01*
X308785714Y-199835771D02*
X308738095Y-199788152D01*
X308738095Y-199788152D02*
X308690476Y-199692914D01*
X308690476Y-199692914D02*
X308690476Y-199645295D01*
X308690476Y-199645295D02*
X308738095Y-199550057D01*
X308738095Y-199550057D02*
X308785714Y-199502438D01*
X308785714Y-199502438D02*
X308880952Y-199454819D01*
X308880952Y-199454819D02*
X309071428Y-199454819D01*
X309071428Y-199454819D02*
X309166666Y-199502438D01*
X309166666Y-199502438D02*
X309214285Y-199550057D01*
X309214285Y-199550057D02*
X309261904Y-199645295D01*
X309261904Y-199645295D02*
X309261904Y-199692914D01*
X309261904Y-199692914D02*
X309214285Y-199788152D01*
X309214285Y-199788152D02*
X309166666Y-199835771D01*
X309166666Y-199835771D02*
X309071428Y-199883390D01*
X309071428Y-199883390D02*
X308880952Y-199883390D01*
X308880952Y-199883390D02*
X308785714Y-199931009D01*
X308785714Y-199931009D02*
X308738095Y-199978628D01*
X308738095Y-199978628D02*
X308690476Y-200073866D01*
X308690476Y-200073866D02*
X308690476Y-200264342D01*
X308690476Y-200264342D02*
X308738095Y-200359580D01*
X308738095Y-200359580D02*
X308785714Y-200407200D01*
X308785714Y-200407200D02*
X308880952Y-200454819D01*
X308880952Y-200454819D02*
X309071428Y-200454819D01*
X309071428Y-200454819D02*
X309166666Y-200407200D01*
X309166666Y-200407200D02*
X309214285Y-200359580D01*
X309214285Y-200359580D02*
X309261904Y-200264342D01*
X309261904Y-200264342D02*
X309261904Y-200073866D01*
X309261904Y-200073866D02*
X309214285Y-199978628D01*
X309214285Y-199978628D02*
X309166666Y-199931009D01*
X309166666Y-199931009D02*
X309071428Y-199883390D01*
X309833333Y-199883390D02*
X309738095Y-199835771D01*
X309738095Y-199835771D02*
X309690476Y-199788152D01*
X309690476Y-199788152D02*
X309642857Y-199692914D01*
X309642857Y-199692914D02*
X309642857Y-199645295D01*
X309642857Y-199645295D02*
X309690476Y-199550057D01*
X309690476Y-199550057D02*
X309738095Y-199502438D01*
X309738095Y-199502438D02*
X309833333Y-199454819D01*
X309833333Y-199454819D02*
X310023809Y-199454819D01*
X310023809Y-199454819D02*
X310119047Y-199502438D01*
X310119047Y-199502438D02*
X310166666Y-199550057D01*
X310166666Y-199550057D02*
X310214285Y-199645295D01*
X310214285Y-199645295D02*
X310214285Y-199692914D01*
X310214285Y-199692914D02*
X310166666Y-199788152D01*
X310166666Y-199788152D02*
X310119047Y-199835771D01*
X310119047Y-199835771D02*
X310023809Y-199883390D01*
X310023809Y-199883390D02*
X309833333Y-199883390D01*
X309833333Y-199883390D02*
X309738095Y-199931009D01*
X309738095Y-199931009D02*
X309690476Y-199978628D01*
X309690476Y-199978628D02*
X309642857Y-200073866D01*
X309642857Y-200073866D02*
X309642857Y-200264342D01*
X309642857Y-200264342D02*
X309690476Y-200359580D01*
X309690476Y-200359580D02*
X309738095Y-200407200D01*
X309738095Y-200407200D02*
X309833333Y-200454819D01*
X309833333Y-200454819D02*
X310023809Y-200454819D01*
X310023809Y-200454819D02*
X310119047Y-200407200D01*
X310119047Y-200407200D02*
X310166666Y-200359580D01*
X310166666Y-200359580D02*
X310214285Y-200264342D01*
X310214285Y-200264342D02*
X310214285Y-200073866D01*
X310214285Y-200073866D02*
X310166666Y-199978628D01*
X310166666Y-199978628D02*
X310119047Y-199931009D01*
X310119047Y-199931009D02*
X310023809Y-199883390D01*
X310642857Y-199788152D02*
X310642857Y-200788152D01*
X310642857Y-199835771D02*
X310738095Y-199788152D01*
X310738095Y-199788152D02*
X310928571Y-199788152D01*
X310928571Y-199788152D02*
X311023809Y-199835771D01*
X311023809Y-199835771D02*
X311071428Y-199883390D01*
X311071428Y-199883390D02*
X311119047Y-199978628D01*
X311119047Y-199978628D02*
X311119047Y-200264342D01*
X311119047Y-200264342D02*
X311071428Y-200359580D01*
X311071428Y-200359580D02*
X311023809Y-200407200D01*
X311023809Y-200407200D02*
X310928571Y-200454819D01*
X310928571Y-200454819D02*
X310738095Y-200454819D01*
X310738095Y-200454819D02*
X310642857Y-200407200D01*
X311547619Y-200454819D02*
X311547619Y-199788152D01*
X311547619Y-199454819D02*
X311500000Y-199502438D01*
X311500000Y-199502438D02*
X311547619Y-199550057D01*
X311547619Y-199550057D02*
X311595238Y-199502438D01*
X311595238Y-199502438D02*
X311547619Y-199454819D01*
X311547619Y-199454819D02*
X311547619Y-199550057D01*
X312023809Y-199788152D02*
X312023809Y-200454819D01*
X312023809Y-199883390D02*
X312071428Y-199835771D01*
X312071428Y-199835771D02*
X312166666Y-199788152D01*
X312166666Y-199788152D02*
X312309523Y-199788152D01*
X312309523Y-199788152D02*
X312404761Y-199835771D01*
X312404761Y-199835771D02*
X312452380Y-199931009D01*
X312452380Y-199931009D02*
X312452380Y-200454819D01*
X63999999Y-165454819D02*
X63999999Y-164454819D01*
X63999999Y-164454819D02*
X64571427Y-165454819D01*
X64571427Y-165454819D02*
X64571427Y-164454819D01*
X64904761Y-164454819D02*
X65238094Y-165454819D01*
X65238094Y-165454819D02*
X65571427Y-164454819D01*
X65904761Y-165454819D02*
X65904761Y-164454819D01*
X65904761Y-164454819D02*
X66238094Y-165169104D01*
X66238094Y-165169104D02*
X66571427Y-164454819D01*
X66571427Y-164454819D02*
X66571427Y-165454819D01*
X67428570Y-165407200D02*
X67333332Y-165454819D01*
X67333332Y-165454819D02*
X67142856Y-165454819D01*
X67142856Y-165454819D02*
X67047618Y-165407200D01*
X67047618Y-165407200D02*
X66999999Y-165311961D01*
X66999999Y-165311961D02*
X66999999Y-164931009D01*
X66999999Y-164931009D02*
X67047618Y-164835771D01*
X67047618Y-164835771D02*
X67142856Y-164788152D01*
X67142856Y-164788152D02*
X67333332Y-164788152D01*
X67333332Y-164788152D02*
X67428570Y-164835771D01*
X67428570Y-164835771D02*
X67476189Y-164931009D01*
X67476189Y-164931009D02*
X67476189Y-165026247D01*
X67476189Y-165026247D02*
X66999999Y-165121485D01*
X67666666Y-165550057D02*
X68428570Y-165550057D01*
X68666666Y-165454819D02*
X68666666Y-164454819D01*
X68666666Y-164454819D02*
X68999999Y-165169104D01*
X68999999Y-165169104D02*
X69333332Y-164454819D01*
X69333332Y-164454819D02*
X69333332Y-165454819D01*
X69761904Y-164550057D02*
X69809523Y-164502438D01*
X69809523Y-164502438D02*
X69904761Y-164454819D01*
X69904761Y-164454819D02*
X70142856Y-164454819D01*
X70142856Y-164454819D02*
X70238094Y-164502438D01*
X70238094Y-164502438D02*
X70285713Y-164550057D01*
X70285713Y-164550057D02*
X70333332Y-164645295D01*
X70333332Y-164645295D02*
X70333332Y-164740533D01*
X70333332Y-164740533D02*
X70285713Y-164883390D01*
X70285713Y-164883390D02*
X69714285Y-165454819D01*
X69714285Y-165454819D02*
X70333332Y-165454819D01*
X70523809Y-165550057D02*
X71285713Y-165550057D01*
X71476190Y-165407200D02*
X71619047Y-165454819D01*
X71619047Y-165454819D02*
X71857142Y-165454819D01*
X71857142Y-165454819D02*
X71952380Y-165407200D01*
X71952380Y-165407200D02*
X71999999Y-165359580D01*
X71999999Y-165359580D02*
X72047618Y-165264342D01*
X72047618Y-165264342D02*
X72047618Y-165169104D01*
X72047618Y-165169104D02*
X71999999Y-165073866D01*
X71999999Y-165073866D02*
X71952380Y-165026247D01*
X71952380Y-165026247D02*
X71857142Y-164978628D01*
X71857142Y-164978628D02*
X71666666Y-164931009D01*
X71666666Y-164931009D02*
X71571428Y-164883390D01*
X71571428Y-164883390D02*
X71523809Y-164835771D01*
X71523809Y-164835771D02*
X71476190Y-164740533D01*
X71476190Y-164740533D02*
X71476190Y-164645295D01*
X71476190Y-164645295D02*
X71523809Y-164550057D01*
X71523809Y-164550057D02*
X71571428Y-164502438D01*
X71571428Y-164502438D02*
X71666666Y-164454819D01*
X71666666Y-164454819D02*
X71904761Y-164454819D01*
X71904761Y-164454819D02*
X72047618Y-164502438D01*
X72619047Y-165454819D02*
X72523809Y-165407200D01*
X72523809Y-165407200D02*
X72476190Y-165359580D01*
X72476190Y-165359580D02*
X72428571Y-165264342D01*
X72428571Y-165264342D02*
X72428571Y-164978628D01*
X72428571Y-164978628D02*
X72476190Y-164883390D01*
X72476190Y-164883390D02*
X72523809Y-164835771D01*
X72523809Y-164835771D02*
X72619047Y-164788152D01*
X72619047Y-164788152D02*
X72761904Y-164788152D01*
X72761904Y-164788152D02*
X72857142Y-164835771D01*
X72857142Y-164835771D02*
X72904761Y-164883390D01*
X72904761Y-164883390D02*
X72952380Y-164978628D01*
X72952380Y-164978628D02*
X72952380Y-165264342D01*
X72952380Y-165264342D02*
X72904761Y-165359580D01*
X72904761Y-165359580D02*
X72857142Y-165407200D01*
X72857142Y-165407200D02*
X72761904Y-165454819D01*
X72761904Y-165454819D02*
X72619047Y-165454819D01*
X73809523Y-165407200D02*
X73714285Y-165454819D01*
X73714285Y-165454819D02*
X73523809Y-165454819D01*
X73523809Y-165454819D02*
X73428571Y-165407200D01*
X73428571Y-165407200D02*
X73380952Y-165359580D01*
X73380952Y-165359580D02*
X73333333Y-165264342D01*
X73333333Y-165264342D02*
X73333333Y-164978628D01*
X73333333Y-164978628D02*
X73380952Y-164883390D01*
X73380952Y-164883390D02*
X73428571Y-164835771D01*
X73428571Y-164835771D02*
X73523809Y-164788152D01*
X73523809Y-164788152D02*
X73714285Y-164788152D01*
X73714285Y-164788152D02*
X73809523Y-164835771D01*
X74238095Y-165454819D02*
X74238095Y-164454819D01*
X74333333Y-165073866D02*
X74619047Y-165454819D01*
X74619047Y-164788152D02*
X74238095Y-165169104D01*
X75428571Y-165407200D02*
X75333333Y-165454819D01*
X75333333Y-165454819D02*
X75142857Y-165454819D01*
X75142857Y-165454819D02*
X75047619Y-165407200D01*
X75047619Y-165407200D02*
X75000000Y-165311961D01*
X75000000Y-165311961D02*
X75000000Y-164931009D01*
X75000000Y-164931009D02*
X75047619Y-164835771D01*
X75047619Y-164835771D02*
X75142857Y-164788152D01*
X75142857Y-164788152D02*
X75333333Y-164788152D01*
X75333333Y-164788152D02*
X75428571Y-164835771D01*
X75428571Y-164835771D02*
X75476190Y-164931009D01*
X75476190Y-164931009D02*
X75476190Y-165026247D01*
X75476190Y-165026247D02*
X75000000Y-165121485D01*
X75761905Y-164788152D02*
X76142857Y-164788152D01*
X75904762Y-164454819D02*
X75904762Y-165311961D01*
X75904762Y-165311961D02*
X75952381Y-165407200D01*
X75952381Y-165407200D02*
X76047619Y-165454819D01*
X76047619Y-165454819D02*
X76142857Y-165454819D01*
X63999999Y-225454819D02*
X63999999Y-224454819D01*
X63999999Y-224454819D02*
X64571427Y-225454819D01*
X64571427Y-225454819D02*
X64571427Y-224454819D01*
X64904761Y-224454819D02*
X65238094Y-225454819D01*
X65238094Y-225454819D02*
X65571427Y-224454819D01*
X65904761Y-225454819D02*
X65904761Y-224454819D01*
X65904761Y-224454819D02*
X66238094Y-225169104D01*
X66238094Y-225169104D02*
X66571427Y-224454819D01*
X66571427Y-224454819D02*
X66571427Y-225454819D01*
X67428570Y-225407200D02*
X67333332Y-225454819D01*
X67333332Y-225454819D02*
X67142856Y-225454819D01*
X67142856Y-225454819D02*
X67047618Y-225407200D01*
X67047618Y-225407200D02*
X66999999Y-225311961D01*
X66999999Y-225311961D02*
X66999999Y-224931009D01*
X66999999Y-224931009D02*
X67047618Y-224835771D01*
X67047618Y-224835771D02*
X67142856Y-224788152D01*
X67142856Y-224788152D02*
X67333332Y-224788152D01*
X67333332Y-224788152D02*
X67428570Y-224835771D01*
X67428570Y-224835771D02*
X67476189Y-224931009D01*
X67476189Y-224931009D02*
X67476189Y-225026247D01*
X67476189Y-225026247D02*
X66999999Y-225121485D01*
X67666666Y-225550057D02*
X68428570Y-225550057D01*
X68666666Y-225454819D02*
X68666666Y-224454819D01*
X68666666Y-224454819D02*
X68999999Y-225169104D01*
X68999999Y-225169104D02*
X69333332Y-224454819D01*
X69333332Y-224454819D02*
X69333332Y-225454819D01*
X69761904Y-224550057D02*
X69809523Y-224502438D01*
X69809523Y-224502438D02*
X69904761Y-224454819D01*
X69904761Y-224454819D02*
X70142856Y-224454819D01*
X70142856Y-224454819D02*
X70238094Y-224502438D01*
X70238094Y-224502438D02*
X70285713Y-224550057D01*
X70285713Y-224550057D02*
X70333332Y-224645295D01*
X70333332Y-224645295D02*
X70333332Y-224740533D01*
X70333332Y-224740533D02*
X70285713Y-224883390D01*
X70285713Y-224883390D02*
X69714285Y-225454819D01*
X69714285Y-225454819D02*
X70333332Y-225454819D01*
X70523809Y-225550057D02*
X71285713Y-225550057D01*
X71476190Y-225407200D02*
X71619047Y-225454819D01*
X71619047Y-225454819D02*
X71857142Y-225454819D01*
X71857142Y-225454819D02*
X71952380Y-225407200D01*
X71952380Y-225407200D02*
X71999999Y-225359580D01*
X71999999Y-225359580D02*
X72047618Y-225264342D01*
X72047618Y-225264342D02*
X72047618Y-225169104D01*
X72047618Y-225169104D02*
X71999999Y-225073866D01*
X71999999Y-225073866D02*
X71952380Y-225026247D01*
X71952380Y-225026247D02*
X71857142Y-224978628D01*
X71857142Y-224978628D02*
X71666666Y-224931009D01*
X71666666Y-224931009D02*
X71571428Y-224883390D01*
X71571428Y-224883390D02*
X71523809Y-224835771D01*
X71523809Y-224835771D02*
X71476190Y-224740533D01*
X71476190Y-224740533D02*
X71476190Y-224645295D01*
X71476190Y-224645295D02*
X71523809Y-224550057D01*
X71523809Y-224550057D02*
X71571428Y-224502438D01*
X71571428Y-224502438D02*
X71666666Y-224454819D01*
X71666666Y-224454819D02*
X71904761Y-224454819D01*
X71904761Y-224454819D02*
X72047618Y-224502438D01*
X72619047Y-225454819D02*
X72523809Y-225407200D01*
X72523809Y-225407200D02*
X72476190Y-225359580D01*
X72476190Y-225359580D02*
X72428571Y-225264342D01*
X72428571Y-225264342D02*
X72428571Y-224978628D01*
X72428571Y-224978628D02*
X72476190Y-224883390D01*
X72476190Y-224883390D02*
X72523809Y-224835771D01*
X72523809Y-224835771D02*
X72619047Y-224788152D01*
X72619047Y-224788152D02*
X72761904Y-224788152D01*
X72761904Y-224788152D02*
X72857142Y-224835771D01*
X72857142Y-224835771D02*
X72904761Y-224883390D01*
X72904761Y-224883390D02*
X72952380Y-224978628D01*
X72952380Y-224978628D02*
X72952380Y-225264342D01*
X72952380Y-225264342D02*
X72904761Y-225359580D01*
X72904761Y-225359580D02*
X72857142Y-225407200D01*
X72857142Y-225407200D02*
X72761904Y-225454819D01*
X72761904Y-225454819D02*
X72619047Y-225454819D01*
X73809523Y-225407200D02*
X73714285Y-225454819D01*
X73714285Y-225454819D02*
X73523809Y-225454819D01*
X73523809Y-225454819D02*
X73428571Y-225407200D01*
X73428571Y-225407200D02*
X73380952Y-225359580D01*
X73380952Y-225359580D02*
X73333333Y-225264342D01*
X73333333Y-225264342D02*
X73333333Y-224978628D01*
X73333333Y-224978628D02*
X73380952Y-224883390D01*
X73380952Y-224883390D02*
X73428571Y-224835771D01*
X73428571Y-224835771D02*
X73523809Y-224788152D01*
X73523809Y-224788152D02*
X73714285Y-224788152D01*
X73714285Y-224788152D02*
X73809523Y-224835771D01*
X74238095Y-225454819D02*
X74238095Y-224454819D01*
X74333333Y-225073866D02*
X74619047Y-225454819D01*
X74619047Y-224788152D02*
X74238095Y-225169104D01*
X75428571Y-225407200D02*
X75333333Y-225454819D01*
X75333333Y-225454819D02*
X75142857Y-225454819D01*
X75142857Y-225454819D02*
X75047619Y-225407200D01*
X75047619Y-225407200D02*
X75000000Y-225311961D01*
X75000000Y-225311961D02*
X75000000Y-224931009D01*
X75000000Y-224931009D02*
X75047619Y-224835771D01*
X75047619Y-224835771D02*
X75142857Y-224788152D01*
X75142857Y-224788152D02*
X75333333Y-224788152D01*
X75333333Y-224788152D02*
X75428571Y-224835771D01*
X75428571Y-224835771D02*
X75476190Y-224931009D01*
X75476190Y-224931009D02*
X75476190Y-225026247D01*
X75476190Y-225026247D02*
X75000000Y-225121485D01*
X75761905Y-224788152D02*
X76142857Y-224788152D01*
X75904762Y-224454819D02*
X75904762Y-225311961D01*
X75904762Y-225311961D02*
X75952381Y-225407200D01*
X75952381Y-225407200D02*
X76047619Y-225454819D01*
X76047619Y-225454819D02*
X76142857Y-225454819D01*
X328999999Y-165454819D02*
X328999999Y-164454819D01*
X328999999Y-164454819D02*
X329571427Y-165454819D01*
X329571427Y-165454819D02*
X329571427Y-164454819D01*
X329904761Y-164454819D02*
X330238094Y-165454819D01*
X330238094Y-165454819D02*
X330571427Y-164454819D01*
X330904761Y-165454819D02*
X330904761Y-164454819D01*
X330904761Y-164454819D02*
X331238094Y-165169104D01*
X331238094Y-165169104D02*
X331571427Y-164454819D01*
X331571427Y-164454819D02*
X331571427Y-165454819D01*
X332428570Y-165407200D02*
X332333332Y-165454819D01*
X332333332Y-165454819D02*
X332142856Y-165454819D01*
X332142856Y-165454819D02*
X332047618Y-165407200D01*
X332047618Y-165407200D02*
X331999999Y-165311961D01*
X331999999Y-165311961D02*
X331999999Y-164931009D01*
X331999999Y-164931009D02*
X332047618Y-164835771D01*
X332047618Y-164835771D02*
X332142856Y-164788152D01*
X332142856Y-164788152D02*
X332333332Y-164788152D01*
X332333332Y-164788152D02*
X332428570Y-164835771D01*
X332428570Y-164835771D02*
X332476189Y-164931009D01*
X332476189Y-164931009D02*
X332476189Y-165026247D01*
X332476189Y-165026247D02*
X331999999Y-165121485D01*
X332666666Y-165550057D02*
X333428570Y-165550057D01*
X333666666Y-165454819D02*
X333666666Y-164454819D01*
X333666666Y-164454819D02*
X333999999Y-165169104D01*
X333999999Y-165169104D02*
X334333332Y-164454819D01*
X334333332Y-164454819D02*
X334333332Y-165454819D01*
X334761904Y-164550057D02*
X334809523Y-164502438D01*
X334809523Y-164502438D02*
X334904761Y-164454819D01*
X334904761Y-164454819D02*
X335142856Y-164454819D01*
X335142856Y-164454819D02*
X335238094Y-164502438D01*
X335238094Y-164502438D02*
X335285713Y-164550057D01*
X335285713Y-164550057D02*
X335333332Y-164645295D01*
X335333332Y-164645295D02*
X335333332Y-164740533D01*
X335333332Y-164740533D02*
X335285713Y-164883390D01*
X335285713Y-164883390D02*
X334714285Y-165454819D01*
X334714285Y-165454819D02*
X335333332Y-165454819D01*
X335523809Y-165550057D02*
X336285713Y-165550057D01*
X336476190Y-165407200D02*
X336619047Y-165454819D01*
X336619047Y-165454819D02*
X336857142Y-165454819D01*
X336857142Y-165454819D02*
X336952380Y-165407200D01*
X336952380Y-165407200D02*
X336999999Y-165359580D01*
X336999999Y-165359580D02*
X337047618Y-165264342D01*
X337047618Y-165264342D02*
X337047618Y-165169104D01*
X337047618Y-165169104D02*
X336999999Y-165073866D01*
X336999999Y-165073866D02*
X336952380Y-165026247D01*
X336952380Y-165026247D02*
X336857142Y-164978628D01*
X336857142Y-164978628D02*
X336666666Y-164931009D01*
X336666666Y-164931009D02*
X336571428Y-164883390D01*
X336571428Y-164883390D02*
X336523809Y-164835771D01*
X336523809Y-164835771D02*
X336476190Y-164740533D01*
X336476190Y-164740533D02*
X336476190Y-164645295D01*
X336476190Y-164645295D02*
X336523809Y-164550057D01*
X336523809Y-164550057D02*
X336571428Y-164502438D01*
X336571428Y-164502438D02*
X336666666Y-164454819D01*
X336666666Y-164454819D02*
X336904761Y-164454819D01*
X336904761Y-164454819D02*
X337047618Y-164502438D01*
X337619047Y-165454819D02*
X337523809Y-165407200D01*
X337523809Y-165407200D02*
X337476190Y-165359580D01*
X337476190Y-165359580D02*
X337428571Y-165264342D01*
X337428571Y-165264342D02*
X337428571Y-164978628D01*
X337428571Y-164978628D02*
X337476190Y-164883390D01*
X337476190Y-164883390D02*
X337523809Y-164835771D01*
X337523809Y-164835771D02*
X337619047Y-164788152D01*
X337619047Y-164788152D02*
X337761904Y-164788152D01*
X337761904Y-164788152D02*
X337857142Y-164835771D01*
X337857142Y-164835771D02*
X337904761Y-164883390D01*
X337904761Y-164883390D02*
X337952380Y-164978628D01*
X337952380Y-164978628D02*
X337952380Y-165264342D01*
X337952380Y-165264342D02*
X337904761Y-165359580D01*
X337904761Y-165359580D02*
X337857142Y-165407200D01*
X337857142Y-165407200D02*
X337761904Y-165454819D01*
X337761904Y-165454819D02*
X337619047Y-165454819D01*
X338809523Y-165407200D02*
X338714285Y-165454819D01*
X338714285Y-165454819D02*
X338523809Y-165454819D01*
X338523809Y-165454819D02*
X338428571Y-165407200D01*
X338428571Y-165407200D02*
X338380952Y-165359580D01*
X338380952Y-165359580D02*
X338333333Y-165264342D01*
X338333333Y-165264342D02*
X338333333Y-164978628D01*
X338333333Y-164978628D02*
X338380952Y-164883390D01*
X338380952Y-164883390D02*
X338428571Y-164835771D01*
X338428571Y-164835771D02*
X338523809Y-164788152D01*
X338523809Y-164788152D02*
X338714285Y-164788152D01*
X338714285Y-164788152D02*
X338809523Y-164835771D01*
X339238095Y-165454819D02*
X339238095Y-164454819D01*
X339333333Y-165073866D02*
X339619047Y-165454819D01*
X339619047Y-164788152D02*
X339238095Y-165169104D01*
X340428571Y-165407200D02*
X340333333Y-165454819D01*
X340333333Y-165454819D02*
X340142857Y-165454819D01*
X340142857Y-165454819D02*
X340047619Y-165407200D01*
X340047619Y-165407200D02*
X340000000Y-165311961D01*
X340000000Y-165311961D02*
X340000000Y-164931009D01*
X340000000Y-164931009D02*
X340047619Y-164835771D01*
X340047619Y-164835771D02*
X340142857Y-164788152D01*
X340142857Y-164788152D02*
X340333333Y-164788152D01*
X340333333Y-164788152D02*
X340428571Y-164835771D01*
X340428571Y-164835771D02*
X340476190Y-164931009D01*
X340476190Y-164931009D02*
X340476190Y-165026247D01*
X340476190Y-165026247D02*
X340000000Y-165121485D01*
X340761905Y-164788152D02*
X341142857Y-164788152D01*
X340904762Y-164454819D02*
X340904762Y-165311961D01*
X340904762Y-165311961D02*
X340952381Y-165407200D01*
X340952381Y-165407200D02*
X341047619Y-165454819D01*
X341047619Y-165454819D02*
X341142857Y-165454819D01*
X328999999Y-225454819D02*
X328999999Y-224454819D01*
X328999999Y-224454819D02*
X329571427Y-225454819D01*
X329571427Y-225454819D02*
X329571427Y-224454819D01*
X329904761Y-224454819D02*
X330238094Y-225454819D01*
X330238094Y-225454819D02*
X330571427Y-224454819D01*
X330904761Y-225454819D02*
X330904761Y-224454819D01*
X330904761Y-224454819D02*
X331238094Y-225169104D01*
X331238094Y-225169104D02*
X331571427Y-224454819D01*
X331571427Y-224454819D02*
X331571427Y-225454819D01*
X332428570Y-225407200D02*
X332333332Y-225454819D01*
X332333332Y-225454819D02*
X332142856Y-225454819D01*
X332142856Y-225454819D02*
X332047618Y-225407200D01*
X332047618Y-225407200D02*
X331999999Y-225311961D01*
X331999999Y-225311961D02*
X331999999Y-224931009D01*
X331999999Y-224931009D02*
X332047618Y-224835771D01*
X332047618Y-224835771D02*
X332142856Y-224788152D01*
X332142856Y-224788152D02*
X332333332Y-224788152D01*
X332333332Y-224788152D02*
X332428570Y-224835771D01*
X332428570Y-224835771D02*
X332476189Y-224931009D01*
X332476189Y-224931009D02*
X332476189Y-225026247D01*
X332476189Y-225026247D02*
X331999999Y-225121485D01*
X332666666Y-225550057D02*
X333428570Y-225550057D01*
X333666666Y-225454819D02*
X333666666Y-224454819D01*
X333666666Y-224454819D02*
X333999999Y-225169104D01*
X333999999Y-225169104D02*
X334333332Y-224454819D01*
X334333332Y-224454819D02*
X334333332Y-225454819D01*
X334761904Y-224550057D02*
X334809523Y-224502438D01*
X334809523Y-224502438D02*
X334904761Y-224454819D01*
X334904761Y-224454819D02*
X335142856Y-224454819D01*
X335142856Y-224454819D02*
X335238094Y-224502438D01*
X335238094Y-224502438D02*
X335285713Y-224550057D01*
X335285713Y-224550057D02*
X335333332Y-224645295D01*
X335333332Y-224645295D02*
X335333332Y-224740533D01*
X335333332Y-224740533D02*
X335285713Y-224883390D01*
X335285713Y-224883390D02*
X334714285Y-225454819D01*
X334714285Y-225454819D02*
X335333332Y-225454819D01*
X335523809Y-225550057D02*
X336285713Y-225550057D01*
X336476190Y-225407200D02*
X336619047Y-225454819D01*
X336619047Y-225454819D02*
X336857142Y-225454819D01*
X336857142Y-225454819D02*
X336952380Y-225407200D01*
X336952380Y-225407200D02*
X336999999Y-225359580D01*
X336999999Y-225359580D02*
X337047618Y-225264342D01*
X337047618Y-225264342D02*
X337047618Y-225169104D01*
X337047618Y-225169104D02*
X336999999Y-225073866D01*
X336999999Y-225073866D02*
X336952380Y-225026247D01*
X336952380Y-225026247D02*
X336857142Y-224978628D01*
X336857142Y-224978628D02*
X336666666Y-224931009D01*
X336666666Y-224931009D02*
X336571428Y-224883390D01*
X336571428Y-224883390D02*
X336523809Y-224835771D01*
X336523809Y-224835771D02*
X336476190Y-224740533D01*
X336476190Y-224740533D02*
X336476190Y-224645295D01*
X336476190Y-224645295D02*
X336523809Y-224550057D01*
X336523809Y-224550057D02*
X336571428Y-224502438D01*
X336571428Y-224502438D02*
X336666666Y-224454819D01*
X336666666Y-224454819D02*
X336904761Y-224454819D01*
X336904761Y-224454819D02*
X337047618Y-224502438D01*
X337619047Y-225454819D02*
X337523809Y-225407200D01*
X337523809Y-225407200D02*
X337476190Y-225359580D01*
X337476190Y-225359580D02*
X337428571Y-225264342D01*
X337428571Y-225264342D02*
X337428571Y-224978628D01*
X337428571Y-224978628D02*
X337476190Y-224883390D01*
X337476190Y-224883390D02*
X337523809Y-224835771D01*
X337523809Y-224835771D02*
X337619047Y-224788152D01*
X337619047Y-224788152D02*
X337761904Y-224788152D01*
X337761904Y-224788152D02*
X337857142Y-224835771D01*
X337857142Y-224835771D02*
X337904761Y-224883390D01*
X337904761Y-224883390D02*
X337952380Y-224978628D01*
X337952380Y-224978628D02*
X337952380Y-225264342D01*
X337952380Y-225264342D02*
X337904761Y-225359580D01*
X337904761Y-225359580D02*
X337857142Y-225407200D01*
X337857142Y-225407200D02*
X337761904Y-225454819D01*
X337761904Y-225454819D02*
X337619047Y-225454819D01*
X338809523Y-225407200D02*
X338714285Y-225454819D01*
X338714285Y-225454819D02*
X338523809Y-225454819D01*
X338523809Y-225454819D02*
X338428571Y-225407200D01*
X338428571Y-225407200D02*
X338380952Y-225359580D01*
X338380952Y-225359580D02*
X338333333Y-225264342D01*
X338333333Y-225264342D02*
X338333333Y-224978628D01*
X338333333Y-224978628D02*
X338380952Y-224883390D01*
X338380952Y-224883390D02*
X338428571Y-224835771D01*
X338428571Y-224835771D02*
X338523809Y-224788152D01*
X338523809Y-224788152D02*
X338714285Y-224788152D01*
X338714285Y-224788152D02*
X338809523Y-224835771D01*
X339238095Y-225454819D02*
X339238095Y-224454819D01*
X339333333Y-225073866D02*
X339619047Y-225454819D01*
X339619047Y-224788152D02*
X339238095Y-225169104D01*
X340428571Y-225407200D02*
X340333333Y-225454819D01*
X340333333Y-225454819D02*
X340142857Y-225454819D01*
X340142857Y-225454819D02*
X340047619Y-225407200D01*
X340047619Y-225407200D02*
X340000000Y-225311961D01*
X340000000Y-225311961D02*
X340000000Y-224931009D01*
X340000000Y-224931009D02*
X340047619Y-224835771D01*
X340047619Y-224835771D02*
X340142857Y-224788152D01*
X340142857Y-224788152D02*
X340333333Y-224788152D01*
X340333333Y-224788152D02*
X340428571Y-224835771D01*
X340428571Y-224835771D02*
X340476190Y-224931009D01*
X340476190Y-224931009D02*
X340476190Y-225026247D01*
X340476190Y-225026247D02*
X340000000Y-225121485D01*
X340761905Y-224788152D02*
X341142857Y-224788152D01*
X340904762Y-224454819D02*
X340904762Y-225311961D01*
X340904762Y-225311961D02*
X340952381Y-225407200D01*
X340952381Y-225407200D02*
X341047619Y-225454819D01*
X341047619Y-225454819D02*
X341142857Y-225454819D01*
X144119046Y-324454819D02*
X144119046Y-323454819D01*
X144119046Y-323454819D02*
X144499998Y-323454819D01*
X144499998Y-323454819D02*
X144595236Y-323502438D01*
X144595236Y-323502438D02*
X144642855Y-323550057D01*
X144642855Y-323550057D02*
X144690474Y-323645295D01*
X144690474Y-323645295D02*
X144690474Y-323788152D01*
X144690474Y-323788152D02*
X144642855Y-323883390D01*
X144642855Y-323883390D02*
X144595236Y-323931009D01*
X144595236Y-323931009D02*
X144499998Y-323978628D01*
X144499998Y-323978628D02*
X144119046Y-323978628D01*
X145261903Y-324454819D02*
X145166665Y-324407200D01*
X145166665Y-324407200D02*
X145119046Y-324359580D01*
X145119046Y-324359580D02*
X145071427Y-324264342D01*
X145071427Y-324264342D02*
X145071427Y-323978628D01*
X145071427Y-323978628D02*
X145119046Y-323883390D01*
X145119046Y-323883390D02*
X145166665Y-323835771D01*
X145166665Y-323835771D02*
X145261903Y-323788152D01*
X145261903Y-323788152D02*
X145404760Y-323788152D01*
X145404760Y-323788152D02*
X145499998Y-323835771D01*
X145499998Y-323835771D02*
X145547617Y-323883390D01*
X145547617Y-323883390D02*
X145595236Y-323978628D01*
X145595236Y-323978628D02*
X145595236Y-324264342D01*
X145595236Y-324264342D02*
X145547617Y-324359580D01*
X145547617Y-324359580D02*
X145499998Y-324407200D01*
X145499998Y-324407200D02*
X145404760Y-324454819D01*
X145404760Y-324454819D02*
X145261903Y-324454819D01*
X145928570Y-323788152D02*
X146119046Y-324454819D01*
X146119046Y-324454819D02*
X146309522Y-323978628D01*
X146309522Y-323978628D02*
X146499998Y-324454819D01*
X146499998Y-324454819D02*
X146690474Y-323788152D01*
X147452379Y-324407200D02*
X147357141Y-324454819D01*
X147357141Y-324454819D02*
X147166665Y-324454819D01*
X147166665Y-324454819D02*
X147071427Y-324407200D01*
X147071427Y-324407200D02*
X147023808Y-324311961D01*
X147023808Y-324311961D02*
X147023808Y-323931009D01*
X147023808Y-323931009D02*
X147071427Y-323835771D01*
X147071427Y-323835771D02*
X147166665Y-323788152D01*
X147166665Y-323788152D02*
X147357141Y-323788152D01*
X147357141Y-323788152D02*
X147452379Y-323835771D01*
X147452379Y-323835771D02*
X147499998Y-323931009D01*
X147499998Y-323931009D02*
X147499998Y-324026247D01*
X147499998Y-324026247D02*
X147023808Y-324121485D01*
X147928570Y-324454819D02*
X147928570Y-323788152D01*
X147928570Y-323978628D02*
X147976189Y-323883390D01*
X147976189Y-323883390D02*
X148023808Y-323835771D01*
X148023808Y-323835771D02*
X148119046Y-323788152D01*
X148119046Y-323788152D02*
X148214284Y-323788152D01*
X148309523Y-324550057D02*
X149071427Y-324550057D01*
X149309523Y-324454819D02*
X149309523Y-323454819D01*
X149785713Y-323788152D02*
X149785713Y-324454819D01*
X149785713Y-323883390D02*
X149833332Y-323835771D01*
X149833332Y-323835771D02*
X149928570Y-323788152D01*
X149928570Y-323788152D02*
X150071427Y-323788152D01*
X150071427Y-323788152D02*
X150166665Y-323835771D01*
X150166665Y-323835771D02*
X150214284Y-323931009D01*
X150214284Y-323931009D02*
X150214284Y-324454819D01*
X150690475Y-323788152D02*
X150690475Y-324788152D01*
X150690475Y-323835771D02*
X150785713Y-323788152D01*
X150785713Y-323788152D02*
X150976189Y-323788152D01*
X150976189Y-323788152D02*
X151071427Y-323835771D01*
X151071427Y-323835771D02*
X151119046Y-323883390D01*
X151119046Y-323883390D02*
X151166665Y-323978628D01*
X151166665Y-323978628D02*
X151166665Y-324264342D01*
X151166665Y-324264342D02*
X151119046Y-324359580D01*
X151119046Y-324359580D02*
X151071427Y-324407200D01*
X151071427Y-324407200D02*
X150976189Y-324454819D01*
X150976189Y-324454819D02*
X150785713Y-324454819D01*
X150785713Y-324454819D02*
X150690475Y-324407200D01*
X152023808Y-323788152D02*
X152023808Y-324454819D01*
X151595237Y-323788152D02*
X151595237Y-324311961D01*
X151595237Y-324311961D02*
X151642856Y-324407200D01*
X151642856Y-324407200D02*
X151738094Y-324454819D01*
X151738094Y-324454819D02*
X151880951Y-324454819D01*
X151880951Y-324454819D02*
X151976189Y-324407200D01*
X151976189Y-324407200D02*
X152023808Y-324359580D01*
X152357142Y-323788152D02*
X152738094Y-323788152D01*
X152499999Y-323454819D02*
X152499999Y-324311961D01*
X152499999Y-324311961D02*
X152547618Y-324407200D01*
X152547618Y-324407200D02*
X152642856Y-324454819D01*
X152642856Y-324454819D02*
X152738094Y-324454819D01*
X152833333Y-324550057D02*
X153595237Y-324550057D01*
X154404761Y-324359580D02*
X154357142Y-324407200D01*
X154357142Y-324407200D02*
X154214285Y-324454819D01*
X154214285Y-324454819D02*
X154119047Y-324454819D01*
X154119047Y-324454819D02*
X153976190Y-324407200D01*
X153976190Y-324407200D02*
X153880952Y-324311961D01*
X153880952Y-324311961D02*
X153833333Y-324216723D01*
X153833333Y-324216723D02*
X153785714Y-324026247D01*
X153785714Y-324026247D02*
X153785714Y-323883390D01*
X153785714Y-323883390D02*
X153833333Y-323692914D01*
X153833333Y-323692914D02*
X153880952Y-323597676D01*
X153880952Y-323597676D02*
X153976190Y-323502438D01*
X153976190Y-323502438D02*
X154119047Y-323454819D01*
X154119047Y-323454819D02*
X154214285Y-323454819D01*
X154214285Y-323454819D02*
X154357142Y-323502438D01*
X154357142Y-323502438D02*
X154404761Y-323550057D01*
X154976190Y-324454819D02*
X154880952Y-324407200D01*
X154880952Y-324407200D02*
X154833333Y-324359580D01*
X154833333Y-324359580D02*
X154785714Y-324264342D01*
X154785714Y-324264342D02*
X154785714Y-323978628D01*
X154785714Y-323978628D02*
X154833333Y-323883390D01*
X154833333Y-323883390D02*
X154880952Y-323835771D01*
X154880952Y-323835771D02*
X154976190Y-323788152D01*
X154976190Y-323788152D02*
X155119047Y-323788152D01*
X155119047Y-323788152D02*
X155214285Y-323835771D01*
X155214285Y-323835771D02*
X155261904Y-323883390D01*
X155261904Y-323883390D02*
X155309523Y-323978628D01*
X155309523Y-323978628D02*
X155309523Y-324264342D01*
X155309523Y-324264342D02*
X155261904Y-324359580D01*
X155261904Y-324359580D02*
X155214285Y-324407200D01*
X155214285Y-324407200D02*
X155119047Y-324454819D01*
X155119047Y-324454819D02*
X154976190Y-324454819D01*
X155738095Y-323788152D02*
X155738095Y-324454819D01*
X155738095Y-323883390D02*
X155785714Y-323835771D01*
X155785714Y-323835771D02*
X155880952Y-323788152D01*
X155880952Y-323788152D02*
X156023809Y-323788152D01*
X156023809Y-323788152D02*
X156119047Y-323835771D01*
X156119047Y-323835771D02*
X156166666Y-323931009D01*
X156166666Y-323931009D02*
X156166666Y-324454819D01*
X156642857Y-323788152D02*
X156642857Y-324454819D01*
X156642857Y-323883390D02*
X156690476Y-323835771D01*
X156690476Y-323835771D02*
X156785714Y-323788152D01*
X156785714Y-323788152D02*
X156928571Y-323788152D01*
X156928571Y-323788152D02*
X157023809Y-323835771D01*
X157023809Y-323835771D02*
X157071428Y-323931009D01*
X157071428Y-323931009D02*
X157071428Y-324454819D01*
X157928571Y-324407200D02*
X157833333Y-324454819D01*
X157833333Y-324454819D02*
X157642857Y-324454819D01*
X157642857Y-324454819D02*
X157547619Y-324407200D01*
X157547619Y-324407200D02*
X157500000Y-324311961D01*
X157500000Y-324311961D02*
X157500000Y-323931009D01*
X157500000Y-323931009D02*
X157547619Y-323835771D01*
X157547619Y-323835771D02*
X157642857Y-323788152D01*
X157642857Y-323788152D02*
X157833333Y-323788152D01*
X157833333Y-323788152D02*
X157928571Y-323835771D01*
X157928571Y-323835771D02*
X157976190Y-323931009D01*
X157976190Y-323931009D02*
X157976190Y-324026247D01*
X157976190Y-324026247D02*
X157500000Y-324121485D01*
X158833333Y-324407200D02*
X158738095Y-324454819D01*
X158738095Y-324454819D02*
X158547619Y-324454819D01*
X158547619Y-324454819D02*
X158452381Y-324407200D01*
X158452381Y-324407200D02*
X158404762Y-324359580D01*
X158404762Y-324359580D02*
X158357143Y-324264342D01*
X158357143Y-324264342D02*
X158357143Y-323978628D01*
X158357143Y-323978628D02*
X158404762Y-323883390D01*
X158404762Y-323883390D02*
X158452381Y-323835771D01*
X158452381Y-323835771D02*
X158547619Y-323788152D01*
X158547619Y-323788152D02*
X158738095Y-323788152D01*
X158738095Y-323788152D02*
X158833333Y-323835771D01*
X159119048Y-323788152D02*
X159500000Y-323788152D01*
X159261905Y-323454819D02*
X159261905Y-324311961D01*
X159261905Y-324311961D02*
X159309524Y-324407200D01*
X159309524Y-324407200D02*
X159404762Y-324454819D01*
X159404762Y-324454819D02*
X159500000Y-324454819D01*
X159976191Y-324454819D02*
X159880953Y-324407200D01*
X159880953Y-324407200D02*
X159833334Y-324359580D01*
X159833334Y-324359580D02*
X159785715Y-324264342D01*
X159785715Y-324264342D02*
X159785715Y-323978628D01*
X159785715Y-323978628D02*
X159833334Y-323883390D01*
X159833334Y-323883390D02*
X159880953Y-323835771D01*
X159880953Y-323835771D02*
X159976191Y-323788152D01*
X159976191Y-323788152D02*
X160119048Y-323788152D01*
X160119048Y-323788152D02*
X160214286Y-323835771D01*
X160214286Y-323835771D02*
X160261905Y-323883390D01*
X160261905Y-323883390D02*
X160309524Y-323978628D01*
X160309524Y-323978628D02*
X160309524Y-324264342D01*
X160309524Y-324264342D02*
X160261905Y-324359580D01*
X160261905Y-324359580D02*
X160214286Y-324407200D01*
X160214286Y-324407200D02*
X160119048Y-324454819D01*
X160119048Y-324454819D02*
X159976191Y-324454819D01*
X160738096Y-324454819D02*
X160738096Y-323788152D01*
X160738096Y-323978628D02*
X160785715Y-323883390D01*
X160785715Y-323883390D02*
X160833334Y-323835771D01*
X160833334Y-323835771D02*
X160928572Y-323788152D01*
X160928572Y-323788152D02*
X161023810Y-323788152D01*
X244119046Y-324454819D02*
X244119046Y-323454819D01*
X244119046Y-323454819D02*
X244499998Y-323454819D01*
X244499998Y-323454819D02*
X244595236Y-323502438D01*
X244595236Y-323502438D02*
X244642855Y-323550057D01*
X244642855Y-323550057D02*
X244690474Y-323645295D01*
X244690474Y-323645295D02*
X244690474Y-323788152D01*
X244690474Y-323788152D02*
X244642855Y-323883390D01*
X244642855Y-323883390D02*
X244595236Y-323931009D01*
X244595236Y-323931009D02*
X244499998Y-323978628D01*
X244499998Y-323978628D02*
X244119046Y-323978628D01*
X245261903Y-324454819D02*
X245166665Y-324407200D01*
X245166665Y-324407200D02*
X245119046Y-324359580D01*
X245119046Y-324359580D02*
X245071427Y-324264342D01*
X245071427Y-324264342D02*
X245071427Y-323978628D01*
X245071427Y-323978628D02*
X245119046Y-323883390D01*
X245119046Y-323883390D02*
X245166665Y-323835771D01*
X245166665Y-323835771D02*
X245261903Y-323788152D01*
X245261903Y-323788152D02*
X245404760Y-323788152D01*
X245404760Y-323788152D02*
X245499998Y-323835771D01*
X245499998Y-323835771D02*
X245547617Y-323883390D01*
X245547617Y-323883390D02*
X245595236Y-323978628D01*
X245595236Y-323978628D02*
X245595236Y-324264342D01*
X245595236Y-324264342D02*
X245547617Y-324359580D01*
X245547617Y-324359580D02*
X245499998Y-324407200D01*
X245499998Y-324407200D02*
X245404760Y-324454819D01*
X245404760Y-324454819D02*
X245261903Y-324454819D01*
X245928570Y-323788152D02*
X246119046Y-324454819D01*
X246119046Y-324454819D02*
X246309522Y-323978628D01*
X246309522Y-323978628D02*
X246499998Y-324454819D01*
X246499998Y-324454819D02*
X246690474Y-323788152D01*
X247452379Y-324407200D02*
X247357141Y-324454819D01*
X247357141Y-324454819D02*
X247166665Y-324454819D01*
X247166665Y-324454819D02*
X247071427Y-324407200D01*
X247071427Y-324407200D02*
X247023808Y-324311961D01*
X247023808Y-324311961D02*
X247023808Y-323931009D01*
X247023808Y-323931009D02*
X247071427Y-323835771D01*
X247071427Y-323835771D02*
X247166665Y-323788152D01*
X247166665Y-323788152D02*
X247357141Y-323788152D01*
X247357141Y-323788152D02*
X247452379Y-323835771D01*
X247452379Y-323835771D02*
X247499998Y-323931009D01*
X247499998Y-323931009D02*
X247499998Y-324026247D01*
X247499998Y-324026247D02*
X247023808Y-324121485D01*
X247928570Y-324454819D02*
X247928570Y-323788152D01*
X247928570Y-323978628D02*
X247976189Y-323883390D01*
X247976189Y-323883390D02*
X248023808Y-323835771D01*
X248023808Y-323835771D02*
X248119046Y-323788152D01*
X248119046Y-323788152D02*
X248214284Y-323788152D01*
X248309523Y-324550057D02*
X249071427Y-324550057D01*
X249309523Y-324454819D02*
X249309523Y-323454819D01*
X249785713Y-323788152D02*
X249785713Y-324454819D01*
X249785713Y-323883390D02*
X249833332Y-323835771D01*
X249833332Y-323835771D02*
X249928570Y-323788152D01*
X249928570Y-323788152D02*
X250071427Y-323788152D01*
X250071427Y-323788152D02*
X250166665Y-323835771D01*
X250166665Y-323835771D02*
X250214284Y-323931009D01*
X250214284Y-323931009D02*
X250214284Y-324454819D01*
X250690475Y-323788152D02*
X250690475Y-324788152D01*
X250690475Y-323835771D02*
X250785713Y-323788152D01*
X250785713Y-323788152D02*
X250976189Y-323788152D01*
X250976189Y-323788152D02*
X251071427Y-323835771D01*
X251071427Y-323835771D02*
X251119046Y-323883390D01*
X251119046Y-323883390D02*
X251166665Y-323978628D01*
X251166665Y-323978628D02*
X251166665Y-324264342D01*
X251166665Y-324264342D02*
X251119046Y-324359580D01*
X251119046Y-324359580D02*
X251071427Y-324407200D01*
X251071427Y-324407200D02*
X250976189Y-324454819D01*
X250976189Y-324454819D02*
X250785713Y-324454819D01*
X250785713Y-324454819D02*
X250690475Y-324407200D01*
X252023808Y-323788152D02*
X252023808Y-324454819D01*
X251595237Y-323788152D02*
X251595237Y-324311961D01*
X251595237Y-324311961D02*
X251642856Y-324407200D01*
X251642856Y-324407200D02*
X251738094Y-324454819D01*
X251738094Y-324454819D02*
X251880951Y-324454819D01*
X251880951Y-324454819D02*
X251976189Y-324407200D01*
X251976189Y-324407200D02*
X252023808Y-324359580D01*
X252357142Y-323788152D02*
X252738094Y-323788152D01*
X252499999Y-323454819D02*
X252499999Y-324311961D01*
X252499999Y-324311961D02*
X252547618Y-324407200D01*
X252547618Y-324407200D02*
X252642856Y-324454819D01*
X252642856Y-324454819D02*
X252738094Y-324454819D01*
X252833333Y-324550057D02*
X253595237Y-324550057D01*
X254404761Y-324359580D02*
X254357142Y-324407200D01*
X254357142Y-324407200D02*
X254214285Y-324454819D01*
X254214285Y-324454819D02*
X254119047Y-324454819D01*
X254119047Y-324454819D02*
X253976190Y-324407200D01*
X253976190Y-324407200D02*
X253880952Y-324311961D01*
X253880952Y-324311961D02*
X253833333Y-324216723D01*
X253833333Y-324216723D02*
X253785714Y-324026247D01*
X253785714Y-324026247D02*
X253785714Y-323883390D01*
X253785714Y-323883390D02*
X253833333Y-323692914D01*
X253833333Y-323692914D02*
X253880952Y-323597676D01*
X253880952Y-323597676D02*
X253976190Y-323502438D01*
X253976190Y-323502438D02*
X254119047Y-323454819D01*
X254119047Y-323454819D02*
X254214285Y-323454819D01*
X254214285Y-323454819D02*
X254357142Y-323502438D01*
X254357142Y-323502438D02*
X254404761Y-323550057D01*
X254976190Y-324454819D02*
X254880952Y-324407200D01*
X254880952Y-324407200D02*
X254833333Y-324359580D01*
X254833333Y-324359580D02*
X254785714Y-324264342D01*
X254785714Y-324264342D02*
X254785714Y-323978628D01*
X254785714Y-323978628D02*
X254833333Y-323883390D01*
X254833333Y-323883390D02*
X254880952Y-323835771D01*
X254880952Y-323835771D02*
X254976190Y-323788152D01*
X254976190Y-323788152D02*
X255119047Y-323788152D01*
X255119047Y-323788152D02*
X255214285Y-323835771D01*
X255214285Y-323835771D02*
X255261904Y-323883390D01*
X255261904Y-323883390D02*
X255309523Y-323978628D01*
X255309523Y-323978628D02*
X255309523Y-324264342D01*
X255309523Y-324264342D02*
X255261904Y-324359580D01*
X255261904Y-324359580D02*
X255214285Y-324407200D01*
X255214285Y-324407200D02*
X255119047Y-324454819D01*
X255119047Y-324454819D02*
X254976190Y-324454819D01*
X255738095Y-323788152D02*
X255738095Y-324454819D01*
X255738095Y-323883390D02*
X255785714Y-323835771D01*
X255785714Y-323835771D02*
X255880952Y-323788152D01*
X255880952Y-323788152D02*
X256023809Y-323788152D01*
X256023809Y-323788152D02*
X256119047Y-323835771D01*
X256119047Y-323835771D02*
X256166666Y-323931009D01*
X256166666Y-323931009D02*
X256166666Y-324454819D01*
X256642857Y-323788152D02*
X256642857Y-324454819D01*
X256642857Y-323883390D02*
X256690476Y-323835771D01*
X256690476Y-323835771D02*
X256785714Y-323788152D01*
X256785714Y-323788152D02*
X256928571Y-323788152D01*
X256928571Y-323788152D02*
X257023809Y-323835771D01*
X257023809Y-323835771D02*
X257071428Y-323931009D01*
X257071428Y-323931009D02*
X257071428Y-324454819D01*
X257928571Y-324407200D02*
X257833333Y-324454819D01*
X257833333Y-324454819D02*
X257642857Y-324454819D01*
X257642857Y-324454819D02*
X257547619Y-324407200D01*
X257547619Y-324407200D02*
X257500000Y-324311961D01*
X257500000Y-324311961D02*
X257500000Y-323931009D01*
X257500000Y-323931009D02*
X257547619Y-323835771D01*
X257547619Y-323835771D02*
X257642857Y-323788152D01*
X257642857Y-323788152D02*
X257833333Y-323788152D01*
X257833333Y-323788152D02*
X257928571Y-323835771D01*
X257928571Y-323835771D02*
X257976190Y-323931009D01*
X257976190Y-323931009D02*
X257976190Y-324026247D01*
X257976190Y-324026247D02*
X257500000Y-324121485D01*
X258833333Y-324407200D02*
X258738095Y-324454819D01*
X258738095Y-324454819D02*
X258547619Y-324454819D01*
X258547619Y-324454819D02*
X258452381Y-324407200D01*
X258452381Y-324407200D02*
X258404762Y-324359580D01*
X258404762Y-324359580D02*
X258357143Y-324264342D01*
X258357143Y-324264342D02*
X258357143Y-323978628D01*
X258357143Y-323978628D02*
X258404762Y-323883390D01*
X258404762Y-323883390D02*
X258452381Y-323835771D01*
X258452381Y-323835771D02*
X258547619Y-323788152D01*
X258547619Y-323788152D02*
X258738095Y-323788152D01*
X258738095Y-323788152D02*
X258833333Y-323835771D01*
X259119048Y-323788152D02*
X259500000Y-323788152D01*
X259261905Y-323454819D02*
X259261905Y-324311961D01*
X259261905Y-324311961D02*
X259309524Y-324407200D01*
X259309524Y-324407200D02*
X259404762Y-324454819D01*
X259404762Y-324454819D02*
X259500000Y-324454819D01*
X259976191Y-324454819D02*
X259880953Y-324407200D01*
X259880953Y-324407200D02*
X259833334Y-324359580D01*
X259833334Y-324359580D02*
X259785715Y-324264342D01*
X259785715Y-324264342D02*
X259785715Y-323978628D01*
X259785715Y-323978628D02*
X259833334Y-323883390D01*
X259833334Y-323883390D02*
X259880953Y-323835771D01*
X259880953Y-323835771D02*
X259976191Y-323788152D01*
X259976191Y-323788152D02*
X260119048Y-323788152D01*
X260119048Y-323788152D02*
X260214286Y-323835771D01*
X260214286Y-323835771D02*
X260261905Y-323883390D01*
X260261905Y-323883390D02*
X260309524Y-323978628D01*
X260309524Y-323978628D02*
X260309524Y-324264342D01*
X260309524Y-324264342D02*
X260261905Y-324359580D01*
X260261905Y-324359580D02*
X260214286Y-324407200D01*
X260214286Y-324407200D02*
X260119048Y-324454819D01*
X260119048Y-324454819D02*
X259976191Y-324454819D01*
X260738096Y-324454819D02*
X260738096Y-323788152D01*
X260738096Y-323978628D02*
X260785715Y-323883390D01*
X260785715Y-323883390D02*
X260833334Y-323835771D01*
X260833334Y-323835771D02*
X260928572Y-323788152D01*
X260928572Y-323788152D02*
X261023810Y-323788152D01*
M02*
