G04 VLSI Layer: FPGA Logic Array (Active)*
%FSLAX36Y36*%
%MOIN*%
G75*
G01*
G54D10*
%ADD10R,0.01X0.01*%
D10*
X200000Y240000D02*
X240000Y240000D01*
X240000Y200000D01*
X200000Y200000D01*
X200000Y240000D01*
X220000Y220000D02*
X240000Y240000D01*
X200000Y330000D02*
X240000Y330000D01*
X240000Y290000D01*
X200000Y290000D01*
X200000Y330000D01*
X220000Y310000D02*
X240000Y330000D01*
X200000Y420000D02*
X240000Y420000D01*
X240000Y380000D01*
X200000Y380000D01*
X200000Y420000D01*
X220000Y400000D02*
X240000Y420000D01*
X200000Y510000D02*
X240000Y510000D01*
X240000Y470000D01*
X200000Y470000D01*
X200000Y510000D01*
X220000Y490000D02*
X240000Y510000D01*
X200000Y600000D02*
X240000Y600000D01*
X240000Y560000D01*
X200000Y560000D01*
X200000Y600000D01*
X220000Y580000D02*
X240000Y600000D01*
X200000Y690000D02*
X240000Y690000D01*
X240000Y649999D01*
X200000Y649999D01*
X200000Y690000D01*
X220000Y669999D02*
X240000Y690000D01*
X200000Y780000D02*
X240000Y780000D01*
X240000Y740000D01*
X200000Y740000D01*
X200000Y780000D01*
X220000Y760000D02*
X240000Y780000D01*
X200000Y870000D02*
X240000Y870000D01*
X240000Y830000D01*
X200000Y830000D01*
X200000Y870000D01*
X220000Y850000D02*
X240000Y870000D01*
X200000Y960000D02*
X240000Y960000D01*
X240000Y919999D01*
X200000Y919999D01*
X200000Y960000D01*
X220000Y940000D02*
X240000Y960000D01*
X200000Y1050000D02*
X240000Y1050000D01*
X240000Y1010000D01*
X200000Y1010000D01*
X200000Y1050000D01*
X220000Y1030000D02*
X240000Y1050000D01*
X200000Y1140000D02*
X240000Y1140000D01*
X240000Y1099999D01*
X200000Y1099999D01*
X200000Y1140000D01*
X220000Y1120000D02*
X240000Y1140000D01*
X200000Y1230000D02*
X240000Y1230000D01*
X240000Y1190000D01*
X200000Y1190000D01*
X200000Y1230000D01*
X220000Y1210000D02*
X240000Y1230000D01*
X200000Y1320000D02*
X240000Y1320000D01*
X240000Y1280000D01*
X200000Y1280000D01*
X200000Y1320000D01*
X220000Y1300000D02*
X240000Y1320000D01*
X200000Y1410000D02*
X240000Y1410000D01*
X240000Y1370000D01*
X200000Y1370000D01*
X200000Y1410000D01*
X220000Y1390000D02*
X240000Y1410000D01*
X200000Y1500000D02*
X240000Y1500000D01*
X240000Y1460000D01*
X200000Y1460000D01*
X200000Y1500000D01*
X220000Y1480000D02*
X240000Y1500000D01*
X200000Y1589999D02*
X240000Y1589999D01*
X240000Y1549999D01*
X200000Y1549999D01*
X200000Y1589999D01*
X220000Y1569999D02*
X240000Y1589999D01*
X290000Y240000D02*
X330000Y240000D01*
X330000Y200000D01*
X290000Y200000D01*
X290000Y240000D01*
X310000Y220000D02*
X330000Y240000D01*
X290000Y330000D02*
X330000Y330000D01*
X330000Y290000D01*
X290000Y290000D01*
X290000Y330000D01*
X310000Y310000D02*
X330000Y330000D01*
X290000Y420000D02*
X330000Y420000D01*
X330000Y380000D01*
X290000Y380000D01*
X290000Y420000D01*
X310000Y400000D02*
X330000Y420000D01*
X290000Y510000D02*
X330000Y510000D01*
X330000Y470000D01*
X290000Y470000D01*
X290000Y510000D01*
X310000Y490000D02*
X330000Y510000D01*
X290000Y600000D02*
X330000Y600000D01*
X330000Y560000D01*
X290000Y560000D01*
X290000Y600000D01*
X310000Y580000D02*
X330000Y600000D01*
X290000Y690000D02*
X330000Y690000D01*
X330000Y649999D01*
X290000Y649999D01*
X290000Y690000D01*
X310000Y669999D02*
X330000Y690000D01*
X290000Y780000D02*
X330000Y780000D01*
X330000Y740000D01*
X290000Y740000D01*
X290000Y780000D01*
X310000Y760000D02*
X330000Y780000D01*
X290000Y870000D02*
X330000Y870000D01*
X330000Y830000D01*
X290000Y830000D01*
X290000Y870000D01*
X310000Y850000D02*
X330000Y870000D01*
X290000Y960000D02*
X330000Y960000D01*
X330000Y919999D01*
X290000Y919999D01*
X290000Y960000D01*
X310000Y940000D02*
X330000Y960000D01*
X290000Y1050000D02*
X330000Y1050000D01*
X330000Y1010000D01*
X290000Y1010000D01*
X290000Y1050000D01*
X310000Y1030000D02*
X330000Y1050000D01*
X290000Y1140000D02*
X330000Y1140000D01*
X330000Y1099999D01*
X290000Y1099999D01*
X290000Y1140000D01*
X310000Y1120000D02*
X330000Y1140000D01*
X290000Y1230000D02*
X330000Y1230000D01*
X330000Y1190000D01*
X290000Y1190000D01*
X290000Y1230000D01*
X310000Y1210000D02*
X330000Y1230000D01*
X290000Y1320000D02*
X330000Y1320000D01*
X330000Y1280000D01*
X290000Y1280000D01*
X290000Y1320000D01*
X310000Y1300000D02*
X330000Y1320000D01*
X290000Y1410000D02*
X330000Y1410000D01*
X330000Y1370000D01*
X290000Y1370000D01*
X290000Y1410000D01*
X310000Y1390000D02*
X330000Y1410000D01*
X290000Y1500000D02*
X330000Y1500000D01*
X330000Y1460000D01*
X290000Y1460000D01*
X290000Y1500000D01*
X310000Y1480000D02*
X330000Y1500000D01*
X290000Y1589999D02*
X330000Y1589999D01*
X330000Y1549999D01*
X290000Y1549999D01*
X290000Y1589999D01*
X310000Y1569999D02*
X330000Y1589999D01*
X380000Y240000D02*
X420000Y240000D01*
X420000Y200000D01*
X380000Y200000D01*
X380000Y240000D01*
X400000Y220000D02*
X420000Y240000D01*
X380000Y330000D02*
X420000Y330000D01*
X420000Y290000D01*
X380000Y290000D01*
X380000Y330000D01*
X400000Y310000D02*
X420000Y330000D01*
X380000Y420000D02*
X420000Y420000D01*
X420000Y380000D01*
X380000Y380000D01*
X380000Y420000D01*
X400000Y400000D02*
X420000Y420000D01*
X380000Y510000D02*
X420000Y510000D01*
X420000Y470000D01*
X380000Y470000D01*
X380000Y510000D01*
X400000Y490000D02*
X420000Y510000D01*
X380000Y600000D02*
X420000Y600000D01*
X420000Y560000D01*
X380000Y560000D01*
X380000Y600000D01*
X400000Y580000D02*
X420000Y600000D01*
X380000Y690000D02*
X420000Y690000D01*
X420000Y649999D01*
X380000Y649999D01*
X380000Y690000D01*
X400000Y669999D02*
X420000Y690000D01*
X380000Y780000D02*
X420000Y780000D01*
X420000Y740000D01*
X380000Y740000D01*
X380000Y780000D01*
X400000Y760000D02*
X420000Y780000D01*
X380000Y870000D02*
X420000Y870000D01*
X420000Y830000D01*
X380000Y830000D01*
X380000Y870000D01*
X400000Y850000D02*
X420000Y870000D01*
X380000Y960000D02*
X420000Y960000D01*
X420000Y919999D01*
X380000Y919999D01*
X380000Y960000D01*
X400000Y940000D02*
X420000Y960000D01*
X380000Y1050000D02*
X420000Y1050000D01*
X420000Y1010000D01*
X380000Y1010000D01*
X380000Y1050000D01*
X400000Y1030000D02*
X420000Y1050000D01*
X380000Y1140000D02*
X420000Y1140000D01*
X420000Y1099999D01*
X380000Y1099999D01*
X380000Y1140000D01*
X400000Y1120000D02*
X420000Y1140000D01*
X380000Y1230000D02*
X420000Y1230000D01*
X420000Y1190000D01*
X380000Y1190000D01*
X380000Y1230000D01*
X400000Y1210000D02*
X420000Y1230000D01*
X380000Y1320000D02*
X420000Y1320000D01*
X420000Y1280000D01*
X380000Y1280000D01*
X380000Y1320000D01*
X400000Y1300000D02*
X420000Y1320000D01*
X380000Y1410000D02*
X420000Y1410000D01*
X420000Y1370000D01*
X380000Y1370000D01*
X380000Y1410000D01*
X400000Y1390000D02*
X420000Y1410000D01*
X380000Y1500000D02*
X420000Y1500000D01*
X420000Y1460000D01*
X380000Y1460000D01*
X380000Y1500000D01*
X400000Y1480000D02*
X420000Y1500000D01*
X380000Y1589999D02*
X420000Y1589999D01*
X420000Y1549999D01*
X380000Y1549999D01*
X380000Y1589999D01*
X400000Y1569999D02*
X420000Y1589999D01*
X470000Y240000D02*
X510000Y240000D01*
X510000Y200000D01*
X470000Y200000D01*
X470000Y240000D01*
X490000Y220000D02*
X510000Y240000D01*
X470000Y330000D02*
X510000Y330000D01*
X510000Y290000D01*
X470000Y290000D01*
X470000Y330000D01*
X490000Y310000D02*
X510000Y330000D01*
X470000Y420000D02*
X510000Y420000D01*
X510000Y380000D01*
X470000Y380000D01*
X470000Y420000D01*
X490000Y400000D02*
X510000Y420000D01*
X470000Y510000D02*
X510000Y510000D01*
X510000Y470000D01*
X470000Y470000D01*
X470000Y510000D01*
X490000Y490000D02*
X510000Y510000D01*
X470000Y600000D02*
X510000Y600000D01*
X510000Y560000D01*
X470000Y560000D01*
X470000Y600000D01*
X490000Y580000D02*
X510000Y600000D01*
X470000Y690000D02*
X510000Y690000D01*
X510000Y649999D01*
X470000Y649999D01*
X470000Y690000D01*
X490000Y669999D02*
X510000Y690000D01*
X470000Y780000D02*
X510000Y780000D01*
X510000Y740000D01*
X470000Y740000D01*
X470000Y780000D01*
X490000Y760000D02*
X510000Y780000D01*
X470000Y870000D02*
X510000Y870000D01*
X510000Y830000D01*
X470000Y830000D01*
X470000Y870000D01*
X490000Y850000D02*
X510000Y870000D01*
X470000Y960000D02*
X510000Y960000D01*
X510000Y919999D01*
X470000Y919999D01*
X470000Y960000D01*
X490000Y940000D02*
X510000Y960000D01*
X470000Y1050000D02*
X510000Y1050000D01*
X510000Y1010000D01*
X470000Y1010000D01*
X470000Y1050000D01*
X490000Y1030000D02*
X510000Y1050000D01*
X470000Y1140000D02*
X510000Y1140000D01*
X510000Y1099999D01*
X470000Y1099999D01*
X470000Y1140000D01*
X490000Y1120000D02*
X510000Y1140000D01*
X470000Y1230000D02*
X510000Y1230000D01*
X510000Y1190000D01*
X470000Y1190000D01*
X470000Y1230000D01*
X490000Y1210000D02*
X510000Y1230000D01*
X470000Y1320000D02*
X510000Y1320000D01*
X510000Y1280000D01*
X470000Y1280000D01*
X470000Y1320000D01*
X490000Y1300000D02*
X510000Y1320000D01*
X470000Y1410000D02*
X510000Y1410000D01*
X510000Y1370000D01*
X470000Y1370000D01*
X470000Y1410000D01*
X490000Y1390000D02*
X510000Y1410000D01*
X470000Y1500000D02*
X510000Y1500000D01*
X510000Y1460000D01*
X470000Y1460000D01*
X470000Y1500000D01*
X490000Y1480000D02*
X510000Y1500000D01*
X470000Y1589999D02*
X510000Y1589999D01*
X510000Y1549999D01*
X470000Y1549999D01*
X470000Y1589999D01*
X490000Y1569999D02*
X510000Y1589999D01*
X560000Y240000D02*
X600000Y240000D01*
X600000Y200000D01*
X560000Y200000D01*
X560000Y240000D01*
X580000Y220000D02*
X600000Y240000D01*
X560000Y330000D02*
X600000Y330000D01*
X600000Y290000D01*
X560000Y290000D01*
X560000Y330000D01*
X580000Y310000D02*
X600000Y330000D01*
X560000Y420000D02*
X600000Y420000D01*
X600000Y380000D01*
X560000Y380000D01*
X560000Y420000D01*
X580000Y400000D02*
X600000Y420000D01*
X560000Y510000D02*
X600000Y510000D01*
X600000Y470000D01*
X560000Y470000D01*
X560000Y510000D01*
X580000Y490000D02*
X600000Y510000D01*
X560000Y600000D02*
X600000Y600000D01*
X600000Y560000D01*
X560000Y560000D01*
X560000Y600000D01*
X580000Y580000D02*
X600000Y600000D01*
X560000Y690000D02*
X600000Y690000D01*
X600000Y649999D01*
X560000Y649999D01*
X560000Y690000D01*
X580000Y669999D02*
X600000Y690000D01*
X560000Y780000D02*
X600000Y780000D01*
X600000Y740000D01*
X560000Y740000D01*
X560000Y780000D01*
X580000Y760000D02*
X600000Y780000D01*
X560000Y870000D02*
X600000Y870000D01*
X600000Y830000D01*
X560000Y830000D01*
X560000Y870000D01*
X580000Y850000D02*
X600000Y870000D01*
X560000Y960000D02*
X600000Y960000D01*
X600000Y919999D01*
X560000Y919999D01*
X560000Y960000D01*
X580000Y940000D02*
X600000Y960000D01*
X560000Y1050000D02*
X600000Y1050000D01*
X600000Y1010000D01*
X560000Y1010000D01*
X560000Y1050000D01*
X580000Y1030000D02*
X600000Y1050000D01*
X560000Y1140000D02*
X600000Y1140000D01*
X600000Y1099999D01*
X560000Y1099999D01*
X560000Y1140000D01*
X580000Y1120000D02*
X600000Y1140000D01*
X560000Y1230000D02*
X600000Y1230000D01*
X600000Y1190000D01*
X560000Y1190000D01*
X560000Y1230000D01*
X580000Y1210000D02*
X600000Y1230000D01*
X560000Y1320000D02*
X600000Y1320000D01*
X600000Y1280000D01*
X560000Y1280000D01*
X560000Y1320000D01*
X580000Y1300000D02*
X600000Y1320000D01*
X560000Y1410000D02*
X600000Y1410000D01*
X600000Y1370000D01*
X560000Y1370000D01*
X560000Y1410000D01*
X580000Y1390000D02*
X600000Y1410000D01*
X560000Y1500000D02*
X600000Y1500000D01*
X600000Y1460000D01*
X560000Y1460000D01*
X560000Y1500000D01*
X580000Y1480000D02*
X600000Y1500000D01*
X560000Y1589999D02*
X600000Y1589999D01*
X600000Y1549999D01*
X560000Y1549999D01*
X560000Y1589999D01*
X580000Y1569999D02*
X600000Y1589999D01*
X649999Y240000D02*
X690000Y240000D01*
X690000Y200000D01*
X649999Y200000D01*
X649999Y240000D01*
X669999Y220000D02*
X690000Y240000D01*
X649999Y330000D02*
X690000Y330000D01*
X690000Y290000D01*
X649999Y290000D01*
X649999Y330000D01*
X669999Y310000D02*
X690000Y330000D01*
X649999Y420000D02*
X690000Y420000D01*
X690000Y380000D01*
X649999Y380000D01*
X649999Y420000D01*
X669999Y400000D02*
X690000Y420000D01*
X649999Y510000D02*
X690000Y510000D01*
X690000Y470000D01*
X649999Y470000D01*
X649999Y510000D01*
X669999Y490000D02*
X690000Y510000D01*
X649999Y600000D02*
X690000Y600000D01*
X690000Y560000D01*
X649999Y560000D01*
X649999Y600000D01*
X669999Y580000D02*
X690000Y600000D01*
X649999Y690000D02*
X690000Y690000D01*
X690000Y649999D01*
X649999Y649999D01*
X649999Y690000D01*
X669999Y669999D02*
X690000Y690000D01*
X649999Y780000D02*
X690000Y780000D01*
X690000Y740000D01*
X649999Y740000D01*
X649999Y780000D01*
X669999Y760000D02*
X690000Y780000D01*
X649999Y870000D02*
X690000Y870000D01*
X690000Y830000D01*
X649999Y830000D01*
X649999Y870000D01*
X669999Y850000D02*
X690000Y870000D01*
X649999Y960000D02*
X690000Y960000D01*
X690000Y919999D01*
X649999Y919999D01*
X649999Y960000D01*
X669999Y940000D02*
X690000Y960000D01*
X649999Y1050000D02*
X690000Y1050000D01*
X690000Y1010000D01*
X649999Y1010000D01*
X649999Y1050000D01*
X669999Y1030000D02*
X690000Y1050000D01*
X649999Y1140000D02*
X690000Y1140000D01*
X690000Y1099999D01*
X649999Y1099999D01*
X649999Y1140000D01*
X669999Y1120000D02*
X690000Y1140000D01*
X649999Y1230000D02*
X690000Y1230000D01*
X690000Y1190000D01*
X649999Y1190000D01*
X649999Y1230000D01*
X669999Y1210000D02*
X690000Y1230000D01*
X649999Y1320000D02*
X690000Y1320000D01*
X690000Y1280000D01*
X649999Y1280000D01*
X649999Y1320000D01*
X669999Y1300000D02*
X690000Y1320000D01*
X649999Y1410000D02*
X690000Y1410000D01*
X690000Y1370000D01*
X649999Y1370000D01*
X649999Y1410000D01*
X669999Y1390000D02*
X690000Y1410000D01*
X649999Y1500000D02*
X690000Y1500000D01*
X690000Y1460000D01*
X649999Y1460000D01*
X649999Y1500000D01*
X669999Y1480000D02*
X690000Y1500000D01*
X649999Y1589999D02*
X690000Y1589999D01*
X690000Y1549999D01*
X649999Y1549999D01*
X649999Y1589999D01*
X669999Y1569999D02*
X690000Y1589999D01*
X740000Y240000D02*
X780000Y240000D01*
X780000Y200000D01*
X740000Y200000D01*
X740000Y240000D01*
X760000Y220000D02*
X780000Y240000D01*
X740000Y330000D02*
X780000Y330000D01*
X780000Y290000D01*
X740000Y290000D01*
X740000Y330000D01*
X760000Y310000D02*
X780000Y330000D01*
X740000Y420000D02*
X780000Y420000D01*
X780000Y380000D01*
X740000Y380000D01*
X740000Y420000D01*
X760000Y400000D02*
X780000Y420000D01*
X740000Y510000D02*
X780000Y510000D01*
X780000Y470000D01*
X740000Y470000D01*
X740000Y510000D01*
X760000Y490000D02*
X780000Y510000D01*
X740000Y600000D02*
X780000Y600000D01*
X780000Y560000D01*
X740000Y560000D01*
X740000Y600000D01*
X760000Y580000D02*
X780000Y600000D01*
X740000Y690000D02*
X780000Y690000D01*
X780000Y649999D01*
X740000Y649999D01*
X740000Y690000D01*
X760000Y669999D02*
X780000Y690000D01*
X740000Y780000D02*
X780000Y780000D01*
X780000Y740000D01*
X740000Y740000D01*
X740000Y780000D01*
X760000Y760000D02*
X780000Y780000D01*
X740000Y870000D02*
X780000Y870000D01*
X780000Y830000D01*
X740000Y830000D01*
X740000Y870000D01*
X760000Y850000D02*
X780000Y870000D01*
X740000Y960000D02*
X780000Y960000D01*
X780000Y919999D01*
X740000Y919999D01*
X740000Y960000D01*
X760000Y940000D02*
X780000Y960000D01*
X740000Y1050000D02*
X780000Y1050000D01*
X780000Y1010000D01*
X740000Y1010000D01*
X740000Y1050000D01*
X760000Y1030000D02*
X780000Y1050000D01*
X740000Y1140000D02*
X780000Y1140000D01*
X780000Y1099999D01*
X740000Y1099999D01*
X740000Y1140000D01*
X760000Y1120000D02*
X780000Y1140000D01*
X740000Y1230000D02*
X780000Y1230000D01*
X780000Y1190000D01*
X740000Y1190000D01*
X740000Y1230000D01*
X760000Y1210000D02*
X780000Y1230000D01*
X740000Y1320000D02*
X780000Y1320000D01*
X780000Y1280000D01*
X740000Y1280000D01*
X740000Y1320000D01*
X760000Y1300000D02*
X780000Y1320000D01*
X740000Y1410000D02*
X780000Y1410000D01*
X780000Y1370000D01*
X740000Y1370000D01*
X740000Y1410000D01*
X760000Y1390000D02*
X780000Y1410000D01*
X740000Y1500000D02*
X780000Y1500000D01*
X780000Y1460000D01*
X740000Y1460000D01*
X740000Y1500000D01*
X760000Y1480000D02*
X780000Y1500000D01*
X740000Y1589999D02*
X780000Y1589999D01*
X780000Y1549999D01*
X740000Y1549999D01*
X740000Y1589999D01*
X760000Y1569999D02*
X780000Y1589999D01*
X830000Y240000D02*
X870000Y240000D01*
X870000Y200000D01*
X830000Y200000D01*
X830000Y240000D01*
X850000Y220000D02*
X870000Y240000D01*
X830000Y330000D02*
X870000Y330000D01*
X870000Y290000D01*
X830000Y290000D01*
X830000Y330000D01*
X850000Y310000D02*
X870000Y330000D01*
X830000Y420000D02*
X870000Y420000D01*
X870000Y380000D01*
X830000Y380000D01*
X830000Y420000D01*
X850000Y400000D02*
X870000Y420000D01*
X830000Y510000D02*
X870000Y510000D01*
X870000Y470000D01*
X830000Y470000D01*
X830000Y510000D01*
X850000Y490000D02*
X870000Y510000D01*
X830000Y600000D02*
X870000Y600000D01*
X870000Y560000D01*
X830000Y560000D01*
X830000Y600000D01*
X850000Y580000D02*
X870000Y600000D01*
X830000Y690000D02*
X870000Y690000D01*
X870000Y649999D01*
X830000Y649999D01*
X830000Y690000D01*
X850000Y669999D02*
X870000Y690000D01*
X830000Y780000D02*
X870000Y780000D01*
X870000Y740000D01*
X830000Y740000D01*
X830000Y780000D01*
X850000Y760000D02*
X870000Y780000D01*
X830000Y870000D02*
X870000Y870000D01*
X870000Y830000D01*
X830000Y830000D01*
X830000Y870000D01*
X850000Y850000D02*
X870000Y870000D01*
X830000Y960000D02*
X870000Y960000D01*
X870000Y919999D01*
X830000Y919999D01*
X830000Y960000D01*
X850000Y940000D02*
X870000Y960000D01*
X830000Y1050000D02*
X870000Y1050000D01*
X870000Y1010000D01*
X830000Y1010000D01*
X830000Y1050000D01*
X850000Y1030000D02*
X870000Y1050000D01*
X830000Y1140000D02*
X870000Y1140000D01*
X870000Y1099999D01*
X830000Y1099999D01*
X830000Y1140000D01*
X850000Y1120000D02*
X870000Y1140000D01*
X830000Y1230000D02*
X870000Y1230000D01*
X870000Y1190000D01*
X830000Y1190000D01*
X830000Y1230000D01*
X850000Y1210000D02*
X870000Y1230000D01*
X830000Y1320000D02*
X870000Y1320000D01*
X870000Y1280000D01*
X830000Y1280000D01*
X830000Y1320000D01*
X850000Y1300000D02*
X870000Y1320000D01*
X830000Y1410000D02*
X870000Y1410000D01*
X870000Y1370000D01*
X830000Y1370000D01*
X830000Y1410000D01*
X850000Y1390000D02*
X870000Y1410000D01*
X830000Y1500000D02*
X870000Y1500000D01*
X870000Y1460000D01*
X830000Y1460000D01*
X830000Y1500000D01*
X850000Y1480000D02*
X870000Y1500000D01*
X830000Y1589999D02*
X870000Y1589999D01*
X870000Y1549999D01*
X830000Y1549999D01*
X830000Y1589999D01*
X850000Y1569999D02*
X870000Y1589999D01*
X919999Y240000D02*
X960000Y240000D01*
X960000Y200000D01*
X919999Y200000D01*
X919999Y240000D01*
X940000Y220000D02*
X960000Y240000D01*
X919999Y330000D02*
X960000Y330000D01*
X960000Y290000D01*
X919999Y290000D01*
X919999Y330000D01*
X940000Y310000D02*
X960000Y330000D01*
X919999Y420000D02*
X960000Y420000D01*
X960000Y380000D01*
X919999Y380000D01*
X919999Y420000D01*
X940000Y400000D02*
X960000Y420000D01*
X919999Y510000D02*
X960000Y510000D01*
X960000Y470000D01*
X919999Y470000D01*
X919999Y510000D01*
X940000Y490000D02*
X960000Y510000D01*
X919999Y600000D02*
X960000Y600000D01*
X960000Y560000D01*
X919999Y560000D01*
X919999Y600000D01*
X940000Y580000D02*
X960000Y600000D01*
X919999Y690000D02*
X960000Y690000D01*
X960000Y649999D01*
X919999Y649999D01*
X919999Y690000D01*
X940000Y669999D02*
X960000Y690000D01*
X919999Y780000D02*
X960000Y780000D01*
X960000Y740000D01*
X919999Y740000D01*
X919999Y780000D01*
X940000Y760000D02*
X960000Y780000D01*
X919999Y870000D02*
X960000Y870000D01*
X960000Y830000D01*
X919999Y830000D01*
X919999Y870000D01*
X940000Y850000D02*
X960000Y870000D01*
X919999Y960000D02*
X960000Y960000D01*
X960000Y919999D01*
X919999Y919999D01*
X919999Y960000D01*
X940000Y940000D02*
X960000Y960000D01*
X919999Y1050000D02*
X960000Y1050000D01*
X960000Y1010000D01*
X919999Y1010000D01*
X919999Y1050000D01*
X940000Y1030000D02*
X960000Y1050000D01*
X919999Y1140000D02*
X960000Y1140000D01*
X960000Y1099999D01*
X919999Y1099999D01*
X919999Y1140000D01*
X940000Y1120000D02*
X960000Y1140000D01*
X919999Y1230000D02*
X960000Y1230000D01*
X960000Y1190000D01*
X919999Y1190000D01*
X919999Y1230000D01*
X940000Y1210000D02*
X960000Y1230000D01*
X919999Y1320000D02*
X960000Y1320000D01*
X960000Y1280000D01*
X919999Y1280000D01*
X919999Y1320000D01*
X940000Y1300000D02*
X960000Y1320000D01*
X919999Y1410000D02*
X960000Y1410000D01*
X960000Y1370000D01*
X919999Y1370000D01*
X919999Y1410000D01*
X940000Y1390000D02*
X960000Y1410000D01*
X919999Y1500000D02*
X960000Y1500000D01*
X960000Y1460000D01*
X919999Y1460000D01*
X919999Y1500000D01*
X940000Y1480000D02*
X960000Y1500000D01*
X919999Y1589999D02*
X960000Y1589999D01*
X960000Y1549999D01*
X919999Y1549999D01*
X919999Y1589999D01*
X940000Y1569999D02*
X960000Y1589999D01*
X1010000Y240000D02*
X1050000Y240000D01*
X1050000Y200000D01*
X1010000Y200000D01*
X1010000Y240000D01*
X1030000Y220000D02*
X1050000Y240000D01*
X1010000Y330000D02*
X1050000Y330000D01*
X1050000Y290000D01*
X1010000Y290000D01*
X1010000Y330000D01*
X1030000Y310000D02*
X1050000Y330000D01*
X1010000Y420000D02*
X1050000Y420000D01*
X1050000Y380000D01*
X1010000Y380000D01*
X1010000Y420000D01*
X1030000Y400000D02*
X1050000Y420000D01*
X1010000Y510000D02*
X1050000Y510000D01*
X1050000Y470000D01*
X1010000Y470000D01*
X1010000Y510000D01*
X1030000Y490000D02*
X1050000Y510000D01*
X1010000Y600000D02*
X1050000Y600000D01*
X1050000Y560000D01*
X1010000Y560000D01*
X1010000Y600000D01*
X1030000Y580000D02*
X1050000Y600000D01*
X1010000Y690000D02*
X1050000Y690000D01*
X1050000Y649999D01*
X1010000Y649999D01*
X1010000Y690000D01*
X1030000Y669999D02*
X1050000Y690000D01*
X1010000Y780000D02*
X1050000Y780000D01*
X1050000Y740000D01*
X1010000Y740000D01*
X1010000Y780000D01*
X1030000Y760000D02*
X1050000Y780000D01*
X1010000Y870000D02*
X1050000Y870000D01*
X1050000Y830000D01*
X1010000Y830000D01*
X1010000Y870000D01*
X1030000Y850000D02*
X1050000Y870000D01*
X1010000Y960000D02*
X1050000Y960000D01*
X1050000Y919999D01*
X1010000Y919999D01*
X1010000Y960000D01*
X1030000Y940000D02*
X1050000Y960000D01*
X1010000Y1050000D02*
X1050000Y1050000D01*
X1050000Y1010000D01*
X1010000Y1010000D01*
X1010000Y1050000D01*
X1030000Y1030000D02*
X1050000Y1050000D01*
X1010000Y1140000D02*
X1050000Y1140000D01*
X1050000Y1099999D01*
X1010000Y1099999D01*
X1010000Y1140000D01*
X1030000Y1120000D02*
X1050000Y1140000D01*
X1010000Y1230000D02*
X1050000Y1230000D01*
X1050000Y1190000D01*
X1010000Y1190000D01*
X1010000Y1230000D01*
X1030000Y1210000D02*
X1050000Y1230000D01*
X1010000Y1320000D02*
X1050000Y1320000D01*
X1050000Y1280000D01*
X1010000Y1280000D01*
X1010000Y1320000D01*
X1030000Y1300000D02*
X1050000Y1320000D01*
X1010000Y1410000D02*
X1050000Y1410000D01*
X1050000Y1370000D01*
X1010000Y1370000D01*
X1010000Y1410000D01*
X1030000Y1390000D02*
X1050000Y1410000D01*
X1010000Y1500000D02*
X1050000Y1500000D01*
X1050000Y1460000D01*
X1010000Y1460000D01*
X1010000Y1500000D01*
X1030000Y1480000D02*
X1050000Y1500000D01*
X1010000Y1589999D02*
X1050000Y1589999D01*
X1050000Y1549999D01*
X1010000Y1549999D01*
X1010000Y1589999D01*
X1030000Y1569999D02*
X1050000Y1589999D01*
X1099999Y240000D02*
X1140000Y240000D01*
X1140000Y200000D01*
X1099999Y200000D01*
X1099999Y240000D01*
X1120000Y220000D02*
X1140000Y240000D01*
X1099999Y330000D02*
X1140000Y330000D01*
X1140000Y290000D01*
X1099999Y290000D01*
X1099999Y330000D01*
X1120000Y310000D02*
X1140000Y330000D01*
X1099999Y420000D02*
X1140000Y420000D01*
X1140000Y380000D01*
X1099999Y380000D01*
X1099999Y420000D01*
X1120000Y400000D02*
X1140000Y420000D01*
X1099999Y510000D02*
X1140000Y510000D01*
X1140000Y470000D01*
X1099999Y470000D01*
X1099999Y510000D01*
X1120000Y490000D02*
X1140000Y510000D01*
X1099999Y600000D02*
X1140000Y600000D01*
X1140000Y560000D01*
X1099999Y560000D01*
X1099999Y600000D01*
X1120000Y580000D02*
X1140000Y600000D01*
X1099999Y690000D02*
X1140000Y690000D01*
X1140000Y649999D01*
X1099999Y649999D01*
X1099999Y690000D01*
X1120000Y669999D02*
X1140000Y690000D01*
X1099999Y780000D02*
X1140000Y780000D01*
X1140000Y740000D01*
X1099999Y740000D01*
X1099999Y780000D01*
X1120000Y760000D02*
X1140000Y780000D01*
X1099999Y870000D02*
X1140000Y870000D01*
X1140000Y830000D01*
X1099999Y830000D01*
X1099999Y870000D01*
X1120000Y850000D02*
X1140000Y870000D01*
X1099999Y960000D02*
X1140000Y960000D01*
X1140000Y919999D01*
X1099999Y919999D01*
X1099999Y960000D01*
X1120000Y940000D02*
X1140000Y960000D01*
X1099999Y1050000D02*
X1140000Y1050000D01*
X1140000Y1010000D01*
X1099999Y1010000D01*
X1099999Y1050000D01*
X1120000Y1030000D02*
X1140000Y1050000D01*
X1099999Y1140000D02*
X1140000Y1140000D01*
X1140000Y1099999D01*
X1099999Y1099999D01*
X1099999Y1140000D01*
X1120000Y1120000D02*
X1140000Y1140000D01*
X1099999Y1230000D02*
X1140000Y1230000D01*
X1140000Y1190000D01*
X1099999Y1190000D01*
X1099999Y1230000D01*
X1120000Y1210000D02*
X1140000Y1230000D01*
X1099999Y1320000D02*
X1140000Y1320000D01*
X1140000Y1280000D01*
X1099999Y1280000D01*
X1099999Y1320000D01*
X1120000Y1300000D02*
X1140000Y1320000D01*
X1099999Y1410000D02*
X1140000Y1410000D01*
X1140000Y1370000D01*
X1099999Y1370000D01*
X1099999Y1410000D01*
X1120000Y1390000D02*
X1140000Y1410000D01*
X1099999Y1500000D02*
X1140000Y1500000D01*
X1140000Y1460000D01*
X1099999Y1460000D01*
X1099999Y1500000D01*
X1120000Y1480000D02*
X1140000Y1500000D01*
X1099999Y1589999D02*
X1140000Y1589999D01*
X1140000Y1549999D01*
X1099999Y1549999D01*
X1099999Y1589999D01*
X1120000Y1569999D02*
X1140000Y1589999D01*
X1190000Y240000D02*
X1230000Y240000D01*
X1230000Y200000D01*
X1190000Y200000D01*
X1190000Y240000D01*
X1210000Y220000D02*
X1230000Y240000D01*
X1190000Y330000D02*
X1230000Y330000D01*
X1230000Y290000D01*
X1190000Y290000D01*
X1190000Y330000D01*
X1210000Y310000D02*
X1230000Y330000D01*
X1190000Y420000D02*
X1230000Y420000D01*
X1230000Y380000D01*
X1190000Y380000D01*
X1190000Y420000D01*
X1210000Y400000D02*
X1230000Y420000D01*
X1190000Y510000D02*
X1230000Y510000D01*
X1230000Y470000D01*
X1190000Y470000D01*
X1190000Y510000D01*
X1210000Y490000D02*
X1230000Y510000D01*
X1190000Y600000D02*
X1230000Y600000D01*
X1230000Y560000D01*
X1190000Y560000D01*
X1190000Y600000D01*
X1210000Y580000D02*
X1230000Y600000D01*
X1190000Y690000D02*
X1230000Y690000D01*
X1230000Y649999D01*
X1190000Y649999D01*
X1190000Y690000D01*
X1210000Y669999D02*
X1230000Y690000D01*
X1190000Y780000D02*
X1230000Y780000D01*
X1230000Y740000D01*
X1190000Y740000D01*
X1190000Y780000D01*
X1210000Y760000D02*
X1230000Y780000D01*
X1190000Y870000D02*
X1230000Y870000D01*
X1230000Y830000D01*
X1190000Y830000D01*
X1190000Y870000D01*
X1210000Y850000D02*
X1230000Y870000D01*
X1190000Y960000D02*
X1230000Y960000D01*
X1230000Y919999D01*
X1190000Y919999D01*
X1190000Y960000D01*
X1210000Y940000D02*
X1230000Y960000D01*
X1190000Y1050000D02*
X1230000Y1050000D01*
X1230000Y1010000D01*
X1190000Y1010000D01*
X1190000Y1050000D01*
X1210000Y1030000D02*
X1230000Y1050000D01*
X1190000Y1140000D02*
X1230000Y1140000D01*
X1230000Y1099999D01*
X1190000Y1099999D01*
X1190000Y1140000D01*
X1210000Y1120000D02*
X1230000Y1140000D01*
X1190000Y1230000D02*
X1230000Y1230000D01*
X1230000Y1190000D01*
X1190000Y1190000D01*
X1190000Y1230000D01*
X1210000Y1210000D02*
X1230000Y1230000D01*
X1190000Y1320000D02*
X1230000Y1320000D01*
X1230000Y1280000D01*
X1190000Y1280000D01*
X1190000Y1320000D01*
X1210000Y1300000D02*
X1230000Y1320000D01*
X1190000Y1410000D02*
X1230000Y1410000D01*
X1230000Y1370000D01*
X1190000Y1370000D01*
X1190000Y1410000D01*
X1210000Y1390000D02*
X1230000Y1410000D01*
X1190000Y1500000D02*
X1230000Y1500000D01*
X1230000Y1460000D01*
X1190000Y1460000D01*
X1190000Y1500000D01*
X1210000Y1480000D02*
X1230000Y1500000D01*
X1190000Y1589999D02*
X1230000Y1589999D01*
X1230000Y1549999D01*
X1190000Y1549999D01*
X1190000Y1589999D01*
X1210000Y1569999D02*
X1230000Y1589999D01*
X1280000Y240000D02*
X1320000Y240000D01*
X1320000Y200000D01*
X1280000Y200000D01*
X1280000Y240000D01*
X1300000Y220000D02*
X1320000Y240000D01*
X1280000Y330000D02*
X1320000Y330000D01*
X1320000Y290000D01*
X1280000Y290000D01*
X1280000Y330000D01*
X1300000Y310000D02*
X1320000Y330000D01*
X1280000Y420000D02*
X1320000Y420000D01*
X1320000Y380000D01*
X1280000Y380000D01*
X1280000Y420000D01*
X1300000Y400000D02*
X1320000Y420000D01*
X1280000Y510000D02*
X1320000Y510000D01*
X1320000Y470000D01*
X1280000Y470000D01*
X1280000Y510000D01*
X1300000Y490000D02*
X1320000Y510000D01*
X1280000Y600000D02*
X1320000Y600000D01*
X1320000Y560000D01*
X1280000Y560000D01*
X1280000Y600000D01*
X1300000Y580000D02*
X1320000Y600000D01*
X1280000Y690000D02*
X1320000Y690000D01*
X1320000Y649999D01*
X1280000Y649999D01*
X1280000Y690000D01*
X1300000Y669999D02*
X1320000Y690000D01*
X1280000Y780000D02*
X1320000Y780000D01*
X1320000Y740000D01*
X1280000Y740000D01*
X1280000Y780000D01*
X1300000Y760000D02*
X1320000Y780000D01*
X1280000Y870000D02*
X1320000Y870000D01*
X1320000Y830000D01*
X1280000Y830000D01*
X1280000Y870000D01*
X1300000Y850000D02*
X1320000Y870000D01*
X1280000Y960000D02*
X1320000Y960000D01*
X1320000Y919999D01*
X1280000Y919999D01*
X1280000Y960000D01*
X1300000Y940000D02*
X1320000Y960000D01*
X1280000Y1050000D02*
X1320000Y1050000D01*
X1320000Y1010000D01*
X1280000Y1010000D01*
X1280000Y1050000D01*
X1300000Y1030000D02*
X1320000Y1050000D01*
X1280000Y1140000D02*
X1320000Y1140000D01*
X1320000Y1099999D01*
X1280000Y1099999D01*
X1280000Y1140000D01*
X1300000Y1120000D02*
X1320000Y1140000D01*
X1280000Y1230000D02*
X1320000Y1230000D01*
X1320000Y1190000D01*
X1280000Y1190000D01*
X1280000Y1230000D01*
X1300000Y1210000D02*
X1320000Y1230000D01*
X1280000Y1320000D02*
X1320000Y1320000D01*
X1320000Y1280000D01*
X1280000Y1280000D01*
X1280000Y1320000D01*
X1300000Y1300000D02*
X1320000Y1320000D01*
X1280000Y1410000D02*
X1320000Y1410000D01*
X1320000Y1370000D01*
X1280000Y1370000D01*
X1280000Y1410000D01*
X1300000Y1390000D02*
X1320000Y1410000D01*
X1280000Y1500000D02*
X1320000Y1500000D01*
X1320000Y1460000D01*
X1280000Y1460000D01*
X1280000Y1500000D01*
X1300000Y1480000D02*
X1320000Y1500000D01*
X1280000Y1589999D02*
X1320000Y1589999D01*
X1320000Y1549999D01*
X1280000Y1549999D01*
X1280000Y1589999D01*
X1300000Y1569999D02*
X1320000Y1589999D01*
X1370000Y240000D02*
X1410000Y240000D01*
X1410000Y200000D01*
X1370000Y200000D01*
X1370000Y240000D01*
X1390000Y220000D02*
X1410000Y240000D01*
X1370000Y330000D02*
X1410000Y330000D01*
X1410000Y290000D01*
X1370000Y290000D01*
X1370000Y330000D01*
X1390000Y310000D02*
X1410000Y330000D01*
X1370000Y420000D02*
X1410000Y420000D01*
X1410000Y380000D01*
X1370000Y380000D01*
X1370000Y420000D01*
X1390000Y400000D02*
X1410000Y420000D01*
X1370000Y510000D02*
X1410000Y510000D01*
X1410000Y470000D01*
X1370000Y470000D01*
X1370000Y510000D01*
X1390000Y490000D02*
X1410000Y510000D01*
X1370000Y600000D02*
X1410000Y600000D01*
X1410000Y560000D01*
X1370000Y560000D01*
X1370000Y600000D01*
X1390000Y580000D02*
X1410000Y600000D01*
X1370000Y690000D02*
X1410000Y690000D01*
X1410000Y649999D01*
X1370000Y649999D01*
X1370000Y690000D01*
X1390000Y669999D02*
X1410000Y690000D01*
X1370000Y780000D02*
X1410000Y780000D01*
X1410000Y740000D01*
X1370000Y740000D01*
X1370000Y780000D01*
X1390000Y760000D02*
X1410000Y780000D01*
X1370000Y870000D02*
X1410000Y870000D01*
X1410000Y830000D01*
X1370000Y830000D01*
X1370000Y870000D01*
X1390000Y850000D02*
X1410000Y870000D01*
X1370000Y960000D02*
X1410000Y960000D01*
X1410000Y919999D01*
X1370000Y919999D01*
X1370000Y960000D01*
X1390000Y940000D02*
X1410000Y960000D01*
X1370000Y1050000D02*
X1410000Y1050000D01*
X1410000Y1010000D01*
X1370000Y1010000D01*
X1370000Y1050000D01*
X1390000Y1030000D02*
X1410000Y1050000D01*
X1370000Y1140000D02*
X1410000Y1140000D01*
X1410000Y1099999D01*
X1370000Y1099999D01*
X1370000Y1140000D01*
X1390000Y1120000D02*
X1410000Y1140000D01*
X1370000Y1230000D02*
X1410000Y1230000D01*
X1410000Y1190000D01*
X1370000Y1190000D01*
X1370000Y1230000D01*
X1390000Y1210000D02*
X1410000Y1230000D01*
X1370000Y1320000D02*
X1410000Y1320000D01*
X1410000Y1280000D01*
X1370000Y1280000D01*
X1370000Y1320000D01*
X1390000Y1300000D02*
X1410000Y1320000D01*
X1370000Y1410000D02*
X1410000Y1410000D01*
X1410000Y1370000D01*
X1370000Y1370000D01*
X1370000Y1410000D01*
X1390000Y1390000D02*
X1410000Y1410000D01*
X1370000Y1500000D02*
X1410000Y1500000D01*
X1410000Y1460000D01*
X1370000Y1460000D01*
X1370000Y1500000D01*
X1390000Y1480000D02*
X1410000Y1500000D01*
X1370000Y1589999D02*
X1410000Y1589999D01*
X1410000Y1549999D01*
X1370000Y1549999D01*
X1370000Y1589999D01*
X1390000Y1569999D02*
X1410000Y1589999D01*
X1460000Y240000D02*
X1500000Y240000D01*
X1500000Y200000D01*
X1460000Y200000D01*
X1460000Y240000D01*
X1480000Y220000D02*
X1500000Y240000D01*
X1460000Y330000D02*
X1500000Y330000D01*
X1500000Y290000D01*
X1460000Y290000D01*
X1460000Y330000D01*
X1480000Y310000D02*
X1500000Y330000D01*
X1460000Y420000D02*
X1500000Y420000D01*
X1500000Y380000D01*
X1460000Y380000D01*
X1460000Y420000D01*
X1480000Y400000D02*
X1500000Y420000D01*
X1460000Y510000D02*
X1500000Y510000D01*
X1500000Y470000D01*
X1460000Y470000D01*
X1460000Y510000D01*
X1480000Y490000D02*
X1500000Y510000D01*
X1460000Y600000D02*
X1500000Y600000D01*
X1500000Y560000D01*
X1460000Y560000D01*
X1460000Y600000D01*
X1480000Y580000D02*
X1500000Y600000D01*
X1460000Y690000D02*
X1500000Y690000D01*
X1500000Y649999D01*
X1460000Y649999D01*
X1460000Y690000D01*
X1480000Y669999D02*
X1500000Y690000D01*
X1460000Y780000D02*
X1500000Y780000D01*
X1500000Y740000D01*
X1460000Y740000D01*
X1460000Y780000D01*
X1480000Y760000D02*
X1500000Y780000D01*
X1460000Y870000D02*
X1500000Y870000D01*
X1500000Y830000D01*
X1460000Y830000D01*
X1460000Y870000D01*
X1480000Y850000D02*
X1500000Y870000D01*
X1460000Y960000D02*
X1500000Y960000D01*
X1500000Y919999D01*
X1460000Y919999D01*
X1460000Y960000D01*
X1480000Y940000D02*
X1500000Y960000D01*
X1460000Y1050000D02*
X1500000Y1050000D01*
X1500000Y1010000D01*
X1460000Y1010000D01*
X1460000Y1050000D01*
X1480000Y1030000D02*
X1500000Y1050000D01*
X1460000Y1140000D02*
X1500000Y1140000D01*
X1500000Y1099999D01*
X1460000Y1099999D01*
X1460000Y1140000D01*
X1480000Y1120000D02*
X1500000Y1140000D01*
X1460000Y1230000D02*
X1500000Y1230000D01*
X1500000Y1190000D01*
X1460000Y1190000D01*
X1460000Y1230000D01*
X1480000Y1210000D02*
X1500000Y1230000D01*
X1460000Y1320000D02*
X1500000Y1320000D01*
X1500000Y1280000D01*
X1460000Y1280000D01*
X1460000Y1320000D01*
X1480000Y1300000D02*
X1500000Y1320000D01*
X1460000Y1410000D02*
X1500000Y1410000D01*
X1500000Y1370000D01*
X1460000Y1370000D01*
X1460000Y1410000D01*
X1480000Y1390000D02*
X1500000Y1410000D01*
X1460000Y1500000D02*
X1500000Y1500000D01*
X1500000Y1460000D01*
X1460000Y1460000D01*
X1460000Y1500000D01*
X1480000Y1480000D02*
X1500000Y1500000D01*
X1460000Y1589999D02*
X1500000Y1589999D01*
X1500000Y1549999D01*
X1460000Y1549999D01*
X1460000Y1589999D01*
X1480000Y1569999D02*
X1500000Y1589999D01*
X1549999Y240000D02*
X1589999Y240000D01*
X1589999Y200000D01*
X1549999Y200000D01*
X1549999Y240000D01*
X1569999Y220000D02*
X1589999Y240000D01*
X1549999Y330000D02*
X1589999Y330000D01*
X1589999Y290000D01*
X1549999Y290000D01*
X1549999Y330000D01*
X1569999Y310000D02*
X1589999Y330000D01*
X1549999Y420000D02*
X1589999Y420000D01*
X1589999Y380000D01*
X1549999Y380000D01*
X1549999Y420000D01*
X1569999Y400000D02*
X1589999Y420000D01*
X1549999Y510000D02*
X1589999Y510000D01*
X1589999Y470000D01*
X1549999Y470000D01*
X1549999Y510000D01*
X1569999Y490000D02*
X1589999Y510000D01*
X1549999Y600000D02*
X1589999Y600000D01*
X1589999Y560000D01*
X1549999Y560000D01*
X1549999Y600000D01*
X1569999Y580000D02*
X1589999Y600000D01*
X1549999Y690000D02*
X1589999Y690000D01*
X1589999Y649999D01*
X1549999Y649999D01*
X1549999Y690000D01*
X1569999Y669999D02*
X1589999Y690000D01*
X1549999Y780000D02*
X1589999Y780000D01*
X1589999Y740000D01*
X1549999Y740000D01*
X1549999Y780000D01*
X1569999Y760000D02*
X1589999Y780000D01*
X1549999Y870000D02*
X1589999Y870000D01*
X1589999Y830000D01*
X1549999Y830000D01*
X1549999Y870000D01*
X1569999Y850000D02*
X1589999Y870000D01*
X1549999Y960000D02*
X1589999Y960000D01*
X1589999Y919999D01*
X1549999Y919999D01*
X1549999Y960000D01*
X1569999Y940000D02*
X1589999Y960000D01*
X1549999Y1050000D02*
X1589999Y1050000D01*
X1589999Y1010000D01*
X1549999Y1010000D01*
X1549999Y1050000D01*
X1569999Y1030000D02*
X1589999Y1050000D01*
X1549999Y1140000D02*
X1589999Y1140000D01*
X1589999Y1099999D01*
X1549999Y1099999D01*
X1549999Y1140000D01*
X1569999Y1120000D02*
X1589999Y1140000D01*
X1549999Y1230000D02*
X1589999Y1230000D01*
X1589999Y1190000D01*
X1549999Y1190000D01*
X1549999Y1230000D01*
X1569999Y1210000D02*
X1589999Y1230000D01*
X1549999Y1320000D02*
X1589999Y1320000D01*
X1589999Y1280000D01*
X1549999Y1280000D01*
X1549999Y1320000D01*
X1569999Y1300000D02*
X1589999Y1320000D01*
X1549999Y1410000D02*
X1589999Y1410000D01*
X1589999Y1370000D01*
X1549999Y1370000D01*
X1549999Y1410000D01*
X1569999Y1390000D02*
X1589999Y1410000D01*
X1549999Y1500000D02*
X1589999Y1500000D01*
X1589999Y1460000D01*
X1549999Y1460000D01*
X1549999Y1500000D01*
X1569999Y1480000D02*
X1589999Y1500000D01*
X1549999Y1589999D02*
X1589999Y1589999D01*
X1589999Y1549999D01*
X1549999Y1549999D01*
X1549999Y1589999D01*
X1569999Y1569999D02*
X1589999Y1589999D01*
M02*
