G04 VLSI Layer: Metal Interconnects*
%FSLAX36Y36*%
%MOIN*%
G75*
G01*
%ADD13C,0.001*%
D13*
X786393Y272643D02*
X786393Y372643D01*
X886393Y372643D01*
X219146Y584240D02*
X219146Y684240D01*
X319146Y684240D01*
X445229Y715895D02*
X445229Y815895D01*
X345229Y815895D01*
X704201Y311993D02*
X704201Y411993D01*
X604201Y411993D01*
X401794Y711918D02*
X401794Y811918D01*
X501794Y811918D01*
X743628Y293310D02*
X743628Y293310D01*
X643628Y293310D01*
X755610Y366813D02*
X755610Y466813D01*
X655610Y466813D01*
X425836Y710265D02*
X425836Y710265D01*
X325836Y710265D01*
X652871Y399401D02*
X652871Y399401D01*
X552871Y399401D01*
X335233Y386673D02*
X335233Y386673D01*
X435233Y386673D01*
X356425Y567370D02*
X356425Y467370D01*
X356425Y467370D01*
X504081Y289628D02*
X504081Y189628D01*
X404081Y189628D01*
X674802Y385883D02*
X674802Y285883D01*
X574802Y285883D01*
X253485Y406140D02*
X253485Y406140D01*
X253485Y406140D01*
X285272Y257065D02*
X285272Y257065D01*
X185272Y257065D01*
X401128Y428678D02*
X401128Y328678D01*
X401128Y328678D01*
X618943Y517324D02*
X618943Y617324D01*
X618943Y617324D01*
X662364Y677137D02*
X662364Y577137D01*
X562364Y577137D01*
X574134Y794555D02*
X574134Y794555D01*
X474134Y794555D01*
X735342Y541089D02*
X735342Y441089D01*
X635342Y441089D01*
X506072Y447334D02*
X506072Y447334D01*
X406072Y447334D01*
X434126Y391468D02*
X434126Y391468D01*
X434126Y391468D01*
X460512Y345485D02*
X460512Y345485D01*
X460512Y345485D01*
X506653Y658229D02*
X506653Y558229D01*
X406653Y558229D01*
X384042Y297621D02*
X384042Y197621D01*
X284042Y197621D01*
X679195Y445634D02*
X679195Y345634D01*
X779195Y345634D01*
X413382Y675556D02*
X413382Y775556D01*
X513382Y775556D01*
X352772Y542993D02*
X352772Y542993D01*
X352772Y542993D01*
X230036Y295477D02*
X230036Y295477D01*
X130036Y295477D01*
X286521Y548387D02*
X286521Y448387D01*
X186521Y448387D01*
X670268Y701763D02*
X670268Y701763D01*
X570268Y701763D01*
X327010Y734741D02*
X327010Y834741D01*
X327010Y834741D01*
X775925Y343671D02*
X775925Y243671D01*
X675925Y243671D01*
X451256Y483924D02*
X451256Y483924D01*
X451256Y483924D01*
X324652Y308329D02*
X324652Y408329D01*
X424652Y408329D01*
X566653Y729473D02*
X566653Y629473D01*
X566653Y629473D01*
X524616Y264530D02*
X524616Y364530D01*
X624616Y364530D01*
X467588Y799324D02*
X467588Y799324D01*
X367588Y799324D01*
X391147Y475296D02*
X391147Y575296D01*
X491147Y575296D01*
X589527Y385075D02*
X589527Y285075D01*
X689527Y285075D01*
X628285Y683244D02*
X628285Y583244D01*
X628285Y583244D01*
X536993Y274330D02*
X536993Y374330D01*
X636993Y374330D01*
X578570Y480870D02*
X578570Y580870D01*
X578570Y580870D01*
X261315Y652018D02*
X261315Y652018D01*
X261315Y652018D01*
X692550Y518405D02*
X692550Y618405D01*
X792550Y618405D01*
X660050Y346008D02*
X660050Y446008D01*
X760050Y446008D01*
X308278Y629684D02*
X308278Y729684D01*
X408278Y729684D01*
X766522Y610844D02*
X766522Y610844D01*
X666522Y610844D01*
X292028Y551075D02*
X292028Y651075D01*
X292028Y651075D01*
X415362Y366551D02*
X415362Y266551D01*
X515362Y266551D01*
M02*
