G04 VLSI Layer: PCIe Gen5 PHY (SerDes)*
%FSLAX36Y36*%
%MOIN*%
G75*
G01*
%ADD11C,0.005*%
D11*
X200000Y0D02*
X200000Y100000D01*
X210000Y0D02*
X210000Y100000D01*
X195000Y120000D02*
X215000Y120000D01*
X215000Y100000D01*
X195000Y100000D01*
X195000Y120000D01*
X240000Y0D02*
X240000Y100000D01*
X250000Y0D02*
X250000Y100000D01*
X235000Y120000D02*
X255000Y120000D01*
X255000Y100000D01*
X235000Y100000D01*
X235000Y120000D01*
X280000Y0D02*
X280000Y100000D01*
X290000Y0D02*
X290000Y100000D01*
X275000Y120000D02*
X295000Y120000D01*
X295000Y100000D01*
X275000Y100000D01*
X275000Y120000D01*
X320000Y0D02*
X320000Y100000D01*
X330000Y0D02*
X330000Y100000D01*
X315000Y120000D02*
X335000Y120000D01*
X335000Y100000D01*
X315000Y100000D01*
X315000Y120000D01*
X360000Y0D02*
X360000Y100000D01*
X370000Y0D02*
X370000Y100000D01*
X355000Y120000D02*
X375000Y120000D01*
X375000Y100000D01*
X355000Y100000D01*
X355000Y120000D01*
X400000Y0D02*
X400000Y100000D01*
X410000Y0D02*
X410000Y100000D01*
X395000Y120000D02*
X415000Y120000D01*
X415000Y100000D01*
X395000Y100000D01*
X395000Y120000D01*
X440000Y0D02*
X440000Y100000D01*
X450000Y0D02*
X450000Y100000D01*
X435000Y120000D02*
X455000Y120000D01*
X455000Y100000D01*
X435000Y100000D01*
X435000Y120000D01*
X480000Y0D02*
X480000Y100000D01*
X490000Y0D02*
X490000Y100000D01*
X475000Y120000D02*
X495000Y120000D01*
X495000Y100000D01*
X475000Y100000D01*
X475000Y120000D01*
X520000Y0D02*
X520000Y100000D01*
X530000Y0D02*
X530000Y100000D01*
X515000Y120000D02*
X535000Y120000D01*
X535000Y100000D01*
X515000Y100000D01*
X515000Y120000D01*
X560000Y0D02*
X560000Y100000D01*
X570000Y0D02*
X570000Y100000D01*
X555000Y120000D02*
X575000Y120000D01*
X575000Y100000D01*
X555000Y100000D01*
X555000Y120000D01*
X600000Y0D02*
X600000Y100000D01*
X610000Y0D02*
X610000Y100000D01*
X595000Y120000D02*
X615000Y120000D01*
X615000Y100000D01*
X595000Y100000D01*
X595000Y120000D01*
X640000Y0D02*
X640000Y100000D01*
X650000Y0D02*
X650000Y100000D01*
X635000Y120000D02*
X655000Y120000D01*
X655000Y100000D01*
X635000Y100000D01*
X635000Y120000D01*
X679999Y0D02*
X679999Y100000D01*
X690000Y0D02*
X690000Y100000D01*
X674999Y120000D02*
X695000Y120000D01*
X695000Y100000D01*
X674999Y100000D01*
X674999Y120000D01*
X720000Y0D02*
X720000Y100000D01*
X730000Y0D02*
X730000Y100000D01*
X715000Y120000D02*
X735000Y120000D01*
X735000Y100000D01*
X715000Y100000D01*
X715000Y120000D01*
X760000Y0D02*
X760000Y100000D01*
X770000Y0D02*
X770000Y100000D01*
X755000Y120000D02*
X775000Y120000D01*
X775000Y100000D01*
X755000Y100000D01*
X755000Y120000D01*
X800000Y0D02*
X800000Y100000D01*
X810000Y0D02*
X810000Y100000D01*
X795000Y120000D02*
X815000Y120000D01*
X815000Y100000D01*
X795000Y100000D01*
X795000Y120000D01*
M02*
