G04 Advanced 21-Layer Photonic Stack - Layer 18 (DSP & Control Logic (L2))*
G04 Category: logic*
G04 Date: 2026-02-23 18:37:44*
%FSLAX36Y36*%
%MOIN*%
%ADD10C,0.010*%G04 Standard Trace-0.010in*
%ADD11C,0.050*%G04 BGA Pad-0.050in*
%ADD12C,0.005*%G04 Fine Photonic-0.005in*
%ADD13C,0.080*%G04 Thermal Via-0.080in*
G01*
D10*
X0Y0D02*
X4000000Y0D01*
X4000000Y4000000D01*
X0Y4000000D01*
X0Y0D01*
G04 High Density Interconnects*
D10*
X200000Y500000D02*
X200000Y3500000D01*
X350000Y500000D02*
X350000Y3500000D01*
X500000Y500000D02*
X500000Y3500000D01*
X650000Y500000D02*
X650000Y3500000D01*
X800000Y500000D02*
X800000Y3500000D01*
X950000Y500000D02*
X950000Y3500000D01*
X1100000Y500000D02*
X1100000Y3500000D01*
X1250000Y500000D02*
X1250000Y3500000D01*
X1400000Y500000D02*
X1400000Y3500000D01*
X1550000Y500000D02*
X1550000Y3500000D01*
X1700000Y500000D02*
X1700000Y3500000D01*
X1850000Y500000D02*
X1850000Y3500000D01*
X2000000Y500000D02*
X2000000Y3500000D01*
X2150000Y500000D02*
X2150000Y3500000D01*
X2300000Y500000D02*
X2300000Y3500000D01*
X2450000Y500000D02*
X2450000Y3500000D01*
X2600000Y500000D02*
X2600000Y3500000D01*
X2750000Y500000D02*
X2750000Y3500000D01*
X2900000Y500000D02*
X2900000Y3500000D01*
X3050000Y500000D02*
X3050000Y3500000D01*
M02*
