M48
METRIC,LZ
T1C0.2
T2C0.5
%
G05
T1
X1000Y1000
X1000Y1500
X1000Y2000
X1000Y2500
X1000Y3000
X1000Y3500
X1500Y1000
X1500Y1500
X1500Y2000
X1500Y2500
X1500Y3000
X1500Y3500
X2000Y1000
X2000Y1500
X2000Y2000
X2000Y2500
X2000Y3000
X2000Y3500
X2500Y1000
X2500Y1500
X2500Y2000
X2500Y2500
X2500Y3000
X2500Y3500
X3000Y1000
X3000Y1500
X3000Y2000
X3000Y2500
X3000Y3000
X3000Y3500
X3500Y1000
X3500Y1500
X3500Y2000
X3500Y2500
X3500Y3000
X3500Y3500
T2
X500Y500
X900Y500
X1300Y500
X1700Y500
X2100Y500
X2500Y500
X2900Y500
X3300Y500
M30
