G04 Advanced 21-Layer Photonic Stack - Layer 12 (Photonic Routing - Passive & I/O)*
G04 Category: photonics*
G04 Date: 2026-02-23 18:37:44*
%FSLAX36Y36*%
%MOIN*%
%ADD10C,0.010*%G04 Standard Trace-0.010in*
%ADD11C,0.050*%G04 BGA Pad-0.050in*
%ADD12C,0.005*%G04 Fine Photonic-0.005in*
%ADD13C,0.080*%G04 Thermal Via-0.080in*
G01*
D10*
X0Y0D02*
X4000000Y0D01*
X4000000Y4000000D01*
X0Y4000000D01*
X0Y0D01*
G04 Photonic Waveguide and Resonator Patterns*
D12*
G04 Ring Resonator at 2000000,1000000*
X2300000Y1000000D02*
X2295442Y1052094D01*
X2281907Y1102606D01*
X2259807Y1150000D01*
X2229813Y1192836D01*
X2192836Y1229813D01*
X2150000Y1259807D01*
X2102606Y1281907D01*
X2052094Y1295442D01*
X2000000Y1300000D01*
X1947905Y1295442D01*
X1897393Y1281907D01*
X1850000Y1259807D01*
X1807163Y1229813D01*
X1770186Y1192836D01*
X1740192Y1150000D01*
X1718092Y1102606D01*
X1704557Y1052094D01*
X1700000Y1000000D01*
X1704557Y947905D01*
X1718092Y897393D01*
X1740192Y850000D01*
X1770186Y807163D01*
X1807163Y770186D01*
X1849999Y740192D01*
X1897393Y718092D01*
X1947905Y704557D01*
X2000000Y700000D01*
X2052094Y704557D01*
X2102606Y718092D01*
X2150000Y740192D01*
X2192836Y770186D01*
X2229813Y807163D01*
X2259807Y849999D01*
X2281907Y897393D01*
X2295442Y947905D01*
X2300000Y999999D01*
G04 Ring Resonator at 2000000,1800000*
X2300000Y1800000D02*
X2295442Y1852094D01*
X2281907Y1902606D01*
X2259807Y1950000D01*
X2229813Y1992836D01*
X2192836Y2029813D01*
X2150000Y2059807D01*
X2102606Y2081907D01*
X2052094Y2095442D01*
X2000000Y2100000D01*
X1947905Y2095442D01*
X1897393Y2081907D01*
X1850000Y2059807D01*
X1807163Y2029813D01*
X1770186Y1992836D01*
X1740192Y1950000D01*
X1718092Y1902606D01*
X1704557Y1852094D01*
X1700000Y1800000D01*
X1704557Y1747905D01*
X1718092Y1697393D01*
X1740192Y1650000D01*
X1770186Y1607163D01*
X1807163Y1570186D01*
X1849999Y1540192D01*
X1897393Y1518092D01*
X1947905Y1504557D01*
X2000000Y1500000D01*
X2052094Y1504557D01*
X2102606Y1518092D01*
X2150000Y1540192D01*
X2192836Y1570186D01*
X2229813Y1607163D01*
X2259807Y1649999D01*
X2281907Y1697393D01*
X2295442Y1747905D01*
X2300000Y1800000D01*
G04 Ring Resonator at 2000000,2600000*
X2300000Y2600000D02*
X2295442Y2652094D01*
X2281907Y2702606D01*
X2259807Y2750000D01*
X2229813Y2792836D01*
X2192836Y2829813D01*
X2150000Y2859807D01*
X2102606Y2881907D01*
X2052094Y2895442D01*
X2000000Y2900000D01*
X1947905Y2895442D01*
X1897393Y2881907D01*
X1850000Y2859807D01*
X1807163Y2829813D01*
X1770186Y2792836D01*
X1740192Y2750000D01*
X1718092Y2702606D01*
X1704557Y2652094D01*
X1700000Y2600000D01*
X1704557Y2547905D01*
X1718092Y2497393D01*
X1740192Y2450000D01*
X1770186Y2407163D01*
X1807163Y2370186D01*
X1849999Y2340192D01*
X1897393Y2318092D01*
X1947905Y2304557D01*
X2000000Y2300000D01*
X2052094Y2304557D01*
X2102606Y2318092D01*
X2150000Y2340192D01*
X2192836Y2370186D01*
X2229813Y2407163D01*
X2259807Y2450000D01*
X2281907Y2497393D01*
X2295442Y2547905D01*
X2300000Y2600000D01*
G04 Ring Resonator at 2000000,3400000*
X2300000Y3400000D02*
X2295442Y3452094D01*
X2281907Y3502606D01*
X2259807Y3550000D01*
X2229813Y3592836D01*
X2192836Y3629813D01*
X2150000Y3659807D01*
X2102606Y3681907D01*
X2052094Y3695442D01*
X2000000Y3700000D01*
X1947905Y3695442D01*
X1897393Y3681907D01*
X1850000Y3659807D01*
X1807163Y3629813D01*
X1770186Y3592836D01*
X1740192Y3550000D01*
X1718092Y3502606D01*
X1704557Y3452094D01*
X1700000Y3400000D01*
X1704557Y3347905D01*
X1718092Y3297393D01*
X1740192Y3250000D01*
X1770186Y3207163D01*
X1807163Y3170186D01*
X1849999Y3140192D01*
X1897393Y3118092D01*
X1947905Y3104557D01*
X2000000Y3100000D01*
X2052094Y3104557D01*
X2102606Y3118092D01*
X2150000Y3140192D01*
X2192836Y3170186D01*
X2229813Y3207163D01*
X2259807Y3250000D01*
X2281907Y3297393D01*
X2295442Y3347905D01*
X2300000Y3400000D01*
G04 Bus Waveguides*
X500000Y500000D02*
X3500000Y500000D01*
X500000Y3500000D02*
X3500000Y3500000D01*
M02*
