<?xml version="1.0" encoding="utf-8" standalone="no"?>
<!DOCTYPE svg PUBLIC "-//W3C//DTD SVG 1.1//EN"
  "http://www.w3.org/Graphics/SVG/1.1/DTD/svg11.dtd">
<svg xmlns:xlink="http://www.w3.org/1999/xlink" width="864pt" height="1152pt" viewBox="0 0 864 1152" xmlns="http://www.w3.org/2000/svg" version="1.1">
 <metadata>
  <rdf:RDF xmlns:dc="http://purl.org/dc/elements/1.1/" xmlns:cc="http://creativecommons.org/ns#" xmlns:rdf="http://www.w3.org/1999/02/22-rdf-syntax-ns#">
   <cc:Work>
    <dc:type rdf:resource="http://purl.org/dc/dcmitype/StillImage"/>
    <dc:date>2026-02-16T15:59:53.924540</dc:date>
    <dc:format>image/svg+xml</dc:format>
    <dc:creator>
     <cc:Agent>
      <dc:title>Matplotlib v3.9.4, https://matplotlib.org/</dc:title>
     </cc:Agent>
    </dc:creator>
   </cc:Work>
  </rdf:RDF>
 </metadata>
 <defs>
  <style type="text/css">*{stroke-linejoin: round; stroke-linecap: butt}</style>
 </defs>
 <g id="figure_1">
  <g id="patch_1">
   <path d="M 0 1152 
L 864 1152 
L 864 0 
L 0 0 
z
" style="fill: #0f1629"/>
  </g>
  <g id="axes_1">
   <g id="line2d_1">
    <path d="M 475.790625 1042.388811 
L 527.45625 1042.388811 
" clip-path="url(#p81f3eab2ea)" style="fill: none; stroke-dasharray: 0.5,0.825; stroke-dashoffset: 0; stroke: #ffffff; stroke-opacity: 0.5; stroke-width: 0.5"/>
   </g>
   <g id="line2d_2">
    <path d="M 475.790625 1006.816783 
L 527.45625 1006.816783 
" clip-path="url(#p81f3eab2ea)" style="fill: none; stroke-dasharray: 0.5,0.825; stroke-dashoffset: 0; stroke: #ffffff; stroke-opacity: 0.5; stroke-width: 0.5"/>
   </g>
   <g id="line2d_3">
    <path d="M 475.790625 911.958042 
L 527.45625 911.958042 
" clip-path="url(#p81f3eab2ea)" style="fill: none; stroke-dasharray: 0.5,0.825; stroke-dashoffset: 0; stroke: #ffffff; stroke-opacity: 0.5; stroke-width: 0.5"/>
   </g>
   <g id="line2d_4">
    <path d="M 475.790625 817.099301 
L 527.45625 817.099301 
" clip-path="url(#p81f3eab2ea)" style="fill: none; stroke-dasharray: 0.5,0.825; stroke-dashoffset: 0; stroke: #ffffff; stroke-opacity: 0.5; stroke-width: 0.5"/>
   </g>
   <g id="line2d_5">
    <path d="M 434.458125 789.432168 
L 527.45625 789.432168 
" clip-path="url(#p81f3eab2ea)" style="fill: none; stroke-dasharray: 0.5,0.825; stroke-dashoffset: 0; stroke: #ffffff; stroke-opacity: 0.5; stroke-width: 0.5"/>
   </g>
   <g id="line2d_6">
    <path d="M 434.458125 738.05035 
L 527.45625 738.05035 
" clip-path="url(#p81f3eab2ea)" style="fill: none; stroke-dasharray: 0.5,0.825; stroke-dashoffset: 0; stroke: #ffffff; stroke-opacity: 0.5; stroke-width: 0.5"/>
   </g>
   <g id="line2d_7">
    <path d="M 424.125 651.096503 
L 527.45625 651.096503 
" clip-path="url(#p81f3eab2ea)" style="fill: none; stroke-dasharray: 0.5,0.825; stroke-dashoffset: 0; stroke: #ffffff; stroke-opacity: 0.5; stroke-width: 0.5"/>
   </g>
   <g id="line2d_8">
    <path d="M 424.125 572.047552 
L 527.45625 572.047552 
" clip-path="url(#p81f3eab2ea)" style="fill: none; stroke-dasharray: 0.5,0.825; stroke-dashoffset: 0; stroke: #ffffff; stroke-opacity: 0.5; stroke-width: 0.5"/>
   </g>
   <g id="line2d_9">
    <path d="M 434.458125 524.618182 
L 527.45625 524.618182 
" clip-path="url(#p81f3eab2ea)" style="fill: none; stroke-dasharray: 0.5,0.825; stroke-dashoffset: 0; stroke: #ffffff; stroke-opacity: 0.5; stroke-width: 0.5"/>
   </g>
   <g id="line2d_10">
    <path d="M 393.125625 469.283916 
L 527.45625 469.283916 
" clip-path="url(#p81f3eab2ea)" style="fill: none; stroke-dasharray: 0.5,0.825; stroke-dashoffset: 0; stroke: #ffffff; stroke-opacity: 0.5; stroke-width: 0.5"/>
   </g>
   <g id="line2d_11">
    <path d="M 393.125625 421.854545 
L 527.45625 421.854545 
" clip-path="url(#p81f3eab2ea)" style="fill: none; stroke-dasharray: 0.5,0.825; stroke-dashoffset: 0; stroke: #ffffff; stroke-opacity: 0.5; stroke-width: 0.5"/>
   </g>
   <g id="line2d_12">
    <path d="M 393.125625 374.425175 
L 527.45625 374.425175 
" clip-path="url(#p81f3eab2ea)" style="fill: none; stroke-dasharray: 0.5,0.825; stroke-dashoffset: 0; stroke: #ffffff; stroke-opacity: 0.5; stroke-width: 0.5"/>
   </g>
   <g id="line2d_13">
    <path d="M 465.4575 295.376224 
L 527.45625 295.376224 
" clip-path="url(#p81f3eab2ea)" style="fill: none; stroke-dasharray: 0.5,0.825; stroke-dashoffset: 0; stroke: #ffffff; stroke-opacity: 0.5; stroke-width: 0.5"/>
   </g>
   <g id="line2d_14">
    <path d="M 455.124375 236.08951 
L 527.45625 236.08951 
" clip-path="url(#p81f3eab2ea)" style="fill: none; stroke-dasharray: 0.5,0.825; stroke-dashoffset: 0; stroke: #ffffff; stroke-opacity: 0.5; stroke-width: 0.5"/>
   </g>
   <g id="line2d_15">
    <path d="M 475.790625 157.040559 
L 527.45625 157.040559 
" clip-path="url(#p81f3eab2ea)" style="fill: none; stroke-dasharray: 0.5,0.825; stroke-dashoffset: 0; stroke: #ffffff; stroke-opacity: 0.5; stroke-width: 0.5"/>
   </g>
   <g id="text_1">
    <!-- Layer 1:  BGA Ball Grid Array -->
    <g style="fill: #e0e6ed" transform="translate(537.789375 1045.109124) scale(0.1 -0.1)">
     <defs>
      <path id="DejaVuSans-Bold-4c" d="M 588 4666 
L 1791 4666 
L 1791 909 
L 3903 909 
L 3903 0 
L 588 0 
L 588 4666 
z
" transform="scale(0.015625)"/>
      <path id="DejaVuSans-Bold-61" d="M 2106 1575 
Q 1756 1575 1579 1456 
Q 1403 1338 1403 1106 
Q 1403 894 1545 773 
Q 1688 653 1941 653 
Q 2256 653 2472 879 
Q 2688 1106 2688 1447 
L 2688 1575 
L 2106 1575 
z
M 3816 1997 
L 3816 0 
L 2688 0 
L 2688 519 
Q 2463 200 2181 54 
Q 1900 -91 1497 -91 
Q 953 -91 614 226 
Q 275 544 275 1050 
Q 275 1666 698 1953 
Q 1122 2241 2028 2241 
L 2688 2241 
L 2688 2328 
Q 2688 2594 2478 2717 
Q 2269 2841 1825 2841 
Q 1466 2841 1156 2769 
Q 847 2697 581 2553 
L 581 3406 
Q 941 3494 1303 3539 
Q 1666 3584 2028 3584 
Q 2975 3584 3395 3211 
Q 3816 2838 3816 1997 
z
" transform="scale(0.015625)"/>
      <path id="DejaVuSans-Bold-79" d="M 78 3500 
L 1197 3500 
L 2138 1125 
L 2938 3500 
L 4056 3500 
L 2584 -331 
Q 2363 -916 2067 -1148 
Q 1772 -1381 1288 -1381 
L 641 -1381 
L 641 -647 
L 991 -647 
Q 1275 -647 1404 -556 
Q 1534 -466 1606 -231 
L 1638 -134 
L 78 3500 
z
" transform="scale(0.015625)"/>
      <path id="DejaVuSans-Bold-65" d="M 4031 1759 
L 4031 1441 
L 1416 1441 
Q 1456 1047 1700 850 
Q 1944 653 2381 653 
Q 2734 653 3104 758 
Q 3475 863 3866 1075 
L 3866 213 
Q 3469 63 3072 -14 
Q 2675 -91 2278 -91 
Q 1328 -91 801 392 
Q 275 875 275 1747 
Q 275 2603 792 3093 
Q 1309 3584 2216 3584 
Q 3041 3584 3536 3087 
Q 4031 2591 4031 1759 
z
M 2881 2131 
Q 2881 2450 2695 2645 
Q 2509 2841 2209 2841 
Q 1884 2841 1681 2658 
Q 1478 2475 1428 2131 
L 2881 2131 
z
" transform="scale(0.015625)"/>
      <path id="DejaVuSans-Bold-72" d="M 3138 2547 
Q 2991 2616 2845 2648 
Q 2700 2681 2553 2681 
Q 2122 2681 1889 2404 
Q 1656 2128 1656 1613 
L 1656 0 
L 538 0 
L 538 3500 
L 1656 3500 
L 1656 2925 
Q 1872 3269 2151 3426 
Q 2431 3584 2822 3584 
Q 2878 3584 2943 3579 
Q 3009 3575 3134 3559 
L 3138 2547 
z
" transform="scale(0.015625)"/>
      <path id="DejaVuSans-Bold-20" transform="scale(0.015625)"/>
      <path id="DejaVuSans-Bold-31" d="M 750 831 
L 1813 831 
L 1813 3847 
L 722 3622 
L 722 4441 
L 1806 4666 
L 2950 4666 
L 2950 831 
L 4013 831 
L 4013 0 
L 750 0 
L 750 831 
z
" transform="scale(0.015625)"/>
      <path id="DejaVuSans-Bold-3a" d="M 716 3500 
L 1844 3500 
L 1844 2291 
L 716 2291 
L 716 3500 
z
M 716 1209 
L 1844 1209 
L 1844 0 
L 716 0 
L 716 1209 
z
" transform="scale(0.015625)"/>
      <path id="DejaVuSans-Bold-42" d="M 2456 2859 
Q 2741 2859 2887 2984 
Q 3034 3109 3034 3353 
Q 3034 3594 2887 3720 
Q 2741 3847 2456 3847 
L 1791 3847 
L 1791 2859 
L 2456 2859 
z
M 2497 819 
Q 2859 819 3042 972 
Q 3225 1125 3225 1434 
Q 3225 1738 3044 1889 
Q 2863 2041 2497 2041 
L 1791 2041 
L 1791 819 
L 2497 819 
z
M 3616 2497 
Q 4003 2384 4215 2081 
Q 4428 1778 4428 1338 
Q 4428 663 3972 331 
Q 3516 0 2584 0 
L 588 0 
L 588 4666 
L 2394 4666 
Q 3366 4666 3802 4372 
Q 4238 4078 4238 3431 
Q 4238 3091 4078 2852 
Q 3919 2613 3616 2497 
z
" transform="scale(0.015625)"/>
      <path id="DejaVuSans-Bold-47" d="M 4781 347 
Q 4331 128 3847 18 
Q 3363 -91 2847 -91 
Q 1681 -91 1000 561 
Q 319 1213 319 2328 
Q 319 3456 1012 4103 
Q 1706 4750 2913 4750 
Q 3378 4750 3804 4662 
Q 4231 4575 4609 4403 
L 4609 3438 
Q 4219 3659 3833 3768 
Q 3447 3878 3059 3878 
Q 2341 3878 1952 3476 
Q 1563 3075 1563 2328 
Q 1563 1588 1938 1184 
Q 2313 781 3003 781 
Q 3191 781 3352 804 
Q 3513 828 3641 878 
L 3641 1784 
L 2906 1784 
L 2906 2591 
L 4781 2591 
L 4781 347 
z
" transform="scale(0.015625)"/>
      <path id="DejaVuSans-Bold-41" d="M 3419 850 
L 1538 850 
L 1241 0 
L 31 0 
L 1759 4666 
L 3194 4666 
L 4922 0 
L 3713 0 
L 3419 850 
z
M 1838 1716 
L 3116 1716 
L 2478 3572 
L 1838 1716 
z
" transform="scale(0.015625)"/>
      <path id="DejaVuSans-Bold-6c" d="M 538 4863 
L 1656 4863 
L 1656 0 
L 538 0 
L 538 4863 
z
" transform="scale(0.015625)"/>
      <path id="DejaVuSans-Bold-69" d="M 538 3500 
L 1656 3500 
L 1656 0 
L 538 0 
L 538 3500 
z
M 538 4863 
L 1656 4863 
L 1656 3950 
L 538 3950 
L 538 4863 
z
" transform="scale(0.015625)"/>
      <path id="DejaVuSans-Bold-64" d="M 2919 2988 
L 2919 4863 
L 4044 4863 
L 4044 0 
L 2919 0 
L 2919 506 
Q 2688 197 2409 53 
Q 2131 -91 1766 -91 
Q 1119 -91 703 423 
Q 288 938 288 1747 
Q 288 2556 703 3070 
Q 1119 3584 1766 3584 
Q 2128 3584 2408 3439 
Q 2688 3294 2919 2988 
z
M 2181 722 
Q 2541 722 2730 984 
Q 2919 1247 2919 1747 
Q 2919 2247 2730 2509 
Q 2541 2772 2181 2772 
Q 1825 2772 1636 2509 
Q 1447 2247 1447 1747 
Q 1447 1247 1636 984 
Q 1825 722 2181 722 
z
" transform="scale(0.015625)"/>
     </defs>
     <use xlink:href="#DejaVuSans-Bold-4c"/>
     <use xlink:href="#DejaVuSans-Bold-61" x="63.720703"/>
     <use xlink:href="#DejaVuSans-Bold-79" x="128.076172"/>
     <use xlink:href="#DejaVuSans-Bold-65" x="193.261719"/>
     <use xlink:href="#DejaVuSans-Bold-72" x="261.083984"/>
     <use xlink:href="#DejaVuSans-Bold-20" x="310.400391"/>
     <use xlink:href="#DejaVuSans-Bold-31" x="345.214844"/>
     <use xlink:href="#DejaVuSans-Bold-3a" x="414.794922"/>
     <use xlink:href="#DejaVuSans-Bold-20" x="454.785156"/>
     <use xlink:href="#DejaVuSans-Bold-20" x="489.599609"/>
     <use xlink:href="#DejaVuSans-Bold-42" x="524.414062"/>
     <use xlink:href="#DejaVuSans-Bold-47" x="600.634766"/>
     <use xlink:href="#DejaVuSans-Bold-41" x="682.714844"/>
     <use xlink:href="#DejaVuSans-Bold-20" x="760.107422"/>
     <use xlink:href="#DejaVuSans-Bold-42" x="794.921875"/>
     <use xlink:href="#DejaVuSans-Bold-61" x="871.142578"/>
     <use xlink:href="#DejaVuSans-Bold-6c" x="938.623047"/>
     <use xlink:href="#DejaVuSans-Bold-6c" x="972.900391"/>
     <use xlink:href="#DejaVuSans-Bold-20" x="1007.177734"/>
     <use xlink:href="#DejaVuSans-Bold-47" x="1041.992188"/>
     <use xlink:href="#DejaVuSans-Bold-72" x="1124.072266"/>
     <use xlink:href="#DejaVuSans-Bold-69" x="1173.388672"/>
     <use xlink:href="#DejaVuSans-Bold-64" x="1207.666016"/>
     <use xlink:href="#DejaVuSans-Bold-20" x="1279.248047"/>
     <use xlink:href="#DejaVuSans-Bold-41" x="1314.0625"/>
     <use xlink:href="#DejaVuSans-Bold-72" x="1391.455078"/>
     <use xlink:href="#DejaVuSans-Bold-72" x="1440.771484"/>
     <use xlink:href="#DejaVuSans-Bold-61" x="1490.087891"/>
     <use xlink:href="#DejaVuSans-Bold-79" x="1554.443359"/>
    </g>
   </g>
   <g id="text_2">
    <!-- Layer 2:  Package Substrate Bottom Metal -->
    <g style="fill: #e0e6ed" transform="translate(537.789375 1009.537096) scale(0.1 -0.1)">
     <defs>
      <path id="DejaVuSans-Bold-32" d="M 1844 884 
L 3897 884 
L 3897 0 
L 506 0 
L 506 884 
L 2209 2388 
Q 2438 2594 2547 2791 
Q 2656 2988 2656 3200 
Q 2656 3528 2436 3728 
Q 2216 3928 1850 3928 
Q 1569 3928 1234 3808 
Q 900 3688 519 3450 
L 519 4475 
Q 925 4609 1322 4679 
Q 1719 4750 2100 4750 
Q 2938 4750 3402 4381 
Q 3866 4013 3866 3353 
Q 3866 2972 3669 2642 
Q 3472 2313 2841 1759 
L 1844 884 
z
" transform="scale(0.015625)"/>
      <path id="DejaVuSans-Bold-50" d="M 588 4666 
L 2584 4666 
Q 3475 4666 3951 4270 
Q 4428 3875 4428 3144 
Q 4428 2409 3951 2014 
Q 3475 1619 2584 1619 
L 1791 1619 
L 1791 0 
L 588 0 
L 588 4666 
z
M 1791 3794 
L 1791 2491 
L 2456 2491 
Q 2806 2491 2997 2661 
Q 3188 2831 3188 3144 
Q 3188 3456 2997 3625 
Q 2806 3794 2456 3794 
L 1791 3794 
z
" transform="scale(0.015625)"/>
      <path id="DejaVuSans-Bold-63" d="M 3366 3391 
L 3366 2478 
Q 3138 2634 2908 2709 
Q 2678 2784 2431 2784 
Q 1963 2784 1702 2511 
Q 1441 2238 1441 1747 
Q 1441 1256 1702 982 
Q 1963 709 2431 709 
Q 2694 709 2930 787 
Q 3166 866 3366 1019 
L 3366 103 
Q 3103 6 2833 -42 
Q 2563 -91 2291 -91 
Q 1344 -91 809 395 
Q 275 881 275 1747 
Q 275 2613 809 3098 
Q 1344 3584 2291 3584 
Q 2566 3584 2833 3536 
Q 3100 3488 3366 3391 
z
" transform="scale(0.015625)"/>
      <path id="DejaVuSans-Bold-6b" d="M 538 4863 
L 1656 4863 
L 1656 2216 
L 2944 3500 
L 4244 3500 
L 2534 1894 
L 4378 0 
L 3022 0 
L 1656 1459 
L 1656 0 
L 538 0 
L 538 4863 
z
" transform="scale(0.015625)"/>
      <path id="DejaVuSans-Bold-67" d="M 2919 594 
Q 2688 288 2409 144 
Q 2131 0 1766 0 
Q 1125 0 706 504 
Q 288 1009 288 1791 
Q 288 2575 706 3076 
Q 1125 3578 1766 3578 
Q 2131 3578 2409 3434 
Q 2688 3291 2919 2981 
L 2919 3500 
L 4044 3500 
L 4044 353 
Q 4044 -491 3511 -936 
Q 2978 -1381 1966 -1381 
Q 1638 -1381 1331 -1331 
Q 1025 -1281 716 -1178 
L 716 -306 
Q 1009 -475 1290 -558 
Q 1572 -641 1856 -641 
Q 2406 -641 2662 -400 
Q 2919 -159 2919 353 
L 2919 594 
z
M 2181 2772 
Q 1834 2772 1640 2515 
Q 1447 2259 1447 1791 
Q 1447 1309 1634 1061 
Q 1822 813 2181 813 
Q 2531 813 2725 1069 
Q 2919 1325 2919 1791 
Q 2919 2259 2725 2515 
Q 2531 2772 2181 2772 
z
" transform="scale(0.015625)"/>
      <path id="DejaVuSans-Bold-53" d="M 3834 4519 
L 3834 3531 
Q 3450 3703 3084 3790 
Q 2719 3878 2394 3878 
Q 1963 3878 1756 3759 
Q 1550 3641 1550 3391 
Q 1550 3203 1689 3098 
Q 1828 2994 2194 2919 
L 2706 2816 
Q 3484 2659 3812 2340 
Q 4141 2022 4141 1434 
Q 4141 663 3683 286 
Q 3225 -91 2284 -91 
Q 1841 -91 1394 -6 
Q 947 78 500 244 
L 500 1259 
Q 947 1022 1364 901 
Q 1781 781 2169 781 
Q 2563 781 2772 912 
Q 2981 1044 2981 1288 
Q 2981 1506 2839 1625 
Q 2697 1744 2272 1838 
L 1806 1941 
Q 1106 2091 782 2419 
Q 459 2747 459 3303 
Q 459 4000 909 4375 
Q 1359 4750 2203 4750 
Q 2588 4750 2994 4692 
Q 3400 4634 3834 4519 
z
" transform="scale(0.015625)"/>
      <path id="DejaVuSans-Bold-75" d="M 500 1363 
L 500 3500 
L 1625 3500 
L 1625 3150 
Q 1625 2866 1622 2436 
Q 1619 2006 1619 1863 
Q 1619 1441 1641 1255 
Q 1663 1069 1716 984 
Q 1784 875 1895 815 
Q 2006 756 2150 756 
Q 2500 756 2700 1025 
Q 2900 1294 2900 1772 
L 2900 3500 
L 4019 3500 
L 4019 0 
L 2900 0 
L 2900 506 
Q 2647 200 2364 54 
Q 2081 -91 1741 -91 
Q 1134 -91 817 281 
Q 500 653 500 1363 
z
" transform="scale(0.015625)"/>
      <path id="DejaVuSans-Bold-62" d="M 2400 722 
Q 2759 722 2948 984 
Q 3138 1247 3138 1747 
Q 3138 2247 2948 2509 
Q 2759 2772 2400 2772 
Q 2041 2772 1848 2508 
Q 1656 2244 1656 1747 
Q 1656 1250 1848 986 
Q 2041 722 2400 722 
z
M 1656 2988 
Q 1888 3294 2169 3439 
Q 2450 3584 2816 3584 
Q 3463 3584 3878 3070 
Q 4294 2556 4294 1747 
Q 4294 938 3878 423 
Q 3463 -91 2816 -91 
Q 2450 -91 2169 54 
Q 1888 200 1656 506 
L 1656 0 
L 538 0 
L 538 4863 
L 1656 4863 
L 1656 2988 
z
" transform="scale(0.015625)"/>
      <path id="DejaVuSans-Bold-73" d="M 3272 3391 
L 3272 2541 
Q 2913 2691 2578 2766 
Q 2244 2841 1947 2841 
Q 1628 2841 1473 2761 
Q 1319 2681 1319 2516 
Q 1319 2381 1436 2309 
Q 1553 2238 1856 2203 
L 2053 2175 
Q 2913 2066 3209 1816 
Q 3506 1566 3506 1031 
Q 3506 472 3093 190 
Q 2681 -91 1863 -91 
Q 1516 -91 1145 -36 
Q 775 19 384 128 
L 384 978 
Q 719 816 1070 734 
Q 1422 653 1784 653 
Q 2113 653 2278 743 
Q 2444 834 2444 1013 
Q 2444 1163 2330 1236 
Q 2216 1309 1875 1350 
L 1678 1375 
Q 931 1469 631 1722 
Q 331 1975 331 2491 
Q 331 3047 712 3315 
Q 1094 3584 1881 3584 
Q 2191 3584 2531 3537 
Q 2872 3491 3272 3391 
z
" transform="scale(0.015625)"/>
      <path id="DejaVuSans-Bold-74" d="M 1759 4494 
L 1759 3500 
L 2913 3500 
L 2913 2700 
L 1759 2700 
L 1759 1216 
Q 1759 972 1856 886 
Q 1953 800 2241 800 
L 2816 800 
L 2816 0 
L 1856 0 
Q 1194 0 917 276 
Q 641 553 641 1216 
L 641 2700 
L 84 2700 
L 84 3500 
L 641 3500 
L 641 4494 
L 1759 4494 
z
" transform="scale(0.015625)"/>
      <path id="DejaVuSans-Bold-6f" d="M 2203 2784 
Q 1831 2784 1636 2517 
Q 1441 2250 1441 1747 
Q 1441 1244 1636 976 
Q 1831 709 2203 709 
Q 2569 709 2762 976 
Q 2956 1244 2956 1747 
Q 2956 2250 2762 2517 
Q 2569 2784 2203 2784 
z
M 2203 3584 
Q 3106 3584 3614 3096 
Q 4122 2609 4122 1747 
Q 4122 884 3614 396 
Q 3106 -91 2203 -91 
Q 1297 -91 786 396 
Q 275 884 275 1747 
Q 275 2609 786 3096 
Q 1297 3584 2203 3584 
z
" transform="scale(0.015625)"/>
      <path id="DejaVuSans-Bold-6d" d="M 3781 2919 
Q 3994 3244 4286 3414 
Q 4578 3584 4928 3584 
Q 5531 3584 5847 3212 
Q 6163 2841 6163 2131 
L 6163 0 
L 5038 0 
L 5038 1825 
Q 5041 1866 5042 1909 
Q 5044 1953 5044 2034 
Q 5044 2406 4934 2573 
Q 4825 2741 4581 2741 
Q 4263 2741 4089 2478 
Q 3916 2216 3909 1719 
L 3909 0 
L 2784 0 
L 2784 1825 
Q 2784 2406 2684 2573 
Q 2584 2741 2328 2741 
Q 2006 2741 1831 2477 
Q 1656 2213 1656 1722 
L 1656 0 
L 531 0 
L 531 3500 
L 1656 3500 
L 1656 2988 
Q 1863 3284 2130 3434 
Q 2397 3584 2719 3584 
Q 3081 3584 3359 3409 
Q 3638 3234 3781 2919 
z
" transform="scale(0.015625)"/>
      <path id="DejaVuSans-Bold-4d" d="M 588 4666 
L 2119 4666 
L 3181 2169 
L 4250 4666 
L 5778 4666 
L 5778 0 
L 4641 0 
L 4641 3413 
L 3566 897 
L 2803 897 
L 1728 3413 
L 1728 0 
L 588 0 
L 588 4666 
z
" transform="scale(0.015625)"/>
     </defs>
     <use xlink:href="#DejaVuSans-Bold-4c"/>
     <use xlink:href="#DejaVuSans-Bold-61" x="63.720703"/>
     <use xlink:href="#DejaVuSans-Bold-79" x="128.076172"/>
     <use xlink:href="#DejaVuSans-Bold-65" x="193.261719"/>
     <use xlink:href="#DejaVuSans-Bold-72" x="261.083984"/>
     <use xlink:href="#DejaVuSans-Bold-20" x="310.400391"/>
     <use xlink:href="#DejaVuSans-Bold-32" x="345.214844"/>
     <use xlink:href="#DejaVuSans-Bold-3a" x="414.794922"/>
     <use xlink:href="#DejaVuSans-Bold-20" x="454.785156"/>
     <use xlink:href="#DejaVuSans-Bold-20" x="489.599609"/>
     <use xlink:href="#DejaVuSans-Bold-50" x="524.414062"/>
     <use xlink:href="#DejaVuSans-Bold-61" x="595.080078"/>
     <use xlink:href="#DejaVuSans-Bold-63" x="662.560547"/>
     <use xlink:href="#DejaVuSans-Bold-6b" x="721.837891"/>
     <use xlink:href="#DejaVuSans-Bold-61" x="788.341797"/>
     <use xlink:href="#DejaVuSans-Bold-67" x="855.822266"/>
     <use xlink:href="#DejaVuSans-Bold-65" x="927.404297"/>
     <use xlink:href="#DejaVuSans-Bold-20" x="995.226562"/>
     <use xlink:href="#DejaVuSans-Bold-53" x="1030.041016"/>
     <use xlink:href="#DejaVuSans-Bold-75" x="1102.0625"/>
     <use xlink:href="#DejaVuSans-Bold-62" x="1173.253906"/>
     <use xlink:href="#DejaVuSans-Bold-73" x="1244.835938"/>
     <use xlink:href="#DejaVuSans-Bold-74" x="1304.357422"/>
     <use xlink:href="#DejaVuSans-Bold-72" x="1352.160156"/>
     <use xlink:href="#DejaVuSans-Bold-61" x="1401.476562"/>
     <use xlink:href="#DejaVuSans-Bold-74" x="1468.957031"/>
     <use xlink:href="#DejaVuSans-Bold-65" x="1516.759766"/>
     <use xlink:href="#DejaVuSans-Bold-20" x="1584.582031"/>
     <use xlink:href="#DejaVuSans-Bold-42" x="1619.396484"/>
     <use xlink:href="#DejaVuSans-Bold-6f" x="1695.617188"/>
     <use xlink:href="#DejaVuSans-Bold-74" x="1764.318359"/>
     <use xlink:href="#DejaVuSans-Bold-74" x="1812.121094"/>
     <use xlink:href="#DejaVuSans-Bold-6f" x="1859.923828"/>
     <use xlink:href="#DejaVuSans-Bold-6d" x="1928.625"/>
     <use xlink:href="#DejaVuSans-Bold-20" x="2032.824219"/>
     <use xlink:href="#DejaVuSans-Bold-4d" x="2067.638672"/>
     <use xlink:href="#DejaVuSans-Bold-65" x="2167.150391"/>
     <use xlink:href="#DejaVuSans-Bold-74" x="2234.972656"/>
     <use xlink:href="#DejaVuSans-Bold-61" x="2282.775391"/>
     <use xlink:href="#DejaVuSans-Bold-6c" x="2350.255859"/>
    </g>
   </g>
   <g id="text_3">
    <!-- Layer 3:  Organic Package Substrate (Core) -->
    <g style="fill: #e0e6ed" transform="translate(537.789375 914.678354) scale(0.1 -0.1)">
     <defs>
      <path id="DejaVuSans-Bold-33" d="M 2981 2516 
Q 3453 2394 3698 2092 
Q 3944 1791 3944 1325 
Q 3944 631 3412 270 
Q 2881 -91 1863 -91 
Q 1503 -91 1142 -33 
Q 781 25 428 141 
L 428 1069 
Q 766 900 1098 814 
Q 1431 728 1753 728 
Q 2231 728 2486 893 
Q 2741 1059 2741 1369 
Q 2741 1688 2480 1852 
Q 2219 2016 1709 2016 
L 1228 2016 
L 1228 2791 
L 1734 2791 
Q 2188 2791 2409 2933 
Q 2631 3075 2631 3366 
Q 2631 3634 2415 3781 
Q 2200 3928 1806 3928 
Q 1516 3928 1219 3862 
Q 922 3797 628 3669 
L 628 4550 
Q 984 4650 1334 4700 
Q 1684 4750 2022 4750 
Q 2931 4750 3382 4451 
Q 3834 4153 3834 3553 
Q 3834 3144 3618 2883 
Q 3403 2622 2981 2516 
z
" transform="scale(0.015625)"/>
      <path id="DejaVuSans-Bold-4f" d="M 2719 3878 
Q 2169 3878 1866 3472 
Q 1563 3066 1563 2328 
Q 1563 1594 1866 1187 
Q 2169 781 2719 781 
Q 3272 781 3575 1187 
Q 3878 1594 3878 2328 
Q 3878 3066 3575 3472 
Q 3272 3878 2719 3878 
z
M 2719 4750 
Q 3844 4750 4481 4106 
Q 5119 3463 5119 2328 
Q 5119 1197 4481 553 
Q 3844 -91 2719 -91 
Q 1597 -91 958 553 
Q 319 1197 319 2328 
Q 319 3463 958 4106 
Q 1597 4750 2719 4750 
z
" transform="scale(0.015625)"/>
      <path id="DejaVuSans-Bold-6e" d="M 4056 2131 
L 4056 0 
L 2931 0 
L 2931 347 
L 2931 1631 
Q 2931 2084 2911 2256 
Q 2891 2428 2841 2509 
Q 2775 2619 2662 2680 
Q 2550 2741 2406 2741 
Q 2056 2741 1856 2470 
Q 1656 2200 1656 1722 
L 1656 0 
L 538 0 
L 538 3500 
L 1656 3500 
L 1656 2988 
Q 1909 3294 2193 3439 
Q 2478 3584 2822 3584 
Q 3428 3584 3742 3212 
Q 4056 2841 4056 2131 
z
" transform="scale(0.015625)"/>
      <path id="DejaVuSans-Bold-28" d="M 2413 -844 
L 1484 -844 
Q 1006 -72 778 623 
Q 550 1319 550 2003 
Q 550 2688 779 3389 
Q 1009 4091 1484 4856 
L 2413 4856 
Q 2013 4116 1813 3408 
Q 1613 2700 1613 2009 
Q 1613 1319 1811 609 
Q 2009 -100 2413 -844 
z
" transform="scale(0.015625)"/>
      <path id="DejaVuSans-Bold-43" d="M 4288 256 
Q 3956 84 3597 -3 
Q 3238 -91 2847 -91 
Q 1681 -91 1000 561 
Q 319 1213 319 2328 
Q 319 3447 1000 4098 
Q 1681 4750 2847 4750 
Q 3238 4750 3597 4662 
Q 3956 4575 4288 4403 
L 4288 3438 
Q 3953 3666 3628 3772 
Q 3303 3878 2944 3878 
Q 2300 3878 1931 3465 
Q 1563 3053 1563 2328 
Q 1563 1606 1931 1193 
Q 2300 781 2944 781 
Q 3303 781 3628 887 
Q 3953 994 4288 1222 
L 4288 256 
z
" transform="scale(0.015625)"/>
      <path id="DejaVuSans-Bold-29" d="M 513 -844 
Q 913 -100 1113 609 
Q 1313 1319 1313 2009 
Q 1313 2700 1113 3408 
Q 913 4116 513 4856 
L 1441 4856 
Q 1916 4091 2145 3389 
Q 2375 2688 2375 2003 
Q 2375 1319 2147 623 
Q 1919 -72 1441 -844 
L 513 -844 
z
" transform="scale(0.015625)"/>
     </defs>
     <use xlink:href="#DejaVuSans-Bold-4c"/>
     <use xlink:href="#DejaVuSans-Bold-61" x="63.720703"/>
     <use xlink:href="#DejaVuSans-Bold-79" x="128.076172"/>
     <use xlink:href="#DejaVuSans-Bold-65" x="193.261719"/>
     <use xlink:href="#DejaVuSans-Bold-72" x="261.083984"/>
     <use xlink:href="#DejaVuSans-Bold-20" x="310.400391"/>
     <use xlink:href="#DejaVuSans-Bold-33" x="345.214844"/>
     <use xlink:href="#DejaVuSans-Bold-3a" x="414.794922"/>
     <use xlink:href="#DejaVuSans-Bold-20" x="454.785156"/>
     <use xlink:href="#DejaVuSans-Bold-20" x="489.599609"/>
     <use xlink:href="#DejaVuSans-Bold-4f" x="524.414062"/>
     <use xlink:href="#DejaVuSans-Bold-72" x="609.423828"/>
     <use xlink:href="#DejaVuSans-Bold-67" x="658.740234"/>
     <use xlink:href="#DejaVuSans-Bold-61" x="730.322266"/>
     <use xlink:href="#DejaVuSans-Bold-6e" x="797.802734"/>
     <use xlink:href="#DejaVuSans-Bold-69" x="868.994141"/>
     <use xlink:href="#DejaVuSans-Bold-63" x="903.271484"/>
     <use xlink:href="#DejaVuSans-Bold-20" x="962.548828"/>
     <use xlink:href="#DejaVuSans-Bold-50" x="997.363281"/>
     <use xlink:href="#DejaVuSans-Bold-61" x="1068.029297"/>
     <use xlink:href="#DejaVuSans-Bold-63" x="1135.509766"/>
     <use xlink:href="#DejaVuSans-Bold-6b" x="1194.787109"/>
     <use xlink:href="#DejaVuSans-Bold-61" x="1261.291016"/>
     <use xlink:href="#DejaVuSans-Bold-67" x="1328.771484"/>
     <use xlink:href="#DejaVuSans-Bold-65" x="1400.353516"/>
     <use xlink:href="#DejaVuSans-Bold-20" x="1468.175781"/>
     <use xlink:href="#DejaVuSans-Bold-53" x="1502.990234"/>
     <use xlink:href="#DejaVuSans-Bold-75" x="1575.011719"/>
     <use xlink:href="#DejaVuSans-Bold-62" x="1646.203125"/>
     <use xlink:href="#DejaVuSans-Bold-73" x="1717.785156"/>
     <use xlink:href="#DejaVuSans-Bold-74" x="1777.306641"/>
     <use xlink:href="#DejaVuSans-Bold-72" x="1825.109375"/>
     <use xlink:href="#DejaVuSans-Bold-61" x="1874.425781"/>
     <use xlink:href="#DejaVuSans-Bold-74" x="1941.90625"/>
     <use xlink:href="#DejaVuSans-Bold-65" x="1989.708984"/>
     <use xlink:href="#DejaVuSans-Bold-20" x="2057.53125"/>
     <use xlink:href="#DejaVuSans-Bold-28" x="2092.345703"/>
     <use xlink:href="#DejaVuSans-Bold-43" x="2138.048828"/>
     <use xlink:href="#DejaVuSans-Bold-6f" x="2211.4375"/>
     <use xlink:href="#DejaVuSans-Bold-72" x="2280.138672"/>
     <use xlink:href="#DejaVuSans-Bold-65" x="2329.455078"/>
     <use xlink:href="#DejaVuSans-Bold-29" x="2397.277344"/>
    </g>
   </g>
   <g id="text_4">
    <!-- Layer 4:  Package Substrate Top Metal -->
    <g style="fill: #e0e6ed" transform="translate(537.789375 819.819613) scale(0.1 -0.1)">
     <defs>
      <path id="DejaVuSans-Bold-34" d="M 2356 3675 
L 1038 1722 
L 2356 1722 
L 2356 3675 
z
M 2156 4666 
L 3494 4666 
L 3494 1722 
L 4159 1722 
L 4159 850 
L 3494 850 
L 3494 0 
L 2356 0 
L 2356 850 
L 288 850 
L 288 1881 
L 2156 4666 
z
" transform="scale(0.015625)"/>
      <path id="DejaVuSans-Bold-54" d="M 31 4666 
L 4331 4666 
L 4331 3756 
L 2784 3756 
L 2784 0 
L 1581 0 
L 1581 3756 
L 31 3756 
L 31 4666 
z
" transform="scale(0.015625)"/>
      <path id="DejaVuSans-Bold-70" d="M 1656 506 
L 1656 -1331 
L 538 -1331 
L 538 3500 
L 1656 3500 
L 1656 2988 
Q 1888 3294 2169 3439 
Q 2450 3584 2816 3584 
Q 3463 3584 3878 3070 
Q 4294 2556 4294 1747 
Q 4294 938 3878 423 
Q 3463 -91 2816 -91 
Q 2450 -91 2169 54 
Q 1888 200 1656 506 
z
M 2400 2772 
Q 2041 2772 1848 2508 
Q 1656 2244 1656 1747 
Q 1656 1250 1848 986 
Q 2041 722 2400 722 
Q 2759 722 2948 984 
Q 3138 1247 3138 1747 
Q 3138 2247 2948 2509 
Q 2759 2772 2400 2772 
z
" transform="scale(0.015625)"/>
     </defs>
     <use xlink:href="#DejaVuSans-Bold-4c"/>
     <use xlink:href="#DejaVuSans-Bold-61" x="63.720703"/>
     <use xlink:href="#DejaVuSans-Bold-79" x="128.076172"/>
     <use xlink:href="#DejaVuSans-Bold-65" x="193.261719"/>
     <use xlink:href="#DejaVuSans-Bold-72" x="261.083984"/>
     <use xlink:href="#DejaVuSans-Bold-20" x="310.400391"/>
     <use xlink:href="#DejaVuSans-Bold-34" x="345.214844"/>
     <use xlink:href="#DejaVuSans-Bold-3a" x="414.794922"/>
     <use xlink:href="#DejaVuSans-Bold-20" x="454.785156"/>
     <use xlink:href="#DejaVuSans-Bold-20" x="489.599609"/>
     <use xlink:href="#DejaVuSans-Bold-50" x="524.414062"/>
     <use xlink:href="#DejaVuSans-Bold-61" x="595.080078"/>
     <use xlink:href="#DejaVuSans-Bold-63" x="662.560547"/>
     <use xlink:href="#DejaVuSans-Bold-6b" x="721.837891"/>
     <use xlink:href="#DejaVuSans-Bold-61" x="788.341797"/>
     <use xlink:href="#DejaVuSans-Bold-67" x="855.822266"/>
     <use xlink:href="#DejaVuSans-Bold-65" x="927.404297"/>
     <use xlink:href="#DejaVuSans-Bold-20" x="995.226562"/>
     <use xlink:href="#DejaVuSans-Bold-53" x="1030.041016"/>
     <use xlink:href="#DejaVuSans-Bold-75" x="1102.0625"/>
     <use xlink:href="#DejaVuSans-Bold-62" x="1173.253906"/>
     <use xlink:href="#DejaVuSans-Bold-73" x="1244.835938"/>
     <use xlink:href="#DejaVuSans-Bold-74" x="1304.357422"/>
     <use xlink:href="#DejaVuSans-Bold-72" x="1352.160156"/>
     <use xlink:href="#DejaVuSans-Bold-61" x="1401.476562"/>
     <use xlink:href="#DejaVuSans-Bold-74" x="1468.957031"/>
     <use xlink:href="#DejaVuSans-Bold-65" x="1516.759766"/>
     <use xlink:href="#DejaVuSans-Bold-20" x="1584.582031"/>
     <use xlink:href="#DejaVuSans-Bold-54" x="1619.396484"/>
     <use xlink:href="#DejaVuSans-Bold-6f" x="1674.359375"/>
     <use xlink:href="#DejaVuSans-Bold-70" x="1743.060547"/>
     <use xlink:href="#DejaVuSans-Bold-20" x="1814.642578"/>
     <use xlink:href="#DejaVuSans-Bold-4d" x="1849.457031"/>
     <use xlink:href="#DejaVuSans-Bold-65" x="1948.96875"/>
     <use xlink:href="#DejaVuSans-Bold-74" x="2016.791016"/>
     <use xlink:href="#DejaVuSans-Bold-61" x="2064.59375"/>
     <use xlink:href="#DejaVuSans-Bold-6c" x="2132.074219"/>
    </g>
   </g>
   <g id="text_5">
    <!-- Layer 5:  Interposer Bottom Bump (C4) -->
    <g style="fill: #e0e6ed" transform="translate(537.789375 792.147012) scale(0.1 -0.1)">
     <defs>
      <path id="DejaVuSans-Bold-35" d="M 678 4666 
L 3669 4666 
L 3669 3781 
L 1638 3781 
L 1638 3059 
Q 1775 3097 1914 3117 
Q 2053 3138 2203 3138 
Q 3056 3138 3531 2711 
Q 4006 2284 4006 1522 
Q 4006 766 3489 337 
Q 2972 -91 2053 -91 
Q 1656 -91 1267 -14 
Q 878 63 494 219 
L 494 1166 
Q 875 947 1217 837 
Q 1559 728 1863 728 
Q 2300 728 2551 942 
Q 2803 1156 2803 1522 
Q 2803 1891 2551 2103 
Q 2300 2316 1863 2316 
Q 1603 2316 1309 2248 
Q 1016 2181 678 2041 
L 678 4666 
z
" transform="scale(0.015625)"/>
      <path id="DejaVuSans-Bold-49" d="M 588 4666 
L 1791 4666 
L 1791 0 
L 588 0 
L 588 4666 
z
" transform="scale(0.015625)"/>
     </defs>
     <use xlink:href="#DejaVuSans-Bold-4c"/>
     <use xlink:href="#DejaVuSans-Bold-61" x="63.720703"/>
     <use xlink:href="#DejaVuSans-Bold-79" x="128.076172"/>
     <use xlink:href="#DejaVuSans-Bold-65" x="193.261719"/>
     <use xlink:href="#DejaVuSans-Bold-72" x="261.083984"/>
     <use xlink:href="#DejaVuSans-Bold-20" x="310.400391"/>
     <use xlink:href="#DejaVuSans-Bold-35" x="345.214844"/>
     <use xlink:href="#DejaVuSans-Bold-3a" x="414.794922"/>
     <use xlink:href="#DejaVuSans-Bold-20" x="454.785156"/>
     <use xlink:href="#DejaVuSans-Bold-20" x="489.599609"/>
     <use xlink:href="#DejaVuSans-Bold-49" x="524.414062"/>
     <use xlink:href="#DejaVuSans-Bold-6e" x="561.621094"/>
     <use xlink:href="#DejaVuSans-Bold-74" x="632.8125"/>
     <use xlink:href="#DejaVuSans-Bold-65" x="680.615234"/>
     <use xlink:href="#DejaVuSans-Bold-72" x="748.4375"/>
     <use xlink:href="#DejaVuSans-Bold-70" x="797.753906"/>
     <use xlink:href="#DejaVuSans-Bold-6f" x="869.335938"/>
     <use xlink:href="#DejaVuSans-Bold-73" x="938.037109"/>
     <use xlink:href="#DejaVuSans-Bold-65" x="997.558594"/>
     <use xlink:href="#DejaVuSans-Bold-72" x="1065.380859"/>
     <use xlink:href="#DejaVuSans-Bold-20" x="1114.697266"/>
     <use xlink:href="#DejaVuSans-Bold-42" x="1149.511719"/>
     <use xlink:href="#DejaVuSans-Bold-6f" x="1225.732422"/>
     <use xlink:href="#DejaVuSans-Bold-74" x="1294.433594"/>
     <use xlink:href="#DejaVuSans-Bold-74" x="1342.236328"/>
     <use xlink:href="#DejaVuSans-Bold-6f" x="1390.039062"/>
     <use xlink:href="#DejaVuSans-Bold-6d" x="1458.740234"/>
     <use xlink:href="#DejaVuSans-Bold-20" x="1562.939453"/>
     <use xlink:href="#DejaVuSans-Bold-42" x="1597.753906"/>
     <use xlink:href="#DejaVuSans-Bold-75" x="1673.974609"/>
     <use xlink:href="#DejaVuSans-Bold-6d" x="1745.166016"/>
     <use xlink:href="#DejaVuSans-Bold-70" x="1849.365234"/>
     <use xlink:href="#DejaVuSans-Bold-20" x="1920.947266"/>
     <use xlink:href="#DejaVuSans-Bold-28" x="1955.761719"/>
     <use xlink:href="#DejaVuSans-Bold-43" x="2001.464844"/>
     <use xlink:href="#DejaVuSans-Bold-34" x="2074.853516"/>
     <use xlink:href="#DejaVuSans-Bold-29" x="2144.433594"/>
    </g>
   </g>
   <g id="text_6">
    <!-- Layer 6:  Silicon Interposer Base -->
    <g style="fill: #e0e6ed" transform="translate(537.789375 740.770662) scale(0.1 -0.1)">
     <defs>
      <path id="DejaVuSans-Bold-36" d="M 2316 2303 
Q 2000 2303 1842 2098 
Q 1684 1894 1684 1484 
Q 1684 1075 1842 870 
Q 2000 666 2316 666 
Q 2634 666 2792 870 
Q 2950 1075 2950 1484 
Q 2950 1894 2792 2098 
Q 2634 2303 2316 2303 
z
M 3803 4544 
L 3803 3681 
Q 3506 3822 3243 3889 
Q 2981 3956 2731 3956 
Q 2194 3956 1894 3657 
Q 1594 3359 1544 2772 
Q 1750 2925 1990 3001 
Q 2231 3078 2516 3078 
Q 3231 3078 3670 2659 
Q 4109 2241 4109 1563 
Q 4109 813 3618 361 
Q 3128 -91 2303 -91 
Q 1394 -91 895 523 
Q 397 1138 397 2266 
Q 397 3422 980 4083 
Q 1563 4744 2578 4744 
Q 2900 4744 3203 4694 
Q 3506 4644 3803 4544 
z
" transform="scale(0.015625)"/>
     </defs>
     <use xlink:href="#DejaVuSans-Bold-4c"/>
     <use xlink:href="#DejaVuSans-Bold-61" x="63.720703"/>
     <use xlink:href="#DejaVuSans-Bold-79" x="128.076172"/>
     <use xlink:href="#DejaVuSans-Bold-65" x="193.261719"/>
     <use xlink:href="#DejaVuSans-Bold-72" x="261.083984"/>
     <use xlink:href="#DejaVuSans-Bold-20" x="310.400391"/>
     <use xlink:href="#DejaVuSans-Bold-36" x="345.214844"/>
     <use xlink:href="#DejaVuSans-Bold-3a" x="414.794922"/>
     <use xlink:href="#DejaVuSans-Bold-20" x="454.785156"/>
     <use xlink:href="#DejaVuSans-Bold-20" x="489.599609"/>
     <use xlink:href="#DejaVuSans-Bold-53" x="524.414062"/>
     <use xlink:href="#DejaVuSans-Bold-69" x="596.435547"/>
     <use xlink:href="#DejaVuSans-Bold-6c" x="630.712891"/>
     <use xlink:href="#DejaVuSans-Bold-69" x="664.990234"/>
     <use xlink:href="#DejaVuSans-Bold-63" x="699.267578"/>
     <use xlink:href="#DejaVuSans-Bold-6f" x="758.544922"/>
     <use xlink:href="#DejaVuSans-Bold-6e" x="827.246094"/>
     <use xlink:href="#DejaVuSans-Bold-20" x="898.4375"/>
     <use xlink:href="#DejaVuSans-Bold-49" x="933.251953"/>
     <use xlink:href="#DejaVuSans-Bold-6e" x="970.458984"/>
     <use xlink:href="#DejaVuSans-Bold-74" x="1041.650391"/>
     <use xlink:href="#DejaVuSans-Bold-65" x="1089.453125"/>
     <use xlink:href="#DejaVuSans-Bold-72" x="1157.275391"/>
     <use xlink:href="#DejaVuSans-Bold-70" x="1206.591797"/>
     <use xlink:href="#DejaVuSans-Bold-6f" x="1278.173828"/>
     <use xlink:href="#DejaVuSans-Bold-73" x="1346.875"/>
     <use xlink:href="#DejaVuSans-Bold-65" x="1406.396484"/>
     <use xlink:href="#DejaVuSans-Bold-72" x="1474.21875"/>
     <use xlink:href="#DejaVuSans-Bold-20" x="1523.535156"/>
     <use xlink:href="#DejaVuSans-Bold-42" x="1558.349609"/>
     <use xlink:href="#DejaVuSans-Bold-61" x="1634.570312"/>
     <use xlink:href="#DejaVuSans-Bold-73" x="1702.050781"/>
     <use xlink:href="#DejaVuSans-Bold-65" x="1761.572266"/>
    </g>
   </g>
   <g id="text_7">
    <!-- Layer 7:  Through-Silicon Vias (TSV) -->
    <g style="fill: #e0e6ed" transform="translate(537.789375 653.816816) scale(0.1 -0.1)">
     <defs>
      <path id="DejaVuSans-Bold-37" d="M 428 4666 
L 3944 4666 
L 3944 3988 
L 2125 0 
L 953 0 
L 2675 3781 
L 428 3781 
L 428 4666 
z
" transform="scale(0.015625)"/>
      <path id="DejaVuSans-Bold-68" d="M 4056 2131 
L 4056 0 
L 2931 0 
L 2931 347 
L 2931 1625 
Q 2931 2084 2911 2256 
Q 2891 2428 2841 2509 
Q 2775 2619 2662 2680 
Q 2550 2741 2406 2741 
Q 2056 2741 1856 2470 
Q 1656 2200 1656 1722 
L 1656 0 
L 538 0 
L 538 4863 
L 1656 4863 
L 1656 2988 
Q 1909 3294 2193 3439 
Q 2478 3584 2822 3584 
Q 3428 3584 3742 3212 
Q 4056 2841 4056 2131 
z
" transform="scale(0.015625)"/>
      <path id="DejaVuSans-Bold-2d" d="M 347 2297 
L 2309 2297 
L 2309 1388 
L 347 1388 
L 347 2297 
z
" transform="scale(0.015625)"/>
      <path id="DejaVuSans-Bold-56" d="M 31 4666 
L 1241 4666 
L 2478 1222 
L 3713 4666 
L 4922 4666 
L 3194 0 
L 1759 0 
L 31 4666 
z
" transform="scale(0.015625)"/>
     </defs>
     <use xlink:href="#DejaVuSans-Bold-4c"/>
     <use xlink:href="#DejaVuSans-Bold-61" x="63.720703"/>
     <use xlink:href="#DejaVuSans-Bold-79" x="128.076172"/>
     <use xlink:href="#DejaVuSans-Bold-65" x="193.261719"/>
     <use xlink:href="#DejaVuSans-Bold-72" x="261.083984"/>
     <use xlink:href="#DejaVuSans-Bold-20" x="310.400391"/>
     <use xlink:href="#DejaVuSans-Bold-37" x="345.214844"/>
     <use xlink:href="#DejaVuSans-Bold-3a" x="414.794922"/>
     <use xlink:href="#DejaVuSans-Bold-20" x="454.785156"/>
     <use xlink:href="#DejaVuSans-Bold-20" x="489.599609"/>
     <use xlink:href="#DejaVuSans-Bold-54" x="524.414062"/>
     <use xlink:href="#DejaVuSans-Bold-68" x="592.626953"/>
     <use xlink:href="#DejaVuSans-Bold-72" x="663.818359"/>
     <use xlink:href="#DejaVuSans-Bold-6f" x="713.134766"/>
     <use xlink:href="#DejaVuSans-Bold-75" x="781.835938"/>
     <use xlink:href="#DejaVuSans-Bold-67" x="853.027344"/>
     <use xlink:href="#DejaVuSans-Bold-68" x="924.609375"/>
     <use xlink:href="#DejaVuSans-Bold-2d" x="995.800781"/>
     <use xlink:href="#DejaVuSans-Bold-53" x="1037.304688"/>
     <use xlink:href="#DejaVuSans-Bold-69" x="1109.326172"/>
     <use xlink:href="#DejaVuSans-Bold-6c" x="1143.603516"/>
     <use xlink:href="#DejaVuSans-Bold-69" x="1177.880859"/>
     <use xlink:href="#DejaVuSans-Bold-63" x="1212.158203"/>
     <use xlink:href="#DejaVuSans-Bold-6f" x="1271.435547"/>
     <use xlink:href="#DejaVuSans-Bold-6e" x="1340.136719"/>
     <use xlink:href="#DejaVuSans-Bold-20" x="1411.328125"/>
     <use xlink:href="#DejaVuSans-Bold-56" x="1446.142578"/>
     <use xlink:href="#DejaVuSans-Bold-69" x="1521.785156"/>
     <use xlink:href="#DejaVuSans-Bold-61" x="1556.0625"/>
     <use xlink:href="#DejaVuSans-Bold-73" x="1623.542969"/>
     <use xlink:href="#DejaVuSans-Bold-20" x="1683.064453"/>
     <use xlink:href="#DejaVuSans-Bold-28" x="1717.878906"/>
     <use xlink:href="#DejaVuSans-Bold-54" x="1763.582031"/>
     <use xlink:href="#DejaVuSans-Bold-53" x="1831.794922"/>
     <use xlink:href="#DejaVuSans-Bold-56" x="1903.816406"/>
     <use xlink:href="#DejaVuSans-Bold-29" x="1981.208984"/>
    </g>
   </g>
   <g id="text_8">
    <!-- Layer 8:  TFLN Photonic Layer (Waveguides) -->
    <g style="fill: #e0e6ed" transform="translate(537.789375 574.767865) scale(0.1 -0.1)">
     <defs>
      <path id="DejaVuSans-Bold-38" d="M 2228 2088 
Q 1891 2088 1709 1903 
Q 1528 1719 1528 1375 
Q 1528 1031 1709 848 
Q 1891 666 2228 666 
Q 2563 666 2741 848 
Q 2919 1031 2919 1375 
Q 2919 1722 2741 1905 
Q 2563 2088 2228 2088 
z
M 1350 2484 
Q 925 2613 709 2878 
Q 494 3144 494 3541 
Q 494 4131 934 4440 
Q 1375 4750 2228 4750 
Q 3075 4750 3515 4442 
Q 3956 4134 3956 3541 
Q 3956 3144 3739 2878 
Q 3522 2613 3097 2484 
Q 3572 2353 3814 2058 
Q 4056 1763 4056 1313 
Q 4056 619 3595 264 
Q 3134 -91 2228 -91 
Q 1319 -91 855 264 
Q 391 619 391 1313 
Q 391 1763 633 2058 
Q 875 2353 1350 2484 
z
M 1631 3419 
Q 1631 3141 1786 2991 
Q 1941 2841 2228 2841 
Q 2509 2841 2662 2991 
Q 2816 3141 2816 3419 
Q 2816 3697 2662 3845 
Q 2509 3994 2228 3994 
Q 1941 3994 1786 3844 
Q 1631 3694 1631 3419 
z
" transform="scale(0.015625)"/>
      <path id="DejaVuSans-Bold-46" d="M 588 4666 
L 3834 4666 
L 3834 3756 
L 1791 3756 
L 1791 2888 
L 3713 2888 
L 3713 1978 
L 1791 1978 
L 1791 0 
L 588 0 
L 588 4666 
z
" transform="scale(0.015625)"/>
      <path id="DejaVuSans-Bold-4e" d="M 588 4666 
L 1931 4666 
L 3628 1466 
L 3628 4666 
L 4769 4666 
L 4769 0 
L 3425 0 
L 1728 3200 
L 1728 0 
L 588 0 
L 588 4666 
z
" transform="scale(0.015625)"/>
      <path id="DejaVuSans-Bold-57" d="M 191 4666 
L 1344 4666 
L 2150 1275 
L 2950 4666 
L 4109 4666 
L 4909 1275 
L 5716 4666 
L 6859 4666 
L 5759 0 
L 4372 0 
L 3525 3547 
L 2688 0 
L 1300 0 
L 191 4666 
z
" transform="scale(0.015625)"/>
      <path id="DejaVuSans-Bold-76" d="M 97 3500 
L 1216 3500 
L 2088 1081 
L 2956 3500 
L 4078 3500 
L 2700 0 
L 1472 0 
L 97 3500 
z
" transform="scale(0.015625)"/>
     </defs>
     <use xlink:href="#DejaVuSans-Bold-4c"/>
     <use xlink:href="#DejaVuSans-Bold-61" x="63.720703"/>
     <use xlink:href="#DejaVuSans-Bold-79" x="128.076172"/>
     <use xlink:href="#DejaVuSans-Bold-65" x="193.261719"/>
     <use xlink:href="#DejaVuSans-Bold-72" x="261.083984"/>
     <use xlink:href="#DejaVuSans-Bold-20" x="310.400391"/>
     <use xlink:href="#DejaVuSans-Bold-38" x="345.214844"/>
     <use xlink:href="#DejaVuSans-Bold-3a" x="414.794922"/>
     <use xlink:href="#DejaVuSans-Bold-20" x="454.785156"/>
     <use xlink:href="#DejaVuSans-Bold-20" x="489.599609"/>
     <use xlink:href="#DejaVuSans-Bold-54" x="524.414062"/>
     <use xlink:href="#DejaVuSans-Bold-46" x="592.626953"/>
     <use xlink:href="#DejaVuSans-Bold-4c" x="660.9375"/>
     <use xlink:href="#DejaVuSans-Bold-4e" x="724.658203"/>
     <use xlink:href="#DejaVuSans-Bold-20" x="808.349609"/>
     <use xlink:href="#DejaVuSans-Bold-50" x="843.164062"/>
     <use xlink:href="#DejaVuSans-Bold-68" x="916.455078"/>
     <use xlink:href="#DejaVuSans-Bold-6f" x="987.646484"/>
     <use xlink:href="#DejaVuSans-Bold-74" x="1056.347656"/>
     <use xlink:href="#DejaVuSans-Bold-6f" x="1104.150391"/>
     <use xlink:href="#DejaVuSans-Bold-6e" x="1172.851562"/>
     <use xlink:href="#DejaVuSans-Bold-69" x="1244.042969"/>
     <use xlink:href="#DejaVuSans-Bold-63" x="1278.320312"/>
     <use xlink:href="#DejaVuSans-Bold-20" x="1337.597656"/>
     <use xlink:href="#DejaVuSans-Bold-4c" x="1372.412109"/>
     <use xlink:href="#DejaVuSans-Bold-61" x="1436.132812"/>
     <use xlink:href="#DejaVuSans-Bold-79" x="1500.488281"/>
     <use xlink:href="#DejaVuSans-Bold-65" x="1565.673828"/>
     <use xlink:href="#DejaVuSans-Bold-72" x="1633.496094"/>
     <use xlink:href="#DejaVuSans-Bold-20" x="1682.8125"/>
     <use xlink:href="#DejaVuSans-Bold-28" x="1717.626953"/>
     <use xlink:href="#DejaVuSans-Bold-57" x="1763.330078"/>
     <use xlink:href="#DejaVuSans-Bold-61" x="1870.007812"/>
     <use xlink:href="#DejaVuSans-Bold-76" x="1937.488281"/>
     <use xlink:href="#DejaVuSans-Bold-65" x="2002.673828"/>
     <use xlink:href="#DejaVuSans-Bold-67" x="2070.496094"/>
     <use xlink:href="#DejaVuSans-Bold-75" x="2142.078125"/>
     <use xlink:href="#DejaVuSans-Bold-69" x="2213.269531"/>
     <use xlink:href="#DejaVuSans-Bold-64" x="2247.546875"/>
     <use xlink:href="#DejaVuSans-Bold-65" x="2319.128906"/>
     <use xlink:href="#DejaVuSans-Bold-73" x="2386.951172"/>
     <use xlink:href="#DejaVuSans-Bold-29" x="2446.472656"/>
    </g>
   </g>
   <g id="text_9">
    <!-- Layer 9:  Silicon Interposer Top Metal -->
    <g style="fill: #e0e6ed" transform="translate(537.789375 527.338494) scale(0.1 -0.1)">
     <defs>
      <path id="DejaVuSans-Bold-39" d="M 641 103 
L 641 966 
Q 928 831 1190 764 
Q 1453 697 1709 697 
Q 2247 697 2547 995 
Q 2847 1294 2900 1881 
Q 2688 1725 2447 1647 
Q 2206 1569 1925 1569 
Q 1209 1569 770 1986 
Q 331 2403 331 3084 
Q 331 3838 820 4291 
Q 1309 4744 2131 4744 
Q 3044 4744 3544 4128 
Q 4044 3513 4044 2388 
Q 4044 1231 3459 570 
Q 2875 -91 1856 -91 
Q 1528 -91 1228 -42 
Q 928 6 641 103 
z
M 2125 2350 
Q 2441 2350 2600 2554 
Q 2759 2759 2759 3169 
Q 2759 3575 2600 3781 
Q 2441 3988 2125 3988 
Q 1809 3988 1650 3781 
Q 1491 3575 1491 3169 
Q 1491 2759 1650 2554 
Q 1809 2350 2125 2350 
z
" transform="scale(0.015625)"/>
     </defs>
     <use xlink:href="#DejaVuSans-Bold-4c"/>
     <use xlink:href="#DejaVuSans-Bold-61" x="63.720703"/>
     <use xlink:href="#DejaVuSans-Bold-79" x="128.076172"/>
     <use xlink:href="#DejaVuSans-Bold-65" x="193.261719"/>
     <use xlink:href="#DejaVuSans-Bold-72" x="261.083984"/>
     <use xlink:href="#DejaVuSans-Bold-20" x="310.400391"/>
     <use xlink:href="#DejaVuSans-Bold-39" x="345.214844"/>
     <use xlink:href="#DejaVuSans-Bold-3a" x="414.794922"/>
     <use xlink:href="#DejaVuSans-Bold-20" x="454.785156"/>
     <use xlink:href="#DejaVuSans-Bold-20" x="489.599609"/>
     <use xlink:href="#DejaVuSans-Bold-53" x="524.414062"/>
     <use xlink:href="#DejaVuSans-Bold-69" x="596.435547"/>
     <use xlink:href="#DejaVuSans-Bold-6c" x="630.712891"/>
     <use xlink:href="#DejaVuSans-Bold-69" x="664.990234"/>
     <use xlink:href="#DejaVuSans-Bold-63" x="699.267578"/>
     <use xlink:href="#DejaVuSans-Bold-6f" x="758.544922"/>
     <use xlink:href="#DejaVuSans-Bold-6e" x="827.246094"/>
     <use xlink:href="#DejaVuSans-Bold-20" x="898.4375"/>
     <use xlink:href="#DejaVuSans-Bold-49" x="933.251953"/>
     <use xlink:href="#DejaVuSans-Bold-6e" x="970.458984"/>
     <use xlink:href="#DejaVuSans-Bold-74" x="1041.650391"/>
     <use xlink:href="#DejaVuSans-Bold-65" x="1089.453125"/>
     <use xlink:href="#DejaVuSans-Bold-72" x="1157.275391"/>
     <use xlink:href="#DejaVuSans-Bold-70" x="1206.591797"/>
     <use xlink:href="#DejaVuSans-Bold-6f" x="1278.173828"/>
     <use xlink:href="#DejaVuSans-Bold-73" x="1346.875"/>
     <use xlink:href="#DejaVuSans-Bold-65" x="1406.396484"/>
     <use xlink:href="#DejaVuSans-Bold-72" x="1474.21875"/>
     <use xlink:href="#DejaVuSans-Bold-20" x="1523.535156"/>
     <use xlink:href="#DejaVuSans-Bold-54" x="1558.349609"/>
     <use xlink:href="#DejaVuSans-Bold-6f" x="1613.3125"/>
     <use xlink:href="#DejaVuSans-Bold-70" x="1682.013672"/>
     <use xlink:href="#DejaVuSans-Bold-20" x="1753.595703"/>
     <use xlink:href="#DejaVuSans-Bold-4d" x="1788.410156"/>
     <use xlink:href="#DejaVuSans-Bold-65" x="1887.921875"/>
     <use xlink:href="#DejaVuSans-Bold-74" x="1955.744141"/>
     <use xlink:href="#DejaVuSans-Bold-61" x="2003.546875"/>
     <use xlink:href="#DejaVuSans-Bold-6c" x="2071.027344"/>
    </g>
   </g>
   <g id="text_10">
    <!-- Layer 10: Bottom Logic Die / SRAM -->
    <g style="fill: #e0e6ed" transform="translate(537.789375 472.004229) scale(0.1 -0.1)">
     <defs>
      <path id="DejaVuSans-Bold-30" d="M 2944 2338 
Q 2944 3213 2780 3570 
Q 2616 3928 2228 3928 
Q 1841 3928 1675 3570 
Q 1509 3213 1509 2338 
Q 1509 1453 1675 1090 
Q 1841 728 2228 728 
Q 2613 728 2778 1090 
Q 2944 1453 2944 2338 
z
M 4147 2328 
Q 4147 1169 3647 539 
Q 3147 -91 2228 -91 
Q 1306 -91 806 539 
Q 306 1169 306 2328 
Q 306 3491 806 4120 
Q 1306 4750 2228 4750 
Q 3147 4750 3647 4120 
Q 4147 3491 4147 2328 
z
" transform="scale(0.015625)"/>
      <path id="DejaVuSans-Bold-44" d="M 1791 3756 
L 1791 909 
L 2222 909 
Q 2959 909 3348 1275 
Q 3738 1641 3738 2338 
Q 3738 3031 3350 3393 
Q 2963 3756 2222 3756 
L 1791 3756 
z
M 588 4666 
L 1856 4666 
Q 2919 4666 3439 4514 
Q 3959 4363 4331 4000 
Q 4659 3684 4818 3271 
Q 4978 2859 4978 2338 
Q 4978 1809 4818 1395 
Q 4659 981 4331 666 
Q 3956 303 3431 151 
Q 2906 0 1856 0 
L 588 0 
L 588 4666 
z
" transform="scale(0.015625)"/>
      <path id="DejaVuSans-Bold-2f" d="M 1644 4666 
L 2338 4666 
L 691 -594 
L 0 -594 
L 1644 4666 
z
" transform="scale(0.015625)"/>
      <path id="DejaVuSans-Bold-52" d="M 2297 2597 
Q 2675 2597 2839 2737 
Q 3003 2878 3003 3200 
Q 3003 3519 2839 3656 
Q 2675 3794 2297 3794 
L 1791 3794 
L 1791 2597 
L 2297 2597 
z
M 1791 1766 
L 1791 0 
L 588 0 
L 588 4666 
L 2425 4666 
Q 3347 4666 3776 4356 
Q 4206 4047 4206 3378 
Q 4206 2916 3982 2619 
Q 3759 2322 3309 2181 
Q 3556 2125 3751 1926 
Q 3947 1728 4147 1325 
L 4800 0 
L 3519 0 
L 2950 1159 
Q 2778 1509 2601 1637 
Q 2425 1766 2131 1766 
L 1791 1766 
z
" transform="scale(0.015625)"/>
     </defs>
     <use xlink:href="#DejaVuSans-Bold-4c"/>
     <use xlink:href="#DejaVuSans-Bold-61" x="63.720703"/>
     <use xlink:href="#DejaVuSans-Bold-79" x="128.076172"/>
     <use xlink:href="#DejaVuSans-Bold-65" x="193.261719"/>
     <use xlink:href="#DejaVuSans-Bold-72" x="261.083984"/>
     <use xlink:href="#DejaVuSans-Bold-20" x="310.400391"/>
     <use xlink:href="#DejaVuSans-Bold-31" x="345.214844"/>
     <use xlink:href="#DejaVuSans-Bold-30" x="414.794922"/>
     <use xlink:href="#DejaVuSans-Bold-3a" x="484.375"/>
     <use xlink:href="#DejaVuSans-Bold-20" x="524.365234"/>
     <use xlink:href="#DejaVuSans-Bold-42" x="559.179688"/>
     <use xlink:href="#DejaVuSans-Bold-6f" x="635.400391"/>
     <use xlink:href="#DejaVuSans-Bold-74" x="704.101562"/>
     <use xlink:href="#DejaVuSans-Bold-74" x="751.904297"/>
     <use xlink:href="#DejaVuSans-Bold-6f" x="799.707031"/>
     <use xlink:href="#DejaVuSans-Bold-6d" x="868.408203"/>
     <use xlink:href="#DejaVuSans-Bold-20" x="972.607422"/>
     <use xlink:href="#DejaVuSans-Bold-4c" x="1007.421875"/>
     <use xlink:href="#DejaVuSans-Bold-6f" x="1071.142578"/>
     <use xlink:href="#DejaVuSans-Bold-67" x="1139.84375"/>
     <use xlink:href="#DejaVuSans-Bold-69" x="1211.425781"/>
     <use xlink:href="#DejaVuSans-Bold-63" x="1245.703125"/>
     <use xlink:href="#DejaVuSans-Bold-20" x="1304.980469"/>
     <use xlink:href="#DejaVuSans-Bold-44" x="1339.794922"/>
     <use xlink:href="#DejaVuSans-Bold-69" x="1422.802734"/>
     <use xlink:href="#DejaVuSans-Bold-65" x="1457.080078"/>
     <use xlink:href="#DejaVuSans-Bold-20" x="1524.902344"/>
     <use xlink:href="#DejaVuSans-Bold-2f" x="1559.716797"/>
     <use xlink:href="#DejaVuSans-Bold-20" x="1596.240234"/>
     <use xlink:href="#DejaVuSans-Bold-53" x="1631.054688"/>
     <use xlink:href="#DejaVuSans-Bold-52" x="1703.076172"/>
     <use xlink:href="#DejaVuSans-Bold-41" x="1780.078125"/>
     <use xlink:href="#DejaVuSans-Bold-4d" x="1857.470703"/>
    </g>
   </g>
   <g id="text_11">
    <!-- Layer 11: 3D Bonding Interface (Hybrid Bond) -->
    <g style="fill: #e0e6ed" transform="translate(537.789375 424.574858) scale(0.1 -0.1)">
     <defs>
      <path id="DejaVuSans-Bold-66" d="M 2841 4863 
L 2841 4128 
L 2222 4128 
Q 1984 4128 1890 4042 
Q 1797 3956 1797 3744 
L 1797 3500 
L 2753 3500 
L 2753 2700 
L 1797 2700 
L 1797 0 
L 678 0 
L 678 2700 
L 122 2700 
L 122 3500 
L 678 3500 
L 678 3744 
Q 678 4316 997 4589 
Q 1316 4863 1984 4863 
L 2841 4863 
z
" transform="scale(0.015625)"/>
      <path id="DejaVuSans-Bold-48" d="M 588 4666 
L 1791 4666 
L 1791 2888 
L 3566 2888 
L 3566 4666 
L 4769 4666 
L 4769 0 
L 3566 0 
L 3566 1978 
L 1791 1978 
L 1791 0 
L 588 0 
L 588 4666 
z
" transform="scale(0.015625)"/>
     </defs>
     <use xlink:href="#DejaVuSans-Bold-4c"/>
     <use xlink:href="#DejaVuSans-Bold-61" x="63.720703"/>
     <use xlink:href="#DejaVuSans-Bold-79" x="128.076172"/>
     <use xlink:href="#DejaVuSans-Bold-65" x="193.261719"/>
     <use xlink:href="#DejaVuSans-Bold-72" x="261.083984"/>
     <use xlink:href="#DejaVuSans-Bold-20" x="310.400391"/>
     <use xlink:href="#DejaVuSans-Bold-31" x="345.214844"/>
     <use xlink:href="#DejaVuSans-Bold-31" x="414.794922"/>
     <use xlink:href="#DejaVuSans-Bold-3a" x="484.375"/>
     <use xlink:href="#DejaVuSans-Bold-20" x="524.365234"/>
     <use xlink:href="#DejaVuSans-Bold-33" x="559.179688"/>
     <use xlink:href="#DejaVuSans-Bold-44" x="628.759766"/>
     <use xlink:href="#DejaVuSans-Bold-20" x="711.767578"/>
     <use xlink:href="#DejaVuSans-Bold-42" x="746.582031"/>
     <use xlink:href="#DejaVuSans-Bold-6f" x="822.802734"/>
     <use xlink:href="#DejaVuSans-Bold-6e" x="891.503906"/>
     <use xlink:href="#DejaVuSans-Bold-64" x="962.695312"/>
     <use xlink:href="#DejaVuSans-Bold-69" x="1034.277344"/>
     <use xlink:href="#DejaVuSans-Bold-6e" x="1068.554688"/>
     <use xlink:href="#DejaVuSans-Bold-67" x="1139.746094"/>
     <use xlink:href="#DejaVuSans-Bold-20" x="1211.328125"/>
     <use xlink:href="#DejaVuSans-Bold-49" x="1246.142578"/>
     <use xlink:href="#DejaVuSans-Bold-6e" x="1283.349609"/>
     <use xlink:href="#DejaVuSans-Bold-74" x="1354.541016"/>
     <use xlink:href="#DejaVuSans-Bold-65" x="1402.34375"/>
     <use xlink:href="#DejaVuSans-Bold-72" x="1470.166016"/>
     <use xlink:href="#DejaVuSans-Bold-66" x="1519.482422"/>
     <use xlink:href="#DejaVuSans-Bold-61" x="1562.988281"/>
     <use xlink:href="#DejaVuSans-Bold-63" x="1630.46875"/>
     <use xlink:href="#DejaVuSans-Bold-65" x="1689.746094"/>
     <use xlink:href="#DejaVuSans-Bold-20" x="1757.568359"/>
     <use xlink:href="#DejaVuSans-Bold-28" x="1792.382812"/>
     <use xlink:href="#DejaVuSans-Bold-48" x="1838.085938"/>
     <use xlink:href="#DejaVuSans-Bold-79" x="1921.777344"/>
     <use xlink:href="#DejaVuSans-Bold-62" x="1986.962891"/>
     <use xlink:href="#DejaVuSans-Bold-72" x="2058.544922"/>
     <use xlink:href="#DejaVuSans-Bold-69" x="2107.861328"/>
     <use xlink:href="#DejaVuSans-Bold-64" x="2142.138672"/>
     <use xlink:href="#DejaVuSans-Bold-20" x="2213.720703"/>
     <use xlink:href="#DejaVuSans-Bold-42" x="2248.535156"/>
     <use xlink:href="#DejaVuSans-Bold-6f" x="2324.755859"/>
     <use xlink:href="#DejaVuSans-Bold-6e" x="2393.457031"/>
     <use xlink:href="#DejaVuSans-Bold-64" x="2464.648438"/>
     <use xlink:href="#DejaVuSans-Bold-29" x="2536.230469"/>
    </g>
   </g>
   <g id="text_12">
    <!-- Layer 12: Top Logic Die (Compute Core) -->
    <g style="fill: #e0e6ed" transform="translate(537.789375 377.145487) scale(0.1 -0.1)">
     <use xlink:href="#DejaVuSans-Bold-4c"/>
     <use xlink:href="#DejaVuSans-Bold-61" x="63.720703"/>
     <use xlink:href="#DejaVuSans-Bold-79" x="128.076172"/>
     <use xlink:href="#DejaVuSans-Bold-65" x="193.261719"/>
     <use xlink:href="#DejaVuSans-Bold-72" x="261.083984"/>
     <use xlink:href="#DejaVuSans-Bold-20" x="310.400391"/>
     <use xlink:href="#DejaVuSans-Bold-31" x="345.214844"/>
     <use xlink:href="#DejaVuSans-Bold-32" x="414.794922"/>
     <use xlink:href="#DejaVuSans-Bold-3a" x="484.375"/>
     <use xlink:href="#DejaVuSans-Bold-20" x="524.365234"/>
     <use xlink:href="#DejaVuSans-Bold-54" x="559.179688"/>
     <use xlink:href="#DejaVuSans-Bold-6f" x="614.142578"/>
     <use xlink:href="#DejaVuSans-Bold-70" x="682.84375"/>
     <use xlink:href="#DejaVuSans-Bold-20" x="754.425781"/>
     <use xlink:href="#DejaVuSans-Bold-4c" x="789.240234"/>
     <use xlink:href="#DejaVuSans-Bold-6f" x="852.960938"/>
     <use xlink:href="#DejaVuSans-Bold-67" x="921.662109"/>
     <use xlink:href="#DejaVuSans-Bold-69" x="993.244141"/>
     <use xlink:href="#DejaVuSans-Bold-63" x="1027.521484"/>
     <use xlink:href="#DejaVuSans-Bold-20" x="1086.798828"/>
     <use xlink:href="#DejaVuSans-Bold-44" x="1121.613281"/>
     <use xlink:href="#DejaVuSans-Bold-69" x="1204.621094"/>
     <use xlink:href="#DejaVuSans-Bold-65" x="1238.898438"/>
     <use xlink:href="#DejaVuSans-Bold-20" x="1306.720703"/>
     <use xlink:href="#DejaVuSans-Bold-28" x="1341.535156"/>
     <use xlink:href="#DejaVuSans-Bold-43" x="1387.238281"/>
     <use xlink:href="#DejaVuSans-Bold-6f" x="1460.626953"/>
     <use xlink:href="#DejaVuSans-Bold-6d" x="1529.328125"/>
     <use xlink:href="#DejaVuSans-Bold-70" x="1633.527344"/>
     <use xlink:href="#DejaVuSans-Bold-75" x="1705.109375"/>
     <use xlink:href="#DejaVuSans-Bold-74" x="1776.300781"/>
     <use xlink:href="#DejaVuSans-Bold-65" x="1824.103516"/>
     <use xlink:href="#DejaVuSans-Bold-20" x="1891.925781"/>
     <use xlink:href="#DejaVuSans-Bold-43" x="1926.740234"/>
     <use xlink:href="#DejaVuSans-Bold-6f" x="2000.128906"/>
     <use xlink:href="#DejaVuSans-Bold-72" x="2068.830078"/>
     <use xlink:href="#DejaVuSans-Bold-65" x="2118.146484"/>
     <use xlink:href="#DejaVuSans-Bold-29" x="2185.96875"/>
    </g>
   </g>
   <g id="text_13">
    <!-- Layer 13: Integrated Heat Spreader (IHS) -->
    <g style="fill: #e0e6ed" transform="translate(537.789375 298.096536) scale(0.1 -0.1)">
     <use xlink:href="#DejaVuSans-Bold-4c"/>
     <use xlink:href="#DejaVuSans-Bold-61" x="63.720703"/>
     <use xlink:href="#DejaVuSans-Bold-79" x="128.076172"/>
     <use xlink:href="#DejaVuSans-Bold-65" x="193.261719"/>
     <use xlink:href="#DejaVuSans-Bold-72" x="261.083984"/>
     <use xlink:href="#DejaVuSans-Bold-20" x="310.400391"/>
     <use xlink:href="#DejaVuSans-Bold-31" x="345.214844"/>
     <use xlink:href="#DejaVuSans-Bold-33" x="414.794922"/>
     <use xlink:href="#DejaVuSans-Bold-3a" x="484.375"/>
     <use xlink:href="#DejaVuSans-Bold-20" x="524.365234"/>
     <use xlink:href="#DejaVuSans-Bold-49" x="559.179688"/>
     <use xlink:href="#DejaVuSans-Bold-6e" x="596.386719"/>
     <use xlink:href="#DejaVuSans-Bold-74" x="667.578125"/>
     <use xlink:href="#DejaVuSans-Bold-65" x="715.380859"/>
     <use xlink:href="#DejaVuSans-Bold-67" x="783.203125"/>
     <use xlink:href="#DejaVuSans-Bold-72" x="854.785156"/>
     <use xlink:href="#DejaVuSans-Bold-61" x="904.101562"/>
     <use xlink:href="#DejaVuSans-Bold-74" x="971.582031"/>
     <use xlink:href="#DejaVuSans-Bold-65" x="1019.384766"/>
     <use xlink:href="#DejaVuSans-Bold-64" x="1087.207031"/>
     <use xlink:href="#DejaVuSans-Bold-20" x="1158.789062"/>
     <use xlink:href="#DejaVuSans-Bold-48" x="1193.603516"/>
     <use xlink:href="#DejaVuSans-Bold-65" x="1277.294922"/>
     <use xlink:href="#DejaVuSans-Bold-61" x="1345.117188"/>
     <use xlink:href="#DejaVuSans-Bold-74" x="1412.597656"/>
     <use xlink:href="#DejaVuSans-Bold-20" x="1460.400391"/>
     <use xlink:href="#DejaVuSans-Bold-53" x="1495.214844"/>
     <use xlink:href="#DejaVuSans-Bold-70" x="1567.236328"/>
     <use xlink:href="#DejaVuSans-Bold-72" x="1638.818359"/>
     <use xlink:href="#DejaVuSans-Bold-65" x="1688.134766"/>
     <use xlink:href="#DejaVuSans-Bold-61" x="1755.957031"/>
     <use xlink:href="#DejaVuSans-Bold-64" x="1823.4375"/>
     <use xlink:href="#DejaVuSans-Bold-65" x="1895.019531"/>
     <use xlink:href="#DejaVuSans-Bold-72" x="1962.841797"/>
     <use xlink:href="#DejaVuSans-Bold-20" x="2012.158203"/>
     <use xlink:href="#DejaVuSans-Bold-28" x="2046.972656"/>
     <use xlink:href="#DejaVuSans-Bold-49" x="2092.675781"/>
     <use xlink:href="#DejaVuSans-Bold-48" x="2129.882812"/>
     <use xlink:href="#DejaVuSans-Bold-53" x="2213.574219"/>
     <use xlink:href="#DejaVuSans-Bold-29" x="2285.595703"/>
    </g>
   </g>
   <g id="text_14">
    <!-- Layer 14: Thermal Interface Material (TIM) -->
    <g style="fill: #e0e6ed" transform="translate(537.789375 238.809823) scale(0.1 -0.1)">
     <use xlink:href="#DejaVuSans-Bold-4c"/>
     <use xlink:href="#DejaVuSans-Bold-61" x="63.720703"/>
     <use xlink:href="#DejaVuSans-Bold-79" x="128.076172"/>
     <use xlink:href="#DejaVuSans-Bold-65" x="193.261719"/>
     <use xlink:href="#DejaVuSans-Bold-72" x="261.083984"/>
     <use xlink:href="#DejaVuSans-Bold-20" x="310.400391"/>
     <use xlink:href="#DejaVuSans-Bold-31" x="345.214844"/>
     <use xlink:href="#DejaVuSans-Bold-34" x="414.794922"/>
     <use xlink:href="#DejaVuSans-Bold-3a" x="484.375"/>
     <use xlink:href="#DejaVuSans-Bold-20" x="524.365234"/>
     <use xlink:href="#DejaVuSans-Bold-54" x="559.179688"/>
     <use xlink:href="#DejaVuSans-Bold-68" x="627.392578"/>
     <use xlink:href="#DejaVuSans-Bold-65" x="698.583984"/>
     <use xlink:href="#DejaVuSans-Bold-72" x="766.40625"/>
     <use xlink:href="#DejaVuSans-Bold-6d" x="815.722656"/>
     <use xlink:href="#DejaVuSans-Bold-61" x="919.921875"/>
     <use xlink:href="#DejaVuSans-Bold-6c" x="987.402344"/>
     <use xlink:href="#DejaVuSans-Bold-20" x="1021.679688"/>
     <use xlink:href="#DejaVuSans-Bold-49" x="1056.494141"/>
     <use xlink:href="#DejaVuSans-Bold-6e" x="1093.701172"/>
     <use xlink:href="#DejaVuSans-Bold-74" x="1164.892578"/>
     <use xlink:href="#DejaVuSans-Bold-65" x="1212.695312"/>
     <use xlink:href="#DejaVuSans-Bold-72" x="1280.517578"/>
     <use xlink:href="#DejaVuSans-Bold-66" x="1329.833984"/>
     <use xlink:href="#DejaVuSans-Bold-61" x="1373.339844"/>
     <use xlink:href="#DejaVuSans-Bold-63" x="1440.820312"/>
     <use xlink:href="#DejaVuSans-Bold-65" x="1500.097656"/>
     <use xlink:href="#DejaVuSans-Bold-20" x="1567.919922"/>
     <use xlink:href="#DejaVuSans-Bold-4d" x="1602.734375"/>
     <use xlink:href="#DejaVuSans-Bold-61" x="1702.246094"/>
     <use xlink:href="#DejaVuSans-Bold-74" x="1769.726562"/>
     <use xlink:href="#DejaVuSans-Bold-65" x="1817.529297"/>
     <use xlink:href="#DejaVuSans-Bold-72" x="1885.351562"/>
     <use xlink:href="#DejaVuSans-Bold-69" x="1934.667969"/>
     <use xlink:href="#DejaVuSans-Bold-61" x="1968.945312"/>
     <use xlink:href="#DejaVuSans-Bold-6c" x="2036.425781"/>
     <use xlink:href="#DejaVuSans-Bold-20" x="2070.703125"/>
     <use xlink:href="#DejaVuSans-Bold-28" x="2105.517578"/>
     <use xlink:href="#DejaVuSans-Bold-54" x="2151.220703"/>
     <use xlink:href="#DejaVuSans-Bold-49" x="2219.433594"/>
     <use xlink:href="#DejaVuSans-Bold-4d" x="2256.640625"/>
     <use xlink:href="#DejaVuSans-Bold-29" x="2356.152344"/>
    </g>
   </g>
   <g id="text_15">
    <!-- Layer 15: Heat Sink / Cooling Plate -->
    <g style="fill: #e0e6ed" transform="translate(537.789375 159.760872) scale(0.1 -0.1)">
     <use xlink:href="#DejaVuSans-Bold-4c"/>
     <use xlink:href="#DejaVuSans-Bold-61" x="63.720703"/>
     <use xlink:href="#DejaVuSans-Bold-79" x="128.076172"/>
     <use xlink:href="#DejaVuSans-Bold-65" x="193.261719"/>
     <use xlink:href="#DejaVuSans-Bold-72" x="261.083984"/>
     <use xlink:href="#DejaVuSans-Bold-20" x="310.400391"/>
     <use xlink:href="#DejaVuSans-Bold-31" x="345.214844"/>
     <use xlink:href="#DejaVuSans-Bold-35" x="414.794922"/>
     <use xlink:href="#DejaVuSans-Bold-3a" x="484.375"/>
     <use xlink:href="#DejaVuSans-Bold-20" x="524.365234"/>
     <use xlink:href="#DejaVuSans-Bold-48" x="559.179688"/>
     <use xlink:href="#DejaVuSans-Bold-65" x="642.871094"/>
     <use xlink:href="#DejaVuSans-Bold-61" x="710.693359"/>
     <use xlink:href="#DejaVuSans-Bold-74" x="778.173828"/>
     <use xlink:href="#DejaVuSans-Bold-20" x="825.976562"/>
     <use xlink:href="#DejaVuSans-Bold-53" x="860.791016"/>
     <use xlink:href="#DejaVuSans-Bold-69" x="932.8125"/>
     <use xlink:href="#DejaVuSans-Bold-6e" x="967.089844"/>
     <use xlink:href="#DejaVuSans-Bold-6b" x="1038.28125"/>
     <use xlink:href="#DejaVuSans-Bold-20" x="1104.785156"/>
     <use xlink:href="#DejaVuSans-Bold-2f" x="1139.599609"/>
     <use xlink:href="#DejaVuSans-Bold-20" x="1176.123047"/>
     <use xlink:href="#DejaVuSans-Bold-43" x="1210.9375"/>
     <use xlink:href="#DejaVuSans-Bold-6f" x="1284.326172"/>
     <use xlink:href="#DejaVuSans-Bold-6f" x="1353.027344"/>
     <use xlink:href="#DejaVuSans-Bold-6c" x="1421.728516"/>
     <use xlink:href="#DejaVuSans-Bold-69" x="1456.005859"/>
     <use xlink:href="#DejaVuSans-Bold-6e" x="1490.283203"/>
     <use xlink:href="#DejaVuSans-Bold-67" x="1561.474609"/>
     <use xlink:href="#DejaVuSans-Bold-20" x="1633.056641"/>
     <use xlink:href="#DejaVuSans-Bold-50" x="1667.871094"/>
     <use xlink:href="#DejaVuSans-Bold-6c" x="1741.162109"/>
     <use xlink:href="#DejaVuSans-Bold-61" x="1775.439453"/>
     <use xlink:href="#DejaVuSans-Bold-74" x="1842.919922"/>
     <use xlink:href="#DejaVuSans-Bold-65" x="1890.722656"/>
    </g>
   </g>
   <g id="text_16">
    <!-- 15-Layer 3D Photonic Stack Architecture -->
    <g style="fill: #00d4ff" transform="translate(240.6925 50.324476) scale(0.16 -0.16)">
     <use xlink:href="#DejaVuSans-Bold-31"/>
     <use xlink:href="#DejaVuSans-Bold-35" x="69.580078"/>
     <use xlink:href="#DejaVuSans-Bold-2d" x="139.160156"/>
     <use xlink:href="#DejaVuSans-Bold-4c" x="180.664062"/>
     <use xlink:href="#DejaVuSans-Bold-61" x="244.384766"/>
     <use xlink:href="#DejaVuSans-Bold-79" x="308.740234"/>
     <use xlink:href="#DejaVuSans-Bold-65" x="373.925781"/>
     <use xlink:href="#DejaVuSans-Bold-72" x="441.748047"/>
     <use xlink:href="#DejaVuSans-Bold-20" x="491.064453"/>
     <use xlink:href="#DejaVuSans-Bold-33" x="525.878906"/>
     <use xlink:href="#DejaVuSans-Bold-44" x="595.458984"/>
     <use xlink:href="#DejaVuSans-Bold-20" x="678.466797"/>
     <use xlink:href="#DejaVuSans-Bold-50" x="713.28125"/>
     <use xlink:href="#DejaVuSans-Bold-68" x="786.572266"/>
     <use xlink:href="#DejaVuSans-Bold-6f" x="857.763672"/>
     <use xlink:href="#DejaVuSans-Bold-74" x="926.464844"/>
     <use xlink:href="#DejaVuSans-Bold-6f" x="974.267578"/>
     <use xlink:href="#DejaVuSans-Bold-6e" x="1042.96875"/>
     <use xlink:href="#DejaVuSans-Bold-69" x="1114.160156"/>
     <use xlink:href="#DejaVuSans-Bold-63" x="1148.4375"/>
     <use xlink:href="#DejaVuSans-Bold-20" x="1207.714844"/>
     <use xlink:href="#DejaVuSans-Bold-53" x="1242.529297"/>
     <use xlink:href="#DejaVuSans-Bold-74" x="1314.550781"/>
     <use xlink:href="#DejaVuSans-Bold-61" x="1362.353516"/>
     <use xlink:href="#DejaVuSans-Bold-63" x="1429.833984"/>
     <use xlink:href="#DejaVuSans-Bold-6b" x="1489.111328"/>
     <use xlink:href="#DejaVuSans-Bold-20" x="1555.615234"/>
     <use xlink:href="#DejaVuSans-Bold-41" x="1590.429688"/>
     <use xlink:href="#DejaVuSans-Bold-72" x="1667.822266"/>
     <use xlink:href="#DejaVuSans-Bold-63" x="1717.138672"/>
     <use xlink:href="#DejaVuSans-Bold-68" x="1776.416016"/>
     <use xlink:href="#DejaVuSans-Bold-69" x="1847.607422"/>
     <use xlink:href="#DejaVuSans-Bold-74" x="1881.884766"/>
     <use xlink:href="#DejaVuSans-Bold-65" x="1929.6875"/>
     <use xlink:href="#DejaVuSans-Bold-63" x="1997.509766"/>
     <use xlink:href="#DejaVuSans-Bold-74" x="2056.787109"/>
     <use xlink:href="#DejaVuSans-Bold-75" x="2104.589844"/>
     <use xlink:href="#DejaVuSans-Bold-72" x="2175.78125"/>
     <use xlink:href="#DejaVuSans-Bold-65" x="2225.097656"/>
    </g>
   </g>
   <g id="patch_2">
    <path d="M 62.465625 1062.151049 
L 475.790625 1062.151049 
L 475.790625 1022.626573 
L 62.465625 1022.626573 
z
" clip-path="url(#p81f3eab2ea)" style="fill: #e2e8f0; opacity: 0.9; stroke: #ffffff; stroke-linejoin: miter"/>
   </g>
   <g id="patch_3">
    <path d="M 62.465625 1014.721678 
L 475.790625 1014.721678 
L 475.790625 998.911888 
L 62.465625 998.911888 
z
" clip-path="url(#p81f3eab2ea)" style="fill: #f6e05e; opacity: 0.9; stroke: #ffffff; stroke-linejoin: miter"/>
   </g>
   <g id="patch_4">
    <path d="M 62.465625 991.006993 
L 475.790625 991.006993 
L 475.790625 832.909091 
L 62.465625 832.909091 
z
" clip-path="url(#p81f3eab2ea)" style="fill: #2d3748; opacity: 0.9; stroke: #ffffff; stroke-linejoin: miter"/>
   </g>
   <g id="patch_5">
    <path d="M 62.465625 825.004196 
L 475.790625 825.004196 
L 475.790625 809.194406 
L 62.465625 809.194406 
z
" clip-path="url(#p81f3eab2ea)" style="fill: #f6e05e; opacity: 0.9; stroke: #ffffff; stroke-linejoin: miter"/>
   </g>
   <g id="patch_6">
    <path d="M 103.798125 801.28951 
L 434.458125 801.28951 
L 434.458125 777.574825 
L 103.798125 777.574825 
z
" clip-path="url(#p81f3eab2ea)" style="fill: #cbd5e0; opacity: 0.9; stroke: #ffffff; stroke-linejoin: miter"/>
   </g>
   <g id="patch_7">
    <path d="M 103.798125 769.66993 
L 434.458125 769.66993 
L 434.458125 706.430769 
L 103.798125 706.430769 
z
" clip-path="url(#p81f3eab2ea)" style="fill: #4a5568; opacity: 0.9; stroke: #ffffff; stroke-linejoin: miter"/>
   </g>
   <g id="patch_8">
    <path d="M 114.13125 698.525874 
L 424.125 698.525874 
L 424.125 603.667133 
L 114.13125 603.667133 
z
" clip-path="url(#p81f3eab2ea)" style="fill: #718096; opacity: 0.9; stroke: #ffffff; stroke-linejoin: miter"/>
   </g>
   <g id="patch_9">
    <path d="M 114.13125 595.762238 
L 424.125 595.762238 
L 424.125 548.332867 
L 114.13125 548.332867 
z
" clip-path="url(#p81f3eab2ea)" style="fill: #00d4ff; opacity: 0.9; stroke: #ffffff; stroke-linejoin: miter"/>
   </g>
   <g id="patch_10">
    <path d="M 103.798125 540.427972 
L 434.458125 540.427972 
L 434.458125 508.808392 
L 103.798125 508.808392 
z
" clip-path="url(#p81f3eab2ea)" style="fill: #a0aec0; opacity: 0.9; stroke: #ffffff; stroke-linejoin: miter"/>
   </g>
   <g id="patch_11">
    <path d="M 145.130625 500.903497 
L 393.125625 500.903497 
L 393.125625 437.664336 
L 145.130625 437.664336 
z
" clip-path="url(#p81f3eab2ea)" style="fill: #ff8c42; opacity: 0.9; stroke: #ffffff; stroke-linejoin: miter"/>
   </g>
   <g id="patch_12">
    <path d="M 145.130625 429.759441 
L 393.125625 429.759441 
L 393.125625 413.94965 
L 145.130625 413.94965 
z
" clip-path="url(#p81f3eab2ea)" style="fill: #ffd93d; opacity: 0.9; stroke: #ffffff; stroke-linejoin: miter"/>
   </g>
   <g id="patch_13">
    <path d="M 145.130625 406.044755 
L 393.125625 406.044755 
L 393.125625 342.805594 
L 145.130625 342.805594 
z
" clip-path="url(#p81f3eab2ea)" style="fill: #ff6b6b; opacity: 0.9; stroke: #ffffff; stroke-linejoin: miter"/>
   </g>
   <g id="patch_14">
    <path d="M 72.79875 334.900699 
L 465.4575 334.900699 
L 465.4575 255.851748 
L 72.79875 255.851748 
z
" clip-path="url(#p81f3eab2ea)" style="fill: #b0b0b0; opacity: 0.9; stroke: #ffffff; stroke-linejoin: miter"/>
   </g>
   <g id="patch_15">
    <path d="M 83.131875 247.946853 
L 455.124375 247.946853 
L 455.124375 224.232168 
L 83.131875 224.232168 
z
" clip-path="url(#p81f3eab2ea)" style="fill: #d0d0d0; opacity: 0.9; stroke: #ffffff; stroke-linejoin: miter"/>
   </g>
   <g id="patch_16">
    <path d="M 62.465625 216.327273 
L 475.790625 216.327273 
L 475.790625 97.753846 
L 62.465625 97.753846 
z
" clip-path="url(#p81f3eab2ea)" style="fill: #4a90e2; opacity: 0.9; stroke: #ffffff; stroke-linejoin: miter"/>
   </g>
   <g id="patch_17">
    <path d="M 166.937319 464.100406 
L 171.944205 464.100406 
L 171.944205 460.926021 
L 166.937319 460.926021 
z
" clip-path="url(#p81f3eab2ea)" style="fill: #ffffff; opacity: 0.2"/>
   </g>
   <g id="patch_18">
    <path d="M 317.40198 462.744673 
L 328.139817 462.744673 
L 328.139817 457.837931 
L 317.40198 457.837931 
z
" clip-path="url(#p81f3eab2ea)" style="fill: #ffffff; opacity: 0.2"/>
   </g>
   <g id="patch_19">
    <path d="M 348.080874 459.074301 
L 371.139 459.074301 
L 371.139 456.023275 
L 348.080874 456.023275 
z
" clip-path="url(#p81f3eab2ea)" style="fill: #ffffff; opacity: 0.2"/>
   </g>
   <g id="patch_20">
    <path d="M 337.051737 455.522731 
L 338.599152 455.522731 
L 338.599152 453.588044 
L 337.051737 453.588044 
z
" clip-path="url(#p81f3eab2ea)" style="fill: #ffffff; opacity: 0.2"/>
   </g>
   <g id="patch_21">
    <path d="M 272.763657 464.881791 
L 285.085295 464.881791 
L 285.085295 458.838395 
L 272.763657 458.838395 
z
" clip-path="url(#p81f3eab2ea)" style="fill: #ffffff; opacity: 0.2"/>
   </g>
   <g id="patch_22">
    <path d="M 267.683706 459.54346 
L 285.8735 459.54346 
L 285.8735 456.052792 
L 267.683706 456.052792 
z
" clip-path="url(#p81f3eab2ea)" style="fill: #ffffff; opacity: 0.2"/>
   </g>
   <g id="patch_23">
    <path d="M 255.271851 455.997018 
L 277.640643 455.997018 
L 277.640643 452.813762 
L 255.271851 452.813762 
z
" clip-path="url(#p81f3eab2ea)" style="fill: #ffffff; opacity: 0.2"/>
   </g>
   <g id="patch_24">
    <path d="M 326.668485 450.751395 
L 337.429827 450.751395 
L 337.429827 445.308272 
L 326.668485 445.308272 
z
" clip-path="url(#p81f3eab2ea)" style="fill: #ffffff; opacity: 0.2"/>
   </g>
   <g id="patch_25">
    <path d="M 159.957999 469.260611 
L 180.631195 469.260611 
L 180.631195 466.57428 
L 159.957999 466.57428 
z
" clip-path="url(#p81f3eab2ea)" style="fill: #ffffff; opacity: 0.2"/>
   </g>
   <g id="patch_26">
    <path d="M 277.119294 448.248041 
L 298.858318 448.248041 
L 298.858318 443.843144 
L 277.119294 443.843144 
z
" clip-path="url(#p81f3eab2ea)" style="fill: #ffffff; opacity: 0.2"/>
   </g>
   <g id="patch_27">
    <path d="M 194.542915 385.426432 
L 207.919085 385.426432 
L 207.919085 382.572806 
L 194.542915 382.572806 
z
" clip-path="url(#p81f3eab2ea)" style="fill: #ffffff; opacity: 0.2"/>
   </g>
   <g id="patch_28">
    <path d="M 240.199902 380.990576 
L 263.185433 380.990576 
L 263.185433 379.170213 
L 240.199902 379.170213 
z
" clip-path="url(#p81f3eab2ea)" style="fill: #ffffff; opacity: 0.2"/>
   </g>
   <g id="patch_29">
    <path d="M 343.852477 404.005342 
L 347.477789 404.005342 
L 347.477789 398.665218 
L 343.852477 398.665218 
z
" clip-path="url(#p81f3eab2ea)" style="fill: #ffffff; opacity: 0.2"/>
   </g>
   <g id="patch_30">
    <path d="M 242.759674 383.476771 
L 257.253266 383.476771 
L 257.253266 378.176959 
L 242.759674 378.176959 
z
" clip-path="url(#p81f3eab2ea)" style="fill: #ffffff; opacity: 0.2"/>
   </g>
   <g id="patch_31">
    <path d="M 342.580168 383.911359 
L 364.498309 383.911359 
L 364.498309 380.297699 
L 342.580168 380.297699 
z
" clip-path="url(#p81f3eab2ea)" style="fill: #ffffff; opacity: 0.2"/>
   </g>
   <g id="patch_32">
    <path d="M 152.059179 367.926791 
L 174.75213 367.926791 
L 174.75213 362.507545 
L 152.059179 362.507545 
z
" clip-path="url(#p81f3eab2ea)" style="fill: #ffffff; opacity: 0.2"/>
   </g>
   <g id="patch_33">
    <path d="M 279.306798 364.035669 
L 294.907246 364.035669 
L 294.907246 361.732917 
L 279.306798 361.732917 
z
" clip-path="url(#p81f3eab2ea)" style="fill: #ffffff; opacity: 0.2"/>
   </g>
   <g id="patch_34">
    <path d="M 340.45758 399.192196 
L 346.137672 399.192196 
L 346.137672 394.304763 
L 340.45758 394.304763 
z
" clip-path="url(#p81f3eab2ea)" style="fill: #ffffff; opacity: 0.2"/>
   </g>
   <g id="patch_35">
    <path d="M 276.705341 350.900215 
L 280.680942 350.900215 
L 280.680942 346.357806 
L 276.705341 346.357806 
z
" clip-path="url(#p81f3eab2ea)" style="fill: #ffffff; opacity: 0.2"/>
   </g>
   <g id="patch_36">
    <path d="M 298.885095 383.486871 
L 323.330144 383.486871 
L 323.330144 380.255346 
L 298.885095 380.255346 
z
" clip-path="url(#p81f3eab2ea)" style="fill: #ffffff; opacity: 0.2"/>
   </g>
   <g id="patch_37">
    <path d="M 75.382031 1058.198601 
C 78.122408 1058.198601 80.750915 1056.532782 82.688654 1053.568021 
C 84.626393 1050.60326 85.715156 1046.581617 85.715156 1042.388811 
C 85.715156 1038.196006 84.626393 1034.174362 82.688654 1031.209601 
C 80.750915 1028.24484 78.122408 1026.579021 75.382031 1026.579021 
C 72.641654 1026.579021 70.013147 1028.24484 68.075408 1031.209601 
C 66.137669 1034.174362 65.048906 1038.196006 65.048906 1042.388811 
C 65.048906 1046.581617 66.137669 1050.60326 68.075408 1053.568021 
C 70.013147 1056.532782 72.641654 1058.198601 75.382031 1058.198601 
z
" clip-path="url(#p81f3eab2ea)" style="fill: #888888; stroke: #000000; stroke-linejoin: miter"/>
   </g>
   <g id="patch_38">
    <path d="M 101.214844 1058.198601 
C 103.955221 1058.198601 106.583728 1056.532782 108.521467 1053.568021 
C 110.459206 1050.60326 111.547969 1046.581617 111.547969 1042.388811 
C 111.547969 1038.196006 110.459206 1034.174362 108.521467 1031.209601 
C 106.583728 1028.24484 103.955221 1026.579021 101.214844 1026.579021 
C 98.474467 1026.579021 95.84596 1028.24484 93.908221 1031.209601 
C 91.970482 1034.174362 90.881719 1038.196006 90.881719 1042.388811 
C 90.881719 1046.581617 91.970482 1050.60326 93.908221 1053.568021 
C 95.84596 1056.532782 98.474467 1058.198601 101.214844 1058.198601 
z
" clip-path="url(#p81f3eab2ea)" style="fill: #888888; stroke: #000000; stroke-linejoin: miter"/>
   </g>
   <g id="patch_39">
    <path d="M 127.047656 1058.198601 
C 129.788033 1058.198601 132.41654 1056.532782 134.354279 1053.568021 
C 136.292018 1050.60326 137.380781 1046.581617 137.380781 1042.388811 
C 137.380781 1038.196006 136.292018 1034.174362 134.354279 1031.209601 
C 132.41654 1028.24484 129.788033 1026.579021 127.047656 1026.579021 
C 124.307279 1026.579021 121.678772 1028.24484 119.741033 1031.209601 
C 117.803294 1034.174362 116.714531 1038.196006 116.714531 1042.388811 
C 116.714531 1046.581617 117.803294 1050.60326 119.741033 1053.568021 
C 121.678772 1056.532782 124.307279 1058.198601 127.047656 1058.198601 
z
" clip-path="url(#p81f3eab2ea)" style="fill: #888888; stroke: #000000; stroke-linejoin: miter"/>
   </g>
   <g id="patch_40">
    <path d="M 152.880469 1058.198601 
C 155.620846 1058.198601 158.249353 1056.532782 160.187092 1053.568021 
C 162.124831 1050.60326 163.213594 1046.581617 163.213594 1042.388811 
C 163.213594 1038.196006 162.124831 1034.174362 160.187092 1031.209601 
C 158.249353 1028.24484 155.620846 1026.579021 152.880469 1026.579021 
C 150.140092 1026.579021 147.511585 1028.24484 145.573846 1031.209601 
C 143.636107 1034.174362 142.547344 1038.196006 142.547344 1042.388811 
C 142.547344 1046.581617 143.636107 1050.60326 145.573846 1053.568021 
C 147.511585 1056.532782 150.140092 1058.198601 152.880469 1058.198601 
z
" clip-path="url(#p81f3eab2ea)" style="fill: #888888; stroke: #000000; stroke-linejoin: miter"/>
   </g>
   <g id="patch_41">
    <path d="M 178.713281 1058.198601 
C 181.453658 1058.198601 184.082165 1056.532782 186.019904 1053.568021 
C 187.957643 1050.60326 189.046406 1046.581617 189.046406 1042.388811 
C 189.046406 1038.196006 187.957643 1034.174362 186.019904 1031.209601 
C 184.082165 1028.24484 181.453658 1026.579021 178.713281 1026.579021 
C 175.972904 1026.579021 173.344397 1028.24484 171.406658 1031.209601 
C 169.468919 1034.174362 168.380156 1038.196006 168.380156 1042.388811 
C 168.380156 1046.581617 169.468919 1050.60326 171.406658 1053.568021 
C 173.344397 1056.532782 175.972904 1058.198601 178.713281 1058.198601 
z
" clip-path="url(#p81f3eab2ea)" style="fill: #888888; stroke: #000000; stroke-linejoin: miter"/>
   </g>
   <g id="patch_42">
    <path d="M 204.546094 1058.198601 
C 207.286471 1058.198601 209.914978 1056.532782 211.852717 1053.568021 
C 213.790456 1050.60326 214.879219 1046.581617 214.879219 1042.388811 
C 214.879219 1038.196006 213.790456 1034.174362 211.852717 1031.209601 
C 209.914978 1028.24484 207.286471 1026.579021 204.546094 1026.579021 
C 201.805717 1026.579021 199.17721 1028.24484 197.239471 1031.209601 
C 195.301732 1034.174362 194.212969 1038.196006 194.212969 1042.388811 
C 194.212969 1046.581617 195.301732 1050.60326 197.239471 1053.568021 
C 199.17721 1056.532782 201.805717 1058.198601 204.546094 1058.198601 
z
" clip-path="url(#p81f3eab2ea)" style="fill: #888888; stroke: #000000; stroke-linejoin: miter"/>
   </g>
   <g id="patch_43">
    <path d="M 230.378906 1058.198601 
C 233.119283 1058.198601 235.74779 1056.532782 237.685529 1053.568021 
C 239.623268 1050.60326 240.712031 1046.581617 240.712031 1042.388811 
C 240.712031 1038.196006 239.623268 1034.174362 237.685529 1031.209601 
C 235.74779 1028.24484 233.119283 1026.579021 230.378906 1026.579021 
C 227.638529 1026.579021 225.010022 1028.24484 223.072283 1031.209601 
C 221.134544 1034.174362 220.045781 1038.196006 220.045781 1042.388811 
C 220.045781 1046.581617 221.134544 1050.60326 223.072283 1053.568021 
C 225.010022 1056.532782 227.638529 1058.198601 230.378906 1058.198601 
z
" clip-path="url(#p81f3eab2ea)" style="fill: #888888; stroke: #000000; stroke-linejoin: miter"/>
   </g>
   <g id="patch_44">
    <path d="M 256.211719 1058.198601 
C 258.952096 1058.198601 261.580603 1056.532782 263.518342 1053.568021 
C 265.456081 1050.60326 266.544844 1046.581617 266.544844 1042.388811 
C 266.544844 1038.196006 265.456081 1034.174362 263.518342 1031.209601 
C 261.580603 1028.24484 258.952096 1026.579021 256.211719 1026.579021 
C 253.471342 1026.579021 250.842835 1028.24484 248.905096 1031.209601 
C 246.967357 1034.174362 245.878594 1038.196006 245.878594 1042.388811 
C 245.878594 1046.581617 246.967357 1050.60326 248.905096 1053.568021 
C 250.842835 1056.532782 253.471342 1058.198601 256.211719 1058.198601 
z
" clip-path="url(#p81f3eab2ea)" style="fill: #888888; stroke: #000000; stroke-linejoin: miter"/>
   </g>
   <g id="patch_45">
    <path d="M 282.044531 1058.198601 
C 284.784908 1058.198601 287.413415 1056.532782 289.351154 1053.568021 
C 291.288893 1050.60326 292.377656 1046.581617 292.377656 1042.388811 
C 292.377656 1038.196006 291.288893 1034.174362 289.351154 1031.209601 
C 287.413415 1028.24484 284.784908 1026.579021 282.044531 1026.579021 
C 279.304154 1026.579021 276.675647 1028.24484 274.737908 1031.209601 
C 272.800169 1034.174362 271.711406 1038.196006 271.711406 1042.388811 
C 271.711406 1046.581617 272.800169 1050.60326 274.737908 1053.568021 
C 276.675647 1056.532782 279.304154 1058.198601 282.044531 1058.198601 
z
" clip-path="url(#p81f3eab2ea)" style="fill: #888888; stroke: #000000; stroke-linejoin: miter"/>
   </g>
   <g id="patch_46">
    <path d="M 307.877344 1058.198601 
C 310.617721 1058.198601 313.246228 1056.532782 315.183967 1053.568021 
C 317.121706 1050.60326 318.210469 1046.581617 318.210469 1042.388811 
C 318.210469 1038.196006 317.121706 1034.174362 315.183967 1031.209601 
C 313.246228 1028.24484 310.617721 1026.579021 307.877344 1026.579021 
C 305.136967 1026.579021 302.50846 1028.24484 300.570721 1031.209601 
C 298.632982 1034.174362 297.544219 1038.196006 297.544219 1042.388811 
C 297.544219 1046.581617 298.632982 1050.60326 300.570721 1053.568021 
C 302.50846 1056.532782 305.136967 1058.198601 307.877344 1058.198601 
z
" clip-path="url(#p81f3eab2ea)" style="fill: #888888; stroke: #000000; stroke-linejoin: miter"/>
   </g>
   <g id="patch_47">
    <path d="M 333.710156 1058.198601 
C 336.450533 1058.198601 339.07904 1056.532782 341.016779 1053.568021 
C 342.954518 1050.60326 344.043281 1046.581617 344.043281 1042.388811 
C 344.043281 1038.196006 342.954518 1034.174362 341.016779 1031.209601 
C 339.07904 1028.24484 336.450533 1026.579021 333.710156 1026.579021 
C 330.969779 1026.579021 328.341272 1028.24484 326.403533 1031.209601 
C 324.465794 1034.174362 323.377031 1038.196006 323.377031 1042.388811 
C 323.377031 1046.581617 324.465794 1050.60326 326.403533 1053.568021 
C 328.341272 1056.532782 330.969779 1058.198601 333.710156 1058.198601 
z
" clip-path="url(#p81f3eab2ea)" style="fill: #888888; stroke: #000000; stroke-linejoin: miter"/>
   </g>
   <g id="patch_48">
    <path d="M 359.542969 1058.198601 
C 362.283346 1058.198601 364.911853 1056.532782 366.849592 1053.568021 
C 368.787331 1050.60326 369.876094 1046.581617 369.876094 1042.388811 
C 369.876094 1038.196006 368.787331 1034.174362 366.849592 1031.209601 
C 364.911853 1028.24484 362.283346 1026.579021 359.542969 1026.579021 
C 356.802592 1026.579021 354.174085 1028.24484 352.236346 1031.209601 
C 350.298607 1034.174362 349.209844 1038.196006 349.209844 1042.388811 
C 349.209844 1046.581617 350.298607 1050.60326 352.236346 1053.568021 
C 354.174085 1056.532782 356.802592 1058.198601 359.542969 1058.198601 
z
" clip-path="url(#p81f3eab2ea)" style="fill: #888888; stroke: #000000; stroke-linejoin: miter"/>
   </g>
   <g id="patch_49">
    <path d="M 385.375781 1058.198601 
C 388.116158 1058.198601 390.744665 1056.532782 392.682404 1053.568021 
C 394.620143 1050.60326 395.708906 1046.581617 395.708906 1042.388811 
C 395.708906 1038.196006 394.620143 1034.174362 392.682404 1031.209601 
C 390.744665 1028.24484 388.116158 1026.579021 385.375781 1026.579021 
C 382.635404 1026.579021 380.006897 1028.24484 378.069158 1031.209601 
C 376.131419 1034.174362 375.042656 1038.196006 375.042656 1042.388811 
C 375.042656 1046.581617 376.131419 1050.60326 378.069158 1053.568021 
C 380.006897 1056.532782 382.635404 1058.198601 385.375781 1058.198601 
z
" clip-path="url(#p81f3eab2ea)" style="fill: #888888; stroke: #000000; stroke-linejoin: miter"/>
   </g>
   <g id="patch_50">
    <path d="M 411.208594 1058.198601 
C 413.948971 1058.198601 416.577478 1056.532782 418.515217 1053.568021 
C 420.452956 1050.60326 421.541719 1046.581617 421.541719 1042.388811 
C 421.541719 1038.196006 420.452956 1034.174362 418.515217 1031.209601 
C 416.577478 1028.24484 413.948971 1026.579021 411.208594 1026.579021 
C 408.468217 1026.579021 405.83971 1028.24484 403.901971 1031.209601 
C 401.964232 1034.174362 400.875469 1038.196006 400.875469 1042.388811 
C 400.875469 1046.581617 401.964232 1050.60326 403.901971 1053.568021 
C 405.83971 1056.532782 408.468217 1058.198601 411.208594 1058.198601 
z
" clip-path="url(#p81f3eab2ea)" style="fill: #888888; stroke: #000000; stroke-linejoin: miter"/>
   </g>
   <g id="patch_51">
    <path d="M 437.041406 1058.198601 
C 439.781783 1058.198601 442.41029 1056.532782 444.348029 1053.568021 
C 446.285768 1050.60326 447.374531 1046.581617 447.374531 1042.388811 
C 447.374531 1038.196006 446.285768 1034.174362 444.348029 1031.209601 
C 442.41029 1028.24484 439.781783 1026.579021 437.041406 1026.579021 
C 434.301029 1026.579021 431.672522 1028.24484 429.734783 1031.209601 
C 427.797044 1034.174362 426.708281 1038.196006 426.708281 1042.388811 
C 426.708281 1046.581617 427.797044 1050.60326 429.734783 1053.568021 
C 431.672522 1056.532782 434.301029 1058.198601 437.041406 1058.198601 
z
" clip-path="url(#p81f3eab2ea)" style="fill: #888888; stroke: #000000; stroke-linejoin: miter"/>
   </g>
   <g id="patch_52">
    <path d="M 462.874219 1058.198601 
C 465.614596 1058.198601 468.243103 1056.532782 470.180842 1053.568021 
C 472.118581 1050.60326 473.207344 1046.581617 473.207344 1042.388811 
C 473.207344 1038.196006 472.118581 1034.174362 470.180842 1031.209601 
C 468.243103 1028.24484 465.614596 1026.579021 462.874219 1026.579021 
C 460.133842 1026.579021 457.505335 1028.24484 455.567596 1031.209601 
C 453.629857 1034.174362 452.541094 1038.196006 452.541094 1042.388811 
C 452.541094 1046.581617 453.629857 1050.60326 455.567596 1053.568021 
C 457.505335 1056.532782 460.133842 1058.198601 462.874219 1058.198601 
z
" clip-path="url(#p81f3eab2ea)" style="fill: #888888; stroke: #000000; stroke-linejoin: miter"/>
   </g>
   <g id="patch_53">
    <path d="M 117.575625 798.918042 
C 119.219851 798.918042 120.796955 797.91855 121.959599 796.139694 
C 123.122242 794.360837 123.7755 791.947851 123.7755 789.432168 
C 123.7755 786.916485 123.122242 784.503499 121.959599 782.724642 
C 120.796955 780.945785 119.219851 779.946294 117.575625 779.946294 
C 115.931399 779.946294 114.354295 780.945785 113.191651 782.724642 
C 112.029008 784.503499 111.37575 786.916485 111.37575 789.432168 
C 111.37575 791.947851 112.029008 794.360837 113.191651 796.139694 
C 114.354295 797.91855 115.931399 798.918042 117.575625 798.918042 
z
" clip-path="url(#p81f3eab2ea)" style="fill: #888888; stroke: #000000; stroke-linejoin: miter"/>
   </g>
   <g id="patch_54">
    <path d="M 145.130625 798.918042 
C 146.774851 798.918042 148.351955 797.91855 149.514599 796.139694 
C 150.677242 794.360837 151.3305 791.947851 151.3305 789.432168 
C 151.3305 786.916485 150.677242 784.503499 149.514599 782.724642 
C 148.351955 780.945785 146.774851 779.946294 145.130625 779.946294 
C 143.486399 779.946294 141.909295 780.945785 140.746651 782.724642 
C 139.584008 784.503499 138.93075 786.916485 138.93075 789.432168 
C 138.93075 791.947851 139.584008 794.360837 140.746651 796.139694 
C 141.909295 797.91855 143.486399 798.918042 145.130625 798.918042 
z
" clip-path="url(#p81f3eab2ea)" style="fill: #888888; stroke: #000000; stroke-linejoin: miter"/>
   </g>
   <g id="patch_55">
    <path d="M 172.685625 798.918042 
C 174.329851 798.918042 175.906955 797.91855 177.069599 796.139694 
C 178.232242 794.360837 178.8855 791.947851 178.8855 789.432168 
C 178.8855 786.916485 178.232242 784.503499 177.069599 782.724642 
C 175.906955 780.945785 174.329851 779.946294 172.685625 779.946294 
C 171.041399 779.946294 169.464295 780.945785 168.301651 782.724642 
C 167.139008 784.503499 166.48575 786.916485 166.48575 789.432168 
C 166.48575 791.947851 167.139008 794.360837 168.301651 796.139694 
C 169.464295 797.91855 171.041399 798.918042 172.685625 798.918042 
z
" clip-path="url(#p81f3eab2ea)" style="fill: #888888; stroke: #000000; stroke-linejoin: miter"/>
   </g>
   <g id="patch_56">
    <path d="M 200.240625 798.918042 
C 201.884851 798.918042 203.461955 797.91855 204.624599 796.139694 
C 205.787242 794.360837 206.4405 791.947851 206.4405 789.432168 
C 206.4405 786.916485 205.787242 784.503499 204.624599 782.724642 
C 203.461955 780.945785 201.884851 779.946294 200.240625 779.946294 
C 198.596399 779.946294 197.019295 780.945785 195.856651 782.724642 
C 194.694008 784.503499 194.04075 786.916485 194.04075 789.432168 
C 194.04075 791.947851 194.694008 794.360837 195.856651 796.139694 
C 197.019295 797.91855 198.596399 798.918042 200.240625 798.918042 
z
" clip-path="url(#p81f3eab2ea)" style="fill: #888888; stroke: #000000; stroke-linejoin: miter"/>
   </g>
   <g id="patch_57">
    <path d="M 227.795625 798.918042 
C 229.439851 798.918042 231.016955 797.91855 232.179599 796.139694 
C 233.342242 794.360837 233.9955 791.947851 233.9955 789.432168 
C 233.9955 786.916485 233.342242 784.503499 232.179599 782.724642 
C 231.016955 780.945785 229.439851 779.946294 227.795625 779.946294 
C 226.151399 779.946294 224.574295 780.945785 223.411651 782.724642 
C 222.249008 784.503499 221.59575 786.916485 221.59575 789.432168 
C 221.59575 791.947851 222.249008 794.360837 223.411651 796.139694 
C 224.574295 797.91855 226.151399 798.918042 227.795625 798.918042 
z
" clip-path="url(#p81f3eab2ea)" style="fill: #888888; stroke: #000000; stroke-linejoin: miter"/>
   </g>
   <g id="patch_58">
    <path d="M 255.350625 798.918042 
C 256.994851 798.918042 258.571955 797.91855 259.734599 796.139694 
C 260.897242 794.360837 261.5505 791.947851 261.5505 789.432168 
C 261.5505 786.916485 260.897242 784.503499 259.734599 782.724642 
C 258.571955 780.945785 256.994851 779.946294 255.350625 779.946294 
C 253.706399 779.946294 252.129295 780.945785 250.966651 782.724642 
C 249.804008 784.503499 249.15075 786.916485 249.15075 789.432168 
C 249.15075 791.947851 249.804008 794.360837 250.966651 796.139694 
C 252.129295 797.91855 253.706399 798.918042 255.350625 798.918042 
z
" clip-path="url(#p81f3eab2ea)" style="fill: #888888; stroke: #000000; stroke-linejoin: miter"/>
   </g>
   <g id="patch_59">
    <path d="M 282.905625 798.918042 
C 284.549851 798.918042 286.126955 797.91855 287.289599 796.139694 
C 288.452242 794.360837 289.1055 791.947851 289.1055 789.432168 
C 289.1055 786.916485 288.452242 784.503499 287.289599 782.724642 
C 286.126955 780.945785 284.549851 779.946294 282.905625 779.946294 
C 281.261399 779.946294 279.684295 780.945785 278.521651 782.724642 
C 277.359008 784.503499 276.70575 786.916485 276.70575 789.432168 
C 276.70575 791.947851 277.359008 794.360837 278.521651 796.139694 
C 279.684295 797.91855 281.261399 798.918042 282.905625 798.918042 
z
" clip-path="url(#p81f3eab2ea)" style="fill: #888888; stroke: #000000; stroke-linejoin: miter"/>
   </g>
   <g id="patch_60">
    <path d="M 310.460625 798.918042 
C 312.104851 798.918042 313.681955 797.91855 314.844599 796.139694 
C 316.007242 794.360837 316.6605 791.947851 316.6605 789.432168 
C 316.6605 786.916485 316.007242 784.503499 314.844599 782.724642 
C 313.681955 780.945785 312.104851 779.946294 310.460625 779.946294 
C 308.816399 779.946294 307.239295 780.945785 306.076651 782.724642 
C 304.914008 784.503499 304.26075 786.916485 304.26075 789.432168 
C 304.26075 791.947851 304.914008 794.360837 306.076651 796.139694 
C 307.239295 797.91855 308.816399 798.918042 310.460625 798.918042 
z
" clip-path="url(#p81f3eab2ea)" style="fill: #888888; stroke: #000000; stroke-linejoin: miter"/>
   </g>
   <g id="patch_61">
    <path d="M 338.015625 798.918042 
C 339.659851 798.918042 341.236955 797.91855 342.399599 796.139694 
C 343.562242 794.360837 344.2155 791.947851 344.2155 789.432168 
C 344.2155 786.916485 343.562242 784.503499 342.399599 782.724642 
C 341.236955 780.945785 339.659851 779.946294 338.015625 779.946294 
C 336.371399 779.946294 334.794295 780.945785 333.631651 782.724642 
C 332.469008 784.503499 331.81575 786.916485 331.81575 789.432168 
C 331.81575 791.947851 332.469008 794.360837 333.631651 796.139694 
C 334.794295 797.91855 336.371399 798.918042 338.015625 798.918042 
z
" clip-path="url(#p81f3eab2ea)" style="fill: #888888; stroke: #000000; stroke-linejoin: miter"/>
   </g>
   <g id="patch_62">
    <path d="M 365.570625 798.918042 
C 367.214851 798.918042 368.791955 797.91855 369.954599 796.139694 
C 371.117242 794.360837 371.7705 791.947851 371.7705 789.432168 
C 371.7705 786.916485 371.117242 784.503499 369.954599 782.724642 
C 368.791955 780.945785 367.214851 779.946294 365.570625 779.946294 
C 363.926399 779.946294 362.349295 780.945785 361.186651 782.724642 
C 360.024008 784.503499 359.37075 786.916485 359.37075 789.432168 
C 359.37075 791.947851 360.024008 794.360837 361.186651 796.139694 
C 362.349295 797.91855 363.926399 798.918042 365.570625 798.918042 
z
" clip-path="url(#p81f3eab2ea)" style="fill: #888888; stroke: #000000; stroke-linejoin: miter"/>
   </g>
   <g id="patch_63">
    <path d="M 393.125625 798.918042 
C 394.769851 798.918042 396.346955 797.91855 397.509599 796.139694 
C 398.672242 794.360837 399.3255 791.947851 399.3255 789.432168 
C 399.3255 786.916485 398.672242 784.503499 397.509599 782.724642 
C 396.346955 780.945785 394.769851 779.946294 393.125625 779.946294 
C 391.481399 779.946294 389.904295 780.945785 388.741651 782.724642 
C 387.579008 784.503499 386.92575 786.916485 386.92575 789.432168 
C 386.92575 791.947851 387.579008 794.360837 388.741651 796.139694 
C 389.904295 797.91855 391.481399 798.918042 393.125625 798.918042 
z
" clip-path="url(#p81f3eab2ea)" style="fill: #888888; stroke: #000000; stroke-linejoin: miter"/>
   </g>
   <g id="patch_64">
    <path d="M 420.680625 798.918042 
C 422.324851 798.918042 423.901955 797.91855 425.064599 796.139694 
C 426.227242 794.360837 426.8805 791.947851 426.8805 789.432168 
C 426.8805 786.916485 426.227242 784.503499 425.064599 782.724642 
C 423.901955 780.945785 422.324851 779.946294 420.680625 779.946294 
C 419.036399 779.946294 417.459295 780.945785 416.296651 782.724642 
C 415.134008 784.503499 414.48075 786.916485 414.48075 789.432168 
C 414.48075 791.947851 415.134008 794.360837 416.296651 796.139694 
C 417.459295 797.91855 419.036399 798.918042 420.680625 798.918042 
z
" clip-path="url(#p81f3eab2ea)" style="fill: #888888; stroke: #000000; stroke-linejoin: miter"/>
   </g>
   <g id="line2d_16">
    <path d="M 114.13125 572.047552 
L 424.125 572.047552 
" clip-path="url(#p81f3eab2ea)" style="fill: none; stroke-dasharray: 7.4,3.2; stroke-dashoffset: 0; stroke: #ffffff; stroke-opacity: 0.7; stroke-width: 2"/>
   </g>
   <g id="text_17">
    <!-- ~~~ Photon Path ~~~ -->
    <g style="fill: #ffffff" transform="translate(218.51875 574.255052) scale(0.08 -0.08)">
     <defs>
      <path id="DejaVuSans-Bold-7e" d="M 4684 2656 
L 4684 1894 
Q 4353 1644 4073 1536 
Q 3794 1428 3494 1428 
Q 3159 1428 2713 1609 
Q 2669 1628 2644 1638 
Q 2622 1647 2575 1666 
Q 2091 1856 1797 1856 
Q 1522 1856 1253 1736 
Q 984 1616 678 1356 
L 678 2119 
Q 1013 2369 1291 2476 
Q 1569 2584 1869 2584 
Q 2203 2584 2650 2403 
Q 2697 2384 2719 2375 
Q 2741 2366 2788 2347 
Q 3272 2156 3566 2156 
Q 3834 2156 4098 2273 
Q 4363 2391 4684 2656 
z
" transform="scale(0.015625)"/>
     </defs>
     <use xlink:href="#DejaVuSans-Bold-7e"/>
     <use xlink:href="#DejaVuSans-Bold-7e" x="83.789062"/>
     <use xlink:href="#DejaVuSans-Bold-7e" x="167.578125"/>
     <use xlink:href="#DejaVuSans-Bold-20" x="251.367188"/>
     <use xlink:href="#DejaVuSans-Bold-50" x="286.181641"/>
     <use xlink:href="#DejaVuSans-Bold-68" x="359.472656"/>
     <use xlink:href="#DejaVuSans-Bold-6f" x="430.664062"/>
     <use xlink:href="#DejaVuSans-Bold-74" x="499.365234"/>
     <use xlink:href="#DejaVuSans-Bold-6f" x="547.167969"/>
     <use xlink:href="#DejaVuSans-Bold-6e" x="615.869141"/>
     <use xlink:href="#DejaVuSans-Bold-20" x="687.060547"/>
     <use xlink:href="#DejaVuSans-Bold-50" x="721.875"/>
     <use xlink:href="#DejaVuSans-Bold-61" x="792.541016"/>
     <use xlink:href="#DejaVuSans-Bold-74" x="860.021484"/>
     <use xlink:href="#DejaVuSans-Bold-68" x="907.824219"/>
     <use xlink:href="#DejaVuSans-Bold-20" x="979.015625"/>
     <use xlink:href="#DejaVuSans-Bold-7e" x="1013.830078"/>
     <use xlink:href="#DejaVuSans-Bold-7e" x="1097.619141"/>
     <use xlink:href="#DejaVuSans-Bold-7e" x="1181.408203"/>
    </g>
   </g>
  </g>
 </g>
 <defs>
  <clipPath id="p81f3eab2ea">
   <rect x="10.8" y="10.8" width="826.65" height="1130.4"/>
  </clipPath>
 </defs>
</svg>
