M48
INCH,TZ
FMAT,2
T01C0.0120
T02C0.0400
%
G90
G05
T01
X0021000Y0021879
X0021000Y0043759
X0021000Y0065639
X0021000Y0087519
X0021000Y0109399
X0021000Y0131279
X0021000Y0153159
X0021000Y0175039
X0021000Y0196919
X0021000Y0218799
X0021000Y0240679
X0021000Y0262559
X0021000Y0284438
X0021000Y0306318
X0021000Y0328198
X0021000Y0350078
X0021000Y0371958
X0021000Y0393838
X0021000Y0415718
X0042000Y0021879
X0042000Y0043759
X0042000Y0065639
X0042000Y0087519
X0042000Y0109399
X0042000Y0131279
X0042000Y0153159
X0042000Y0175039
X0042000Y0196919
X0042000Y0218799
X0042000Y0240679
X0042000Y0262559
X0042000Y0284438
X0042000Y0306318
X0042000Y0328198
X0042000Y0350078
X0042000Y0371958
X0042000Y0393838
X0042000Y0415718
X0063000Y0021879
X0063000Y0043759
X0063000Y0065639
X0063000Y0087519
X0063000Y0109399
X0063000Y0131279
X0063000Y0153159
X0063000Y0175039
X0063000Y0196919
X0063000Y0218799
X0063000Y0240679
X0063000Y0262559
X0063000Y0284438
X0063000Y0306318
X0063000Y0328198
X0063000Y0350078
X0063000Y0371958
X0063000Y0393838
X0063000Y0415718
X0084000Y0021879
X0084000Y0043759
X0084000Y0065639
X0084000Y0087519
X0084000Y0109399
X0084000Y0131279
X0084000Y0153159
X0084000Y0175039
X0084000Y0196919
X0084000Y0218799
X0084000Y0240679
X0084000Y0262559
X0084000Y0284438
X0084000Y0306318
X0084000Y0328198
X0084000Y0350078
X0084000Y0371958
X0084000Y0393838
X0084000Y0415718
X0105000Y0021879
X0105000Y0043759
X0105000Y0065639
X0105000Y0087519
X0105000Y0109399
X0105000Y0131279
X0105000Y0153159
X0105000Y0175039
X0105000Y0196919
X0105000Y0218799
X0105000Y0240679
X0105000Y0262559
X0105000Y0284438
X0105000Y0306318
X0105000Y0328198
X0105000Y0350078
X0105000Y0371958
X0105000Y0393838
X0105000Y0415718
X0126000Y0021879
X0126000Y0043759
X0126000Y0065639
X0126000Y0087519
X0126000Y0109399
X0126000Y0131279
X0126000Y0153159
X0126000Y0175039
X0126000Y0196919
X0126000Y0218799
X0126000Y0240679
X0126000Y0262559
X0126000Y0284438
X0126000Y0306318
X0126000Y0328198
X0126000Y0350078
X0126000Y0371958
X0126000Y0393838
X0126000Y0415718
X0147000Y0021879
X0147000Y0043759
X0147000Y0065639
X0147000Y0087519
X0147000Y0109399
X0147000Y0131279
X0147000Y0153159
X0147000Y0175039
X0147000Y0196919
X0147000Y0218799
X0147000Y0240679
X0147000Y0262559
X0147000Y0284438
X0147000Y0306318
X0147000Y0328198
X0147000Y0350078
X0147000Y0371958
X0147000Y0393838
X0147000Y0415718
X0168000Y0021879
X0168000Y0043759
X0168000Y0065639
X0168000Y0087519
X0168000Y0109399
X0168000Y0131279
X0168000Y0153159
X0168000Y0175039
X0168000Y0196919
X0168000Y0218799
X0168000Y0240679
X0168000Y0262559
X0168000Y0284438
X0168000Y0306318
X0168000Y0328198
X0168000Y0350078
X0168000Y0371958
X0168000Y0393838
X0168000Y0415718
X0189000Y0021879
X0189000Y0043759
X0189000Y0065639
X0189000Y0087519
X0189000Y0109399
X0189000Y0131279
X0189000Y0153159
X0189000Y0175039
X0189000Y0196919
X0189000Y0218799
X0189000Y0240679
X0189000Y0262559
X0189000Y0284438
X0189000Y0306318
X0189000Y0328198
X0189000Y0350078
X0189000Y0371958
X0189000Y0393838
X0189000Y0415718
X0210000Y0021879
X0210000Y0043759
X0210000Y0065639
X0210000Y0087519
X0210000Y0109399
X0210000Y0131279
X0210000Y0153159
X0210000Y0175039
X0210000Y0196919
X0210000Y0218799
X0210000Y0240679
X0210000Y0262559
X0210000Y0284438
X0210000Y0306318
X0210000Y0328198
X0210000Y0350078
X0210000Y0371958
X0210000Y0393838
X0210000Y0415718
X0231000Y0021879
X0231000Y0043759
X0231000Y0065639
X0231000Y0087519
X0231000Y0109399
X0231000Y0131279
X0231000Y0153159
X0231000Y0175039
X0231000Y0196919
X0231000Y0218799
X0231000Y0240679
X0231000Y0262559
X0231000Y0284438
X0231000Y0306318
X0231000Y0328198
X0231000Y0350078
X0231000Y0371958
X0231000Y0393838
X0231000Y0415718
X0252000Y0021879
X0252000Y0043759
X0252000Y0065639
X0252000Y0087519
X0252000Y0109399
X0252000Y0131279
X0252000Y0153159
X0252000Y0175039
X0252000Y0196919
X0252000Y0218799
X0252000Y0240679
X0252000Y0262559
X0252000Y0284438
X0252000Y0306318
X0252000Y0328198
X0252000Y0350078
X0252000Y0371958
X0252000Y0393838
X0252000Y0415718
X0273000Y0021879
X0273000Y0043759
X0273000Y0065639
X0273000Y0087519
X0273000Y0109399
X0273000Y0131279
X0273000Y0153159
X0273000Y0175039
X0273000Y0196919
X0273000Y0218799
X0273000Y0240679
X0273000Y0262559
X0273000Y0284438
X0273000Y0306318
X0273000Y0328198
X0273000Y0350078
X0273000Y0371958
X0273000Y0393838
X0273000Y0415718
X0294000Y0021879
X0294000Y0043759
X0294000Y0065639
X0294000Y0087519
X0294000Y0109399
X0294000Y0131279
X0294000Y0153159
X0294000Y0175039
X0294000Y0196919
X0294000Y0218799
X0294000Y0240679
X0294000Y0262559
X0294000Y0284438
X0294000Y0306318
X0294000Y0328198
X0294000Y0350078
X0294000Y0371958
X0294000Y0393838
X0294000Y0415718
X0315000Y0021879
X0315000Y0043759
X0315000Y0065639
X0315000Y0087519
X0315000Y0109399
X0315000Y0131279
X0315000Y0153159
X0315000Y0175039
X0315000Y0196919
X0315000Y0218799
X0315000Y0240679
X0315000Y0262559
X0315000Y0284438
X0315000Y0306318
X0315000Y0328198
X0315000Y0350078
X0315000Y0371958
X0315000Y0393838
X0315000Y0415718
X0336000Y0021879
X0336000Y0043759
X0336000Y0065639
X0336000Y0087519
X0336000Y0109399
X0336000Y0131279
X0336000Y0153159
X0336000Y0175039
X0336000Y0196919
X0336000Y0218799
X0336000Y0240679
X0336000Y0262559
X0336000Y0284438
X0336000Y0306318
X0336000Y0328198
X0336000Y0350078
X0336000Y0371958
X0336000Y0393838
X0336000Y0415718
X0357000Y0021879
X0357000Y0043759
X0357000Y0065639
X0357000Y0087519
X0357000Y0109399
X0357000Y0131279
X0357000Y0153159
X0357000Y0175039
X0357000Y0196919
X0357000Y0218799
X0357000Y0240679
X0357000Y0262559
X0357000Y0284438
X0357000Y0306318
X0357000Y0328198
X0357000Y0350078
X0357000Y0371958
X0357000Y0393838
X0357000Y0415718
X0378000Y0021879
X0378000Y0043759
X0378000Y0065639
X0378000Y0087519
X0378000Y0109399
X0378000Y0131279
X0378000Y0153159
X0378000Y0175039
X0378000Y0196919
X0378000Y0218799
X0378000Y0240679
X0378000Y0262559
X0378000Y0284438
X0378000Y0306318
X0378000Y0328198
X0378000Y0350078
X0378000Y0371958
X0378000Y0393838
X0378000Y0415718
X0399000Y0021879
X0399000Y0043759
X0399000Y0065639
X0399000Y0087519
X0399000Y0109399
X0399000Y0131279
X0399000Y0153159
X0399000Y0175039
X0399000Y0196919
X0399000Y0218799
X0399000Y0240679
X0399000Y0262559
X0399000Y0284438
X0399000Y0306318
X0399000Y0328198
X0399000Y0350078
X0399000Y0371958
X0399000Y0393838
X0399000Y0415718
T02
X0020000Y0020000
X0400000Y0020000
X0020000Y0417598
X0400000Y0417598
M30
