G04 Top Copper*
G04 Generated by LightRail AI Gerber Engine — 2026-03-08 03:26 UTC*
%FSLAX25Y25*%
%MOIN*%
%LPD*%
%ADD10C,0.00800*%
%ADD11C,0.02500*%
%ADD12C,0.05000*%
%ADD13C,0.01000*%
%ADD14C,0.04000*%
G01*
D10*
D13*
X0Y0D02*
X420000Y0D01*
X420000Y437598D01*
X0Y437598D01*
X0Y0D01*
D10*
X2800Y0D02*
X2800Y437598D01*
X5600Y0D02*
X5600Y437598D01*
X8400Y0D02*
X8400Y437598D01*
X11200Y0D02*
X11200Y437598D01*
X14000Y0D02*
X14000Y437598D01*
X16800Y0D02*
X16800Y437598D01*
X19600Y0D02*
X19600Y437598D01*
X22400Y0D02*
X22400Y437598D01*
X25200Y0D02*
X25200Y437598D01*
X28000Y0D02*
X28000Y437598D01*
X30800Y0D02*
X30800Y437598D01*
X33600Y0D02*
X33600Y437598D01*
X36400Y0D02*
X36400Y437598D01*
X39200Y0D02*
X39200Y437598D01*
X42000Y0D02*
X42000Y437598D01*
X44800Y0D02*
X44800Y437598D01*
X47600Y0D02*
X47600Y437598D01*
X50400Y0D02*
X50400Y437598D01*
X53200Y0D02*
X53200Y437598D01*
X56000Y0D02*
X56000Y437598D01*
X58800Y0D02*
X58800Y437598D01*
X61600Y0D02*
X61600Y437598D01*
X64400Y0D02*
X64400Y437598D01*
X67200Y0D02*
X67200Y437598D01*
X70000Y0D02*
X70000Y437598D01*
X72800Y0D02*
X72800Y437598D01*
X75600Y0D02*
X75600Y437598D01*
X78400Y0D02*
X78400Y437598D01*
X81200Y0D02*
X81200Y437598D01*
X84000Y0D02*
X84000Y437598D01*
X86800Y0D02*
X86800Y437598D01*
X89600Y0D02*
X89600Y437598D01*
X92400Y0D02*
X92400Y437598D01*
X95200Y0D02*
X95200Y437598D01*
X98000Y0D02*
X98000Y437598D01*
X100800Y0D02*
X100800Y437598D01*
X103600Y0D02*
X103600Y437598D01*
X106400Y0D02*
X106400Y437598D01*
X109200Y0D02*
X109200Y437598D01*
X112000Y0D02*
X112000Y437598D01*
X114800Y0D02*
X114800Y437598D01*
X117600Y0D02*
X117600Y437598D01*
X120400Y0D02*
X120400Y437598D01*
X123200Y0D02*
X123200Y437598D01*
X126000Y0D02*
X126000Y437598D01*
X128800Y0D02*
X128800Y437598D01*
X131600Y0D02*
X131600Y437598D01*
X134400Y0D02*
X134400Y437598D01*
X137200Y0D02*
X137200Y437598D01*
X140000Y0D02*
X140000Y437598D01*
X142800Y0D02*
X142800Y437598D01*
X145600Y0D02*
X145600Y437598D01*
X148400Y0D02*
X148400Y437598D01*
X151200Y0D02*
X151200Y437598D01*
X154000Y0D02*
X154000Y437598D01*
X156800Y0D02*
X156800Y437598D01*
X159600Y0D02*
X159600Y437598D01*
X162400Y0D02*
X162400Y437598D01*
X165200Y0D02*
X165200Y437598D01*
X168000Y0D02*
X168000Y437598D01*
X170800Y0D02*
X170800Y437598D01*
X173600Y0D02*
X173600Y437598D01*
X176400Y0D02*
X176400Y437598D01*
X179200Y0D02*
X179200Y437598D01*
X182000Y0D02*
X182000Y437598D01*
X184800Y0D02*
X184800Y437598D01*
X187600Y0D02*
X187600Y437598D01*
X190400Y0D02*
X190400Y437598D01*
X193200Y0D02*
X193200Y437598D01*
X196000Y0D02*
X196000Y437598D01*
X198800Y0D02*
X198800Y437598D01*
X201600Y0D02*
X201600Y437598D01*
X204400Y0D02*
X204400Y437598D01*
X207200Y0D02*
X207200Y437598D01*
X210000Y0D02*
X210000Y437598D01*
X212800Y0D02*
X212800Y437598D01*
X215600Y0D02*
X215600Y437598D01*
X218400Y0D02*
X218400Y437598D01*
X221200Y0D02*
X221200Y437598D01*
X224000Y0D02*
X224000Y437598D01*
X226800Y0D02*
X226800Y437598D01*
X229600Y0D02*
X229600Y437598D01*
X232400Y0D02*
X232400Y437598D01*
X235200Y0D02*
X235200Y437598D01*
X238000Y0D02*
X238000Y437598D01*
X240800Y0D02*
X240800Y437598D01*
X243600Y0D02*
X243600Y437598D01*
X246400Y0D02*
X246400Y437598D01*
X249200Y0D02*
X249200Y437598D01*
X252000Y0D02*
X252000Y437598D01*
X254800Y0D02*
X254800Y437598D01*
X257600Y0D02*
X257600Y437598D01*
X260400Y0D02*
X260400Y437598D01*
X263200Y0D02*
X263200Y437598D01*
X266000Y0D02*
X266000Y437598D01*
X268800Y0D02*
X268800Y437598D01*
X271600Y0D02*
X271600Y437598D01*
X274400Y0D02*
X274400Y437598D01*
X277200Y0D02*
X277200Y437598D01*
X280000Y0D02*
X280000Y437598D01*
X282800Y0D02*
X282800Y437598D01*
X285600Y0D02*
X285600Y437598D01*
X288400Y0D02*
X288400Y437598D01*
X291200Y0D02*
X291200Y437598D01*
X294000Y0D02*
X294000Y437598D01*
X296800Y0D02*
X296800Y437598D01*
X299600Y0D02*
X299600Y437598D01*
X302400Y0D02*
X302400Y437598D01*
X305200Y0D02*
X305200Y437598D01*
X308000Y0D02*
X308000Y437598D01*
X310800Y0D02*
X310800Y437598D01*
X313600Y0D02*
X313600Y437598D01*
X316400Y0D02*
X316400Y437598D01*
X319200Y0D02*
X319200Y437598D01*
X322000Y0D02*
X322000Y437598D01*
X324800Y0D02*
X324800Y437598D01*
X327600Y0D02*
X327600Y437598D01*
X330400Y0D02*
X330400Y437598D01*
X333200Y0D02*
X333200Y437598D01*
X336000Y0D02*
X336000Y437598D01*
X338800Y0D02*
X338800Y437598D01*
X341600Y0D02*
X341600Y437598D01*
X344400Y0D02*
X344400Y437598D01*
X347200Y0D02*
X347200Y437598D01*
X350000Y0D02*
X350000Y437598D01*
X352800Y0D02*
X352800Y437598D01*
X355600Y0D02*
X355600Y437598D01*
X358400Y0D02*
X358400Y437598D01*
X361200Y0D02*
X361200Y437598D01*
X364000Y0D02*
X364000Y437598D01*
X366800Y0D02*
X366800Y437598D01*
X369600Y0D02*
X369600Y437598D01*
X372400Y0D02*
X372400Y437598D01*
X375200Y0D02*
X375200Y437598D01*
X378000Y0D02*
X378000Y437598D01*
X380800Y0D02*
X380800Y437598D01*
X383600Y0D02*
X383600Y437598D01*
X386400Y0D02*
X386400Y437598D01*
X389200Y0D02*
X389200Y437598D01*
X392000Y0D02*
X392000Y437598D01*
X394800Y0D02*
X394800Y437598D01*
X397600Y0D02*
X397600Y437598D01*
X400400Y0D02*
X400400Y437598D01*
X403200Y0D02*
X403200Y437598D01*
X406000Y0D02*
X406000Y437598D01*
X408800Y0D02*
X408800Y437598D01*
X411600Y0D02*
X411600Y437598D01*
X414400Y0D02*
X414400Y437598D01*
X417200Y0D02*
X417200Y437598D01*
X0Y2917D02*
X420000Y2917D01*
X0Y5835D02*
X420000Y5835D01*
X0Y8752D02*
X420000Y8752D01*
X0Y11669D02*
X420000Y11669D01*
X0Y14587D02*
X420000Y14587D01*
X0Y17504D02*
X420000Y17504D01*
X0Y20421D02*
X420000Y20421D01*
X0Y23339D02*
X420000Y23339D01*
X0Y26256D02*
X420000Y26256D01*
X0Y29173D02*
X420000Y29173D01*
X0Y32091D02*
X420000Y32091D01*
X0Y35008D02*
X420000Y35008D01*
X0Y37925D02*
X420000Y37925D01*
X0Y40843D02*
X420000Y40843D01*
X0Y43760D02*
X420000Y43760D01*
X0Y46677D02*
X420000Y46677D01*
X0Y49594D02*
X420000Y49594D01*
X0Y52512D02*
X420000Y52512D01*
X0Y55429D02*
X420000Y55429D01*
X0Y58346D02*
X420000Y58346D01*
X0Y61264D02*
X420000Y61264D01*
X0Y64181D02*
X420000Y64181D01*
X0Y67098D02*
X420000Y67098D01*
X0Y70016D02*
X420000Y70016D01*
X0Y72933D02*
X420000Y72933D01*
X0Y75850D02*
X420000Y75850D01*
X0Y78768D02*
X420000Y78768D01*
X0Y81685D02*
X420000Y81685D01*
X0Y84602D02*
X420000Y84602D01*
X0Y87520D02*
X420000Y87520D01*
X0Y90437D02*
X420000Y90437D01*
X0Y93354D02*
X420000Y93354D01*
X0Y96272D02*
X420000Y96272D01*
X0Y99189D02*
X420000Y99189D01*
X0Y102106D02*
X420000Y102106D01*
X0Y105024D02*
X420000Y105024D01*
X0Y107941D02*
X420000Y107941D01*
X0Y110858D02*
X420000Y110858D01*
X0Y113776D02*
X420000Y113776D01*
X0Y116693D02*
X420000Y116693D01*
X0Y119610D02*
X420000Y119610D01*
X0Y122528D02*
X420000Y122528D01*
X0Y125445D02*
X420000Y125445D01*
X0Y128362D02*
X420000Y128362D01*
X0Y131280D02*
X420000Y131280D01*
X0Y134197D02*
X420000Y134197D01*
X0Y137114D02*
X420000Y137114D01*
X0Y140031D02*
X420000Y140031D01*
X0Y142949D02*
X420000Y142949D01*
X0Y145866D02*
X420000Y145866D01*
X0Y148783D02*
X420000Y148783D01*
X0Y151701D02*
X420000Y151701D01*
X0Y154618D02*
X420000Y154618D01*
X0Y157535D02*
X420000Y157535D01*
X0Y160453D02*
X420000Y160453D01*
X0Y163370D02*
X420000Y163370D01*
X0Y166287D02*
X420000Y166287D01*
X0Y169205D02*
X420000Y169205D01*
X0Y172122D02*
X420000Y172122D01*
X0Y175039D02*
X420000Y175039D01*
X0Y177957D02*
X420000Y177957D01*
X0Y180874D02*
X420000Y180874D01*
X0Y183791D02*
X420000Y183791D01*
X0Y186709D02*
X420000Y186709D01*
X0Y189626D02*
X420000Y189626D01*
X0Y192543D02*
X420000Y192543D01*
X0Y195461D02*
X420000Y195461D01*
X0Y198378D02*
X420000Y198378D01*
X0Y201295D02*
X420000Y201295D01*
X0Y204213D02*
X420000Y204213D01*
X0Y207130D02*
X420000Y207130D01*
X0Y210047D02*
X420000Y210047D01*
X0Y212965D02*
X420000Y212965D01*
X0Y215882D02*
X420000Y215882D01*
X0Y218799D02*
X420000Y218799D01*
X0Y221717D02*
X420000Y221717D01*
X0Y224634D02*
X420000Y224634D01*
X0Y227551D02*
X420000Y227551D01*
X0Y230469D02*
X420000Y230469D01*
X0Y233386D02*
X420000Y233386D01*
X0Y236303D02*
X420000Y236303D01*
X0Y239220D02*
X420000Y239220D01*
X0Y242138D02*
X420000Y242138D01*
X0Y245055D02*
X420000Y245055D01*
X0Y247972D02*
X420000Y247972D01*
X0Y250890D02*
X420000Y250890D01*
X0Y253807D02*
X420000Y253807D01*
X0Y256724D02*
X420000Y256724D01*
X0Y259642D02*
X420000Y259642D01*
X0Y262559D02*
X420000Y262559D01*
X0Y265476D02*
X420000Y265476D01*
X0Y268394D02*
X420000Y268394D01*
X0Y271311D02*
X420000Y271311D01*
X0Y274228D02*
X420000Y274228D01*
X0Y277146D02*
X420000Y277146D01*
X0Y280063D02*
X420000Y280063D01*
X0Y282980D02*
X420000Y282980D01*
X0Y285898D02*
X420000Y285898D01*
X0Y288815D02*
X420000Y288815D01*
X0Y291732D02*
X420000Y291732D01*
X0Y294650D02*
X420000Y294650D01*
X0Y297567D02*
X420000Y297567D01*
X0Y300484D02*
X420000Y300484D01*
X0Y303402D02*
X420000Y303402D01*
X0Y306319D02*
X420000Y306319D01*
X0Y309236D02*
X420000Y309236D01*
X0Y312154D02*
X420000Y312154D01*
X0Y315071D02*
X420000Y315071D01*
X0Y317988D02*
X420000Y317988D01*
X0Y320906D02*
X420000Y320906D01*
X0Y323823D02*
X420000Y323823D01*
X0Y326740D02*
X420000Y326740D01*
X0Y329657D02*
X420000Y329657D01*
X0Y332575D02*
X420000Y332575D01*
X0Y335492D02*
X420000Y335492D01*
X0Y338409D02*
X420000Y338409D01*
X0Y341327D02*
X420000Y341327D01*
X0Y344244D02*
X420000Y344244D01*
X0Y347161D02*
X420000Y347161D01*
X0Y350079D02*
X420000Y350079D01*
X0Y352996D02*
X420000Y352996D01*
X0Y355913D02*
X420000Y355913D01*
X0Y358831D02*
X420000Y358831D01*
X0Y361748D02*
X420000Y361748D01*
X0Y364665D02*
X420000Y364665D01*
X0Y367583D02*
X420000Y367583D01*
X0Y370500D02*
X420000Y370500D01*
X0Y373417D02*
X420000Y373417D01*
X0Y376335D02*
X420000Y376335D01*
X0Y379252D02*
X420000Y379252D01*
X0Y382169D02*
X420000Y382169D01*
X0Y385087D02*
X420000Y385087D01*
X0Y388004D02*
X420000Y388004D01*
X0Y390921D02*
X420000Y390921D01*
X0Y393839D02*
X420000Y393839D01*
X0Y396756D02*
X420000Y396756D01*
X0Y399673D02*
X420000Y399673D01*
X0Y402591D02*
X420000Y402591D01*
X0Y405508D02*
X420000Y405508D01*
X0Y408425D02*
X420000Y408425D01*
X0Y411343D02*
X420000Y411343D01*
X0Y414260D02*
X420000Y414260D01*
X0Y417177D02*
X420000Y417177D01*
X0Y420094D02*
X420000Y420094D01*
X0Y423012D02*
X420000Y423012D01*
X0Y425929D02*
X420000Y425929D01*
X0Y428846D02*
X420000Y428846D01*
X0Y431764D02*
X420000Y431764D01*
X0Y434681D02*
X420000Y434681D01*
D11*
X210000Y218780D03*
X59055Y19685D03*
X78740Y19685D03*
X46457Y39370D03*
X53543Y39370D03*
X60630Y39370D03*
X67717Y39370D03*
X74803Y39370D03*
X81890Y39370D03*
X88976Y39370D03*
X96063Y39370D03*
X103150Y39370D03*
X110236Y39370D03*
X117323Y39370D03*
X124409Y39370D03*
X131496Y39370D03*
X138583Y39370D03*
X145669Y39370D03*
X152756Y39370D03*
X159843Y39370D03*
X166929Y39370D03*
X174016Y39370D03*
X181102Y39370D03*
X188189Y39370D03*
X195276Y39370D03*
X202362Y39370D03*
X209449Y39370D03*
X216535Y39370D03*
X223622Y39370D03*
X230709Y39370D03*
X237795Y39370D03*
X244882Y39370D03*
X251969Y39370D03*
X259055Y39370D03*
X266142Y39370D03*
X273228Y39370D03*
X280315Y39370D03*
X287402Y39370D03*
X294488Y39370D03*
X301575Y39370D03*
X308661Y39370D03*
X315748Y39370D03*
X322835Y39370D03*
X329921Y39370D03*
X337008Y39370D03*
X344094Y39370D03*
X351181Y39370D03*
X358268Y39370D03*
X365354Y39370D03*
X372441Y39370D03*
X379528Y39370D03*
X386614Y39370D03*
X39370Y48031D03*
X46457Y48031D03*
X53543Y48031D03*
X60630Y48031D03*
X67717Y48031D03*
X74803Y48031D03*
X81890Y48031D03*
X88976Y48031D03*
X96063Y48031D03*
X103150Y48031D03*
X110236Y48031D03*
X117323Y48031D03*
X124409Y48031D03*
X131496Y48031D03*
X138583Y48031D03*
X145669Y48031D03*
X152756Y48031D03*
X159843Y48031D03*
X166929Y48031D03*
X174016Y48031D03*
X181102Y48031D03*
X188189Y48031D03*
X195276Y48031D03*
X202362Y48031D03*
X209449Y48031D03*
X216535Y48031D03*
X223622Y48031D03*
X230709Y48031D03*
X237795Y48031D03*
X244882Y48031D03*
X251969Y48031D03*
X259055Y48031D03*
X266142Y48031D03*
X273228Y48031D03*
X280315Y48031D03*
X287402Y48031D03*
X294488Y48031D03*
X301575Y48031D03*
X308661Y48031D03*
X315748Y48031D03*
X322835Y48031D03*
X329921Y48031D03*
X337008Y48031D03*
X344094Y48031D03*
X351181Y48031D03*
X358268Y48031D03*
X365354Y48031D03*
X372441Y48031D03*
X379528Y48031D03*
X386614Y48031D03*
X39370Y56693D03*
X46457Y56693D03*
X53543Y56693D03*
X60630Y56693D03*
X67717Y56693D03*
X74803Y56693D03*
X81890Y56693D03*
X88976Y56693D03*
X96063Y56693D03*
X103150Y56693D03*
X110236Y56693D03*
X117323Y56693D03*
X124409Y56693D03*
X131496Y56693D03*
X138583Y56693D03*
X145669Y56693D03*
X152756Y56693D03*
X159843Y56693D03*
X166929Y56693D03*
X174016Y56693D03*
X181102Y56693D03*
X188189Y56693D03*
X195276Y56693D03*
X202362Y56693D03*
X209449Y56693D03*
X216535Y56693D03*
X223622Y56693D03*
X230709Y56693D03*
X237795Y56693D03*
X244882Y56693D03*
X251969Y56693D03*
X259055Y56693D03*
X266142Y56693D03*
X273228Y56693D03*
X280315Y56693D03*
X287402Y56693D03*
X294488Y56693D03*
X301575Y56693D03*
X308661Y56693D03*
X315748Y56693D03*
X322835Y56693D03*
X329921Y56693D03*
X337008Y56693D03*
X344094Y56693D03*
X351181Y56693D03*
X358268Y56693D03*
X365354Y56693D03*
X372441Y56693D03*
X379528Y56693D03*
X386614Y56693D03*
X39370Y65354D03*
X46457Y65354D03*
X53543Y65354D03*
X60630Y65354D03*
X67717Y65354D03*
X74803Y65354D03*
X81890Y65354D03*
X88976Y65354D03*
X96063Y65354D03*
X103150Y65354D03*
X110236Y65354D03*
X117323Y65354D03*
X124409Y65354D03*
X131496Y65354D03*
X138583Y65354D03*
X145669Y65354D03*
X152756Y65354D03*
X159843Y65354D03*
X166929Y65354D03*
X174016Y65354D03*
X181102Y65354D03*
X188189Y65354D03*
X195276Y65354D03*
X202362Y65354D03*
X209449Y65354D03*
X216535Y65354D03*
X223622Y65354D03*
X230709Y65354D03*
X237795Y65354D03*
X244882Y65354D03*
X251969Y65354D03*
X259055Y65354D03*
X266142Y65354D03*
X273228Y65354D03*
X280315Y65354D03*
X287402Y65354D03*
X294488Y65354D03*
X301575Y65354D03*
X308661Y65354D03*
X315748Y65354D03*
X322835Y65354D03*
X329921Y65354D03*
X337008Y65354D03*
X344094Y65354D03*
X351181Y65354D03*
X358268Y65354D03*
X365354Y65354D03*
X372441Y65354D03*
X379528Y65354D03*
X386614Y65354D03*
X39370Y74016D03*
X46457Y74016D03*
X53543Y74016D03*
X60630Y74016D03*
X67717Y74016D03*
X74803Y74016D03*
X81890Y74016D03*
X88976Y74016D03*
X96063Y74016D03*
X103150Y74016D03*
X110236Y74016D03*
X117323Y74016D03*
X124409Y74016D03*
X131496Y74016D03*
X138583Y74016D03*
X145669Y74016D03*
X152756Y74016D03*
X159843Y74016D03*
X166929Y74016D03*
X174016Y74016D03*
X181102Y74016D03*
X188189Y74016D03*
X195276Y74016D03*
X202362Y74016D03*
X209449Y74016D03*
X216535Y74016D03*
X223622Y74016D03*
X230709Y74016D03*
X237795Y74016D03*
X244882Y74016D03*
X251969Y74016D03*
X259055Y74016D03*
X266142Y74016D03*
X273228Y74016D03*
X280315Y74016D03*
X287402Y74016D03*
X294488Y74016D03*
X301575Y74016D03*
X308661Y74016D03*
X315748Y74016D03*
X322835Y74016D03*
X329921Y74016D03*
X337008Y74016D03*
X344094Y74016D03*
X351181Y74016D03*
X358268Y74016D03*
X365354Y74016D03*
X372441Y74016D03*
X379528Y74016D03*
X386614Y74016D03*
X39370Y82677D03*
X46457Y82677D03*
X53543Y82677D03*
X60630Y82677D03*
X67717Y82677D03*
X74803Y82677D03*
X81890Y82677D03*
X88976Y82677D03*
X96063Y82677D03*
X103150Y82677D03*
X110236Y82677D03*
X117323Y82677D03*
X124409Y82677D03*
X131496Y82677D03*
X138583Y82677D03*
X145669Y82677D03*
X152756Y82677D03*
X159843Y82677D03*
X166929Y82677D03*
X174016Y82677D03*
X181102Y82677D03*
X188189Y82677D03*
X195276Y82677D03*
X202362Y82677D03*
X209449Y82677D03*
X216535Y82677D03*
X223622Y82677D03*
X230709Y82677D03*
X237795Y82677D03*
X244882Y82677D03*
X251969Y82677D03*
X259055Y82677D03*
X266142Y82677D03*
X273228Y82677D03*
X280315Y82677D03*
X287402Y82677D03*
X294488Y82677D03*
X301575Y82677D03*
X308661Y82677D03*
X315748Y82677D03*
X322835Y82677D03*
X329921Y82677D03*
X337008Y82677D03*
X344094Y82677D03*
X351181Y82677D03*
X358268Y82677D03*
X365354Y82677D03*
X372441Y82677D03*
X379528Y82677D03*
X386614Y82677D03*
X39370Y91339D03*
X46457Y91339D03*
X53543Y91339D03*
X60630Y91339D03*
X67717Y91339D03*
X74803Y91339D03*
X81890Y91339D03*
X88976Y91339D03*
X96063Y91339D03*
X103150Y91339D03*
X110236Y91339D03*
X117323Y91339D03*
X124409Y91339D03*
X131496Y91339D03*
X138583Y91339D03*
X145669Y91339D03*
X152756Y91339D03*
X159843Y91339D03*
X166929Y91339D03*
X174016Y91339D03*
X181102Y91339D03*
X188189Y91339D03*
X195276Y91339D03*
X202362Y91339D03*
X209449Y91339D03*
X216535Y91339D03*
X223622Y91339D03*
X230709Y91339D03*
X237795Y91339D03*
X244882Y91339D03*
X251969Y91339D03*
X259055Y91339D03*
X266142Y91339D03*
X273228Y91339D03*
X280315Y91339D03*
X287402Y91339D03*
X294488Y91339D03*
X301575Y91339D03*
X308661Y91339D03*
X315748Y91339D03*
X322835Y91339D03*
X329921Y91339D03*
X337008Y91339D03*
X344094Y91339D03*
X351181Y91339D03*
X358268Y91339D03*
X365354Y91339D03*
X372441Y91339D03*
X379528Y91339D03*
X386614Y91339D03*
X39370Y100000D03*
X46457Y100000D03*
X53543Y100000D03*
X60630Y100000D03*
X67717Y100000D03*
X74803Y100000D03*
X81890Y100000D03*
X88976Y100000D03*
X96063Y100000D03*
X103150Y100000D03*
X110236Y100000D03*
X117323Y100000D03*
X124409Y100000D03*
X131496Y100000D03*
X138583Y100000D03*
X145669Y100000D03*
X152756Y100000D03*
X159843Y100000D03*
X166929Y100000D03*
X174016Y100000D03*
X181102Y100000D03*
X188189Y100000D03*
X195276Y100000D03*
X202362Y100000D03*
X209449Y100000D03*
X216535Y100000D03*
X223622Y100000D03*
X230709Y100000D03*
X237795Y100000D03*
X244882Y100000D03*
X251969Y100000D03*
X259055Y100000D03*
X266142Y100000D03*
X273228Y100000D03*
X280315Y100000D03*
X287402Y100000D03*
X294488Y100000D03*
X301575Y100000D03*
X308661Y100000D03*
X315748Y100000D03*
X322835Y100000D03*
X329921Y100000D03*
X337008Y100000D03*
X344094Y100000D03*
X351181Y100000D03*
X358268Y100000D03*
X365354Y100000D03*
X372441Y100000D03*
X379528Y100000D03*
X386614Y100000D03*
X39370Y108661D03*
X46457Y108661D03*
X53543Y108661D03*
X60630Y108661D03*
X67717Y108661D03*
X74803Y108661D03*
X81890Y108661D03*
X88976Y108661D03*
X96063Y108661D03*
X103150Y108661D03*
X110236Y108661D03*
X117323Y108661D03*
X124409Y108661D03*
X131496Y108661D03*
X138583Y108661D03*
X145669Y108661D03*
X152756Y108661D03*
X159843Y108661D03*
X166929Y108661D03*
X174016Y108661D03*
X181102Y108661D03*
X188189Y108661D03*
X195276Y108661D03*
X202362Y108661D03*
X209449Y108661D03*
X216535Y108661D03*
X223622Y108661D03*
X230709Y108661D03*
X237795Y108661D03*
X244882Y108661D03*
X251969Y108661D03*
X259055Y108661D03*
X266142Y108661D03*
X273228Y108661D03*
X280315Y108661D03*
X287402Y108661D03*
X294488Y108661D03*
X301575Y108661D03*
X308661Y108661D03*
X315748Y108661D03*
X322835Y108661D03*
X329921Y108661D03*
X337008Y108661D03*
X344094Y108661D03*
X351181Y108661D03*
X358268Y108661D03*
X365354Y108661D03*
X372441Y108661D03*
X379528Y108661D03*
X386614Y108661D03*
X39370Y117323D03*
X46457Y117323D03*
X53543Y117323D03*
X60630Y117323D03*
X67717Y117323D03*
X74803Y117323D03*
X81890Y117323D03*
X88976Y117323D03*
X96063Y117323D03*
X103150Y117323D03*
X110236Y117323D03*
X117323Y117323D03*
X124409Y117323D03*
X131496Y117323D03*
X138583Y117323D03*
X145669Y117323D03*
X152756Y117323D03*
X159843Y117323D03*
X166929Y117323D03*
X174016Y117323D03*
X181102Y117323D03*
X188189Y117323D03*
X195276Y117323D03*
X202362Y117323D03*
X209449Y117323D03*
X216535Y117323D03*
X223622Y117323D03*
X230709Y117323D03*
X237795Y117323D03*
X244882Y117323D03*
X251969Y117323D03*
X259055Y117323D03*
X266142Y117323D03*
X273228Y117323D03*
X280315Y117323D03*
X287402Y117323D03*
X294488Y117323D03*
X301575Y117323D03*
X308661Y117323D03*
X315748Y117323D03*
X322835Y117323D03*
X329921Y117323D03*
X337008Y117323D03*
X344094Y117323D03*
X351181Y117323D03*
X358268Y117323D03*
X365354Y117323D03*
X372441Y117323D03*
X379528Y117323D03*
X386614Y117323D03*
X39370Y125984D03*
X46457Y125984D03*
X53543Y125984D03*
X60630Y125984D03*
X67717Y125984D03*
X74803Y125984D03*
X81890Y125984D03*
X88976Y125984D03*
X96063Y125984D03*
X103150Y125984D03*
X110236Y125984D03*
X117323Y125984D03*
X124409Y125984D03*
X131496Y125984D03*
X138583Y125984D03*
X145669Y125984D03*
X152756Y125984D03*
X159843Y125984D03*
X166929Y125984D03*
X174016Y125984D03*
X181102Y125984D03*
X188189Y125984D03*
X195276Y125984D03*
X202362Y125984D03*
X209449Y125984D03*
X216535Y125984D03*
X223622Y125984D03*
X230709Y125984D03*
X237795Y125984D03*
X244882Y125984D03*
X251969Y125984D03*
X259055Y125984D03*
X266142Y125984D03*
X273228Y125984D03*
X280315Y125984D03*
X287402Y125984D03*
X294488Y125984D03*
X301575Y125984D03*
X308661Y125984D03*
X315748Y125984D03*
X322835Y125984D03*
X329921Y125984D03*
X337008Y125984D03*
X344094Y125984D03*
X351181Y125984D03*
X358268Y125984D03*
X365354Y125984D03*
X372441Y125984D03*
X379528Y125984D03*
X386614Y125984D03*
X39370Y134646D03*
X46457Y134646D03*
X53543Y134646D03*
X60630Y134646D03*
X67717Y134646D03*
X74803Y134646D03*
X81890Y134646D03*
X88976Y134646D03*
X96063Y134646D03*
X103150Y134646D03*
X110236Y134646D03*
X117323Y134646D03*
X124409Y134646D03*
X131496Y134646D03*
X138583Y134646D03*
X145669Y134646D03*
X152756Y134646D03*
X159843Y134646D03*
X166929Y134646D03*
X174016Y134646D03*
X181102Y134646D03*
X188189Y134646D03*
X195276Y134646D03*
X202362Y134646D03*
X209449Y134646D03*
X216535Y134646D03*
X223622Y134646D03*
X230709Y134646D03*
X237795Y134646D03*
X244882Y134646D03*
X251969Y134646D03*
X259055Y134646D03*
X266142Y134646D03*
X273228Y134646D03*
X280315Y134646D03*
X287402Y134646D03*
X294488Y134646D03*
X301575Y134646D03*
X308661Y134646D03*
X315748Y134646D03*
X322835Y134646D03*
X329921Y134646D03*
X337008Y134646D03*
X344094Y134646D03*
X351181Y134646D03*
X358268Y134646D03*
X365354Y134646D03*
X372441Y134646D03*
X379528Y134646D03*
X386614Y134646D03*
X39370Y143307D03*
X46457Y143307D03*
X53543Y143307D03*
X60630Y143307D03*
X67717Y143307D03*
X74803Y143307D03*
X81890Y143307D03*
X88976Y143307D03*
X96063Y143307D03*
X103150Y143307D03*
X110236Y143307D03*
X117323Y143307D03*
X124409Y143307D03*
X131496Y143307D03*
X138583Y143307D03*
X145669Y143307D03*
X152756Y143307D03*
X159843Y143307D03*
X166929Y143307D03*
X174016Y143307D03*
X181102Y143307D03*
X188189Y143307D03*
X195276Y143307D03*
X202362Y143307D03*
X209449Y143307D03*
X216535Y143307D03*
X223622Y143307D03*
X230709Y143307D03*
X237795Y143307D03*
X244882Y143307D03*
X251969Y143307D03*
X259055Y143307D03*
X266142Y143307D03*
X273228Y143307D03*
X280315Y143307D03*
X287402Y143307D03*
X294488Y143307D03*
X301575Y143307D03*
X308661Y143307D03*
X315748Y143307D03*
X322835Y143307D03*
X329921Y143307D03*
X337008Y143307D03*
X344094Y143307D03*
X351181Y143307D03*
X358268Y143307D03*
X365354Y143307D03*
X372441Y143307D03*
X379528Y143307D03*
X386614Y143307D03*
X39370Y151969D03*
X46457Y151969D03*
X53543Y151969D03*
X60630Y151969D03*
X67717Y151969D03*
X74803Y151969D03*
X81890Y151969D03*
X88976Y151969D03*
X96063Y151969D03*
X103150Y151969D03*
X110236Y151969D03*
X117323Y151969D03*
X124409Y151969D03*
X131496Y151969D03*
X138583Y151969D03*
X145669Y151969D03*
X152756Y151969D03*
X159843Y151969D03*
X166929Y151969D03*
X174016Y151969D03*
X181102Y151969D03*
X188189Y151969D03*
X195276Y151969D03*
X202362Y151969D03*
X209449Y151969D03*
X216535Y151969D03*
X223622Y151969D03*
X230709Y151969D03*
X237795Y151969D03*
X244882Y151969D03*
X251969Y151969D03*
X259055Y151969D03*
X266142Y151969D03*
X273228Y151969D03*
X280315Y151969D03*
X287402Y151969D03*
X294488Y151969D03*
X301575Y151969D03*
X308661Y151969D03*
X315748Y151969D03*
X322835Y151969D03*
X329921Y151969D03*
X337008Y151969D03*
X344094Y151969D03*
X351181Y151969D03*
X358268Y151969D03*
X365354Y151969D03*
X372441Y151969D03*
X379528Y151969D03*
X386614Y151969D03*
X39370Y160630D03*
X46457Y160630D03*
X53543Y160630D03*
X60630Y160630D03*
X67717Y160630D03*
X74803Y160630D03*
X81890Y160630D03*
X88976Y160630D03*
X96063Y160630D03*
X103150Y160630D03*
X110236Y160630D03*
X117323Y160630D03*
X124409Y160630D03*
X131496Y160630D03*
X138583Y160630D03*
X145669Y160630D03*
X152756Y160630D03*
X159843Y160630D03*
X166929Y160630D03*
X174016Y160630D03*
X181102Y160630D03*
X188189Y160630D03*
X195276Y160630D03*
X202362Y160630D03*
X209449Y160630D03*
X216535Y160630D03*
X223622Y160630D03*
X230709Y160630D03*
X237795Y160630D03*
X244882Y160630D03*
X251969Y160630D03*
X259055Y160630D03*
X266142Y160630D03*
X273228Y160630D03*
X280315Y160630D03*
X287402Y160630D03*
X294488Y160630D03*
X301575Y160630D03*
X308661Y160630D03*
X315748Y160630D03*
X322835Y160630D03*
X329921Y160630D03*
X337008Y160630D03*
X344094Y160630D03*
X351181Y160630D03*
X358268Y160630D03*
X365354Y160630D03*
X372441Y160630D03*
X379528Y160630D03*
X386614Y160630D03*
X39370Y169291D03*
X46457Y169291D03*
X53543Y169291D03*
X60630Y169291D03*
X67717Y169291D03*
X74803Y169291D03*
X81890Y169291D03*
X88976Y169291D03*
X96063Y169291D03*
X103150Y169291D03*
X110236Y169291D03*
X117323Y169291D03*
X124409Y169291D03*
X131496Y169291D03*
X138583Y169291D03*
X145669Y169291D03*
X152756Y169291D03*
X159843Y169291D03*
X166929Y169291D03*
X174016Y169291D03*
X181102Y169291D03*
X188189Y169291D03*
X195276Y169291D03*
X202362Y169291D03*
X209449Y169291D03*
X216535Y169291D03*
X223622Y169291D03*
X230709Y169291D03*
X237795Y169291D03*
X244882Y169291D03*
X251969Y169291D03*
X259055Y169291D03*
X266142Y169291D03*
X273228Y169291D03*
X280315Y169291D03*
X287402Y169291D03*
X294488Y169291D03*
X301575Y169291D03*
X308661Y169291D03*
X315748Y169291D03*
X322835Y169291D03*
X329921Y169291D03*
X337008Y169291D03*
X344094Y169291D03*
X351181Y169291D03*
X358268Y169291D03*
X365354Y169291D03*
X372441Y169291D03*
X379528Y169291D03*
X386614Y169291D03*
X39370Y177953D03*
X46457Y177953D03*
X53543Y177953D03*
X60630Y177953D03*
X67717Y177953D03*
X74803Y177953D03*
X81890Y177953D03*
X88976Y177953D03*
X96063Y177953D03*
X103150Y177953D03*
X110236Y177953D03*
X117323Y177953D03*
X124409Y177953D03*
X131496Y177953D03*
X138583Y177953D03*
X145669Y177953D03*
X152756Y177953D03*
X159843Y177953D03*
X166929Y177953D03*
X174016Y177953D03*
X181102Y177953D03*
X188189Y177953D03*
X195276Y177953D03*
X202362Y177953D03*
X209449Y177953D03*
X216535Y177953D03*
X223622Y177953D03*
X230709Y177953D03*
X237795Y177953D03*
X244882Y177953D03*
X251969Y177953D03*
X259055Y177953D03*
X266142Y177953D03*
X273228Y177953D03*
X280315Y177953D03*
X287402Y177953D03*
X294488Y177953D03*
X301575Y177953D03*
X308661Y177953D03*
X315748Y177953D03*
X322835Y177953D03*
X329921Y177953D03*
X337008Y177953D03*
X344094Y177953D03*
X351181Y177953D03*
X358268Y177953D03*
X365354Y177953D03*
X372441Y177953D03*
X379528Y177953D03*
X386614Y177953D03*
X39370Y186614D03*
X46457Y186614D03*
X53543Y186614D03*
X60630Y186614D03*
X67717Y186614D03*
X74803Y186614D03*
X81890Y186614D03*
X88976Y186614D03*
X96063Y186614D03*
X103150Y186614D03*
X110236Y186614D03*
X117323Y186614D03*
X124409Y186614D03*
X131496Y186614D03*
X138583Y186614D03*
X145669Y186614D03*
X152756Y186614D03*
X159843Y186614D03*
X166929Y186614D03*
X174016Y186614D03*
X181102Y186614D03*
X188189Y186614D03*
X195276Y186614D03*
X202362Y186614D03*
X209449Y186614D03*
X216535Y186614D03*
X223622Y186614D03*
X230709Y186614D03*
X237795Y186614D03*
X244882Y186614D03*
X251969Y186614D03*
X259055Y186614D03*
X266142Y186614D03*
X273228Y186614D03*
X280315Y186614D03*
X287402Y186614D03*
X294488Y186614D03*
X301575Y186614D03*
X308661Y186614D03*
X315748Y186614D03*
X322835Y186614D03*
X329921Y186614D03*
X337008Y186614D03*
X344094Y186614D03*
X351181Y186614D03*
X358268Y186614D03*
X365354Y186614D03*
X372441Y186614D03*
X379528Y186614D03*
X386614Y186614D03*
X39370Y195276D03*
X46457Y195276D03*
X53543Y195276D03*
X60630Y195276D03*
X67717Y195276D03*
X74803Y195276D03*
X81890Y195276D03*
X88976Y195276D03*
X96063Y195276D03*
X103150Y195276D03*
X110236Y195276D03*
X117323Y195276D03*
X124409Y195276D03*
X131496Y195276D03*
X138583Y195276D03*
X145669Y195276D03*
X152756Y195276D03*
X159843Y195276D03*
X166929Y195276D03*
X174016Y195276D03*
X181102Y195276D03*
X188189Y195276D03*
X195276Y195276D03*
X202362Y195276D03*
X209449Y195276D03*
X216535Y195276D03*
X223622Y195276D03*
X230709Y195276D03*
X237795Y195276D03*
X244882Y195276D03*
X251969Y195276D03*
X259055Y195276D03*
X266142Y195276D03*
X273228Y195276D03*
X280315Y195276D03*
X287402Y195276D03*
X294488Y195276D03*
X301575Y195276D03*
X308661Y195276D03*
X315748Y195276D03*
X322835Y195276D03*
X329921Y195276D03*
X337008Y195276D03*
X344094Y195276D03*
X351181Y195276D03*
X358268Y195276D03*
X365354Y195276D03*
X372441Y195276D03*
X379528Y195276D03*
X386614Y195276D03*
X39370Y203937D03*
X46457Y203937D03*
X53543Y203937D03*
X60630Y203937D03*
X67717Y203937D03*
X74803Y203937D03*
X81890Y203937D03*
X88976Y203937D03*
X96063Y203937D03*
X103150Y203937D03*
X110236Y203937D03*
X117323Y203937D03*
X124409Y203937D03*
X131496Y203937D03*
X138583Y203937D03*
X145669Y203937D03*
X152756Y203937D03*
X159843Y203937D03*
X166929Y203937D03*
X174016Y203937D03*
X181102Y203937D03*
X188189Y203937D03*
X195276Y203937D03*
X202362Y203937D03*
X209449Y203937D03*
X216535Y203937D03*
X223622Y203937D03*
X230709Y203937D03*
X237795Y203937D03*
X244882Y203937D03*
X251969Y203937D03*
X259055Y203937D03*
X266142Y203937D03*
X273228Y203937D03*
X280315Y203937D03*
X287402Y203937D03*
X294488Y203937D03*
X301575Y203937D03*
X308661Y203937D03*
X315748Y203937D03*
X322835Y203937D03*
X329921Y203937D03*
X337008Y203937D03*
X344094Y203937D03*
X351181Y203937D03*
X358268Y203937D03*
X365354Y203937D03*
X372441Y203937D03*
X379528Y203937D03*
X386614Y203937D03*
X39370Y212598D03*
X46457Y212598D03*
X53543Y212598D03*
X60630Y212598D03*
X67717Y212598D03*
X74803Y212598D03*
X81890Y212598D03*
X88976Y212598D03*
X96063Y212598D03*
X103150Y212598D03*
X110236Y212598D03*
X117323Y212598D03*
X124409Y212598D03*
X131496Y212598D03*
X138583Y212598D03*
X145669Y212598D03*
X152756Y212598D03*
X159843Y212598D03*
X166929Y212598D03*
X174016Y212598D03*
X181102Y212598D03*
X188189Y212598D03*
X195276Y212598D03*
X202362Y212598D03*
X209449Y212598D03*
X216535Y212598D03*
X223622Y212598D03*
X230709Y212598D03*
X237795Y212598D03*
X244882Y212598D03*
X251969Y212598D03*
X259055Y212598D03*
X266142Y212598D03*
X273228Y212598D03*
X280315Y212598D03*
X287402Y212598D03*
X294488Y212598D03*
X301575Y212598D03*
X308661Y212598D03*
X315748Y212598D03*
X322835Y212598D03*
X329921Y212598D03*
X337008Y212598D03*
X344094Y212598D03*
X351181Y212598D03*
X358268Y212598D03*
X365354Y212598D03*
X372441Y212598D03*
X379528Y212598D03*
X386614Y212598D03*
X39370Y221260D03*
X46457Y221260D03*
X53543Y221260D03*
X60630Y221260D03*
X67717Y221260D03*
X74803Y221260D03*
X81890Y221260D03*
X88976Y221260D03*
X96063Y221260D03*
X103150Y221260D03*
X110236Y221260D03*
X117323Y221260D03*
X124409Y221260D03*
X131496Y221260D03*
X138583Y221260D03*
X145669Y221260D03*
X152756Y221260D03*
X159843Y221260D03*
X166929Y221260D03*
X174016Y221260D03*
X181102Y221260D03*
X188189Y221260D03*
X195276Y221260D03*
X202362Y221260D03*
X209449Y221260D03*
X216535Y221260D03*
X223622Y221260D03*
X230709Y221260D03*
X237795Y221260D03*
X244882Y221260D03*
X251969Y221260D03*
X259055Y221260D03*
X266142Y221260D03*
X273228Y221260D03*
X280315Y221260D03*
X287402Y221260D03*
X294488Y221260D03*
X301575Y221260D03*
X308661Y221260D03*
X315748Y221260D03*
X322835Y221260D03*
X329921Y221260D03*
X337008Y221260D03*
X344094Y221260D03*
X351181Y221260D03*
X358268Y221260D03*
X365354Y221260D03*
X372441Y221260D03*
X379528Y221260D03*
X386614Y221260D03*
X39370Y229921D03*
X46457Y229921D03*
X53543Y229921D03*
X60630Y229921D03*
X67717Y229921D03*
X74803Y229921D03*
X81890Y229921D03*
X88976Y229921D03*
X96063Y229921D03*
X103150Y229921D03*
X110236Y229921D03*
X117323Y229921D03*
X124409Y229921D03*
X131496Y229921D03*
X138583Y229921D03*
X145669Y229921D03*
X152756Y229921D03*
X159843Y229921D03*
X166929Y229921D03*
X174016Y229921D03*
X181102Y229921D03*
X188189Y229921D03*
X195276Y229921D03*
X202362Y229921D03*
X209449Y229921D03*
X216535Y229921D03*
X223622Y229921D03*
X230709Y229921D03*
X237795Y229921D03*
X244882Y229921D03*
X251969Y229921D03*
X259055Y229921D03*
X266142Y229921D03*
X273228Y229921D03*
X280315Y229921D03*
X287402Y229921D03*
X294488Y229921D03*
X301575Y229921D03*
X308661Y229921D03*
X315748Y229921D03*
X322835Y229921D03*
X329921Y229921D03*
X337008Y229921D03*
X344094Y229921D03*
X351181Y229921D03*
X358268Y229921D03*
X365354Y229921D03*
X372441Y229921D03*
X379528Y229921D03*
X386614Y229921D03*
X39370Y238583D03*
X46457Y238583D03*
X53543Y238583D03*
X60630Y238583D03*
X67717Y238583D03*
X74803Y238583D03*
X81890Y238583D03*
X88976Y238583D03*
X96063Y238583D03*
X103150Y238583D03*
X110236Y238583D03*
X117323Y238583D03*
X124409Y238583D03*
X131496Y238583D03*
X138583Y238583D03*
X145669Y238583D03*
X152756Y238583D03*
X159843Y238583D03*
X166929Y238583D03*
X174016Y238583D03*
X181102Y238583D03*
X188189Y238583D03*
X195276Y238583D03*
X202362Y238583D03*
X209449Y238583D03*
X216535Y238583D03*
X223622Y238583D03*
X230709Y238583D03*
X237795Y238583D03*
X244882Y238583D03*
X251969Y238583D03*
X259055Y238583D03*
X266142Y238583D03*
X273228Y238583D03*
X280315Y238583D03*
X287402Y238583D03*
X294488Y238583D03*
X301575Y238583D03*
X308661Y238583D03*
X315748Y238583D03*
X322835Y238583D03*
X329921Y238583D03*
X337008Y238583D03*
X344094Y238583D03*
X351181Y238583D03*
X358268Y238583D03*
X365354Y238583D03*
X372441Y238583D03*
X379528Y238583D03*
X386614Y238583D03*
X39370Y247244D03*
X46457Y247244D03*
X53543Y247244D03*
X60630Y247244D03*
X67717Y247244D03*
X74803Y247244D03*
X81890Y247244D03*
X88976Y247244D03*
X96063Y247244D03*
X103150Y247244D03*
X110236Y247244D03*
X117323Y247244D03*
X124409Y247244D03*
X131496Y247244D03*
X138583Y247244D03*
X145669Y247244D03*
X152756Y247244D03*
X159843Y247244D03*
X166929Y247244D03*
X174016Y247244D03*
X181102Y247244D03*
X188189Y247244D03*
X195276Y247244D03*
X202362Y247244D03*
X209449Y247244D03*
X216535Y247244D03*
X223622Y247244D03*
X230709Y247244D03*
X237795Y247244D03*
X244882Y247244D03*
X251969Y247244D03*
X259055Y247244D03*
X266142Y247244D03*
X273228Y247244D03*
X280315Y247244D03*
X287402Y247244D03*
X294488Y247244D03*
X301575Y247244D03*
X308661Y247244D03*
X315748Y247244D03*
X322835Y247244D03*
X329921Y247244D03*
X337008Y247244D03*
X344094Y247244D03*
X351181Y247244D03*
X358268Y247244D03*
X365354Y247244D03*
X372441Y247244D03*
X379528Y247244D03*
X386614Y247244D03*
X39370Y255906D03*
X46457Y255906D03*
X53543Y255906D03*
X60630Y255906D03*
X67717Y255906D03*
X74803Y255906D03*
X81890Y255906D03*
X88976Y255906D03*
X96063Y255906D03*
X103150Y255906D03*
X110236Y255906D03*
X117323Y255906D03*
X124409Y255906D03*
X131496Y255906D03*
X138583Y255906D03*
X145669Y255906D03*
X152756Y255906D03*
X159843Y255906D03*
X166929Y255906D03*
X174016Y255906D03*
X181102Y255906D03*
X188189Y255906D03*
X195276Y255906D03*
X202362Y255906D03*
X209449Y255906D03*
X216535Y255906D03*
X223622Y255906D03*
X230709Y255906D03*
X237795Y255906D03*
X244882Y255906D03*
X251969Y255906D03*
X259055Y255906D03*
X266142Y255906D03*
X273228Y255906D03*
X280315Y255906D03*
X287402Y255906D03*
X294488Y255906D03*
X301575Y255906D03*
X308661Y255906D03*
X315748Y255906D03*
X322835Y255906D03*
X329921Y255906D03*
X337008Y255906D03*
X344094Y255906D03*
X351181Y255906D03*
X358268Y255906D03*
X365354Y255906D03*
X372441Y255906D03*
X379528Y255906D03*
X386614Y255906D03*
X39370Y264567D03*
X46457Y264567D03*
X53543Y264567D03*
X60630Y264567D03*
X67717Y264567D03*
X74803Y264567D03*
X81890Y264567D03*
X88976Y264567D03*
X96063Y264567D03*
X103150Y264567D03*
X110236Y264567D03*
X117323Y264567D03*
X124409Y264567D03*
X131496Y264567D03*
X138583Y264567D03*
X145669Y264567D03*
X152756Y264567D03*
X159843Y264567D03*
X166929Y264567D03*
X174016Y264567D03*
X181102Y264567D03*
X188189Y264567D03*
X195276Y264567D03*
X202362Y264567D03*
X209449Y264567D03*
X216535Y264567D03*
X223622Y264567D03*
X230709Y264567D03*
X237795Y264567D03*
X244882Y264567D03*
X251969Y264567D03*
X259055Y264567D03*
X266142Y264567D03*
X273228Y264567D03*
X280315Y264567D03*
X287402Y264567D03*
X294488Y264567D03*
X301575Y264567D03*
X308661Y264567D03*
X315748Y264567D03*
X322835Y264567D03*
X329921Y264567D03*
X337008Y264567D03*
X344094Y264567D03*
X351181Y264567D03*
X358268Y264567D03*
X365354Y264567D03*
X372441Y264567D03*
X379528Y264567D03*
X386614Y264567D03*
X39370Y273228D03*
X46457Y273228D03*
X53543Y273228D03*
X60630Y273228D03*
X67717Y273228D03*
X74803Y273228D03*
X81890Y273228D03*
X88976Y273228D03*
X96063Y273228D03*
X103150Y273228D03*
X110236Y273228D03*
X117323Y273228D03*
X124409Y273228D03*
X131496Y273228D03*
X138583Y273228D03*
X145669Y273228D03*
X152756Y273228D03*
X159843Y273228D03*
X166929Y273228D03*
X174016Y273228D03*
X181102Y273228D03*
X188189Y273228D03*
X195276Y273228D03*
X202362Y273228D03*
X209449Y273228D03*
X216535Y273228D03*
X223622Y273228D03*
X230709Y273228D03*
X237795Y273228D03*
X244882Y273228D03*
X251969Y273228D03*
X259055Y273228D03*
X266142Y273228D03*
X273228Y273228D03*
X280315Y273228D03*
X287402Y273228D03*
X294488Y273228D03*
X301575Y273228D03*
X308661Y273228D03*
X315748Y273228D03*
X322835Y273228D03*
X329921Y273228D03*
X337008Y273228D03*
X344094Y273228D03*
X351181Y273228D03*
X358268Y273228D03*
X365354Y273228D03*
X372441Y273228D03*
X379528Y273228D03*
X386614Y273228D03*
X39370Y281890D03*
X46457Y281890D03*
X53543Y281890D03*
X60630Y281890D03*
X67717Y281890D03*
X74803Y281890D03*
X81890Y281890D03*
X88976Y281890D03*
X96063Y281890D03*
X103150Y281890D03*
X110236Y281890D03*
X117323Y281890D03*
X124409Y281890D03*
X131496Y281890D03*
X138583Y281890D03*
X145669Y281890D03*
X152756Y281890D03*
X159843Y281890D03*
X166929Y281890D03*
X174016Y281890D03*
X181102Y281890D03*
X188189Y281890D03*
X195276Y281890D03*
X202362Y281890D03*
X209449Y281890D03*
X216535Y281890D03*
X223622Y281890D03*
X230709Y281890D03*
X237795Y281890D03*
X244882Y281890D03*
X251969Y281890D03*
X259055Y281890D03*
X266142Y281890D03*
X273228Y281890D03*
X280315Y281890D03*
X287402Y281890D03*
X294488Y281890D03*
X301575Y281890D03*
X308661Y281890D03*
X315748Y281890D03*
X322835Y281890D03*
X329921Y281890D03*
X337008Y281890D03*
X344094Y281890D03*
X351181Y281890D03*
X358268Y281890D03*
X365354Y281890D03*
X372441Y281890D03*
X379528Y281890D03*
X386614Y281890D03*
X39370Y290551D03*
X46457Y290551D03*
X53543Y290551D03*
X60630Y290551D03*
X67717Y290551D03*
X74803Y290551D03*
X81890Y290551D03*
X88976Y290551D03*
X96063Y290551D03*
X103150Y290551D03*
X110236Y290551D03*
X117323Y290551D03*
X124409Y290551D03*
X131496Y290551D03*
X138583Y290551D03*
X145669Y290551D03*
X152756Y290551D03*
X159843Y290551D03*
X166929Y290551D03*
X174016Y290551D03*
X181102Y290551D03*
X188189Y290551D03*
X195276Y290551D03*
X202362Y290551D03*
X209449Y290551D03*
X216535Y290551D03*
X223622Y290551D03*
X230709Y290551D03*
X237795Y290551D03*
X244882Y290551D03*
X251969Y290551D03*
X259055Y290551D03*
X266142Y290551D03*
X273228Y290551D03*
X280315Y290551D03*
X287402Y290551D03*
X294488Y290551D03*
X301575Y290551D03*
X308661Y290551D03*
X315748Y290551D03*
X322835Y290551D03*
X329921Y290551D03*
X337008Y290551D03*
X344094Y290551D03*
X351181Y290551D03*
X358268Y290551D03*
X365354Y290551D03*
X372441Y290551D03*
X379528Y290551D03*
X386614Y290551D03*
X39370Y299213D03*
X46457Y299213D03*
X53543Y299213D03*
X60630Y299213D03*
X67717Y299213D03*
X74803Y299213D03*
X81890Y299213D03*
X88976Y299213D03*
X96063Y299213D03*
X103150Y299213D03*
X110236Y299213D03*
X117323Y299213D03*
X124409Y299213D03*
X131496Y299213D03*
X138583Y299213D03*
X145669Y299213D03*
X152756Y299213D03*
X159843Y299213D03*
X166929Y299213D03*
X174016Y299213D03*
X181102Y299213D03*
X188189Y299213D03*
X195276Y299213D03*
X202362Y299213D03*
X209449Y299213D03*
X216535Y299213D03*
X223622Y299213D03*
X230709Y299213D03*
X237795Y299213D03*
X244882Y299213D03*
X251969Y299213D03*
X259055Y299213D03*
X266142Y299213D03*
X273228Y299213D03*
X280315Y299213D03*
X287402Y299213D03*
X294488Y299213D03*
X301575Y299213D03*
X308661Y299213D03*
X315748Y299213D03*
X322835Y299213D03*
X329921Y299213D03*
X337008Y299213D03*
X344094Y299213D03*
X351181Y299213D03*
X358268Y299213D03*
X365354Y299213D03*
X372441Y299213D03*
X379528Y299213D03*
X386614Y299213D03*
X39370Y307874D03*
X46457Y307874D03*
X53543Y307874D03*
X60630Y307874D03*
X67717Y307874D03*
X74803Y307874D03*
X81890Y307874D03*
X88976Y307874D03*
X96063Y307874D03*
X103150Y307874D03*
X110236Y307874D03*
X117323Y307874D03*
X124409Y307874D03*
X131496Y307874D03*
X138583Y307874D03*
X145669Y307874D03*
X152756Y307874D03*
X159843Y307874D03*
X166929Y307874D03*
X174016Y307874D03*
X181102Y307874D03*
X188189Y307874D03*
X195276Y307874D03*
X202362Y307874D03*
X209449Y307874D03*
X216535Y307874D03*
X223622Y307874D03*
X230709Y307874D03*
X237795Y307874D03*
X244882Y307874D03*
X251969Y307874D03*
X259055Y307874D03*
X266142Y307874D03*
X273228Y307874D03*
X280315Y307874D03*
X287402Y307874D03*
X294488Y307874D03*
X301575Y307874D03*
X308661Y307874D03*
X315748Y307874D03*
X322835Y307874D03*
X329921Y307874D03*
X337008Y307874D03*
X344094Y307874D03*
X351181Y307874D03*
X358268Y307874D03*
X365354Y307874D03*
X372441Y307874D03*
X379528Y307874D03*
X386614Y307874D03*
X39370Y316535D03*
X46457Y316535D03*
X53543Y316535D03*
X60630Y316535D03*
X67717Y316535D03*
X74803Y316535D03*
X81890Y316535D03*
X88976Y316535D03*
X96063Y316535D03*
X103150Y316535D03*
X110236Y316535D03*
X117323Y316535D03*
X124409Y316535D03*
X131496Y316535D03*
X138583Y316535D03*
X145669Y316535D03*
X152756Y316535D03*
X159843Y316535D03*
X166929Y316535D03*
X174016Y316535D03*
X181102Y316535D03*
X188189Y316535D03*
X195276Y316535D03*
X202362Y316535D03*
X209449Y316535D03*
X216535Y316535D03*
X223622Y316535D03*
X230709Y316535D03*
X237795Y316535D03*
X244882Y316535D03*
X251969Y316535D03*
X259055Y316535D03*
X266142Y316535D03*
X273228Y316535D03*
X280315Y316535D03*
X287402Y316535D03*
X294488Y316535D03*
X301575Y316535D03*
X308661Y316535D03*
X315748Y316535D03*
X322835Y316535D03*
X329921Y316535D03*
X337008Y316535D03*
X344094Y316535D03*
X351181Y316535D03*
X358268Y316535D03*
X365354Y316535D03*
X372441Y316535D03*
X379528Y316535D03*
X386614Y316535D03*
X39370Y325197D03*
X46457Y325197D03*
X53543Y325197D03*
X60630Y325197D03*
X67717Y325197D03*
X74803Y325197D03*
X81890Y325197D03*
X88976Y325197D03*
X96063Y325197D03*
X103150Y325197D03*
X110236Y325197D03*
X117323Y325197D03*
X124409Y325197D03*
X131496Y325197D03*
X138583Y325197D03*
X145669Y325197D03*
X152756Y325197D03*
X159843Y325197D03*
X166929Y325197D03*
X174016Y325197D03*
X181102Y325197D03*
X188189Y325197D03*
X195276Y325197D03*
X202362Y325197D03*
X209449Y325197D03*
X216535Y325197D03*
X223622Y325197D03*
X230709Y325197D03*
X237795Y325197D03*
X244882Y325197D03*
X251969Y325197D03*
X259055Y325197D03*
X266142Y325197D03*
X273228Y325197D03*
X280315Y325197D03*
X287402Y325197D03*
X294488Y325197D03*
X301575Y325197D03*
X308661Y325197D03*
X315748Y325197D03*
X322835Y325197D03*
X329921Y325197D03*
X337008Y325197D03*
X344094Y325197D03*
X351181Y325197D03*
X358268Y325197D03*
X365354Y325197D03*
X372441Y325197D03*
X379528Y325197D03*
X386614Y325197D03*
X39370Y333858D03*
X46457Y333858D03*
X53543Y333858D03*
X60630Y333858D03*
X67717Y333858D03*
X74803Y333858D03*
X81890Y333858D03*
X88976Y333858D03*
X96063Y333858D03*
X103150Y333858D03*
X110236Y333858D03*
X117323Y333858D03*
X124409Y333858D03*
X131496Y333858D03*
X138583Y333858D03*
X145669Y333858D03*
X152756Y333858D03*
X159843Y333858D03*
X166929Y333858D03*
X174016Y333858D03*
X181102Y333858D03*
X188189Y333858D03*
X195276Y333858D03*
X202362Y333858D03*
X209449Y333858D03*
X216535Y333858D03*
X223622Y333858D03*
X230709Y333858D03*
X237795Y333858D03*
X244882Y333858D03*
X251969Y333858D03*
X259055Y333858D03*
X266142Y333858D03*
X273228Y333858D03*
X280315Y333858D03*
X287402Y333858D03*
X294488Y333858D03*
X301575Y333858D03*
X308661Y333858D03*
X315748Y333858D03*
X322835Y333858D03*
X329921Y333858D03*
X337008Y333858D03*
X344094Y333858D03*
X351181Y333858D03*
X358268Y333858D03*
X365354Y333858D03*
X372441Y333858D03*
X379528Y333858D03*
X386614Y333858D03*
X39370Y342520D03*
X46457Y342520D03*
X53543Y342520D03*
X60630Y342520D03*
X67717Y342520D03*
X74803Y342520D03*
X81890Y342520D03*
X88976Y342520D03*
X96063Y342520D03*
X103150Y342520D03*
X110236Y342520D03*
X117323Y342520D03*
X124409Y342520D03*
X131496Y342520D03*
X138583Y342520D03*
X145669Y342520D03*
X152756Y342520D03*
X159843Y342520D03*
X166929Y342520D03*
X174016Y342520D03*
X181102Y342520D03*
X188189Y342520D03*
X195276Y342520D03*
X202362Y342520D03*
X209449Y342520D03*
X216535Y342520D03*
X223622Y342520D03*
X230709Y342520D03*
X237795Y342520D03*
X244882Y342520D03*
X251969Y342520D03*
X259055Y342520D03*
X266142Y342520D03*
X273228Y342520D03*
X280315Y342520D03*
X287402Y342520D03*
X294488Y342520D03*
X301575Y342520D03*
X308661Y342520D03*
X315748Y342520D03*
X322835Y342520D03*
X329921Y342520D03*
X337008Y342520D03*
X344094Y342520D03*
X351181Y342520D03*
X358268Y342520D03*
X365354Y342520D03*
X372441Y342520D03*
X379528Y342520D03*
X386614Y342520D03*
X39370Y351181D03*
X46457Y351181D03*
X53543Y351181D03*
X60630Y351181D03*
X67717Y351181D03*
X74803Y351181D03*
X81890Y351181D03*
X88976Y351181D03*
X96063Y351181D03*
X103150Y351181D03*
X110236Y351181D03*
X117323Y351181D03*
X124409Y351181D03*
X131496Y351181D03*
X138583Y351181D03*
X145669Y351181D03*
X152756Y351181D03*
X159843Y351181D03*
X166929Y351181D03*
X174016Y351181D03*
X181102Y351181D03*
X188189Y351181D03*
X195276Y351181D03*
X202362Y351181D03*
X209449Y351181D03*
X216535Y351181D03*
X223622Y351181D03*
X230709Y351181D03*
X237795Y351181D03*
X244882Y351181D03*
X251969Y351181D03*
X259055Y351181D03*
X266142Y351181D03*
X273228Y351181D03*
X280315Y351181D03*
X287402Y351181D03*
X294488Y351181D03*
X301575Y351181D03*
X308661Y351181D03*
X315748Y351181D03*
X322835Y351181D03*
X329921Y351181D03*
X337008Y351181D03*
X344094Y351181D03*
X351181Y351181D03*
X358268Y351181D03*
X365354Y351181D03*
X372441Y351181D03*
X379528Y351181D03*
X386614Y351181D03*
X39370Y359843D03*
X46457Y359843D03*
X53543Y359843D03*
X60630Y359843D03*
X67717Y359843D03*
X74803Y359843D03*
X81890Y359843D03*
X88976Y359843D03*
X96063Y359843D03*
X103150Y359843D03*
X110236Y359843D03*
X117323Y359843D03*
X124409Y359843D03*
X131496Y359843D03*
X138583Y359843D03*
X145669Y359843D03*
X152756Y359843D03*
X159843Y359843D03*
X166929Y359843D03*
X174016Y359843D03*
X181102Y359843D03*
X188189Y359843D03*
X195276Y359843D03*
X202362Y359843D03*
X209449Y359843D03*
X216535Y359843D03*
X223622Y359843D03*
X230709Y359843D03*
X237795Y359843D03*
X244882Y359843D03*
X251969Y359843D03*
X259055Y359843D03*
X266142Y359843D03*
X273228Y359843D03*
X280315Y359843D03*
X287402Y359843D03*
X294488Y359843D03*
X301575Y359843D03*
X308661Y359843D03*
X315748Y359843D03*
X322835Y359843D03*
X329921Y359843D03*
X337008Y359843D03*
X344094Y359843D03*
X351181Y359843D03*
X358268Y359843D03*
X365354Y359843D03*
X372441Y359843D03*
X379528Y359843D03*
X386614Y359843D03*
X39370Y368504D03*
X46457Y368504D03*
X53543Y368504D03*
X60630Y368504D03*
X67717Y368504D03*
X74803Y368504D03*
X81890Y368504D03*
X88976Y368504D03*
X96063Y368504D03*
X103150Y368504D03*
X110236Y368504D03*
X117323Y368504D03*
X124409Y368504D03*
X131496Y368504D03*
X138583Y368504D03*
X145669Y368504D03*
X152756Y368504D03*
X159843Y368504D03*
X166929Y368504D03*
X174016Y368504D03*
X181102Y368504D03*
X188189Y368504D03*
X195276Y368504D03*
X202362Y368504D03*
X209449Y368504D03*
X216535Y368504D03*
X223622Y368504D03*
X230709Y368504D03*
X237795Y368504D03*
X244882Y368504D03*
X251969Y368504D03*
X259055Y368504D03*
X266142Y368504D03*
X273228Y368504D03*
X280315Y368504D03*
X287402Y368504D03*
X294488Y368504D03*
X301575Y368504D03*
X308661Y368504D03*
X315748Y368504D03*
X322835Y368504D03*
X329921Y368504D03*
X337008Y368504D03*
X344094Y368504D03*
X351181Y368504D03*
X358268Y368504D03*
X365354Y368504D03*
X372441Y368504D03*
X379528Y368504D03*
X386614Y368504D03*
X39370Y377165D03*
X46457Y377165D03*
X53543Y377165D03*
X60630Y377165D03*
X67717Y377165D03*
X74803Y377165D03*
X81890Y377165D03*
X88976Y377165D03*
X96063Y377165D03*
X103150Y377165D03*
X110236Y377165D03*
X117323Y377165D03*
X124409Y377165D03*
X131496Y377165D03*
X138583Y377165D03*
X145669Y377165D03*
X152756Y377165D03*
X159843Y377165D03*
X166929Y377165D03*
X174016Y377165D03*
X181102Y377165D03*
X188189Y377165D03*
X195276Y377165D03*
X202362Y377165D03*
X209449Y377165D03*
X216535Y377165D03*
X223622Y377165D03*
X230709Y377165D03*
X237795Y377165D03*
X244882Y377165D03*
X251969Y377165D03*
X259055Y377165D03*
X266142Y377165D03*
X273228Y377165D03*
X280315Y377165D03*
X287402Y377165D03*
X294488Y377165D03*
X301575Y377165D03*
X308661Y377165D03*
X315748Y377165D03*
X322835Y377165D03*
X329921Y377165D03*
X337008Y377165D03*
X344094Y377165D03*
X351181Y377165D03*
X358268Y377165D03*
X365354Y377165D03*
X372441Y377165D03*
X379528Y377165D03*
X386614Y377165D03*
X39370Y385827D03*
X46457Y385827D03*
X53543Y385827D03*
X60630Y385827D03*
X67717Y385827D03*
X74803Y385827D03*
X81890Y385827D03*
X88976Y385827D03*
X96063Y385827D03*
X103150Y385827D03*
X110236Y385827D03*
X117323Y385827D03*
X124409Y385827D03*
X131496Y385827D03*
X138583Y385827D03*
X145669Y385827D03*
X152756Y385827D03*
X159843Y385827D03*
X166929Y385827D03*
X174016Y385827D03*
X181102Y385827D03*
X188189Y385827D03*
X195276Y385827D03*
X202362Y385827D03*
X209449Y385827D03*
X216535Y385827D03*
X223622Y385827D03*
X230709Y385827D03*
X237795Y385827D03*
X244882Y385827D03*
X251969Y385827D03*
X259055Y385827D03*
X266142Y385827D03*
X273228Y385827D03*
X280315Y385827D03*
X287402Y385827D03*
X294488Y385827D03*
X301575Y385827D03*
X308661Y385827D03*
X315748Y385827D03*
X322835Y385827D03*
X329921Y385827D03*
X337008Y385827D03*
X344094Y385827D03*
X351181Y385827D03*
X358268Y385827D03*
X365354Y385827D03*
X372441Y385827D03*
X379528Y385827D03*
X386614Y385827D03*
X39370Y394488D03*
X46457Y394488D03*
X53543Y394488D03*
X60630Y394488D03*
X67717Y394488D03*
X74803Y394488D03*
X81890Y394488D03*
X88976Y394488D03*
X96063Y394488D03*
X103150Y394488D03*
X110236Y394488D03*
X117323Y394488D03*
X124409Y394488D03*
X131496Y394488D03*
X138583Y394488D03*
X145669Y394488D03*
X152756Y394488D03*
X159843Y394488D03*
X166929Y394488D03*
X174016Y394488D03*
X181102Y394488D03*
X188189Y394488D03*
X195276Y394488D03*
X202362Y394488D03*
X209449Y394488D03*
X216535Y394488D03*
X223622Y394488D03*
X230709Y394488D03*
X237795Y394488D03*
X244882Y394488D03*
X251969Y394488D03*
X259055Y394488D03*
X266142Y394488D03*
X273228Y394488D03*
X280315Y394488D03*
X287402Y394488D03*
X294488Y394488D03*
X301575Y394488D03*
X308661Y394488D03*
X315748Y394488D03*
X322835Y394488D03*
X329921Y394488D03*
X337008Y394488D03*
X344094Y394488D03*
X351181Y394488D03*
M02*
