G04 VLSI Layer: Analog Wave Compute (Maxwell Interferometry)*
%FSLAX36Y36*%
%MOMM*%
G75*
G01*
%ADD14C,0.001*%
D14*
X100000Y900000D02*
X110000Y910000D01*
X100000Y909933D02*
X110000Y919933D01*
X100000Y919470D02*
X110000Y929470D01*
X100000Y928232D02*
X110000Y938232D01*
X100000Y935867D02*
X110000Y945867D01*
X100000Y942073D02*
X110000Y952073D01*
X100000Y946601D02*
X110000Y956601D01*
X100000Y949272D02*
X110000Y959272D01*
X100000Y949978D02*
X110000Y959978D01*
X100000Y948692D02*
X110000Y958692D01*
X100000Y945464D02*
X110000Y955464D01*
X100000Y940424D02*
X110000Y950424D01*
X100000Y933773D02*
X110000Y943773D01*
X100000Y925775D02*
X110000Y935775D01*
X100000Y916749D02*
X110000Y926749D01*
X100000Y907056D02*
X110000Y917056D01*
X100000Y897081D02*
X110000Y907081D01*
X100000Y887222D02*
X110000Y897222D01*
X100000Y877873D02*
X110000Y887873D01*
X100000Y869407D02*
X110000Y879407D01*
X100000Y862159D02*
X110000Y872159D01*
X100000Y856421D02*
X110000Y866421D01*
X100000Y852419D02*
X110000Y862419D01*
X100000Y850315D02*
X110000Y860315D01*
X100000Y850191D02*
X110000Y860191D01*
X100000Y852053D02*
X110000Y862053D01*
X100000Y855827D02*
X110000Y865827D01*
X100000Y861361D02*
X110000Y871361D01*
X100000Y868436D02*
X110000Y878436D01*
X100000Y876769D02*
X110000Y886769D01*
X100000Y886029D02*
X110000Y896029D01*
X100000Y895845D02*
X110000Y905845D01*
X100000Y905827D02*
X110000Y915827D01*
X100000Y915577D02*
X110000Y925577D01*
X100000Y924705D02*
X110000Y934705D01*
X100000Y932849D02*
X110000Y942849D01*
X100000Y939683D02*
X110000Y949683D01*
X100000Y944935D02*
X110000Y954935D01*
X100000Y948395D02*
X110000Y958395D01*
X100000Y949927D02*
X110000Y959927D01*
X100000Y949467D02*
X110000Y959467D01*
X100000Y947036D02*
X110000Y957036D01*
X100000Y942729D02*
X110000Y952729D01*
X100000Y936719D02*
X110000Y946719D01*
X100000Y929245D02*
X110000Y939245D01*
X100000Y920605D02*
X110000Y930605D01*
X100000Y911144D02*
X110000Y921144D01*
X100000Y901238D02*
X110000Y911238D01*
X100000Y891283D02*
X110000Y901283D01*
X100000Y881676D02*
X110000Y891676D01*
X140000Y923971D02*
X150000Y933971D01*
X140000Y932210D02*
X150000Y942210D01*
X140000Y939166D02*
X150000Y949166D01*
X140000Y944560D02*
X150000Y954560D01*
X140000Y948177D02*
X150000Y958177D01*
X140000Y949874D02*
X150000Y959874D01*
X140000Y949583D02*
X150000Y959583D01*
X140000Y947315D02*
X150000Y957315D01*
X140000Y943160D02*
X150000Y953160D01*
X140000Y937285D02*
X150000Y947285D01*
X140000Y929923D02*
X150000Y939923D01*
X140000Y921368D02*
X150000Y931368D01*
X140000Y911962D02*
X150000Y921962D01*
X140000Y902079D02*
X150000Y912079D01*
X140000Y892112D02*
X150000Y902112D01*
X140000Y882460D02*
X150000Y892460D01*
X140000Y873508D02*
X150000Y883508D01*
X140000Y865611D02*
X150000Y875611D01*
X140000Y859086D02*
X150000Y869086D01*
X140000Y854191D02*
X150000Y864191D01*
X140000Y851123D02*
X150000Y861123D01*
X140000Y850003D02*
X150000Y860003D01*
X140000Y850877D02*
X150000Y860877D01*
X140000Y853709D02*
X150000Y863709D01*
X140000Y858386D02*
X150000Y868386D01*
X140000Y864722D02*
X150000Y874722D01*
X140000Y872465D02*
X150000Y882465D01*
X140000Y881306D02*
X150000Y891306D01*
X140000Y890891D02*
X150000Y900891D01*
X140000Y900840D02*
X150000Y910840D01*
X140000Y910755D02*
X150000Y920755D01*
X140000Y920242D02*
X150000Y930242D01*
X140000Y928921D02*
X150000Y938921D01*
X140000Y936448D02*
X150000Y946448D01*
X140000Y942521D02*
X150000Y952521D01*
X140000Y946899D02*
X150000Y956899D01*
X140000Y949408D02*
X150000Y959408D01*
X140000Y949947D02*
X150000Y959947D01*
X140000Y948494D02*
X150000Y958494D01*
X140000Y945108D02*
X150000Y955108D01*
X140000Y939924D02*
X150000Y949924D01*
X140000Y933148D02*
X150000Y943148D01*
X140000Y925051D02*
X150000Y935051D01*
X140000Y915954D02*
X150000Y925954D01*
X140000Y906222D02*
X150000Y916222D01*
X140000Y896242D02*
X150000Y906242D01*
X140000Y886411D02*
X150000Y896411D01*
X140000Y877123D02*
X150000Y887123D01*
X140000Y868746D02*
X150000Y878746D01*
X140000Y861615D02*
X150000Y871615D01*
X180000Y942073D02*
X190000Y952073D01*
X180000Y946601D02*
X190000Y956601D01*
X180000Y949272D02*
X190000Y959272D01*
X180000Y949978D02*
X190000Y959978D01*
X180000Y948692D02*
X190000Y958692D01*
X180000Y945464D02*
X190000Y955464D01*
X180000Y940424D02*
X190000Y950424D01*
X180000Y933773D02*
X190000Y943773D01*
X180000Y925775D02*
X190000Y935775D01*
X180000Y916749D02*
X190000Y926749D01*
X180000Y907056D02*
X190000Y917056D01*
X180000Y897081D02*
X190000Y907081D01*
X180000Y887222D02*
X190000Y897222D01*
X180000Y877873D02*
X190000Y887873D01*
X180000Y869407D02*
X190000Y879407D01*
X180000Y862159D02*
X190000Y872159D01*
X180000Y856421D02*
X190000Y866421D01*
X180000Y852419D02*
X190000Y862419D01*
X180000Y850315D02*
X190000Y860315D01*
X180000Y850191D02*
X190000Y860191D01*
X180000Y852053D02*
X190000Y862053D01*
X180000Y855827D02*
X190000Y865827D01*
X180000Y861361D02*
X190000Y871361D01*
X180000Y868436D02*
X190000Y878436D01*
X180000Y876769D02*
X190000Y886769D01*
X180000Y886029D02*
X190000Y896029D01*
X180000Y895845D02*
X190000Y905845D01*
X180000Y905827D02*
X190000Y915827D01*
X180000Y915577D02*
X190000Y925577D01*
X180000Y924705D02*
X190000Y934705D01*
X180000Y932849D02*
X190000Y942849D01*
X180000Y939683D02*
X190000Y949683D01*
X180000Y944935D02*
X190000Y954935D01*
X180000Y948395D02*
X190000Y958395D01*
X180000Y949927D02*
X190000Y959927D01*
X180000Y949467D02*
X190000Y959467D01*
X180000Y947036D02*
X190000Y957036D01*
X180000Y942729D02*
X190000Y952729D01*
X180000Y936719D02*
X190000Y946719D01*
X180000Y929245D02*
X190000Y939245D01*
X180000Y920605D02*
X190000Y930605D01*
X180000Y911144D02*
X190000Y921144D01*
X180000Y901238D02*
X190000Y911238D01*
X180000Y891283D02*
X190000Y901283D01*
X180000Y881676D02*
X190000Y891676D01*
X180000Y872798D02*
X190000Y882798D01*
X180000Y865006D02*
X190000Y875006D01*
X180000Y858608D02*
X190000Y868608D01*
X180000Y853861D02*
X190000Y863861D01*
X180000Y850953D02*
X190000Y860953D01*
X220000Y949874D02*
X230000Y959874D01*
X220000Y949583D02*
X230000Y959583D01*
X220000Y947315D02*
X230000Y957315D01*
X220000Y943160D02*
X230000Y953160D01*
X220000Y937285D02*
X230000Y947285D01*
X220000Y929923D02*
X230000Y939923D01*
X220000Y921368D02*
X230000Y931368D01*
X220000Y911962D02*
X230000Y921962D01*
X220000Y902079D02*
X230000Y912079D01*
X220000Y892112D02*
X230000Y902112D01*
X220000Y882460D02*
X230000Y892460D01*
X220000Y873508D02*
X230000Y883508D01*
X220000Y865611D02*
X230000Y875611D01*
X220000Y859086D02*
X230000Y869086D01*
X220000Y854191D02*
X230000Y864191D01*
X220000Y851123D02*
X230000Y861123D01*
X220000Y850003D02*
X230000Y860003D01*
X220000Y850877D02*
X230000Y860877D01*
X220000Y853709D02*
X230000Y863709D01*
X220000Y858386D02*
X230000Y868386D01*
X220000Y864722D02*
X230000Y874722D01*
X220000Y872465D02*
X230000Y882465D01*
X220000Y881306D02*
X230000Y891306D01*
X220000Y890891D02*
X230000Y900891D01*
X220000Y900840D02*
X230000Y910840D01*
X220000Y910755D02*
X230000Y920755D01*
X220000Y920242D02*
X230000Y930242D01*
X220000Y928921D02*
X230000Y938921D01*
X220000Y936448D02*
X230000Y946448D01*
X220000Y942521D02*
X230000Y952521D01*
X220000Y946899D02*
X230000Y956899D01*
X220000Y949408D02*
X230000Y959408D01*
X220000Y949947D02*
X230000Y959947D01*
X220000Y948494D02*
X230000Y958494D01*
X220000Y945108D02*
X230000Y955108D01*
X220000Y939924D02*
X230000Y949924D01*
X220000Y933148D02*
X230000Y943148D01*
X220000Y925051D02*
X230000Y935051D01*
X220000Y915954D02*
X230000Y925954D01*
X220000Y906222D02*
X230000Y916222D01*
X220000Y896242D02*
X230000Y906242D01*
X220000Y886411D02*
X230000Y896411D01*
X220000Y877123D02*
X230000Y887123D01*
X220000Y868746D02*
X230000Y878746D01*
X220000Y861615D02*
X230000Y871615D01*
X220000Y856015D02*
X230000Y866015D01*
X220000Y852168D02*
X230000Y862168D01*
X220000Y850228D02*
X230000Y860228D01*
X220000Y850272D02*
X230000Y860272D01*
X220000Y852299D02*
X230000Y862299D01*
X260000Y945464D02*
X270000Y955464D01*
X260000Y940424D02*
X270000Y950424D01*
X260000Y933773D02*
X270000Y943773D01*
X260000Y925775D02*
X270000Y935775D01*
X260000Y916749D02*
X270000Y926749D01*
X260000Y907056D02*
X270000Y917056D01*
X260000Y897081D02*
X270000Y907081D01*
X260000Y887222D02*
X270000Y897222D01*
X260000Y877873D02*
X270000Y887873D01*
X260000Y869407D02*
X270000Y879407D01*
X260000Y862159D02*
X270000Y872159D01*
X260000Y856421D02*
X270000Y866421D01*
X260000Y852419D02*
X270000Y862419D01*
X260000Y850315D02*
X270000Y860315D01*
X260000Y850191D02*
X270000Y860191D01*
X260000Y852053D02*
X270000Y862053D01*
X260000Y855827D02*
X270000Y865827D01*
X260000Y861361D02*
X270000Y871361D01*
X260000Y868436D02*
X270000Y878436D01*
X260000Y876769D02*
X270000Y886769D01*
X260000Y886029D02*
X270000Y896029D01*
X260000Y895845D02*
X270000Y905845D01*
X260000Y905827D02*
X270000Y915827D01*
X260000Y915577D02*
X270000Y925577D01*
X260000Y924705D02*
X270000Y934705D01*
X260000Y932849D02*
X270000Y942849D01*
X260000Y939683D02*
X270000Y949683D01*
X260000Y944935D02*
X270000Y954935D01*
X260000Y948395D02*
X270000Y958395D01*
X260000Y949927D02*
X270000Y959927D01*
X260000Y949467D02*
X270000Y959467D01*
X260000Y947036D02*
X270000Y957036D01*
X260000Y942729D02*
X270000Y952729D01*
X260000Y936719D02*
X270000Y946719D01*
X260000Y929245D02*
X270000Y939245D01*
X260000Y920605D02*
X270000Y930605D01*
X260000Y911144D02*
X270000Y921144D01*
X260000Y901238D02*
X270000Y911238D01*
X260000Y891283D02*
X270000Y901283D01*
X260000Y881676D02*
X270000Y891676D01*
X260000Y872798D02*
X270000Y882798D01*
X260000Y865006D02*
X270000Y875006D01*
X260000Y858608D02*
X270000Y868608D01*
X260000Y853861D02*
X270000Y863861D01*
X260000Y850953D02*
X270000Y860953D01*
X260000Y850000D02*
X270000Y860000D01*
X260000Y851041D02*
X270000Y861041D01*
X260000Y854033D02*
X270000Y864033D01*
X260000Y858858D02*
X270000Y868858D01*
X260000Y865323D02*
X270000Y875323D01*
X300000Y929923D02*
X310000Y939923D01*
X300000Y921368D02*
X310000Y931368D01*
X300000Y911962D02*
X310000Y921962D01*
X300000Y902079D02*
X310000Y912079D01*
X300000Y892112D02*
X310000Y902112D01*
X300000Y882460D02*
X310000Y892460D01*
X300000Y873508D02*
X310000Y883508D01*
X300000Y865611D02*
X310000Y875611D01*
X300000Y859086D02*
X310000Y869086D01*
X300000Y854191D02*
X310000Y864191D01*
X300000Y851123D02*
X310000Y861123D01*
X300000Y850003D02*
X310000Y860003D01*
X300000Y850877D02*
X310000Y860877D01*
X300000Y853709D02*
X310000Y863709D01*
X300000Y858386D02*
X310000Y868386D01*
X300000Y864722D02*
X310000Y874722D01*
X300000Y872465D02*
X310000Y882465D01*
X300000Y881306D02*
X310000Y891306D01*
X300000Y890891D02*
X310000Y900891D01*
X300000Y900840D02*
X310000Y910840D01*
X300000Y910755D02*
X310000Y920755D01*
X300000Y920242D02*
X310000Y930242D01*
X300000Y928921D02*
X310000Y938921D01*
X300000Y936448D02*
X310000Y946448D01*
X300000Y942521D02*
X310000Y952521D01*
X300000Y946899D02*
X310000Y956899D01*
X300000Y949408D02*
X310000Y959408D01*
X300000Y949947D02*
X310000Y959947D01*
X300000Y948494D02*
X310000Y958494D01*
X300000Y945108D02*
X310000Y955108D01*
X300000Y939924D02*
X310000Y949924D01*
X300000Y933148D02*
X310000Y943148D01*
X300000Y925051D02*
X310000Y935051D01*
X300000Y915954D02*
X310000Y925954D01*
X300000Y906222D02*
X310000Y916222D01*
X300000Y896242D02*
X310000Y906242D01*
X300000Y886411D02*
X310000Y896411D01*
X300000Y877123D02*
X310000Y887123D01*
X300000Y868746D02*
X310000Y878746D01*
X300000Y861615D02*
X310000Y871615D01*
X300000Y856015D02*
X310000Y866015D01*
X300000Y852168D02*
X310000Y862168D01*
X300000Y850228D02*
X310000Y860228D01*
X300000Y850272D02*
X310000Y860272D01*
X300000Y852299D02*
X310000Y862299D01*
X300000Y856227D02*
X310000Y866227D01*
X300000Y861900D02*
X310000Y871900D01*
X300000Y869093D02*
X310000Y879093D01*
X300000Y877517D02*
X310000Y887517D01*
X300000Y886838D02*
X310000Y896838D01*
X339999Y907056D02*
X350000Y917056D01*
X339999Y897081D02*
X350000Y907081D01*
X339999Y887222D02*
X350000Y897222D01*
X339999Y877873D02*
X350000Y887873D01*
X339999Y869407D02*
X350000Y879407D01*
X339999Y862159D02*
X350000Y872159D01*
X339999Y856421D02*
X350000Y866421D01*
X339999Y852419D02*
X350000Y862419D01*
X339999Y850315D02*
X350000Y860315D01*
X339999Y850191D02*
X350000Y860191D01*
X339999Y852053D02*
X350000Y862053D01*
X339999Y855827D02*
X350000Y865827D01*
X339999Y861361D02*
X350000Y871361D01*
X339999Y868436D02*
X350000Y878436D01*
X339999Y876769D02*
X350000Y886769D01*
X339999Y886029D02*
X350000Y896029D01*
X339999Y895845D02*
X350000Y905845D01*
X339999Y905827D02*
X350000Y915827D01*
X339999Y915577D02*
X350000Y925577D01*
X339999Y924705D02*
X350000Y934705D01*
X339999Y932849D02*
X350000Y942849D01*
X339999Y939683D02*
X350000Y949683D01*
X339999Y944935D02*
X350000Y954935D01*
X339999Y948395D02*
X350000Y958395D01*
X339999Y949927D02*
X350000Y959927D01*
X339999Y949467D02*
X350000Y959467D01*
X339999Y947036D02*
X350000Y957036D01*
X339999Y942729D02*
X350000Y952729D01*
X339999Y936719D02*
X350000Y946719D01*
X339999Y929245D02*
X350000Y939245D01*
X339999Y920605D02*
X350000Y930605D01*
X339999Y911144D02*
X350000Y921144D01*
X339999Y901238D02*
X350000Y911238D01*
X339999Y891283D02*
X350000Y901283D01*
X339999Y881676D02*
X350000Y891676D01*
X339999Y872798D02*
X350000Y882798D01*
X339999Y865006D02*
X350000Y875006D01*
X339999Y858608D02*
X350000Y868608D01*
X339999Y853861D02*
X350000Y863861D01*
X339999Y850953D02*
X350000Y860953D01*
X339999Y850000D02*
X350000Y860000D01*
X339999Y851041D02*
X350000Y861041D01*
X339999Y854033D02*
X350000Y864033D01*
X339999Y858858D02*
X350000Y868858D01*
X339999Y865323D02*
X350000Y875323D01*
X339999Y873171D02*
X350000Y883171D01*
X339999Y882088D02*
X350000Y892088D01*
X339999Y891719D02*
X350000Y901719D01*
X339999Y901681D02*
X350000Y911681D01*
X339999Y911575D02*
X350000Y921575D01*
X380000Y882460D02*
X390000Y892460D01*
X380000Y873508D02*
X390000Y883508D01*
X380000Y865611D02*
X390000Y875611D01*
X380000Y859086D02*
X390000Y869086D01*
X380000Y854191D02*
X390000Y864191D01*
X380000Y851123D02*
X390000Y861123D01*
X380000Y850003D02*
X390000Y860003D01*
X380000Y850877D02*
X390000Y860877D01*
X380000Y853709D02*
X390000Y863709D01*
X380000Y858386D02*
X390000Y868386D01*
X380000Y864722D02*
X390000Y874722D01*
X380000Y872465D02*
X390000Y882465D01*
X380000Y881306D02*
X390000Y891306D01*
X380000Y890891D02*
X390000Y900891D01*
X380000Y900840D02*
X390000Y910840D01*
X380000Y910755D02*
X390000Y920755D01*
X380000Y920242D02*
X390000Y930242D01*
X380000Y928921D02*
X390000Y938921D01*
X380000Y936448D02*
X390000Y946448D01*
X380000Y942521D02*
X390000Y952521D01*
X380000Y946899D02*
X390000Y956899D01*
X380000Y949408D02*
X390000Y959408D01*
X380000Y949947D02*
X390000Y959947D01*
X380000Y948494D02*
X390000Y958494D01*
X380000Y945108D02*
X390000Y955108D01*
X380000Y939924D02*
X390000Y949924D01*
X380000Y933148D02*
X390000Y943148D01*
X380000Y925051D02*
X390000Y935051D01*
X380000Y915954D02*
X390000Y925954D01*
X380000Y906222D02*
X390000Y916222D01*
X380000Y896242D02*
X390000Y906242D01*
X380000Y886411D02*
X390000Y896411D01*
X380000Y877123D02*
X390000Y887123D01*
X380000Y868746D02*
X390000Y878746D01*
X380000Y861615D02*
X390000Y871615D01*
X380000Y856015D02*
X390000Y866015D01*
X380000Y852168D02*
X390000Y862168D01*
X380000Y850228D02*
X390000Y860228D01*
X380000Y850272D02*
X390000Y860272D01*
X380000Y852299D02*
X390000Y862299D01*
X380000Y856227D02*
X390000Y866227D01*
X380000Y861900D02*
X390000Y871900D01*
X380000Y869093D02*
X390000Y879093D01*
X380000Y877517D02*
X390000Y887517D01*
X380000Y886838D02*
X390000Y896838D01*
X380000Y896683D02*
X390000Y906683D01*
X380000Y906661D02*
X390000Y916661D01*
X380000Y916373D02*
X390000Y926373D01*
X380000Y925433D02*
X390000Y935433D01*
X380000Y933478D02*
X390000Y943478D01*
X420000Y862159D02*
X430000Y872159D01*
X420000Y856421D02*
X430000Y866421D01*
X420000Y852419D02*
X430000Y862419D01*
X420000Y850315D02*
X430000Y860315D01*
X420000Y850191D02*
X430000Y860191D01*
X420000Y852053D02*
X430000Y862053D01*
X420000Y855827D02*
X430000Y865827D01*
X420000Y861361D02*
X430000Y871361D01*
X420000Y868436D02*
X430000Y878436D01*
X420000Y876769D02*
X430000Y886769D01*
X420000Y886029D02*
X430000Y896029D01*
X420000Y895845D02*
X430000Y905845D01*
X420000Y905827D02*
X430000Y915827D01*
X420000Y915577D02*
X430000Y925577D01*
X420000Y924705D02*
X430000Y934705D01*
X420000Y932849D02*
X430000Y942849D01*
X420000Y939683D02*
X430000Y949683D01*
X420000Y944935D02*
X430000Y954935D01*
X420000Y948395D02*
X430000Y958395D01*
X420000Y949927D02*
X430000Y959927D01*
X420000Y949467D02*
X430000Y959467D01*
X420000Y947036D02*
X430000Y957036D01*
X420000Y942729D02*
X430000Y952729D01*
X420000Y936719D02*
X430000Y946719D01*
X420000Y929245D02*
X430000Y939245D01*
X420000Y920605D02*
X430000Y930605D01*
X420000Y911144D02*
X430000Y921144D01*
X420000Y901238D02*
X430000Y911238D01*
X420000Y891283D02*
X430000Y901283D01*
X420000Y881676D02*
X430000Y891676D01*
X420000Y872798D02*
X430000Y882798D01*
X420000Y865006D02*
X430000Y875006D01*
X420000Y858608D02*
X430000Y868608D01*
X420000Y853861D02*
X430000Y863861D01*
X420000Y850953D02*
X430000Y860953D01*
X420000Y850000D02*
X430000Y860000D01*
X420000Y851041D02*
X430000Y861041D01*
X420000Y854033D02*
X430000Y864033D01*
X420000Y858858D02*
X430000Y868858D01*
X420000Y865323D02*
X430000Y875323D01*
X420000Y873171D02*
X430000Y883171D01*
X420000Y882088D02*
X430000Y892088D01*
X420000Y891719D02*
X430000Y901719D01*
X420000Y901681D02*
X430000Y911681D01*
X420000Y911575D02*
X430000Y921575D01*
X420000Y921008D02*
X430000Y931008D01*
X420000Y929603D02*
X430000Y939603D01*
X420000Y937018D02*
X430000Y947018D01*
X420000Y942958D02*
X430000Y952958D01*
X420000Y947184D02*
X430000Y957184D01*
X459999Y851123D02*
X470000Y861123D01*
X459999Y850003D02*
X470000Y860003D01*
X459999Y850877D02*
X470000Y860877D01*
X459999Y853709D02*
X470000Y863709D01*
X459999Y858386D02*
X470000Y868386D01*
X459999Y864722D02*
X470000Y874722D01*
X459999Y872465D02*
X470000Y882465D01*
X459999Y881306D02*
X470000Y891306D01*
X459999Y890891D02*
X470000Y900891D01*
X459999Y900840D02*
X470000Y910840D01*
X459999Y910755D02*
X470000Y920755D01*
X459999Y920242D02*
X470000Y930242D01*
X459999Y928921D02*
X470000Y938921D01*
X459999Y936448D02*
X470000Y946448D01*
X459999Y942521D02*
X470000Y952521D01*
X459999Y946899D02*
X470000Y956899D01*
X459999Y949408D02*
X470000Y959408D01*
X459999Y949947D02*
X470000Y959947D01*
X459999Y948494D02*
X470000Y958494D01*
X459999Y945108D02*
X470000Y955108D01*
X459999Y939924D02*
X470000Y949924D01*
X459999Y933148D02*
X470000Y943148D01*
X459999Y925051D02*
X470000Y935051D01*
X459999Y915954D02*
X470000Y925954D01*
X459999Y906222D02*
X470000Y916222D01*
X459999Y896242D02*
X470000Y906242D01*
X459999Y886411D02*
X470000Y896411D01*
X459999Y877123D02*
X470000Y887123D01*
X459999Y868746D02*
X470000Y878746D01*
X459999Y861615D02*
X470000Y871615D01*
X459999Y856015D02*
X470000Y866015D01*
X459999Y852168D02*
X470000Y862168D01*
X459999Y850228D02*
X470000Y860228D01*
X459999Y850272D02*
X470000Y860272D01*
X459999Y852299D02*
X470000Y862299D01*
X459999Y856227D02*
X470000Y866227D01*
X459999Y861900D02*
X470000Y871900D01*
X459999Y869093D02*
X470000Y879093D01*
X459999Y877517D02*
X470000Y887517D01*
X459999Y886838D02*
X470000Y896838D01*
X459999Y896683D02*
X470000Y906683D01*
X459999Y906661D02*
X470000Y916661D01*
X459999Y916373D02*
X470000Y926373D01*
X459999Y925433D02*
X470000Y935433D01*
X459999Y933478D02*
X470000Y943478D01*
X459999Y940189D02*
X470000Y950189D01*
X459999Y945297D02*
X470000Y955297D01*
X459999Y948600D02*
X470000Y958600D01*
X459999Y949965D02*
X470000Y959965D01*
X459999Y949338D02*
X470000Y959338D01*
X500000Y852053D02*
X510000Y862053D01*
X500000Y855827D02*
X510000Y865827D01*
X500000Y861361D02*
X510000Y871361D01*
X500000Y868436D02*
X510000Y878436D01*
X500000Y876769D02*
X510000Y886769D01*
X500000Y886029D02*
X510000Y896029D01*
X500000Y895845D02*
X510000Y905845D01*
X500000Y905827D02*
X510000Y915827D01*
X500000Y915577D02*
X510000Y925577D01*
X500000Y924705D02*
X510000Y934705D01*
X500000Y932849D02*
X510000Y942849D01*
X500000Y939683D02*
X510000Y949683D01*
X500000Y944935D02*
X510000Y954935D01*
X500000Y948395D02*
X510000Y958395D01*
X500000Y949927D02*
X510000Y959927D01*
X500000Y949467D02*
X510000Y959467D01*
X500000Y947036D02*
X510000Y957036D01*
X500000Y942729D02*
X510000Y952729D01*
X500000Y936719D02*
X510000Y946719D01*
X500000Y929245D02*
X510000Y939245D01*
X500000Y920605D02*
X510000Y930605D01*
X500000Y911144D02*
X510000Y921144D01*
X500000Y901238D02*
X510000Y911238D01*
X500000Y891283D02*
X510000Y901283D01*
X500000Y881676D02*
X510000Y891676D01*
X500000Y872798D02*
X510000Y882798D01*
X500000Y865006D02*
X510000Y875006D01*
X500000Y858608D02*
X510000Y868608D01*
X500000Y853861D02*
X510000Y863861D01*
X500000Y850953D02*
X510000Y860953D01*
X500000Y850000D02*
X510000Y860000D01*
X500000Y851041D02*
X510000Y861041D01*
X500000Y854033D02*
X510000Y864033D01*
X500000Y858858D02*
X510000Y868858D01*
X500000Y865323D02*
X510000Y875323D01*
X500000Y873171D02*
X510000Y883171D01*
X500000Y882088D02*
X510000Y892088D01*
X500000Y891719D02*
X510000Y901719D01*
X500000Y901681D02*
X510000Y911681D01*
X500000Y911575D02*
X510000Y921575D01*
X500000Y921008D02*
X510000Y931008D01*
X500000Y929603D02*
X510000Y939603D01*
X500000Y937018D02*
X510000Y947018D01*
X500000Y942958D02*
X510000Y952958D01*
X500000Y947184D02*
X510000Y957184D01*
X500000Y949530D02*
X510000Y959530D01*
X500000Y949901D02*
X510000Y959901D01*
X500000Y948282D02*
X510000Y958282D01*
X500000Y944739D02*
X510000Y954739D01*
X500000Y939412D02*
X510000Y949412D01*
X540000Y864722D02*
X550000Y874722D01*
X540000Y872465D02*
X550000Y882465D01*
X540000Y881306D02*
X550000Y891306D01*
X540000Y890891D02*
X550000Y900891D01*
X540000Y900840D02*
X550000Y910840D01*
X540000Y910755D02*
X550000Y920755D01*
X540000Y920242D02*
X550000Y930242D01*
X540000Y928921D02*
X550000Y938921D01*
X540000Y936448D02*
X550000Y946448D01*
X540000Y942521D02*
X550000Y952521D01*
X540000Y946899D02*
X550000Y956899D01*
X540000Y949408D02*
X550000Y959408D01*
X540000Y949947D02*
X550000Y959947D01*
X540000Y948494D02*
X550000Y958494D01*
X540000Y945108D02*
X550000Y955108D01*
X540000Y939924D02*
X550000Y949924D01*
X540000Y933148D02*
X550000Y943148D01*
X540000Y925051D02*
X550000Y935051D01*
X540000Y915954D02*
X550000Y925954D01*
X540000Y906222D02*
X550000Y916222D01*
X540000Y896242D02*
X550000Y906242D01*
X540000Y886411D02*
X550000Y896411D01*
X540000Y877123D02*
X550000Y887123D01*
X540000Y868746D02*
X550000Y878746D01*
X540000Y861615D02*
X550000Y871615D01*
X540000Y856015D02*
X550000Y866015D01*
X540000Y852168D02*
X550000Y862168D01*
X540000Y850228D02*
X550000Y860228D01*
X540000Y850272D02*
X550000Y860272D01*
X540000Y852299D02*
X550000Y862299D01*
X540000Y856227D02*
X550000Y866227D01*
X540000Y861900D02*
X550000Y871900D01*
X540000Y869093D02*
X550000Y879093D01*
X540000Y877517D02*
X550000Y887517D01*
X540000Y886838D02*
X550000Y896838D01*
X540000Y896683D02*
X550000Y906683D01*
X540000Y906661D02*
X550000Y916661D01*
X540000Y916373D02*
X550000Y926373D01*
X540000Y925433D02*
X550000Y935433D01*
X540000Y933478D02*
X550000Y943478D01*
X540000Y940189D02*
X550000Y950189D01*
X540000Y945297D02*
X550000Y955297D01*
X540000Y948600D02*
X550000Y958600D01*
X540000Y949965D02*
X550000Y959965D01*
X540000Y949338D02*
X550000Y959338D01*
X540000Y946744D02*
X550000Y956744D01*
X540000Y942287D02*
X550000Y952287D01*
X540000Y936144D02*
X550000Y946144D01*
X540000Y928559D02*
X550000Y938559D01*
X540000Y919837D02*
X550000Y929837D01*
X580000Y886029D02*
X590000Y896029D01*
X580000Y895845D02*
X590000Y905845D01*
X580000Y905827D02*
X590000Y915827D01*
X580000Y915577D02*
X590000Y925577D01*
X580000Y924705D02*
X590000Y934705D01*
X580000Y932849D02*
X590000Y942849D01*
X580000Y939683D02*
X590000Y949683D01*
X580000Y944935D02*
X590000Y954935D01*
X580000Y948395D02*
X590000Y958395D01*
X580000Y949927D02*
X590000Y959927D01*
X580000Y949467D02*
X590000Y959467D01*
X580000Y947036D02*
X590000Y957036D01*
X580000Y942729D02*
X590000Y952729D01*
X580000Y936719D02*
X590000Y946719D01*
X580000Y929245D02*
X590000Y939245D01*
X580000Y920605D02*
X590000Y930605D01*
X580000Y911144D02*
X590000Y921144D01*
X580000Y901238D02*
X590000Y911238D01*
X580000Y891283D02*
X590000Y901283D01*
X580000Y881676D02*
X590000Y891676D01*
X580000Y872798D02*
X590000Y882798D01*
X580000Y865006D02*
X590000Y875006D01*
X580000Y858608D02*
X590000Y868608D01*
X580000Y853861D02*
X590000Y863861D01*
X580000Y850953D02*
X590000Y860953D01*
X580000Y850000D02*
X590000Y860000D01*
X580000Y851041D02*
X590000Y861041D01*
X580000Y854033D02*
X590000Y864033D01*
X580000Y858858D02*
X590000Y868858D01*
X580000Y865323D02*
X590000Y875323D01*
X580000Y873171D02*
X590000Y883171D01*
X580000Y882088D02*
X590000Y892088D01*
X580000Y891719D02*
X590000Y901719D01*
X580000Y901681D02*
X590000Y911681D01*
X580000Y911575D02*
X590000Y921575D01*
X580000Y921008D02*
X590000Y931008D01*
X580000Y929603D02*
X590000Y939603D01*
X580000Y937018D02*
X590000Y947018D01*
X580000Y942958D02*
X590000Y952958D01*
X580000Y947184D02*
X590000Y957184D01*
X580000Y949530D02*
X590000Y959530D01*
X580000Y949901D02*
X590000Y959901D01*
X580000Y948282D02*
X590000Y958282D01*
X580000Y944739D02*
X590000Y954739D01*
X580000Y939412D02*
X590000Y949412D01*
X580000Y932514D02*
X590000Y942514D01*
X580000Y924319D02*
X590000Y934319D01*
X580000Y915155D02*
X590000Y925155D01*
X580000Y905387D02*
X590000Y915387D01*
X580000Y895404D02*
X590000Y905404D01*
X620000Y910755D02*
X630000Y920755D01*
X620000Y920242D02*
X630000Y930242D01*
X620000Y928921D02*
X630000Y938921D01*
X620000Y936448D02*
X630000Y946448D01*
X620000Y942521D02*
X630000Y952521D01*
X620000Y946899D02*
X630000Y956899D01*
X620000Y949408D02*
X630000Y959408D01*
X620000Y949947D02*
X630000Y959947D01*
X620000Y948494D02*
X630000Y958494D01*
X620000Y945108D02*
X630000Y955108D01*
X620000Y939924D02*
X630000Y949924D01*
X620000Y933148D02*
X630000Y943148D01*
X620000Y925051D02*
X630000Y935051D01*
X620000Y915954D02*
X630000Y925954D01*
X620000Y906222D02*
X630000Y916222D01*
X620000Y896242D02*
X630000Y906242D01*
X620000Y886411D02*
X630000Y896411D01*
X620000Y877123D02*
X630000Y887123D01*
X620000Y868746D02*
X630000Y878746D01*
X620000Y861615D02*
X630000Y871615D01*
X620000Y856015D02*
X630000Y866015D01*
X620000Y852168D02*
X630000Y862168D01*
X620000Y850228D02*
X630000Y860228D01*
X620000Y850272D02*
X630000Y860272D01*
X620000Y852299D02*
X630000Y862299D01*
X620000Y856227D02*
X630000Y866227D01*
X620000Y861900D02*
X630000Y871900D01*
X620000Y869093D02*
X630000Y879093D01*
X620000Y877517D02*
X630000Y887517D01*
X620000Y886838D02*
X630000Y896838D01*
X620000Y896683D02*
X630000Y906683D01*
X620000Y906661D02*
X630000Y916661D01*
X620000Y916373D02*
X630000Y926373D01*
X620000Y925433D02*
X630000Y935433D01*
X620000Y933478D02*
X630000Y943478D01*
X620000Y940189D02*
X630000Y950189D01*
X620000Y945297D02*
X630000Y955297D01*
X620000Y948600D02*
X630000Y958600D01*
X620000Y949965D02*
X630000Y959965D01*
X620000Y949338D02*
X630000Y959338D01*
X620000Y946744D02*
X630000Y956744D01*
X620000Y942287D02*
X630000Y952287D01*
X620000Y936144D02*
X630000Y946144D01*
X620000Y928559D02*
X630000Y938559D01*
X620000Y919837D02*
X630000Y929837D01*
X620000Y910323D02*
X630000Y920323D01*
X620000Y900398D02*
X630000Y910398D01*
X620000Y890457D02*
X630000Y900457D01*
X620000Y880896D02*
X630000Y890896D01*
X620000Y872097D02*
X630000Y882097D01*
X660000Y932849D02*
X670000Y942849D01*
X660000Y939683D02*
X670000Y949683D01*
X660000Y944935D02*
X670000Y954935D01*
X660000Y948395D02*
X670000Y958395D01*
X660000Y949927D02*
X670000Y959927D01*
X660000Y949467D02*
X670000Y959467D01*
X660000Y947036D02*
X670000Y957036D01*
X660000Y942729D02*
X670000Y952729D01*
X660000Y936719D02*
X670000Y946719D01*
X660000Y929245D02*
X670000Y939245D01*
X660000Y920605D02*
X670000Y930605D01*
X660000Y911144D02*
X670000Y921144D01*
X660000Y901238D02*
X670000Y911238D01*
X660000Y891283D02*
X670000Y901283D01*
X660000Y881676D02*
X670000Y891676D01*
X660000Y872798D02*
X670000Y882798D01*
X660000Y865006D02*
X670000Y875006D01*
X660000Y858608D02*
X670000Y868608D01*
X660000Y853861D02*
X670000Y863861D01*
X660000Y850953D02*
X670000Y860953D01*
X660000Y850000D02*
X670000Y860000D01*
X660000Y851041D02*
X670000Y861041D01*
X660000Y854033D02*
X670000Y864033D01*
X660000Y858858D02*
X670000Y868858D01*
X660000Y865323D02*
X670000Y875323D01*
X660000Y873171D02*
X670000Y883171D01*
X660000Y882088D02*
X670000Y892088D01*
X660000Y891719D02*
X670000Y901719D01*
X660000Y901681D02*
X670000Y911681D01*
X660000Y911575D02*
X670000Y921575D01*
X660000Y921008D02*
X670000Y931008D01*
X660000Y929603D02*
X670000Y939603D01*
X660000Y937018D02*
X670000Y947018D01*
X660000Y942958D02*
X670000Y952958D01*
X660000Y947184D02*
X670000Y957184D01*
X660000Y949530D02*
X670000Y959530D01*
X660000Y949901D02*
X670000Y959901D01*
X660000Y948282D02*
X670000Y958282D01*
X660000Y944739D02*
X670000Y954739D01*
X660000Y939412D02*
X670000Y949412D01*
X660000Y932514D02*
X670000Y942514D01*
X660000Y924319D02*
X670000Y934319D01*
X660000Y915155D02*
X670000Y925155D01*
X660000Y905387D02*
X670000Y915387D01*
X660000Y895404D02*
X670000Y905404D01*
X660000Y885604D02*
X670000Y895604D01*
X660000Y876378D02*
X670000Y886378D01*
X660000Y868094D02*
X670000Y878094D01*
X660000Y861082D02*
X670000Y871082D01*
X660000Y855621D02*
X670000Y865621D01*
X700000Y946899D02*
X710000Y956899D01*
X700000Y949408D02*
X710000Y959408D01*
X700000Y949947D02*
X710000Y959947D01*
X700000Y948494D02*
X710000Y958494D01*
X700000Y945108D02*
X710000Y955108D01*
X700000Y939924D02*
X710000Y949924D01*
X700000Y933148D02*
X710000Y943148D01*
X700000Y925051D02*
X710000Y935051D01*
X700000Y915954D02*
X710000Y925954D01*
X700000Y906222D02*
X710000Y916222D01*
X700000Y896242D02*
X710000Y906242D01*
X700000Y886411D02*
X710000Y896411D01*
X700000Y877123D02*
X710000Y887123D01*
X700000Y868746D02*
X710000Y878746D01*
X700000Y861615D02*
X710000Y871615D01*
X700000Y856015D02*
X710000Y866015D01*
X700000Y852168D02*
X710000Y862168D01*
X700000Y850228D02*
X710000Y860228D01*
X700000Y850272D02*
X710000Y860272D01*
X700000Y852299D02*
X710000Y862299D01*
X700000Y856227D02*
X710000Y866227D01*
X700000Y861900D02*
X710000Y871900D01*
X700000Y869093D02*
X710000Y879093D01*
X700000Y877517D02*
X710000Y887517D01*
X700000Y886838D02*
X710000Y896838D01*
X700000Y896683D02*
X710000Y906683D01*
X700000Y906661D02*
X710000Y916661D01*
X700000Y916373D02*
X710000Y926373D01*
X700000Y925433D02*
X710000Y935433D01*
X700000Y933478D02*
X710000Y943478D01*
X700000Y940189D02*
X710000Y950189D01*
X700000Y945297D02*
X710000Y955297D01*
X700000Y948600D02*
X710000Y958600D01*
X700000Y949965D02*
X710000Y959965D01*
X700000Y949338D02*
X710000Y959338D01*
X700000Y946744D02*
X710000Y956744D01*
X700000Y942287D02*
X710000Y952287D01*
X700000Y936144D02*
X710000Y946144D01*
X700000Y928559D02*
X710000Y938559D01*
X700000Y919837D02*
X710000Y929837D01*
X700000Y910323D02*
X710000Y920323D01*
X700000Y900398D02*
X710000Y910398D01*
X700000Y890457D02*
X710000Y900457D01*
X700000Y880896D02*
X710000Y890896D01*
X700000Y872097D02*
X710000Y882097D01*
X700000Y864410D02*
X710000Y874410D01*
X700000Y858142D02*
X710000Y868142D01*
X700000Y853543D02*
X710000Y863543D01*
X700000Y850796D02*
X710000Y860796D01*
X700000Y850011D02*
X710000Y860011D01*
X740000Y949467D02*
X750000Y959467D01*
X740000Y947036D02*
X750000Y957036D01*
X740000Y942729D02*
X750000Y952729D01*
X740000Y936719D02*
X750000Y946719D01*
X740000Y929245D02*
X750000Y939245D01*
X740000Y920605D02*
X750000Y930605D01*
X740000Y911144D02*
X750000Y921144D01*
X740000Y901238D02*
X750000Y911238D01*
X740000Y891283D02*
X750000Y901283D01*
X740000Y881676D02*
X750000Y891676D01*
X740000Y872798D02*
X750000Y882798D01*
X740000Y865006D02*
X750000Y875006D01*
X740000Y858608D02*
X750000Y868608D01*
X740000Y853861D02*
X750000Y863861D01*
X740000Y850953D02*
X750000Y860953D01*
X740000Y850000D02*
X750000Y860000D01*
X740000Y851041D02*
X750000Y861041D01*
X740000Y854033D02*
X750000Y864033D01*
X740000Y858858D02*
X750000Y868858D01*
X740000Y865323D02*
X750000Y875323D01*
X740000Y873171D02*
X750000Y883171D01*
X740000Y882088D02*
X750000Y892088D01*
X740000Y891719D02*
X750000Y901719D01*
X740000Y901681D02*
X750000Y911681D01*
X740000Y911575D02*
X750000Y921575D01*
X740000Y921008D02*
X750000Y931008D01*
X740000Y929603D02*
X750000Y939603D01*
X740000Y937018D02*
X750000Y947018D01*
X740000Y942958D02*
X750000Y952958D01*
X740000Y947184D02*
X750000Y957184D01*
X740000Y949530D02*
X750000Y959530D01*
X740000Y949901D02*
X750000Y959901D01*
X740000Y948282D02*
X750000Y958282D01*
X740000Y944739D02*
X750000Y954739D01*
X740000Y939412D02*
X750000Y949412D01*
X740000Y932514D02*
X750000Y942514D01*
X740000Y924319D02*
X750000Y934319D01*
X740000Y915155D02*
X750000Y925155D01*
X740000Y905387D02*
X750000Y915387D01*
X740000Y895404D02*
X750000Y905404D01*
X740000Y885604D02*
X750000Y895604D01*
X740000Y876378D02*
X750000Y886378D01*
X740000Y868094D02*
X750000Y878094D01*
X740000Y861082D02*
X750000Y871082D01*
X740000Y855621D02*
X750000Y865621D01*
X740000Y851930D02*
X750000Y861930D01*
X740000Y850154D02*
X750000Y860154D01*
X740000Y850367D02*
X750000Y860367D01*
X740000Y852557D02*
X750000Y862557D01*
X740000Y856639D02*
X750000Y866639D01*
X780000Y939924D02*
X790000Y949924D01*
X780000Y933148D02*
X790000Y943148D01*
X780000Y925051D02*
X790000Y935051D01*
X780000Y915954D02*
X790000Y925954D01*
X780000Y906222D02*
X790000Y916222D01*
X780000Y896242D02*
X790000Y906242D01*
X780000Y886411D02*
X790000Y896411D01*
X780000Y877123D02*
X790000Y887123D01*
X780000Y868746D02*
X790000Y878746D01*
X780000Y861615D02*
X790000Y871615D01*
X780000Y856015D02*
X790000Y866015D01*
X780000Y852168D02*
X790000Y862168D01*
X780000Y850228D02*
X790000Y860228D01*
X780000Y850272D02*
X790000Y860272D01*
X780000Y852299D02*
X790000Y862299D01*
X780000Y856227D02*
X790000Y866227D01*
X780000Y861900D02*
X790000Y871900D01*
X780000Y869093D02*
X790000Y879093D01*
X780000Y877517D02*
X790000Y887517D01*
X780000Y886838D02*
X790000Y896838D01*
X780000Y896683D02*
X790000Y906683D01*
X780000Y906661D02*
X790000Y916661D01*
X780000Y916373D02*
X790000Y926373D01*
X780000Y925433D02*
X790000Y935433D01*
X780000Y933478D02*
X790000Y943478D01*
X780000Y940189D02*
X790000Y950189D01*
X780000Y945297D02*
X790000Y955297D01*
X780000Y948600D02*
X790000Y958600D01*
X780000Y949965D02*
X790000Y959965D01*
X780000Y949338D02*
X790000Y959338D01*
X780000Y946744D02*
X790000Y956744D01*
X780000Y942287D02*
X790000Y952287D01*
X780000Y936144D02*
X790000Y946144D01*
X780000Y928559D02*
X790000Y938559D01*
X780000Y919837D02*
X790000Y929837D01*
X780000Y910323D02*
X790000Y920323D01*
X780000Y900398D02*
X790000Y910398D01*
X780000Y890457D02*
X790000Y900457D01*
X780000Y880896D02*
X790000Y890896D01*
X780000Y872097D02*
X790000Y882097D01*
X780000Y864410D02*
X790000Y874410D01*
X780000Y858142D02*
X790000Y868142D01*
X780000Y853543D02*
X790000Y863543D01*
X780000Y850796D02*
X790000Y860796D01*
X780000Y850011D02*
X790000Y860011D01*
X780000Y851218D02*
X790000Y861218D01*
X780000Y854370D02*
X790000Y864370D01*
X780000Y859342D02*
X790000Y869342D01*
X780000Y865934D02*
X790000Y875934D01*
X780000Y873884D02*
X790000Y883884D01*
X820000Y920605D02*
X830000Y930605D01*
X820000Y911144D02*
X830000Y921144D01*
X820000Y901238D02*
X830000Y911238D01*
X820000Y891283D02*
X830000Y901283D01*
X820000Y881676D02*
X830000Y891676D01*
X820000Y872798D02*
X830000Y882798D01*
X820000Y865006D02*
X830000Y875006D01*
X820000Y858608D02*
X830000Y868608D01*
X820000Y853861D02*
X830000Y863861D01*
X820000Y850953D02*
X830000Y860953D01*
X820000Y850000D02*
X830000Y860000D01*
X820000Y851041D02*
X830000Y861041D01*
X820000Y854033D02*
X830000Y864033D01*
X820000Y858858D02*
X830000Y868858D01*
X820000Y865323D02*
X830000Y875323D01*
X820000Y873171D02*
X830000Y883171D01*
X820000Y882088D02*
X830000Y892088D01*
X820000Y891719D02*
X830000Y901719D01*
X820000Y901681D02*
X830000Y911681D01*
X820000Y911575D02*
X830000Y921575D01*
X820000Y921008D02*
X830000Y931008D01*
X820000Y929603D02*
X830000Y939603D01*
X820000Y937018D02*
X830000Y947018D01*
X820000Y942958D02*
X830000Y952958D01*
X820000Y947184D02*
X830000Y957184D01*
X820000Y949530D02*
X830000Y959530D01*
X820000Y949901D02*
X830000Y959901D01*
X820000Y948282D02*
X830000Y958282D01*
X820000Y944739D02*
X830000Y954739D01*
X820000Y939412D02*
X830000Y949412D01*
X820000Y932514D02*
X830000Y942514D01*
X820000Y924319D02*
X830000Y934319D01*
X820000Y915155D02*
X830000Y925155D01*
X820000Y905387D02*
X830000Y915387D01*
X820000Y895404D02*
X830000Y905404D01*
X820000Y885604D02*
X830000Y895604D01*
X820000Y876378D02*
X830000Y886378D01*
X820000Y868094D02*
X830000Y878094D01*
X820000Y861082D02*
X830000Y871082D01*
X820000Y855621D02*
X830000Y865621D01*
X820000Y851930D02*
X830000Y861930D01*
X820000Y850154D02*
X830000Y860154D01*
X820000Y850367D02*
X830000Y860367D01*
X820000Y852557D02*
X830000Y862557D01*
X820000Y856639D02*
X830000Y866639D01*
X820000Y862450D02*
X830000Y872450D01*
X820000Y869758D02*
X830000Y879758D01*
X820000Y878271D02*
X830000Y888271D01*
X820000Y887651D02*
X830000Y897651D01*
X820000Y897523D02*
X830000Y907523D01*
X860000Y896242D02*
X870000Y906242D01*
X860000Y886411D02*
X870000Y896411D01*
X860000Y877123D02*
X870000Y887123D01*
X860000Y868746D02*
X870000Y878746D01*
X860000Y861615D02*
X870000Y871615D01*
X860000Y856015D02*
X870000Y866015D01*
X860000Y852168D02*
X870000Y862168D01*
X860000Y850228D02*
X870000Y860228D01*
X860000Y850272D02*
X870000Y860272D01*
X860000Y852299D02*
X870000Y862299D01*
X860000Y856227D02*
X870000Y866227D01*
X860000Y861900D02*
X870000Y871900D01*
X860000Y869093D02*
X870000Y879093D01*
X860000Y877517D02*
X870000Y887517D01*
X860000Y886838D02*
X870000Y896838D01*
X860000Y896683D02*
X870000Y906683D01*
X860000Y906661D02*
X870000Y916661D01*
X860000Y916373D02*
X870000Y926373D01*
X860000Y925433D02*
X870000Y935433D01*
X860000Y933478D02*
X870000Y943478D01*
X860000Y940189D02*
X870000Y950189D01*
X860000Y945297D02*
X870000Y955297D01*
X860000Y948600D02*
X870000Y958600D01*
X860000Y949965D02*
X870000Y959965D01*
X860000Y949338D02*
X870000Y959338D01*
X860000Y946744D02*
X870000Y956744D01*
X860000Y942287D02*
X870000Y952287D01*
X860000Y936144D02*
X870000Y946144D01*
X860000Y928559D02*
X870000Y938559D01*
X860000Y919837D02*
X870000Y929837D01*
X860000Y910323D02*
X870000Y920323D01*
X860000Y900398D02*
X870000Y910398D01*
X860000Y890457D02*
X870000Y900457D01*
X860000Y880896D02*
X870000Y890896D01*
X860000Y872097D02*
X870000Y882097D01*
X860000Y864410D02*
X870000Y874410D01*
X860000Y858142D02*
X870000Y868142D01*
X860000Y853543D02*
X870000Y863543D01*
X860000Y850796D02*
X870000Y860796D01*
X860000Y850011D02*
X870000Y860011D01*
X860000Y851218D02*
X870000Y861218D01*
X860000Y854370D02*
X870000Y864370D01*
X860000Y859342D02*
X870000Y869342D01*
X860000Y865934D02*
X870000Y875934D01*
X860000Y873884D02*
X870000Y883884D01*
X860000Y882875D02*
X870000Y892875D01*
X860000Y892550D02*
X870000Y902550D01*
X860000Y902521D02*
X870000Y912521D01*
X860000Y912391D02*
X870000Y922391D01*
X860000Y921768D02*
X870000Y931768D01*
M02*
