G04 VLSI Layer: Metal Interconnects*
%FSLAX36Y36*%
%MOMM*%
G75*
G01*
%ADD13C,0.001*%
D13*
X756682Y776793D02*
X756682Y876793D01*
X756682Y876793D01*
X763268Y230708D02*
X763268Y230708D01*
X663268Y230708D01*
X740033Y391613D02*
X740033Y391613D01*
X740033Y391613D01*
X751414Y229916D02*
X751414Y329916D01*
X651414Y329916D01*
X565427Y325854D02*
X565427Y425854D01*
X465427Y425854D01*
X613610Y455582D02*
X613610Y455582D01*
X513610Y455582D01*
X753944Y690667D02*
X753944Y590667D01*
X853944Y590667D01*
X345904Y547585D02*
X345904Y647585D01*
X245904Y647585D01*
X539773Y314948D02*
X539773Y314948D01*
X539773Y314948D01*
X614471Y222705D02*
X614471Y222705D01*
X514471Y222705D01*
X293334Y677170D02*
X293334Y777170D01*
X293334Y777170D01*
X489760Y244895D02*
X489760Y344895D01*
X489760Y344895D01*
X605711Y788694D02*
X605711Y888694D01*
X505711Y888694D01*
X764908Y469707D02*
X764908Y369707D01*
X664908Y369707D01*
X695293Y335251D02*
X695293Y435251D01*
X795293Y435251D01*
X668198Y645391D02*
X668198Y645391D01*
X768198Y645391D01*
X559703Y387093D02*
X559703Y287093D01*
X559703Y287093D01*
X759434Y563098D02*
X759434Y463098D01*
X659434Y463098D01*
X370045Y206253D02*
X370045Y306253D01*
X470045Y306253D01*
X794797Y385575D02*
X794797Y485575D01*
X894797Y485575D01*
X585649Y409192D02*
X585649Y509192D01*
X685649Y509192D01*
X654028Y700923D02*
X654028Y600923D01*
X754028Y600923D01*
X263440Y275212D02*
X263440Y375212D01*
X163440Y375212D01*
X216272Y201610D02*
X216272Y101610D01*
X216272Y101610D01*
X669444Y757910D02*
X669444Y657910D01*
X569444Y657910D01*
X339078Y640167D02*
X339078Y640167D01*
X439078Y640167D01*
X492416Y345320D02*
X492416Y345320D01*
X392416Y345320D01*
X755066Y568393D02*
X755066Y468393D01*
X855066Y468393D01*
X693800Y754649D02*
X693800Y654649D01*
X593800Y654649D01*
X654317Y522034D02*
X654317Y622034D01*
X554317Y622034D01*
X428165Y212437D02*
X428165Y312437D01*
X528165Y312437D01*
X596894Y689065D02*
X596894Y789065D01*
X596894Y789065D01*
X631843Y410603D02*
X631843Y510603D01*
X531843Y510603D01*
X710510Y704503D02*
X710510Y804503D01*
X710510Y804503D01*
X282355Y778633D02*
X282355Y678633D01*
X382355Y678633D01*
X546246Y570439D02*
X546246Y670439D01*
X446246Y670439D01*
X636689Y583817D02*
X636689Y683817D01*
X536689Y683817D01*
X315068Y673627D02*
X315068Y673627D01*
X415068Y673627D01*
X459668Y347175D02*
X459668Y247175D01*
X359668Y247175D01*
X626636Y363437D02*
X626636Y363437D01*
X626636Y363437D01*
X672014Y662368D02*
X672014Y562368D01*
X572014Y562368D01*
X532834Y559740D02*
X532834Y659740D01*
X432834Y659740D01*
X623760Y462529D02*
X623760Y362529D01*
X623760Y362529D01*
X701233Y596698D02*
X701233Y496698D01*
X601233Y496698D01*
X588591Y715743D02*
X588591Y715743D01*
X488591Y715743D01*
X761604Y405006D02*
X761604Y305006D01*
X661604Y305006D01*
X520663Y727347D02*
X520663Y727347D01*
X520663Y727347D01*
X423370Y313864D02*
X423370Y313864D01*
X323370Y313864D01*
X325042Y625943D02*
X325042Y625943D01*
X225042Y625943D01*
X545374Y341718D02*
X545374Y341718D01*
X645374Y341718D01*
M02*
