G04 VLSI Layer: Memristive Synaptic Grid (Compute-in-Memory)*
%FSLAX36Y36*%
%MOMM*%
G75*
G01*
%ADD15R,0.005X0.005*%
D15*
X300000Y300000D03*
X300000Y315000D03*
X300000Y329999D03*
X300000Y345000D03*
X300000Y360000D03*
X300000Y375000D03*
X300000Y390000D03*
X300000Y405000D03*
X300000Y420000D03*
X300000Y435000D03*
X300000Y449999D03*
X300000Y464999D03*
X300000Y480000D03*
X300000Y495000D03*
X300000Y510000D03*
X300000Y524999D03*
X300000Y540000D03*
X300000Y554999D03*
X300000Y570000D03*
X300000Y585000D03*
X300000Y600000D03*
X300000Y615000D03*
X300000Y629999D03*
X300000Y645000D03*
X300000Y659999D03*
X300000Y675000D03*
X300000Y690000D03*
X300000Y705000D03*
X300000Y720000D03*
X300000Y735000D03*
X300000Y750000D03*
X300000Y764999D03*
X315000Y300000D03*
X315000Y315000D03*
X315000Y329999D03*
X315000Y345000D03*
X315000Y360000D03*
X315000Y375000D03*
X315000Y390000D03*
X315000Y405000D03*
X315000Y420000D03*
X315000Y435000D03*
X315000Y449999D03*
X315000Y464999D03*
X315000Y480000D03*
X315000Y495000D03*
X315000Y510000D03*
X315000Y524999D03*
X315000Y540000D03*
X315000Y554999D03*
X315000Y570000D03*
X315000Y585000D03*
X315000Y600000D03*
X315000Y615000D03*
X315000Y629999D03*
X315000Y645000D03*
X315000Y659999D03*
X315000Y675000D03*
X315000Y690000D03*
X315000Y705000D03*
X315000Y720000D03*
X315000Y735000D03*
X315000Y750000D03*
X315000Y764999D03*
X329999Y300000D03*
X329999Y315000D03*
X329999Y329999D03*
X329999Y345000D03*
X329999Y360000D03*
X329999Y375000D03*
X329999Y390000D03*
X329999Y405000D03*
X329999Y420000D03*
X329999Y435000D03*
X329999Y449999D03*
X329999Y464999D03*
X329999Y480000D03*
X329999Y495000D03*
X329999Y510000D03*
X329999Y524999D03*
X329999Y540000D03*
X329999Y554999D03*
X329999Y570000D03*
X329999Y585000D03*
X329999Y600000D03*
X329999Y615000D03*
X329999Y629999D03*
X329999Y645000D03*
X329999Y659999D03*
X329999Y675000D03*
X329999Y690000D03*
X329999Y705000D03*
X329999Y720000D03*
X329999Y735000D03*
X329999Y750000D03*
X329999Y764999D03*
X345000Y300000D03*
X345000Y315000D03*
X345000Y329999D03*
X345000Y345000D03*
X345000Y360000D03*
X345000Y375000D03*
X345000Y390000D03*
X345000Y405000D03*
X345000Y420000D03*
X345000Y435000D03*
X345000Y449999D03*
X345000Y464999D03*
X345000Y480000D03*
X345000Y495000D03*
X345000Y510000D03*
X345000Y524999D03*
X345000Y540000D03*
X345000Y554999D03*
X345000Y570000D03*
X345000Y585000D03*
X345000Y600000D03*
X345000Y615000D03*
X345000Y629999D03*
X345000Y645000D03*
X345000Y659999D03*
X345000Y675000D03*
X345000Y690000D03*
X345000Y705000D03*
X345000Y720000D03*
X345000Y735000D03*
X345000Y750000D03*
X345000Y764999D03*
X360000Y300000D03*
X360000Y315000D03*
X360000Y329999D03*
X360000Y345000D03*
X360000Y360000D03*
X360000Y375000D03*
X360000Y390000D03*
X360000Y405000D03*
X360000Y420000D03*
X360000Y435000D03*
X360000Y449999D03*
X360000Y464999D03*
X360000Y480000D03*
X360000Y495000D03*
X360000Y510000D03*
X360000Y524999D03*
X360000Y540000D03*
X360000Y554999D03*
X360000Y570000D03*
X360000Y585000D03*
X360000Y600000D03*
X360000Y615000D03*
X360000Y629999D03*
X360000Y645000D03*
X360000Y659999D03*
X360000Y675000D03*
X360000Y690000D03*
X360000Y705000D03*
X360000Y720000D03*
X360000Y735000D03*
X360000Y750000D03*
X360000Y764999D03*
X375000Y300000D03*
X375000Y315000D03*
X375000Y329999D03*
X375000Y345000D03*
X375000Y360000D03*
X375000Y375000D03*
X375000Y390000D03*
X375000Y405000D03*
X375000Y420000D03*
X375000Y435000D03*
X375000Y449999D03*
X375000Y464999D03*
X375000Y480000D03*
X375000Y495000D03*
X375000Y510000D03*
X375000Y524999D03*
X375000Y540000D03*
X375000Y554999D03*
X375000Y570000D03*
X375000Y585000D03*
X375000Y600000D03*
X375000Y615000D03*
X375000Y629999D03*
X375000Y645000D03*
X375000Y659999D03*
X375000Y675000D03*
X375000Y690000D03*
X375000Y705000D03*
X375000Y720000D03*
X375000Y735000D03*
X375000Y750000D03*
X375000Y764999D03*
X390000Y300000D03*
X390000Y315000D03*
X390000Y329999D03*
X390000Y345000D03*
X390000Y360000D03*
X390000Y375000D03*
X390000Y390000D03*
X390000Y405000D03*
X390000Y420000D03*
X390000Y435000D03*
X390000Y449999D03*
X390000Y464999D03*
X390000Y480000D03*
X390000Y495000D03*
X390000Y510000D03*
X390000Y524999D03*
X390000Y540000D03*
X390000Y554999D03*
X390000Y570000D03*
X390000Y585000D03*
X390000Y600000D03*
X390000Y615000D03*
X390000Y629999D03*
X390000Y645000D03*
X390000Y659999D03*
X390000Y675000D03*
X390000Y690000D03*
X390000Y705000D03*
X390000Y720000D03*
X390000Y735000D03*
X390000Y750000D03*
X390000Y764999D03*
X405000Y300000D03*
X405000Y315000D03*
X405000Y329999D03*
X405000Y345000D03*
X405000Y360000D03*
X405000Y375000D03*
X405000Y390000D03*
X405000Y405000D03*
X405000Y420000D03*
X405000Y435000D03*
X405000Y449999D03*
X405000Y464999D03*
X405000Y480000D03*
X405000Y495000D03*
X405000Y510000D03*
X405000Y524999D03*
X405000Y540000D03*
X405000Y554999D03*
X405000Y570000D03*
X405000Y585000D03*
X405000Y600000D03*
X405000Y615000D03*
X405000Y629999D03*
X405000Y645000D03*
X405000Y659999D03*
X405000Y675000D03*
X405000Y690000D03*
X405000Y705000D03*
X405000Y720000D03*
X405000Y735000D03*
X405000Y750000D03*
X405000Y764999D03*
X420000Y300000D03*
X420000Y315000D03*
X420000Y329999D03*
X420000Y345000D03*
X420000Y360000D03*
X420000Y375000D03*
X420000Y390000D03*
X420000Y405000D03*
X420000Y420000D03*
X420000Y435000D03*
X420000Y449999D03*
X420000Y464999D03*
X420000Y480000D03*
X420000Y495000D03*
X420000Y510000D03*
X420000Y524999D03*
X420000Y540000D03*
X420000Y554999D03*
X420000Y570000D03*
X420000Y585000D03*
X420000Y600000D03*
X420000Y615000D03*
X420000Y629999D03*
X420000Y645000D03*
X420000Y659999D03*
X420000Y675000D03*
X420000Y690000D03*
X420000Y705000D03*
X420000Y720000D03*
X420000Y735000D03*
X420000Y750000D03*
X420000Y764999D03*
X435000Y300000D03*
X435000Y315000D03*
X435000Y329999D03*
X435000Y345000D03*
X435000Y360000D03*
X435000Y375000D03*
X435000Y390000D03*
X435000Y405000D03*
X435000Y420000D03*
X435000Y435000D03*
X435000Y449999D03*
X435000Y464999D03*
X435000Y480000D03*
X435000Y495000D03*
X435000Y510000D03*
X435000Y524999D03*
X435000Y540000D03*
X435000Y554999D03*
X435000Y570000D03*
X435000Y585000D03*
X435000Y600000D03*
X435000Y615000D03*
X435000Y629999D03*
X435000Y645000D03*
X435000Y659999D03*
X435000Y675000D03*
X435000Y690000D03*
X435000Y705000D03*
X435000Y720000D03*
X435000Y735000D03*
X435000Y750000D03*
X435000Y764999D03*
X449999Y300000D03*
X449999Y315000D03*
X449999Y329999D03*
X449999Y345000D03*
X449999Y360000D03*
X449999Y375000D03*
X449999Y390000D03*
X449999Y405000D03*
X449999Y420000D03*
X449999Y435000D03*
X449999Y449999D03*
X449999Y464999D03*
X449999Y480000D03*
X449999Y495000D03*
X449999Y510000D03*
X449999Y524999D03*
X449999Y540000D03*
X449999Y554999D03*
X449999Y570000D03*
X449999Y585000D03*
X449999Y600000D03*
X449999Y615000D03*
X449999Y629999D03*
X449999Y645000D03*
X449999Y659999D03*
X449999Y675000D03*
X449999Y690000D03*
X449999Y705000D03*
X449999Y720000D03*
X449999Y735000D03*
X449999Y750000D03*
X449999Y764999D03*
X464999Y300000D03*
X464999Y315000D03*
X464999Y329999D03*
X464999Y345000D03*
X464999Y360000D03*
X464999Y375000D03*
X464999Y390000D03*
X464999Y405000D03*
X464999Y420000D03*
X464999Y435000D03*
X464999Y449999D03*
X464999Y464999D03*
X464999Y480000D03*
X464999Y495000D03*
X464999Y510000D03*
X464999Y524999D03*
X464999Y540000D03*
X464999Y554999D03*
X464999Y570000D03*
X464999Y585000D03*
X464999Y600000D03*
X464999Y615000D03*
X464999Y629999D03*
X464999Y645000D03*
X464999Y659999D03*
X464999Y675000D03*
X464999Y690000D03*
X464999Y705000D03*
X464999Y720000D03*
X464999Y735000D03*
X464999Y750000D03*
X464999Y764999D03*
X480000Y300000D03*
X480000Y315000D03*
X480000Y329999D03*
X480000Y345000D03*
X480000Y360000D03*
X480000Y375000D03*
X480000Y390000D03*
X480000Y405000D03*
X480000Y420000D03*
X480000Y435000D03*
X480000Y449999D03*
X480000Y464999D03*
X480000Y480000D03*
X480000Y495000D03*
X480000Y510000D03*
X480000Y524999D03*
X480000Y540000D03*
X480000Y554999D03*
X480000Y570000D03*
X480000Y585000D03*
X480000Y600000D03*
X480000Y615000D03*
X480000Y629999D03*
X480000Y645000D03*
X480000Y659999D03*
X480000Y675000D03*
X480000Y690000D03*
X480000Y705000D03*
X480000Y720000D03*
X480000Y735000D03*
X480000Y750000D03*
X480000Y764999D03*
X495000Y300000D03*
X495000Y315000D03*
X495000Y329999D03*
X495000Y345000D03*
X495000Y360000D03*
X495000Y375000D03*
X495000Y390000D03*
X495000Y405000D03*
X495000Y420000D03*
X495000Y435000D03*
X495000Y449999D03*
X495000Y464999D03*
X495000Y480000D03*
X495000Y495000D03*
X495000Y510000D03*
X495000Y524999D03*
X495000Y540000D03*
X495000Y554999D03*
X495000Y570000D03*
X495000Y585000D03*
X495000Y600000D03*
X495000Y615000D03*
X495000Y629999D03*
X495000Y645000D03*
X495000Y659999D03*
X495000Y675000D03*
X495000Y690000D03*
X495000Y705000D03*
X495000Y720000D03*
X495000Y735000D03*
X495000Y750000D03*
X495000Y764999D03*
X510000Y300000D03*
X510000Y315000D03*
X510000Y329999D03*
X510000Y345000D03*
X510000Y360000D03*
X510000Y375000D03*
X510000Y390000D03*
X510000Y405000D03*
X510000Y420000D03*
X510000Y435000D03*
X510000Y449999D03*
X510000Y464999D03*
X510000Y480000D03*
X510000Y495000D03*
X510000Y510000D03*
X510000Y524999D03*
X510000Y540000D03*
X510000Y554999D03*
X510000Y570000D03*
X510000Y585000D03*
X510000Y600000D03*
X510000Y615000D03*
X510000Y629999D03*
X510000Y645000D03*
X510000Y659999D03*
X510000Y675000D03*
X510000Y690000D03*
X510000Y705000D03*
X510000Y720000D03*
X510000Y735000D03*
X510000Y750000D03*
X510000Y764999D03*
X524999Y300000D03*
X524999Y315000D03*
X524999Y329999D03*
X524999Y345000D03*
X524999Y360000D03*
X524999Y375000D03*
X524999Y390000D03*
X524999Y405000D03*
X524999Y420000D03*
X524999Y435000D03*
X524999Y449999D03*
X524999Y464999D03*
X524999Y480000D03*
X524999Y495000D03*
X524999Y510000D03*
X524999Y524999D03*
X524999Y540000D03*
X524999Y554999D03*
X524999Y570000D03*
X524999Y585000D03*
X524999Y600000D03*
X524999Y615000D03*
X524999Y629999D03*
X524999Y645000D03*
X524999Y659999D03*
X524999Y675000D03*
X524999Y690000D03*
X524999Y705000D03*
X524999Y720000D03*
X524999Y735000D03*
X524999Y750000D03*
X524999Y764999D03*
X540000Y300000D03*
X540000Y315000D03*
X540000Y329999D03*
X540000Y345000D03*
X540000Y360000D03*
X540000Y375000D03*
X540000Y390000D03*
X540000Y405000D03*
X540000Y420000D03*
X540000Y435000D03*
X540000Y449999D03*
X540000Y464999D03*
X540000Y480000D03*
X540000Y495000D03*
X540000Y510000D03*
X540000Y524999D03*
X540000Y540000D03*
X540000Y554999D03*
X540000Y570000D03*
X540000Y585000D03*
X540000Y600000D03*
X540000Y615000D03*
X540000Y629999D03*
X540000Y645000D03*
X540000Y659999D03*
X540000Y675000D03*
X540000Y690000D03*
X540000Y705000D03*
X540000Y720000D03*
X540000Y735000D03*
X540000Y750000D03*
X540000Y764999D03*
X554999Y300000D03*
X554999Y315000D03*
X554999Y329999D03*
X554999Y345000D03*
X554999Y360000D03*
X554999Y375000D03*
X554999Y390000D03*
X554999Y405000D03*
X554999Y420000D03*
X554999Y435000D03*
X554999Y449999D03*
X554999Y464999D03*
X554999Y480000D03*
X554999Y495000D03*
X554999Y510000D03*
X554999Y524999D03*
X554999Y540000D03*
X554999Y554999D03*
X554999Y570000D03*
X554999Y585000D03*
X554999Y600000D03*
X554999Y615000D03*
X554999Y629999D03*
X554999Y645000D03*
X554999Y659999D03*
X554999Y675000D03*
X554999Y690000D03*
X554999Y705000D03*
X554999Y720000D03*
X554999Y735000D03*
X554999Y750000D03*
X554999Y764999D03*
X570000Y300000D03*
X570000Y315000D03*
X570000Y329999D03*
X570000Y345000D03*
X570000Y360000D03*
X570000Y375000D03*
X570000Y390000D03*
X570000Y405000D03*
X570000Y420000D03*
X570000Y435000D03*
X570000Y449999D03*
X570000Y464999D03*
X570000Y480000D03*
X570000Y495000D03*
X570000Y510000D03*
X570000Y524999D03*
X570000Y540000D03*
X570000Y554999D03*
X570000Y570000D03*
X570000Y585000D03*
X570000Y600000D03*
X570000Y615000D03*
X570000Y629999D03*
X570000Y645000D03*
X570000Y659999D03*
X570000Y675000D03*
X570000Y690000D03*
X570000Y705000D03*
X570000Y720000D03*
X570000Y735000D03*
X570000Y750000D03*
X570000Y764999D03*
X585000Y300000D03*
X585000Y315000D03*
X585000Y329999D03*
X585000Y345000D03*
X585000Y360000D03*
X585000Y375000D03*
X585000Y390000D03*
X585000Y405000D03*
X585000Y420000D03*
X585000Y435000D03*
X585000Y449999D03*
X585000Y464999D03*
X585000Y480000D03*
X585000Y495000D03*
X585000Y510000D03*
X585000Y524999D03*
X585000Y540000D03*
X585000Y554999D03*
X585000Y570000D03*
X585000Y585000D03*
X585000Y600000D03*
X585000Y615000D03*
X585000Y629999D03*
X585000Y645000D03*
X585000Y659999D03*
X585000Y675000D03*
X585000Y690000D03*
X585000Y705000D03*
X585000Y720000D03*
X585000Y735000D03*
X585000Y750000D03*
X585000Y764999D03*
X600000Y300000D03*
X600000Y315000D03*
X600000Y329999D03*
X600000Y345000D03*
X600000Y360000D03*
X600000Y375000D03*
X600000Y390000D03*
X600000Y405000D03*
X600000Y420000D03*
X600000Y435000D03*
X600000Y449999D03*
X600000Y464999D03*
X600000Y480000D03*
X600000Y495000D03*
X600000Y510000D03*
X600000Y524999D03*
X600000Y540000D03*
X600000Y554999D03*
X600000Y570000D03*
X600000Y585000D03*
X600000Y600000D03*
X600000Y615000D03*
X600000Y629999D03*
X600000Y645000D03*
X600000Y659999D03*
X600000Y675000D03*
X600000Y690000D03*
X600000Y705000D03*
X600000Y720000D03*
X600000Y735000D03*
X600000Y750000D03*
X600000Y764999D03*
X615000Y300000D03*
X615000Y315000D03*
X615000Y329999D03*
X615000Y345000D03*
X615000Y360000D03*
X615000Y375000D03*
X615000Y390000D03*
X615000Y405000D03*
X615000Y420000D03*
X615000Y435000D03*
X615000Y449999D03*
X615000Y464999D03*
X615000Y480000D03*
X615000Y495000D03*
X615000Y510000D03*
X615000Y524999D03*
X615000Y540000D03*
X615000Y554999D03*
X615000Y570000D03*
X615000Y585000D03*
X615000Y600000D03*
X615000Y615000D03*
X615000Y629999D03*
X615000Y645000D03*
X615000Y659999D03*
X615000Y675000D03*
X615000Y690000D03*
X615000Y705000D03*
X615000Y720000D03*
X615000Y735000D03*
X615000Y750000D03*
X615000Y764999D03*
X629999Y300000D03*
X629999Y315000D03*
X629999Y329999D03*
X629999Y345000D03*
X629999Y360000D03*
X629999Y375000D03*
X629999Y390000D03*
X629999Y405000D03*
X629999Y420000D03*
X629999Y435000D03*
X629999Y449999D03*
X629999Y464999D03*
X629999Y480000D03*
X629999Y495000D03*
X629999Y510000D03*
X629999Y524999D03*
X629999Y540000D03*
X629999Y554999D03*
X629999Y570000D03*
X629999Y585000D03*
X629999Y600000D03*
X629999Y615000D03*
X629999Y629999D03*
X629999Y645000D03*
X629999Y659999D03*
X629999Y675000D03*
X629999Y690000D03*
X629999Y705000D03*
X629999Y720000D03*
X629999Y735000D03*
X629999Y750000D03*
X629999Y764999D03*
X645000Y300000D03*
X645000Y315000D03*
X645000Y329999D03*
X645000Y345000D03*
X645000Y360000D03*
X645000Y375000D03*
X645000Y390000D03*
X645000Y405000D03*
X645000Y420000D03*
X645000Y435000D03*
X645000Y449999D03*
X645000Y464999D03*
X645000Y480000D03*
X645000Y495000D03*
X645000Y510000D03*
X645000Y524999D03*
X645000Y540000D03*
X645000Y554999D03*
X645000Y570000D03*
X645000Y585000D03*
X645000Y600000D03*
X645000Y615000D03*
X645000Y629999D03*
X645000Y645000D03*
X645000Y659999D03*
X645000Y675000D03*
X645000Y690000D03*
X645000Y705000D03*
X645000Y720000D03*
X645000Y735000D03*
X645000Y750000D03*
X645000Y764999D03*
X659999Y300000D03*
X659999Y315000D03*
X659999Y329999D03*
X659999Y345000D03*
X659999Y360000D03*
X659999Y375000D03*
X659999Y390000D03*
X659999Y405000D03*
X659999Y420000D03*
X659999Y435000D03*
X659999Y449999D03*
X659999Y464999D03*
X659999Y480000D03*
X659999Y495000D03*
X659999Y510000D03*
X659999Y524999D03*
X659999Y540000D03*
X659999Y554999D03*
X659999Y570000D03*
X659999Y585000D03*
X659999Y600000D03*
X659999Y615000D03*
X659999Y629999D03*
X659999Y645000D03*
X659999Y659999D03*
X659999Y675000D03*
X659999Y690000D03*
X659999Y705000D03*
X659999Y720000D03*
X659999Y735000D03*
X659999Y750000D03*
X659999Y764999D03*
X675000Y300000D03*
X675000Y315000D03*
X675000Y329999D03*
X675000Y345000D03*
X675000Y360000D03*
X675000Y375000D03*
X675000Y390000D03*
X675000Y405000D03*
X675000Y420000D03*
X675000Y435000D03*
X675000Y449999D03*
X675000Y464999D03*
X675000Y480000D03*
X675000Y495000D03*
X675000Y510000D03*
X675000Y524999D03*
X675000Y540000D03*
X675000Y554999D03*
X675000Y570000D03*
X675000Y585000D03*
X675000Y600000D03*
X675000Y615000D03*
X675000Y629999D03*
X675000Y645000D03*
X675000Y659999D03*
X675000Y675000D03*
X675000Y690000D03*
X675000Y705000D03*
X675000Y720000D03*
X675000Y735000D03*
X675000Y750000D03*
X675000Y764999D03*
X690000Y300000D03*
X690000Y315000D03*
X690000Y329999D03*
X690000Y345000D03*
X690000Y360000D03*
X690000Y375000D03*
X690000Y390000D03*
X690000Y405000D03*
X690000Y420000D03*
X690000Y435000D03*
X690000Y449999D03*
X690000Y464999D03*
X690000Y480000D03*
X690000Y495000D03*
X690000Y510000D03*
X690000Y524999D03*
X690000Y540000D03*
X690000Y554999D03*
X690000Y570000D03*
X690000Y585000D03*
X690000Y600000D03*
X690000Y615000D03*
X690000Y629999D03*
X690000Y645000D03*
X690000Y659999D03*
X690000Y675000D03*
X690000Y690000D03*
X690000Y705000D03*
X690000Y720000D03*
X690000Y735000D03*
X690000Y750000D03*
X690000Y764999D03*
X705000Y300000D03*
X705000Y315000D03*
X705000Y329999D03*
X705000Y345000D03*
X705000Y360000D03*
X705000Y375000D03*
X705000Y390000D03*
X705000Y405000D03*
X705000Y420000D03*
X705000Y435000D03*
X705000Y449999D03*
X705000Y464999D03*
X705000Y480000D03*
X705000Y495000D03*
X705000Y510000D03*
X705000Y524999D03*
X705000Y540000D03*
X705000Y554999D03*
X705000Y570000D03*
X705000Y585000D03*
X705000Y600000D03*
X705000Y615000D03*
X705000Y629999D03*
X705000Y645000D03*
X705000Y659999D03*
X705000Y675000D03*
X705000Y690000D03*
X705000Y705000D03*
X705000Y720000D03*
X705000Y735000D03*
X705000Y750000D03*
X705000Y764999D03*
X720000Y300000D03*
X720000Y315000D03*
X720000Y329999D03*
X720000Y345000D03*
X720000Y360000D03*
X720000Y375000D03*
X720000Y390000D03*
X720000Y405000D03*
X720000Y420000D03*
X720000Y435000D03*
X720000Y449999D03*
X720000Y464999D03*
X720000Y480000D03*
X720000Y495000D03*
X720000Y510000D03*
X720000Y524999D03*
X720000Y540000D03*
X720000Y554999D03*
X720000Y570000D03*
X720000Y585000D03*
X720000Y600000D03*
X720000Y615000D03*
X720000Y629999D03*
X720000Y645000D03*
X720000Y659999D03*
X720000Y675000D03*
X720000Y690000D03*
X720000Y705000D03*
X720000Y720000D03*
X720000Y735000D03*
X720000Y750000D03*
X720000Y764999D03*
X735000Y300000D03*
X735000Y315000D03*
X735000Y329999D03*
X735000Y345000D03*
X735000Y360000D03*
X735000Y375000D03*
X735000Y390000D03*
X735000Y405000D03*
X735000Y420000D03*
X735000Y435000D03*
X735000Y449999D03*
X735000Y464999D03*
X735000Y480000D03*
X735000Y495000D03*
X735000Y510000D03*
X735000Y524999D03*
X735000Y540000D03*
X735000Y554999D03*
X735000Y570000D03*
X735000Y585000D03*
X735000Y600000D03*
X735000Y615000D03*
X735000Y629999D03*
X735000Y645000D03*
X735000Y659999D03*
X735000Y675000D03*
X735000Y690000D03*
X735000Y705000D03*
X735000Y720000D03*
X735000Y735000D03*
X735000Y750000D03*
X735000Y764999D03*
X750000Y300000D03*
X750000Y315000D03*
X750000Y329999D03*
X750000Y345000D03*
X750000Y360000D03*
X750000Y375000D03*
X750000Y390000D03*
X750000Y405000D03*
X750000Y420000D03*
X750000Y435000D03*
X750000Y449999D03*
X750000Y464999D03*
X750000Y480000D03*
X750000Y495000D03*
X750000Y510000D03*
X750000Y524999D03*
X750000Y540000D03*
X750000Y554999D03*
X750000Y570000D03*
X750000Y585000D03*
X750000Y600000D03*
X750000Y615000D03*
X750000Y629999D03*
X750000Y645000D03*
X750000Y659999D03*
X750000Y675000D03*
X750000Y690000D03*
X750000Y705000D03*
X750000Y720000D03*
X750000Y735000D03*
X750000Y750000D03*
X750000Y764999D03*
X764999Y300000D03*
X764999Y315000D03*
X764999Y329999D03*
X764999Y345000D03*
X764999Y360000D03*
X764999Y375000D03*
X764999Y390000D03*
X764999Y405000D03*
X764999Y420000D03*
X764999Y435000D03*
X764999Y449999D03*
X764999Y464999D03*
X764999Y480000D03*
X764999Y495000D03*
X764999Y510000D03*
X764999Y524999D03*
X764999Y540000D03*
X764999Y554999D03*
X764999Y570000D03*
X764999Y585000D03*
X764999Y600000D03*
X764999Y615000D03*
X764999Y629999D03*
X764999Y645000D03*
X764999Y659999D03*
X764999Y675000D03*
X764999Y690000D03*
X764999Y705000D03*
X764999Y720000D03*
X764999Y735000D03*
X764999Y750000D03*
X764999Y764999D03*
M02*
